<svg width="38" height="38" viewBox="0 0 38 38" fill="none" xmlns="http://www.w3.org/2000/svg">
<circle cx="19" cy="19" r="18.5" stroke="#00FFAC"/>
<path d="M14.1538 21.5324H14.9738C14.9205 22.039 14.9005 22.5257 14.9138 22.9924C14.9272 23.4457 15.0205 23.8457 15.1938 24.1924C15.3805 24.5257 15.6605 24.799 16.0338 25.0124C16.4072 25.2124 16.9138 25.3124 17.5538 25.3124C18.1405 25.3124 18.6405 25.239 19.0538 25.0924C19.4672 24.9324 19.7938 24.7324 20.0338 24.4924C20.2872 24.239 20.4672 23.9524 20.5738 23.6324C20.6938 23.299 20.7538 22.9657 20.7538 22.6324C20.7538 22.259 20.6872 21.9457 20.5538 21.6924C20.4205 21.439 20.2405 21.219 20.0138 21.0324C19.7872 20.8457 19.5138 20.679 19.1938 20.5324C18.8872 20.3857 18.5538 20.2257 18.1938 20.0524C17.8072 19.8657 17.4605 19.679 17.1538 19.4924C16.8472 19.3057 16.5872 19.0857 16.3738 18.8324C16.1605 18.579 15.9938 18.2724 15.8738 17.9124C15.7672 17.539 15.7138 17.0857 15.7138 16.5524C15.7138 16.0057 15.8272 15.4724 16.0538 14.9524C16.2938 14.419 16.6338 13.9524 17.0738 13.5524C17.5272 13.139 18.0805 12.8057 18.7338 12.5524C19.4005 12.299 20.1605 12.1724 21.0138 12.1724C22.1072 12.1724 22.9405 12.4257 23.5138 12.9324C24.1005 13.439 24.3938 14.079 24.3938 14.8524C24.3938 15.119 24.3605 15.3724 24.2938 15.6124C24.2272 15.8524 24.1405 16.0724 24.0338 16.2724H23.1338C23.1872 15.9524 23.2205 15.619 23.2338 15.2724C23.2605 14.9124 23.2072 14.5857 23.0738 14.2924C22.9538 13.9857 22.7205 13.7324 22.3738 13.5324C22.0405 13.3324 21.5472 13.2324 20.8938 13.2324C20.2672 13.2324 19.7472 13.3124 19.3338 13.4724C18.9338 13.619 18.6138 13.8124 18.3738 14.0524C18.1338 14.2924 17.9605 14.5657 17.8538 14.8724C17.7605 15.1657 17.7138 15.459 17.7138 15.7524C17.7138 16.5124 17.9138 17.0324 18.3138 17.3124C18.7272 17.579 19.2872 17.8324 19.9938 18.0724C20.3938 18.2057 20.7738 18.359 21.1338 18.5324C21.4938 18.7057 21.8138 18.9257 22.0938 19.1924C22.3738 19.4457 22.5938 19.7724 22.7538 20.1724C22.9138 20.559 22.9938 21.0457 22.9938 21.6324C22.9938 22.179 22.8805 22.739 22.6538 23.3124C22.4405 23.8724 22.1072 24.379 21.6538 24.8324C21.2005 25.2857 20.6272 25.659 19.9338 25.9524C19.2405 26.2324 18.4338 26.3724 17.5138 26.3724C16.7805 26.3724 16.1672 26.279 15.6738 26.0924C15.1805 25.9057 14.7872 25.6657 14.4938 25.3724C14.2005 25.0657 13.9938 24.7257 13.8738 24.3524C13.7538 23.979 13.6938 23.6057 13.6938 23.2324C13.6938 22.939 13.7272 22.6457 13.7938 22.3524C13.8738 22.059 13.9938 21.7857 14.1538 21.5324Z" fill="black"/>
<path d="M14.1538 21.5324V20.5324H13.6026L13.3083 20.9984L14.1538 21.5324ZM14.9738 21.5324L15.9683 21.637L16.0846 20.5324H14.9738V21.5324ZM14.9138 22.9924L13.9142 23.0209L13.9143 23.0218L14.9138 22.9924ZM15.1938 24.1924L14.2994 24.6396L14.3099 24.6605L14.3213 24.681L15.1938 24.1924ZM16.0338 25.0124L15.5377 25.8806L15.5495 25.8874L15.5616 25.8938L16.0338 25.0124ZM19.0538 25.0924L19.3882 26.0348L19.4016 26.0301L19.4148 26.0249L19.0538 25.0924ZM20.0338 24.4924L20.7409 25.1995L20.0338 24.4924ZM20.5738 23.6324L19.6329 23.2936L19.6289 23.3048L19.6251 23.3161L20.5738 23.6324ZM20.5538 21.6924L21.4387 21.2266V21.2266L20.5538 21.6924ZM20.0138 21.0324L19.3781 21.8043L19.3781 21.8043L20.0138 21.0324ZM19.1938 20.5324L18.7624 21.4345L18.7697 21.438L18.7772 21.4414L19.1938 20.5324ZM18.1938 20.0524L17.7591 20.9529L17.76 20.9534L18.1938 20.0524ZM15.8738 17.9124L14.9123 18.1871L14.9183 18.208L14.9251 18.2286L15.8738 17.9124ZM16.0538 14.9524L15.1418 14.542L15.1371 14.5528L16.0538 14.9524ZM17.0738 13.5524L17.7465 14.2923L17.7476 14.2913L17.0738 13.5524ZM18.7338 12.5524L18.3786 11.6176L18.3723 11.62L18.7338 12.5524ZM23.5138 12.9324L22.8516 13.6817L22.8602 13.6892L23.5138 12.9324ZM24.2938 15.6124L25.2573 15.88V15.88L24.2938 15.6124ZM24.0338 16.2724V17.2724H24.6338L24.9162 16.743L24.0338 16.2724ZM23.1338 16.2724L22.1474 16.108L21.9534 17.2724H23.1338V16.2724ZM23.2338 15.2724L22.2366 15.1985L22.2352 15.2162L22.2346 15.2339L23.2338 15.2724ZM23.0738 14.2924L22.1426 14.6568L22.1524 14.6817L22.1635 14.7062L23.0738 14.2924ZM22.3738 13.5324L21.8593 14.3899L21.8667 14.3943L21.8741 14.3985L22.3738 13.5324ZM19.3338 13.4724L19.6781 14.4112L19.6865 14.4082L19.6948 14.4049L19.3338 13.4724ZM18.3738 14.0524L19.0809 14.7595L18.3738 14.0524ZM17.8538 14.8724L16.9093 14.5438L16.9049 14.5564L16.9009 14.5692L17.8538 14.8724ZM18.3138 17.3124L17.7404 18.1316L17.7558 18.1424L17.7717 18.1527L18.3138 17.3124ZM19.9938 18.0724L19.6722 19.0193L19.6776 19.021L19.9938 18.0724ZM21.1338 18.5324L21.5676 17.6314H21.5676L21.1338 18.5324ZM22.0938 19.1924L21.4042 19.9165L21.4134 19.9253L21.4229 19.9339L22.0938 19.1924ZM22.7538 20.1724L21.8253 20.5438L21.8298 20.5547L22.7538 20.1724ZM22.6538 23.3124L21.7238 22.9447L21.7193 22.9564L22.6538 23.3124ZM21.6538 24.8324L22.3609 25.5395L21.6538 24.8324ZM19.9338 25.9524L20.3083 26.8796L20.3159 26.8765L20.3235 26.8733L19.9338 25.9524ZM14.4938 25.3724L13.7712 26.0636L13.7789 26.0716L13.7867 26.0795L14.4938 25.3724ZM13.8738 24.3524L14.8258 24.0464H14.8258L13.8738 24.3524ZM13.7938 22.3524L12.8291 22.0892L12.8234 22.1099L12.8187 22.1307L13.7938 22.3524ZM14.1538 22.5324H14.9738V20.5324H14.1538V22.5324ZM13.9793 21.4277C13.9217 21.9746 13.8995 22.506 13.9142 23.0209L15.9134 22.9638C15.9015 22.5454 15.9192 22.1034 15.9683 21.637L13.9793 21.4277ZM13.9143 23.0218C13.9311 23.5958 14.0509 24.1426 14.2994 24.6396L16.0882 23.7451C15.99 23.5488 15.9232 23.2956 15.9134 22.963L13.9143 23.0218ZM14.3213 24.681C14.6074 25.1918 15.027 25.5888 15.5377 25.8806L16.53 24.1441C16.294 24.0093 16.1536 23.8596 16.0663 23.7038L14.3213 24.681ZM15.5616 25.8938C16.1357 26.2014 16.8263 26.3124 17.5538 26.3124V24.3124C17.0013 24.3124 16.6786 24.2233 16.506 24.1309L15.5616 25.8938ZM17.5538 26.3124C18.2184 26.3124 18.8381 26.23 19.3882 26.0348L18.7194 24.1499C18.4429 24.2481 18.0626 24.3124 17.5538 24.3124V26.3124ZM19.4148 26.0249C19.92 25.8294 20.3773 25.5631 20.7409 25.1995L19.3267 23.7853C19.2103 23.9017 19.0143 24.0354 18.6928 24.1598L19.4148 26.0249ZM20.7409 25.1995C21.097 24.8434 21.3637 24.425 21.5225 23.9486L19.6251 23.3161C19.5706 23.4798 19.4773 23.6347 19.3267 23.7853L20.7409 25.1995ZM21.5147 23.9711C21.6713 23.536 21.7538 23.0883 21.7538 22.6324H19.7538C19.7538 22.8431 19.7163 23.0621 19.6329 23.2936L21.5147 23.9711ZM21.7538 22.6324C21.7538 22.1445 21.6671 21.6606 21.4387 21.2266L19.6689 22.1581C19.7072 22.2308 19.7538 22.3736 19.7538 22.6324H21.7538ZM21.4387 21.2266C21.2419 20.8526 20.9761 20.5294 20.6495 20.2604L19.3781 21.8043C19.5049 21.9087 19.5991 22.0254 19.6689 22.1581L21.4387 21.2266ZM20.6495 20.2604C20.3444 20.0092 19.9941 19.7991 19.6105 19.6233L18.7772 21.4414C19.0336 21.5589 19.2299 21.6822 19.3781 21.8043L20.6495 20.2604ZM19.6253 19.6302C19.3195 19.484 18.987 19.3244 18.6276 19.1514L17.76 20.9534C18.1207 21.127 18.4548 21.2874 18.7624 21.4345L19.6253 19.6302ZM18.6286 19.1518C18.2656 18.9766 17.9481 18.8051 17.6738 18.6382L16.6339 20.3466C16.9729 20.5529 17.3487 20.7548 17.7591 20.9529L18.6286 19.1518ZM17.6738 18.6382C17.4518 18.5031 17.2767 18.3521 17.1387 18.1882L15.6089 19.4765C15.8976 19.8193 16.2425 20.1083 16.6339 20.3466L17.6738 18.6382ZM17.1387 18.1882C17.0178 18.0446 16.9083 17.8535 16.8225 17.5961L14.9251 18.2286C15.0793 18.6912 15.3032 19.1134 15.6089 19.4765L17.1387 18.1882ZM16.8353 17.6376C16.7617 17.3799 16.7138 17.0248 16.7138 16.5524H14.7138C14.7138 17.1466 14.7726 17.6981 14.9123 18.1871L16.8353 17.6376ZM16.7138 16.5524C16.7138 16.1484 16.7967 15.7508 16.9705 15.3519L15.1371 14.5528C14.8576 15.194 14.7138 15.863 14.7138 16.5524H16.7138ZM16.9657 15.3627C17.1485 14.9566 17.4063 14.6016 17.7465 14.2923L16.4011 12.8124C15.8614 13.3031 15.4392 13.8814 15.1419 14.542L16.9657 15.3627ZM17.7476 14.2913C18.0976 13.9721 18.5409 13.6997 19.0953 13.4847L18.3723 11.62C17.62 11.9117 16.9567 12.3059 16.4001 12.8134L17.7476 14.2913ZM19.089 13.4871C19.6224 13.2845 20.2586 13.1724 21.0138 13.1724V11.1724C20.0624 11.1724 19.1786 11.3136 18.3786 11.6176L19.089 13.4871ZM21.0138 13.1724C21.9667 13.1724 22.526 13.394 22.8516 13.6817L24.176 12.183C23.3549 11.4574 22.2476 11.1724 21.0138 11.1724V13.1724ZM22.8602 13.6892C23.2275 14.0064 23.3938 14.3704 23.3938 14.8524H25.3938C25.3938 13.7876 24.9735 12.8716 24.1674 12.1755L22.8602 13.6892ZM23.3938 14.8524C23.3938 15.0349 23.3711 15.1978 23.3303 15.3447L25.2573 15.88C25.3499 15.5469 25.3938 15.2031 25.3938 14.8524H23.3938ZM23.3303 15.3447C23.2813 15.5212 23.2206 15.6722 23.1515 15.8018L24.9162 16.743C25.0604 16.4725 25.173 16.1836 25.2573 15.88L23.3303 15.3447ZM24.0338 15.2724H23.1338V17.2724H24.0338V15.2724ZM24.1202 16.4368C24.181 16.0723 24.2182 15.6968 24.2331 15.3108L22.2346 15.2339C22.2227 15.5413 22.1934 15.8324 22.1474 16.108L24.1202 16.4368ZM24.2311 15.3462C24.2686 14.8394 24.195 14.3422 23.9842 13.8786L22.1635 14.7062C22.2194 14.8291 22.2523 14.9853 22.2366 15.1985L24.2311 15.3462ZM24.0051 13.928C23.7857 13.3673 23.3731 12.9544 22.8735 12.6662L21.8741 14.3985C22.0679 14.5103 22.122 14.6041 22.1426 14.6568L24.0051 13.928ZM22.8883 12.6749C22.3269 12.338 21.619 12.2324 20.8938 12.2324V14.2324C21.4753 14.2324 21.7541 14.3267 21.8593 14.3899L22.8883 12.6749ZM20.8938 12.2324C20.1908 12.2324 19.5383 12.3209 18.9728 12.5398L19.6948 14.4049C19.956 14.3038 20.3435 14.2324 20.8938 14.2324V12.2324ZM18.9896 12.5335C18.487 12.7178 18.0321 12.9799 17.6667 13.3453L19.0809 14.7595C19.1955 14.6449 19.3806 14.5203 19.6781 14.4112L18.9896 12.5335ZM17.6667 13.3453C17.325 13.687 17.0678 14.0882 16.9093 14.5438L18.7983 15.2009C18.8532 15.0432 18.9426 14.8978 19.0809 14.7595L17.6667 13.3453ZM16.9009 14.5692C16.7779 14.9557 16.7138 15.3512 16.7138 15.7524H18.7138C18.7138 15.5669 18.7431 15.3757 18.8067 15.1756L16.9009 14.5692ZM16.7138 15.7524C16.7138 16.651 16.9494 17.5779 17.7404 18.1316L18.8873 16.4931C18.8783 16.4868 18.7138 16.3737 18.7138 15.7524H16.7138ZM17.7717 18.1527C18.2796 18.4803 18.9235 18.765 19.6722 19.0192L20.3154 17.1255C19.6508 16.8998 19.1747 16.6777 18.8559 16.4721L17.7717 18.1527ZM19.6776 19.021C20.0396 19.1417 20.3802 19.2794 20.7 19.4334L21.5676 17.6314C21.1675 17.4387 20.748 17.2697 20.31 17.1237L19.6776 19.021ZM20.7 19.4334C20.9692 19.563 21.2022 19.7242 21.4042 19.9165L22.7835 18.4682C22.4254 18.1272 22.0185 17.8484 21.5676 17.6314L20.7 19.4334ZM21.4229 19.9339C21.575 20.0715 21.7139 20.2651 21.8253 20.5438L23.6823 19.801C23.4737 19.2796 23.1726 18.8198 22.7647 18.4508L21.4229 19.9339ZM21.8298 20.5547C21.9238 20.7819 21.9938 21.1279 21.9938 21.6324H23.9938C23.9938 20.9635 23.9038 20.3362 23.6778 19.79L21.8298 20.5547ZM21.9938 21.6324C21.9938 22.0381 21.9101 22.4736 21.7239 22.9447L23.5838 23.68C23.8508 23.0045 23.9938 22.32 23.9938 21.6324H21.9938ZM21.7193 22.9564C21.5596 23.3756 21.3074 23.7645 20.9467 24.1253L22.3609 25.5395C22.9069 24.9935 23.3213 24.3692 23.5883 23.6684L21.7193 22.9564ZM20.9467 24.1253C20.5989 24.4731 20.1392 24.7796 19.5442 25.0314L20.3235 26.8733C21.1151 26.5384 21.8021 26.0983 22.3609 25.5395L20.9467 24.1253ZM19.5594 25.0251C19.009 25.2474 18.3341 25.3724 17.5138 25.3724V27.3724C18.5335 27.3724 19.472 27.2173 20.3083 26.8796L19.5594 25.0251ZM17.5138 25.3724C16.8576 25.3724 16.3732 25.2878 16.0277 25.1571L15.3199 27.0276C15.9611 27.2703 16.7033 27.3724 17.5138 27.3724V25.3724ZM16.0277 25.1571C15.6322 25.0074 15.3707 24.8351 15.2009 24.6653L13.7867 26.0795C14.2036 26.4963 14.7288 26.804 15.3199 27.0276L16.0277 25.1571ZM15.2165 24.6811C15.019 24.4747 14.8958 24.264 14.8258 24.0464L12.9218 24.6584C13.0918 25.1874 13.382 25.6567 13.7712 26.0636L15.2165 24.6811ZM14.8258 24.0464C14.736 23.7669 14.6938 23.4967 14.6938 23.2324H12.6938C12.6938 23.7147 12.7716 24.1912 12.9218 24.6584L14.8258 24.0464ZM14.6938 23.2324C14.6938 23.0155 14.7184 22.7965 14.769 22.574L12.8187 22.1307C12.7359 22.4949 12.6938 22.8626 12.6938 23.2324H14.6938ZM14.7586 22.6155C14.8129 22.4164 14.8931 22.2346 14.9993 22.0664L13.3083 20.9984C13.0946 21.3368 12.9348 21.7016 12.8291 22.0892L14.7586 22.6155Z" fill="#00FFAC"/>
</svg>
