<svg width="70" height="71" viewBox="0 0 70 71" fill="none" xmlns="http://www.w3.org/2000/svg">
<path d="M69.75 35.3289C69.75 54.6521 54.1903 70.3138 35 70.3138C15.8097 70.3138 0.25 54.6521 0.25 35.3289C0.25 16.0057 15.8097 0.343994 35 0.343994C54.1903 0.343994 69.75 16.0057 69.75 35.3289Z" fill="#0F0C0A" stroke="#F5F0F1" stroke-width="0.5"/>
<path d="M24.8173 42.653L24.6562 42.8254L24.8191 42.9962L34.8191 53.4786L35 53.6682L35.1809 53.4786L45.1809 42.9962L45.3438 42.8254L45.1827 42.653L42.8638 40.1716L42.682 39.9771L42.4993 40.1708L38.3447 44.5765L38.3378 44.5838L38.3315 44.5916L36.6337 46.7103L36.8921 42.332L36.8925 42.3246V42.3173V17.3521V17.1021H36.6425H33.3575H33.1075V17.3521V42.3173V42.3246L33.1079 42.332L33.3663 46.7103L31.6685 44.5916L31.6622 44.5838L31.6553 44.5765L27.5007 40.1708L27.318 39.9771L27.1362 40.1716L24.8173 42.653Z" fill="#0F0C0A" stroke="#F5F0F1" stroke-width="0.5"/>
</svg>
