<svg width="44" height="45" viewBox="0 0 44 45" fill="none" xmlns="http://www.w3.org/2000/svg">
<path d="M43.3367 22.4895C43.3367 34.6487 33.7837 44.479 22.0317 44.479C10.2796 44.479 0.726562 34.6487 0.726562 22.4895C0.726562 10.3304 10.2796 0.5 22.0317 0.5C33.7837 0.5 43.3367 10.3304 43.3367 22.4895Z" fill="#F5F0F1" stroke="#F5F0F1"/>
<rect x="8.57593" y="12.1941" width="20.8051" height="21.4895" fill="#F5F0F1" stroke="#0F0C0A"/>
<line x1="13.8091" y1="12.594" x2="13.8091" y2="33.2843" stroke="#0F0C0A"/>
<line x1="29.009" y1="17.5916" x2="8.94835" y2="17.5916" stroke="#0F0C0A"/>
<line x1="35.1145" y1="12.1941" x2="15.0538" y2="12.1941" stroke="#0F0C0A"/>
<line x1="35.1145" y1="33.7842" x2="15.0538" y2="33.7842" stroke="#0F0C0A"/>
<line x1="35.1145" y1="28.387" x2="15.0538" y2="28.387" stroke="#0F0C0A"/>
<line x1="35.1145" y1="22.989" x2="15.0538" y2="22.989" stroke="#0F0C0A"/>
<line x1="35.1145" y1="17.5916" x2="15.0538" y2="17.5916" stroke="#0F0C0A"/>
<line x1="29.009" y1="22.989" x2="8.94835" y2="22.989" stroke="#0F0C0A"/>
<line x1="29.009" y1="28.387" x2="8.94835" y2="28.387" stroke="#0F0C0A"/>
<line x1="19.0422" y1="12.594" x2="19.0422" y2="33.2843" stroke="#0F0C0A"/>
<line x1="24.2756" y1="12.594" x2="24.2756" y2="33.2843" stroke="#0F0C0A"/>
<line x1="34.7422" y1="12.594" x2="34.7422" y2="33.2843" stroke="#0F0C0A"/>
</svg>
