<svg width="70" height="71" viewBox="0 0 70 71" fill="none" xmlns="http://www.w3.org/2000/svg">
<path d="M69.75 35.2349C69.75 54.5581 54.1903 70.2198 35 70.2198C15.8097 70.2198 0.25 54.5581 0.25 35.2349C0.25 15.9117 15.8097 0.25 35 0.25C54.1903 0.25 69.75 15.9117 69.75 35.2349Z" fill="#0F0C0A" stroke="#F5F0F1" stroke-width="0.5"/>
<path d="M43.1781 22.6303L43.3527 22.4531L43.1763 22.2777L34.6763 13.8228L34.5 13.6474L34.3237 13.8228L25.8237 22.2777L25.6473 22.4531L25.8219 22.6303L27.7929 24.6318L27.9702 24.8118L28.1483 24.6326L31.6797 21.079L31.6869 21.0719L31.6934 21.0641L33.0664 19.4383L32.8543 22.8479L32.8539 22.8556L32.8539 22.8634L32.8539 43L32.8539 43.25L33.1039 43.25L35.8961 43.25L36.1461 43.25L36.1461 43L36.1461 22.8634L36.1461 22.8556L36.1457 22.8479L35.9336 19.4383L37.3066 21.0641L37.3131 21.0719L37.3203 21.079L40.8517 24.6326L41.0298 24.8118L41.2071 24.6318L43.1781 22.6303Z" fill="#F5F5F5" stroke="#F5F0F1" stroke-width="0.5"/>
<path d="M23.5 57V57.5H24H46H46.5V57V35V34.5H46H24H23.5V35V57ZM41.7302 42.0866L41.7339 42.0929L41.7377 42.099C42.4662 43.2646 42.8319 44.5608 42.8319 46C42.8319 47.4392 42.4661 48.7531 41.7348 49.9525L41.733 49.9555C41.0272 51.1318 40.0721 52.0883 38.8604 52.8275C37.6942 53.5268 36.3958 53.8787 34.9532 53.8787C33.5125 53.8787 32.1979 53.5277 30.9993 52.8275C29.8203 52.0894 28.8638 51.1329 28.1257 49.9539C27.4255 48.7553 27.0745 47.4407 27.0745 46C27.0745 44.5236 27.4277 43.2094 28.1266 42.0445L28.1266 42.0445L28.1294 42.0398C28.835 40.8344 29.7876 39.8818 30.993 39.1762C32.1933 38.4736 33.51 38.1213 34.9532 38.1213C36.3924 38.1213 37.6886 38.487 38.8541 39.2155L38.8603 39.2193L38.8666 39.223C40.072 39.9286 41.0246 40.8812 41.7302 42.0866Z" fill="#0F0C0A" stroke="#F5F5F5"/>
</svg>
