<svg width="45" height="45" viewBox="0 0 45 45" fill="none" xmlns="http://www.w3.org/2000/svg">
<path d="M43.5228 22.5105C43.5228 34.6701 33.9784 44.5 22.238 44.5C10.4976 44.5 0.953125 34.6701 0.953125 22.5105C0.953125 10.3509 10.4976 0.520996 22.238 0.520996C33.9784 0.520996 43.5228 10.3509 43.5228 22.5105Z" fill="#0F0C0A" stroke="#F5F0F1"/>
<rect x="8.79529" y="12.2151" width="20.7848" height="21.4895" fill="#0F0C0A" stroke="#F5F0F1"/>
<line x1="14.0236" y1="12.615" x2="14.0236" y2="33.3053" stroke="#F5F0F1"/>
<line x1="29.2088" y1="17.6125" x2="9.16676" y2="17.6125" stroke="#F5F0F1"/>
<line x1="35.3087" y1="12.2151" x2="15.2666" y2="12.2151" stroke="#F5F0F1"/>
<line x1="35.3087" y1="33.8052" x2="15.2666" y2="33.8052" stroke="#F5F0F1"/>
<line x1="35.3087" y1="28.408" x2="15.2666" y2="28.408" stroke="#F5F0F1"/>
<line x1="35.3087" y1="23.01" x2="15.2666" y2="23.01" stroke="#F5F0F1"/>
<line x1="35.3087" y1="17.6125" x2="15.2666" y2="17.6125" stroke="#F5F0F1"/>
<line x1="29.2088" y1="23.01" x2="9.16676" y2="23.01" stroke="#F5F0F1"/>
<line x1="29.2088" y1="28.408" x2="9.16676" y2="28.408" stroke="#F5F0F1"/>
<line x1="19.2519" y1="12.615" x2="19.2519" y2="33.3053" stroke="#F5F0F1"/>
<line x1="24.4805" y1="12.615" x2="24.4805" y2="33.3053" stroke="#F5F0F1"/>
<line x1="34.9371" y1="12.615" x2="34.9371" y2="33.3053" stroke="#F5F0F1"/>
</svg>
