<svg width="175" height="181" viewBox="0 0 175 181" fill="none" xmlns="http://www.w3.org/2000/svg">
<path d="M26.0411 34.7531C21.0766 39.095 15.1167 51.1642 12.7572 56.6561C11.4644 59.6282 8.99508 66.8516 9.4605 71.9688C9.92592 77.0859 8.23231 88.0568 7.32733 92.9026C4.14696 100.501 4.90327 111.51 5.67897 116.065C5.00023 122.656 20.3203 141.651 23.2292 142.911C26.1381 144.171 34.1859 152.409 36.513 156.77C38.8401 161.131 50.5726 168.594 56.0025 170.823C60.3464 172.606 76.7524 175.507 84.4125 176.735C88.9891 177.82 98.666 175.313 102.932 173.924C106.229 173.924 110.592 167.528 115.731 167.431C120.87 167.334 132.312 156.867 134.154 154.929C135.628 153.378 142.202 145.431 145.305 141.651C157.813 131.863 170.224 105.986 170.127 104.532C170.05 103.37 170.741 100.947 171.097 99.8805C173.618 96.3916 170.321 73.7133 167.8 72.0657C165.279 70.4181 162.564 62.4711 161.982 57.3345C161.517 53.2253 156.359 45.4785 153.838 42.1187C151.317 36.6915 134.542 23.3171 133.088 22.4448C131.633 21.5726 123.682 16.9206 120.967 14.5947C118.252 12.2687 115.15 12.2687 111.465 9.16738C107.78 6.06607 97.4055 5 94.1087 5H78.6917C65.3109 5 66.2805 6.35682 61.1415 7.13215C56.0025 7.90747 49.8939 14.0132 48.6333 15.0792C47.3728 16.1453 38.8401 23.7047 37.6766 24.3832C36.513 25.0616 32.2467 29.3259 26.0411 34.7531Z" stroke="#E6FCFE" stroke-width="5" stroke-linecap="round" stroke-linejoin="round"/>
<path d="M23.6555 33.2469C18.5934 37.7368 12.5497 50.1872 10.1553 55.856C8.84603 58.923 6.34828 66.3673 6.8457 71.6374C7.3431 76.9026 5.65904 88.2081 4.75181 93.1985C1.52987 101.033 2.35013 112.367 3.16239 117.055C2.49803 123.839 18.2519 143.329 21.2324 144.618C24.2129 145.902 32.481 154.352 34.8834 158.831C37.281 163.31 49.3189 170.946 54.8845 173.216C59.338 175.035 76.1343 177.951 83.9788 179.186C88.6649 180.284 98.5555 177.661 102.914 176.216C106.288 176.202 110.726 169.596 115.984 169.478C121.242 169.355 132.906 158.531 134.782 156.531C136.285 154.928 142.976 146.717 146.137 142.816C158.895 132.683 171.485 105.991 171.378 104.492C171.296 103.293 171.992 100.799 172.348 99.6998C174.914 96.0956 171.445 72.7628 168.857 71.0757C166.269 69.3885 163.457 61.2211 162.844 55.9322C162.351 51.7021 157.041 43.748 154.446 40.3003C151.842 34.7245 134.626 21.0248 133.133 20.1313C131.639 19.2377 123.487 14.4827 120.699 12.1C117.911 9.71718 114.739 9.73016 110.953 6.55341C107.167 3.36697 96.5447 2.31252 93.1754 2.32631L77.4007 2.39089C63.7119 2.44694 64.7078 3.84068 59.4528 4.66026C54.1978 5.47984 47.9752 11.7931 46.6868 12.8963C45.4031 13.9995 36.7017 21.8175 35.5174 22.5237C34.3282 23.225 29.982 27.6297 23.6555 33.2469Z" stroke="white" stroke-opacity="0.1" stroke-width="2"/>
<path d="M27.7611 36.7717C23.0247 40.9749 17.3623 52.6304 15.1249 57.931C13.8966 60.7994 11.5603 67.769 12.0275 72.7006C12.4947 77.6322 10.9134 88.207 10.0674 92.8828C7.05005 100.218 7.81925 110.822 8.58223 115.21C7.95936 121.564 22.7036 139.81 25.4963 141.013C28.289 142.216 36.0262 150.121 38.2736 154.315C40.521 158.509 51.7831 165.655 56.9924 167.781C61.157 169.481 76.8807 172.213 84.2202 173.367C88.6079 174.394 97.8649 171.943 101.945 170.586C105.103 170.573 109.254 164.394 114.176 164.278C119.097 164.165 130.014 154.031 131.771 152.157C133.178 150.657 139.438 142.975 142.398 139.32C154.337 129.84 166.122 104.853 166.024 103.451C165.948 102.329 166.597 99.9952 166.934 98.9636C169.333 95.5923 166.086 73.7483 163.666 72.1717C161.247 70.5952 158.615 62.9445 158.037 57.9989C157.574 54.0395 152.607 46.5967 150.177 43.366C147.742 38.1475 131.626 25.3235 130.229 24.4876C128.832 23.6517 121.2 19.1993 118.591 16.9706C115.981 14.7418 113.011 14.754 109.471 11.7794C105.93 8.80476 95.9913 7.82005 92.8335 7.83298L78.0633 7.89345C65.2493 7.94591 66.1823 9.24802 61.2636 10.0178C56.3497 10.7828 50.5243 16.693 49.3221 17.7233C48.1151 18.7537 39.974 26.076 38.8664 26.7335C37.7539 27.391 33.6853 31.5189 27.7611 36.7717Z" stroke="white" stroke-opacity="0.1" stroke-width="1.9286"/>
<path d="M31.8658 40.2952C27.455 44.2117 22.1786 55.0676 20.0936 60.0096C18.951 62.6842 16.7762 69.1743 17.2083 73.7675C17.6405 78.3606 16.1716 88.2143 15.3819 92.5706C12.5741 99.4019 13.2874 109.285 13.9963 113.369C13.4149 119.287 27.1542 136.285 29.7543 137.407C32.3544 138.528 39.5655 145.894 41.6579 149.798C43.7504 153.707 54.2462 160.363 59.0945 162.341C62.975 163.926 77.6213 166.468 84.4605 167.543C88.5452 168.498 97.1731 166.214 100.975 164.95C103.916 164.938 107.786 159.181 112.371 159.076C116.956 158.97 127.126 149.53 128.763 147.782C130.074 146.384 135.909 139.226 138.664 135.819C149.788 126.985 160.762 103.709 160.67 102.404C160.599 101.359 161.205 99.1804 161.518 98.2262C163.755 95.0829 160.73 74.7373 158.475 73.2665C156.219 71.7957 153.768 64.6715 153.23 60.0643C152.801 56.3756 148.168 49.4393 145.906 46.4353C143.637 41.574 128.621 29.6258 127.324 28.8475C126.023 28.0693 118.912 23.9243 116.481 21.8448C114.05 19.7652 111.282 19.7766 107.983 17.009C104.684 14.2365 95.4224 13.3167 92.4809 13.3288L78.7249 13.3851C66.7857 13.434 67.6558 14.6493 63.0733 15.3645C58.4909 16.0798 53.0628 21.582 51.942 22.5443C50.8212 23.5066 43.2356 30.3236 42.1999 30.9373C41.1739 31.5557 37.3828 35.402 31.8658 40.2952Z" stroke="white" stroke-opacity="0.1" stroke-width="1.8571"/>
<path d="M35.9762 43.8243C31.8863 47.4541 27.0007 57.5103 25.068 62.089C24.0111 64.5649 21.993 70.5804 22.395 74.84C22.7969 79.0946 21.4356 88.2272 20.7023 92.2592C18.099 98.5915 18.7614 107.745 19.4209 111.534C18.881 117.016 31.6107 132.766 34.0182 133.806C36.4257 134.845 43.1059 141.667 45.0481 145.291C46.9855 148.911 56.7104 155.081 61.2071 156.916C64.8036 158.386 78.3773 160.744 84.7115 161.738C88.4979 162.627 96.4873 160.51 100.01 159.34C102.736 159.328 106.319 153.993 110.567 153.894C114.816 153.794 124.239 145.049 125.752 143.432C126.962 142.136 132.371 135.502 134.925 132.348C145.23 124.16 155.404 102.595 155.317 101.386C155.251 100.419 155.815 98.4001 156.104 97.5138C158.178 94.6033 155.376 75.7514 153.284 74.3863C151.193 73.0261 148.921 66.4235 148.423 62.1499C148.024 58.7319 143.735 52.3069 141.637 49.5199C139.533 45.0158 125.621 33.9434 124.416 33.2228C123.211 32.5022 116.62 28.6598 114.373 26.7343C112.125 24.8088 109.553 24.8193 106.5 22.2538C103.443 19.6884 94.8642 18.8335 92.139 18.8447L79.3971 18.8968C68.3375 18.9421 69.14 20.0658 64.8986 20.7313C60.6523 21.392 55.6263 26.4911 54.587 27.3853C53.5476 28.2747 46.5223 34.5913 45.5633 35.1611C44.5995 35.7261 41.0861 39.2858 35.9762 43.8243Z" stroke="white" stroke-opacity="0.1" stroke-width="1.7857"/>
<path d="M40.0795 47.3467C36.3153 50.6898 31.8159 59.9512 30.0355 64.1665C29.0595 66.4486 27.2028 71.9895 27.5745 75.9057C27.9462 79.822 26.6925 88.2334 26.0156 91.9459C23.617 97.7744 24.2283 106.207 24.8337 109.692C24.3401 114.744 36.0601 129.245 38.275 130.198C40.4899 131.151 46.644 137.438 48.4312 140.773C50.2185 144.108 59.1674 149.784 63.3079 151.474C66.6204 152.824 79.1166 154.998 84.9506 155.913C88.4387 156.73 95.7943 154.78 99.0391 153.703C101.548 153.692 104.849 148.779 108.761 148.691C112.674 148.602 121.35 140.547 122.743 139.057C123.858 137.862 128.836 131.757 131.189 128.85C140.68 121.314 150.043 101.455 149.967 100.343C149.905 99.4532 150.422 97.5938 150.692 96.7753C152.599 94.0927 150.019 76.7345 148.096 75.48C146.173 74.2255 144.082 68.1494 143.623 64.2142C143.255 61.0669 139.304 55.1484 137.375 52.5832C135.44 48.4363 122.628 38.2445 121.52 37.5767C120.411 36.9138 114.346 33.374 112.271 31.6025C110.197 29.8311 107.837 29.8407 105.021 27.4774C102.209 25.1141 94.3086 24.329 91.7996 24.3393L80.0671 24.3873C69.8822 24.429 70.6267 25.4659 66.7167 26.0768C62.8067 26.6877 58.178 31.3838 57.22 32.2003C56.2621 33.0217 49.7923 38.8377 48.91 39.3589C48.0182 39.8898 44.7872 43.1678 40.0795 47.3467Z" stroke="white" stroke-opacity="0.1" stroke-width="1.7143"/>
<path d="M44.1841 50.8703C40.7455 53.9218 36.6322 62.3885 35.0041 66.2404C34.1138 68.3238 32.4186 73.39 32.7553 76.9678C33.092 80.5505 31.9459 88.2311 31.3301 91.6291C29.1409 96.9584 29.6964 104.661 30.2478 107.846C29.7956 112.462 40.5059 125.715 42.533 126.587C44.5601 127.459 50.1833 133.206 51.8155 136.251C53.4478 139.297 61.6305 144.487 65.4148 146.034C68.4431 147.269 79.8619 149.254 85.1958 150.093C88.3808 150.839 95.1074 149.056 98.069 148.072C100.362 148.062 103.381 143.571 106.952 143.489C110.528 143.406 118.457 136.046 119.73 134.687C120.749 133.599 125.302 128.013 127.45 125.359C136.121 118.47 144.679 100.321 144.608 99.3056C144.552 98.4932 145.025 96.7936 145.267 96.0477C147.012 93.598 144.654 77.7334 142.895 76.5846C141.136 75.4359 139.224 69.8814 138.806 66.2894C138.472 63.4129 134.859 58.0057 133.095 55.6623C131.326 51.8727 119.617 42.5566 118.605 41.9513C117.594 41.3461 112.048 38.1088 110.152 36.4914C108.257 34.8692 106.099 34.878 103.528 32.7217C100.957 30.5605 93.7349 29.8452 91.4423 29.8546L80.7191 29.8985C71.409 29.9366 72.0906 30.8818 68.5169 31.443C64.9431 31.9993 60.7117 36.2924 59.84 37.0408C58.9683 37.7892 53.054 43.1048 52.2437 43.587C51.4429 44.0594 48.4847 47.0558 44.1841 50.8703Z" stroke="white" stroke-opacity="0.1" stroke-width="1.6429"/>
<path d="M48.2889 54.3987C45.1712 57.1636 41.4487 64.8354 39.973 68.3239C39.1684 70.2136 37.6299 74.8003 37.9363 78.0396C38.2428 81.2838 37.2043 88.2433 36.6449 91.317C34.6603 96.1425 35.1647 103.12 35.6668 106.01C35.2561 110.191 44.9568 122.195 46.7961 122.985C48.6306 123.776 53.7228 128.979 55.2001 131.739C56.6774 134.5 64.089 139.2 67.517 140.598C70.2565 141.719 80.6027 143.514 85.4363 144.273C88.323 144.948 94.4159 143.337 97.0991 142.446C99.1755 142.437 101.908 138.368 105.147 138.296C108.387 138.22 115.569 131.555 116.723 130.322C117.646 129.336 121.769 124.279 123.715 121.872C131.572 115.634 139.325 99.1916 139.259 98.2729C139.208 97.5379 139.639 95.9981 139.857 95.3201C141.439 93.1032 139.299 78.7274 137.709 77.6892C136.118 76.651 134.386 71.6182 134.003 68.3646C133.699 65.7588 130.43 60.8629 128.83 58.7365C127.23 55.2992 116.621 46.8638 115.706 46.3162C114.785 45.7686 109.765 42.8387 108.048 41.3705C106.331 39.9023 104.375 39.9103 102.045 37.9513C99.7154 35.9923 93.1759 35.3468 91.0995 35.3553L81.3857 35.395C72.9552 35.4295 73.5691 36.288 70.3316 36.7946C67.0941 37.3012 63.26 41.1863 62.4697 41.8667C61.6794 42.5471 56.3206 47.3622 55.5918 47.7957C54.863 48.2243 52.1872 50.939 48.2889 54.3987Z" stroke="white" stroke-opacity="0.1" stroke-width="1.5714"/>
<path d="M52.3985 57.9226C49.6065 60.4008 46.27 67.273 44.9514 70.3981C44.2278 72.0891 42.8507 76.2011 43.127 79.1069C43.4032 82.0126 42.4723 88.251 41.9692 91.0052C40.1893 95.3317 40.6427 101.584 41.0907 104.17C40.7215 107.915 49.4173 118.675 51.064 119.384C52.7107 120.093 57.272 124.756 58.5943 127.227C59.9166 129.698 66.562 133.913 69.6289 135.168C72.0843 136.173 81.3579 137.78 85.6817 138.463C88.2701 139.067 93.7244 137.623 96.134 136.825C97.9941 136.817 100.445 133.174 103.348 133.105C106.251 133.039 112.686 127.064 113.72 125.957C114.548 125.073 118.24 120.541 119.985 118.386C127.023 112.795 133.971 98.0626 133.915 97.2406C133.869 96.5781 134.252 95.2029 134.452 94.5975C135.866 92.6087 133.953 79.7314 132.527 78.8037C131.1 77.8712 129.549 73.3649 129.21 70.4449C128.936 68.1099 126.005 63.7204 124.575 61.8206C123.139 58.7406 113.635 51.181 112.811 50.691C111.987 50.201 107.487 47.5737 105.948 46.2596C104.41 44.9455 102.66 44.9526 100.572 43.1958C98.4832 41.4437 92.6217 40.8583 90.7616 40.8659L82.0571 40.9016C74.5014 40.9325 75.0525 41.6993 72.1512 42.1513C69.2499 42.6033 65.8179 46.0853 65.1091 46.6977C64.4002 47.3052 59.6017 51.6198 58.9448 52.0095C58.2879 52.3894 55.8898 54.8225 52.3985 57.9226Z" stroke="white" stroke-opacity="0.1" stroke-width="1.5"/>
<path d="M56.5033 61.4462C54.0321 63.6377 51.0865 69.7102 49.9202 72.4719C49.2823 73.9691 48.0619 77.6016 48.3079 80.169C48.5491 82.7363 47.7258 88.2536 47.2839 90.6883C45.7134 94.5109 46.111 100.038 46.5096 102.324C46.1867 105.633 53.868 115.145 55.3222 115.773C56.7763 116.4 60.8114 120.519 61.9787 122.705C63.1509 124.892 69.0205 128.616 71.7359 129.722C73.9072 130.608 82.1034 132.031 85.927 132.634C88.2123 133.171 93.0376 131.889 95.164 131.184C96.8078 131.177 98.972 127.957 101.538 127.898C104.105 127.839 109.793 122.558 110.707 121.582C111.44 120.8 114.706 116.797 116.246 114.89C122.469 109.95 128.612 96.9236 128.561 96.1935C128.52 95.6084 128.861 94.393 129.037 93.8554C130.289 92.0993 128.593 80.7157 127.336 79.8938C126.073 79.0719 124.701 75.0872 124.402 72.5056C124.163 70.4412 121.571 66.5631 120.305 64.8803C119.034 62.1575 110.634 55.4785 109.906 55.0413C109.179 54.6042 105.199 52.2843 103.839 51.1242C102.479 49.9641 100.931 49.9656 99.0837 48.4157C97.2365 46.8659 92.0578 46.3502 90.414 46.3569L82.7188 46.3884C76.0379 46.4158 76.5261 47.0958 73.9659 47.4932C71.4009 47.8955 68.3661 50.9744 67.7387 51.509C67.1112 52.0485 62.8683 55.8627 62.2881 56.2036C61.7079 56.5591 59.5875 58.7105 56.5033 61.4462Z" stroke="white" stroke-opacity="0.1" stroke-width="1.4286"/>
<path d="M60.6082 64.9698C58.4627 66.8746 55.8984 72.1523 54.8892 74.5506C54.3322 75.8492 53.2781 79.007 53.4891 81.2359C53.7001 83.4696 52.9843 88.2561 52.6036 90.3762C51.2377 93.695 51.5843 98.5013 51.9289 100.488C51.6474 103.367 58.3239 111.625 59.5854 112.171C60.8469 112.717 64.3511 116.297 65.3683 118.193C66.3854 120.09 71.484 123.329 73.8431 124.292C75.7304 125.063 82.8491 126.301 86.1725 126.819C88.1595 127.285 92.3511 126.175 94.1991 125.558C95.6266 125.552 97.5089 122.753 99.7389 122.701C101.969 122.648 106.91 118.062 107.705 117.212C108.341 116.532 111.177 113.053 112.516 111.398C117.921 107.105 123.258 95.7895 123.212 95.156C123.176 94.6483 123.47 93.5927 123.622 93.1229C124.706 91.5949 123.238 81.7049 122.144 80.9935C121.05 80.2822 119.859 76.8143 119.595 74.5759C119.385 72.7824 117.137 69.4107 116.035 67.9496C114.934 65.5841 107.633 59.7809 107.002 59.4014C106.371 59.0219 102.916 57.0094 101.734 55.9985C100.553 54.9876 99.207 54.9931 97.6057 53.6454C96.0044 52.2977 91.5037 51.8518 90.0713 51.8576L83.3856 51.885C77.5842 51.9088 78.0048 52.4971 75.7808 52.8448C73.552 53.1925 70.9146 55.8683 70.3733 56.3349C69.8273 56.8015 66.1447 60.1152 65.6412 60.4123C65.133 60.7239 63.2901 62.5936 60.6082 64.9698Z" stroke="white" stroke-opacity="0.1" stroke-width="1.3571"/>
<path d="M64.7131 68.4984C62.8932 70.1165 60.715 74.5946 59.8581 76.6295C59.3868 77.7342 58.4893 80.4126 58.6701 82.3079C58.8509 84.2032 58.2427 88.2685 57.9184 90.0643C56.7572 92.884 57.0526 96.9602 57.3479 98.647C57.108 101.091 62.7748 108.105 63.8485 108.565C64.9222 109.025 67.8955 112.065 68.7576 113.676C69.6198 115.288 73.9521 118.037 75.955 118.851C77.5582 119.507 83.5995 120.556 86.4227 121C88.1114 121.394 91.6692 120.451 93.234 119.932C94.4452 119.927 96.0457 117.55 97.9345 117.509C99.8281 117.467 104.023 113.571 104.697 112.852C105.238 112.274 107.644 109.324 108.782 107.917C113.372 104.27 117.899 94.67 117.863 94.1284C117.832 93.6981 118.083 92.7974 118.211 92.4051C119.134 91.1099 117.888 82.7136 116.958 82.108C116.028 81.5023 115.016 78.5609 114.792 76.661C114.613 75.1381 112.702 72.2777 111.77 71.0385C110.834 69.0303 104.637 64.1028 104.102 63.7809C103.568 63.459 100.633 61.7492 99.6301 60.8923C98.6268 60.0355 97.4829 60.0402 96.1228 58.8946C94.7626 57.749 90.9399 57.3729 89.7287 57.3779L84.0523 57.4011C79.1257 57.4213 79.4834 57.9228 77.5957 58.2159C75.7031 58.509 73.4678 60.7818 73.0032 61.1803C72.5386 61.5788 69.4114 64.3921 68.9847 64.6454C68.5531 64.8938 66.9927 66.477 64.7131 68.4984Z" stroke="white" stroke-opacity="0.1" stroke-width="1.2857"/>
<path d="M68.8176 72.0222C67.3186 73.3487 65.5312 77.032 64.8267 78.7084C64.4411 79.6144 63.7003 81.8182 63.8461 83.375C63.9918 84.9319 63.496 88.2761 63.2281 89.7524C62.2763 92.0683 62.5159 95.4192 62.7571 96.8063C62.5586 98.8144 67.2205 104.58 68.1017 104.959C68.9828 105.337 71.43 107.837 72.1372 109.165C72.8491 110.492 76.4056 112.746 78.0522 113.421C79.3666 113.957 84.3352 114.822 86.6583 115.185C88.0439 115.508 90.9679 114.737 92.2591 114.306C93.2588 114.302 94.5678 112.347 96.125 112.312C97.6821 112.276 101.13 109.075 101.685 108.482C102.13 108.007 104.11 105.58 105.042 104.425C108.813 101.43 112.539 93.536 112.509 93.0912C112.483 92.7382 112.692 91.9973 112.796 91.6728C113.556 90.6056 112.528 83.7078 111.762 83.2079C110.995 82.708 110.163 80.293 109.984 78.7315C109.84 77.4794 108.268 75.1303 107.499 74.108C106.728 72.457 101.636 68.4053 101.198 68.1411C100.759 67.8769 98.3453 66.4696 97.5206 65.7668C96.6958 65.064 95.7585 65.0679 94.6395 64.1244C93.5206 63.1858 90.3806 62.8746 89.3809 62.8787L84.7139 62.8978C80.6668 62.9144 80.9617 63.3243 79.4054 63.5677C77.8491 63.8111 76.011 65.6759 75.6326 66.0015C75.2542 66.3271 72.6778 68.64 72.3278 68.8494C71.9778 69.0588 70.6901 70.3603 68.8176 72.0222Z" stroke="white" stroke-opacity="0.1" stroke-width="1.2143"/>
<path d="M72.9272 75.5458C71.7539 76.5856 70.3526 79.4741 69.8004 80.7823C69.4957 81.4945 68.9163 83.2188 69.0319 84.4372C69.1474 85.6555 68.7544 88.2787 68.5477 89.4355C67.8005 91.2523 67.9891 93.8779 68.181 94.9654C68.0288 96.538 71.6762 101.055 72.3696 101.352C73.0581 101.649 74.9743 103.61 75.5313 104.648C76.0883 105.685 78.8785 107.454 80.164 107.98C81.1944 108.402 85.0904 109.078 86.9036 109.365C87.991 109.622 90.2812 109.013 91.294 108.675C92.0774 108.672 93.1046 107.139 94.3205 107.115C95.5412 107.086 98.2419 104.579 98.6773 104.113C99.0267 103.744 100.576 101.836 101.308 100.934C104.264 98.5855 107.18 92.4019 107.155 92.0537C107.134 91.7781 107.295 91.1971 107.381 90.9452C107.974 90.1109 107.173 84.7018 106.57 84.3125C105.973 83.9232 105.321 82.0298 105.176 80.8019C105.062 79.8205 103.833 77.9779 103.229 77.1774C102.628 75.8837 98.6353 72.7126 98.2884 72.506C97.9415 72.2995 96.0528 71.1947 95.4065 70.646C94.7601 70.0924 94.0248 70.0954 93.147 69.359C92.2691 68.6226 89.8072 68.3763 89.0286 68.3795L85.3757 68.3944C82.2034 68.4074 82.4355 68.7305 81.2154 68.9193C79.9953 69.1081 78.5545 70.5699 78.2576 70.8274C77.9606 71.085 75.9445 72.8925 75.6712 73.0581C75.3979 73.2237 74.3927 74.2483 72.9272 75.5458Z" stroke="white" stroke-opacity="0.1" stroke-width="1.1429"/>
<path d="M77.0321 79.0744C76.1845 79.8276 75.1692 81.9164 74.7694 82.866C74.5504 83.3796 74.1325 84.6292 74.2131 85.514C74.2936 86.3988 74.0129 88.2911 73.8626 89.1285C73.32 90.4415 73.4575 92.3417 73.5953 93.1296C73.4846 94.2667 76.1272 97.5352 76.628 97.7508C77.1287 97.9664 78.514 99.3827 78.916 100.136C79.318 100.888 81.3372 102.167 82.2712 102.55C83.0175 102.856 85.8361 103.343 87.1491 103.55C87.9333 103.736 89.5946 103.294 90.3242 103.054C90.8914 103.052 91.6318 101.946 92.5161 101.923C93.3957 101.905 95.3541 100.088 95.67 99.7526C95.9236 99.4856 97.0427 98.1073 97.5735 97.4522C99.7151 95.7554 101.826 91.2776 101.806 91.0262C101.791 90.8231 101.909 90.4066 101.971 90.2226C102.401 89.6162 101.818 85.7057 101.384 85.4221C100.95 85.1385 100.478 83.7668 100.374 82.8821C100.289 82.1714 99.3993 80.8401 98.9643 80.2615C98.5279 79.325 95.6394 77.0297 95.3889 76.8807C95.1383 76.7318 93.77 75.9345 93.3021 75.535C92.8343 75.1355 92.3007 75.1376 91.6689 74.6033C91.0323 74.0691 89.2531 73.8926 88.686 73.8949L86.0424 73.9057C83.745 73.9151 83.9141 74.1466 83.0303 74.2856C82.1513 74.4247 81.103 75.4834 80.8874 75.668C80.6719 75.8527 79.2113 77.1646 79.0147 77.2815C78.8229 77.3935 78.0905 78.1317 77.0321 79.0744Z" stroke="white" stroke-opacity="0.1" stroke-width="1.0714"/>
<path d="M81.1371 82.5984C80.6102 83.0649 79.9858 84.3542 79.7382 84.9405C79.6001 85.2603 79.3437 86.0305 79.394 86.5769C79.4443 87.1233 79.2713 88.2946 79.1772 88.8125C78.8441 89.6266 78.9258 90.8017 79.0143 91.285C78.9451 91.9867 80.5781 94.0117 80.8863 94.1458C81.1945 94.28 82.0538 95.1569 82.3008 95.6202C82.5479 96.0836 83.7961 96.8766 84.3739 97.1113C84.8362 97.298 86.5775 97.6005 87.3904 97.7278C87.8764 97.8419 88.904 97.5716 89.3552 97.4198C89.7061 97.4184 90.1648 96.7345 90.7079 96.7226C91.2511 96.7107 92.4626 95.5883 92.6589 95.3795C92.8168 95.2144 93.5103 94.3602 93.8356 93.9574C95.158 92.9071 96.4638 90.1397 96.4535 89.985C96.4434 89.8593 96.5193 89.6026 96.5524 89.4863C96.8201 89.1128 96.4593 86.6908 96.1894 86.5178C95.9195 86.3447 95.6276 85.4946 95.5677 84.9482C95.5178 84.5082 94.9664 83.6833 94.6958 83.3265C94.4242 82.7471 92.6398 81.3275 92.4856 81.2362C92.3314 81.1449 91.4833 80.6501 91.1939 80.4046C90.9045 80.1591 90.5776 80.1605 90.1821 79.8283C89.7914 79.501 88.6901 79.3894 88.3392 79.3908L86.7049 79.3975C85.2869 79.4033 85.3884 79.548 84.8455 79.6325C84.3027 79.7169 83.6564 80.3726 83.5223 80.4844C83.3882 80.6011 82.4878 81.4077 82.3631 81.4808C82.2432 81.5587 81.7933 82.0152 81.1371 82.5984Z" stroke="white" stroke-opacity="0.1"/>
</svg>
