<svg width="51" height="40" viewBox="0 0 51 40" fill="none" xmlns="http://www.w3.org/2000/svg">
<rect y="29.804" width="5.4902" height="4.70588" fill="#F2662C"/>
<rect y="25.0981" width="5.4902" height="4.70588" fill="#F2662C"/>
<rect y="20.3921" width="5.4902" height="4.70588" fill="#F2662C"/>
<rect y="14.9019" width="5.4902" height="5.4902" fill="#F2662C"/>
<rect y="10.196" width="5.4902" height="4.70588" fill="#F2662C"/>
<rect x="5.49017" y="29.804" width="4.70588" height="4.70588" fill="#F2662C"/>
<rect x="5.49017" y="25.0981" width="4.70588" height="4.70588" fill="#F2662C"/>
<rect x="5.49017" y="20.3921" width="4.70588" height="4.70588" fill="#F2662C"/>
<rect x="5.49017" y="10.196" width="4.70588" height="4.70588" fill="#F2662C"/>
<rect width="5.4902" height="4.70588" fill="#F2662C"/>
<rect x="5.49017" width="4.70588" height="4.70588" fill="#F2662C"/>
<rect x="10.1961" width="5.4902" height="4.70588" fill="#F2662C"/>
<rect x="40.5098" width="4.70588" height="4.70588" fill="#F2662C"/>
<rect x="45.2156" width="5.4902" height="4.70588" fill="#F2662C"/>
<rect x="10.1961" y="29.804" width="5.4902" height="4.70588" fill="#F2662C"/>
<rect x="10.1961" y="25.0981" width="5.4902" height="4.70588" fill="#F2662C"/>
<rect x="10.1961" y="20.3921" width="5.4902" height="4.70588" fill="#F2662C"/>
<rect x="10.1961" y="14.9019" width="5.4902" height="5.4902" fill="#F2662C"/>
<rect x="10.1961" y="10.196" width="5.4902" height="4.70588" fill="#F2662C"/>
<rect x="15.6863" y="29.804" width="4.70588" height="4.70588" fill="#F2662C"/>
<rect x="15.6863" y="25.0981" width="4.70588" height="4.70588" fill="#F2662C"/>
<rect x="15.6863" y="20.3921" width="4.70588" height="4.70588" fill="#F2662C"/>
<rect x="15.6863" y="14.9019" width="4.70588" height="5.4902" fill="#F2662C"/>
<rect x="15.6863" y="10.196" width="4.70588" height="4.70588" fill="#F2662C"/>
<rect width="4.70588" height="4.70588" transform="matrix(-1 0 0 1 25.098 10.196)" fill="#F2662C"/>
<rect width="4.70588" height="4.70588" transform="matrix(-1 0 0 1 34.5098 25.0981)" fill="#F2662C"/>
<rect width="4.70588" height="4.70588" transform="matrix(-1 0 0 1 34.5098 20.3921)" fill="#F2662C"/>
<rect width="4.70588" height="4.70588" transform="matrix(-1 0 0 1 34.5098 10.196)" fill="#F2662C"/>
<rect width="4.70588" height="4.70588" transform="matrix(-1 0 0 1 39.2157 25.0981)" fill="#F2662C"/>
<rect width="4.70588" height="4.70588" transform="matrix(-1 0 0 1 39.2157 20.3921)" fill="#F2662C"/>
<rect width="4.70588" height="4.70588" transform="matrix(-1 0 0 1 39.2157 10.196)" fill="#F2662C"/>
<rect y="34.5098" width="5.4902" height="5.4902" fill="#F2662C"/>
<rect x="5.49017" y="34.5098" width="4.70588" height="5.4902" fill="#F2662C"/>
<rect x="10.1961" y="34.5098" width="5.4902" height="5.4902" fill="#F2662C"/>
<rect x="15.6863" y="34.5098" width="4.70588" height="5.4902" fill="#F2662C"/>
<rect width="4.70588" height="5.4902" transform="matrix(-1 0 0 1 25.098 34.5098)" fill="#F2662C"/>
<rect width="4.70588" height="5.4902" transform="matrix(-1 0 0 1 34.5098 34.5098)" fill="#F2662C"/>
<rect width="4.70588" height="5.4902" transform="matrix(-1 0 0 1 39.2157 34.5098)" fill="#F2662C"/>
<rect width="5.4902" height="4.70588" transform="matrix(-1 0 0 1 44.7059 10.196)" fill="#F2662C"/>
<rect width="5.4902" height="4.70588" transform="matrix(-1 0 0 1 50.1961 29.804)" fill="#F2662C"/>
<rect width="5.4902" height="4.70588" transform="matrix(-1 0 0 1 50.1961 25.0981)" fill="#F2662C"/>
<rect width="5.4902" height="4.70588" transform="matrix(-1 0 0 1 50.1961 20.3921)" fill="#F2662C"/>
<rect width="5.4902" height="5.4902" transform="matrix(-1 0 0 1 50.1961 14.9019)" fill="#F2662C"/>
<rect width="5.4902" height="4.70588" transform="matrix(-1 0 0 1 50.1961 10.196)" fill="#F2662C"/>
<rect width="5.4902" height="5.4902" transform="matrix(-1 0 0 1 44.7059 34.5098)" fill="#F2662C"/>
<rect width="5.4902" height="5.4902" transform="matrix(-1 0 0 1 50.1961 34.5098)" fill="#F2662C"/>
<rect width="4.70588" height="5.4902" transform="matrix(-1 0 0 1 29.8039 34.5098)" fill="#F2662C"/>
<rect width="4.70588" height="4.70588" transform="matrix(-1 0 0 1 29.8039 25.0981)" fill="#F2662C"/>
<rect width="4.70588" height="4.70588" transform="matrix(-1 0 0 1 29.8039 20.3921)" fill="#F2662C"/>
<rect width="4.70588" height="4.70588" transform="matrix(-1 0 0 1 29.8039 10.196)" fill="#F2662C"/>
</svg>
