<svg width="43" height="31" viewBox="0 0 43 31" fill="none" xmlns="http://www.w3.org/2000/svg">
<rect x="9.50574" y="27.188" width="2.98821" height="2.98821" fill="#F2662C"/>
<rect x="12.494" y="27.1881" width="2.98821" height="2.98821" fill="#F2662C"/>
<rect x="9.50574" y="24.1998" width="2.98821" height="2.98821" fill="#F2662C"/>
<rect x="12.494" y="24.1998" width="2.98821" height="2.98821" fill="#F2662C"/>
<rect x="9.50574" y="21.2117" width="2.98821" height="2.98821" fill="#F2662C"/>
<rect x="12.4939" y="21.2116" width="2.98821" height="2.98821" fill="#F2662C"/>
<rect x="9.50574" y="18.2234" width="2.98821" height="2.98821" fill="#F2662C"/>
<rect x="12.4939" y="18.2234" width="2.98821" height="2.98821" fill="#F2662C"/>
<rect x="15.4822" y="18.2234" width="2.98821" height="2.98821" fill="#F2662C"/>
<rect x="15.4822" y="15.2352" width="2.98821" height="2.98821" fill="#F2662C"/>
<rect x="15.4822" y="12.247" width="2.98821" height="2.98821" fill="#F2662C"/>
<rect x="15.4822" y="15.2352" width="2.98821" height="2.98821" fill="#F2662C"/>
<rect x="18.4705" y="15.2352" width="2.98821" height="2.98821" fill="#F2662C"/>
<rect x="21.4586" y="18.2234" width="2.98821" height="2.98821" fill="#F2662C"/>
<rect x="24.4468" y="18.2234" width="2.98821" height="2.98821" fill="#F2662C"/>
<rect x="27.4351" y="15.2352" width="2.98821" height="2.98821" fill="#F2662C"/>
<rect x="30.4232" y="15.2352" width="2.98821" height="2.98821" fill="#F2662C"/>
<rect x="33.4115" y="15.2352" width="2.98821" height="2.98821" fill="#F2662C"/>
<rect x="27.4351" y="12.247" width="2.98821" height="2.98821" fill="#F2662C"/>
<rect x="30.4232" y="12.247" width="2.98821" height="2.98821" fill="#F2662C"/>
<rect x="33.4114" y="12.247" width="2.98821" height="2.98821" fill="#F2662C"/>
<rect x="27.4351" y="9.25882" width="2.98821" height="2.98821" fill="#F2662C"/>
<rect x="30.4232" y="9.2588" width="2.98821" height="2.98821" fill="#F2662C"/>
<rect x="33.4114" y="9.25879" width="2.98821" height="2.98821" fill="#F2662C"/>
<rect x="36.3997" y="9.25876" width="2.98821" height="2.98821" fill="#F2662C"/>
<rect x="36.3997" y="6.27055" width="2.98821" height="2.98821" fill="#F2662C"/>
<rect x="27.4351" y="6.2706" width="2.98821" height="2.98821" fill="#F2662C"/>
<rect x="30.4232" y="6.27058" width="2.98821" height="2.98821" fill="#F2662C"/>
<rect x="33.4114" y="6.27057" width="2.98821" height="2.98821" fill="#F2662C"/>
<rect x="27.4351" y="3.28239" width="2.98821" height="2.98821" fill="#F2662C"/>
<rect x="30.4232" y="3.28236" width="2.98821" height="2.98821" fill="#F2662C"/>
<rect x="33.4115" y="3.28242" width="2.98821" height="2.98821" fill="#F2662C"/>
<rect x="36.3997" y="12.247" width="2.98821" height="2.98821" fill="#F2662C"/>
<rect x="39.3879" y="9.2588" width="2.98821" height="2.98821" fill="#F2662C"/>
<rect x="39.3878" y="6.2706" width="2.98821" height="2.98821" fill="#F2662C"/>
<rect x="18.4703" y="12.247" width="2.98821" height="2.98821" fill="#F2662C"/>
<rect x="21.4586" y="12.247" width="2.98821" height="2.98821" fill="#F2662C"/>
<rect x="24.4468" y="12.247" width="2.98821" height="2.98821" fill="#F2662C"/>
<rect x="24.4468" y="9.25877" width="2.98821" height="2.98821" fill="#F2662C"/>
<rect x="21.4586" y="9.25879" width="2.98821" height="2.98821" fill="#F2662C"/>
<rect x="21.4586" y="6.27057" width="2.98821" height="2.98821" fill="#F2662C"/>
<rect x="24.4468" y="6.27055" width="2.98821" height="2.98821" fill="#F2662C"/>
<rect x="21.4586" y="15.2352" width="2.98821" height="2.98821" fill="#F2662C"/>
<rect x="24.4468" y="15.2352" width="2.98821" height="2.98821" fill="#F2662C"/>
<rect x="18.4703" y="9.2588" width="2.98821" height="2.98821" fill="#F2662C"/>
<rect x="18.4703" y="6.27058" width="2.98821" height="2.98821" fill="#F2662C"/>
<rect x="21.4586" y="3.28235" width="2.98821" height="2.98821" fill="#F2662C"/>
<rect x="24.4468" y="3.28233" width="2.98821" height="2.98821" fill="#F2662C"/>
<rect x="27.4351" y="0.294174" width="2.98821" height="2.98821" fill="#F2662C"/>
<rect x="30.4232" y="0.294159" width="2.98821" height="2.98821" fill="#F2662C"/>
<rect x="33.4114" y="0.294205" width="2.98821" height="2.98821" fill="#F2662C"/>
<rect x="36.3997" y="3.28241" width="2.98821" height="2.98821" fill="#F2662C"/>
<rect x="12.494" y="15.2352" width="2.98821" height="2.98821" fill="#F2662C"/>
<rect x="9.50574" y="18.2234" width="2.98821" height="2.98821" fill="#F2662C"/>
<rect x="6.51758" y="18.2234" width="2.98821" height="2.98821" fill="#F2662C"/>
<rect x="3.5293" y="15.2352" width="2.98821" height="2.98821" fill="#F2662C"/>
<rect x="0.541138" y="12.247" width="2.98821" height="2.98821" fill="#F2662C"/>
<rect x="0.541138" y="9.25877" width="2.98821" height="2.98821" fill="#F2662C"/>
<rect x="3.5293" y="9.25882" width="2.98821" height="2.98821" fill="#F2662C"/>
<rect x="6.51758" y="9.2588" width="2.98821" height="2.98821" fill="#F2662C"/>
<rect x="3.5293" y="12.247" width="2.98821" height="2.98821" fill="#F2662C"/>
<rect x="6.51758" y="12.247" width="2.98821" height="2.98821" fill="#F2662C"/>
<rect x="6.51758" y="15.2352" width="2.98821" height="2.98821" fill="#F2662C"/>
<rect x="9.50574" y="15.2352" width="2.98821" height="2.98821" fill="#F2662C"/>
</svg>
