<?xml version="1.0" encoding="utf-8"?>
<!-- Generator: Adobe Illustrator 21.0.0, SVG Export Plug-In . SVG Version: 6.00 Build 0)  -->
<svg version="1.1" id="Calque_1" xmlns="http://www.w3.org/2000/svg" xmlns:xlink="http://www.w3.org/1999/xlink" x="0px" y="0px"
	 viewBox="0 0 300 300" style="enable-background:new 0 0 300 300;" xml:space="preserve">
<style type="text/css">
	.st0{display:none;}
	.st1{display:inline;}
	.st2{display:inline;fill:#FFFFFF;}
	.st3{display:inline;fill:#010202;}
	.st4{fill:#010202;}
</style>
<g id="Calque_1_1_" class="st0">
	
		<image style="display:inline;overflow:visible;enable-background:new    ;" width="375" height="196" xlink:href="1F56E026.png"  transform="matrix(2.3244 0 0 2.3244 -566 -69.7956)">
	</image>
</g>
<g id="Calque_2" class="st0">
	<polygon class="st1" points="167.8,97.8 215.5,97.8 215.5,85.9 226.7,85.9 226.7,62.9 215.5,62.9 215.5,50.7 179.8,50.7 
		179.8,62.9 167.8,62.9 167.8,74.4 155.9,74.4 155.9,50.7 144.1,50.7 144.1,38.9 131.9,38.9 131.9,27 97,27 97,38.9 85.1,38.9 
		85.1,50.7 73.3,50.7 73.3,85.9 85.1,85.9 85.1,97.8 108.5,97.8 108.5,109.7 144.1,109.7 144.1,97.8 155.9,97.8 155.9,157.2 
		144.1,157.2 144.1,145.2 131.9,145.2 131.9,133.7 108.5,133.7 108.5,145.2 97,145.2 97,168.9 108.5,168.9 108.5,180.8 131.9,180.8 
		131.9,193 155.9,193 155.9,300 167.8,300 167.8,240.1 203.7,240.1 203.7,228.5 215.5,228.5 215.5,216.7 226.7,216.7 226.7,193 
		215.5,193 215.5,180.8 191.7,180.8 191.7,193 179.8,193 179.8,216.7 167.8,216.7 167.8,133.7 179.8,133.7 179.8,145.2 203.7,145.2 
		203.7,133.7 215.5,133.7 215.5,122.2 203.7,122.2 203.7,109.7 179.8,109.7 179.8,122.2 167.8,122.2 	"/>
</g>
<g id="Calque_3" class="st0">
	<rect x="78.1" y="81.5" class="st2" width="139.3" height="37.1"/>
	<rect x="169.5" y="45.3" class="st2" width="36.4" height="135.8"/>
	<rect x="147.6" y="136.3" class="st2" width="94.8" height="54.8"/>
	<rect x="95.7" y="63.9" class="st2" width="128.4" height="128.4"/>
	<rect x="132.3" y="191.1" class="st1" width="18.9" height="109.1"/>
	<rect x="95.7" y="191.1" class="st1" width="146.7" height="18.3"/>
	<rect x="78.7" y="227.6" class="st1" width="35.3" height="35.3"/>
	<rect x="87.9" y="245.6" class="st1" width="53.9" height="17.3"/>
	<rect x="151.2" y="262.9" class="st1" width="55.5" height="18.3"/>
	<rect x="188.1" y="226" class="st1" width="36.9" height="36.9"/>
	<rect x="168.9" y="245.6" class="st1" width="34.6" height="17.3"/>
	<rect x="147.6" y="206.4" class="st1" width="21.9" height="21.2"/>
	<rect x="78.1" y="154.5" class="st1" width="17.6" height="36.6"/>
	<rect x="95.7" y="136.3" class="st1" width="18.2" height="18.2"/>
	<rect x="78.1" y="118.7" class="st1" width="17.6" height="17.6"/>
	<rect x="60.1" y="81.5" class="st1" width="18" height="37.1"/>
	<rect x="78.1" y="63.9" class="st1" width="17.6" height="17.6"/>
	<rect x="95.7" y="45.3" class="st1" width="37.3" height="18.6"/>
	<rect x="133.1" y="63.9" class="st1" width="18.2" height="17.6"/>
	<rect x="151.2" y="45.3" class="st1" width="18.3" height="145.8"/>
	<rect x="95.7" y="118.7" class="st1" width="146.7" height="17.6"/>
	<rect x="242.4" y="136.3" class="st1" width="18.3" height="54.8"/>
	<rect x="205.9" y="100" class="st1" width="18.2" height="18.7"/>
	<rect x="224.1" y="63.5" class="st1" width="18.3" height="36.5"/>
	<rect x="205.9" y="45.2" class="st1" width="18.2" height="18.2"/>
	<rect x="169.5" y="27" class="st1" width="36.4" height="18.3"/>
</g>
<g id="Calque_4" class="st0">
	<rect x="143.3" y="120" class="st3" width="12" height="180"/>
	<rect x="119.3" y="204" class="st3" width="24" height="36"/>
	<rect x="107.3" y="192" class="st3" width="24" height="36"/>
	<rect x="95.3" y="180" class="st3" width="24" height="36"/>
	<rect x="155.3" y="180" class="st3" width="48" height="12"/>
	<rect x="167.3" y="168" class="st3" width="48" height="12"/>
	<rect x="179.3" y="156" class="st3" width="36" height="12"/>
	<rect x="203.3" y="144" class="st3" width="12" height="12"/>
	<rect x="131.3" y="60" class="st2" width="36" height="60"/>
	<rect x="131.3" y="120" class="st1" width="36" height="12"/>
	<rect x="107.3" y="72" class="st1" width="12" height="36"/>
	<rect x="179.3" y="72" class="st1" width="12" height="36"/>
	<rect x="131.3" y="48" class="st1" width="24.7" height="12"/>
	<rect x="119.3" y="72" class="st2" width="60" height="36"/>
	<rect x="119.3" y="60" class="st1" width="12" height="12"/>
	<rect x="167.3" y="60" class="st1" width="12" height="12"/>
	<rect x="119.3" y="108" class="st1" width="12" height="12"/>
	<rect x="167.3" y="108" class="st1" width="12" height="12"/>
	<rect x="143.3" y="60" class="st1" width="12" height="12"/>
	<rect x="155.3" y="48" class="st1" width="12" height="12"/>
</g>
<g id="Calque_4_-_copie">
	<rect x="141.3" y="0.6" class="st4" width="21.4" height="299.4"/>
	<rect x="98.6" y="128.9" class="st4" width="42.8" height="64.2"/>
	<rect x="77.2" y="107.5" class="st4" width="42.8" height="64.2"/>
	<rect x="55.8" y="86.1" class="st4" width="42.8" height="64.2"/>
	<rect x="162.7" y="86.1" class="st4" width="85.5" height="21.4"/>
	<rect x="184.1" y="64.8" class="st4" width="85.5" height="21.4"/>
	<rect x="205.5" y="43.4" class="st4" width="64.2" height="21.4"/>
	<rect x="248.3" y="22" class="st4" width="21.4" height="21.4"/>
</g>
</svg>
