<?xml version="1.0" encoding="utf-8"?>
<!-- Generator: Adobe Illustrator 22.1.0, SVG Export Plug-In . SVG Version: 6.00 Build 0)  -->
<svg version="1.1" xmlns="http://www.w3.org/2000/svg" xmlns:xlink="http://www.w3.org/1999/xlink" x="0px" y="0px"
	 viewBox="0 0 300 300" style="enable-background:new 0 0 300 300;" xml:space="preserve">
<style type="text/css">
	.st0{display:none;}
	.st1{display:inline;}
	.st2{display:inline;fill:#FFFFFF;}
	.st3{display:inline;fill:#010202;}
	.st4{display:inline;fill:#EAE4E1;}
	.st5{display:inline;fill:#F5F1F0;}
	.st6{fill:#FFFFFF;}
	.st7{fill:#EAE4E1;}
</style>
<g id="Calque_1" class="st0">
	<g id="Calque_1_1_">
		
			<image style="display:inline;overflow:visible;enable-background:new    ;" width="375" height="196" xlink:href="C8F5A177.png"  transform="matrix(2.3244 0 0 2.3244 -566 -69.7956)">
		</image>
	</g>
	<g id="Calque_2_1_" class="st1">
		<polygon points="167.8,97.8 215.5,97.8 215.5,85.9 226.7,85.9 226.7,62.9 215.5,62.9 215.5,50.7 179.8,50.7 179.8,62.9 
			167.8,62.9 167.8,74.4 155.9,74.4 155.9,50.7 144.1,50.7 144.1,38.9 131.9,38.9 131.9,27 97,27 97,38.9 85.1,38.9 85.1,50.7 
			73.3,50.7 73.3,85.9 85.1,85.9 85.1,97.8 108.5,97.8 108.5,109.7 144.1,109.7 144.1,97.8 155.9,97.8 155.9,157.2 144.1,157.2 
			144.1,145.2 131.9,145.2 131.9,133.7 108.5,133.7 108.5,145.2 97,145.2 97,168.9 108.5,168.9 108.5,180.8 131.9,180.8 131.9,193 
			155.9,193 155.9,300 167.8,300 167.8,240.1 203.7,240.1 203.7,228.5 215.5,228.5 215.5,216.7 226.7,216.7 226.7,193 215.5,193 
			215.5,180.8 191.7,180.8 191.7,193 179.8,193 179.8,216.7 167.8,216.7 167.8,133.7 179.8,133.7 179.8,145.2 203.7,145.2 
			203.7,133.7 215.5,133.7 215.5,122.2 203.7,122.2 203.7,109.7 179.8,109.7 179.8,122.2 167.8,122.2 		"/>
	</g>
	<g id="Calque_3">
		<rect x="78.1" y="81.5" class="st2" width="139.3" height="37.1"/>
		<rect x="169.5" y="45.3" class="st2" width="36.4" height="135.8"/>
		<rect x="147.6" y="136.3" class="st2" width="94.8" height="54.8"/>
		<rect x="95.7" y="63.9" class="st2" width="128.4" height="128.4"/>
		<rect x="132.3" y="191.1" class="st1" width="18.9" height="109.1"/>
		<rect x="95.7" y="191.1" class="st1" width="146.7" height="18.3"/>
		<rect x="78.7" y="227.6" class="st1" width="35.3" height="35.3"/>
		<rect x="87.9" y="245.6" class="st1" width="53.9" height="17.3"/>
		<rect x="151.2" y="262.9" class="st1" width="55.5" height="18.3"/>
		<rect x="188.1" y="226" class="st1" width="36.9" height="36.9"/>
		<rect x="168.9" y="245.6" class="st1" width="34.6" height="17.3"/>
		<rect x="147.6" y="206.4" class="st1" width="21.9" height="21.2"/>
		<rect x="78.1" y="154.5" class="st1" width="17.6" height="36.6"/>
		<rect x="95.7" y="136.3" class="st1" width="18.2" height="18.2"/>
		<rect x="78.1" y="118.7" class="st1" width="17.6" height="17.6"/>
		<rect x="60.1" y="81.5" class="st1" width="18" height="37.1"/>
		<rect x="78.1" y="63.9" class="st1" width="17.6" height="17.6"/>
		<rect x="95.7" y="45.3" class="st1" width="37.3" height="18.6"/>
		<rect x="133.1" y="63.9" class="st1" width="18.2" height="17.6"/>
		<rect x="151.2" y="45.3" class="st1" width="18.3" height="145.8"/>
		<rect x="95.7" y="118.7" class="st1" width="146.7" height="17.6"/>
		<rect x="242.4" y="136.3" class="st1" width="18.3" height="54.8"/>
		<rect x="205.9" y="100" class="st1" width="18.2" height="18.7"/>
		<rect x="224.1" y="63.5" class="st1" width="18.3" height="36.5"/>
		<rect x="205.9" y="45.2" class="st1" width="18.2" height="18.2"/>
		<rect x="169.5" y="27" class="st1" width="36.4" height="18.3"/>
	</g>
	<g id="Calque_4">
		<rect x="143.3" y="120" class="st3" width="12" height="180"/>
		<rect x="119.3" y="204" class="st3" width="24" height="36"/>
		<rect x="107.3" y="192" class="st3" width="24" height="36"/>
		<rect x="95.3" y="180" class="st3" width="24" height="36"/>
		<rect x="155.3" y="180" class="st3" width="48" height="12"/>
		<rect x="167.3" y="168" class="st3" width="48" height="12"/>
		<rect x="179.3" y="156" class="st3" width="36" height="12"/>
		<rect x="203.3" y="144" class="st3" width="12" height="12"/>
		<rect x="131.3" y="60" class="st2" width="36" height="60"/>
		<rect x="131.3" y="120" class="st1" width="36" height="12"/>
		<rect x="107.3" y="72" class="st1" width="12" height="36"/>
		<rect x="179.3" y="72" class="st1" width="12" height="36"/>
		<rect x="131.3" y="48" class="st1" width="24.7" height="12"/>
		<rect x="119.3" y="72" class="st2" width="60" height="36"/>
		<rect x="119.3" y="60" class="st1" width="12" height="12"/>
		<rect x="167.3" y="60" class="st1" width="12" height="12"/>
		<rect x="119.3" y="108" class="st1" width="12" height="12"/>
		<rect x="167.3" y="108" class="st1" width="12" height="12"/>
		<rect x="143.3" y="60" class="st1" width="12" height="12"/>
		<rect x="155.3" y="48" class="st1" width="12" height="12"/>
	</g>
	<g id="Calque_4_-_copie">
		<rect x="144" y="132" class="st3" width="12" height="168"/>
		<rect x="120" y="204" class="st3" width="24" height="36"/>
		<rect x="108" y="192" class="st3" width="24" height="36"/>
		<rect x="96" y="180" class="st3" width="24" height="36"/>
		<rect x="156" y="180" class="st3" width="48" height="12"/>
		<rect x="168" y="168" class="st3" width="48" height="12"/>
		<rect x="180" y="156" class="st3" width="36" height="12"/>
		<rect x="204" y="144" class="st3" width="12" height="12"/>
		<rect x="132" y="108" class="st1" width="36" height="12"/>
		<rect x="120" y="72" class="st1" width="12" height="36"/>
		<rect x="168" y="72" class="st1" width="12" height="36"/>
		<rect x="132" y="60" class="st1" width="36" height="12"/>
		<rect x="132" y="72" class="st2" width="36" height="36"/>
		<rect x="120" y="144" class="st3" width="24" height="12"/>
		<rect x="108" y="132" class="st3" width="12" height="12"/>
		<rect x="96" y="120" class="st3" width="12" height="12"/>
		<rect x="108" y="120" class="st3" width="12" height="12"/>
		<rect x="84" y="96" class="st3" width="12" height="24"/>
		<rect x="96" y="84" class="st3" width="12" height="12"/>
		<rect x="84" y="60" class="st3" width="12" height="24"/>
		<rect x="96" y="48" class="st3" width="12" height="12"/>
		<rect x="108" y="36" class="st3" width="12" height="12"/>
		<rect x="108" y="48" class="st3" width="12" height="12"/>
		<rect x="120" y="24" class="st3" width="24" height="12"/>
		<rect x="144" y="36" class="st3" width="12" height="12"/>
		<rect x="156" y="24" class="st3" width="24" height="12"/>
		<rect x="180" y="36" class="st3" width="12" height="24"/>
		<rect x="192" y="48" class="st3" width="12" height="12"/>
		<rect x="204" y="60" class="st3" width="12" height="24"/>
		<rect x="192" y="84" class="st3" width="12" height="12"/>
		<rect x="204" y="96" class="st3" width="12" height="24"/>
		<rect x="192" y="120" class="st3" width="12" height="12"/>
		<rect x="180" y="132" class="st3" width="12" height="12"/>
		<rect x="156" y="144" class="st3" width="24" height="12"/>
		<rect x="180" y="120" class="st3" width="12" height="12"/>
		<rect x="144" y="72" class="st3" width="12" height="12"/>
		<rect x="132" y="84" class="st3" width="12" height="12"/>
		<rect x="144" y="96" class="st3" width="12" height="12"/>
		<rect x="156" y="84" class="st3" width="12" height="12"/>
	</g>
	<g id="Calque_5">
		
			<image style="display:inline;overflow:visible;enable-background:new    ;" width="48" height="48" xlink:href="C8F5A175.png"  transform="matrix(2.2292 0 0 2.2292 -155 119)">
		</image>
		<rect x="131.7" y="144" class="st1" width="24.3" height="156"/>
		<rect x="120" y="96" class="st1" width="24" height="48"/>
		<rect x="108" y="72" class="st1" width="12" height="60"/>
		<rect x="96" y="60" class="st1" width="12" height="48"/>
		<rect x="108" y="48" class="st1" width="24" height="24"/>
		<rect x="120" y="60" class="st1" width="12" height="36"/>
		<rect x="144" y="48" class="st1" width="24" height="96"/>
		<rect x="132" y="60" class="st1" width="12" height="36"/>
		<rect x="156" y="36" class="st1" width="12" height="12"/>
		<rect x="180" y="60" class="st1" width="12" height="12"/>
		<rect x="168" y="48" class="st1" width="12" height="84"/>
		<rect x="180" y="60" class="st1" width="12" height="60"/>
		<rect x="108" y="228" class="st1" width="24" height="60"/>
		<rect x="84" y="216" class="st1" width="36" height="60"/>
		<rect x="72" y="204" class="st1" width="36" height="60"/>
	</g>
</g>
<g id="Calque_2" class="st0">
	
		<image style="display:inline;overflow:visible;" width="48" height="81" xlink:href="C:\Users\micro\Downloads\Coffee_Stage_1.png"  transform="matrix(3.5802 0 0 3.5802 -223.8519 -87)">
	</image>
	<rect x="40" y="20" class="st2" width="40" height="60"/>
	<rect x="20" y="20" class="st2" width="20" height="40"/>
	<rect x="80" y="40" class="st2" width="20" height="40"/>
	<rect x="40" y="40" class="st1" width="40" height="20"/>
	<rect x="40" y="40" class="st4" width="20" height="20"/>
	<rect x="140" y="60" class="st2" width="20" height="60"/>
	<rect x="200" y="60" class="st2" width="20" height="60"/>
	<rect x="170" y="30" transform="matrix(-1.836970e-16 1 -1 -1.836970e-16 230 -130)" class="st2" width="20" height="40"/>
	<rect x="170" y="110" transform="matrix(-1.836970e-16 1 -1 -1.836970e-16 310 -50)" class="st2" width="20" height="40"/>
	<rect x="160" y="60" class="st4" width="20" height="60"/>
	<rect x="160" y="80" transform="matrix(-1.836970e-16 1 -1 -1.836970e-16 280 -100)" class="st1" width="60" height="20"/>
	<rect x="60" y="100" transform="matrix(-1.836970e-16 1 -1 -1.836970e-16 200 60)" class="st2" width="20" height="60"/>
	<rect x="60" y="160" transform="matrix(-1.836970e-16 1 -1 -1.836970e-16 260 120)" class="st2" width="20" height="60"/>
	<rect x="100" y="140" transform="matrix(-1 -1.224647e-16 1.224647e-16 -1 220 320)" class="st2" width="20" height="40"/>
	<rect x="20" y="140" transform="matrix(-1 -1.224647e-16 1.224647e-16 -1 60 320)" class="st2" width="20" height="40"/>
	<rect x="60" y="120" transform="matrix(-1.836970e-16 1 -1 -1.836970e-16 220 80)" class="st4" width="20" height="60"/>
	<rect x="40" y="160" transform="matrix(-1 -1.224647e-16 1.224647e-16 -1 140 340)" class="st1" width="60" height="20"/>
	
		<rect x="230" y="129.9" transform="matrix(6.123234e-17 -1 1 6.123234e-17 90.0625 409.9375)" class="st2" width="40" height="60"/>
	
		<rect x="230" y="169.9" transform="matrix(6.123234e-17 -1 1 6.123234e-17 50.0625 429.9375)" class="st2" width="20" height="40"/>
	
		<rect x="250" y="109.9" transform="matrix(6.123234e-17 -1 1 6.123234e-17 130.0625 389.9375)" class="st2" width="20" height="40"/>
	
		<rect x="230" y="149.9" transform="matrix(6.123234e-17 -1 1 6.123234e-17 90.0625 409.9375)" class="st1" width="40" height="20"/>
	
		<rect x="240" y="159.9" transform="matrix(6.123234e-17 -1 1 6.123234e-17 80.0625 419.9375)" class="st4" width="20" height="20"/>
	<rect x="150" y="170" transform="matrix(-1.836970e-16 1 -1 -1.836970e-16 350 30)" class="st2" width="20" height="40"/>
	<rect x="180" y="200" transform="matrix(-1 -1.224647e-16 1.224647e-16 -1 380 440)" class="st2" width="20" height="40"/>
	<rect x="100" y="220" transform="matrix(-1 -1.224647e-16 1.224647e-16 -1 220 480)" class="st2" width="20" height="40"/>
	<rect x="130" y="250" transform="matrix(6.123234e-17 -1 1 6.123234e-17 -130 410)" class="st2" width="20" height="40"/>
	<rect x="120" y="200" transform="matrix(-1 -1.224647e-16 1.224647e-16 -1 260 420)" class="st2" width="20" height="20"/>
	<rect x="160" y="240" transform="matrix(-1 -1.224647e-16 1.224647e-16 -1 340 500)" class="st2" width="20" height="20"/>
	<rect x="160" y="220" transform="matrix(-1 -1.224647e-16 1.224647e-16 -1 340 460)" class="st4" width="20" height="20"/>
	<rect x="130" y="230" transform="matrix(6.123234e-17 -1 1 6.123234e-17 -110 390)" class="st4" width="20" height="40"/>
</g>
<g id="Calque_4_1_" class="st0">
	<rect x="184" y="93" class="st2" width="30" height="10"/>
	<rect x="174" y="103" class="st2" width="10" height="10"/>
	<rect x="164" y="113" class="st2" width="10" height="30"/>
	<rect x="184" y="153" class="st2" width="30" height="10"/>
	<rect x="174" y="143" class="st2" width="10" height="10"/>
	<rect x="214" y="143" class="st2" width="10" height="10"/>
	<rect x="214" y="103" class="st2" width="10" height="10"/>
	<rect x="224" y="113" class="st2" width="10" height="30"/>
	<rect x="174" y="113" class="st4" width="10" height="30"/>
	<rect x="184" y="133" class="st4" width="10" height="20"/>
	<rect x="194" y="143" class="st4" width="20" height="10"/>
</g>
<g id="Calque_3_1_" class="st0">
	
		<image style="display:inline;overflow:visible;" width="417" height="805" xlink:href="C:\Users\micro\Documents\ShareX\Screenshots\2019-11\firefox_2019-11-21_08-52-41.png"  transform="matrix(0.1851 0 0 0.1851 -137.1839 4)">
	</image>
	<path class="st2" d="M20,20v260h260V20H20z M270,270H30V30h240V270z"/>
	<rect x="30" y="210" class="st5" width="241" height="61"/>
	<rect x="40" y="200" class="st5" width="100" height="10"/>
	<rect x="50" y="190" class="st5" width="80" height="10"/>
	<rect x="60" y="180" class="st5" width="60" height="10"/>
	<rect x="70" y="170" class="st5" width="40" height="11"/>
	<rect x="80" y="160" class="st5" width="20" height="11"/>
	<rect x="150" y="200" class="st5" width="120" height="10"/>
	<rect x="160" y="190" class="st5" width="110" height="10"/>
	<rect x="170" y="180" class="st5" width="100" height="11"/>
	<rect x="181.1" y="170" class="st5" width="88.9" height="13"/>
	<rect x="192.2" y="160" class="st5" width="77.8" height="15"/>
	<rect x="200" y="150" class="st5" width="70" height="13"/>
	<rect x="210" y="140" class="st5" width="60" height="10"/>
	<rect x="220" y="130" class="st5" width="50" height="10"/>
	<rect x="230" y="120" class="st5" width="30" height="10"/>
	<rect x="240" y="110" class="st5" width="10" height="11"/>
</g>
<g id="Calque_5_1_">
	<g>
		<path class="st6" d="M20.1,220l117.7-67.1L20.1,85.8l13.3-23.4l158.7,90.5L33.5,243.4L20.1,220z"/>
	</g>
	<g>
		<path class="st7" d="M125.8,149.5c-13.8,0-21.7,16.8-21.7,41.9H59.3c0-48.8,26.1-81.8,66.5-81.8c60.1,0,56.2,56.2,86.7,56.2
			c13.3,0,22.7-20.2,22.7-47.3H280c0,51.2-26.6,86.7-67.5,86.7C153.9,205.1,158.8,149.5,125.8,149.5z"/>
	</g>
	<g>
		<path class="st6" d="M227.5,212.6h38.7v38.4h-38.7V212.6z M229.3,45h35.2l-4.1,143.7h-26.9L229.3,45z"/>
	</g>
</g>
</svg>
