<?xml version="1.0" standalone="no"?>
<!DOCTYPE svg PUBLIC "-//W3C//DTD SVG 1.1//EN" "http://www.w3.org/Graphics/SVG/1.1/DTD/svg11.dtd" >
<svg>
<metadata>
Created by FontForge 20090622 at Tue Nov 26 09:57:14 2019
 By deploy user
Copyright (c) SIL International, 2004-2015.
</metadata>
<defs>
<font id="Quebec-LightItalic" horiz-adv-x="1133" >
  <font-face 
    font-family="Quebec Light"
    font-weight="300"
    font-style="italic"
    font-stretch="normal"
    units-per-em="2048"
    panose-1="2 0 0 0 0 0 0 0 0 0"
    ascent="1638"
    descent="-410"
    x-height="1040"
    cap-height="1497"
    bbox="-1151 -530 2713 2742"
    underline-thickness="80"
    underline-position="-230"
    slope="-14"
    unicode-range="U+0020-U+FB02"
  />
<missing-glyph horiz-adv-x="1483" 
d="M149 43h1186v1822h-1186v-1822zM116 1898h1252v-1888h-1252v1888z" />
    <glyph glyph-name=".notdef" horiz-adv-x="1483" 
d="M149 43h1186v1822h-1186v-1822zM116 1898h1252v-1888h-1252v1888z" />
    <glyph glyph-name=".null" horiz-adv-x="0" 
 />
    <glyph glyph-name="nonmarkingreturn" horiz-adv-x="1064" 
 />
    <glyph glyph-name="space" unicode=" " horiz-adv-x="561" 
 />
    <glyph glyph-name="exclam" unicode="!" horiz-adv-x="788" 
d="M209 95q0 30 13 56q14 27 36.5 48t51 33t60.5 12q23 0 43 -9q21 -9 36.5 -24.5t24 -35.5t8.5 -43q0 -29 -13 -56q-14 -27 -36 -47.5t-51.5 -32.5t-60.5 -12q-23 0 -43.5 8.5t-36 24t-24 36t-8.5 42.5zM354 467l52 224l61 263q31 138 61 291q30 148 57 314h248
q-55 -163 -100 -310q-46 -152 -84 -290l-69 -263l-61 -229h-165z" />
    <glyph glyph-name="quotedbl" unicode="&#x22;" horiz-adv-x="1065" 
d="M876 1095l22 102q13 58 25 126t24 147q12 76 23 166h195l-58 -161l-49 -147l-39 -126l-31 -107h-112zM515 1095l23 102q13 58 25 126t24 147l23 166h194l-58 -161l-49 -147l-38 -126l-31 -107h-113z" />
    <glyph glyph-name="numbersign" unicode="#" horiz-adv-x="1250" 
d="M545 639h293l140 265h-293zM294 1039h305l190 364h158l-191 -364h293l191 364h157l-191 -364h224l-34 -135h-260l-141 -265h272l-34 -136h-308l-204 -389h-157l202 389h-292l-203 -389h-158l204 389h-219l34 136h256l140 265h-267z" />
    <glyph glyph-name="dollar" unicode="$" horiz-adv-x="1210" 
d="M560 1155q-20 -34 -20 -70q0 -27 10 -51.5t32 -48.5q20 -23 51.5 -49t76.5 -56l12 -8l98 412l-14 -1q-58 -5 -107 -23t-84 -44q-36 -27 -55 -61zM936 295q17 39 17 83q0 52 -37 106q-37 53 -121 120l-12 9l-110 -455l13 1q66 3 116 21t83 47q35 29 51 68zM910 1642h124
l-55 -222l11 -1q77 -7 141 -26q60 -18 122 -50l-77 -169q-60 38 -111 60q-55 24 -113 34l-9 1l-115 -477l6 -4q65 -45 118 -92q53 -46 93 -95q39 -49 60 -101q20 -52 20 -106q0 -99 -38 -172q-39 -72 -106 -121q-65 -49 -152 -74t-183 -27h-8l-56 -229h-123l56 239l-10 2
q-85 17 -170 56q-82 38 -162 97l83 174q17 -21 40 -42q31 -28 70 -54q37 -25 83 -47q45 -21 94 -35l9 -2l125 519l-16 10q-73 47 -128 87q-54 39 -89.5 78.5t-53.5 83.5q-18 45 -18 105q0 69 29 134t85 117q57 52 147 87q90 34 216 41h8z" />
    <glyph glyph-name="percent" unicode="%" horiz-adv-x="1556" 
d="M920 1290q0 -72 -21 -163q-27 -114 -68 -192t-91 -126q-50 -47 -108 -67q-59 -21 -126 -21q-105 0 -167 58t-62 184q0 76 23 170q27 110 68 187t92 125t110 70q60 22 125 22q103 0 164 -60.5t61 -186.5zM706 986q19 49 37 123q23 97 23 163q0 73 -29 106q-28 34 -83 34
q-36 0 -64 -13q-29 -13 -52 -44q-23 -30 -42 -80q-19 -49 -37 -123q-24 -98 -24 -164q0 -74 29 -107t81 -33q35 0 64 13q30 13 54 44q23 30 43 81zM1415 1537h162l-1181 -1544h-164zM1523 475.5q-5 -39.5 -17 -84.5q-29 -112 -70 -188q-40 -77 -92 -123q-51 -47 -109 -67
q-59 -20 -126 -20q-51 0 -93 14q-41 14 -70 43t-45 74t-16 107q0 36 6 77q6 40 17 88q26 107 66 182t91 122q50 48 109 69q60 21 125 21q104 0 166.5 -59.5t62.5 -181.5q0 -34 -5 -73.5zM1310 246q19 49 37 122q24 94 24 158q0 73 -30 105q-30 33 -84 33q-36 0 -64 -12
q-29 -13 -52 -44q-23 -30 -42 -79q-19 -48 -37 -121q-24 -95 -24 -159q0 -74 29 -106q29 -33 82 -33q35 0 64 13q30 13 54 43q23 30 43 80z" />
    <glyph glyph-name="ampersand" unicode="&#x26;" horiz-adv-x="1274" 
d="M567 1218q0 -53 24 -115q24 -60 60 -131l6 -10l9 7q129 98 190 166q63 70 63 130q0 30 -12.5 57.5t-33 47.5t-48.5 31t-58 11q-39 0 -74.5 -13.5t-64 -39.5t-45 -62t-16.5 -79zM467 146q34 0 74 10q40 11 83 29q42 19 87.5 44t90.5 56l7 5l-4 8q-66 128 -145 299l-37 73
l-36 71l-5 10l-10 -7q-153 -109 -231 -206q-80 -98 -80 -205q0 -38 13 -72t39.5 -60t65.5 -40q38 -15 88 -15zM1182 453q-28 -37 -68 -79q-43 -45 -99 -93l-6 -6l5 -7q54 -86 98 -136q36 -41 69 -60l-30 -20l-53 -32q-26 -16 -49 -26q-22 -10 -34 -10q-17 0 -50 43
q-36 46 -86 134l-6 9l-9 -6q-54 -38 -112.5 -71t-117 -57t-116.5 -38t-112 -14q-73 0 -131.5 24.5t-100 67.5t-64.5 102t-23 127q0 58 22 119t72 129t132 143q81 75 200 161l7 5l-4 8q-45 85 -75 163q-30 77 -30 148q0 83 24 149q24 64 73 109.5t123 68.5q76 24 177 24
q50 0 98 -17t86 -48q37 -30 59 -74t22 -97q0 -51 -25 -104q-26 -55 -71 -111q-46 -56 -109.5 -113.5t-141.5 -114.5l-7 -5l4 -8l35 -68l34 -70l76 -162q36 -75 70 -138l6 -11l10 8q55 49 99 97q38 40 63 78z" />
    <glyph glyph-name="quotesingle" unicode="'" horiz-adv-x="620" 
d="M473 1095l22 102q13 58 25.5 126t24.5 147l23 166h194l-58 -161l-49 -147t-38 -126l-31 -107h-113z" />
    <glyph glyph-name="parenleft" unicode="(" horiz-adv-x="821" 
d="M977 1546q-112 -78 -200 -171q-90 -95 -160 -204t-120 -234q-51 -124 -86 -264q-26 -102 -39 -198t-13 -189q0 -157 40 -298q40 -137 123 -263l-125 -135q-106 148 -160 319q-56 177 -56 377q0 92 12 187.5t36 195.5q42 169 114.5 322t167 284t207.5 238q107 101 225 174
z" />
    <glyph glyph-name="parenright" unicode=")" horiz-adv-x="821" 
d="M616 1688q55 -51 98 -117q47 -72 79 -158q31 -88 48 -187.5t17 -208.5q0 -93 -12 -189.5t-38 -196.5q-38 -158 -103 -300.5t-154 -272t-202 -247.5q-109 -114 -240 -221l-55 131q112 98 202 200q91 104 162.5 214.5t123 232.5t85.5 259q24 96 36.5 190t12.5 186
q0 161 -41 301q-41 135 -127 238z" />
    <glyph glyph-name="asterisk" unicode="*" horiz-adv-x="1068" 
d="M929 1652l-27 -81l-27 -80l-22 -71q-10 -33 -18 -68l-5 -22l20 11l67 39l71 41l77 49l81 51l36 -107l-90 -38l-82 -35l-74 -32l-68 -32l-17 -8l16 -10l55 -31q28 -15 60 -29l69 -30l70 -30l-96 -112l-58 48q-30 25 -57 45l-51 37l-50 35l-13 9l-3 -15l-12 -68
q-7 -33 -12.5 -70.5t-10.5 -79.5q-5 -39 -9 -86h-125l26 82l27 80l22 71l19 66l6 23l-21 -11l-68 -38l-70 -42l-77 -49l-80 -52l-36 109l89 36l82 35l74 33l69 34l17 8l-16 10q-28 16 -56.5 30l-60.5 29l-69 30l-69 30l97 112l57 -49l56 -44l52 -39l49 -34l12 -8l4 14
q8 34 13 68l10 71q5 37 8 80l9 85h130z" />
    <glyph glyph-name="plus" unicode="+" horiz-adv-x="1250" 
d="M318 832h386l97 383h143l-96 -383h392l-33 -136h-392l-98 -390h-143l97 390h-387z" />
    <glyph glyph-name="comma" unicode="," horiz-adv-x="667" 
d="M180 153q22 46 64 71q43 26 86 26q24 0 45.5 -9t37 -25.5t25 -39.5t9.5 -51q0 -56 -26 -111q-27 -57 -67 -108q-41 -52 -91 -98q-48 -43 -91 -77l-76 33q24 20 51 46q33 34 64.5 73.5t56.5 82.5t36 84l3 12h-149z" />
    <glyph glyph-name="hyphen" unicode="-" horiz-adv-x="890" 
d="M212 722h721l-35 -135h-721z" />
    <glyph glyph-name="period" unicode="." horiz-adv-x="657" 
d="M167 95q0 30 13 56q14 27 36 48t51 33t61 12q23 0 43.5 -9t35.5 -24.5t23 -35.5q9 -20 9 -43q0 -29 -13 -56t-35 -47.5t-51.5 -32.5t-60.5 -12q-24 0 -44 8.5t-35.5 24t-24 36t-8.5 42.5z" />
    <glyph glyph-name="slash" unicode="/" horiz-adv-x="1038" 
d="M1391 1652l-1343 -1896h-155l1342 1896h156z" />
    <glyph glyph-name="zero" unicode="0" horiz-adv-x="1210" 
d="M1301 955q-12 -84 -37 -185q-56 -227 -138 -378q-83 -151 -175 -238q-93 -88 -195 -124t-205 -36q-84 0 -153 25q-71 25 -122 76t-80 131t-29 188q0 73 12 160q13 87 39 193q54 217 133 366t170 239q91 91 196 131q104 39 213 39q84 0 154 -24q71 -25 121.5 -76
t79.5 -132q28 -82 28 -198q0 -72 -12 -157zM974 467q53 115 91 275q29 114 43 203q14 90 14 159q0 141 -59 201q-57 61 -165 61q-76 0 -146.5 -35.5t-132.5 -110.5q-61 -75 -112 -190q-52 -115 -90 -275q-55 -222 -55 -359t58 -201q57 -64 164 -64q72 0 142 36
q71 35 133 110t115 190z" />
    <glyph glyph-name="one" unicode="1" horiz-adv-x="1210" 
d="M1037 177l-39 -157h-828l38 157h328l275 1161l-348 -181l17 165l397 215h165l-335 -1360h330z" />
    <glyph glyph-name="two" unicode="2" horiz-adv-x="1210" 
d="M1081 185l-41 -165h-976l39 160q106 58 217 134q110 77 213 164t195.5 178.5t161.5 178t109 164.5q41 79 41 138q0 56 -17 100q-18 44 -49 76q-31 31 -75 47t-96 16q-49 0 -103 -15t-107.5 -40.5t-105.5 -61.5q-44 -30 -82 -64l-7 151q39 41 91 76q55 36 117 63t128 42
t130 15q87 0 157 -29q71 -28 120 -78t74 -118q25 -67 25 -143q0 -69 -34 -152q-36 -83 -98 -172q-61 -86 -146 -180q-81 -92 -177 -178t-201.5 -163.5t-210.5 -137.5l-33 -19h301q152 0 269 2q105 2 171 11z" />
    <glyph glyph-name="three" unicode="3" horiz-adv-x="1210" 
d="M586 894h64q39 0 88.5 9t100 26.5t98.5 43.5t86 61q39 36 63 79q25 45 25 99q0 42 -22 75q-21 32 -56 53q-33 21 -75 31q-41 10 -83 10q-60 0 -116 -8q-57 -8 -110.5 -27.5t-107.5 -50.5q-45 -26 -91 -64l5 151q38 33 83 61q47 30 101.5 52t114 34.5t123.5 12.5
q84 0 160 -22q78 -22 136 -62q59 -41 94 -96q34 -55 34 -123q0 -81 -39 -146q-39 -66 -100 -116t-137 -84q-74 -34 -147 -51l-49 -11l49 -9q44 -8 95 -31t94 -62q44 -39 72 -95q29 -55 29 -130q0 -80 -27 -149q-26 -70 -72 -128t-106 -103q-61 -45 -131.5 -76.5t-147 -47.5
t-151.5 -16q-68 0 -130 12q-64 13 -119 34q-56 22 -101 53q-43 29 -73 64l73 200q28 -39 60 -72q39 -41 88 -69.5t106 -43.5q58 -16 130 -16q73 0 147 23q74 24 133 70.5t97 112.5q38 67 38 153q0 55 -28 99q-28 42 -78 72q-49 29 -118 45q-68 16 -151 16h-59z" />
    <glyph glyph-name="four" unicode="4" horiz-adv-x="1210" 
d="M1030 1311l-710 -750h528zM1190 430h-201l-98 -410h-176l99 410h-702l37 146l910 961h205l-240 -966h201z" />
    <glyph glyph-name="five" unicode="5" horiz-adv-x="1210" 
d="M1329 1507l-44 -175q-53 9 -108 13q-61 5 -127 5h-405l-99 -406l14 2q24 3 64.5 6.5t97.5 3.5q94 0 173.5 -29t137 -78.5t89.5 -119.5q33 -69 33 -150q0 -93 -27 -173q-26 -79 -72 -146q-46 -66 -108 -117t-135.5 -86.5t-155 -54t-163.5 -18.5q-119 0 -221 24
q-98 22 -179 79l78 197q32 -30 65 -53q39 -27 81.5 -45t89.5 -26q47 -9 102 -9q84 0 166 24q82 25 147 73q66 49 106 122q41 72 41 168q0 64 -28 111q-27 47 -71 78t-99 47q-55 15 -111 15q-42 0 -82.5 -3.5t-83.5 -11.5t-90 -21q-37 -11 -83 -27l189 781h818z" />
    <glyph glyph-name="six" unicode="6" horiz-adv-x="1210" 
d="M882 749q-48 20 -106 20q-105 0 -193 -33q-86 -33 -165 -94l-4 -3v-4q-7 -66 -7 -135q0 -76 18 -140.5t53 -111.5q34 -48 84.5 -75t115.5 -27q64 0 126 22.5t112.5 66.5t81.5 105q30 63 30 141q0 66 -17 119t-49.5 90.5t-79.5 58.5zM1350 1436l-86 -180q-17 24 -39 43
q-28 26 -61.5 44t-71.5 28q-37 10 -75 10q-101 0 -192.5 -40.5t-166.5 -117.5q-76 -77 -132 -186q-55 -107 -87 -241l-6 -27l22 17q44 34 89 60q46 27 93.5 45.5t93.5 28.5t89 10q88 0 160.5 -32t123.5 -85q53 -53 81.5 -122t28.5 -143q0 -137 -44 -242q-43 -104 -119 -177
q-75 -71 -179 -108t-228 -37q-87 0 -162 36q-78 36 -136 103q-58 66 -92 163t-34 218q0 115 24 237q24 121 72 236q48 116 119 219q70 104 161 179q91 77 205 122q113 45 249 45q90 0 173 -28q77 -26 127 -78z" />
    <glyph glyph-name="seven" unicode="7" horiz-adv-x="1210" 
d="M422 10h-194q75 139 148 261l152 244l148 221q74 105 154 204l161 196l174 197l16 17h-435q-146 0 -242 -5q-85 -4 -146 -13l42 175h1041l-38 -152q-303 -305 -552 -653q-238 -333 -429 -692z" />
    <glyph glyph-name="eight" unicode="8" horiz-adv-x="1210" 
d="M474 157q47 -16 108 -16q74 0 149 24t134.5 70.5t96.5 114.5q39 68 39 155q0 51 -19 96t-54 78t-84 51q-50 18 -110 18q-76 0 -149.5 -27t-131.5 -76.5t-95 -118.5t-37 -155q0 -52 18 -94q19 -43 53 -74q34 -30 82 -46zM683 903q41 -14 90 -14q63 0 124.5 21.5t110.5 62
t81 98.5t32 131q0 45 -18 82t-50 62q-31 26 -74 38q-42 13 -90 13q-63 0 -123 -19q-61 -20 -109 -58q-49 -38 -79 -94q-30 -57 -30 -131q0 -48 17 -86.5t47 -65t71 -40.5zM710.5 10.5q-76.5 -16.5 -151.5 -16.5q-85 0 -163 25q-81 25 -141.5 72.5t-96.5 114.5t-36 149
q0 87 33 160q32 73 86 133t122 105t139 74l18 7l-17 10q-20 14 -44 36q-23 21 -44 52t-33 69q-13 39 -13 88q0 106 47 190q48 84 125 142q78 59 180 90q101 31 208 31q76 0 145 -22q69 -21 121 -61q51 -41 81 -99q30 -57 30 -130q0 -70 -21 -127t-60 -104t-92 -84t-119 -70
l-17 -8l16 -10q30 -17 62 -47q31 -29 57 -68.5t42 -89.5t16 -108q0 -79 -26 -149q-26 -69 -72 -127q-47 -58 -106 -103q-60 -45 -129.5 -76.5t-146 -48z" />
    <glyph glyph-name="nine" unicode="9" horiz-adv-x="1210" 
d="M641 797q44 -17 97 -17q104 0 198 36t173 104l3 2v5q3 44 3 90q0 67 -15 132t-49 117q-33 51 -84 83q-52 32 -122 32q-73 0 -135.5 -27t-108.5 -75.5t-72 -115.5t-26 -146q0 -51 17 -95t47.5 -75.5t73.5 -49.5zM166 101l88 181q17 -24 42 -45q31 -27 68 -47
q36 -20 74 -32q39 -12 73 -12q87 0 176 42q90 42 168.5 121t139.5 194q62 115 94 260l6 28l-22 -17q-89 -74 -188.5 -115t-203.5 -41q-90 0 -157 33q-67 34 -112 87q-46 53 -69 120q-24 67 -24 134q0 88 24 163.5t66 136.5q41 60 95 107t118 78.5t133 48t136 16.5
q99 0 174 -38q78 -38 130 -105t79 -157q27 -91 27 -196q0 -124 -24 -251q-23 -126 -70 -245q-46 -117 -116 -221t-158 -180q-90 -76 -202 -121q-111 -45 -244 -45q-44 0 -93 10q-50 11 -95 27q-45 17 -82 39q-31 20 -51 42z" />
    <glyph glyph-name="colon" unicode=":" horiz-adv-x="657" 
d="M167 95q0 30 13 56q14 27 36 48t51 33t61 12q23 0 43.5 -9t35.5 -24.5t23 -35.5q9 -20 9 -43q0 -29 -13 -56t-35 -47.5t-51.5 -32.5t-60.5 -12q-24 0 -44 8.5t-35.5 24t-24 36t-8.5 42.5zM343 803q0 30 13 57t35.5 47t52.5 32t61 12q23 0 43.5 -9t35 -24.5t22.5 -35.5
q9 -20 9 -42q0 -30 -13 -57q-12 -27 -34.5 -47.5t-51.5 -32.5t-60 -12q-24 0 -44.5 9t-36 25t-23.5 36q-9 20 -9 42z" />
    <glyph glyph-name="semicolon" unicode=";" horiz-adv-x="667" 
d="M180 153q22 46 64 71q43 26 86 26q24 0 45.5 -9t37 -25.5t25 -39.5t9.5 -51q0 -56 -26 -111q-27 -57 -67 -108q-41 -52 -91 -98q-48 -43 -91 -77l-76 33q24 20 51 46q33 34 64.5 73.5t56.5 82.5t36 84l3 12h-149zM343 803q0 30 13 57t35.5 47t52.5 32t61 12q23 0 43.5 -9
t35 -24.5t22.5 -35.5q9 -20 9 -42q0 -30 -13 -57q-12 -27 -34.5 -47.5t-51.5 -32.5t-60 -12q-24 0 -44.5 9t-36 25t-23.5 36q-9 20 -9 42z" />
    <glyph glyph-name="less" unicode="&#x3c;" horiz-adv-x="1250" 
d="M1137 268l-916 408l40 163l1120 407l-41 -163l-936 -335l774 -312z" />
    <glyph glyph-name="equal" unicode="=" horiz-adv-x="1250" 
d="M325 1008h997l-35 -136h-996zM234 644h996l-33 -136h-996z" />
    <glyph glyph-name="greater" unicode="&#x3e;" horiz-adv-x="1250" 
d="M384 1248l917 -407l-40 -163l-1121 -408l41 164l937 333l-775 314z" />
    <glyph glyph-name="question" unicode="?" horiz-adv-x="1091" 
d="M305 95q0 30 13 56q13 27 35.5 48t51 33t60.5 12q24 0 44 -9t35.5 -24.5t24 -35.5t8.5 -43q0 -29 -13 -56t-35 -47.5t-52 -32.5t-60 -12q-24 0 -44 8.5t-35.5 24t-24 36t-8.5 42.5zM454 1480q30 22 68 42q41 21 86 36t91.5 23.5t91.5 8.5q78 0 141 -19q62 -19 106 -51
q43 -32 65.5 -76t22.5 -96q0 -48 -21 -97q-22 -50 -57 -100q-36 -50 -81 -97q-46 -48 -93 -92q-53 -49 -91 -92q-37 -44 -66 -98.5t-53 -128.5q-23 -72 -50 -176h-175q27 104 53 184q27 85 59 151q31 65 67.5 115t81.5 94l60 52q37 32 72 69q36 38 61 78q26 42 26 85
q0 63 -50 99q-48 34 -143 34q-58 0 -135 -29q-68 -26 -137 -79v160z" />
    <glyph glyph-name="at" unicode="@" horiz-adv-x="1782" 
d="M1252 913q-24 12 -72 25q-48 12 -108 12q-29 0 -59 -5q-31 -4 -63.5 -18t-65 -38t-65.5 -62q-33 -40 -61 -98q-26 -58 -42 -120q-8 -34 -12 -65q-5 -31 -5 -57q0 -81 32 -122q33 -42 81 -42q26 0 62 22q35 21 74 56t79.5 78.5t77 90t66 92t47.5 82.5v1l42 164zM1216 -120
q-42 -24 -90 -44q-53 -22 -110 -37.5t-114 -24t-110 -8.5q-130 0 -244.5 43t-200 124t-134.5 198t-49 267q0 111 32 239q53 212 158.5 366t243.5 253t299 146q161 48 325 48q141 0 255 -40q113 -41 192.5 -114t122 -175.5t42.5 -226.5q0 -93 -25 -197q-31 -127 -88.5 -221.5
t-126.5 -156t-144 -92t-143 -30.5q-35 0 -61.5 15t-44.5 42q-19 28 -28 66q-9 39 -9 85q0 23 3 49t8 53l8 46l-26 -38q-33 -48 -81.5 -103.5t-104.5 -102.5q-55 -48 -110 -79q-55 -30 -99 -30q-41 0 -79.5 15.5t-67.5 45t-47 74.5t-18 106q0 53 15 118q24 94 63.5 172.5
t92.5 139.5q46 53 93 90q46 37 97 61.5t107 36.5q56 11 120 11q31 0 70 -4.5t78.5 -12.5t77.5 -20q32 -10 59 -21l-89 -356q-17 -67 -24.5 -119.5t-7.5 -91.5q0 -63 18 -94q20 -33 55 -33q28 0 71 22q41 22 84 67q42 45 80 113.5t62 163.5q12 46 17.5 90t5.5 88
q0 100 -32 185q-31 87 -96.5 149.5t-162.5 97.5q-97 36 -227 36q-133 0 -266 -47.5t-247 -135t-200.5 -213t-126.5 -281.5q-15 -57 -21.5 -110t-6.5 -104q0 -125 39 -226q39 -102 110.5 -173.5t170 -110t215.5 -38.5q75 0 150 21q71 20 150 64z" />
    <glyph glyph-name="A" unicode="A" horiz-adv-x="1438" 
d="M971 1344l-469 -793h553zM1115 10l-45 400h-652l-236 -400h-203l35 50l51 78l63 98l80 128l691 1143h209l137 -1139q9 -72 17 -127l15 -99q6 -44 13 -78q5 -28 11 -54h-186z" />
    <glyph glyph-name="B" unicode="B" horiz-adv-x="1307" 
d="M336 142l12 -1q28 -2 96 -3.5t155 -1.5q86 0 166 16q81 16 143 55q63 40 101 104q39 65 39 162q0 61 -23.5 111t-63.5 84q-41 33 -98 51t-125 18h-259zM235 467l140 573l36 151q18 73 31 136.5t22 114.5q8 44 10 75q33 2 73 4q47 2 101.5 3.5t116 2t126.5 0.5
q102 0 180 -24q81 -24 135 -66t81.5 -99.5t27.5 -123.5q0 -78 -23.5 -140.5t-68 -112t-107.5 -84.5t-139 -57l-34 -9l34 -10q43 -12 87 -36t81 -63t60 -95t23 -131q0 -120 -45 -210q-45 -91 -131 -152q-83 -62 -204 -93q-120 -32 -273 -32q-79 0 -155 2q-79 1 -144 3
q-66 1 -115 3q-34 1 -55 2q12 29 24 68q16 50 32 113l35 136zM632 1361l-120 -483h203q91 0 165 18q76 19 128.5 55t82.5 90q29 54 29 124q0 103 -73 153q-71 48 -215 48q-62 0 -111 -1.5t-82 -3.5h-7z" />
    <glyph glyph-name="C" unicode="C" horiz-adv-x="1381" 
d="M1271 306l-6 -155q-54 -46 -114 -79q-64 -34 -132.5 -56t-140.5 -33q-71 -10 -143 -10q-126 0 -225 47q-101 48 -170 131q-70 75 -107 177q-37 103 -37 225q0 152 37.5 285t103.5 243q65 108 153 195q87 86 186.5 145.5t206.5 90t213 30.5q56 0 116 -9q60 -11 122 -32
q60 -22 114 -55q50 -30 87 -71l-98 -167q-28 35 -65 62q-42 32 -92 53q-49 22 -101.5 32.5t-104.5 10.5q-87 0 -172 -28t-161 -79.5t-140 -125t-111.5 -163.5t-74.5 -195.5t-27 -220.5q0 -93 29 -170t81 -132q53 -55 124 -85.5t157 -30.5q71 0 142 13.5t136 39t123 58.5
q49 28 91 59z" />
    <glyph glyph-name="D" unicode="D" horiz-adv-x="1466" 
d="M338 153l12 -1q36 -3 98.5 -7t137.5 -4q138 0 249 31q112 32 196.5 96t142.5 162q56 98 90 233q32 131 32 240q0 240 -112 359q-111 119 -330 119q-27 0 -56 -0.5t-57.5 -1.5l-55.5 -2q-26 0 -47 -1h-7zM235 467l140 573l36 151q18 73 31.5 136.5t21.5 114.5q8 44 11 75
q32 2 81 4q55 2 118.5 3.5t128.5 2t117 0.5q112 0 215 -33q102 -33 181 -103t126 -180.5t47 -264.5q0 -57 -8 -121t-26 -136q-46 -187 -129 -320t-197 -217t-259 -123q-145 -40 -315 -40q-25 0 -58 1q-32 0 -69 1l-77 2l-77 2q-81 2 -168 5q12 29 23 68l32 112l35 135z" />
    <glyph glyph-name="E" unicode="E" horiz-adv-x="1168" 
d="M510 868h588l-35 -147h-589l-136 -559h285q153 0 258 2q94 2 156 11l-39 -165h-892q26 62 54 167l69 273l152 613l64 271q25 109 29 173h862l-37 -152h-671z" />
    <glyph glyph-name="F" unicode="F" horiz-adv-x="1157" 
d="M506 857h599l-34 -145h-599l-62 -258l-36 -147l-30 -126q-13 -58 -21 -104q-7 -39 -9 -67h-208q26 62 54 167l69 273l151 608l35 145l29 129t21 105q6 40 9 70h884l-38 -152h-692z" />
    <glyph glyph-name="G" unicode="G" horiz-adv-x="1450" 
d="M1444 743l-149 -605q-41 -32 -103 -61q-65 -30 -140 -53t-157 -37q-81 -14 -155 -13q-118 0 -217 36q-100 37 -172.5 105t-113.5 168t-41 229q0 58 8 121.5t26 134.5q46 187 134 331q88 145 202 243q115 99 251.5 149.5t284.5 50.5q66 0 132 -10q65 -11 128.5 -34
t120.5 -58q53 -33 100 -76l-104 -168q-71 83 -170 125q-104 45 -218 45q-121 0 -228 -44t-194.5 -124.5t-150.5 -192.5q-63 -111 -98 -250q-33 -132 -33 -242q0 -90 27 -160q26 -71 75.5 -119t119.5 -73t157 -25q47 0 99 5t101.5 16.5t93.5 25.5t75 33l3 2l89 370h-363
l38 155h542z" />
    <glyph glyph-name="H" unicode="H" horiz-adv-x="1502" 
d="M1262 10h-192l171 702h-768l-173 -702h-194q26 62 54 167l69 273l152 613l64 271q26 109 30 173h192l-160 -650h770l160 650h194q-25 -63 -53 -168q-32 -117 -70 -272l-152 -613l-65 -272q-25 -109 -29 -172z" />
    <glyph glyph-name="I" unicode="I" horiz-adv-x="972" 
d="M453 1497h680l-33 -131h-258l-297 -1215h250l-31 -131h-679l32 131h253l297 1215h-245z" />
    <glyph glyph-name="J" unicode="J" horiz-adv-x="1015" 
d="M900 1497h197l-237 -950q-39 -161 -95 -270t-126 -177q-69 -67 -154 -97q-85 -29 -182 -29q-38 0 -83.5 11t-86.5 31.5t-76 46.5q-31 25 -51 53l87 171q17 -23 39 -45q29 -29 64 -51q34 -22 71 -36q38 -14 75 -14q118 0 202 85q83 84 127 266l124 514l35 147l32 136
q14 65 24 120q9 49 14 88z" />
    <glyph glyph-name="K" unicode="K" horiz-adv-x="1296" 
d="M666 1507l-175 -719l772 719h224l-810 -725l510 -772h-230l-470 760l-187 -760h-194q26 62 54 167l69 273l152 613l64 271q25 109 30 173h191z" />
    <glyph glyph-name="L" unicode="L" horiz-adv-x="1083" 
d="M338 162h239q149 0 270 2q108 2 173 11l-40 -165h-874q26 62 54 167l69 273l151 613l63 271q24 109 29 173h187z" />
    <glyph glyph-name="M" unicode="M" horiz-adv-x="1852" 
d="M558 1507h209l137 -1325l780 1325h226l-141 -670l-37 -178q-19 -89 -35 -173l-32 -161q-15 -76 -26 -140l-18 -111q-7 -39 -10 -64h-172l287 1295l-764 -1295h-189l-132 1284l-350 -1284h-174q14 39 36 111l62 200l75 246l77 265z" />
    <glyph glyph-name="N" unicode="N" horiz-adv-x="1528" 
d="M1117 10l-538 1244l-305 -1244h-179q26 62 54 167q32 118 70 273l151 613l65 271q26 109 30 173h182l537 -1250l306 1250h178q-24 -63 -53 -168q-32 -116 -70 -272l-260 -1057h-168z" />
    <glyph glyph-name="O" unicode="O" horiz-adv-x="1493" 
d="M1502.5 1224q39.5 -103 39.5 -234q0 -143 -34 -273.5t-95 -243.5q-60 -112 -142 -206q-81 -92 -175.5 -157t-197.5 -101t-208 -36q-101 0 -191 37q-90 38 -157 108q-67 71 -106.5 173.5t-39.5 235.5q0 143 34 274t95 243q60 112 142 205q81 92 175.5 157t198.5 101
q105 35 211 35q100 0 188 -37q89 -37 156 -107q67 -71 106.5 -174zM598 166.5q66 -30.5 147 -30.5q94 0 176 36t148.5 95.5t118.5 140.5t87 171q36 91 54 185q19 96 19 185q0 98 -24 178q-25 80 -70.5 136.5t-111 87t-144.5 30.5q-95 0 -177 -35q-81 -36 -148.5 -95.5
t-120.5 -140.5q-52 -80 -88 -170q-37 -91 -56 -185q-19 -96 -19 -185q0 -98 25 -178q25 -81 71.5 -138t112.5 -87.5z" />
    <glyph glyph-name="P" unicode="P" horiz-adv-x="1221" 
d="M479 740l11 -2q48 -6 105 -8q56 -2 115 -2q108 0 192 29t142 81t89 124q30 71 30 155q0 52 -18.5 100t-58.5 85q-39 36 -101 58q-62 21 -149 21q-36 0 -62 -0.5t-47.5 -1t-42 -1.5t-47.5 -2h-7zM445 598l-35 -144l-35 -147l-30 -126q-13 -58 -21 -104q-8 -39 -10 -67
h-208q26 62 54 167l69 273l146 591l36 151q18 73 31 136.5t22 113.5q7 45 10 75q57 2 120 5q58 2 133.5 3.5t159.5 1.5q105 0 191 -26q87 -27 148.5 -75t95 -116.5t33.5 -154.5q0 -139 -48.5 -244.5t-138.5 -177.5q-90 -73 -211 -109q-122 -37 -271 -37q-27 0 -58 0.5
t-62 2.5l-60 3q-29 1 -53 4z" />
    <glyph glyph-name="Q" unicode="Q" horiz-adv-x="1506" 
d="M575 164q61 -28 140 -28t156 30q78 30 148.5 84.5t131.5 132.5t105 171.5t71 202.5q26 109 26 227q0 93 -22 166t-62.5 124.5t-100.5 79.5q-60 27 -138 27q-101 0 -189 -37q-87 -37 -158 -99t-126 -146q-55 -83 -93 -177t-57 -192q-20 -100 -20 -196q0 -92 21.5 -165.5
t63.5 -125.5q42 -51 103 -79zM1510 1230q35 -101 35 -232q0 -109 -20.5 -209t-54 -188.5t-79.5 -165.5q-46 -76 -98 -139q-51 -63 -105 -110t-106 -77l-13 -8l12 -9q84 -61 168 -103q76 -38 172 -53l-22 -25q-22 -25 -47 -49t-51 -42q-23 -17 -40 -17q-20 0 -51 14
q-33 15 -71.5 36.5l-79.5 46.5q-40 26 -78.5 47.5t-69.5 36.5q-32 16 -52 16h-1l-2 -1q-36 -13 -84 -19t-96 -6q-101 0 -188 37q-88 37 -152 106q-65 69 -103 170q-37 101 -37 232q0 57 7.5 119t24.5 130q46 187 137 331q91 145 204 243q114 99 242 149.5t253 50.5
q106 0 194 -36q89 -37 152 -106q64 -69 100 -170z" />
    <glyph glyph-name="R" unicode="R" horiz-adv-x="1332" 
d="M629 1366l-136 -566h208q92 0 173 19q82 20 140.5 61t94.5 105.5t36 155.5q0 105 -84 168q-82 62 -246 62q-54 0 -94.5 -1.5t-83.5 -3.5h-8zM458 660l-48 -206q-20 -77 -35 -146l-30 -127q-13 -58 -21 -104q-8 -39 -10 -67h-208q26 62 54 167l69 273l146 587l36 149
q18 72 31 134.5t22 112.5q7 44 10 74q45 2 101 5q53 2 126.5 3.5t164.5 1.5q103 0 189 -22q87 -22 149 -65q62 -42 97 -105t35 -144q0 -108 -37.5 -194t-101.5 -150q-63 -64 -148 -105q-83 -40 -176 -58l-13 -3l6 -11l48 -99l62 -125l68 -137l68 -130l59 -107q18 -32 31 -52
h-241l-279 650h-224z" />
    <glyph glyph-name="S" unicode="S" horiz-adv-x="1184" 
d="M1291 1434l-84 -183q-75 62 -160 95q-88 35 -178 35q-74 0 -138 -15t-113 -44q-48 -30 -76 -72q-29 -43 -29 -99q0 -34 20 -64q18 -29 55 -62q36 -32 93 -69t136 -84q98 -60 161 -119q62 -59 98 -115t49 -108q14 -51 14 -94q0 -119 -47 -205q-48 -87 -125 -144t-180 -85
t-215 -28q-73 0 -144 18q-71 17 -138 48q-66 30 -124 70q-55 38 -97 80l92 183q43 -52 98 -93q61 -46 125 -77q64 -32 129 -50q65 -17 124 -17q68 0 125.5 21t99 56.5t64.5 82.5q23 46 23 99q0 35 -10 72q-11 37 -44 79q-32 41 -92 89q-60 47 -160 104q-71 43 -128 85
t-97 87q-39 45 -60 94q-22 47 -22 101q0 104 41 185t114 136q74 56 176 85q103 30 224 30q118 0 217 -28q96 -27 183 -80z" />
    <glyph glyph-name="T" unicode="T" horiz-adv-x="1279" 
d="M355 1507h1185l-43 -170q-56 11 -113 14q-61 4 -132 4h-256l-218 -901q-38 -155 -62 -272q-23 -109 -27 -172h-215q26 62 56 167q33 115 70 273l220 905h-255q-71 0 -134 -4q-57 -3 -117 -13z" />
    <glyph glyph-name="U" unicode="U" horiz-adv-x="1465" 
d="M1405 1497h194q-23 -63 -51 -165q-32 -113 -72 -275l-138 -556q-30 -119 -84 -217q-54 -96 -136.5 -165t-193.5 -107q-112 -38 -256 -38q-112 0 -192 33q-81 32 -132.5 89t-76.5 133q-25 77 -25 163q0 87 24 181l121 480q39 155 65 271q25 109 30 173h192l-219 -888
q-14 -53 -21.5 -104.5t-7.5 -100.5q0 -59 14 -111q15 -53 48 -91t87 -60t133 -22q185 0 299 110t171 340z" />
    <glyph glyph-name="V" unicode="V" horiz-adv-x="1385" 
d="M1438 1497h213l-34 -51l-53 -80l-64 -101l-80 -133l-669 -1132h-224l-129 1128l-16 133q-7 56 -12 100l-11 81l-8 55h196l127 -1337z" />
    <glyph glyph-name="W" unicode="W" horiz-adv-x="2143" 
d="M558 1498l5 -1354l708 1354h178l56 -1354l676 1354h219l-33 -52l-47 -80l-56 -101l-71 -133l-603 -1131h-223l-59 1247l-662 -1247h-224l-39 1127q-3 75 -6 132t-6 101.5t-8 80.5l-7 56h202z" />
    <glyph glyph-name="X" unicode="X" horiz-adv-x="1343" 
d="M996 10l-251 647l-551 -647h-226l24 24l41 42l43 46l52 57l65 72l84 95l406 471l-132 340l-53 134q-22 55 -40.5 94.5l-34.5 71.5l-26 50h212l212 -549l476 549h230l-45 -44q-32 -31 -70 -73l-89 -96l-120 -134l-320 -364l175 -451l53 -134l37 -90l30 -65l23 -46h-205z
" />
    <glyph glyph-name="Y" unicode="Y" horiz-adv-x="1337" 
d="M713 10h-205q24 62 53 167q32 121 68 273l45 185l-162 475l-35 99q-17 49 -36.5 99.5t-43.5 102.5q-20 46 -46 96h210l246 -697l561 697h227l-97 -103l-91 -101l-81 -93l-79 -97l-397 -482l-44 -177l-63 -272q-25 -109 -30 -172z" />
    <glyph glyph-name="Z" unicode="Z" horiz-adv-x="1242" 
d="M1450 1507l-30 -121l-1139 -1224h449q152 0 272 5q107 4 172 13l-42 -170h-1127l28 115l1141 1230h-397q-76 0 -138.5 -0.5t-113 -3t-91.5 -6.5q-32 -3 -59 -8l42 170h1033z" />
    <glyph glyph-name="bracketleft" unicode="[" horiz-adv-x="816" 
d="M60 -416l510 2068h445l-33 -136h-270l-443 -1796h270l-34 -136h-445z" />
    <glyph glyph-name="backslash" unicode="\" horiz-adv-x="1065" 
d="M648 1650l188 -1741l-132 -27l-192 1740z" />
    <glyph glyph-name="bracketright" unicode="]" horiz-adv-x="816" 
d="M7 -416l34 136h270l443 1796h-270l33 136h445l-510 -2068h-445z" />
    <glyph glyph-name="asciicircum" unicode="^" horiz-adv-x="879" 
d="M200 1226l430 426h171l257 -426h-135l-221 294l-370 -294h-132z" />
    <glyph glyph-name="underscore" unicode="_" horiz-adv-x="1329" 
d="M-99 -187h1328l-34 -136h-1328z" />
    <glyph glyph-name="grave" unicode="`" horiz-adv-x="593" 
d="M494 1652l279 -426h-136l-339 426h196z" />
    <glyph glyph-name="a" unicode="a" 
d="M865 515l-13 -1q-22 -1 -56 -4q-35 -3 -75 -7.5t-78.5 -8t-63.5 -5.5q-51 -5 -99 -20q-48 -16 -86 -40t-65.5 -55.5t-36.5 -66.5q-5 -18 -5 -37q0 -31 14 -58q13 -26 37 -46t55.5 -30.5t69.5 -10.5q80 0 171 47q91 46 182 149l1 2zM989 0h-171q-4 23 -7 59q-4 44 -4 95
v24l-17 -17q-39 -41 -87.5 -76t-100.5 -59.5t-104 -38.5q-51 -13 -97 -13q-62 0 -116 22.5t-93.5 60t-61.5 86.5t-22 100q0 71 34 135t99 115q64 51 158 87q91 36 208 48q27 3 68.5 6.5t83.5 7.5t78 7q34 3 53 4l7 1l16 67q3 12 4 24q1 11 1 23q0 80 -68 124q-63 42 -167 42
q-41 0 -81 -9q-40 -8 -81.5 -24.5t-86.5 -41.5q-36 -19 -77 -44l5 21l17 57l16 57q7 23 13 39l80 33q41 17 84.5 29.5t92 20.5t105.5 8q76 0 140 -20q63 -20 107 -54t68 -79q24 -44 24 -96q0 -13 -2 -27t-5 -27l-96 -392q-16 -66 -22 -123t-6 -111q0 -41 4 -82q3 -35 7 -69z
" />
    <glyph glyph-name="b" unicode="b" horiz-adv-x="1172" 
d="M321 199l6 -3q20 -13 49 -29q27 -14 57 -27q31 -12 65 -19.5t68 -7.5q69 0 144.5 35t139.5 103q34 36 63 81t51 100q21 53 32.5 114.5t11.5 130.5q0 126 -45 184q-45 60 -120 60q-31 0 -71 -21q-39 -19 -81 -54q-41 -34 -84.5 -80t-84 -97t-76.5 -105t-62 -106l-1 -1z
M458 1664h176q-1 -24 -5 -65q-6 -52 -15.5 -119t-24 -143.5t-32.5 -153.5l-109 -453l27 36q49 63 105 120t115 101q59 43 119 69q60 25 116 25q53 0 101 -18q46 -17 81 -57t57 -104q21 -63 21 -155q0 -90 -20.5 -175t-56.5 -161.5t-85 -143.5q-47 -65 -105 -116
q-84 -90 -178.5 -133.5t-214.5 -43.5q-61 0 -120 12q-61 12 -116 30q-55 17 -102 38l-75 33l269 1092q14 56 26.5 123t22.5 135t17 129q5 55 6 98z" />
    <glyph glyph-name="c" unicode="c" horiz-adv-x="1008" 
d="M930 240l-12 -156q-42 -27 -86 -48q-43 -21 -87 -35t-93 -21q-49 -6 -105 -6q-83 0 -154 29q-74 30 -128.5 85t-86 134.5t-31.5 179.5q0 141 51.5 265.5t143.5 215.5q92 92 209 145q119 53 257 53q42 0 86 -6q44 -8 82.5 -21t72.5 -32q28 -16 51 -34l-76 -176
q-56 45 -116 70q-67 27 -147 27q-95 0 -174 -44q-78 -43 -135 -114q-57 -70 -89 -157t-32 -174q0 -68 19 -122t55 -93q34 -39 83 -60q49 -20 111 -20q94 0 178 33q76 30 153 82z" />
    <glyph glyph-name="d" unicode="d" horiz-adv-x="1228" 
d="M1027 840l-6 4q-33 20 -63 36q-31 17 -62.5 27t-64.5 14.5t-73 4.5q-73 0 -131 -27q-57 -27 -107 -79q-45 -47 -80 -106q-34 -58 -59 -125q-26 -66 -38.5 -132.5t-12.5 -126.5q0 -103 39 -157q40 -55 125 -55q30 0 71 21q41 20 86 55q44 35 90.5 81t88.5 96q41 50 77 103
q50 73 62 101l1 1zM1193 1664h184q-1 -72 -20 -165q-20 -101 -54 -242l-170 -705q-35 -146 -49 -264.5t-14 -200.5q0 -30 1 -54q1 -18 2 -33h-172q0 71 6 147q7 82 26 169l11 52l-29 -44q-43 -66 -103 -128q-60 -64 -126.5 -113t-131.5 -80q-65 -30 -117 -30q-64 0 -119 23
q-54 22 -91.5 64.5t-58.5 102.5q-21 61 -21 138q0 97 23 190q23 94 64 178t96 155t120 125q79 66 165 99t169 33q36 0 73 -7q36 -8 71 -20t67 -28.5t57 -32.5l11 -8l61 268l48 225q20 98 21 186z" />
    <glyph glyph-name="e" unicode="e" horiz-adv-x="1064" 
d="M807 934q-32 10 -69 10q-58 0 -116 -21t-109 -60.5t-92 -95.5q-41 -57 -68 -125l-5 -13l13 -2q58 -6 104 -9q47 -3 89 -3q87 0 154 14t112 38q46 25 71 59q25 36 25 78q0 31 -15 58q-14 25 -39 43q-23 19 -55 29zM984 256l-12 -172q-40 -20 -88 -40q-52 -21 -106 -36
q-56 -15 -117 -24.5t-123 -9.5q-99 0 -172 32q-75 31 -124 88t-73 136t-24 171q0 87 22 171.5t63 160.5t100 139.5t130 110t154.5 72.5t176.5 26q80 0 140 -21q60 -22 98 -56t55 -76q18 -42 18 -84q0 -71 -30 -135q-29 -64 -92 -113t-162 -77q-97 -29 -233 -29
q-108 0 -255 19l-10 1l-1 -10q-3 -28 -3 -56q0 -65 15 -124t48 -102q32 -44 82 -69q51 -26 122 -26q51 0 105.5 10t108.5 30q52 18 106 46q42 21 81 47z" />
    <glyph glyph-name="f" unicode="f" horiz-adv-x="761" 
d="M1126 1617l-79 -148q-11 8 -25 16q-20 12 -43 21q-23 10 -48.5 15t-49.5 5q-83 0 -143 -61q-59 -60 -91 -196l-56 -235h286l-31 -131h-283l-2 -8l-46 -206q-20 -90 -35 -164q-23 -106 -36 -211q-14 -106 -14 -187q0 -64 7 -107h-203q6 83 21 185q15 109 37.5 227
t47.5 236l50 223l3 12h-202l33 131h200l46 189q33 130 77 219q44 88 101 142q56 53 125 76q68 23 151 23q30 0 60 -5.5t58 -15.5q28 -11 51 -24q18 -10 33 -21z" />
    <glyph glyph-name="g" unicode="g" horiz-adv-x="1099" 
d="M1275 1079l-46 -147q-43 -3 -87 -9q-49 -7 -105 -23l-11 -3l5 -11q21 -49 21 -107q0 -92 -42 -171q-41 -79 -109.5 -136.5t-155 -90.5t-177.5 -33q-22 0 -42 1q-20 2 -40 7h-3l-3 -1q-25 -11 -51 -26q-25 -14 -45 -30t-33 -34q-14 -19 -14 -36q0 -20 17 -34
q15 -13 50 -25q34 -12 90 -24q55 -12 140 -26q178 -30 269 -99q88 -67 88 -164q0 -60 -26 -110q-27 -52 -72 -94q-46 -43 -106 -76q-61 -34 -129.5 -56t-140.5 -34t-139 -12q-82 0 -165 19t-151 54.5t-110 85.5q-41 49 -41 111q0 22 6 46q21 82 99 148q79 67 226 117l20 6
l-18 12q-37 24 -51.5 50.5t-14.5 56.5t15 61q16 31 41 59q24 27 55.5 51t61.5 40l15 8l-14 10q-60 41 -94 104q-35 63 -35 139q0 92 40 170t107 135q68 57 155.5 89.5t181.5 32.5q76 0 138 -22.5t108 -62.5l5 -4l6 3q38 19 79 34q43 14 85.5 24.5t84.5 17.5q32 6 62 9z
M643 -37q-60 17 -147 32q-28 4 -52 8.5t-46 10.5h-3l-3 -1q-86 -29 -141 -55q-55 -27 -88 -53q-35 -26 -50 -51q-14 -24 -21 -48q-2 -7 -2 -13v-11q0 -32 21 -64t63 -58q41 -24 102 -39q62 -15 144 -15q66 0 135.5 18.5t126.5 48.5t93 70q38 42 38 87q0 25 -18 50
q-16 24 -55 45q-37 20 -97 38zM864 637q27 52 27 115q0 42 -15 78t-43 62.5t-67 42t-85 15.5q-53 0 -101 -16.5t-86 -45.5t-65.5 -71.5t-39.5 -91.5q-6 -28 -6 -55q0 -43 15.5 -78.5t43.5 -62t66 -41.5t85 -15q54 0 107 20.5t95 56.5t69 87z" />
    <glyph glyph-name="h" unicode="h" horiz-adv-x="1216" 
d="M1073 20h-174q-4 30 -4 72q0 30 2 63t6 69q3 30 12 73l21 91l23 99l22 96q10 46 17 84q7 39 7 64q0 97 -32 143q-33 47 -113 47q-33 0 -74 -20q-40 -20 -83 -55q-44 -35 -87 -81t-83.5 -98.5t-75.5 -108.5t-59 -112v-1l-106 -425h-175l287 1159q14 61 27 128t23.5 134
t15.5 127q5 54 5 96h176q-1 -33 -6 -82q-6 -58 -16.5 -126t-24.5 -139.5t-29 -133.5l-110 -453l29 40q44 61 97.5 117t112.5 99t123 69q62 26 126 26q126 0 185 -74t59 -207q0 -28 -8 -72t-19.5 -96t-26.5 -106l-29 -105l-24 -91q-12 -42 -15 -67q-5 -40 -8 -76
q-4 -36 -4 -69q0 -53 10 -98z" />
    <glyph glyph-name="i" unicode="i" horiz-adv-x="567" 
d="M355 1050h181q-1 -32 -9 -78q-9 -55 -23 -121t-31 -138l-36 -143l-48 -189q-15 -57 -21 -119q-6 -61 -6 -118q0 -40 4 -78q2 -30 6 -56h-192q-5 33 -5 82q0 67 11.5 151t32.5 165l42 158l33 128q17 67 30 133t22 126q8 53 9 97zM390.5 1342.5q-7.5 19.5 -7.5 42.5
q0 29 11.5 56t32.5 48.5t48 34.5t59 13q23 0 43 -8.5t34 -23.5t22 -34.5t8 -42.5q0 -30 -12 -57t-34 -48t-50 -33q-28 -13 -60 -13q-23 0 -42 8.5t-32 23t-20.5 34z" />
    <glyph glyph-name="j" unicode="j" horiz-adv-x="598" 
d="M406 1342.5q-7 19.5 -7 42.5q0 29 11 56q12 27 33 48.5t48 34.5t59 13q23 0 43 -8.5t34.5 -23.5t22.5 -34.5t8 -42.5q0 -30 -13 -57t-34 -48t-50 -33q-28 -13 -60 -13q-23 0 -42 8.5t-32 23.5q-14 14 -21 33.5zM371 1040h180q-1 -33 -8 -92q-8 -69 -23 -157l-32 -189
l-37 -200l-38 -187t-34 -153q-35 -150 -89 -256q-55 -105 -121 -171q-67 -66 -143.5 -97t-158.5 -31q-22 0 -52 5q-30 6 -61 15t-60 22q-24 11 -42 23l71 158q13 -10 28 -18q23 -13 50 -23t54 -16t50 -6q44 0 89 26q44 25 84 76q41 51 75.5 125.5t58.5 175.5l37.5 171
t37.5 188.5t33 190t26.5 177.5t17.5 148q6 58 7 95z" />
    <glyph glyph-name="k" unicode="k" horiz-adv-x="1082" 
d="M292 20h-175l124 498l50 202l48 192l40 160l25 109q15 61 28 128t23 133.5t15 126.5q5 53 5 95h176q-1 -32 -6 -79q-5 -55 -15.5 -121t-24.5 -138.5t-31 -142.5l-142 -587l20 12l181 120t150 117t106 113q39 52 50 102h220q-4 -35 -35 -79q-37 -52 -105 -111
q-67 -59 -162 -126q-93 -67 -208 -134l-13 -8l12 -9q52 -39 101 -107q49 -70 95 -151q47 -81 92 -168q41 -77 84 -147h-220l-77 174q-41 92 -86 170t-94 134q-50 58 -105 76l-10 3z" />
    <glyph glyph-name="l" unicode="l" horiz-adv-x="589" 
d="M493 1664h181q-1 -32 -5 -79q-6 -55 -17 -121t-25.5 -138.5t-31.5 -142.5l-153 -623q-27 -109 -41 -222.5t-14 -208.5q0 -34 2 -65q1 -23 3 -44h-191q-1 24 -3 46q-1 27 -1 54q0 93 14 192q15 98 44 214l165 655q15 61 28 128t23 133.5t16 125.5q5 54 6 96z" />
    <glyph glyph-name="m" unicode="m" horiz-adv-x="1740" 
d="M1566 20h-174l-4 29q-2 20 -2 43q0 30 2 63t5 69q3 30 14 76l25 98l30 109l29 107q13 51 22 92q8 43 8 67q0 78 -28 112q-29 36 -87 36q-32 0 -72 -28q-38 -26 -77 -70q-39 -43 -79 -98t-75 -114q-30 -52 -62 -115q-28 -56 -43 -102l-90 -374h-173l124 503q9 30 19 76
q9 38 14.5 70.5t9.5 59.5t4 44q0 77 -26 112q-27 36 -77 36q-28 0 -63 -25q-33 -23 -70.5 -62t-76.5 -92q-39 -52 -77 -110q-32 -50 -72 -119q-32 -62 -54 -118l-1 -1l-92 -374h-175l153 619q8 34 14.5 78.5t11 93.5t7.5 101t3 100v29v19h171v-9v-22q0 -32 -2 -71l-6 -81
q-4 -40 -10.5 -78t-12.5 -66l-18 -68l36 61q45 79 96 144q52 66 106 113q55 46 110 72t110 26q45 0 79 -16t56 -44q23 -29 35 -70q12 -42 12 -93q0 -7 -3 -24t-6 -37q-2 -19 -6 -37q-3 -18 -4 -28l-6 -52l24 46q38 74 88 138.5t106 112.5t116 76q59 28 117 28q57 0 97 -16
t65.5 -45t37.5 -70t12 -92q0 -28 -9 -76q-10 -48 -23.5 -106t-31.5 -121l-33 -119l-28 -102q-13 -46 -16 -71q-5 -40 -8 -76q-4 -36 -4 -69q0 -30 2 -58q2 -20 6 -40z" />
    <glyph glyph-name="n" unicode="n" horiz-adv-x="1226" 
d="M1078 20h-173q-3 13 -4 29q-3 20 -3 43q0 30 2 63t7 69q3 30 12 73l20 91l24 99q13 51 23.5 96.5t17.5 83.5q6 39 7 64q0 98 -40 144t-115 46q-35 0 -76 -24q-40 -24 -84 -63t-88 -90.5t-83 -108.5l-77 -115q-33 -60 -55 -114v-1l-96 -385h-175l153 619q8 33 15 80
q6 46 10.5 97.5t7 106.5t2.5 106v31h172q0 -6 1 -12v-24q0 -34 -3 -74t-7.5 -82t-10.5 -79q-6 -38 -12 -64l-15 -56l32 47q54 80 111 146q58 67 120 116q62 48 128 76q65 27 132 27q127 0 185 -74q59 -74 59 -207q0 -28 -7 -72q-8 -44 -20 -96l-26 -107l-28 -104l-24 -92
q-11 -41 -14 -66q-6 -40 -9 -76q-4 -36 -4 -69q0 -30 2 -58q2 -20 6 -40z" />
    <glyph glyph-name="o" unicode="o" horiz-adv-x="1160" 
d="M840 914q-44 20 -99 20q-92 0 -168 -50q-75 -50 -128 -127q-53 -78 -83 -172q-29 -94 -29 -185q0 -65 17.5 -116.5t49.5 -88.5q32 -36 76 -56q44 -19 100 -19q62 0 116 22t99 62q46 39 81 91q35 51 60 111q25 58 38.5 120.5t13.5 124.5q0 64 -18 117q-17 53 -50 90
q-32 36 -76 56zM180.5 198.5q-29.5 71.5 -29.5 163.5q0 88 20.5 176t59.5 168t97 148q56 68 126 119q69 51 151 79.5t177 28.5q84 0 154 -27q72 -27 122.5 -77t79.5 -123q28 -72 28 -164q0 -90 -20 -177t-58.5 -167t-95.5 -149q-55 -67 -124 -117q-68 -50 -149.5 -78
t-172.5 -28q-84 0 -155 27q-74 27 -127.5 76.5t-83 121z" />
    <glyph glyph-name="p" unicode="p" horiz-adv-x="1236" 
d="M208 -509h-187q1 28 4 60q5 39 12.5 80.5t16.5 84.5l20 87l175 699q17 70 23 129q7 69 11.5 138.5t7 138.5t2.5 130v22h171q2 -11 2 -22v-33q0 -63 -7 -139q-7 -75 -20 -139l-10 -50l28 43q44 64 104 129q61 65 129 117q67 51 139 83q71 32 135 32q71 0 121.5 -26.5
t83.5 -72.5q34 -47 50 -113q17 -66 17 -144q0 -98 -22 -189q-20 -36 -47.5 -96.5t-36.5 -76.5q-41 -82 -96 -151q-56 -69 -120 -122q-75 -60 -157.5 -88.5t-165.5 -28.5q-41 0 -75 8t-64 23.5t-59 36.5l-60 47l-12 9l-71 -291q-21 -85 -32 -168q-9 -78 -10 -147zM363 260
l5 -4l76 -64q34 -27 63.5 -41.5t58.5 -21t66 -6.5q62 0 115 26q52 26 97 69q44 42 78 97q34 54 58 114q4 9 12 29.5l12.5 32t13.5 29t19 32.5q12 62 12 120q0 111 -42 179q-43 70 -131 70q-48 0 -109 -39q-59 -37 -124 -100q-65 -62 -131 -145q-20 -25 -36.5 -53t-36.5 -66
t-31 -56v-2z" />
    <glyph glyph-name="q" unicode="q" horiz-adv-x="1141" 
d="M986 880l-8 4q-21 10 -48 18q-26 7 -53.5 13t-54.5 8.5t-51 2.5q-72 0 -134 -29q-61 -29 -112 -76q-46 -43 -82 -100q-35 -55 -61 -119q-26 -63 -39 -128.5t-13 -128.5q0 -111 36 -163q38 -54 103 -54q28 0 66 25q37 23 80 61t88 86.5t86 100t74.5 102.5t54.5 93v1z
M857 -509h-180q0 23 2 52q2 36 8 76.5t14.5 86.5t21.5 90l153 582l-37 -65q-19 -33 -49 -71t-68 -76t-81 -73.5t-87 -61.5q-43 -27 -85 -43q-41 -15 -76 -14q-46 0 -90 19t-79.5 58.5t-58 100.5t-22.5 146q0 87 24 177q23 91 65 176t100.5 160t127.5 132q83 70 178.5 104
t209.5 34q45 0 91 -7q47 -8 92 -19t88 -26l74 -25l-293 -1208q-20 -87 -32 -165q-10 -72 -11 -140z" />
    <glyph glyph-name="r" unicode="r" horiz-adv-x="924" 
d="M297 20h-175l153 619q8 33 15 80q6 46 10.5 97.5t7 106.5t2.5 106v31h171q0 -26 -2 -61q-2 -41 -5.5 -89t-10 -95.5t-14.5 -86.5l-10 -49l28 41q52 79 103 142q53 66 106 115t106 77q52 27 102 27q46 0 77 -15t50 -41q20 -26 29 -62t9 -79q0 -32 -6 -68q-5 -33 -13 -66
l-154 -28q7 37 7 72q0 52 -19 88q-22 39 -65 39q-23 0 -55 -22q-29 -20 -65 -56q-34 -35 -71 -81.5t-73 -97.5l-69 -105q-32 -44 -63 -104l-1 -1z" />
    <glyph glyph-name="s" unicode="s" horiz-adv-x="961" 
d="M1004 1003l-74 -163q-21 13 -47 27q-33 17 -74 32t-86 25t-93 10q-98 0 -154 -32q-60 -34 -60 -97q0 -26 14 -47q12 -19 39 -39q26 -18 66 -41l98 -54q55 -32 104 -65q51 -34 87 -70q37 -36 57 -78q21 -41 21 -90q0 -78 -32 -142t-88 -110t-128 -71q-74 -25 -157 -25
q-72 0 -133 16q-63 16 -116 42q-55 26 -99 60q-41 32 -74 68l84 157q30 -37 67 -70q44 -37 95 -65q49 -28 104 -45q55 -16 117 -16q35 0 67 31q33 11 58 31q25 19 39 47q16 28 16 62q0 29 -15 54q-13 26 -42 51q-29 24 -75 51t-111 61q-110 56 -174 121q-63 62 -63 140
q0 64 28 119q28 56 82 99q53 43 128.5 68.5t170.5 25.5q66 0 122 -7q57 -8 102.5 -19.5t78.5 -26.5q29 -12 50 -25z" />
    <glyph glyph-name="t" unicode="t" horiz-adv-x="823" 
d="M188 896l33 133l209 -1l81 344h162l-38 -164l-39 -165l-3 -13h339l-33 -133h-339l-1 -7l-74 -315q-31 -136 -48 -233q-4 -23 -7 -43q-3 -22 -3 -45q0 -25 6 -48q6 -24 18 -43t34 -30q21 -11 53 -11q51 0 106 25l109 50l-11 -146q-82 -45 -145 -61q-69 -17 -120 -17
q-49 0 -92 14q-43 13 -73 42t-47 75q-18 47 -18 115q0 21 2 45q1 23 6 48v0q5 33 17 88t30 129l41 163l48 192l3 12h-206z" />
    <glyph glyph-name="u" unicode="u" horiz-adv-x="1205" 
d="M1061 0h-169q0 73 3 147q3 78 18 164l7 42l-25 -34q-52 -74 -112 -137t-122.5 -109t-123.5 -73q-60 -27 -112 -27q-118 0 -181.5 63.5t-63.5 191.5q0 40 7 83q7 44 20 96l74 307l21 89q10 41 18 80t13 79q5 36 10 78h184q-5 -55 -19 -122q-16 -75 -42 -181l-70 -278
q-29 -117 -29 -172q0 -84 34 -123q34 -41 89 -41q27 0 66 21q38 20 81 55q43 34 88.5 79.5t87.5 96.5t79 105q44 63 63 105l1 1v1l35 145q17 65 29 119q13 55 20 103q6 43 10 86h186q-4 -38 -14 -90q-13 -61 -31 -136l-41 -160q-23 -86 -45 -180q-21 -91 -34 -192
q-14 -100 -14 -186q0 -31 1 -57q1 -20 3 -39z" />
    <glyph glyph-name="v" unicode="v" horiz-adv-x="957" 
d="M191 1050h191q12 -42 20 -94q10 -56 16.5 -121t10 -135t3.5 -142q0 -100 -6.5 -195t-20.5 -174l-6 -34l23 25q49 55 106 128q54 71 105 147.5t95.5 157.5t78.5 159q36 82 56 152q19 68 21 126h192q-2 -58 -26 -127q-26 -77 -71 -164q-45 -88 -107 -183l-130 -192
q-68 -97 -144 -193l-149 -181h-196q15 189 15 365q0 198 -20 373q-19 166 -57 302z" />
    <glyph glyph-name="w" unicode="w" horiz-adv-x="1608" 
d="M893 1050h154q20 -148 32 -327q13 -183 13 -407v-62q0 -30 -1 -62l-1 -31l19 25q46 62 93.5 136.5t92 153t83 158.5t67.5 154q29 76 46 142q18 68 18 119v1h191q-2 -54 -24 -123q-24 -76 -64 -164.5t-94 -185.5l-116 -194l-125 -194l-127 -179h-193q-1 87 -1 178
q0 96 -1 196t-5 206.5t-13 221.5l-3 42l-16 -39q-28 -72 -77 -163q-50 -92 -114 -195l-141 -218l-154 -229h-195q15 126 23 247q8 127 8 243q0 174 -17 317q-16 134 -44 233h191q16 -70 25 -160q10 -95 10 -207q0 -116 -10.5 -240t-34.5 -249l-9 -46l27 38q156 225 279 445
q119 212 208 419z" />
    <glyph glyph-name="x" unicode="x" horiz-adv-x="1029" 
d="M943 10h-224q-20 24 -41 67q-23 46 -47 106l-52 132l-56 148l-4 11l-10 -7q-61 -40 -113 -97.5t-91 -120.5q-39 -64 -60 -127q-20 -59 -22 -112h-191q10 78 49 154q41 83 102 158q60 73 137 139q75 64 151 110l8 5l-4 8q-30 76 -63.5 149.5t-68.5 136.5q-36 65 -74 115
q-30 38 -60 65h235q17 -21 37 -59q22 -42 47 -99l51 -123l56 -139l4 -11l10 7q56 38 104.5 88.5t84.5 106.5t58 117q21 56 24 112h203q-3 -46 -22 -90q-20 -51 -53 -101t-77 -97t-93 -90q-48 -43 -98 -82l-94 -71l-6 -4l3 -8l68 -165q35 -81 70 -150q36 -70 71 -121
q25 -37 51 -61z" />
    <glyph glyph-name="y" unicode="y" horiz-adv-x="994" 
d="M144 1040h198q24 -35 47 -86q25 -55 48.5 -124t42.5 -148t34 -162.5t23 -167t8 -162.5v-36l18 31q68 113 126.5 228.5t102.5 222.5q44 108 69 198q25 93 25 159q0 26 -4 47h192q2 -12 2 -28q0 -61 -33 -165q-33 -105 -96 -240q-61 -129 -149 -291q-85 -157 -188 -321
q-93 -146 -174 -241t-154 -149q-73 -55 -139.5 -76.5t-131.5 -21.5q-71 0 -126 25q-53 23 -97 60l93 149q11 -10 25 -20q20 -15 43 -26.5t50 -19.5q28 -8 55 -8q33 0 73 14.5t86 50.5q44 35 94.5 92t105.5 144l1 2v3q-2 169 -26 332.5t-62.5 306.5t-88.5 258
q-45 102 -93 170z" />
    <glyph glyph-name="z" unicode="z" horiz-adv-x="985" 
d="M282 1060h803l-20 -84l-733 -775l39 15q31 11 69 11t82 -12l92 -27q46 -14 92 -25q47 -12 91 -12q47 0 90 8q30 6 55 16l-37 -175q-29 -12 -67 -20q-41 -7 -85 -6q-53 0 -108 16q-57 16 -113 36q-57 21 -114 37q-58 17 -113 17t-117 -26q-58 -24 -112 -75l-49 68l811 877
h-421q-24 0 -50 -2t-51 -5t-47 -8q-13 -3 -24 -6z" />
    <glyph glyph-name="braceleft" unicode="{" horiz-adv-x="1038" 
d="M672 -414q-35 9 -76 23q-45 15 -87 33q-42 17 -73 35q-30 17 -41 32q-9 15 -9 59q0 42 8 105q9 62 21.5 133.5t26.5 142.5l26 134q13 62 21 108q9 47 9 67q0 13 -16 30q-13 14 -32 31t-41 34l-40 34q-19 17 -31 31q-10 11 -10 19q0 4 13 15q16 13 40 29l55 32l58 34
l51 31q24 14 34 25q9 8 21 43l27 83l34 113l38 128l41.5 131.5t42.5 119.5t41 93q19 38 36 52q18 16 59 34q42 19 92 36t103 32q46 13 85 23l6 -126q-27 -8 -61 -20l-75 -28q-37 -14 -67 -29t-42 -27q-11 -11 -24 -45q-12 -33 -27.5 -80t-31.5 -105l-33 -118l-31 -117
q-15 -57 -28.5 -103t-23.5 -77q-10 -30 -14 -36q-6 -8 -22 -18q-17 -11 -40 -24l-47 -28l-45 -26q-21 -13 -35 -24l-3.5 -2.5t-4.5 -3.5t-3.5 -3t-3 -4t-1.5 -4t-1 -5q0 -14 25 -34l48 -38l46 -40q18 -17 18 -29q0 -16 -9 -64q-10 -48 -25 -113l-31 -140l-31 -142
q-15 -68 -24 -123q-10 -55 -10 -82q0 -17 27 -37q24 -17 56 -35q33 -17 67 -31q25 -11 43 -17z" />
    <glyph glyph-name="bar" unicode="|" horiz-adv-x="710" 
d="M784 1663l-514 -2069h-138l514 2069h138z" />
    <glyph glyph-name="braceright" unicode="}" horiz-adv-x="1038" 
d="M577 1691q37 -9 78 -23q46 -14 87 -32q42 -17 73 -35q30 -17 41 -33q9 -15 9 -57q0 -44 -8 -107q-9 -62 -21.5 -133t-27.5 -143l-27 -136l-20 -109q-9 -47 -9 -66q0 -16 30 -43q27 -25 59 -51l59 -50q23 -21 23 -30q0 -4 -13 -16q-16 -14 -41 -30q-24 -16 -54 -34
l-59 -33q-29 -16 -52 -31q-23 -14 -34 -25q-8 -8 -19 -42q-12 -33 -27 -83l-34 -113l-39 -129l-41 -130.5t-42 -118.5q-21 -55 -41 -94q-19 -38 -36 -52q-19 -17 -59 -35q-42 -18 -92 -35t-103 -33q-46 -13 -87 -23l-5 126l61 21q38 13 75 27.5t67 28.5q31 15 43 27v0
q11 12 24 45q12 33 27.5 80.5t31.5 104.5l32 118l31 117l29 104l24 77q10 28 14 36q7 8 23 19l41 26l46 27l44 26l34 21q1 1 4.5 3t4.5 3l3 3t3 3.5t2 4t1 5.5q0 15 -25 36l-48 38l-46 40q-18 17 -18 28q0 16 9 61l24 110l31 135l31 141q15 69 24 127q10 58 10 93
q0 18 -29 37q-24 16 -57 32t-66 30l-42 16z" />
    <glyph glyph-name="asciitilde" unicode="~" horiz-adv-x="1160" 
d="M67 400q12 40 34 77q25 44 62 77.5t83 54.5q47 20 104 20t108 -8q52 -8 100 -20q47 -12 95 -26q47 -15 97.5 -27t105.5 -20t118 -8q35 0 62 10t46.5 26t33.5 36q11 16 18 32h92q-13 -42 -36 -82q-26 -46 -64 -80.5t-89 -56.5q-50 -21 -112 -21q-90 0 -170 17
q-82 17 -156 37q-74 21 -145 38q-72 17 -143 17q-66 0 -104 -30q-33 -26 -49 -63h-91z" />
    <glyph glyph-name="nonbreakingspace" unicode="&#xa0;" horiz-adv-x="561" 
 />
    <glyph glyph-name="exclamdown" unicode="&#xa1;" horiz-adv-x="788" 
d="M704 1036q0 -30 -13 -56q-12 -27 -34.5 -47.5t-51.5 -32.5t-60 -12q-24 0 -44 8.5t-35 24t-23 35.5q-9 19 -9 41q0 30 13 56q13 27 35 48t51 33t61 12q23 0 43.5 -8.5t35 -23.5t23 -35.5t8.5 -42.5zM564 676l-52 -226l-59 -261q-31 -138 -60 -291q-29 -149 -55 -314h-248
q55 162 100 309l85 291l72 261l63 231h154z" />
    <glyph glyph-name="cent" unicode="&#xa2;" horiz-adv-x="1250" 
d="M1044 1362l-68 -270l12 -1q80 -6 141 -28q55 -20 92 -47l-72 -158q-86 70 -199 87l-10 1l-184 -741l14 1q79 4 147 35q58 27 123 72l-20 -146q-38 -23 -71 -41q-34 -18 -69 -32q-35 -13 -71 -21q-37 -7 -82 -10l-7 -1l-68 -270h-116l67 275l-10 2q-67 13 -123.5 47.5
t-98 85.5t-64 118t-22.5 144q0 33 4.5 66.5t13.5 70.5q24 100 74.5 185t121.5 148.5t160.5 103.5t192.5 51l7 1l68 272h117zM464 487q0 -97 44 -166t124 -98l10 -4l181 729l-15 -3q-57 -10 -109 -37.5t-95 -71t-75 -104.5q-31 -60 -51 -138q-8 -28 -11 -55t-3 -52zM478 594
v-1v1z" />
    <glyph glyph-name="sterling" unicode="&#xa3;" horiz-adv-x="1250" 
d="M324 857h112l2 8q9 55 19 107.5t22 100.5q28 114 78 201t116 144t147 85.5t173 28.5q30 0 66 -4.5t70.5 -13.5t64.5 -23q25 -10 42 -24l-77 -138q-15 11 -34 20q-25 12 -54 21q-28 8 -56 12q-28 5 -53 5q-51 0 -96 -15q-46 -15 -85.5 -47t-68.5 -84q-29 -50 -47 -123
q-14 -55 -25 -118.5t-20 -131.5l-1 -11h330l-32 -130h-319l-1 -9q-9 -63 -19 -123q-11 -59 -24 -110q-23 -95 -66 -171q-42 -75 -117 -134l-23 -18h245q157 0 278 2q108 2 174 11l-41 -165h-901l29 119q36 21 70 49q37 30 68 65t54 76t35 86q18 73 31 152q14 78 26 159l2 11
h-126z" />
    <glyph glyph-name="currency" unicode="&#xa4;" horiz-adv-x="1250" 
d="M745 581q77 0 149 29.5t126.5 81t88.5 121.5q33 70 33 152q0 55 -21.5 104.5t-58.5 86.5t-89 59t-112 22q-79 0 -152 -28.5t-129.5 -79.5t-90.5 -121q-35 -71 -35 -155q0 -56 22.5 -105.5t61 -86.5t92 -58.5t115.5 -21.5zM1182 326l-173 220l-7 -5q-70 -44 -144 -60
q-74 -17 -148 -17q-32 0 -66.5 6t-68.5 18.5t-64 30.5q-30 17 -52 39l-6 6l-261 -203l-74 93l261 204l-4 7q-20 39 -31 84t-11 94q0 99 43 192.5t120 164.5l7 6l-172 222l94 74l174 -227l8 6q49 34 116.5 54t150.5 20q81 0 149 -25.5t112 -65.5l7 -6l268 214l74 -94
l-264 -210l4 -7q19 -37 29.5 -82t10.5 -95q0 -97 -42 -191q-41 -94 -110 -167l-6 -6l170 -219z" />
    <glyph glyph-name="yen" unicode="&#xa5;" horiz-adv-x="1250" 
d="M356 790h246l-111 320l-35 100l-37 99q-20 50 -43 102l-46 96h210l241 -671l555 671h226l-96 -103l-91 -101l-82 -93l-82 -97l-274 -323h254l-33 -131h-332l-31 -128h332l-34 -132h-331l-2 -8l-56 -232q-21 -93 -25 -149h-208q22 55 46 144l61 233l3 12h-323l33 132h323
l32 128h-323z" />
    <glyph glyph-name="brokenbar" unicode="&#xa6;" horiz-adv-x="1064" 
d="M616 816l208 836h138l-208 -836h-138zM663 452l-211 -847h-138l211 847h138z" />
    <glyph glyph-name="section" unicode="&#xa7;" horiz-adv-x="1064" 
d="M818 542q0 51 -35 106q-33 55 -112 123l-3 2h-4q-46 0 -93 -14t-86 -41q-39 -28 -63 -69q-25 -42 -25 -97q0 -54 40 -109q39 -54 128 -128l3 -2h4q44 5 87 22t78.5 47t57.5 69q23 40 23 91zM62 -199q26 -27 59 -49q39 -26 83.5 -45t91 -29t90.5 -10q42 0 89 13
q46 13 86 39q39 27 64 66q26 39 26 91q0 38 -18 76q-18 36 -49 74q-32 38 -75 77q-42 40 -94 81q-94 77 -145 159t-51 180q0 65 20 123t58 104.5t91 81.5q54 35 121 56l16 6l-12 11q-69 69 -105 137q-35 66 -35 129q0 76 30.5 141t89.5 113q60 49 148 77q89 29 204 29
q56 0 107 -7.5t94 -18.5t77 -26q28 -12 49 -24l-74 -164q-19 13 -42 27q-30 18 -67 33.5t-81 24.5q-44 10 -94 10q-38 0 -82 -10q-45 -11 -83 -33q-39 -22 -65 -56q-27 -36 -27 -86q0 -37 21 -72q20 -34 55 -70q34 -36 79 -76l95 -86q45 -41 81 -80t62 -78q25 -37 39 -78
q13 -40 13 -83q0 -67 -22 -125.5t-61 -105.5q-40 -48 -93 -84.5t-113 -59.5l-14 -5l9 -11q60 -68 93 -142q32 -73 32 -146q0 -89 -40 -160q-41 -70 -106 -119q-67 -49 -151 -74q-85 -26 -176 -26q-63 0 -123.5 9.5t-112 25.5t-92.5 38q-35 19 -59 39z" />
    <glyph glyph-name="dieresis" unicode="&#xa8;" horiz-adv-x="699" 
d="M487 1418q0 -30 -12 -57t-34 -48t-50 -33q-28 -13 -60 -13q-24 0 -43.5 8.5t-33.5 23.5t-22.5 35.5t-8.5 42.5q0 27 11 53.5t31.5 48t49.5 34.5q28 14 64 14q24 0 43 -9q20 -8 34.5 -23t22.5 -34.5t8 -42.5zM932 1418q0 -30 -12 -57t-34 -48t-50 -33q-28 -13 -60 -13
q-24 0 -43.5 8.5t-33.5 23.5t-22.5 35.5t-8.5 42.5q0 27 11 53.5t31.5 48t49.5 34.5q29 14 65 14q23 0 43 -8.5t34 -23.5t22 -34.5t8 -42.5z" />
    <glyph glyph-name="copyright" unicode="&#xa9;" horiz-adv-x="1769" 
d="M1194 395q-70 -51 -145 -77q-77 -27 -152 -27q-77 0 -138 27t-104 75t-67 114q-23 67 -23 145q0 64 18 137q29 118 85.5 201.5t128 137t151.5 78.5q81 25 161 25q71 0 143 -20q68 -18 124 -65l-64 -106q-47 51 -104 73q-63 24 -126.5 24t-123 -21.5t-109.5 -64
t-89 -109.5q-38 -66 -61 -156q-12 -50 -12 -96q0 -67 17 -121q17 -56 49 -95q33 -40 79 -62t104 -22q76 0 145 36q58 30 120 77zM1173 1532q116 0 223.5 -39t190.5 -114t133 -184.5t50 -252.5q0 -50 -6.5 -103t-21.5 -111q-32 -130 -87.5 -236.5t-127 -189.5t-156 -143
t-175.5 -98.5t-185.5 -57.5t-185.5 -19q-118 0 -226 38q-107 39 -188.5 114t-129.5 184t-48 251q0 106 29 227q48 193 143.5 331.5t219 228t265.5 131.5q142 43 283 43zM1143 1428q-121 0 -240.5 -39.5t-223 -120t-183.5 -202t-121 -285.5q-13 -51 -19 -97.5t-6 -92.5
q0 -119 41 -213.5t110.5 -158.5t161.5 -97q91 -33 193 -33q121 0 242 39.5t225 120t184.5 202t122.5 284.5q24 101 24 187q0 121 -42 215t-112 159.5t-163 98.5q-92 33 -194 33z" />
    <glyph glyph-name="ordfeminine" unicode="&#xaa;" horiz-adv-x="835" 
d="M857 1297q-18 4 -51 9q-34 5 -92 5q-70 0 -125 -26t-95 -70q-40 -43 -68 -100q-26 -57 -42 -120q-9 -39 -9 -74q0 -53 18 -88q20 -38 59 -38q28 0 68 26q37 25 79 66q41 40 82.5 89t76.5 97t60 89q25 42 33 68l16 65zM777 716q1 18 2 41q2 31 5 66q3 34 8.5 68.5
t12.5 62.5l34 134l-36 -60q-37 -63 -85.5 -122t-101.5 -106q-52 -46 -105 -73q-51 -27 -100 -27q-70 0 -114 49q-44 50 -44 142q0 47 14 100q19 79 59 153t100 131t139 91t177 34q72 0 145 -8q66 -8 118 -21l-77 -305q-16 -63 -24 -116.5t-11.5 -98.5t-3.5 -80
q-1 -30 -2 -55h-110zM182 613h712l-20 -84h-713z" />
    <glyph glyph-name="guillemotleft" unicode="&#xab;" horiz-adv-x="1356" 
d="M1015 10l-334 520l562 520h188l-531 -516l275 -524h-160zM496 10l-335 520l563 520h188l-532 -516l276 -524h-160z" />
    <glyph glyph-name="logicalnot" unicode="&#xac;" horiz-adv-x="1250" 
d="M1007 363l80 322h-854l35 136h991l-114 -458h-138z" />
    <glyph glyph-name="sfthyphen" unicode="&#xad;" horiz-adv-x="890" 
d="M212 722h721l-35 -135h-721z" />
    <glyph glyph-name="registered" unicode="&#xae;" horiz-adv-x="1732" 
d="M813 787h135q110 0 180 36q71 36 90 115q7 27 7 51q0 63 -48 101q-48 37 -150 37q-68 0 -123 -3h-7zM759 571q-25 -97 -39 -163q-12 -59 -17 -97h-124q14 38 29 93l41 163l91 364l42 170q15 66 19 106q30 1 67 3q35 2 83.5 3.5t108.5 1.5q65 0 118 -12q52 -12 89 -37
q36 -25 57 -61q20 -36 20 -84q0 -33 -10 -67q-14 -56 -42.5 -96.5t-65.5 -67.5q-38 -28 -81 -46q-43 -17 -85 -28l-11 -3l36 -72l39 -79l44 -85l42 -80l34 -64l13 -22h-141l-178 393h-146zM1140 1428q-121 0 -241 -39.5t-223 -120t-183 -202t-121 -285.5q-13 -51 -19 -97.5
t-6 -92.5q0 -119 41 -213.5t110 -158.5t161 -97t194 -33q121 0 242 39.5t225 120t184.5 202t122.5 284.5q24 101 24 187q0 121 -42 215t-112.5 159.5t-162.5 98.5t-194 33zM1170 1532q132 0 240.5 -46t187 -127.5t122.5 -192.5t44 -242q0 -94 -25 -196q-32 -130 -87 -236.5
t-127 -189.5t-156.5 -143t-175.5 -98.5t-185.5 -57.5t-185.5 -19q-135 0 -244 44.5t-185.5 124t-118 188.5t-41.5 239q0 102 26 208q31 127 85 232.5t124 189t153.5 144t174 100t185.5 59t189 19.5z" />
    <glyph glyph-name="macron" unicode="&#xaf;" horiz-adv-x="731" 
d="M304 1434h731l-34 -136h-731z" />
    <glyph glyph-name="degree" unicode="&#xb0;" horiz-adv-x="657" 
d="M332 1234q0 58 26 112q26 55 70 96t101 65q57 25 120 25q45 0 83.5 -15.5t66 -42.5t43 -63t15.5 -79q0 -58 -26 -112q-25 -54 -69 -96t-101 -66q-58 -25 -120 -25q-46 0 -84.5 16t-66 42.5t-43 63t-15.5 79.5zM560 1133q35 0 69 14t61.5 39.5t44.5 59.5t17 72
q0 50 -33.5 83t-88.5 33q-35 0 -69 -15q-35 -14 -62 -39.5t-44 -58.5q-18 -34 -18 -71q0 -51 34 -84t89 -33z" />
    <glyph glyph-name="plusminus" unicode="&#xb1;" horiz-adv-x="1250" 
d="M199 354h922l-34 -136h-922zM363 1013h389l99 395h143l-99 -395h390l-34 -136h-390l-94 -378h-143l94 378h-389z" />
    <glyph glyph-name="twosuperior" unicode="&#xb2;" horiz-adv-x="869" 
d="M866 716h-691l27 99q72 37 149 86q80 50 155 106t141 116t116 116q50 57 79 108q30 51 30 91q0 37 -13 67t-35.5 50.5t-54.5 30.5q-32 11 -70 11q-35 0 -75 -9q-39 -9 -78 -26t-76 -41q-29 -18 -55 -38l-5 90q28 26 64 48q39 24 83.5 41t91.5 27t93 10q63 0 112 -19
t83 -51t51 -74q17 -43 17 -92q0 -45 -24 -97q-24 -54 -67 -112q-43 -57 -102 -116.5t-128 -115.5t-144.5 -105.5t-152.5 -90.5l-35 -19h230q110 0 194 2q72 1 117 6z" />
    <glyph glyph-name="threesuperior" unicode="&#xb3;" horiz-adv-x="869" 
d="M586 1283q29 0 64.5 6t72.5 17.5t71 27.5q35 16 63 39q29 22 46 51q18 29 18 65q0 29 -17 51q-15 21 -40 34q-24 13 -55 20q-30 7 -61 7q-44 0 -84 -5.5t-79.5 -18.5t-77.5 -33q-30 -15 -61 -38l3 90q26 21 58 39q34 19 73 33t81.5 22.5t87.5 8.5q62 0 116 -14.5
t95 -40.5q40 -25 64 -60q23 -34 23 -77q0 -51 -26 -92q-26 -42 -69 -73t-96 -53t-105 -32l-47 -9l47 -11q30 -7 67 -21t67 -39t50 -61t20 -83q0 -51 -19 -95q-19 -45 -50.5 -82t-74.5 -66q-44 -29 -95 -49.5t-106 -31t-108 -10.5q-48 0 -93 8t-84 22.5t-70 34.5
q-28 18 -48 38l48 124q19 -24 39 -44q28 -27 62 -45.5t77 -28.5q42 -10 94 -10q53 0 107 15q53 15 96 45q43 31 71 75q27 45 27 101q0 36 -21 66q-20 29 -57 49q-35 19 -85 30q-49 10 -109 10h-38l24 94h44z" />
    <glyph glyph-name="acute" unicode="&#xb4;" horiz-adv-x="593" 
d="M862 1652l-510 -426h-152l430 426h232z" />
    <glyph glyph-name="mu" unicode="&#xb5;" horiz-adv-x="1234" 
d="M920 10q-5 21 -7 50q-3 34 -3 75q0 18 1 36t3 36l3 31l-20 -23q-35 -39 -81.5 -80t-98.5 -75q-53 -34 -107 -55t-103 -21q-35 0 -65 9q-29 9 -52 23q-24 14 -39.5 32t-24.5 39l-11 28l-67 -269q-16 -62 -27 -112.5t-18 -93.5t-11 -79q-4 -31 -6 -60h-199l305 1224
q13 49 22 90t16 79q8 38 13 78l9 78h196l-56 -222q-11 -48 -24 -97l-24 -95l-21 -85q-10 -39 -16 -66q-10 -37 -14 -70t-4 -63q0 -56 14 -96q14 -41 39 -67.5t58 -40.5q33 -13 70 -13q42 0 96 28q52 28 103 71q52 43 98.5 95.5t76.5 102.5v1l74 292q13 51 22.5 92t16.5 78.5
t12 76.5l10 78h195l-52 -208l-24 -96l-24 -98l-24 -94l-22 -85q-27 -111 -40 -202q-13 -90 -13 -166q0 -49 5 -91h-160z" />
    <glyph glyph-name="paragraph" unicode="&#xb6;" horiz-adv-x="1065" 
d="M1177 1407l-348 -1397h-122l348 1397h-191l-347 -1397h-122l197 795h-13q-47 0 -100 15t-98 48t-76 85q-30 52 -30 125q0 102 40 181.5t108 134.5q69 55 161 84t196 29h544l-25 -100h-122z" />
    <glyph glyph-name="periodcentered" unicode="&#xb7;" horiz-adv-x="698" 
d="M344 718q0 29 12.5 56t34.5 47t51 33q29 12 60 12q24 0 44 -9t35.5 -24.5t24 -35.5t8.5 -42q0 -30 -13 -56q-12 -27 -34.5 -47.5t-51.5 -32.5t-60 -12q-24 0 -44 8.5t-35 24t-23 35.5q-9 20 -9 43z" />
    <glyph glyph-name="cedilla" unicode="&#xb8;" horiz-adv-x="392" 
d="M70 43l-39 -156l17 4q10 3 21 4.5t29 1.5q55 0 86 -36q32 -36 32 -91q0 -57 -29 -104q-29 -48 -76 -82t-105 -53t-114 -19q-39 0 -70 11q-26 10 -51 24l29 84q16 -12 34 -18q24 -8 60 -8q28 0 59 8q32 8 59 25t45 42q19 27 19 62q0 37 -26 59q-25 22 -66 22q-26 0 -55 -8
q-17 -4 -31 -10l60 238h112z" />
    <glyph glyph-name="onesuperior" unicode="&#xb9;" horiz-adv-x="869" 
d="M812 716h-587l26 96h233l204 763l-256 -118l11 98l287 139h111l-237 -882h234z" />
    <glyph glyph-name="ordmasculine" unicode="&#xba;" horiz-adv-x="824" 
d="M174 613h684l-20 -84h-684zM563 791q62 0 112 29q51 28 86.5 73.5t54.5 103t19 115.5q0 89 -46 142t-122 53q-64 0 -115 -29q-50 -29 -85 -76q-36 -46 -55 -103.5t-19 -116.5q0 -88 47 -139q48 -52 123 -52zM540 700q-63 0 -112 19t-82.5 53.5t-51.5 84.5t-18 112
q0 87 29 165t83 137t130.5 93.5t172.5 34.5q65 0 114 -20t81.5 -56t49.5 -85q16 -50 16 -108q0 -85 -29 -163t-82.5 -137.5t-130 -94.5t-170.5 -35z" />
    <glyph glyph-name="guillemotright" unicode="&#xbb;" horiz-adv-x="1356" 
d="M83 10l533 520l-277 520h164l332 -516l-567 -524h-185zM603 10l533 520l-277 520h163l332 -516l-566 -524h-185z" />
    <glyph glyph-name="onequarter" unicode="&#xbc;" horiz-adv-x="1685" 
d="M1072 369h302l104 412zM645 1546l-217 -111l6 92l246 125h102l-202 -815h196l-23 -89h-504l23 89h196zM1850 1652l-1544 -1694h-122l1544 1694h122zM1469 280l-67 -270h-117l67 270h-415l14 94l544 540h132l-136 -545h143l-22 -89h-143z" />
    <glyph glyph-name="onehalf" unicode="&#xbd;" horiz-adv-x="1685" 
d="M1571 10h-588l23 98q61 36 124 79q65 45 128 93.5t120 101.5t100 106t67 104q26 53 26 99q0 64 -42 95q-40 30 -99 30q-31 0 -66 -9t-70 -24q-35 -16 -68 -37q-24 -15 -46 -33v89q24 23 56 44q35 22 72.5 38.5t77.5 26.5q39 9 74 9q52 0 95 -16t73 -44.5t47 -66.5t17 -85
q0 -69 -41 -145q-42 -77 -114 -154q-73 -78 -167 -152.5t-198 -138.5l-30 -19h188q95 0 167 2q60 2 99 7zM592 1546l-217 -111l6 92l246 125h102l-202 -815h196l-23 -89h-504l23 89h196zM1808 1652l-1545 -1694h-121l1543 1694h123z" />
    <glyph glyph-name="threequarters" unicode="&#xbe;" horiz-adv-x="1685" 
d="M1051 369h302l103 412zM276 942q13 -17 29 -32q24 -23 54.5 -40t67.5 -27.5t79 -10.5q44 0 89 13q45 14 81 40q37 26 59 63q22 38 22 85q0 34 -17 63q-17 28 -48 49q-31 20 -73 32t-92 12h-35l24 94h39q36 0 83 9t88 29q42 20 71 50q31 32 31 74q0 26 -14 47
q-13 21 -34 36q-22 15 -48 23q-27 7 -55 7q-26 0 -51 -3.5t-52 -12t-57 -21.5q-24 -11 -54 -28v86q62 38 118 58q58 20 126 20q49 0 91.5 -14t74.5 -39q31 -25 49 -58q18 -34 18 -72q0 -44 -21 -81t-55 -65q-34 -27 -78.5 -45.5t-89.5 -25.5l-69 -10l69 -10q27 -4 58 -18
q30 -13 56 -37.5t43 -58.5q17 -33 17 -75q0 -69 -33 -128q-33 -58 -86 -100q-53 -41 -121.5 -64.5t-137.5 -23.5q-39 0 -78 9t-74 24t-64 33q-24 16 -40 33zM1834 1652l-1544 -1694h-122l1544 1694h122zM1447 280l-66 -270h-117l67 270h-415l14 94l544 540h132l-136 -545
h143l-23 -89h-143z" />
    <glyph glyph-name="questiondown" unicode="&#xbf;" horiz-adv-x="1091" 
d="M885 1036q0 -30 -13 -56q-13 -27 -35.5 -47.5t-51.5 -32.5t-60 -12q-23 0 -43.5 8.5t-35.5 24t-23 35.5q-9 19 -9 41q0 30 13 56q13 27 35 48t51 33t61 12q23 0 43.5 -8.5t35.5 -23.5t23.5 -35.5t8.5 -42.5zM727 -307q-30 -22 -69 -41q-43 -21 -90 -36t-98 -23.5
t-100 -8.5q-63 0 -119 16q-57 16 -99 47q-42 30 -67 74q-25 45 -25 101q0 58 20 108q20 51 54 96t79 86q44 40 92 77q50 39 90 81t74 102q33 59 61 142q28 79 54 193h165q-26 -121 -56 -208q-31 -91 -65 -156t-71 -107.5t-74 -71.5l-79 -64q-39 -33 -69 -66q-30 -34 -49 -70
q-19 -38 -19 -78q0 -29 10 -54q11 -26 32 -45q22 -19 56 -30t80 -11q66 0 143 29q69 25 139 78v-160z" />
    <glyph glyph-name="Agrave" unicode="&#xc0;" horiz-adv-x="1438" 
d="M971 1344l-469 -793h553zM1115 10l-45 400h-652l-236 -400h-203l35 50l51 78l63 98l80 128l691 1143h209l137 -1139q9 -72 17 -127l15 -99q6 -44 13 -78q5 -28 11 -54h-186zM757 2118h192l276 -426h-135z" />
    <glyph glyph-name="Aacute" unicode="&#xc1;" horiz-adv-x="1438" 
d="M975 1344l-472 -793h556zM1118 10l-44 400h-655l-237 -400h-203l35 50l51 78l63 98l80 128l695 1143h209l134 -1139q9 -72 17 -127l14 -99q6 -44 13 -78q5 -27 11 -54h-183zM1306 2118h232l-505 -426h-150z" />
    <glyph glyph-name="Acircumflex" unicode="&#xc2;" horiz-adv-x="1438" 
d="M973 1344l-471 -793h556zM1116 10l-44 400h-654l-236 -400h-203l35 50l51 78l63 98l80 128l694 1143h208l135 -1139q9 -72 17 -127l15 -99q6 -44 13 -78q5 -28 11 -54h-185zM720 1692h-128l421 426h167l257 -426h-135l-220 294z" />
    <glyph glyph-name="Atilde" unicode="&#xc3;" horiz-adv-x="1438" 
d="M973 1344l-470 -793h555zM1117 10l-45 400h-654l-236 -400h-203l35 50l51 78l63 98l80 128l694 1143h208l135 -1139q9 -72 17 -127l15 -99q6 -44 13 -78q5 -28 11 -54h-184zM756 1728h-89q11 40 32 78q25 45 58.5 79.5t74.5 55.5q40 21 85 21q41 0 76 -16l86 -37l83 -36
q35 -15 71 -15q21 0 40 9t34.5 22.5t26.5 31.5q10 14 17 30h92q-13 -41 -35 -81q-25 -45 -60 -79t-78 -54q-42 -20 -89 -20q-39 0 -76 13q-38 14 -80 36q-53 27 -86 41q-35 14 -66 14q-42 0 -74 -30q-28 -27 -43 -63z" />
    <glyph glyph-name="Adieresis" unicode="&#xc4;" horiz-adv-x="1438" 
d="M973 1344l-471 -793h556zM1116 10l-44 400h-654l-236 -400h-203l35 50l51 78l63 98l80 128l693 1143h209l135 -1139q9 -72 17 -127l15 -99q6 -44 13 -78q5 -28 11 -54h-185zM984 1926q8 -20 8 -42q0 -30 -12 -57q-13 -27 -33.5 -48.5t-48.5 -33.5t-60 -12q-22 0 -42 8.5
t-33 23.5t-22 35q-8 20 -8 43q0 26 11 53.5t30.5 48.5t48.5 34q28 14 63 14q23 0 42.5 -8.5t34 -23.5t21.5 -35zM1425 1926q8 -20 8 -42q0 -30 -13 -57q-12 -27 -33.5 -48.5t-50 -33.5t-60.5 -12q-23 0 -42.5 8.5t-33.5 23.5t-23 35q-8 20 -8 43q0 26 11 53q10 27 31 48.5
t50 34.5q28 14 64 14q24 0 43 -9q20 -8 34.5 -23t22.5 -35z" />
    <glyph glyph-name="Aring" unicode="&#xc5;" horiz-adv-x="1438" 
d="M971 1344l-469 -793h553zM1115 10l-45 400h-652l-236 -400h-203l35 50l51 78l63 98l80 128l691 1143h209l137 -1139q9 -72 17 -127l15 -99q6 -44 13 -78q5 -28 11 -54h-186zM859.5 1797.5q-13.5 31.5 -13.5 67.5q0 50 21 95q22 46 58.5 81t84.5 56q47 21 100 21
q39 0 72 -13.5t57 -37.5t37.5 -55.5t13.5 -68.5q0 -49 -22 -95q-23 -46 -60.5 -80.5t-86 -55t-100.5 -20.5q-38 0 -70 13.5t-55 37t-36.5 55zM972 1813q24 -23 67 -23q27 0 54 10.5t47 30.5t33 46t13 57q0 38 -26 61q-25 23 -69 23q-27 0 -53 -10.5t-45.5 -30t-32.5 -45.5
q-12 -27 -12 -57q0 -38 24 -62z" />
    <glyph glyph-name="AE" unicode="&#xc6;" horiz-adv-x="1852" 
d="M1026 551l208 839l-626 -839h418zM1739 721h-492l-138 -559h184q156 0 262 2q95 2 158 11l-40 -165h-793l11 31q10 27 23 72t30 114l43 171l3 12h-486l-298 -400h-206l78 92l82 101l77 100l79 105l806 1099h891l-37 -152h-573l-120 -487h492z" />
    <glyph glyph-name="Ccedilla" unicode="&#xc7;" horiz-adv-x="1381" 
d="M1271 306l-6 -155q-54 -46 -114 -79q-64 -34 -132.5 -56t-140.5 -33q-60 -7 -118 -10h-7l-24 -96l16 4q11 3 22 4.5t28 1.5q54 0 84 -36q31 -36 31 -91q0 -57 -28 -104q-28 -48 -74 -82t-102.5 -53t-112.5 -19q-38 0 -68 11q-26 9 -49 24l28 83q16 -11 34 -17
q24 -8 57 -8q28 0 58 8q31 8 57 25q27 17 45 42q18 27 18 62q0 36 -25 59q-24 22 -64 22q-26 0 -55 -8q-15 -4 -29 -10l46 184l-11 2q-67 12 -126 39q-100 48 -169 131q-70 75 -107 177q-37 103 -37 225q0 152 37.5 285t103.5 243q65 108 153 195q87 86 186.5 145.5
t206.5 90t213 30.5q56 0 116 -9q60 -11 122 -32q60 -22 114 -55q50 -30 87 -71l-98 -167q-28 35 -65 62q-42 32 -92 53q-49 22 -101.5 32.5t-104.5 10.5q-87 0 -172 -28t-161 -79.5t-140 -125t-111.5 -163.5t-74.5 -195.5t-27 -220.5q0 -93 29 -170t81 -132
q53 -55 124 -85.5t157 -30.5q71 0 142 13.5t136 39t123 58.5q49 28 91 59z" />
    <glyph glyph-name="Egrave" unicode="&#xc8;" horiz-adv-x="1168" 
d="M510 868h588l-35 -147h-589l-136 -559h285q153 0 258 2q94 2 156 11l-39 -165h-892q26 62 54 167l69 273l152 613l64 271q25 109 29 173h862l-37 -152h-671zM673 2118h192l271 -426h-133z" />
    <glyph glyph-name="Eacute" unicode="&#xc9;" horiz-adv-x="1168" 
d="M510 868h591l-36 -147h-591l-136 -559h286q154 0 259 2q94 2 157 11l-39 -165h-895q26 62 54 167l69 273l152 613l64 271q25 109 29 173h862l-37 -152h-670zM1218 2118h232l-505 -426h-148z" />
    <glyph glyph-name="Ecircumflex" unicode="&#xca;" horiz-adv-x="1168" 
d="M510 868h588l-35 -147h-589l-136 -559h286q153 0 257 2q94 2 156 11l-38 -165h-893q26 62 54 167l69 273l152 613l64 271q25 109 29 173h862l-37 -152h-671zM634 1692h-128l420 426h165l257 -426h-135l-218 294z" />
    <glyph glyph-name="Edieresis" unicode="&#xcb;" horiz-adv-x="1168" 
d="M510 868h588l-35 -147h-589l-136 -559h286q153 0 257 2q94 2 156 11l-38 -165h-893q26 62 54 167l69 273l152 613l64 271q25 109 29 173h862l-37 -152h-671zM897 1927q7 -21 7 -43q0 -30 -12 -57t-33 -48.5t-48 -33.5q-28 -12 -59 -12q-22 0 -41.5 8.5t-33.5 24t-22 35
t-8 42.5q0 26 11 53t30.5 48.5t48.5 34.5q28 14 63 14q22 0 41.5 -8.5t34.5 -23.5q14 -14 21 -34zM1337 1926q8 -20 8 -42q0 -30 -13 -57q-12 -27 -33.5 -48.5t-50 -33.5t-60.5 -12q-23 0 -43 8.5t-34 23.5t-22 35t-8 43q0 26 10.5 53t31 48.5t49.5 34.5q29 14 65 14
q23 0 43 -8.5t34.5 -23.5t22.5 -35z" />
    <glyph glyph-name="Igrave" unicode="&#xcc;" horiz-adv-x="972" 
d="M453 1497h680l-33 -131h-258l-297 -1215h250l-31 -131h-679l32 131h253l297 1215h-245zM546 2118h189l274 -426h-135z" />
    <glyph glyph-name="Iacute" unicode="&#xcd;" horiz-adv-x="972" 
d="M454 1497h679l-33 -131h-253l-300 -1215h252l-31 -131h-683l32 131h253l300 1215h-247zM1089 2118h233l-503 -426h-149z" />
    <glyph glyph-name="Icircumflex" unicode="&#xce;" horiz-adv-x="972" 
d="M453 1497h680l-33 -131h-256l-298 -1215h251l-31 -131h-681l32 131h253l299 1215h-247zM508 1692h-127l418 426h165l257 -426h-136l-218 294z" />
    <glyph glyph-name="Idieresis" unicode="&#xcf;" horiz-adv-x="972" 
d="M453 1497h680l-33 -131h-256l-298 -1215h251l-31 -131h-681l32 131h253l298 1215h-246zM770 1926q7 -20 7 -42q0 -30 -11 -57q-12 -27 -33 -48.5t-49 -33.5q-27 -12 -58 -12q-23 0 -42 8.5t-33 24t-22 35t-8 42.5q0 26 10.5 53t30.5 48.5t48 34.5q28 14 63 14q23 0 42 -9
q19 -8 33 -23t22 -35zM1208.5 1926.5q7.5 -20.5 7.5 -42.5q0 -30 -12 -57t-33.5 -48.5t-50.5 -33.5q-28 -12 -60 -12q-24 0 -43.5 8.5t-33.5 23.5t-22 35t-8 43q0 26 11 53t31 48.5t49 34.5q29 14 65 14q23 0 43 -8.5t34.5 -23t22 -35z" />
    <glyph glyph-name="Eth" unicode="&#xd0;" horiz-adv-x="1466" 
d="M631 1376l-124 -517h394l-31 -132h-395l-136 -574l11 -1q37 -3 99 -7t137 -4q142 0 253 31q112 32 195.5 96t140.5 163q55 97 89 232q32 131 32 240q0 240 -112 359q-111 119 -330 119q-27 0 -56 -0.5t-57.5 -1.5t-55 -1.5t-47.5 -1.5h-7zM112 727l33 132h186l44 182
l36 150q18 73 31.5 136.5t21.5 114.5q8 44 11 75q32 2 81 4q56 2 119 3.5t128 2t117 0.5q112 0 215 -33q102 -33 181 -103t126 -180.5t47 -264.5q0 -57 -8 -121t-26 -136q-46 -187 -129 -320t-197 -217t-259 -123q-145 -40 -315 -40q-25 0 -58 1q-32 0 -69 1l-77 2l-77 2
q-81 2 -168 5q12 29 23 68l32 112l35 135l39 152l63 260h-186z" />
    <glyph glyph-name="Ntilde" unicode="&#xd1;" horiz-adv-x="1528" 
d="M1117 10l-538 1244l-305 -1244h-179q26 62 54 167q32 118 70 273l151 613l65 271q26 109 30 173h182l537 -1250l306 1250h178q-24 -63 -53 -168q-32 -116 -70 -272l-260 -1057h-168zM815 1728h-89q10 40 32 78q25 45 58.5 79.5t74.5 55.5q40 21 85 21q41 0 77 -16l85 -37
l84 -36q35 -15 70 -15q21 0 40 9q18 9 33 22.5t27 31.5q9 14 16 30h92q-13 -41 -35 -81q-25 -44 -60 -79q-34 -34 -76 -54t-88 -20q-39 0 -77 13q-38 14 -79 36q-54 27 -87 41q-35 14 -66 14q-42 0 -74 -30q-28 -27 -43 -63z" />
    <glyph glyph-name="Ograve" unicode="&#xd2;" horiz-adv-x="1493" 
d="M1502.5 1224q39.5 -103 39.5 -234q0 -143 -34 -273.5t-95 -243.5q-60 -112 -142 -206q-81 -92 -175.5 -157t-197.5 -101t-208 -36q-101 0 -191 37q-90 38 -157 108q-67 71 -106.5 173.5t-39.5 235.5q0 143 34 274t95 243q60 112 142 205q81 92 175.5 157t198.5 101
q105 35 211 35q100 0 188 -37q89 -37 156 -107q67 -71 106.5 -174zM598 166.5q66 -30.5 147 -30.5q94 0 176 36t148.5 95.5t118.5 140.5t87 171q36 91 54 185q19 96 19 185q0 98 -24 178q-25 80 -70.5 136.5t-111 87t-144.5 30.5q-95 0 -177 -35q-81 -36 -148.5 -95.5
t-120.5 -140.5q-52 -80 -88 -170q-37 -91 -56 -185q-19 -96 -19 -185q0 -98 25 -178q25 -81 71.5 -138t112.5 -87.5zM802 2118h193l271 -426h-132z" />
    <glyph glyph-name="Oacute" unicode="&#xd3;" horiz-adv-x="1493" 
d="M1502.5 1224q39.5 -103 39.5 -234q0 -143 -34 -273.5t-95 -243.5q-60 -112 -142 -206q-80 -92 -174.5 -157t-197.5 -101q-104 -36 -209 -36q-101 0 -191 37q-90 38 -157 108q-67 71 -106.5 173.5t-39.5 235.5q0 143 34 274t95 243q60 112 142 205q81 92 175.5 157
t199.5 101q104 35 210 35q101 0 189 -37q87 -36 154.5 -107t107 -174zM598 166.5q66 -30.5 147 -30.5q94 0 177 36q82 36 148.5 95.5t118.5 140.5t87 171t53 185q19 96 19 185q0 98 -24 178t-70 137q-45 56 -110.5 86.5t-144.5 30.5q-95 0 -177 -35q-82 -36 -149.5 -95.5
t-120.5 -140.5q-52 -80 -88 -170q-37 -91 -56 -185q-19 -96 -19 -185q0 -98 25 -178q25 -81 71.5 -138t112.5 -87.5zM1347 2118h232l-505 -426h-149z" />
    <glyph glyph-name="Ocircumflex" unicode="&#xd4;" horiz-adv-x="1493" 
d="M1502.5 1224q39.5 -103 39.5 -234q0 -143 -34 -273.5t-95 -243.5q-60 -112 -142 -206q-81 -92 -175.5 -157t-197.5 -101t-208 -36q-101 0 -191 37q-90 38 -157 108q-67 71 -106.5 173.5t-39.5 235.5q0 143 34 274t95 243q60 112 142 205q81 92 175.5 157t198.5 101
q105 35 211 35q100 0 188 -37q89 -37 156 -107q67 -71 106.5 -174zM598 166.5q66 -30.5 147 -30.5q94 0 176 36t148.5 95.5t118.5 140.5t87 171q36 91 54 185q19 96 19 185q0 98 -24 178q-25 80 -70.5 136.5t-111 87t-144.5 30.5q-95 0 -177 -35q-81 -36 -148.5 -95.5
t-120.5 -140.5q-52 -80 -88 -170q-37 -91 -56 -185q-19 -96 -19 -185q0 -98 25 -178q25 -81 71.5 -138t112.5 -87.5zM763 1692h-128l421 426h166l255 -426h-135l-217 294z" />
    <glyph glyph-name="Otilde" unicode="&#xd5;" horiz-adv-x="1493" 
d="M1502.5 1224q39.5 -103 39.5 -234q0 -143 -34 -273.5t-95 -243.5q-60 -112 -142 -206q-81 -92 -175.5 -157t-197.5 -101t-208 -36q-101 0 -191 37q-90 38 -157 108q-67 71 -106.5 173.5t-39.5 235.5q0 143 34 274t95 243q60 112 142 205q81 92 175.5 157t198.5 101
q105 35 211 35q100 0 188 -37q89 -37 156 -107q67 -71 106.5 -174zM598 166.5q66 -30.5 147 -30.5q94 0 176 36t148.5 95.5t118.5 140.5t87 171q36 91 54 185q19 96 19 185q0 98 -24 178q-25 80 -70.5 136.5t-111 87t-144.5 30.5q-95 0 -177 -35q-81 -36 -148.5 -95.5
t-120.5 -140.5q-52 -80 -88 -170q-37 -91 -56 -185q-19 -96 -19 -185q0 -98 25 -178q25 -81 71.5 -138t112.5 -87.5zM800 1728h-90q11 39 33 78q24 45 58 79.5t74 55.5t85 21q41 0 76 -16l85 -37l84 -36q34 -15 70 -15q20 0 39 9t34 23q15 13 27 31q10 14 17 30h91
q-12 -41 -34 -81q-25 -45 -60 -79t-78 -54q-42 -20 -87 -20q-41 0 -77 13q-38 14 -79 36q-54 27 -87 41q-34 14 -65 14q-42 0 -74 -30q-29 -27 -42 -63z" />
    <glyph glyph-name="Odieresis" unicode="&#xd6;" horiz-adv-x="1493" 
d="M1502.5 1224q39.5 -103 39.5 -234q0 -143 -34 -273.5t-95 -243.5q-60 -112 -142 -206q-81 -92 -175.5 -157t-197.5 -101t-208 -36q-101 0 -191 37q-90 38 -157 108q-67 71 -106.5 173.5t-39.5 235.5q0 143 34 274t95 243q60 112 142 205q81 92 175.5 157t198.5 101
q105 35 211 35q100 0 188 -37q89 -37 156 -107q67 -71 106.5 -174zM598 166.5q66 -30.5 147 -30.5q94 0 176 36t148.5 95.5t118.5 140.5t87 171q36 91 54 185q19 96 19 185q0 98 -24 178q-25 80 -70.5 136.5t-111 87t-144.5 30.5q-95 0 -177 -35q-81 -36 -148.5 -95.5
t-120.5 -140.5q-52 -80 -88 -170q-37 -91 -56 -185q-19 -96 -19 -185q0 -98 25 -178q25 -81 71.5 -138t112.5 -87.5zM1027 1927q7 -21 7 -43q0 -30 -12 -57t-33 -48.5t-49 -33.5q-27 -12 -58 -12q-23 0 -42.5 8.5t-33.5 24t-22 35t-8 42.5q0 26 11 53t31 48.5t48 34.5
q29 14 64 14q22 0 41.5 -8.5t34.5 -23.5q14 -15 21 -34zM1466 1926q8 -20 8 -42q0 -30 -13 -57q-12 -27 -33.5 -48.5t-50 -33.5t-60.5 -12q-23 0 -42.5 8.5t-32.5 23.5q-14 15 -22 35t-8 43q0 26 10.5 53t30.5 48.5t48 34.5q29 14 65 14q23 0 43 -8.5t34.5 -23.5t22.5 -35z
" />
    <glyph glyph-name="multiply" unicode="&#xd7;" horiz-adv-x="1210" 
d="M504 1167l248 -311l346 303l86 -104l-351 -309l242 -301l-109 -94l-238 300l-349 -300l-86 104l354 301l-253 318z" />
    <glyph glyph-name="Oslash" unicode="&#xd8;" horiz-adv-x="1490" 
d="M398 765q-18 -94 -18 -182q0 -70 13.5 -131t37.5 -112l7 -15l767 981l-8 6q-86 69 -209 69q-98 0 -180 -35q-82 -34 -150 -93t-120 -138t-87 -167.5t-53 -182.5zM516 211q89 -75 219 -75q98 0 180 35q83 35 150 94t118 139q51 79 85 167.5t52 182.5q17 94 17 182
q0 74 -14 137t-41 113l-7 13l-766 -981zM1429 1590h140l-167 -211l6 -6q60 -70 92 -166q33 -96 33 -217q0 -143 -34 -274t-94 -244q-60 -111 -143 -205q-81 -92 -175 -157t-198 -101t-209 -36q-80 0 -151 22t-132 66l-8 6l-115 -147h-141l176 225l-5 6q-56 70 -87.5 164
t-31.5 212q0 143 34.5 274t95 243.5t141.5 204.5t175.5 157t199.5 101q105 35 211 35q75 0 144 -20.5t128 -60.5l7 -5z" />
    <glyph glyph-name="Ugrave" unicode="&#xd9;" horiz-adv-x="1465" 
d="M1405 1497h194q-23 -63 -51 -165q-32 -113 -72 -275l-138 -556q-30 -119 -84 -217q-54 -96 -136.5 -165t-193.5 -107q-112 -38 -256 -38q-112 0 -192 33q-81 32 -132.5 89t-76.5 133q-25 77 -25 163q0 87 24 181l121 480q39 155 65 271q25 109 30 173h192l-219 -888
q-14 -53 -21.5 -104.5t-7.5 -100.5q0 -59 14 -111q15 -53 48 -91t87 -60t133 -22q185 0 299 110t171 340zM794 2118h191l273 -426h-133z" />
    <glyph glyph-name="Uacute" unicode="&#xda;" horiz-adv-x="1465" 
d="M1405 1497h194q-23 -63 -51 -165q-32 -113 -72 -275l-138 -556q-30 -119 -84 -217q-54 -96 -136.5 -165t-193.5 -107q-112 -38 -256 -38q-112 0 -192 33q-81 32 -132.5 89t-76.5 133q-25 77 -25 163q0 87 24 181l121 480q39 155 65 271q25 109 30 173h192l-219 -888
q-14 -53 -21.5 -104.5t-7.5 -100.5q0 -59 14 -111q15 -53 48 -91t87 -60t133 -22q185 0 299 110t171 340zM1337 2118h231l-503 -426h-149z" />
    <glyph glyph-name="Ucircumflex" unicode="&#xdb;" horiz-adv-x="1465" 
d="M1405 1497h194q-23 -63 -51 -165q-32 -113 -72 -275l-138 -556q-30 -119 -84 -217q-54 -96 -136.5 -165t-193.5 -107q-112 -38 -256 -38q-112 0 -192 33q-81 32 -132.5 89t-76.5 133q-25 77 -25 163q0 87 24 181l121 480q39 155 65 271q25 109 30 173h192l-219 -888
q-14 -53 -21.5 -104.5t-7.5 -100.5q0 -59 14 -111q15 -53 48 -91t87 -60t133 -22q185 0 299 110t171 340zM754 1692h-128l420 426h167l254 -426h-135l-217 294z" />
    <glyph glyph-name="Udieresis" unicode="&#xdc;" horiz-adv-x="1465" 
d="M1405 1497h194q-23 -63 -51 -165q-32 -113 -72 -275l-138 -556q-30 -119 -84 -217q-54 -96 -136.5 -165t-193.5 -107q-112 -38 -256 -38q-112 0 -192 33q-81 32 -132.5 89t-76.5 133q-25 77 -25 163q0 87 24 181l121 480q39 155 65 271q25 109 30 173h192l-219 -888
q-14 -53 -21.5 -104.5t-7.5 -100.5q0 -59 14 -111q15 -53 48 -91t87 -60t133 -22q185 0 299 110t171 340zM1018 1926q8 -20 8 -42q0 -30 -13 -57q-12 -27 -33 -48.5t-49 -33.5t-59 -12q-22 0 -41.5 8.5t-33 24t-21.5 35t-8 42.5q0 26 10.5 53t30.5 48.5t48 34.5q28 14 63 14
q23 0 42 -9q20 -8 34 -23t22 -35zM1455 1926q8 -20 8 -42q0 -30 -12 -57t-34 -48.5t-50 -33.5t-59 -12q-23 0 -42.5 8.5t-33 24t-22 35t-8.5 42.5q0 26 11 53t31 48.5t48 34.5q28 14 63 14q24 0 43 -9q20 -8 34.5 -23t22.5 -35z" />
    <glyph glyph-name="Yacute" unicode="&#xdd;" horiz-adv-x="1337" 
d="M713 10h-205q24 62 53 167q32 121 68 273l45 185l-162 475l-35 99q-17 49 -36.5 99.5t-43.5 102.5q-20 46 -46 96h210l246 -697l561 697h227l-97 -103l-91 -101l-81 -93l-79 -97l-397 -482l-44 -177l-63 -272q-25 -109 -30 -172zM1272 2118h230l-502 -426h-148z" />
    <glyph glyph-name="Thorn" unicode="&#xde;" horiz-adv-x="1206" 
d="M314 10h-208q26 62 54 167l69 273l146 587l36 149l30.5 134.5t21.5 112.5q8 43 11 74h190l-66 -274h12q53 1 100 2.5t108 1.5q107 0 192 -26q85 -25 144.5 -72t90.5 -113.5t31 -149.5q0 -140 -51 -246.5t-141 -177.5q-91 -72 -208 -109q-120 -37 -258 -37
q-27 0 -58.5 0.5t-62.5 1.5q-31 2 -59 4q-29 1 -53 4l-8 1l-2 -8q-5 -16 -15 -55q-9 -39 -18 -84q-10 -46 -18 -92q-8 -40 -10 -68zM410 458l11 -1q48 -6 99 -8q52 -2 111 -2q117 0 203 28t142 79t84 122t28 158q0 51 -17 97q-16 47 -54 83q-37 35 -97 55q-59 21 -143 21
h-64q-27 0 -50 -1l-45 -2q-23 -1 -50 -2h-7z" />
    <glyph glyph-name="germandbls" unicode="&#xdf;" horiz-adv-x="1251" 
d="M504 43l86 165q13 -14 30 -26q25 -18 56 -32t64 -22t64 -8q45 0 91 13q47 12 85 39q38 28 62 70q25 43 25 100q0 32 -13 62q-12 29 -31 55t-43 49.5t-51 43.5q-33 25 -66 55t-59 64q-26 33 -43 71q-15 36 -15 76q0 61 18 106q17 45 47 78q31 35 69 61q39 27 80 50l81 46
q40 23 72 50q32 29 53 64q21 36 21 84q0 45 -22 79q-21 33 -55 56q-33 22 -77 34q-42 11 -88 11q-55 0 -112 -17q-58 -18 -109.5 -56.5t-92 -99.5t-61.5 -147l-291 -1197h-205q16 37 33 85q21 57 41 124t40 142l39 150l160 651q34 138 94 235t138 158.5t167 89.5
q90 28 183 28q98 0 172 -26q74 -27 122 -69q48 -43 71 -97q24 -55 24 -113q0 -92 -32 -151q-31 -59 -80 -98q-49 -40 -105 -66q-54 -26 -105 -54q-50 -27 -84 -63q-35 -38 -35 -97q0 -31 17 -58q16 -26 40 -49q24 -24 52 -45l51 -43q32 -28 63 -60t52.5 -67.5t35.5 -75.5
q13 -39 13 -83q0 -98 -40.5 -171t-106.5 -123t-151 -75q-86 -26 -179 -26q-36 0 -77 7t-78 17t-67 24q-23 11 -38 22z" />
    <glyph glyph-name="agrave" unicode="&#xe0;" 
d="M865 515l-13 -1q-22 -1 -56 -4q-35 -3 -75 -7.5t-78.5 -8t-63.5 -5.5q-51 -5 -99 -20q-48 -16 -86 -40t-65.5 -55.5t-36.5 -66.5q-5 -18 -5 -37q0 -31 14 -58q13 -26 37 -46t55.5 -30.5t69.5 -10.5q80 0 171 47q91 46 182 149l1 2zM989 0h-171q-4 23 -7 59q-4 44 -4 95
v24l-17 -17q-39 -41 -87.5 -76t-100.5 -59.5t-104 -38.5q-51 -13 -97 -13q-62 0 -116 22.5t-93.5 60t-61.5 86.5t-22 100q0 71 34 135t99 115q64 51 158 87q91 36 208 48q27 3 68.5 6.5t83.5 7.5t78 7q34 3 53 4l7 1l16 67q3 12 4 24q1 11 1 23q0 80 -68 124q-63 42 -167 42
q-41 0 -81 -9q-40 -8 -81.5 -24.5t-86.5 -41.5q-36 -19 -77 -44l5 21l17 57l16 57q7 23 13 39l80 33q41 17 84.5 29.5t92 20.5t105.5 8q76 0 140 -20q63 -20 107 -54t68 -79q24 -44 24 -96q0 -13 -2 -27t-5 -27l-96 -392q-16 -66 -22 -123t-6 -111q0 -41 4 -82q3 -35 7 -69z
M504 1662h189l272 -426h-135z" />
    <glyph glyph-name="aacute" unicode="&#xe1;" 
d="M865 515l-13 -1q-22 -1 -56 -4q-35 -3 -75 -7.5t-78.5 -8t-63.5 -5.5q-51 -5 -99 -20q-48 -16 -86 -40t-65.5 -55.5t-36.5 -66.5q-5 -18 -5 -37q0 -31 14 -58q13 -26 37 -46t55.5 -30.5t69.5 -10.5q80 0 171 47q91 46 182 149l1 2zM989 0h-171q-4 23 -7 59q-4 44 -4 95
v24l-17 -17q-39 -41 -87.5 -76t-100.5 -59.5t-104 -38.5q-51 -13 -97 -13q-62 0 -116 22.5t-93.5 60t-61.5 86.5t-22 100q0 71 34 135t98.5 115.5t158.5 86.5q92 36 211 48q27 3 68.5 6.5l84.5 7.5t78.5 7t52.5 4l7 1l15 67q3 12 4 24q1 11 1 23q0 80 -66 124
q-64 42 -169 42q-42 0 -82 -9q-40 -8 -82 -24.5t-88 -41.5q-36 -19 -77 -44l5 21l17 57l17 57l12 39l82 33q41 17 84.5 29.5t92.5 20.5t107 8q77 0 139 -20t105 -54t67 -78.5t24 -96.5q0 -13 -2 -27t-5 -27l-96 -392q-16 -66 -22 -123t-6 -111q0 -41 4 -82q3 -35 7 -69z
M1046 1662h232l-503 -426h-148z" />
    <glyph glyph-name="acircumflex" unicode="&#xe2;" 
d="M865 515l-13 -1q-22 -1 -56 -4q-35 -3 -75 -7.5t-78.5 -8t-63.5 -5.5q-51 -5 -99 -20q-48 -16 -86 -40t-65.5 -55.5t-36.5 -66.5q-5 -18 -5 -37q0 -31 14 -58q13 -26 37 -46t55.5 -30.5t69.5 -10.5q80 0 171 47q91 46 182 149l1 2zM989 0h-171q-4 23 -7 59q-4 44 -4 95
v24l-17 -17q-39 -41 -87.5 -76t-100.5 -59.5t-104 -38.5q-51 -13 -97 -13q-62 0 -116 22.5t-93.5 60t-61.5 86.5t-22 100q0 71 34 135t99 115q64 51 158 87q91 36 209 48q27 3 68.5 6.5t84 7.5t78.5 7t52 4l7 1l15 67q3 12 4 24q1 11 1 23q0 80 -65 124q-64 42 -168 42
q-42 0 -82 -9q-40 -8 -81.5 -24.5t-87.5 -41.5q-36 -19 -77 -44l5 21l17 57l17 57l12 39l81 33q41 17 84.5 29.5t92 20.5t106.5 8q76 0 138 -20q64 -20 107.5 -54t67.5 -79q24 -44 24 -96q0 -13 -2 -27t-5 -27l-96 -392q-16 -66 -22 -123t-6 -111q0 -41 4 -82q3 -35 7 -69z
M466 1236h-128l417 426h165l256 -426h-135l-217 294z" />
    <glyph glyph-name="atilde" unicode="&#xe3;" 
d="M865 515l-13 -1q-22 -1 -56 -4q-35 -3 -75 -7.5t-78.5 -8t-63.5 -5.5q-51 -5 -99 -20q-48 -16 -86 -40t-65.5 -55.5t-36.5 -66.5q-5 -18 -5 -37q0 -31 14 -58q13 -26 37 -46t55.5 -30.5t69.5 -10.5q80 0 171 47q91 46 182 149l1 2zM989 0h-171q-4 23 -7 59q-4 44 -4 95
v24l-17 -17q-39 -41 -87.5 -76t-100.5 -59.5t-104 -38.5q-51 -13 -97 -13q-62 0 -116 22.5t-93.5 60t-61.5 86.5t-22 100q0 71 34 135t99 115q64 51 158 87q92 36 209 48q27 3 68.5 6.5t84 7.5t78.5 7t52 4l7 1l15 67q4 12 5 24q1 11 1 23q0 80 -66 124q-64 42 -168 42
q-42 0 -82 -9q-40 -8 -81.5 -24.5t-87.5 -41.5q-36 -19 -77 -44l5 21l17 57l17 57l12 39l81 33q41 17 84.5 29.5t92 20.5t106.5 8q77 0 138 -20q64 -20 107.5 -54t67.5 -79q24 -44 24 -96q0 -13 -2 -27t-5 -27l-96 -392q-16 -66 -22 -123t-6 -111q0 -41 4 -82q3 -35 7 -69z
M502 1272h-89q11 40 33 79q24 44 57.5 78.5t73.5 55.5q39 21 83 21q41 0 75 -16l85 -37l83 -36q34 -15 70 -15q21 0 40 9t34 23q15 13 27 31q10 15 17 31h91q-12 -42 -34 -81q-25 -45 -60 -79t-78 -54q-42 -21 -88 -21q-40 0 -76 13q-38 14 -79 36q-53 28 -86 41
q-33 14 -64 14q-41 0 -73 -30q-28 -27 -42 -63z" />
    <glyph glyph-name="adieresis" unicode="&#xe4;" 
d="M865 515l-13 -1q-22 -1 -56 -4q-35 -3 -75 -7.5t-78.5 -8t-63.5 -5.5q-51 -5 -99 -20q-48 -16 -86 -40t-65.5 -55.5t-36.5 -66.5q-5 -18 -5 -37q0 -31 14 -58q13 -26 37 -46t55.5 -30.5t69.5 -10.5q80 0 171 47q91 46 182 149l1 2zM989 0h-171q-4 23 -7 59q-4 44 -4 95
v24l-17 -17q-39 -41 -87.5 -76t-100.5 -59.5t-104 -38.5q-51 -13 -97 -13q-62 0 -116.5 22.5t-93.5 60t-61 86.5t-22 100q0 71 34 135t99 115q64 51 158 87q91 36 209 48q27 3 68.5 6.5t84 7.5t78 7t52.5 4l7 1l15 67q3 12 4 24q1 11 1 23q0 80 -66 124q-63 42 -168 42
q-41 0 -81 -9q-40 -8 -81.5 -24.5t-87.5 -41.5q-36 -19 -77 -44l5 21l17 57l17 57l12 39l81 33q41 17 84.5 29.5t92 20.5t105.5 8q77 0 139 -20q64 -20 107.5 -54t67.5 -79q24 -44 24 -96q0 -13 -2 -27t-5 -27l-96 -392q-16 -66 -22 -123t-6 -111q0 -41 4 -82q3 -35 7 -69z
M726.5 1470.5q7.5 -19.5 7.5 -42.5q0 -30 -12 -57t-33 -48t-48 -33q-27 -13 -58 -13q-22 0 -41.5 8.5t-33 23.5t-21.5 35.5t-8 42.5q0 27 10.5 53.5t30 48t48.5 34.5q28 14 62 14q23 0 42 -8.5t33 -23.5t21.5 -34.5zM1165 1470.5q8 -19.5 8 -42.5q0 -30 -13 -57
q-12 -27 -33.5 -48t-50.5 -33q-28 -13 -60 -13q-23 0 -43 8.5t-33.5 23.5t-21.5 36q-8 20 -8 42q0 27 10 53.5t30.5 48t49.5 34.5q29 14 65 14q23 0 43 -8.5t34.5 -23.5t22.5 -34.5z" />
    <glyph glyph-name="aring" unicode="&#xe5;" 
d="M865 515l-13 -1q-22 -1 -56 -4q-35 -3 -75 -7.5t-78.5 -8t-63.5 -5.5q-51 -5 -99 -20q-48 -16 -86 -40t-65.5 -55.5t-36.5 -66.5q-5 -18 -5 -37q0 -31 14 -58q13 -26 37 -46t55.5 -30.5t69.5 -10.5q80 0 171 47q91 46 182 149l1 2zM989 0h-171q-4 23 -7 59q-4 44 -4 95
v24l-17 -17q-39 -41 -87.5 -76t-100.5 -59.5t-104 -38.5q-51 -13 -97 -13q-62 0 -116 22.5t-93.5 60t-61.5 86.5t-22 100q0 71 34 135t99 115q64 51 158 87q91 36 208 48q27 3 68.5 6.5t83.5 7.5t78 7q34 3 53 4l7 1l16 67q3 12 4 24q1 11 1 23q0 80 -68 124q-63 42 -167 42
q-41 0 -81 -9q-40 -8 -81.5 -24.5t-86.5 -41.5q-36 -19 -77 -44l5 21l17 57l16 57q7 23 13 39l80 33q41 17 84.5 29.5t92 20.5t105.5 8q76 0 140 -20q63 -20 107 -54t68 -79q24 -44 24 -96q0 -13 -2 -27t-5 -27l-96 -392q-16 -66 -22 -123t-6 -111q0 -41 4 -82q3 -35 7 -69z
M605 1341.5q-13 31.5 -13 67.5q0 50 21 96t57 80.5t83 55.5t98 21q38 0 71 -13.5t57 -37t37.5 -55.5t13.5 -68q0 -50 -22 -96q-23 -46 -60 -80.5t-86 -55.5q-47 -20 -98 -20q-39 0 -70 13t-53.5 37t-35.5 55.5zM715 1358q24 -23 67 -23q26 0 52 11q25 10 46 30q20 19 33 45
t13 57q0 38 -26 61q-25 23 -68 23q-27 0 -52 -11q-24 -10 -44 -29.5t-32 -45.5q-12 -27 -12 -57q0 -38 23 -61z" />
    <glyph glyph-name="ae" unicode="&#xe6;" horiz-adv-x="1750" 
d="M1496 924q-31 10 -64 10q-58 0 -115 -21q-57 -20 -108.5 -58.5t-92.5 -92.5t-68 -121l-5 -12l13 -2q53 -6 98 -9t89 -3q90 0 156 14q67 13 111 37q45 23 68 57q24 35 24 75q0 31 -14 56t-38 42q-23 18 -54 28zM844 369v34q0 27 1 53q2 26 7 56l3 13l-13 -1
q-20 -1 -56.5 -4t-76.5 -8l-80 -8l-64 -5q-54 -5 -100 -21q-46 -15 -81 -39q-35 -25 -59 -56t-33 -66q-5 -18 -5 -37q0 -31 14 -58q13 -26 37 -46t56.5 -30.5t71.5 -10.5q45 0 94 15q50 16 100 45.5t97 72.5t85 98zM1670 256l-12 -172q-40 -20 -88 -40q-52 -21 -107 -36
q-57 -15 -117 -25q-60 -9 -120 -9q-137 0 -224.5 61t-125.5 164l-6 15l-11 -12q-42 -50 -97 -91.5t-115.5 -72.5t-123.5 -47q-62 -17 -121 -17q-63 0 -117 22.5t-93.5 60t-61.5 86.5t-22 100q0 71 35 136q36 66 101 117.5t154 86.5q88 35 194 45q27 2 69.5 5.5t85.5 7.5
q44 5 80 8t53 4l7 1l15 67q4 12 5 24q1 11 1 23q0 80 -67 124q-65 42 -171 42q-44 0 -84 -9q-40 -8 -82.5 -24.5t-88.5 -41.5l-79 -44l6 21l16 58l18 56l12 39l83 33q42 17 86 29.5t93 20.5t108 8q122 0 193 -46q69 -45 90 -122l4 -16l12 12q83 79 192 126q108 47 237 47
q77 0 135 -21t94.5 -55.5t54 -76.5t17.5 -84q0 -71 -28 -135q-27 -64 -88 -113t-159 -77q-97 -29 -237 -29q-57 0 -117 5t-132 14l-10 1l-1 -10q-3 -28 -3 -56q0 -65 15 -124q14 -59 45 -102q32 -44 81.5 -69.5t118.5 -25.5q49 0 102.5 10t107.5 30q54 19 107 46
q42 21 81 47z" />
    <glyph glyph-name="ccedilla" unicode="&#xe7;" horiz-adv-x="1008" 
d="M930 240l-12 -156q-43 -27 -86 -48t-87 -35t-93 -20q-35 -5 -72 -6h-8l-22 -98l15 4q11 3 21.5 4.5t26.5 1.5q54 0 83 -36q31 -36 31 -91q0 -57 -28 -104q-28 -48 -72 -82q-46 -34 -101.5 -53t-109.5 -19q-38 0 -69 11q-26 9 -50 24l29 83q16 -11 33 -17q24 -8 59 -8
q27 0 57 8t56 25t43 42q18 27 18 62q0 37 -25 59q-24 22 -63 22q-25 0 -53 -8q-15 -4 -29 -10l44 186l-10 2q-32 7 -63 20q-74 29 -128.5 84.5t-86 135t-31.5 179.5q0 141 51.5 265.5t143.5 215.5q92 92 209 145q119 53 257 53q42 0 86 -6q44 -8 82.5 -21t72.5 -32
q28 -16 51 -34l-76 -176q-56 45 -116 70q-67 27 -147 27q-95 0 -174 -44q-78 -43 -135 -114q-57 -70 -89 -157t-32 -174q0 -68 19 -122t55 -93q34 -39 83 -60q49 -20 111 -20q94 0 178 33q76 30 153 82z" />
    <glyph glyph-name="egrave" unicode="&#xe8;" horiz-adv-x="1064" 
d="M807 934q-32 10 -69 10q-58 0 -116 -21t-109 -60.5t-92 -95.5q-41 -57 -68 -125l-5 -13l13 -2q58 -6 104 -9q47 -3 89 -3q87 0 154 14t112 38q46 25 71 59q25 36 25 78q0 31 -15 58q-14 25 -39 43q-23 19 -55 29zM984 256l-12 -172q-40 -20 -88 -40q-52 -21 -106 -36
q-56 -15 -117 -24.5t-123 -9.5q-99 0 -172 32q-75 31 -124 88t-73 136t-24 171q0 87 22 171.5t63 160.5t100 139.5t130 110t154.5 72.5t176.5 26q80 0 140 -21q60 -22 98 -56t55 -76q18 -42 18 -84q0 -71 -30 -135q-29 -64 -92 -113t-162 -77q-97 -29 -233 -29
q-108 0 -255 19l-10 1l-1 -10q-3 -28 -3 -56q0 -65 15 -124t48 -102q32 -44 82 -69q51 -26 122 -26q51 0 105.5 10t108.5 30q52 18 106 46q42 21 81 47zM535 1662h188l273 -426h-136z" />
    <glyph glyph-name="eacute" unicode="&#xe9;" horiz-adv-x="1064" 
d="M812 934q-32 10 -69 10q-59 0 -118 -21t-110.5 -60.5t-92.5 -95.5q-42 -57 -69 -125l-5 -13l13 -2q57 -6 105 -9t90 -3q88 0 156 14t113 38q46 24 71 59q24 36 24 78q0 31 -14 58q-14 25 -38 43q-23 18 -56 29zM986 256l-11 -172q-39 -20 -86 -40q-50 -20 -106.5 -35.5
t-118 -25t-124.5 -9.5q-100 0 -174 32q-75 31 -124 88t-73 136t-24 171q0 87 22 171.5t63 160.5t100 139.5t131 110t156.5 72.5t178.5 26q81 0 139 -21q58 -22 95 -56t54 -76q18 -42 18 -84q0 -71 -30 -135q-29 -64 -90 -113t-159 -77q-97 -29 -236 -29q-109 0 -257 19
l-10 1l-1 -10q-3 -28 -3 -56q0 -65 15 -124t48 -102q32 -44 83 -69.5t123 -25.5q53 0 108 10t109 29.5t105 46.5q42 21 79 47zM1076 1662h232l-502 -426h-148z" />
    <glyph glyph-name="ecircumflex" unicode="&#xea;" horiz-adv-x="1064" 
d="M810 934q-32 10 -69 10q-59 0 -117.5 -21t-110 -60.5t-91.5 -95.5q-42 -57 -69 -125l-5 -13l13 -2q57 -6 104 -9q48 -3 90 -3q88 0 155 14q68 14 113 38q46 24 70 59q25 36 25 78q0 31 -15 58q-14 25 -37 43t-56 29zM984 256l-12 -172q-40 -21 -85 -40
q-50 -20 -106.5 -35.5t-117.5 -25t-124 -9.5q-99 0 -173 32q-75 31 -124 88t-73 136t-24 171q0 87 22 171.5t63 160.5t100 139.5t130.5 110t156 72.5t177.5 26q80 0 138 -21q59 -22 97 -56t55 -76q18 -42 18 -84q0 -71 -30 -135q-29 -64 -92 -113t-159 -77q-97 -29 -235 -29
q-108 0 -256 19l-10 1l-1 -10q-3 -28 -3 -56q0 -65 15 -124t48 -102q32 -44 83 -69q50 -26 122 -26q52 0 107 10t109 29.5t105 46.5q39 20 79 47zM497 1236h-128l417 426h165l256 -426h-135l-217 294z" />
    <glyph glyph-name="edieresis" unicode="&#xeb;" horiz-adv-x="1064" 
d="M810 934q-32 10 -69 10q-59 0 -117.5 -21t-110 -60.5t-91.5 -95.5q-42 -57 -69 -125l-5 -13l13 -2q57 -6 104 -9q48 -3 90 -3q88 0 155 14q68 14 113 38q46 24 70 59q24 36 24 78q0 31 -14 58q-14 25 -37 43t-56 29zM984 256l-12 -172q-40 -21 -85 -40
q-50 -20 -106.5 -35.5t-117.5 -25t-124 -9.5q-99 0 -173 32q-75 31 -124 88t-73 136t-24 171q0 87 22 171.5t63 160.5t100 139.5t130.5 110t156 72.5t177.5 26q80 0 138 -21q59 -22 97 -56t55 -76q18 -42 18 -84q0 -71 -30 -135q-29 -64 -92 -113t-159 -77q-97 -29 -235 -29
q-108 0 -256 19l-10 1l-1 -10q-3 -28 -3 -56q0 -65 15 -124t48 -102q32 -44 83 -69q50 -26 122 -26q52 0 107 10t109 29.5t104 46.5q40 20 80 47zM757.5 1470.5q7.5 -19.5 7.5 -42.5q0 -30 -12 -57t-33 -48t-48 -33q-27 -13 -58 -13q-23 0 -42 8.5t-32.5 23.5t-21.5 35.5
t-8 42.5q0 27 10.5 53.5t30.5 48t47 34.5q28 14 63 14q23 0 41 -9q20 -8 34 -23t21.5 -34.5zM1195 1470.5q8 -19.5 8 -42.5q0 -30 -12 -57t-34 -48t-50 -33q-28 -13 -60 -13q-23 0 -43 8.5t-34 23.5t-22 36q-8 20 -8 42q0 27 10.5 53.5t31.5 48.5q20 21 49 34q29 14 65 14
q23 0 43 -8.5t34 -23.5t22 -34.5z" />
    <glyph glyph-name="igrave" unicode="&#xec;" horiz-adv-x="567" 
d="M355 1050h181q-1 -32 -9 -78q-9 -55 -23 -121t-31 -138l-36 -143l-48 -189q-15 -57 -21 -119q-6 -61 -6 -118q0 -40 4 -78q2 -30 6 -56h-192q-5 33 -5 82q0 67 11.5 151t32.5 165l42 158l33 128q17 67 30 133t22 126q8 53 9 97zM240 1662h197l278 -426h-136z" />
    <glyph glyph-name="iacute" unicode="&#xed;" horiz-adv-x="547" 
d="M355 1050h174q-1 -32 -8 -78q-8 -55 -21.5 -121l-29.5 -138l-34 -143l-47 -189q-15 -57 -21 -119q-6 -61 -6 -118q0 -40 4 -78q2 -30 6 -56h-192q-5 33 -5 82q0 67 11.5 151t32.5 165l42 158l33 128q17 67 30 133t22 126q8 53 9 97zM775 1662h232l-495 -426h-147z" />
    <glyph glyph-name="icircumflex" unicode="&#xee;" horiz-adv-x="547" 
d="M338 1050h171q-1 -32 -8 -78q-8 -55 -21.5 -121l-29.5 -138l-34 -143l-45 -189q-14 -57 -20 -119q-6 -61 -6 -118q0 -40 3 -78q3 -30 7 -56h-189q-5 33 -5 82q0 67 11 151t32 165l42 158l33 128q18 69 30 133q12 66 21 126q7 53 8 97zM185 1236h-131l421 426h161
l256 -426h-135l-215 294z" />
    <glyph glyph-name="idieresis" unicode="&#xef;" horiz-adv-x="547" 
d="M355 1050h172q-1 -32 -8 -78q-8 -55 -21 -121t-29 -138l-33 -143l-47 -189q-15 -57 -21 -119q-6 -61 -6 -118q0 -40 4 -78q2 -30 6 -56h-192q-5 33 -5 82q0 67 11.5 151t32.5 165l42 158l33 128q17 67 30 133t22 126q8 53 9 97zM465.5 1470.5q7.5 -19.5 7.5 -42.5
q0 -30 -11.5 -57t-31.5 -48q-20 -20 -49 -33q-28 -13 -60 -13q-24 0 -43.5 8.5t-33.5 23.5t-22.5 35.5t-8.5 42.5q0 27 11 53.5t31.5 48t49.5 34.5q28 14 64 14q24 0 43 -9q19 -8 33 -23q13 -15 20.5 -34.5zM894 1470.5q8 -19.5 8 -42.5q0 -30 -12 -57t-34 -48t-50 -33
q-28 -13 -60 -13q-24 0 -43.5 8.5t-33.5 23.5t-22 36q-8 20 -8 42q0 27 11 54q10 26 31 48q20 21 49 34q29 14 65 14q23 0 43 -8.5t34 -23.5t22 -34.5z" />
    <glyph glyph-name="eth" unicode="&#xf0;" horiz-adv-x="1181" 
d="M485.5 788.5q-96.5 -83.5 -139.5 -253.5q-16 -67 -16 -124q0 -65 18 -118t51 -91q32 -39 77.5 -60.5t103.5 -21.5q72 0 132 27t107 76q48 49 82 118q34 68 54 152q14 56 14 109q0 58 -18 107t-50.5 85.5t-77 57t-97.5 20.5q-144 0 -240.5 -83.5zM1058 1412l5 -9
q60 -114 91 -238q32 -128 32 -251q0 -78 -7 -166t-26 -165q-41 -164 -100 -282q-58 -115 -135 -188q-76 -73 -171 -106t-208 -33q-86 0 -157 31q-72 31 -123 86.5t-79.5 132t-28.5 164.5q0 73 19 153q30 126 93.5 219t141.5 155q76 62 159 92.5t158 30.5q57 0 101 -11
q45 -10 80.5 -30.5t66.5 -49.5q30 -29 57 -66l18 -25l-1 31q-2 109 -34 223q-33 112 -90 216l-5 8l-275 -149l-54 101l266 145l-7 9q-42 51 -88 94q-39 37 -84 66l169 80q86 -67 154 -162l4 -7l274 146l58 -100z" />
    <glyph glyph-name="ntilde" unicode="&#xf1;" horiz-adv-x="1226" 
d="M1078 20h-172q-3 13 -4 29q-3 20 -3 43q0 30 2 63t7 69q3 30 12 73l20 91l24 99q14 56 23 96q10 46 16.5 84.5t7.5 63.5q0 97 -39.5 143.5t-113.5 46.5q-36 0 -77 -24t-85 -63q-43 -39 -87.5 -90.5t-83.5 -108.5l-76 -115q-34 -60 -56 -114v-1l-96 -385h-175l153 619
q8 33 15 80q6 46 10.5 97.5t7 106.5t2.5 106v31h172q0 -6 1 -12v-24q0 -34 -3 -74t-7.5 -82t-10.5 -79q-6 -38 -12 -64l-15 -56l32 47q54 80 111 146q58 67 121 116q62 48 128 76q65 27 133 27q125 0 183 -74q59 -74 59 -207q0 -28 -7 -72q-8 -44 -20 -96l-26 -107l-28 -104
l-24 -92q-11 -41 -14 -66q-6 -40 -9 -76q-4 -36 -4 -69q0 -30 2 -58q2 -20 6 -40zM564 1272h-88q12 41 33 79q24 44 57.5 78.5t72.5 55.5t83 21q41 0 75 -16l85 -37l82 -36q33 -15 69 -15q21 0 40 9t34.5 22.5t27.5 32.5q9 14 17 30h91q-13 -42 -34 -81q-26 -45 -61 -79
t-78 -54q-42 -21 -88 -21q-39 0 -75 13q-37 14 -79 36q-52 28 -85 41q-34 14 -63 14q-43 0 -74 -30q-27 -27 -42 -63z" />
    <glyph glyph-name="ograve" unicode="&#xf2;" horiz-adv-x="1160" 
d="M840 914q-44 20 -99 20q-92 0 -168 -50q-75 -50 -128 -127q-53 -78 -83 -172q-29 -94 -29 -185q0 -65 17.5 -116.5t49.5 -88.5q32 -36 76 -56q44 -19 100 -19q62 0 116 22t99 62q46 39 81 91q35 51 60 111q25 58 38.5 120.5t13.5 124.5q0 64 -18 117q-17 53 -50 90
q-32 36 -76 56zM180.5 198.5q-29.5 71.5 -29.5 163.5q0 88 20.5 176t59.5 168t97 148q56 68 126 119q69 51 151 79.5t177 28.5q84 0 154 -27q72 -27 122.5 -77t79.5 -123q28 -72 28 -164q0 -90 -20 -177t-58.5 -167t-95.5 -149q-55 -67 -124 -117q-68 -50 -149.5 -78
t-172.5 -28q-84 0 -155 27q-74 27 -127.5 76.5t-83 121zM536 1662h190l271 -426h-134z" />
    <glyph glyph-name="oacute" unicode="&#xf3;" horiz-adv-x="1160" 
d="M843.5 914q-44.5 20 -99.5 20q-93 0 -170 -50q-75 -50 -128.5 -127.5t-83.5 -171.5q-29 -94 -29 -185q0 -65 18 -117q17 -51 50 -88q31 -36 76 -56q44 -19 101 -19q62 0 116 22q55 22 100 62q46 39 81.5 91t60 110.5t37.5 121t13 124.5q0 64 -17 117t-49 89.5t-76.5 56.5
zM180.5 198.5q-29.5 71.5 -29.5 163.5q0 88 20.5 176t59.5 168t97 148q56 68 126 119t153 79.5t178 28.5q85 0 155 -27q69 -27 119 -77q51 -51 79 -123t28 -164q0 -90 -20 -177t-59 -167q-39 -81 -93 -149t-122.5 -117.5t-150.5 -77.5t-174 -28q-84 0 -156 27
q-74 27 -127.5 76.5t-83 121zM1077 1662h232l-502 -426h-148z" />
    <glyph glyph-name="ocircumflex" unicode="&#xf4;" horiz-adv-x="1160" 
d="M841.5 914q-44.5 20 -99.5 20q-93 0 -169 -50q-75 -50 -128 -127.5t-83 -171.5q-29 -94 -29 -185q0 -65 18 -117q17 -51 49 -88q32 -36 76 -56q45 -19 101 -19q61 0 116 22q54 22 99 62q46 39 81.5 91t59.5 111q23 58 37 121q14 62 14 124q0 64 -18 117q-17 54 -48.5 90
t-76 56zM180.5 198.5q-29.5 71.5 -29.5 163.5q0 88 20.5 176t59.5 168t97 148q56 68 126 119q69 51 151.5 79.5t177.5 28.5q85 0 154 -27q71 -27 122 -77q50 -50 79 -123q28 -72 28 -164q0 -90 -20 -177t-58.5 -167t-95.5 -149q-56 -69 -123 -117q-68 -50 -149.5 -78
t-172.5 -28q-84 0 -156 27q-74 27 -127.5 76.5t-83 121zM498 1236h-128l417 426h165l256 -426h-135l-217 294z" />
    <glyph glyph-name="otilde" unicode="&#xf5;" horiz-adv-x="1160" 
d="M841.5 914q-44.5 20 -99.5 20q-93 0 -168 -50t-128.5 -127.5t-83.5 -171.5q-29 -94 -29 -185q0 -65 18 -117q17 -51 49 -88q32 -36 76 -56q45 -19 101 -19q61 0 116 22q54 22 99 62q46 39 81.5 91t59.5 111q24 58 37 121q14 62 14 124q0 64 -17 117q-18 53 -49.5 89.5
t-76 56.5zM180.5 198.5q-29.5 71.5 -29.5 163.5q0 88 20.5 176t59.5 168t97 148q56 68 126 119q69 51 151.5 79.5t177.5 28.5q85 0 154 -27q71 -27 122 -77q50 -50 79 -123q28 -72 28 -164q0 -90 -20 -177t-58.5 -167t-95.5 -149q-56 -68 -123 -117q-68 -50 -149.5 -78
t-172.5 -28q-84 0 -156 27q-74 27 -127.5 76.5t-83 121zM533 1272h-88q12 40 33 79q24 44 57.5 78.5t73.5 55.5t83 21q41 0 75 -16l85 -37l83 -36q34 -15 70 -15q21 0 40 9t34 23t26 32q10 14 17 30h92q-13 -42 -34 -81q-25 -45 -60.5 -79t-78.5 -54q-42 -21 -87 -21
q-40 0 -76 13q-38 14 -80 36q-52 28 -85 41q-34 14 -64 14q-41 0 -73 -30q-28 -27 -43 -63z" />
    <glyph glyph-name="odieresis" unicode="&#xf6;" horiz-adv-x="1160" 
d="M841 914q-44 20 -99 20q-93 0 -169 -50q-75 -50 -128 -127.5t-83 -171.5q-29 -94 -29 -185q0 -65 18 -117q17 -51 49 -88q32 -36 76 -56q45 -19 101 -19q61 0 116 22q54 22 99 62q46 39 81.5 91t59.5 111q23 58 37 120.5t14 124.5q0 64 -18 117q-17 54 -49 90t-76 56z
M180.5 198.5q-29.5 71.5 -29.5 163.5q0 88 20.5 176t59.5 168t97 148q56 68 126 119q69 51 151.5 79.5t177.5 28.5q84 0 154 -27q71 -27 122 -77q50 -50 79 -123q28 -72 28 -164q0 -90 -20 -177t-58.5 -167t-95.5 -149t-123 -117q-68 -50 -149.5 -78t-172.5 -28
q-85 0 -156 27q-74 27 -127.5 76.5t-83 121zM758.5 1470.5q7.5 -19.5 7.5 -42.5q0 -30 -12 -57t-32.5 -48t-48.5 -33q-27 -13 -58 -13q-23 0 -42 8.5t-32.5 23.5t-21.5 35.5t-8 42.5q0 27 10.5 53.5t30.5 48t48 34.5q27 14 63 14q22 0 41 -9q19 -8 33 -23t21.5 -34.5z
M1196 1470.5q8 -19.5 8 -42.5q0 -30 -12 -57t-34 -48t-50 -33q-28 -13 -60 -13q-23 0 -43 8.5t-34 23.5t-22 36q-8 20 -8 42q0 27 10.5 53.5t31.5 48.5q20 21 49 34q29 14 65 14q23 0 43 -8.5t34 -23.5t22 -34.5z" />
    <glyph glyph-name="divide" unicode="&#xf7;" horiz-adv-x="1210" 
d="M268 685l34 136h903l-34 -136h-903zM687 1033q-9 20 -9 43q0 31 14 58q14 29 37 49q23 21 52 34t60 13q23 0 42 -10q20 -9 35 -24t23.5 -35.5t8.5 -43.5q0 -31 -13 -59q-12 -28 -35 -49q-22 -22 -51 -35q-28 -13 -59 -13q-23 0 -44 9t-36.5 25.5t-24.5 37.5zM529 360
q-9 20 -9 44q0 31 13 58q14 28 37 49t52.5 33t60.5 12q22 0 42 -9t34.5 -25t23 -36.5t8.5 -43.5q0 -31 -13 -58q-13 -28 -35 -49.5t-50.5 -34t-58.5 -12.5q-24 0 -44.5 9t-36 25.5t-24.5 37.5z" />
    <glyph glyph-name="oslash" unicode="&#xf8;" horiz-adv-x="1160" 
d="M852 908q-52 26 -122 26q-92 0 -168 -49q-75 -49 -129 -124q-52 -75 -81 -167q-30 -92 -30 -181q0 -92 29 -150l7 -14l504 653zM959 517q14 61 14 121q0 95 -33 160l-7 13l-507 -658l11 -6q50 -27 128 -27q62 0 116 22q54 21 100 60q45 38 80.5 88.5t60.5 108.5
q24 58 37 118zM1058 1150h129l-138 -176l6 -6q48 -50 74 -120t26 -159t-20 -176.5t-58.5 -167.5t-95.5 -148q-56 -69 -123 -117q-68 -50 -150 -78t-173 -28q-58 0 -108 12q-49 11 -94 34l-8 4l-82 -103h-131l130 165l-6 7q-46 50 -71 117.5t-25 152.5q0 88 21 176t60 167.5
t96 148.5q58 69 125 118q69 51 152 79.5t178 28.5q104 0 188 -41l7 -3z" />
    <glyph glyph-name="ugrave" unicode="&#xf9;" horiz-adv-x="1205" 
d="M1061 0h-169q0 73 3 147q3 78 18 164l7 42l-25 -34q-52 -74 -112 -137t-122.5 -109t-123.5 -73q-60 -27 -112 -27q-118 0 -181.5 63.5t-63.5 191.5q0 40 7 83q7 44 20 96l74 307l21 89q10 41 18 80t13 79q5 36 10 78h184q-5 -55 -19 -122q-16 -75 -42 -181l-70 -278
q-29 -117 -29 -172q0 -84 34 -123q34 -41 89 -41q27 0 66 21q38 20 81 55q43 34 88.5 79.5t87.5 96.5t79 105q44 63 63 105l1 1v1l35 145q17 65 29 119q13 55 20 103q6 43 10 86h186q-4 -38 -14 -90q-13 -61 -31 -136l-41 -160q-23 -86 -45 -180q-21 -91 -34 -192
q-14 -100 -14 -186q0 -31 1 -57q1 -20 3 -39zM557 1662h190l270 -426h-132z" />
    <glyph glyph-name="uacute" unicode="&#xfa;" horiz-adv-x="1205" 
d="M1061 0h-169q0 73 3 147q3 78 18 164l7 42l-25 -34q-52 -74 -112 -137t-122.5 -109t-123.5 -73q-60 -27 -112 -27q-118 0 -181.5 63.5t-63.5 191.5q0 40 7 83q7 44 20 96l74 307l21 89q10 41 18 80t13 79q5 36 10 78h184q-4 -55 -19 -122q-16 -75 -42 -181l-70 -278
q-29 -117 -29 -172q0 -84 34 -123q34 -41 89 -41q27 0 66 21q38 20 81 55q43 34 88.5 79.5t87.5 96.5t79 105q51 73 66 105v1l1 1l35 145q16 65 28 119q12 55 19 103q6 43 10 86h185q-4 -38 -14 -90q-13 -61 -31 -136l-41 -160q-23 -86 -45 -180q-21 -91 -34 -192
q-14 -100 -14 -186q0 -31 1 -57q1 -20 3 -39zM1098 1662h232l-503 -426h-147z" />
    <glyph glyph-name="ucircumflex" unicode="&#xfb;" horiz-adv-x="1205" 
d="M1061 0h-169q0 73 3 147q3 78 18 164l7 42l-25 -34q-52 -74 -112 -137t-122.5 -109t-123.5 -73q-60 -27 -112 -27q-118 0 -181.5 63.5t-63.5 191.5q0 40 7 83q7 44 20 96l74 307l21 89q10 41 18 80t13 79q5 36 10 78h184q-5 -55 -19 -122q-16 -75 -42 -181l-70 -278
q-29 -117 -29 -172q0 -84 34 -123q34 -41 89 -41q27 0 66 21q38 20 81 55q43 34 88.5 79.5t87.5 96.5t79 105q44 63 63 105l1 1v1l35 145q17 65 29 119q13 55 20 103q6 43 10 86h186q-4 -38 -14 -90q-13 -61 -31 -136l-41 -160q-23 -86 -45 -180q-21 -91 -34 -192
q-14 -100 -14 -186q0 -31 1 -57q1 -20 3 -39zM518 1236h-128l418 426h164l256 -426h-135l-217 294z" />
    <glyph glyph-name="udieresis" unicode="&#xfc;" horiz-adv-x="1205" 
d="M1061 0h-169q0 73 3 147q3 78 18 164l7 42l-25 -34q-52 -74 -112 -137t-122.5 -109t-123.5 -73q-60 -27 -112 -27q-118 0 -181.5 63.5t-63.5 191.5q0 40 7 83q7 44 20 96l74 307l21 89q10 41 18 80t13 79q5 36 10 78h184q-5 -55 -19 -122q-16 -75 -42 -181l-70 -278
q-29 -117 -29 -172q0 -84 34 -123q34 -41 89 -41q27 0 66 21q38 20 81 55q43 34 88.5 79.5t87.5 96.5t79 105q44 63 63 105l1 1v1l35 145q17 65 29 119q13 55 20 103q6 43 10 86h186q-4 -38 -14 -90q-13 -61 -31 -136l-41 -160q-23 -86 -45 -180q-21 -91 -34 -192
q-14 -100 -14 -186q0 -31 1 -57q1 -20 3 -39zM778.5 1470.5q7.5 -19.5 7.5 -42.5q0 -30 -11.5 -57t-32.5 -48t-49 -33q-27 -13 -57 -13q-23 0 -42 8.5t-33 24t-22 35.5t-8 42q0 27 11 53.5t30.5 48t47.5 34.5q28 14 63 14q22 0 41.5 -8.5t33 -23.5t21 -34.5zM1217 1470.5
q8 -19.5 8 -42.5q0 -30 -13 -57q-12 -27 -34 -48t-50 -33q-28 -13 -60 -13q-23 0 -43 8.5t-34 23.5q-13 15 -22 36q-8 20 -8 42q0 27 11 54t31 48t49 34q29 14 65 14q23 0 43 -8.5t34.5 -23.5t22.5 -34.5z" />
    <glyph glyph-name="yacute" unicode="&#xfd;" horiz-adv-x="994" 
d="M145 1040h198q23 -35 47 -86q25 -55 48 -124t42.5 -148t34.5 -162.5t23 -167.5t8 -162v-36l18 31q68 113 126.5 228.5t102.5 222.5t68 198q25 93 25 159q0 26 -3 47h191q2 -12 2 -28q0 -61 -33 -165q-33 -105 -96 -240q-65 -138 -148 -291q-84 -157 -188 -321
q-93 -146 -174 -241t-155 -149q-73 -55 -139.5 -76.5t-131.5 -21.5q-71 0 -126 25q-53 23 -97 60l93 149q11 -10 25 -20q20 -15 43 -26.5t50 -19.5q28 -8 55 -8q33 0 73.5 14.5t85.5 50.5q45 35 95 92t106 144l1 2v3q-2 169 -26 332.5t-62.5 306.5t-89.5 258
q-44 102 -92 170zM910 1662h232l-504 -426h-148z" />
    <glyph glyph-name="thorn" unicode="&#xfe;" horiz-adv-x="1216" 
d="M476 1664h177q-1 -32 -6 -79q-6 -56 -15 -122t-22.5 -138.5t-29.5 -141.5q-6 -29 -16 -72l-24 -93l-26 -104l-28 -104l-13 -48l30 39q46 60 101 111t113 89t117 59q58 21 112 21q68 0 119 -26.5t84 -72.5q34 -47 50 -113q17 -66 17 -144q0 -98 -22.5 -189.5t-63.5 -173
t-96 -150.5q-56 -69 -120 -122q-75 -60 -157.5 -88t-165.5 -28q-41 0 -75 8t-64 22q-30 16 -59 37l-60 47l-12 9l-71 -290q-21 -86 -32 -169q-9 -77 -10 -147h-187q1 28 4 60q5 39 12.5 80.5t16.5 84.5l20 87l330 1378l28 128t23.5 133.5t15.5 126.5q4 53 5 95zM363 260
l5 -4l76 -64q34 -27 63.5 -41.5t58.5 -21t66 -6.5q62 0 115 26q52 26 97 69q44 42 78 97q34 54 58 114q25 60 37 122.5t12 120.5q0 111 -42 179q-42 70 -124 70q-44 0 -99 -28q-53 -27 -111 -77t-117.5 -123t-112.5 -165l-1 -1z" />
    <glyph glyph-name="ydieresis" unicode="&#xff;" horiz-adv-x="994" 
d="M144 1040h198q24 -35 47 -86q25 -55 48.5 -124t42.5 -148t34 -162.5t23 -167t8 -162.5v-36l18 31q68 113 126.5 228.5t102.5 222.5q44 108 69 198q25 93 25 159q0 26 -4 47h192q2 -12 2 -28q0 -61 -33 -165q-33 -105 -96 -240q-61 -129 -149 -291q-85 -157 -188 -321
q-93 -146 -174 -241t-154 -149q-73 -55 -139.5 -76.5t-131.5 -21.5q-71 0 -126 25q-53 23 -97 60l93 149q11 -10 25 -20q20 -15 43 -26.5t50 -19.5q28 -8 55 -8q33 0 73 14.5t86 50.5q44 35 94.5 92t105.5 144l1 2v3q-2 169 -26 332.5t-62.5 306.5t-88.5 258
q-45 102 -93 170zM590.5 1470.5q7.5 -19.5 7.5 -42.5q0 -30 -12 -57q-13 -27 -33.5 -48t-48.5 -33q-28 -13 -58 -13q-24 0 -43 8.5t-33 23.5t-22 35.5t-8 42.5q0 27 10.5 53.5t31 48t48.5 34.5q28 14 62 14q24 0 43 -9q19 -8 33.5 -23t22 -34.5zM1029 1470.5
q8 -19.5 8 -42.5q0 -30 -12 -57t-34 -48t-50 -33q-28 -13 -60 -13q-24 0 -43 9q-20 8 -33.5 23t-22 35.5t-8.5 42.5q0 27 10.5 53.5t31 48t49.5 34.5q28 14 64 14q24 0 43 -9q20 -8 34.5 -23t22.5 -34.5z" />
    <glyph glyph-name="Amacron" unicode="&#x100;" horiz-adv-x="1438" 
d="M973 1344l-471 -793h556zM1116 10l-44 400h-654l-236 -400h-203l35 50l51 78l63 98l80 128l694 1143h208l135 -1139q9 -72 17 -127l15 -99q6 -44 13 -78q5 -28 11 -54h-185zM639 1764l34 136h762l-34 -136h-762z" />
    <glyph glyph-name="amacron" unicode="&#x101;" 
d="M865 515l-13 -1q-22 -1 -56 -4q-35 -3 -75 -7.5t-78.5 -8t-63.5 -5.5q-51 -5 -99 -20q-48 -16 -86 -40t-65.5 -55.5t-36.5 -66.5q-5 -18 -5 -37q0 -31 14 -58q13 -26 37 -46t55.5 -30.5t69.5 -10.5q80 0 171 47q91 46 182 149l1 2zM989 0h-171q-4 23 -7 59q-4 44 -4 95
v24l-17 -17q-39 -41 -87.5 -76t-100.5 -59.5t-104 -38.5q-51 -13 -97 -13q-62 0 -116 22.5t-93.5 60t-61.5 86.5t-22 100q0 71 34 135t99 115q64 51 158 87q91 36 209 48q27 3 68.5 6.5t84 7.5t78.5 7t52 4l7 1l15 67q3 12 4 24q1 11 1 23q0 80 -65 124q-64 42 -168 42
q-42 0 -82 -9q-40 -8 -81.5 -24.5t-87.5 -41.5q-36 -19 -77 -44l5 21l17 57l17 57l12 39l81 33q41 17 84.5 29.5t92 20.5t105.5 8q77 0 139 -20q64 -20 107.5 -54t67.5 -79q24 -44 24 -96q0 -13 -2 -27t-5 -27l-96 -392q-16 -66 -22 -123t-6 -111q0 -41 4 -82q3 -35 7 -69z
M387 1308l33 136h755l-34 -136h-754z" />
    <glyph glyph-name="Abreve" unicode="&#x102;" horiz-adv-x="1438" 
d="M974 1344l-471 -793h556zM1118 10l-45 400h-654l-237 -400h-203l35 50l51 78l63 98l80 128l694 1143h209l134 -1139q9 -74 17 -127l15 -99q6 -44 13 -78q5 -28 11 -54h-183zM1394 2066h109q-19 -67 -59 -135q-43 -74 -106 -131q-62 -57 -141 -94q-78 -36 -167 -36
q-74 0 -130 25t-93.5 67.5t-56.5 98.5q-20 57 -20 117q0 24 3 48q2 20 7 40h105v-10v-20q0 -48 14 -89q14 -42 40 -73q26 -32 64 -50t85 -18q53 0 106 22q52 21 98 58q47 37 84 84q35 45 58 96z" />
    <glyph glyph-name="abreve" unicode="&#x103;" 
d="M865 515l-13 -1q-22 -1 -56 -4q-35 -3 -75 -7.5t-78.5 -8t-63.5 -5.5q-51 -5 -99 -20q-48 -16 -86 -40t-65.5 -55.5t-36.5 -66.5q-5 -18 -5 -37q0 -31 14 -58q13 -26 37 -46t55.5 -30.5t69.5 -10.5q80 0 171 47q91 46 182 149l1 2zM989 0h-171q-4 23 -7 59q-4 44 -4 95
v24l-17 -17q-39 -41 -87.5 -76t-100.5 -59.5t-104 -38.5q-51 -13 -97 -13q-62 0 -116 22.5t-93.5 60t-61.5 86.5t-22 100q0 71 34 135t99 115q64 52 158 87q92 36 210 48q27 3 68.5 6.5l84.5 7.5t78.5 7t52.5 4l7 1l15 67q3 12 4 24q1 11 1 23q0 80 -66 124q-64 42 -168 42
q-42 0 -82 -9q-40 -8 -82 -24.5t-88 -41.5q-36 -19 -77 -44l5 21l17 57l17 57l12 39l81 33q42 17 85.5 29.5t92.5 20.5t106 8q77 0 139 -20t105 -54q44 -34 68 -79q24 -44 24 -96q0 -13 -2 -27t-5 -27l-96 -392q-16 -66 -22 -123t-6 -111q0 -41 4 -82q3 -35 7 -69z
M1133 1610h110q-19 -67 -59 -135q-43 -74 -106 -131t-141 -93q-77 -36 -164 -36q-74 0 -129 25t-92.5 67.5t-56.5 98.5t-19 117q0 24 3 47q2 20 7 40h104v-10v-20q0 -48 13 -89q13 -42 39 -73.5t63.5 -49.5t84.5 -18q53 0 105 22q52 21 97 58q47 37 84 84q35 45 57 96z" />
    <glyph glyph-name="Cacute" unicode="&#x106;" horiz-adv-x="1381" 
d="M1272 306l-6 -155q-53 -46 -114 -79q-63 -34 -132 -56t-141 -33q-72 -10 -143 -10q-127 0 -226 47q-101 48 -170 131q-70 75 -107 177q-37 103 -37 225q0 152 37.5 285t103.5 243q65 108 153 195q87 86 187 145.5t207.5 90t212.5 30.5q56 0 117 -9q61 -11 120 -32
q61 -22 114 -55q50 -30 87 -71l-98 -167q-28 35 -65 62q-41 32 -90 53.5t-102 32t-105 10.5q-87 0 -172 -28t-161 -79.5t-140.5 -125t-112 -163.5t-74.5 -195.5t-27 -220.5q0 -93 29 -170t81.5 -132t124 -85.5t157.5 -30.5q71 0 142 13.5t136.5 39t123.5 58.5q48 28 90 59z
M1382 2118h232l-505 -426h-149z" />
    <glyph glyph-name="cacute" unicode="&#x107;" horiz-adv-x="1008" 
d="M934 240l-11 -156q-43 -28 -85 -48q-44 -21 -88.5 -35t-94.5 -21q-49 -6 -106 -6q-84 0 -156 29q-74 30 -128.5 85t-86 134.5t-31.5 179.5q0 141 51.5 265.5t143.5 215.5q92 92 211 145q121 53 260 53q43 0 86 -6q42 -8 80 -21t70 -32q29 -16 51 -34l-75 -176
q-54 45 -113 70q-65 27 -146 27q-97 0 -177 -44q-79 -43 -136 -114q-58 -70 -90 -157t-32 -174q0 -68 19 -122t55 -93q35 -39 84 -60q50 -20 113 -20q95 0 180 33q77 30 152 82zM1077 1662h232l-502 -426h-148z" />
    <glyph glyph-name="Ccircumflex" unicode="&#x108;" horiz-adv-x="1381" 
d="M1271 306l-6 -155q-54 -46 -114 -79q-64 -34 -132.5 -56t-140.5 -33q-71 -10 -143 -10q-126 0 -225 47q-101 48 -170 131q-70 75 -107 177q-37 103 -37 225q0 152 37.5 285t103.5 243q65 108 153 195q87 86 186.5 145.5t206.5 90t213 30.5q56 0 116 -9q60 -11 122 -32
q60 -22 114 -55q50 -30 87 -71l-98 -167q-28 35 -65 62q-42 32 -92 53q-49 22 -101.5 32.5t-104.5 10.5q-87 0 -172 -28t-161 -79.5t-140 -125t-111.5 -163.5t-74.5 -195.5t-27 -220.5q0 -93 29 -170t81 -132q53 -55 124 -85.5t157 -30.5q71 0 142 13.5t136 39t123 58.5
q49 28 91 59zM797 1692h-128l421 426h166l256 -426h-135l-218 294z" />
    <glyph glyph-name="ccircumflex" unicode="&#x109;" horiz-adv-x="1008" 
d="M932 240l-12 -156q-43 -28 -84 -48q-44 -21 -88.5 -35t-93.5 -21q-49 -6 -105 -6q-85 0 -156 29q-74 30 -128.5 85t-86 134.5t-31.5 179.5q0 141 51.5 265.5t143.5 215.5q92 92 210 145q120 53 259 53q43 0 85 -6q42 -8 81 -21q38 -13 72 -32q28 -16 51 -34l-76 -176
q-55 45 -114 70q-65 27 -146 27q-96 0 -176 -44q-79 -43 -136 -114q-57 -70 -89 -157t-32 -174q0 -68 19 -122t55 -93q35 -39 84 -60q49 -20 112 -20q94 0 179 33q77 30 152 82zM498 1236h-128l417 426h165l256 -426h-135l-217 294z" />
    <glyph glyph-name="Cdot" unicode="&#x10a;" horiz-adv-x="1381" 
d="M1271 306l-6 -155q-54 -46 -114 -79q-64 -34 -132.5 -56t-140.5 -33q-71 -10 -143 -10q-126 0 -225 47q-101 48 -170 131q-70 75 -107 177q-37 103 -37 225q0 152 37.5 285t103.5 243q65 108 153 195q87 86 186.5 145.5t206.5 90t213 30.5q56 0 116 -9q60 -11 122 -32
q60 -22 114 -55q50 -30 87 -71l-98 -167q-28 35 -65 62q-42 32 -92 53q-49 22 -101.5 32.5t-104.5 10.5q-87 0 -172 -28t-161 -79.5t-140 -125t-111.5 -163.5t-74.5 -195.5t-27 -220.5q0 -93 29 -170t81 -132q53 -55 124 -85.5t157 -30.5q71 0 142 13.5t136 39t123 58.5
q49 28 91 59zM1024.5 1802q-8.5 20 -8.5 43q0 30 14 56q13 27 34.5 47t50.5 33q28 12 59 12q22 0 42.5 -8.5t35 -24t23 -36t8.5 -42.5q0 -30 -13 -56q-13 -27 -35 -48q-21 -21 -50 -33t-59 -12q-22 0 -43 9q-20 9 -35 24.5t-23.5 35.5z" />
    <glyph glyph-name="cdot" unicode="&#x10b;" horiz-adv-x="1008" 
d="M930 240l-12 -156q-42 -27 -86 -48q-43 -21 -87 -35t-93 -21q-49 -6 -105 -6q-83 0 -154 29q-74 30 -128.5 85t-86 134.5t-31.5 179.5q0 141 51.5 265.5t143.5 215.5q92 92 209 145q119 53 257 53q42 0 86 -6q44 -8 82.5 -21t72.5 -32q28 -16 51 -34l-76 -176
q-56 45 -116 70q-67 27 -147 27q-95 0 -174 -44q-78 -43 -135 -114q-57 -70 -89 -157t-32 -174q0 -68 19 -122t55 -93q34 -39 83 -60q49 -20 111 -20q94 0 178 33q76 30 153 82zM720.5 1346.5q-8.5 20.5 -8.5 42.5q0 30 13 56q13 27 34 47.5t49 32.5t59 12q23 0 43.5 -8.5
t36 -24t24 -35.5t8.5 -43q0 -30 -13 -56q-14 -27 -36.5 -47.5t-51.5 -33t-59 -12.5q-21 0 -41 9t-34.5 24.5t-23 36z" />
    <glyph glyph-name="Ccaron" unicode="&#x10c;" horiz-adv-x="1381" 
d="M1272 306l-6 -155q-53 -46 -114 -79q-63 -34 -132 -56t-141 -33q-72 -10 -143 -10q-127 0 -226 47q-101 48 -170 131q-70 75 -107 177q-37 103 -37 225q0 152 37.5 285t103.5 243q65 108 153 195q87 86 187 145.5t207.5 90t212.5 30.5q56 0 117 -9q61 -11 120 -32
q61 -22 114 -55q50 -30 87 -71l-98 -167q-28 35 -65 62q-41 32 -90 53.5t-102 32t-105 10.5q-87 0 -172 -28t-161 -79.5t-140.5 -125t-112 -163.5t-74.5 -195.5t-27 -220.5q0 -93 29 -170t81.5 -132t124 -85.5t157.5 -30.5q71 0 142 13.5t136.5 39t123.5 58.5q48 28 90 59z
M773 2118h133l218 -295l363 295h131l-426 -426h-167z" />
    <glyph glyph-name="ccaron" unicode="&#x10d;" horiz-adv-x="1008" 
d="M934 240l-11 -156q-43 -28 -85 -48q-44 -21 -88.5 -35t-94.5 -21q-49 -6 -106 -6q-84 0 -156 29q-74 30 -128.5 85t-86 134.5t-31.5 179.5q0 141 51.5 265.5t143.5 215.5q92 92 211 145q121 53 261 53q43 0 85 -6q43 -8 80.5 -21t69.5 -32q29 -16 51 -34l-74 -176
q-55 45 -114 70q-65 27 -146 27q-97 0 -177 -44q-79 -43 -136 -114q-58 -70 -90 -157t-32 -174q0 -68 19 -122t55 -93q35 -39 84 -60q50 -20 113 -20q95 0 180 33q77 30 152 82zM472 1662h133l217 -294l360 294h131l-424 -426h-165z" />
    <glyph glyph-name="Dcaron" unicode="&#x10e;" horiz-adv-x="1466" 
d="M338 153l12 -1q36 -3 98.5 -7t137.5 -4q139 0 250 31q112 32 197 96t142 162t90 233q32 131 32 240q0 240 -111.5 359t-330.5 119q-27 0 -56 -0.5t-58 -1.5t-55 -2q-27 0 -47 -1h-8zM235 467l140 573l37 151q17 73 30.5 136.5t22.5 114.5q7 44 10 75q33 2 81 4
q56 2 119 3.5t128.5 2t117.5 0.5q113 0 216 -33q102 -33 179 -103q79 -70 126 -180q47 -111 47 -265q0 -57 -8 -121t-26 -136q-46 -187 -129 -320q-82 -133 -196 -217t-259 -123q-145 -40 -315 -40q-26 0 -59 1q-32 0 -69 1l-77 2l-77 2q-81 2 -168 5q12 29 23 68l32 112
l35 135zM730 2118h134l217 -295l364 295h131l-426 -426h-167z" />
    <glyph glyph-name="Dcroat" unicode="&#x110;" horiz-adv-x="1466" 
d="M631 1376l-124 -517h394l-31 -132h-395l-136 -574l11 -1q37 -3 99 -7t137 -4q142 0 253 31q112 32 195.5 96t140.5 163q55 97 89 232q32 131 32 240q0 240 -112 359q-111 119 -330 119q-27 0 -56 -0.5t-57.5 -1.5t-55 -1.5t-47.5 -1.5h-7zM112 727l33 132h186l44 182
l36 150q18 73 31.5 136.5t21.5 114.5q8 44 11 75q32 2 81 4q56 2 119 3.5t128 2t117 0.5q112 0 215 -33q102 -33 181 -103t126 -180.5t47 -264.5q0 -57 -8 -121t-26 -136q-46 -187 -129 -320t-197 -217t-259 -123q-145 -40 -315 -40q-25 0 -58 1q-32 0 -69 1l-77 2l-77 2
q-81 2 -168 5q12 29 23 68l32 112l35 135l39 152l63 260h-186z" />
    <glyph glyph-name="dcroat" unicode="&#x111;" horiz-adv-x="1225" 
d="M1029 840l-6 4q-33 20 -63 36q-31 17 -62.5 27t-65 14.5t-73.5 4.5q-73 0 -131 -27t-108 -79q-45 -47 -80 -106q-34 -59 -59 -125q-26 -66 -38.5 -132.5t-12.5 -126.5q0 -103 39 -157q40 -55 125 -55q30 0 72 21q41 20 85 55t91 81t88 96t77 102l18 25.5l19 27.5
t14.5 23.5l14.5 25.5v1zM831 1240l30 121h289l2 8q18 85 30 160q11 69 12 135h180q-1 -55 -12 -121q-13 -74 -35 -170l-3 -12h170l-31 -121h-168l-162 -687q-37 -138 -52 -266q-14 -118 -14 -200q0 -30 1 -54q1 -18 2 -33h-169q0 71 6 147q7 82 26 169l11 52l-29 -44
q-43 -66 -103 -128q-60 -64 -126.5 -113t-131.5 -80q-65 -30 -117 -30q-64 0 -119 23q-54 22 -91.5 64.5t-58.5 102.5q-21 61 -21 138q0 97 23 190q23 94 64 178t96 155t120 125q80 66 166.5 99t169.5 33q36 0 72 -7q37 -8 72 -20t67 -28.5t57 -32.5l12 -8l56 255h-291z" />
    <glyph glyph-name="Emacron" unicode="&#x112;" horiz-adv-x="1168" 
d="M510 868h588l-35 -147h-589l-136 -559h286q153 0 257 2q94 2 156 11l-38 -165h-893q26 62 54 167l69 273l152 613l64 271q25 109 29 173h862l-37 -152h-671zM554 1764l33 136h760l-34 -136h-759z" />
    <glyph glyph-name="emacron" unicode="&#x113;" horiz-adv-x="1064" 
d="M810 934q-32 10 -69 10q-59 0 -117.5 -21t-110 -60.5t-91.5 -95.5q-42 -57 -69 -125l-5 -13l13 -2q57 -6 104 -9q48 -3 90 -3q88 0 155 14q68 14 113 38q46 24 70 59q25 36 25 78q0 31 -15 58q-14 25 -37 43t-56 29zM984 256l-12 -172q-40 -21 -85 -40
q-50 -20 -106.5 -35.5t-117.5 -25t-124 -9.5q-99 0 -173 32q-75 31 -124 88t-73 136t-24 171q0 87 22 171.5t63 160.5t100 139.5t130.5 110t156 72.5t177.5 26q80 0 138 -21q59 -22 97 -56t55 -76q18 -42 18 -84q0 -71 -30 -135q-29 -64 -92 -113t-159 -77q-97 -29 -235 -29
q-108 0 -256 19l-10 1l-1 -10q-3 -28 -3 -56q0 -65 15 -124t48 -102q32 -44 83 -69q50 -26 122 -26q52 0 107 10t109 29.5t105 46.5q39 20 79 47zM418 1308l33 136h755l-35 -136h-753z" />
    <glyph glyph-name="Ebreve" unicode="&#x114;" horiz-adv-x="1168" 
d="M510 868h590l-35 -147h-591l-136 -559h286q153 0 259 2q94 2 156 11l-39 -165h-894q26 62 54 167l69 273l152 613l64 271q25 109 29 173h862l-37 -152h-671zM1305 2066h110q-19 -67 -59 -135q-43 -74 -106 -131t-142 -94q-77 -36 -165 -36q-74 0 -129.5 25t-93 67.5
t-56.5 98.5q-19 57 -19 117q0 24 3 48q2 20 6 40h105v-10v-20q0 -48 13 -89q13 -42 39.5 -73.5t64 -49.5t85.5 -18q53 0 105 22q52 21 98 58q47 37 84 84q35 45 57 96z" />
    <glyph glyph-name="ebreve" unicode="&#x115;" horiz-adv-x="1064" 
d="M812 934q-33 10 -70 10q-59 0 -117.5 -21t-110 -60.5t-92.5 -95.5q-42 -57 -69 -125l-5 -13l13 -2q57 -6 105 -9t90 -3q88 0 155 14q68 14 113 38q47 24 71 59q24 36 24 78q0 31 -14 58q-14 25 -38 43q-23 18 -55 29zM985 256l-11 -172q-39 -20 -85 -40
q-50 -20 -107 -35.5t-118 -25t-125 -9.5q-99 0 -173 32q-75 31 -124 88t-73 136t-24 171q0 87 22 171.5t63 160.5t100 139.5t131 110t156.5 72.5t177.5 26q81 0 139 -21q58 -22 95 -56q38 -34 55 -76q18 -42 18 -84q0 -71 -30 -135q-29 -63 -91 -113q-61 -49 -158 -77
q-98 -29 -236 -29q-109 0 -257 19l-10 1l-1 -10q-3 -28 -3 -56q0 -65 15 -124t48 -102q32 -44 83 -69.5t123 -25.5q52 0 107 10t109 29.5t105 46.5q42 21 79 47zM1164 1610h110q-20 -68 -60 -135q-43 -74 -106 -131q-62 -57 -140 -93q-77 -36 -164 -36q-75 0 -129.5 25
t-92 67.5t-56.5 98.5t-19 117q0 23 3 47q2 20 7 40h104v-10v-20q0 -48 13 -89q13 -42 39 -73.5t63.5 -49.5t84.5 -18q53 0 105 22q52 21 97 58q47 37 84 84q35 45 57 96z" />
    <glyph glyph-name="Edot" unicode="&#x116;" horiz-adv-x="1168" 
d="M510 868h588l-35 -147h-589l-136 -559h285q153 0 258 2q94 2 156 11l-39 -165h-892q26 62 54 167l69 273l152 613l64 271q25 109 29 173h862l-37 -152h-671zM860.5 1802q-8.5 20 -8.5 43q0 30 13 56q14 27 35.5 47t49.5 33q28 12 59 12q22 0 42.5 -8.5t34.5 -24.5
q15 -15 24 -35.5t9 -42.5q0 -30 -14 -56q-13 -27 -35 -48q-21 -21 -49.5 -33t-59.5 -12q-22 0 -42 9t-35 24.5t-23.5 35.5z" />
    <glyph glyph-name="edot" unicode="&#x117;" horiz-adv-x="1064" 
d="M807 934q-32 10 -69 10q-58 0 -116 -21t-109 -60.5t-92 -95.5q-41 -57 -68 -125l-5 -13l13 -2q58 -6 104 -9q47 -3 89 -3q87 0 154 14t112 38q46 25 71 59q25 36 25 78q0 31 -15 58q-14 25 -39 43q-23 19 -55 29zM984 256l-12 -172q-40 -20 -88 -40q-52 -21 -106 -36
q-56 -15 -117 -24.5t-123 -9.5q-99 0 -172 32q-75 31 -124 88t-73 136t-24 171q0 87 22 171.5t63 160.5t100 139.5t130 110t154.5 72.5t176.5 26q80 0 140 -21q60 -22 98 -56t55 -76q18 -42 18 -84q0 -71 -30 -135q-29 -64 -92 -113t-162 -77q-97 -29 -233 -29
q-108 0 -255 19l-10 1l-1 -10q-3 -28 -3 -56q0 -65 15 -124t48 -102q32 -44 82 -69q51 -26 122 -26q51 0 105.5 10t108.5 30q52 18 106 46q42 21 81 47zM719.5 1346.5q-8.5 20.5 -8.5 42.5q0 30 13 56q13 27 34 47.5t49 32.5t59 12q23 0 43.5 -8.5t36 -24t24 -35.5t8.5 -43
q0 -30 -13 -56q-14 -27 -36.5 -47.5t-51.5 -33t-58 -12.5q-23 0 -42 9q-20 9 -34.5 24.5t-23 36z" />
    <glyph glyph-name="Ecaron" unicode="&#x11a;" horiz-adv-x="1168" 
d="M510 868h591l-36 -147h-591l-136 -559h286q154 0 259 2q94 2 157 11l-39 -165h-895q26 62 54 167l69 273l152 613l64 271q25 109 29 173h862l-37 -152h-670zM610 2118h133l217 -295l362 295h132l-426 -426h-166z" />
    <glyph glyph-name="ecaron" unicode="&#x11b;" horiz-adv-x="1064" 
d="M812 934q-32 10 -69 10q-59 0 -118 -21t-110.5 -60.5t-92.5 -95.5q-42 -57 -69 -125l-5 -13l13 -2q57 -6 105 -9t90 -3q88 0 156 14t113 38q46 24 71 59q24 36 24 78q0 31 -14 58q-14 25 -38 43q-23 18 -56 29zM986 256l-11 -172q-39 -20 -86 -40q-49 -20 -106 -35.5
t-118.5 -25t-124.5 -9.5q-100 0 -174 32q-75 31 -124 88t-73 136t-24 171q0 87 22 171.5t63 160.5t100 139.5t131 110t156.5 72.5t178.5 26q81 0 139 -21q58 -22 95 -56t54 -76q18 -42 18 -84q0 -71 -30 -135q-29 -64 -90 -113t-159 -77q-97 -29 -236 -29q-109 0 -257 19
l-10 1l-1 -10q-3 -28 -3 -56q0 -65 15 -124t48 -102q32 -44 83 -69.5t123 -25.5q53 0 108 10t109 29.5t105 46.5q42 21 79 47zM471 1662h133l217 -294l360 294h131l-424 -426h-165z" />
    <glyph glyph-name="Gcircumflex" unicode="&#x11c;" horiz-adv-x="1450" 
d="M1444 743l-149 -605q-41 -32 -103 -61q-65 -30 -140 -53t-157 -37q-81 -14 -155 -13q-118 0 -217 36q-100 37 -172.5 105t-113.5 168t-41 229q0 58 8 121.5t26 134.5q46 187 134 331q88 145 202 243q115 99 251.5 149.5t284.5 50.5q66 0 132 -10q65 -11 128.5 -34
t120.5 -58q53 -33 100 -76l-104 -168q-71 83 -170 125q-104 45 -218 45q-121 0 -228 -44t-194.5 -124.5t-150.5 -192.5q-63 -111 -98 -250q-33 -132 -33 -242q0 -90 27 -160q26 -71 75.5 -119t119.5 -73t157 -25q47 0 99 5t101.5 16.5t93.5 25.5t75 33l3 2l89 370h-363
l38 155h542zM793 1692h-129l422 426h166l255 -426h-135l-217 294z" />
    <glyph glyph-name="gcircumflex" unicode="&#x11d;" horiz-adv-x="1099" 
d="M1275 1079l-46 -147q-43 -3 -87 -9q-49 -7 -105 -23l-11 -3l5 -11q21 -49 21 -107q0 -92 -42 -171q-41 -79 -109.5 -136.5t-155 -90.5t-177.5 -33q-22 0 -42 1q-20 2 -40 7h-3l-3 -1q-25 -11 -51 -26q-25 -14 -45 -30t-33 -34q-14 -19 -14 -36q0 -20 17 -34
q15 -13 50 -25q34 -12 90 -24q55 -12 140 -26q178 -30 269 -99q88 -67 88 -164q0 -60 -26 -110q-27 -52 -72 -94q-46 -43 -106 -76q-61 -34 -129.5 -56t-140.5 -34t-139 -12q-82 0 -165 19t-151 54.5t-110 85.5q-41 49 -41 111q0 22 6 46q21 82 99 148q79 67 226 117l20 6
l-18 12q-37 24 -51.5 50.5t-14.5 56.5t15 61q16 31 41 59q24 27 55.5 51t61.5 40l15 8l-14 10q-60 41 -94 104q-35 63 -35 139q0 92 40 170t107 135q68 57 155.5 89.5t181.5 32.5q76 0 138 -22.5t108 -62.5l5 -4l6 3q38 19 79 34q43 14 85.5 24.5t84.5 17.5q32 6 62 9z
M643 -37q-60 17 -147 32q-28 4 -52 8.5t-46 10.5h-3l-3 -1q-86 -29 -141 -55q-55 -27 -88 -53q-35 -26 -50 -51q-14 -24 -21 -48q-2 -7 -2 -13v-11q0 -32 21 -64t63 -58q41 -24 102 -39q62 -15 144 -15q66 0 135.5 18.5t126.5 48.5t93 70q38 42 38 87q0 25 -18 50
q-16 24 -55 45q-37 20 -97 38zM864 637q27 52 27 115q0 42 -15 78t-43 62.5t-67 42t-85 15.5q-53 0 -101 -16.5t-86 -45.5t-65.5 -71.5t-39.5 -91.5q-6 -28 -6 -55q0 -43 15.5 -78.5t43.5 -62t66 -41.5t85 -15q54 0 107 20.5t95 56.5t69 87zM437 1236h-128l420 426h167
l254 -426h-135l-216 294z" />
    <glyph glyph-name="Gbreve" unicode="&#x11e;" horiz-adv-x="1450" 
d="M1444 743l-149 -605q-41 -32 -103 -61q-65 -30 -140 -53t-157 -37q-81 -14 -155 -13q-118 0 -217 36q-100 37 -172.5 105t-113.5 168t-41 229q0 58 8 121.5t26 134.5q46 187 134 331q88 145 202 243q115 99 251.5 149.5t284.5 50.5q66 0 132 -10q65 -11 128.5 -34
t120.5 -58q53 -33 100 -76l-104 -168q-71 83 -170 125q-104 45 -218 45q-121 0 -228 -44t-194.5 -124.5t-150.5 -192.5q-63 -111 -98 -250q-33 -132 -33 -242q0 -90 27 -160q26 -71 75.5 -119t119.5 -73t157 -25q47 0 99 5t101.5 16.5t93.5 25.5t75 33l3 2l89 370h-363
l38 155h542zM1464 2066h109q-19 -67 -59 -135q-43 -74 -106 -131q-62 -57 -141 -94q-77 -36 -165 -36q-75 0 -130.5 25t-93 67.5t-56.5 98.5q-19 57 -19 117q0 24 2 48q2 20 7 40h106q-1 -5 -1 -10v-20q0 -48 14 -89q13 -42 39 -73.5t64 -49.5t86 -18q53 0 105 22
q52 21 98 58q47 37 84 84q35 45 57 96z" />
    <glyph glyph-name="gbreve" unicode="&#x11f;" horiz-adv-x="1099" 
d="M1275 1079l-46 -147q-43 -3 -87 -9q-49 -7 -105 -23l-11 -3l5 -11q21 -49 21 -107q0 -92 -42 -171q-41 -79 -109.5 -136.5t-155 -90.5t-177.5 -33q-22 0 -42 1q-20 2 -40 7h-3l-3 -1q-25 -11 -51 -26q-25 -14 -45 -30t-33 -34q-14 -19 -14 -36q0 -20 17 -34
q15 -13 50 -25q34 -12 90 -24q55 -12 140 -26q178 -30 269 -99q88 -67 88 -164q0 -60 -26 -110q-27 -52 -72 -94q-46 -43 -106 -76q-61 -34 -129.5 -56t-140.5 -34t-139 -12q-82 0 -165 19t-151 54.5t-110 85.5q-41 49 -41 111q0 22 6 46q21 82 99 148q79 67 226 117l20 6
l-18 12q-37 24 -51.5 50.5t-14.5 56.5t15 61q16 31 41 59q24 27 55.5 51t61.5 40l15 8l-14 10q-60 41 -94 104q-35 63 -35 139q0 92 40 170t107 135q68 57 155.5 89.5t181.5 32.5q76 0 138 -22.5t108 -62.5l5 -4l6 3q38 19 79 34q43 14 85.5 24.5t84.5 17.5q32 6 62 9z
M643 -37q-60 17 -147 32q-28 4 -52 8.5t-46 10.5h-3l-3 -1q-86 -29 -141 -55q-55 -27 -88 -53q-35 -26 -50 -51q-14 -24 -21 -48q-2 -7 -2 -13v-11q0 -32 21 -64t63 -58q41 -24 102 -39q62 -15 144 -15q66 0 135.5 18.5t126.5 48.5t93 70q38 42 38 87q0 25 -18 50
q-16 24 -55 45q-37 20 -97 38zM864 637q27 52 27 115q0 42 -15 78t-43 62.5t-67 42t-85 15.5q-53 0 -101 -16.5t-86 -45.5t-65.5 -71.5t-39.5 -91.5q-6 -28 -6 -55q0 -43 15.5 -78.5t43.5 -62t66 -41.5t85 -15q54 0 107 20.5t95 56.5t69 87zM1107 1610h109q-19 -67 -59 -135
q-43 -74 -106 -131q-62 -58 -139.5 -93.5t-165.5 -35.5q-75 0 -130.5 25t-93 67.5t-56.5 98.5t-19 117q0 24 3 47q2 20 6 40h105v-10v-20q0 -48 13 -89q14 -42 40 -73q27 -32 64.5 -50t85.5 -18q53 0 105 22q52 21 98 58q46 36 83 84q35 45 57 96z" />
    <glyph glyph-name="Gdot" unicode="&#x120;" horiz-adv-x="1450" 
d="M1444 743l-149 -605q-41 -32 -103 -61q-65 -30 -140 -53t-157 -37q-81 -14 -155 -13q-118 0 -217 36q-100 37 -172.5 105t-113.5 168t-41 229q0 58 8 121.5t26 134.5q46 187 134 331q88 145 202 243q115 99 251.5 149.5t284.5 50.5q66 0 132 -10q65 -11 128.5 -34
t120.5 -58q53 -33 100 -76l-104 -168q-71 83 -170 125q-104 45 -218 45q-121 0 -228 -44t-194.5 -124.5t-150.5 -192.5q-63 -111 -98 -250q-33 -132 -33 -242q0 -90 27 -160q26 -71 75.5 -119t119.5 -73t157 -25q47 0 99 5t101.5 16.5t93.5 25.5t75 33l3 2l89 370h-363
l38 155h542zM1020.5 1802q-8.5 20 -8.5 43q0 30 13 56q14 27 35 47t50 33q28 12 60 12q22 0 42.5 -8.5t34.5 -24t23 -36.5q9 -20 9 -42q0 -30 -13 -56q-13 -27 -35 -48t-50.5 -33t-58.5 -12q-23 0 -43 9t-35 24.5t-23.5 35.5z" />
    <glyph glyph-name="gdot" unicode="&#x121;" horiz-adv-x="1099" 
d="M1275 1079l-46 -147q-43 -3 -87 -9q-49 -7 -105 -23l-11 -3l5 -11q21 -49 21 -107q0 -92 -42 -171q-41 -79 -109.5 -136.5t-155 -90.5t-177.5 -33q-22 0 -42 1q-20 2 -40 7h-3l-3 -1q-25 -11 -51 -26q-25 -14 -45 -30t-33 -34q-14 -19 -14 -36q0 -20 17 -34
q15 -13 50 -25q34 -12 90 -24q55 -12 140 -26q178 -30 269 -99q88 -67 88 -164q0 -60 -26 -110q-27 -52 -72 -94q-46 -43 -106 -76q-61 -34 -129.5 -56t-140.5 -34t-139 -12q-82 0 -165 19t-151 54.5t-110 85.5q-41 49 -41 111q0 22 6 46q21 82 99 148q79 67 226 117l20 6
l-18 12q-37 24 -51.5 50.5t-14.5 56.5t15 61q16 31 41 59q24 27 55.5 51t61.5 40l15 8l-14 10q-60 41 -94 104q-35 63 -35 139q0 92 40 170t107 135q68 57 155.5 89.5t181.5 32.5q76 0 138 -22.5t108 -62.5l5 -4l6 3q38 19 79 34q43 14 85.5 24.5t84.5 17.5q32 6 62 9z
M643 -37q-60 17 -147 32q-28 4 -52 8.5t-46 10.5h-3l-3 -1q-86 -29 -141 -55q-55 -27 -88 -53q-35 -26 -50 -51q-14 -24 -21 -48q-2 -7 -2 -13v-11q0 -32 21 -64t63 -58q41 -24 102 -39q62 -15 144 -15q66 0 135.5 18.5t126.5 48.5t93 70q38 42 38 87q0 25 -18 50
q-16 24 -55 45q-37 20 -97 38zM864 637q27 52 27 115q0 42 -15 78t-43 62.5t-67 42t-85 15.5q-53 0 -101 -16.5t-86 -45.5t-65.5 -71.5t-39.5 -91.5q-6 -28 -6 -55q0 -43 15.5 -78.5t43.5 -62t66 -41.5t85 -15q54 0 107 20.5t95 56.5t69 87zM665.5 1346.5
q-8.5 20.5 -8.5 42.5q0 30 12 56q13 27 34.5 47.5t50.5 32.5t59 12q23 0 43 -8.5t34.5 -24t23 -35.5t8.5 -43q0 -30 -12 -56q-13 -27 -34.5 -47.5t-50.5 -33t-59 -12.5q-23 0 -43 9t-34.5 24.5t-23 36z" />
    <glyph glyph-name="Hcircumflex" unicode="&#x124;" horiz-adv-x="1502" 
d="M1262 10h-192l171 702h-768l-173 -702h-194q26 62 54 167l69 273l152 613l64 271q26 109 30 173h192l-160 -650h770l160 650h194q-25 -63 -53 -168q-32 -117 -70 -272l-152 -613l-65 -272q-25 -109 -29 -172zM766 1692h-128l421 426h168l254 -426h-134l-217 294z" />
    <glyph glyph-name="hcircumflex" unicode="&#x125;" horiz-adv-x="1216" 
d="M1074 20h-171q-4 30 -4 72q0 30 2 63t6 69q3 30 12 73l21 91l23 99l21 96q10 46 17 84q7 39 7 64q0 97 -31 143q-32 47 -113 47q-33 0 -75 -20q-40 -20 -84 -55q-43 -35 -87 -81t-84.5 -98.5t-75.5 -108.5t-60 -112v-1l-106 -425h-175l287 1159q15 61 28 128t23 134
t16 127q5 54 5 96h177q0 -33 -6 -82q-6 -58 -16.5 -126t-25 -139.5t-28.5 -133.5l-112 -453l30 40q44 61 98 117t114 99q59 43 123 69q63 26 127 26q123 0 181 -74q59 -74 59 -207q0 -28 -8 -72t-19.5 -96t-26.5 -106l-29 -105l-24 -91q-11 -42 -14 -67q-5 -40 -8 -76
t-3 -69q0 -53 9 -98zM648 1803h-128l420 426h166l257 -426h-136l-218 294z" />
    <glyph glyph-name="Itilde" unicode="&#x128;" horiz-adv-x="972" 
d="M453 1497h680l-33 -131h-255l-299 -1215h251l-31 -131h-681l32 131h253l299 1215h-247zM544 1728h-88q11 39 32 78q25 45 58.5 79.5t72.5 55.5q40 21 84 21q41 0 76 -16l85 -37l82 -36q34 -15 70 -15q21 0 41 9q18 9 33.5 22.5t27.5 31.5q9 14 17 30h91q-13 -41 -34 -81
q-26 -45 -61 -79t-78 -54q-42 -20 -88 -20q-39 0 -76 13q-37 14 -79 36q-53 27 -86 41q-34 14 -64 14q-43 0 -74 -30q-28 -27 -42 -63z" />
    <glyph glyph-name="itilde" unicode="&#x129;" horiz-adv-x="547" 
d="M352 1050h171q-1 -32 -8 -78q-9 -55 -22 -121t-29 -138l-33 -143l-45 -189q-15 -57 -21 -119q-6 -61 -6 -118q0 -40 3 -78q3 -30 7 -56h-192q-5 33 -5 82q0 67 11.5 151t32.5 165l42 158l33 128q17 67 30 133t22 126q8 53 9 97zM233 1272h-91q12 40 34 79
q25 44 59.5 78.5t75.5 55.5t85 21q40 0 73 -16l82 -37l80 -36q33 -15 68 -15q22 0 41 9q18 9 33.5 22.5t26.5 32.5q10 14 17 30h92q-13 -42 -35 -81q-25 -45 -60 -79t-78 -54q-42 -21 -87 -21q-39 0 -73 13q-36 14 -77 36q-50 28 -82 41q-33 14 -64 14q-44 0 -76 -30
q-29 -27 -44 -63z" />
    <glyph glyph-name="Imacron" unicode="&#x12a;" horiz-adv-x="972" 
d="M453 1497h680l-33 -131h-258l-297 -1215h250l-31 -131h-679l32 131h253l297 1215h-245zM551 1764l33 136h529l-35 -136h-527z" />
    <glyph glyph-name="imacron" unicode="&#x12b;" horiz-adv-x="567" 
d="M355 1050h181q-1 -32 -9 -78q-9 -55 -23 -121t-31 -138l-36 -143l-48 -189q-15 -57 -21 -119q-6 -61 -6 -118q0 -40 4 -78q2 -30 6 -56h-192q-5 33 -5 82q0 67 11.5 151t32.5 165l42 158l33 128q17 67 30 133t22 126q8 53 9 97zM245 1308l34 136h540l-35 -136h-539z" />
    <glyph glyph-name="Ibreve" unicode="&#x12c;" horiz-adv-x="972" 
d="M454 1497h679l-33 -131h-254l-300 -1215h252l-31 -131h-682l32 131h253l300 1215h-248zM1177 2066h109q-19 -67 -58 -135q-44 -74 -106 -131q-63 -57 -141 -94q-77 -36 -164 -36q-75 0 -130 25t-92.5 67.5t-56.5 98.5q-19 57 -19 117q0 24 2 48q2 20 7 40h105v-10v-20
q0 -48 13 -89q13 -42 39 -73.5t63.5 -49.5t85.5 -18q53 0 105 22q52 21 98 58t84 84q35 45 56 96z" />
    <glyph glyph-name="ibreve" unicode="&#x12d;" horiz-adv-x="547" 
d="M355 1050h174q-1 -32 -8 -78q-9 -55 -22 -121t-29 -138l-34 -143l-47 -189q-15 -57 -21 -119q-6 -61 -6 -118q0 -40 4 -78q2 -30 6 -56h-192q-5 33 -5 82q0 67 11.5 151t32.5 165l42 158l33 128q17 67 30 133t22 126q8 53 9 97zM863 1610h109q-19 -67 -59 -135
q-43 -74 -106 -131q-61 -56 -138 -93q-75 -36 -159 -36q-71 0 -127.5 25t-95 67.5t-58.5 98.5q-19 56 -19 117q0 24 2 47q2 20 8 40h107v-10v-20q0 -48 13 -89q14 -42 41 -73q26 -31 64 -50q36 -18 82 -18q51 0 101 22q50 21 94 58q47 37 84 84q35 45 57 96z" />
    <glyph glyph-name="Idotaccent" unicode="&#x130;" horiz-adv-x="972" 
d="M453 1497h680l-33 -131h-258l-297 -1215h250l-31 -131h-679l32 131h253l297 1215h-245zM732.5 1802q-8.5 20 -8.5 43q0 30 13 56q13 27 34 47t49.5 32.5t59.5 12.5q22 0 42.5 -8.5t35.5 -24t24 -36.5q9 -20 9 -42q0 -30 -13 -56q-14 -27 -36 -48t-51 -33t-59 -12
q-23 0 -42 9q-20 9 -34.5 24.5t-23 35.5z" />
    <glyph glyph-name="dotlessi" unicode="&#x131;" horiz-adv-x="567" 
d="M355 1050h181q-1 -32 -9 -78q-9 -55 -23 -121t-31 -138l-36 -143l-48 -189q-15 -57 -21 -119q-6 -61 -6 -118q0 -40 4 -78q2 -30 6 -56h-192q-5 33 -5 82q0 67 11.5 151t32.5 165l42 158l33 128q17 67 30 133t22 126q8 53 9 97z" />
    <glyph glyph-name="IJ" unicode="&#x132;" horiz-adv-x="2028" 
d="M455 1497h687l-32 -131h-256l-304 -1215h255l-31 -131h-689l32 131h254l304 1215h-251zM1912 1497h195l-236 -950q-40 -161 -97 -270t-128 -177q-71 -67 -158 -97q-86 -29 -185 -29q-40 0 -84 11t-85 31.5t-76 46.5q-30 25 -49 53l85 171q16 -23 38 -45q29 -29 63 -51
t72 -36t77 -14q119 0 205 85q85 84 129 266l127 514l37 147q17 70 31 136q14 65 24 120q9 50 15 88z" />
    <glyph glyph-name="ij" unicode="&#x133;" horiz-adv-x="1157" 
d="M350 1050h177q-1 -32 -9 -78q-8 -55 -21.5 -121t-30.5 -138l-34 -143l-48 -189q-15 -57 -21 -118q-7 -61 -7 -119q0 -41 4 -78q3 -30 7 -56h-192q-5 33 -5 82q0 67 11.5 151t32.5 165l41 158l33 128q17 67 30.5 133t22.5 126q8 53 9 97zM384.5 1342.5
q-7.5 19.5 -7.5 42.5q0 29 12 56t33 49q19 21 46 34q26 13 56 13q23 0 42 -9q19 -8 33 -23t21.5 -34.5t7.5 -42.5q0 -30 -11.5 -57t-32.5 -48t-48 -33q-27 -13 -58 -13q-23 0 -41 8.5t-31.5 23t-21 34zM968 1342q-7 20 -7 43q0 29 12 56q11 27 31.5 48.5t48.5 34.5
q27 13 59 13q23 0 43 -8.5t34 -23.5t22 -34.5t8 -42.5q0 -30 -12 -57t-34 -48t-50 -33q-28 -13 -60 -13q-24 0 -42 9q-19 8 -32.5 22.5t-20.5 33.5zM933 1040h180q-1 -33 -8 -92q-9 -69 -23 -157t-32 -189l-37 -200l-38 -187q-19 -90 -35 -153q-35 -150 -89 -256
q-54 -105 -121 -171q-66 -66 -143 -97t-158 -31q-21 0 -51 5q-31 6 -62 15t-60 22q-24 11 -42 23l71 158q12 -9 28 -18q24 -13 50.5 -23t53.5 -16t49 -6q43 0 88 26q44 25 85 76t75.5 125.5t59.5 175.5l37.5 171t37.5 188.5t33.5 190t26.5 177.5t18 148q6 58 6 95z" />
    <glyph glyph-name="Lacute" unicode="&#x139;" horiz-adv-x="1083" 
d="M338 162h244q155 0 273 2q105 2 169 11l-39 -165h-879q26 62 54 167l69 273l152 613l64 271q25 109 29 173h192zM1209 2118h232l-504 -426h-148z" />
    <glyph glyph-name="lacute" unicode="&#x13a;" horiz-adv-x="569" 
d="M491 1664h173q0 -32 -5 -79q-5 -55 -15.5 -121t-24.5 -138.5t-30 -142.5l-147 -623q-27 -109 -41 -222.5t-14 -208.5q0 -34 2 -65q1 -23 3 -44h-191q-1 24 -3 46q-1 27 -1 54q0 93 14 192q15 98 44 214l165 655q15 63 28 128q12 67 21.5 133.5t15.5 125.5q5 54 6 96z
M913 2229h232l-499 -426h-145z" />
    <glyph glyph-name="Lslash" unicode="&#x141;" horiz-adv-x="1136" 
d="M393 162h239q149 0 269 2q108 2 173 11l-40 -165h-874q26 62 54 167q32 118 69 273l36 142l-124 -70l-36 129l203 117l72 301l62 267q26 107 30 171h187l-147 -615l338 204l47 -126l-427 -255z" />
    <glyph glyph-name="lslash" unicode="&#x142;" horiz-adv-x="850" 
d="M944 975l-290 -169l-56 -251q-26 -109 -38.5 -220t-12.5 -206q0 -34 2 -65q1 -23 3 -44h-182q-2 24 -3 46q-2 27 -2 54q0 91 14 187.5t44 213.5l39 164l-224 -130l-38 129l303 179l74 318q14 61 26.5 128t21.5 133.5t15 125.5q5 54 5 96h177q-1 -32 -6 -79
q-6 -55 -16.5 -121t-25.5 -138.5t-32 -142.5l-48 -200l211 123z" />
    <glyph glyph-name="Nacute" unicode="&#x143;" horiz-adv-x="1528" 
d="M1117 10l-538 1244l-305 -1244h-179q26 62 54 167q32 118 70 273l151 613l65 271q26 109 30 173h182l537 -1250l306 1250h178q-24 -63 -53 -168q-32 -116 -70 -272l-260 -1057h-168zM1364 2118h231l-504 -426h-150z" />
    <glyph glyph-name="nacute" unicode="&#x144;" horiz-adv-x="1226" 
d="M1079 20h-171q-2 13 -4 29q-2 20 -2 43q0 30 1.5 63t6.5 69q3 30 12 73l21 91l23 99q19 74 24 96q10 46 16 84q7 39 8 64q0 98 -39 144q-40 46 -115 46q-36 0 -78 -24q-40 -24 -84 -63t-88.5 -90.5t-84.5 -108.5q-21 -30 -76 -115q-34 -60 -56 -114v-1l-96 -385h-175
l153 619q8 33 15 80q6 46 10.5 97.5t7 106.5t2.5 106v31h172q0 -6 1 -12v-24q0 -34 -3 -74t-7.5 -82t-10.5 -79q-6 -38 -12 -64l-15 -56l32 47q54 80 111 146q59 67 122 116q63 48 129 76q66 27 133 27q123 0 181 -74q59 -74 59 -207q0 -28 -7 -72q-8 -44 -20 -96l-26 -107
l-28 -104l-24 -92q-10 -41 -13 -66q-6 -40 -10 -76q-3 -36 -3 -69q0 -30 2 -58q1 -20 6 -40zM1106 1662h233l-502 -426h-147z" />
    <glyph glyph-name="Ncaron" unicode="&#x147;" horiz-adv-x="1528" 
d="M1117 10l-538 1244l-305 -1244h-179q26 62 54 167q32 118 70 273l151 613l65 271q26 109 30 173h182l537 -1250l306 1250h178q-24 -63 -53 -168q-32 -116 -70 -272l-260 -1057h-168zM753 2118h134l218 -295l362 295h132l-426 -426h-167z" />
    <glyph glyph-name="ncaron" unicode="&#x148;" horiz-adv-x="1226" 
d="M1079 20h-171q-2 13 -4 29q-2 20 -2 43q0 30 1.5 63t6.5 69q3 30 12 73l21 91l23 99q19 74 24 96q10 46 17 84q6 39 7 64q0 98 -39 144q-40 46 -115 46q-36 0 -77 -24t-85 -63t-88.5 -90.5t-84.5 -108.5l-76 -115q-34 -60 -56 -114v-1l-96 -385h-175l153 619q8 33 15 80
q6 46 10.5 97.5t7 106.5t2.5 106v31h172q0 -6 1 -12v-24q0 -34 -3 -74t-7.5 -82t-10.5 -79q-6 -38 -12 -64l-15 -56l32 47q54 80 111 146q59 67 122 116q63 48 129 76q66 27 134 27q122 0 180 -74q59 -74 59 -207q0 -28 -7 -72q-8 -44 -20 -96l-26 -107l-28 -104l-24 -92
q-10 -41 -13 -66q-6 -40 -10 -76q-3 -36 -3 -69q0 -30 2 -58q1 -20 6 -40zM503 1662h132l216 -294l360 294h131l-423 -426h-165z" />
    <glyph glyph-name="Eng" unicode="&#x14a;" horiz-adv-x="1523" 
d="M430 1512h182q2 -27 2 -63q0 -33 -2 -72t-6 -81.5t-11 -84.5q-7 -43 -18 -83l-12 -46l30 37q80 102 157 181t152 133q74 54 147 82q73 27 148 27q72 0 132 -23q59 -22 101 -70t64 -121q23 -74 23 -176q0 -46 -12 -123q-11 -78 -28.5 -172.5t-38.5 -195.5l-41 -187
l-34 -151q-15 -65 -20 -90q-23 -102 -49 -187q-26 -86 -55 -155q-30 -68 -64 -123t-71 -99q-31 -35 -73 -65q-42 -29 -89.5 -51t-97.5 -34t-97 -12q-32 0 -66.5 6t-67 16.5t-62.5 26.5q-24 13 -43 29l101 141q24 -24 63 -42q47 -22 101 -22q44 0 97.5 25t104.5 86
q52 61 99 163q46 103 80 260l15 66l22 100l27 122l29 134l28 138l24 131t17 113q6 52 6 87q0 73 -15 123q-14 52 -43 84t-71 47q-41 14 -94 14q-43 0 -96 -27q-53 -26 -109 -71q-55 -44 -111 -102t-106.5 -122t-93.5 -130.5t-71 -126.5l-1 -1l-185 -755h-196l19 57
q14 44 30 103l35 128l38 146l116 468q12 46 23 113t20 139t14 143.5t5 130.5q0 35 -2 64z" />
    <glyph glyph-name="eng" unicode="&#x14b;" horiz-adv-x="1226" 
d="M310 1060h172q0 -6 1 -12v-24q0 -33 -3 -73q-3 -41 -7.5 -83t-10.5 -79q-6 -38 -12 -64l-15 -56l32 47q54 80 111 146q58 67 120 115q62 49 128 77q65 27 132 27q127 0 186 -75q59 -76 59 -210q0 -29 -10 -88t-24 -132.5t-31 -153.5l-34 -152l-30 -126q-14 -55 -19 -78
q-36 -153 -95 -260q-56 -105 -124.5 -171t-147 -97t-159.5 -31q-21 0 -50 5q-29 6 -59 15t-59 22q-24 11 -41 23l70 158q11 -9 27 -18q23 -13 48.5 -23t51.5 -16q27 -6 49 -6q45 0 91 26q45 25 88 76q43 50 80 125q36 76 59 179q8 29 20 82l25 119l29 134l26 132
q12 63 20 112q7 50 7 75q0 100 -40 147t-115 47q-35 0 -76 -24q-40 -24 -84 -63t-88 -90.5t-83 -108.5l-77 -115q-33 -60 -55 -114v-1l-96 -385h-175l153 619q8 33 15 80q6 46 10.5 97.5t7 106.5t2.5 106v31z" />
    <glyph glyph-name="Omacron" unicode="&#x14c;" horiz-adv-x="1493" 
d="M1502.5 1224q39.5 -103 39.5 -234q0 -143 -34 -273.5t-95 -243.5q-60 -112 -142 -206q-81 -92 -175.5 -157t-197.5 -101t-208 -36q-101 0 -191 37q-90 38 -157 108q-67 71 -106.5 173.5t-39.5 235.5q0 143 34 274t95 243q60 112 142 205q81 92 175.5 157t198.5 101
q105 35 211 35q100 0 188 -37q89 -37 156 -107q67 -71 106.5 -174zM598 166.5q66 -30.5 147 -30.5q94 0 176 36t148.5 95.5t118.5 140.5t87 171q36 91 54 185q19 96 19 185q0 98 -24 178q-25 80 -70.5 136.5t-111 87t-144.5 30.5q-95 0 -177 -35q-81 -36 -148.5 -95.5
t-120.5 -140.5q-52 -80 -88 -170q-37 -91 -56 -185q-19 -96 -19 -185q0 -98 25 -178q25 -81 71.5 -138t112.5 -87.5zM683 1764l33 136h760l-34 -136h-759z" />
    <glyph glyph-name="omacron" unicode="&#x14d;" horiz-adv-x="1160" 
d="M841.5 914q-44.5 20 -99.5 20q-93 0 -169 -50q-75 -50 -128 -127.5t-83 -171.5q-29 -94 -29 -185q0 -65 18 -117q17 -51 49 -88q32 -36 76 -56q45 -19 101 -19q61 0 116 22q54 22 99 62q46 39 81.5 91t59.5 111q23 58 37 121q14 62 14 124q0 64 -18 117q-17 54 -48.5 90
t-76 56zM180.5 198.5q-29.5 71.5 -29.5 163.5q0 88 20.5 176t59.5 168t97 148q56 68 126 119q69 51 151.5 79.5t177.5 28.5q85 0 154 -27q71 -27 122 -77t79 -123q28 -72 28 -164q0 -90 -20 -177t-58.5 -167t-95.5 -149q-56 -69 -123 -117q-68 -50 -149.5 -78t-172.5 -28
q-84 0 -156 27q-74 27 -127.5 76.5t-83 121zM419 1308l33 136h755l-34 -136h-754z" />
    <glyph glyph-name="Obreve" unicode="&#x14e;" horiz-adv-x="1493" 
d="M1502.5 1224q39.5 -103 39.5 -234q0 -143 -34 -273.5t-95 -243.5q-60 -112 -142 -206q-81 -92 -175.5 -157t-197.5 -101t-208 -36q-101 0 -191 37q-90 38 -157 108q-67 71 -106.5 173.5t-39.5 235.5q0 143 34 274t95 243q60 112 142 205q81 92 175.5 157t198.5 101
q105 35 211 35q100 0 188 -37q89 -37 156 -107q67 -71 106.5 -174zM598 166.5q66 -30.5 147 -30.5q94 0 176 36t148.5 95.5t118.5 140.5t87 171q36 91 54 185q19 96 19 185q0 98 -24 178q-25 80 -70 137q-46 56 -111.5 86.5t-144.5 30.5q-95 0 -177 -35
q-81 -36 -148.5 -95.5t-120.5 -140.5q-52 -80 -88 -170q-37 -91 -56 -185q-19 -96 -19 -185q0 -98 25 -178q25 -81 71.5 -138t112.5 -87.5zM1434 2066h110q-19 -67 -59 -135q-43 -74 -106 -131t-142 -94q-77 -36 -165 -36q-74 0 -129.5 25t-93.5 67.5t-57 98.5
q-19 57 -19 117q0 24 3 48q3 20 7 40h105v-10v-20q0 -48 13 -89q13 -42 39.5 -73.5t64 -49.5t85.5 -18q53 0 105 22q52 21 98 58q47 37 84 84q35 45 57 96z" />
    <glyph glyph-name="obreve" unicode="&#x14f;" horiz-adv-x="1160" 
d="M842.5 914q-44.5 20 -99.5 20q-93 0 -169 -50q-75 -50 -128.5 -127.5t-83.5 -171.5q-29 -94 -29 -185q0 -65 18 -117q17 -51 49 -88q32 -36 77 -56q44 -19 100 -19q62 0 117 22q54 22 100 62q45 39 80.5 91t60 110.5t37.5 121t13 124.5q0 64 -17 117t-49 89.5t-76.5 56.5
zM180.5 198.5q-29.5 71.5 -29.5 163.5q0 88 20.5 176t59.5 168t97 148q56 68 126 119t152.5 79.5t178.5 28.5q84 0 154 -27q68 -26 120 -77q50 -50 79 -123q28 -72 28 -164q0 -90 -20 -177t-59 -167q-38 -78 -94 -149q-54 -68 -122 -117.5t-150 -77.5t-174 -28
q-84 0 -156 27q-74 27 -127.5 76.5t-83 121zM1165 1610h110q-19 -67 -59 -135q-43 -74 -106 -131t-141 -93q-77 -36 -164 -36q-74 0 -129 25t-92.5 67.5t-56.5 98.5t-19 117q0 24 3 47q2 20 7 40h104v-10v-20q0 -48 13 -89q13 -42 39 -73.5t63.5 -49.5t85.5 -18q52 0 104 22
q52 21 97 58q47 37 84 84q35 45 57 96z" />
    <glyph glyph-name="Odblacute" unicode="&#x150;" horiz-adv-x="1493" 
d="M1502.5 1224q39.5 -103 39.5 -234q0 -143 -34 -273.5t-95 -243.5q-60 -114 -141 -206q-80 -92 -174.5 -157t-198.5 -101q-103 -36 -208 -36q-102 0 -191 37q-91 38 -158 108q-67 71 -106.5 173.5t-39.5 235.5q0 143 34 274t95 243q60 112 142 205q81 92 175.5 157
t199.5 101q105 35 211 35q101 0 189 -37q87 -36 154 -107t106.5 -174zM598 166.5q66 -30.5 148 -30.5q94 0 176 36t149 95.5t119 140.5t87 171t53.5 185.5t18.5 184.5q0 98 -24 178t-70 137q-45 56 -110.5 86.5t-145.5 30.5q-95 0 -177 -35q-82 -36 -149.5 -95.5
t-120.5 -140.5q-52 -80 -88 -170q-37 -91 -56 -185q-19 -96 -19 -185q0 -98 25 -178q25 -81 71.5 -138t112.5 -87.5zM1062 2118h212l-398 -448h-132zM1416 2118h215l-402 -448h-132z" />
    <glyph glyph-name="odblacute" unicode="&#x151;" horiz-adv-x="1160" 
d="M844.5 914q-44.5 20 -100.5 20q-93 0 -169 -50t-129.5 -127.5t-83.5 -171.5q-29 -94 -29 -185q0 -65 18 -117q17 -51 50 -88q31 -36 76 -56q45 -19 101 -19q62 0 117 22q54 22 100 62q46 39 81.5 91t60 110.5t38 121t13.5 124.5q0 64 -17 117q-18 53 -50 89.5t-76.5 56.5
zM180.5 198.5q-29.5 71.5 -29.5 163.5q0 88 20.5 176t59.5 168t97 148q56 68 127 119q69 51 152 79.5t179 28.5q85 0 155 -27t119 -77t77.5 -122.5t28.5 -164.5q0 -90 -20 -177q-20 -86 -58 -167q-38 -80 -92.5 -148.5t-123 -118t-150.5 -77.5t-174 -28q-85 0 -157 27
q-74 27 -127.5 76.5t-83 121zM795 1662h211l-395 -447h-132zM1146 1662h216l-401 -447h-131z" />
    <glyph glyph-name="OE" unicode="&#x152;" horiz-adv-x="2016" 
d="M582 166.5q58 -30.5 125 -30.5q86 0 161 36t138 96q62 60 112 141q50 80 84 170t52.5 185.5t18.5 184.5q0 98 -24 178q-23 80 -65 136q-43 57 -99 87q-57 31 -123 31q-84 0 -160 -35q-75 -36 -139 -96q-63 -60 -113 -140q-51 -80 -86 -170q-36 -90 -54 -185
q-19 -96 -19 -185q0 -98 24.5 -178.5t66.5 -137.5t100 -87.5zM2189 1517l-37 -154h-583l-123 -494h505l-35 -149h-503l-138 -566h195q155 0 262 2q95 2 158 11l-40 -167h-773l60 233l-31 -41q-35 -48 -85 -88q-51 -39 -110.5 -68.5t-123.5 -46.5q-63 -16 -125 -16
q-87 0 -170 37q-83 38 -149 108q-65 71 -106 173.5t-41 235.5q0 143 32 274t88 244q56 112 134 204q77 92 166 157t189 101q100 35 201 35q64 0 119.5 -19t101.5 -54t79 -82.5t50 -104.5l10 -34l69 269h754z" />
    <glyph glyph-name="oe" unicode="&#x153;" horiz-adv-x="1866" 
d="M1612.5 924q-30.5 10 -64.5 10q-57 0 -114 -21q-57 -20 -108.5 -58.5t-93 -92.5t-67.5 -121l-5 -12l13 -2q53 -6 98 -9t88 -3q89 0 156 14q68 13 112 37q45 23 68 57q23 35 23 75q0 31 -14 56q-13 25 -38 43q-23 17 -53.5 27zM833.5 914q-42.5 20 -94.5 20
q-91 0 -167 -50q-75 -50 -127.5 -127.5t-82.5 -171.5q-29 -94 -29 -185q0 -65 17 -117q17 -51 48 -88q31 -36 75 -56q44 -19 96 -19q60 0 114 22t99 62q45 39 80.5 91t60 110.5t38 121t13.5 124.5q0 64 -17 117q-18 53 -49.5 89.5t-74 56.5zM1786 261l-11 -175
q-41 -21 -89 -41q-52 -21 -107 -36q-56 -16 -116 -26q-61 -9 -121 -9q-135 0 -220 58t-125 156l-6 15l-11 -13q-81 -98 -193 -157t-248 -59q-82 0 -153 27t-123.5 76.5t-82 121t-29.5 163.5q0 88 20.5 176t59 168t95.5 148q56 68 126 119t152.5 79.5t175.5 28.5
q119 0 208 -55q88 -54 130 -154l6 -14l11 11q86 98 205 155q118 57 262 57q78 0 136 -21t94.5 -55.5t54 -76.5t17.5 -84q0 -71 -28 -135q-27 -64 -88 -113t-160 -77q-97 -29 -238 -29q-55 0 -115.5 5t-132.5 14l-9 1l-2 -10q-3 -28 -3 -56q0 -64 14 -122q15 -59 47 -102
q31 -43 80.5 -68.5t118.5 -25.5q49 0 103 10.5t108 29.5q54 20 107 47q42 22 80 48z" />
    <glyph glyph-name="Racute" unicode="&#x154;" horiz-adv-x="1332" 
d="M630 1366l-136 -566h209q92 0 173 19q82 20 141 61q60 41 94.5 105.5t34.5 155.5q0 105 -83 168q-81 62 -246 62q-55 0 -95.5 -1.5t-83.5 -3.5h-8zM459 660l-49 -206q-20 -77 -35 -146l-30 -127q-13 -58 -21 -104q-8 -39 -10 -67h-208q26 62 54 167l69 273l146 587
l36 149q18 72 31 134.5t22 112.5q8 44 10 74q45 2 102 5q53 2 126.5 3.5t165.5 1.5q103 0 190 -22q85 -22 146 -65q62 -42 97 -105t35 -144q0 -108 -37 -194t-101 -150q-63 -65 -146 -105q-84 -40 -177 -58l-13 -3l6 -11l48 -99l62 -125l68 -137l68 -130l58 -107
q17 -32 30 -52h-239l-279 650h-225zM1228 2118h232l-504 -426h-148z" />
    <glyph glyph-name="racute" unicode="&#x155;" horiz-adv-x="924" 
d="M297 20h-175l153 619q8 33 15 80q6 46 10.5 97.5t7 106.5t2.5 106v31h171q0 -26 -2 -61q-2 -41 -5.5 -89t-10 -95.5t-14.5 -86.5l-10 -49l28 41q52 78 104 142q54 66 109 115q54 49 107 77q52 27 100 27q43 0 74 -15t50 -41q20 -26 29 -62t9 -79q0 -32 -6 -68
q-5 -33 -13 -66l-151 -28q7 37 7 72q0 52 -19 88q-21 39 -62 39q-24 0 -56 -22q-30 -20 -66 -56q-35 -35 -73 -81.5t-74 -97.5q-33 -47 -70 -105q-32 -45 -63 -104v-1zM953 1662h233l-500 -426h-146z" />
    <glyph glyph-name="Rcaron" unicode="&#x158;" horiz-adv-x="1332" 
d="M630 1366l-136 -566h209q92 0 173 19q82 20 141 61q60 41 94.5 105.5t34.5 155.5q0 105 -83 168q-81 62 -246 62q-55 0 -95.5 -1.5t-83.5 -3.5h-8zM459 660l-49 -206q-20 -77 -35 -146l-30 -127q-13 -58 -21 -104q-8 -39 -10 -67h-208q26 62 54 167l69 273l146 587
l36 149q18 72 31 134.5t22 112.5q8 44 10 74q46 2 102 5q53 2 126.5 3.5t165.5 1.5q103 0 190 -22q85 -22 147 -65q61 -42 96 -105t35 -144q0 -108 -37 -194t-101 -150q-63 -65 -146 -105q-84 -40 -177 -58l-13 -3l6 -11l48 -99l62 -125l68 -137l68 -130l58 -107
q17 -32 30 -52h-239l-279 650h-225zM619 2118h134l218 -295l361 295h132l-425 -426h-167z" />
    <glyph glyph-name="rcaron" unicode="&#x159;" horiz-adv-x="924" 
d="M297 20h-175l153 619q8 33 15 80q6 46 10.5 97.5t7 106.5t2.5 106v31h171q0 -26 -2 -61q-2 -41 -5.5 -89t-10 -95.5t-14.5 -86.5l-10 -49l28 41q52 78 104 142q54 66 109 115q54 49 107 77q52 27 100 27q43 0 74 -15t50 -41q20 -26 29 -62t9 -79q0 -32 -6 -68
q-5 -33 -13 -66l-151 -28q7 37 7 72q0 52 -19 88q-21 39 -62 39q-24 0 -56 -22q-30 -20 -66 -56q-35 -35 -73 -81.5t-74 -97.5q-33 -47 -70 -105q-32 -45 -63 -104v-1zM351 1662h136l213 -294l358 294h131l-422 -426h-163z" />
    <glyph glyph-name="Sacute" unicode="&#x15a;" horiz-adv-x="1184" 
d="M1291 1434l-84 -183q-74 62 -156 95q-89 35 -180 35q-74 0 -138 -15q-65 -15 -113 -44q-49 -30 -77 -72q-29 -43 -29 -99q0 -34 19 -64q19 -29 56 -62q37 -32 94 -69t136 -84q99 -60 162 -119q62 -59 97 -115t49 -108q13 -51 13 -94q0 -119 -46 -205q-47 -87 -124 -144
q-78 -57 -181 -85t-216 -28q-73 0 -145 18q-71 17 -138 48q-66 30 -124 70q-55 38 -97 80l92 183q43 -52 98 -93q61 -46 125 -77q64 -32 130 -50q65 -17 124 -17q69 0 126.5 21t99 56.5t65.5 82.5q23 46 23 99q0 35 -10 72q-11 37 -44 79q-33 41 -93 89q-61 47 -161 104
q-71 43 -129 85q-57 42 -96 87t-61 94q-22 47 -22 101q0 104 41 185t115 136q74 56 177 85q103 30 225 30q118 0 216 -28q94 -27 181 -80zM1199 2118h232l-504 -426h-149z" />
    <glyph glyph-name="sacute" unicode="&#x15b;" horiz-adv-x="961" 
d="M1004 1003l-73 -163q-20 13 -45 27q-32 17 -72 32.5t-85 24.5q-46 10 -95 10q-99 0 -156 -32q-60 -34 -60 -97q0 -26 13 -47q13 -19 40 -39q26 -18 68 -41l99 -54q56 -32 105 -65t86 -70q35 -36 55 -78q20 -41 20 -90q0 -78 -31 -142t-85 -110q-55 -46 -129 -71
q-75 -25 -160 -25q-72 0 -134 16q-63 16 -117 42q-55 26 -99 60q-41 32 -74 68l84 157q30 -37 67 -70q44 -37 95 -65q50 -28 105 -45q57 -16 119 -16q36 0 69 31q33 11 58 31q25 19 40 47q16 28 16 62q0 29 -15 54q-14 26 -43 51q-29 24 -76 51q-46 27 -113 61
q-111 56 -176 121q-63 62 -63 140q0 64 28 119q28 56 83 99q53 43 129.5 68.5t173.5 25.5q67 0 122.5 -7.5t99.5 -19t77 -26.5q28 -12 49 -25zM996 1662h232l-502 -426h-149z" />
    <glyph glyph-name="Scircumflex" unicode="&#x15c;" horiz-adv-x="1184" 
d="M1291 1434l-84 -183q-75 62 -159 95q-88 35 -179 35q-74 0 -138 -15t-112 -44q-49 -30 -77 -72q-28 -43 -28 -99q0 -34 19 -64q18 -29 55 -62q37 -32 94 -69t136 -84q98 -60 161 -119q62 -59 97 -115q36 -57 49 -108q14 -51 14 -94q0 -119 -47 -205q-47 -87 -124 -144
t-180 -85t-216 -28q-73 0 -144 18q-71 17 -138 48q-66 30 -124 70q-55 38 -97 80l92 183q43 -52 98 -93q61 -46 125 -77q64 -32 129 -50q66 -17 124 -17q68 0 126 21t99 56.5t65 82.5q23 46 23 99q0 35 -10 72q-11 37 -44 79q-32 41 -93 89q-60 47 -160 104q-70 43 -128 85
q-57 42 -96 87t-61 94q-22 47 -22 101q0 104 41 185t115 136q74 56 176 85q102 30 224 30q118 0 216 -28q96 -27 183 -80zM616 1692h-128l420 426h165l257 -426h-135l-219 294z" />
    <glyph glyph-name="scircumflex" unicode="&#x15d;" horiz-adv-x="961" 
d="M1004 1003l-74 -163q-21 13 -47 27q-32 17 -72 32q-39 16 -85 25q-45 10 -93 10q-99 0 -156 -32q-60 -34 -60 -97q0 -26 14 -47q12 -19 39 -39q26 -18 67 -41l99 -54q56 -32 105 -65t85 -70q35 -36 55 -78q21 -41 21 -90q0 -78 -32 -142q-31 -64 -85 -110
q-55 -46 -128 -71q-74 -25 -158 -25q-73 0 -134 16q-63 16 -117 42q-55 26 -99 60q-41 32 -74 68l84 157q30 -37 67 -70q44 -37 95 -65q49 -28 105 -45q56 -16 118 -16q35 0 68 31q33 11 58 31q25 19 40 47t15 62q0 29 -14 54q-14 26 -43 51q-29 24 -75 51q-47 27 -112 61
q-111 56 -176 121q-63 62 -63 140q0 64 28 119q28 56 82 99t130 68.5t172 25.5q67 0 122.5 -7.5t99.5 -19.5q45 -12 78 -26q29 -12 50 -25zM417 1236h-128l416 426h165l257 -426h-135l-218 294z" />
    <glyph glyph-name="Scedilla" unicode="&#x15e;" horiz-adv-x="1184" 
d="M1291 1434l-84 -183q-75 62 -160 95q-88 35 -178 35q-73 0 -138 -15q-64 -15 -113 -44q-48 -30 -76 -72q-29 -43 -29 -99q0 -34 20 -64q18 -29 55 -62q36 -32 93 -69t136 -84q98 -60 161 -119q62 -59 98 -115t49 -108q14 -51 14 -94q0 -119 -47 -205q-48 -87 -125 -144
t-180 -86q-100 -26 -208 -27h-8l-23 -97l15 4q12 3 22.5 4.5t27.5 1.5q54 0 84 -36q31 -36 31 -91q0 -57 -28 -104q-28 -48 -74 -82t-102.5 -53t-111.5 -19q-38 0 -68 11q-25 9 -49 24l28 83q16 -11 33 -17q23 -8 58 -8q28 0 58 8q31 8 57 25t44 42q18 27 18 62q0 37 -25 59
t-64 22q-26 0 -54 -8q-15 -4 -29 -10l46 188l-10 2q-13 3 -28 7q-70 17 -137 48q-66 30 -124 70q-55 38 -97 80l92 183q43 -52 98 -93q61 -46 125 -77q64 -32 129 -50q65 -17 124 -17q68 0 125.5 21t99 56.5t64.5 82.5q23 46 23 99q0 35 -10 72q-11 37 -44 79q-32 41 -92 89
q-60 47 -160 104q-71 43 -128 85t-97 87q-39 45 -60 94q-22 47 -22 101q0 104 41 185t114 136q74 56 176 85q103 30 224 30q118 0 217 -28q96 -27 183 -80z" />
    <glyph glyph-name="scedilla" unicode="&#x15f;" horiz-adv-x="961" 
d="M1004 1003l-74 -163q-21 13 -47 27q-33 17 -74 32t-86 25t-93 10q-97 0 -154 -32q-60 -34 -60 -97q0 -26 14 -47q12 -19 39 -39q26 -18 66 -41l98 -54q55 -32 104 -65q51 -34 87 -70q37 -36 57 -78q21 -41 21 -90q0 -78 -32 -142t-88 -110t-128 -71q-74 -25 -157 -25h-16
l-23 -96l16 4q9 3 20 4.5t28 1.5q53 0 82 -36q31 -36 31 -91q0 -57 -28 -104q-27 -48 -72 -82t-100.5 -53t-109.5 -19q-39 0 -70 11q-26 9 -50 24l29 83q16 -11 33 -17q24 -8 60 -8q27 0 56 8q31 8 56 25q26 17 44 42q18 27 18 62q0 37 -25 59q-24 22 -63 22q-26 0 -53 -8
q-16 -4 -29 -10l44 190l-11 4h-1q-62 16 -115 42q-55 26 -99 60q-41 32 -74 68l84 157q30 -37 67 -70q44 -37 95 -65q49 -28 104 -45q55 -16 117 -16q35 0 67 31q33 11 58 31q25 19 39 47q16 28 16 62q0 29 -15 54q-13 26 -42 51q-29 24 -75 51t-111 61q-110 56 -174 121
q-63 62 -63 140q0 64 28 119q28 56 82 99q53 43 128.5 68.5t170.5 25.5q66 0 122 -7q57 -8 102.5 -19.5t78.5 -26.5q29 -12 50 -25z" />
    <glyph glyph-name="Scaron" unicode="&#x160;" horiz-adv-x="1184" 
d="M1291 1434l-84 -183q-74 62 -156 95q-89 35 -180 35q-74 0 -138 -15q-65 -15 -113 -44q-49 -30 -77 -72q-29 -43 -29 -99q0 -34 19 -64q19 -29 56 -62q37 -32 94 -69t136 -84q99 -60 162 -119q62 -59 97 -115t49 -108q13 -51 13 -94q0 -119 -46 -205q-47 -87 -124 -144
q-78 -57 -181 -85t-216 -28q-73 0 -145 18q-71 17 -138 48q-66 30 -124 70q-55 38 -97 80l92 183q43 -52 98 -93q61 -46 125 -77q64 -32 130 -50q66 -17 124 -17q69 0 126.5 21t99 56.5t65.5 82.5q23 46 23 99q0 35 -10 72q-11 37 -44 79q-33 41 -93 89q-61 47 -161 104
q-71 43 -128 85q-58 42 -97 87t-61 94q-22 47 -22 101q0 104 41 185t115 136q74 56 177 85q103 30 225 30q118 0 216 -28q94 -27 181 -80zM590 2118h134l218 -295l361 295h132l-425 -426h-167z" />
    <glyph glyph-name="scaron" unicode="&#x161;" horiz-adv-x="961" 
d="M1004 1003l-73 -163q-19 13 -45 27q-32 17 -72 32.5t-85 24.5q-46 10 -95 10q-99 0 -156 -32q-60 -34 -60 -97q0 -26 13 -47q13 -19 40 -39q26 -18 68 -41l99 -54q56 -32 105 -65t86 -70q35 -36 55 -78q20 -41 20 -90q0 -78 -31 -142t-85 -110q-55 -46 -129 -71
q-75 -25 -160 -25q-72 0 -134 16q-63 16 -117 42q-55 26 -99 60q-41 32 -74 68l84 157q30 -37 67 -70q44 -37 95 -65q50 -28 105 -45q57 -16 119 -16q36 0 69 31q33 11 58 31q25 19 40 47q16 28 16 62q0 29 -15 54q-14 26 -43 51q-29 24 -76 51q-46 27 -113 61
q-111 56 -176 121q-63 62 -63 140q0 64 28 119q28 56 83 99q53 43 129.5 68.5t173.5 25.5q67 0 123 -7.5t99.5 -19t76.5 -26.5q27 -12 49 -25zM391 1662h133l215 -294l361 294h132l-425 -426h-165z" />
    <glyph glyph-name="Tcedilla" unicode="&#x162;" horiz-adv-x="1279" 
d="M355 1497h1185l-43 -170q-56 11 -113 14q-61 4 -132 4h-256l-218 -901q-37 -155 -62 -272q-23 -109 -27 -172h-63l-30 -123l16 4q11 3 21.5 4.5t27.5 1.5q55 0 85 -36q31 -36 31 -91q0 -57 -29 -104q-28 -48 -73 -82q-46 -34 -102 -53q-58 -19 -114 -19q-41 0 -70 11
q-27 9 -51 24l28 83q17 -11 35 -17q24 -8 60 -8q27 0 58 8q33 8 59 25t44 42q18 27 18 62q0 37 -25 59t-64 22q-28 0 -57 -8q-16 -4 -30 -10l51 205h-41q26 62 56 167q33 115 70 273l220 905h-255q-71 0 -134 -4q-57 -3 -117 -13z" />
    <glyph glyph-name="tcedilla" unicode="&#x163;" horiz-adv-x="823" 
d="M188 896l33 133l209 -1l81 344h162l-38 -164l-39 -165l-3 -13h339l-33 -133h-339l-1 -7l-74 -315q-31 -136 -48 -233q-4 -22 -6 -44q-3 -22 -3 -44q0 -24 5 -48q6 -24 18 -43t34 -30q21 -11 53 -11q51 0 106 25l109 50l-11 -146q-82 -45 -146 -59q-47 -13 -87 -16l-6 -1
l-22 -98l15 4q10 3 20 4.5t27 1.5q51 0 80 -36t29 -91q0 -57 -27 -104q-26 -48 -70 -82t-97 -53q-54 -19 -113 -19q-39 0 -69 11q-27 9 -51 24l29 83q16 -11 34 -17q24 -8 59 -8q28 0 59.5 8t56.5 25t42 42q17 27 17 62q0 36 -23 59q-23 22 -61 22q-27 0 -56 -8
q-16 -4 -30 -10l47 188l-9 3q-4 1 -7 1q-41 14 -71 42q-30 29 -47 75q-18 47 -18 115q0 21 2 45q1 23 6 48v0q5 33 17 88t30 129l41 163l48 192l3 12h-206z" />
    <glyph glyph-name="Tcaron" unicode="&#x164;" horiz-adv-x="1279" 
d="M355 1507h1185l-43 -170q-56 11 -113 14q-61 4 -132 4h-256l-218 -901q-38 -155 -62 -272q-23 -109 -27 -172h-215q26 62 56 167q33 115 70 273l220 905h-255q-71 0 -134 -4q-57 -3 -117 -13zM638 2118h133l216 -295l360 295h131l-423 -426h-166z" />
    <glyph glyph-name="Utilde" unicode="&#x168;" horiz-adv-x="1465" 
d="M1405 1497h194q-23 -63 -51 -165q-32 -113 -72 -275l-138 -556q-30 -119 -84 -217q-54 -96 -136.5 -165t-193.5 -107q-112 -38 -256 -38q-112 0 -192 33q-81 32 -132.5 89t-76.5 133q-25 77 -25 163q0 87 24 181l121 480q39 155 65 271q25 109 30 173h192l-219 -888
q-14 -53 -21.5 -104.5t-7.5 -100.5q0 -59 14 -111q15 -53 48 -91t87 -60t133 -22q185 0 299 110t171 340zM790 1728h-89q11 40 32 78q25 45 58.5 79.5t74.5 55.5q40 21 84 21q41 0 77 -16l86 -37l83 -36q34 -15 69 -15q21 0 39 9t34 23q15 13 26 31q10 14 17 30h92
q-13 -41 -35 -81q-25 -45 -60 -79t-76.5 -54t-87.5 -20q-39 0 -76 13q-38 14 -80 36q-53 27 -86 41q-34 14 -66 14q-42 0 -73 -30q-28 -27 -43 -63z" />
    <glyph glyph-name="utilde" unicode="&#x169;" horiz-adv-x="1205" 
d="M1061 0h-169q0 73 3 147q3 78 18 164l7 42l-25 -34q-52 -74 -112 -137t-122.5 -109t-123.5 -73q-60 -27 -112 -27q-118 0 -181.5 63.5t-63.5 191.5q0 40 7 83q7 44 20 96l74 307l21 89q10 41 18 80t13 79q5 36 10 78h184q-5 -55 -19 -122q-16 -75 -42 -181l-70 -278
q-29 -117 -29 -172q0 -84 34 -123q34 -41 89 -41q27 0 66 21q38 20 81 55q43 34 88.5 79.5t87.5 96.5t79 105q44 63 63 105l1 1v1l35 145q17 65 29 119q13 55 20 103q6 43 10 86h186q-4 -38 -14 -90q-13 -61 -31 -136l-41 -160q-23 -86 -45 -180q-21 -91 -34 -192
q-14 -100 -14 -186q0 -31 1 -57q1 -20 3 -39zM554 1272h-88q11 40 32 79q25 44 58 78.5t73 55.5t83 21q41 0 76 -16l84 -37l83 -36q34 -15 70 -15q21 0 40 9t34 23q15 13 27 31q10 15 17 31h91q-12 -42 -34 -81q-25 -45 -60 -79t-78 -54q-42 -21 -88 -21q-40 0 -76 13
q-37 14 -79 36q-53 28 -85 41q-34 14 -65 14q-41 0 -73 -30q-28 -27 -42 -63z" />
    <glyph glyph-name="Umacron" unicode="&#x16a;" horiz-adv-x="1465" 
d="M1405 1497h194q-23 -63 -51 -165q-32 -113 -72 -275l-138 -556q-30 -119 -84 -217q-54 -96 -136.5 -165t-193.5 -107q-112 -38 -256 -38q-112 0 -192 33q-81 32 -132.5 89t-76.5 133q-25 77 -25 163q0 87 24 181l121 480q39 155 65 271q25 109 30 173h192l-219 -888
q-14 -53 -21.5 -104.5t-7.5 -100.5q0 -59 14 -111q15 -53 48 -91t87 -60t133 -22q185 0 299 110t171 340zM674 1764l33 136h758l-34 -136h-757z" />
    <glyph glyph-name="umacron" unicode="&#x16b;" horiz-adv-x="1205" 
d="M1061 0h-169q0 73 3 147q3 78 18 164l7 42l-25 -34q-52 -74 -112 -137t-122.5 -109t-123.5 -73q-60 -27 -112 -27q-118 0 -181.5 63.5t-63.5 191.5q0 40 7 83q7 44 20 96l74 307l21 89q10 41 18 80t13 79q5 36 10 78h184q-5 -55 -19 -122q-16 -75 -42 -181l-70 -278
q-29 -117 -29 -172q0 -84 34 -123q34 -41 89 -41q27 0 66 21q38 20 81 55q43 34 88.5 79.5t87.5 96.5t79 105q44 63 63 105l1 1v1l35 145q17 65 29 119q13 55 20 103q6 43 10 86h186q-4 -38 -14 -90q-13 -61 -31 -136l-41 -160q-23 -86 -45 -180q-21 -91 -34 -192
q-14 -100 -14 -186q0 -31 1 -57q1 -20 3 -39zM439 1308l33 136h755l-34 -136h-754z" />
    <glyph glyph-name="Ubreve" unicode="&#x16c;" horiz-adv-x="1465" 
d="M1405 1497h194q-23 -63 -51 -165q-32 -113 -72 -275l-138 -556q-30 -119 -84 -217q-54 -96 -136.5 -165t-193.5 -107q-112 -38 -256 -38q-112 0 -192 33q-81 32 -132.5 89t-76.5 133q-25 77 -25 163q0 87 24 181l121 480q39 155 65 271q25 109 30 173h192l-219 -888
q-14 -53 -21.5 -104.5t-7.5 -100.5q0 -59 14 -111q15 -53 48 -91t87 -60t133 -22q185 0 299 110t171 340zM1424 2066h109q-19 -67 -59 -135q-43 -74 -106 -131q-62 -58 -139 -94q-78 -36 -166 -36q-74 0 -130 25t-93 67.5t-56 98.5q-19 57 -19 117q0 24 2 48q2 20 6 40h105
v-10v-20q0 -48 14 -89q13 -42 40 -73q26 -32 63.5 -50t85.5 -18q52 0 105 22q52 21 98 58t83 84q35 45 57 96z" />
    <glyph glyph-name="ubreve" unicode="&#x16d;" horiz-adv-x="1205" 
d="M1061 0h-169q0 73 3 147q3 78 18 164l7 42l-25 -34q-52 -74 -112 -137t-122.5 -109t-123.5 -73q-60 -27 -112 -27q-118 0 -181.5 63.5t-63.5 191.5q0 40 7 83q7 44 20 96l74 307l21 89q10 41 18 80t13 79q5 36 10 78h184q-5 -55 -19 -122q-16 -75 -42 -181l-70 -278
q-29 -117 -29 -172q0 -84 34 -123q34 -41 89 -41q27 0 66 21q38 20 81 55q43 34 88.5 79.5t87.5 96.5t79 105q49 70 65 105v1l1 1l35 145q16 65 28 119q12 55 19 103q6 43 10 86h186q-4 -38 -14 -90q-13 -61 -31 -136l-41 -160q-23 -86 -45 -180q-21 -91 -34 -192
q-14 -100 -14 -186q0 -31 1 -57q1 -20 3 -39zM1185 1610h110q-19 -67 -59 -135q-43 -74 -106 -131t-141 -93q-77 -36 -164 -36q-73 0 -128.5 25t-93 67.5t-55.5 98.5q-19 56 -19 117q0 24 2 47q2 20 7 40h104v-10v-20q0 -48 13 -89q13 -42 39 -73.5t63.5 -49.5t85.5 -18
q52 0 104 22q52 21 97 58q47 37 84 84q35 45 57 96z" />
    <glyph glyph-name="Uring" unicode="&#x16e;" horiz-adv-x="1465" 
d="M1405 1497h194q-23 -63 -51 -165q-32 -113 -72 -275l-138 -556q-30 -119 -84 -217q-54 -96 -136.5 -165t-193.5 -107q-112 -38 -256 -38q-112 0 -192 33q-81 32 -132.5 89t-76.5 133q-25 77 -25 163q0 87 24 181l121 480q39 155 65 271q25 109 30 173h192l-219 -888
q-14 -53 -21.5 -104.5t-7.5 -100.5q0 -59 14 -111q15 -53 48 -91t87 -60t133 -22q185 0 299 110t171 340zM895.5 1797.5q-13.5 31.5 -13.5 67.5q0 50 21 95q22 46 58.5 81t84.5 56q47 21 99 21q39 0 71.5 -13.5t55 -37.5t35.5 -55q14 -32 14 -69q0 -50 -22 -95
q-22 -46 -58.5 -80.5t-84 -55t-99.5 -20.5q-38 0 -70 13.5t-55 37t-36.5 55zM1008 1813q24 -23 67 -23q28 0 53.5 10.5t46 30.5t32.5 46t12 57q0 38 -25 61t-68 23q-26 0 -51.5 -10.5t-45.5 -30t-33 -45.5q-12 -27 -12 -57q0 -38 24 -62z" />
    <glyph glyph-name="uring" unicode="&#x16f;" horiz-adv-x="1205" 
d="M1061 0h-169q0 73 3 147q3 78 18 164l7 42l-25 -34q-52 -74 -112 -137t-122.5 -109t-123.5 -73q-60 -27 -112 -27q-118 0 -181.5 63.5t-63.5 191.5q0 40 7 83q7 44 20 96l74 307l21 89q10 41 18 80t13 79q5 36 10 78h184q-5 -55 -19 -122q-16 -75 -42 -181l-70 -278
q-29 -117 -29 -172q0 -84 34 -123q34 -41 89 -41q27 0 66 21q38 20 81 55q43 34 88.5 79.5t87.5 96.5t79 105q44 63 63 105l1 1v1l35 145q17 65 29 119q13 55 20 103q6 43 10 86h186q-4 -38 -14 -90q-13 -61 -31 -136l-41 -160q-23 -86 -45 -180q-21 -91 -34 -192
q-14 -100 -14 -186q0 -31 1 -57q1 -20 3 -39zM658 1341q-13 32 -13 68q0 50 21 96q22 46 58 80.5t83 55.5t98 21q38 0 70 -14q33 -14 56.5 -37t36.5 -55t13 -68q0 -50 -22 -96t-60 -81q-37 -35 -83.5 -55t-97.5 -20q-39 0 -70.5 13t-53.5 37t-36 55zM770 1358q23 -23 66 -23
q26 0 52 10.5t46 30t31 45.5q12 26 12 57q0 38 -24 61t-66 23q-27 0 -52.5 -10.5t-45 -30t-31.5 -45.5q-12 -27 -12 -57q0 -38 24 -61z" />
    <glyph glyph-name="Udblacute" unicode="&#x170;" horiz-adv-x="1465" 
d="M1405 1497h194q-23 -63 -51 -165q-32 -113 -72 -275l-138 -556q-30 -119 -84 -217q-54 -96 -136 -165t-194 -107t-256 -38q-112 0 -192 33q-81 32 -132.5 89t-76.5 133q-25 77 -25 163q0 87 24 181l121 480q39 155 65 271q25 109 30 173h192l-219 -888
q-14 -53 -21.5 -104.5t-7.5 -100.5q0 -59 14 -111q15 -53 48 -91t87 -60t133 -22q185 0 300 110q114 110 170 340zM1052 2118h211l-397 -448h-132zM1405 2118h216l-402 -448h-132z" />
    <glyph glyph-name="udblacute" unicode="&#x171;" horiz-adv-x="1205" 
d="M1061 0h-169q0 73 3 147q3 78 18 164l7 42l-25 -34q-52 -74 -112 -137t-122.5 -109t-123.5 -73q-60 -27 -112 -27q-118 0 -181.5 63.5t-63.5 191.5q0 40 7 83q7 44 20 96l74 307l21 89q10 41 18 80t13 79q5 36 10 78h184q-4 -55 -19 -122q-16 -75 -42 -181l-70 -278
q-29 -117 -29 -172q0 -84 34 -123q34 -41 89 -41q27 0 66 21q38 20 81 55q43 34 88.5 79.5t87.5 96.5t79 105q55 78 67 105v1l1 1l35 145q16 65 28 119q13 55 20 103q6 43 10 86h183q-4 -38 -14 -90q-13 -61 -31 -136l-41 -160q-15 -57 -45 -180q-21 -91 -34 -192
q-14 -100 -14 -186q0 -31 1 -57q1 -20 3 -39zM815 1662h211l-395 -447h-131zM1166 1662h216l-401 -447h-131z" />
    <glyph glyph-name="Wcircumflex" unicode="&#x174;" horiz-adv-x="2143" 
d="M558 1498l5 -1354l708 1354h178l56 -1354l676 1354h219l-33 -52l-47 -80l-56 -101l-71 -133l-603 -1131h-223l-59 1247l-662 -1247h-224l-39 1127q-3 75 -6 132t-6 101.5t-8 80.5l-7 56h202zM1086 1692h-128l419 426h171l257 -426h-135l-222 294z" />
    <glyph glyph-name="wcircumflex" unicode="&#x175;" horiz-adv-x="1608" 
d="M893 1050h154q20 -148 32 -327q13 -183 13 -407v-62q0 -30 -1 -62l-1 -31l19 25q46 62 93.5 136.5t92 153t83 158.5t67.5 154q29 76 46 142q18 68 18 119v1h191q-2 -54 -24 -123q-24 -76 -64 -164.5t-94 -185.5l-116 -194l-125 -194l-127 -179h-193q-1 87 -1 178
q0 96 -1 196t-5 206.5t-13 221.5l-3 42l-16 -39q-28 -72 -77 -163q-50 -92 -114 -195l-141 -218l-154 -229h-195q15 126 23 247q8 127 8 243q0 174 -17 317q-16 134 -44 233h191q16 -70 25 -160q10 -95 10 -207q0 -116 -10.5 -240t-34.5 -249l-9 -46l27 38q156 225 279 445
q119 212 208 419zM710 1236h-129l423 426h167l252 -426h-133l-217 294z" />
    <glyph glyph-name="Ycircumflex" unicode="&#x176;" horiz-adv-x="1337" 
d="M713 10h-205q24 62 53 167q32 121 68 273l45 185l-162 475l-35 99q-17 49 -36.5 99.5t-43.5 102.5q-20 46 -46 96h210l246 -697l561 697h227l-97 -103l-91 -101l-81 -93l-79 -97l-397 -482l-44 -177l-63 -272q-25 -109 -30 -172zM691 1692h-129l420 426h166l252 -426
h-133l-216 294z" />
    <glyph glyph-name="ycircumflex" unicode="&#x177;" horiz-adv-x="994" 
d="M144 1040h198q24 -35 47 -86q25 -55 48.5 -124t42.5 -148t34 -162.5t23 -167t8 -162.5v-36l18 31q68 113 126.5 228.5t102.5 222.5q44 108 69 198q25 93 25 159q0 26 -4 47h192q2 -12 2 -28q0 -61 -33 -165q-33 -105 -96 -240q-61 -129 -149 -291q-85 -157 -188 -321
q-93 -146 -174 -241t-154 -149q-73 -55 -139.5 -76.5t-131.5 -21.5q-71 0 -126 25q-53 23 -97 60l93 149q11 -10 25 -20q20 -15 43 -26.5t50 -19.5q28 -8 55 -8q33 0 73 14.5t86 50.5q44 35 94.5 92t105.5 144l1 2v3q-2 169 -26 332.5t-62.5 306.5t-88.5 258
q-45 102 -93 170zM327 1236h-128l419 426h167l256 -426h-135l-218 294z" />
    <glyph glyph-name="Ydieresis" unicode="&#x178;" horiz-adv-x="1337" 
d="M713 10h-205q24 62 53 167q32 121 68 273l45 185l-162 475l-35 99q-17 49 -36.5 99.5t-43.5 102.5q-20 46 -46 96h210l246 -697l561 697h227l-97 -103l-91 -101l-81 -93l-79 -97l-397 -482l-44 -177l-63 -272q-25 -109 -30 -172zM954 1927q7 -21 7 -43q0 -30 -12 -57
t-33 -48.5t-49 -33.5q-27 -12 -58 -12q-22 0 -42 8.5t-33.5 24t-21.5 35t-8 42.5q0 26 11 53t30.5 48.5t48.5 34.5q28 14 63 14q22 0 41.5 -8.5t34.5 -23.5q14 -15 21 -34zM1389 1926q8 -20 8 -42q0 -30 -13 -57t-34 -48q-21 -22 -48.5 -34t-59.5 -12q-22 0 -41.5 8.5
t-32.5 23.5q-14 15 -22 35t-8 43q0 26 10.5 53.5t30.5 48.5t48 34q28 14 63 14q23 0 42 -9q20 -8 34.5 -23t22.5 -35z" />
    <glyph glyph-name="Zacute" unicode="&#x179;" horiz-adv-x="1242" 
d="M1450 1507l-30 -121l-1139 -1224h449q152 0 272 5q107 4 172 13l-42 -170h-1127l28 115l1141 1230h-397q-76 0 -138.5 -0.5t-113 -3t-91.5 -6.5q-32 -3 -59 -8l42 170h1033zM1225 2118h233l-505 -426h-150z" />
    <glyph glyph-name="zacute" unicode="&#x17a;" horiz-adv-x="985" 
d="M282 1060h803l-20 -84l-733 -775l39 15q32 11 70 11q39 0 83 -12l92 -27q47 -14 94 -25q47 -12 91 -12q46 0 88 8q30 6 54 16l-36 -175q-28 -12 -65 -20q-41 -7 -86 -6q-53 0 -109 16t-113 36q-58 21 -115 37q-58 17 -113 17q-56 0 -118 -26q-58 -24 -112 -75l-49 68
l815 877h-424q-24 0 -50 -2t-51 -5t-48 -8q-13 -3 -24 -6zM1000 1662h232l-503 -426h-148z" />
    <glyph glyph-name="Zdot" unicode="&#x17b;" horiz-adv-x="1242" 
d="M1450 1507l-30 -121l-1139 -1224h449q152 0 272 5q107 4 172 13l-42 -170h-1127l28 115l1141 1230h-397q-76 0 -138.5 -0.5t-113 -3t-91.5 -6.5q-32 -3 -59 -8l42 170h1033zM870 1802q-9 20 -9 43q0 30 13 56q13 27 34.5 47t50.5 33q28 12 59 12q24 0 43.5 -8.5t34.5 -24
t23.5 -36t8.5 -42.5q0 -30 -13 -56q-13 -27 -34.5 -48t-50.5 -33t-59 -12q-23 0 -43 9t-34.5 24.5t-23.5 35.5z" />
    <glyph glyph-name="zdot" unicode="&#x17c;" horiz-adv-x="985" 
d="M282 1060h803l-20 -84l-733 -775l39 15q31 11 69 11t82 -12l92 -27q46 -14 92 -25q47 -12 91 -12q47 0 90 8q30 6 55 16l-37 -175q-29 -12 -67 -20q-41 -7 -85 -6q-53 0 -108 16q-57 16 -113 36q-57 21 -114 37q-58 17 -113 17t-117 -26q-58 -24 -112 -75l-49 68l811 877
h-421q-24 0 -50 -2t-51 -5t-47 -8q-13 -3 -24 -6zM644.5 1346.5q-8.5 20.5 -8.5 42.5q0 30 13 56q13 27 34 47.5t49 32.5t59 12q23 0 42 -9q21 -8 35 -23q15 -16 24 -36t9 -43q0 -30 -13 -56q-14 -27 -36 -48t-50 -33t-58 -12q-23 0 -42 9q-20 9 -34.5 24.5t-23 36z" />
    <glyph glyph-name="Zcaron" unicode="&#x17d;" horiz-adv-x="1242" 
d="M1450 1507l-30 -121l-1139 -1224h449q152 0 272 5q107 4 172 13l-42 -170h-1127l28 115l1141 1230h-397q-76 0 -138.5 -0.5t-113 -3t-91.5 -6.5q-32 -3 -59 -8l42 170h1033zM615 2118h134l218 -295l363 295h131l-426 -426h-167z" />
    <glyph glyph-name="zcaron" unicode="&#x17e;" horiz-adv-x="985" 
d="M282 1060h803l-20 -84l-733 -775l39 15q32 11 70 11q39 0 83 -12l92 -27q47 -14 94 -25q47 -12 91 -12q47 0 88 8q30 6 55 16l-37 -175q-28 -12 -65 -20q-41 -7 -86 -6q-53 0 -109 16t-113 36q-58 21 -115 37q-58 17 -113 17q-56 0 -118 -26q-58 -24 -112 -75l-49 68
l815 877h-424q-24 0 -50 -2t-51 -5t-48 -8q-13 -3 -24 -6zM394 1662h133l217 -294l360 294h131l-423 -426h-166z" />
    <glyph glyph-name="Bhook" unicode="&#x181;" horiz-adv-x="1657" 
d="M1184 1366h-200l-120 -488h207q92 0 165 18q74 19 126 55q54 37 83.5 90.5t29.5 123.5q0 103 -74 153q-71 48 -217 48zM685 142l11 -1q30 -2 98 -3.5t157 -1.5q86 0 167 16t144 55q63 40 101 104q38 65 38 162q0 61 -23 111t-64 84q-41 33 -98 51t-125 18h-263zM379 932
l-165 -36q-4 18 -7 41q-3 31 -3 64q0 59 11 106q26 105 80 181q54 80 135 131q80 56 187 82q108 26 244 26h384q102 0 181 -24q80 -24 135 -66q54 -42 81.5 -99.5t27.5 -123.5q0 -78 -24 -140.5t-68 -112t-107 -84.5t-140 -57l-35 -9l35 -10q43 -12 87 -36q45 -24 82 -63
t60 -95t23 -131q0 -120 -45 -210q-46 -91 -131 -152q-84 -62 -206 -93q-122 -32 -275 -32q-79 0 -156.5 1.5t-143 3t-113.5 2.5q-33 2 -53 3q12 28 24 68q15 48 31 110l35 134l36 150l221 905h-39q-160 0 -259 -62q-102 -64 -131 -184q-8 -29 -10 -52q-3 -22 -3 -43
q0 -29 5 -54q3 -19 9 -39z" />
    <glyph glyph-name="Oopen" unicode="&#x186;" horiz-adv-x="1269" 
d="M85 184l136 153q21 -44 51 -79q35 -41 83 -68q46 -26 101 -40t114 -14q85 0 160 34q74 35 135 93q61 57 108 135q47 77 80 165q34 90 51 183q18 94 18 184q0 96 -22.5 178t-65 143t-106 95.5t-146.5 34.5q-118 0 -234 -59q-105 -53 -201 -144l11 193q92 80 212 125
q122 46 255 46q102 0 190 -39q91 -40 157 -113t104.5 -178.5t38.5 -237.5q0 -145 -27 -275.5t-77.5 -241.5t-122.5 -201q-71 -91 -158 -153q-88 -62 -192.5 -95.5t-221.5 -33.5q-65 0 -132 17t-127 46q-60 30 -107 70q-43 36 -65 77z" />
    <glyph glyph-name="Dafrican" unicode="&#x189;" horiz-adv-x="1466" 
d="M631 1376l-124 -517h394l-31 -132h-395l-136 -574l11 -1q37 -3 99 -7t137 -4q142 0 253 31q112 32 195.5 96t140.5 163q55 97 89 232q32 131 32 240q0 240 -112 359q-111 119 -330 119q-27 0 -56 -0.5t-57.5 -1.5t-55 -1.5t-47.5 -1.5h-7zM112 727l33 132h186l44 182
l36 150q18 73 31.5 136.5t21.5 114.5q8 44 11 75q32 2 81 4q56 2 119 3.5t128 2t117 0.5q112 0 215 -33q102 -33 181 -103t126 -180.5t47 -264.5q0 -57 -8 -121t-26 -136q-46 -187 -129 -320t-197 -217t-259 -123q-145 -40 -315 -40q-25 0 -58 1q-32 0 -69 1l-77 2l-77 2
q-81 2 -168 5q12 29 23 68l32 112l35 135l39 152l63 260h-186z" />
    <glyph glyph-name="Dhook" unicode="&#x18a;" horiz-adv-x="1816" 
d="M1207 1381h-223l-296 -1228l12 -1q37 -3 100 -7t138 -4q142 0 254 31q113 32 196.5 96t140.5 163q56 97 90 232q32 131 32 240q0 240 -112 359t-332 119zM379 952l-165 -36q-4 18 -7 41q-3 31 -3 64q0 59 11 106q26 105 80 181t135 124q80 50 188 72q108 23 244 23h411
q113 0 216 -33t182 -103t126 -180.5t47 -264.5q0 -57 -8 -121t-26 -136q-46 -187 -129 -320t-197.5 -217t-260.5 -123q-145 -40 -317 -40q-24 0 -58 1q-32 0 -70 1l-76 2l-76 2q-80 2 -165 5q11 29 23 68q15 49 32 112l34 136l36 151l221 914h-38q-160 0 -260 -60
q-102 -61 -132 -182q-7 -28 -9.5 -50.5t-2.5 -43.5q0 -29 5 -54q3 -19 9 -39z" />
    <glyph glyph-name="Ereversed" unicode="&#x18e;" horiz-adv-x="1194" 
d="M386 868h589l119 487h-667l37 152h862q-25 -63 -53 -168l-69 -272l-153 -613l-64 -272q-25 -109 -30 -172h-893l40 166q62 -10 161 -12q105 -2 259 -2h280l136 559h-589z" />
    <glyph glyph-name="Schwa" unicode="&#x18f;" horiz-adv-x="1434" 
d="M505.5 154.5q51.5 -18.5 120.5 -18.5q96 0 190 37q95 37 176.5 103.5t145.5 158.5t100 203l3 11l-11 2q-92 17 -169.5 23t-143.5 6q-131 0 -236 -29t-179 -75t-115 -103q-41 -59 -41 -115q0 -43 18 -83q19 -40 55 -71q35 -31 86.5 -49.5zM304 1181l12 202q54 29 119 58
q64 30 136 52.5t153 35.5t171 13q140 0 247 -48t181 -131q73 -84 111 -198q38 -113 38 -244q0 -124 -29.5 -242.5t-84.5 -223.5t-135 -194q-78 -89 -175 -152.5t-212 -99t-246 -35.5q-107 0 -189 32q-83 31 -137.5 82t-82 113t-27.5 121q0 93 47 184q48 92 141 165t225 118
q133 45 307 45q83 0 178 -9t207 -30l11 -2l1 11q3 29 3 60q0 115 -27 211t-79 164q-53 68 -132 105t-185 37q-74 0 -149 -17q-74 -16 -146.5 -44.5t-139.5 -67.5q-59 -34 -112 -71z" />
    <glyph glyph-name="Eopen" unicode="&#x190;" horiz-adv-x="1194" 
d="M1324 1433l-81 -185q-25 25 -57 45q-37 24 -79 40q-43 16 -85 24q-44 9 -88 9q-62 0 -118 -13q-57 -14 -101 -38q-44 -25 -74 -61t-41 -81q-9 -37 -9 -66q0 -62 30 -110q29 -48 79 -80t114 -49q58 -14 123 -16l-36 -147q-114 -1 -213 -19q-103 -19 -178 -59
q-75 -39 -119 -98q-46 -61 -46 -141q0 -60 24 -107q23 -46 63 -79q39 -32 90 -49t109 -17q115 0 235 43q110 39 212 116l-6 -176q-53 -39 -109 -67q-58 -29 -118 -46t-120 -24.5t-118 -7.5q-104 0 -186 34q-84 35 -142 90.5t-88.5 124.5t-30.5 139q0 85 35 159q34 75 93 135
t136 101q74 41 157 56l35 6l-34 13q-37 15 -67 43q-31 29 -53 65.5t-34 80t-12 91.5q0 38 8 77q15 64 56 127t108 113.5t161.5 81.5t216.5 31q63 0 114 -6q53 -7 97 -22t82 -36q34 -20 65 -45z" />
    <glyph glyph-name="florin" unicode="&#x192;" horiz-adv-x="715" 
d="M1082 1617l-80 -148q-31 24 -71 39q-47 18 -95 18q-86 0 -145 -61q-59 -60 -92 -196q-15 -57 -27 -112l-25 -113l-3 -13h310l-33 -132h-304l-1 -8l-84 -431q-41 -216 -94 -438q-36 -146 -83 -245q-47 -97 -107 -156t-132 -85q-73 -25 -161 -25q-25 0 -55 6q-30 7 -61 17
q-30 10 -57 24q-23 12 -40 25l70 152q12 -9 27 -18q22 -14 48.5 -25t53.5 -17q28 -7 56 -7q44 0 84 19.5t74 61.5q33 41 61 103q29 63 49 151l47 210l49 230l47 231l43 213l2 12h-192l33 132h184l25 128q9 47 14 64q32 130 78 219q45 88 102 142q58 54 128 76q71 23 155 23
q60 0 114 -19q50 -17 88 -47z" />
    <glyph glyph-name="Iotaafrican" unicode="&#x196;" horiz-adv-x="801" 
d="M678 1497l-251 -975q-4 -17 -12 -46q-8 -31 -15.5 -66t-12.5 -70q-6 -35 -6 -61q0 -74 41 -106q39 -32 111 -32q62 0 122 27q48 22 95 54l-19 -168q-19 -14 -46 -28q-31 -15 -67 -26.5t-74 -19.5q-39 -7 -74 -6q-68 0 -119.5 21t-86.5 58t-53 87t-18 105q0 34 7 74
q7 41 17 81.5l20 77.5q11 37 18 65l131 504q37 143 58 258q21 108 33 192h201z" />
    <glyph glyph-name="Istroke" unicode="&#x197;" horiz-adv-x="982" 
d="M279 857h268l126 509h-246l31 131h680l-33 -131h-258l-125 -511h274l-32 -128h-273l-141 -576h251l-31 -131h-680l32 131h254l141 578h-270z" />
    <glyph glyph-name="Khook" unicode="&#x198;" horiz-adv-x="1344" 
d="M662 1515l-174 -737l506 475q79 74 142 127q62 59 113 95q51 37 94 53q43 14 87 14q34 0 66 -9q32 -8 59.5 -21.5t49.5 -31.5q17 -14 28 -29l-99 -121q-17 27 -42 45q-32 22 -82 22q-23 0 -49 -31q-24 -10 -58 -35q-32 -23 -77 -61l-105 -93l-448 -406l513 -771h-236
l-466 760l-184 -760h-194q26 62 54 167l69 272l150 613l64 272q25 121 29 191h190z" />
    <glyph glyph-name="khook" unicode="&#x199;" horiz-adv-x="1082" 
d="M292 20h-175l124 498l50 202l48 192l40 160l25 109q30 121 81 215t120 157t154.5 96t185.5 33q47 0 90.5 -8t79 -20t62.5 -27q22 -12 37 -24l-112 -145q-29 25 -79 45q-58 23 -135 23q-52 0 -100 -24t-90 -69q-41 -45 -73 -108t-51 -142l-142 -587l20 12l181 120t150 117
t106 113q39 52 50 102h220q-4 -35 -36 -79q-36 -52 -104 -111q-67 -59 -162 -126q-93 -67 -208 -134l-13 -8l12 -9q52 -39 101 -107q49 -70 96 -151t92 -168q39 -75 83 -147h-219l-77 175q-42 92 -86 170q-45 78 -94 134q-51 57 -107 75l-10 3z" />
    <glyph glyph-name="lbar" unicode="&#x19a;" horiz-adv-x="813" 
d="M232 783l32 131h231l60 267q14 61 26 128t21 133.5t14 126.5q4 53 5 95h179q-1 -32 -6 -79q-6 -55 -16.5 -121t-25 -138.5t-31.5 -142.5l-66 -269h232l-33 -131h-231l-47 -223q-25 -109 -37.5 -222.5t-12.5 -208.5q0 -34 2 -65q1 -23 4 -44h-184q-2 24 -3 46q-2 27 -2 54
q0 93 14 191.5t44 214.5l64 257h-233z" />
    <glyph glyph-name="Nhookleft" unicode="&#x19d;" horiz-adv-x="1581" 
d="M1338 0h-172l-536 1245l-274 -1104q-46 -186 -99 -309q-54 -123 -116 -195q-62 -73 -132 -101q-70 -29 -149 -29q-70 0 -133 20q-58 17 -96 45l71 153q11 -9 25 -18q21 -13 45.5 -23t51.5 -16t55 -6q90 0 168 104q77 103 128 303l57 226l57 229l62 248l69 281l64 271
q27 109 31 173h183l537 -1250l310 1250h179q-24 -63 -53 -168q-32 -117 -70 -272z" />
    <glyph glyph-name="Ocenteredtilde" unicode="&#x19f;" horiz-adv-x="1495" 
d="M401 696l-1 -9q-4 -31 -6.5 -62t-2.5 -62q0 -97 25 -176t71 -135t112 -86t147 -30q113 0 205 46t164 122q71 76 121 175q50 98 79 204l3 13h-917zM1342 847l1 9q2 25 3 50q2 25 2 50q0 97 -24 175q-25 79 -70 134q-46 56 -111 86t-144 30q-109 0 -200 -43
q-91 -44 -163 -116q-71 -72 -122 -166q-52 -93 -81 -196l-3 -13h912zM1504.5 1224q39.5 -103 39.5 -234q0 -143 -34 -273.5t-95 -243.5q-60 -112 -143 -206q-81 -92 -175 -157t-197 -101q-104 -35 -209 -35q-102 0 -190 37q-90 37 -157 107q-68 71 -108 174t-40 235
q0 143 34 273.5t95 243.5q61 112 143 205q80 92 175 157t199 101q105 35 211 35q100 0 189 -37t156 -107q67 -71 106.5 -174z" />
    <glyph glyph-name="Ohorn" unicode="&#x1a0;" horiz-adv-x="1549" 
d="M599.5 166.5q66.5 -30.5 148.5 -30.5q98 0 181 36t150.5 95.5t118.5 140.5t85.5 171t51.5 185.5t17 184.5q0 98 -24 178t-69 137q-46 56 -111.5 86.5t-145.5 30.5q-98 0 -181 -35q-82 -35 -150 -95t-121 -141q-52 -80 -87 -170q-36 -91 -54 -185q-18 -96 -18 -185
q0 -98 25 -178q25 -81 71 -138t112.5 -87.5zM1501 1237q44 -109 44 -247q0 -143 -33.5 -274t-93 -243.5t-141 -205t-176 -157.5t-199.5 -101q-104 -36 -209 -36q-103 0 -192 37q-90 38 -157 108q-68 71 -108 173.5t-40 235.5q0 143 34 273.5t95 243.5t143 205q81 92 176 157
t201 101q105 35 212 35q124 0 229 -55.5t172 -159.5l5 -7l7 3q48 19 89 53q40 33 71 73q32 41 51 85q20 44 25 85l1 11h-188l26 108q32 48 76 74q45 27 103 27q33 0 58 -12t42 -32t27 -47t10 -55q0 -54 -23 -114q-23 -61 -68 -120.5t-112 -113.5q-68 -54 -152 -95l-9 -4z
" />
    <glyph glyph-name="ohorn" unicode="&#x1a1;" horiz-adv-x="1318" 
d="M847 914q-45 20 -101 20q-94 0 -170 -50t-130 -127.5t-84 -171.5q-29 -94 -29 -185q0 -65 18 -117q17 -51 50 -88q31 -36 76 -56q45 -19 102 -19q62 0 117 22t101 62q46 39 82 91t60.5 110.5t38 121t13.5 124.5q0 64 -18 117q-17 53 -49 89.5t-77 56.5zM1231 1132l22 90
q32 48 70 73t89 25q24 0 45.5 -9t37.5 -25.5t25.5 -40t9.5 -51.5q0 -51 -26 -104q-27 -54 -76 -107q-49 -52 -116 -101q-68 -48 -146 -84l-8 -3l2 -8q9 -46 9 -97q0 -90 -20 -177.5t-57.5 -167t-92.5 -148t-124 -118t-151.5 -77.5t-174.5 -28q-86 0 -158 27
q-74 27 -127.5 76.5t-83 121t-29.5 163.5q0 88 20.5 176t59.5 168t97 148q56 68 127 119q70 51 153.5 79.5t179.5 28.5q121 0 209 -52q89 -52 134 -148l4 -9l9 4q40 15 79 41t72 58.5t56 68.5q24 37 35 75l3 13h-158z" />
    <glyph glyph-name="Esh" unicode="&#x1a9;" horiz-adv-x="1242" 
d="M845 782l-584 -620h438q65 0 132 1t128.5 3.5t112.5 6.5q40 3 70 7l-41 -170h-1085l29 120l606 647l-265 605l31 125h991l-42 -170q-28 5 -62 8q-39 4 -89 6.5t-112 3t-139 0.5h-379z" />
    <glyph glyph-name="eshreversedloop" unicode="&#x1aa;" horiz-adv-x="947" 
d="M724 1521q-29 16 -63 16q-58 0 -103 -27q-44 -27 -78 -72q-35 -44 -53.5 -100t-18.5 -114q0 -43 11 -80q11 -38 32 -65.5t51 -44.5q28 -16 64 -16q55 0 103 28q46 28 81 73q36 45 56 101t20 114q0 44 -13.5 81t-36.5 64q-22 26 -52 42zM932 -261l5 -160q-54 -36 -111 -53
q-59 -19 -116 -19q-123 0 -185 80q-64 82 -64 221q0 90 29 202q3 15 15 60l30 117l40 158l48 183l50 193l49 188l8 32l-22 -20q-17 -14 -40 -27q-22 -12 -46.5 -21.5t-49.5 -14.5q-24 -6 -44 -6q-57 0 -108 27q-53 29 -91 79q-38 54 -61 124q-22 62 -22 131q0 91 34 176.5
t94 150.5t144 104q78 39 171 39q59 0 114 -21q55 -22 95.5 -62.5t64.5 -100t24 -135.5q0 -47 -7.5 -100.5t-23.5 -117.5l-43 -166q-24 -91 -53 -191l-59 -206l-59 -211l-52 -207q-26 -101 -47 -192q-14 -60 -14 -111q0 -99 37 -146q37 -49 95 -49q48 0 99 24q39 19 72 48z
" />
    <glyph glyph-name="Uhorn" unicode="&#x1af;" horiz-adv-x="1702" 
d="M1654 1661l30 108q37 48 86 74q45 27 104 27q33 0 58 -12q25 -13 42 -32.5t27 -46.5q9 -27 9 -55q0 -57 -38 -131q-39 -76 -105 -154q-71 -83 -161 -146q-94 -65 -199 -112l-5 -2l-158 -671q-30 -121 -85 -220q-54 -98 -137 -167.5t-195 -108.5q-113 -38 -258 -38
q-113 0 -193 33q-81 32 -132.5 89t-76.5 133q-25 77 -25 163q0 87 24 181l121 480q39 155 65 271q25 109 30 173h192l-219 -888q-14 -53 -21.5 -104.5t-7.5 -100.5q0 -59 14 -111q15 -53 48 -91q34 -38 88 -60t133 -22q186 0 302 112q115 111 172 344l222 940h180l-57 -235
l20 12q53 30 105 72q55 45 101 95q40 49 69 101q28 51 32 89l1 11h-202z" />
    <glyph glyph-name="uhorn" unicode="&#x1b0;" horiz-adv-x="1438" 
d="M1320 1132l22 90q32 48 70 73t89 25q24 0 45.5 -9t37.5 -25.5t25.5 -40t9.5 -51.5q0 -54 -34 -117q-34 -65 -94 -125.5t-141 -113.5q-79 -52 -171 -84l-5 -2l-2 -6q-13 -62 -29 -127q-24 -95 -38 -135q-21 -94 -34 -196q-14 -102 -14 -190q0 -31 1 -58q1 -21 3 -40h-169
q0 75 3 150q3 80 18 168l7 42l-25 -35q-52 -75 -112 -139.5t-122.5 -111t-123.5 -74.5q-60 -27 -112 -27q-118 0 -181.5 63.5t-63.5 191.5q0 40 7 83q7 44 20 96l74 307q12 49 21 90q10 40 18 79t13 79q5 36 10 78h185q-5 -55 -19 -122q-16 -75 -43 -181l-70 -278
q-29 -117 -29 -172q0 -84 34 -124q35 -40 90 -40q26 0 65 21q38 20 81 56t88.5 82t87.5 98t79 107l24.5 34t28.5 41t18 32v1v1l36 148l29 122q12 56 19 105q6 44 10 88h182q-4 -35 -13 -81q-10 -54 -26 -121l-4 -18l17 6q42 16 84 46q42 29 78 67q36 37 62 79q27 42 38 82
l3 13h-158z" />
    <glyph glyph-name="Upsilonafrican" unicode="&#x1b1;" horiz-adv-x="1571" 
d="M1755 1497l-41 -166q-40 7 -95 9q-60 3 -144 4h-20l12 -16q27 -39 49 -89q23 -49 38.5 -105t24 -117.5t8.5 -124.5q0 -100 -24 -199q-46 -185 -130 -321q-84 -135 -193 -224t-236 -131q-128 -43 -263 -43q-106 0 -201 38q-96 39 -167 112q-72 73 -114.5 177.5
t-42.5 238.5q0 109 30 230q23 98 62 179t87 149q48 67 106 124q57 56 120 104l24 18h-30q-85 -1 -149 -4q-54 -3 -95 -9l41 166h412l-37 -156q-60 -46 -114 -105q-55 -61 -100.5 -132.5t-80.5 -153.5q-36 -82 -58 -173q-29 -117 -29 -214q0 -102 29 -181q29 -80 80 -134.5
t121 -83.5q69 -28 150 -28q105 0 199 36t171 106t134 172q57 101 90 233q20 80 30 159t10 154q0 105 -27 195q-25 86 -71 146l39 160h395z" />
    <glyph glyph-name="Vhook" unicode="&#x1b2;" horiz-adv-x="1485" 
d="M1051 1326l-4 163q53 29 100 41q49 12 103 12q68 0 124 -19t94 -59t60 -102q21 -63 21 -150q0 -55 -9 -120t-28 -141q-31 -124 -81 -245t-116 -229q-65 -110 -144 -202t-169 -159t-189 -105t-203 -38q-77 0 -144.5 21t-116 64t-75.5 110q-27 68 -27 162q0 97 30 216
l117 472l33 137q16 68 29.5 131t22.5 119q9 50 14 92h196l-214 -876q-36 -146 -36 -244q0 -127 58 -184q57 -57 168 -57q57 0 121 27q62 26 126 76q63 50 124.5 121.5t116 162t100.5 197.5q45 107 76 228q15 57 21 104.5t6 88.5q0 55 -11 97t-30 71t-45 43t-57 14
q-44 0 -85 -11q-35 -9 -77 -29z" />
    <glyph glyph-name="Yhook" unicode="&#x1b3;" horiz-adv-x="1507" 
d="M1564 1517h225l-90 -93l-94 -122l-84 -98l-85 -100l-406 -474l-45 -185l-63 -272q-25 -109 -30 -172h-208q25 62 53 167q32 117 70 272l42 176l-130 422q-33 99 -59 163q-27 64 -53 101q-26 39 -55 55q-28 35 -64 35q-30 0 -58 -16t-51 -43t-38 -62q-13 -30 -18 -65
l-136 32q10 64 39 119q32 59 77 101t103 66q57 24 115 24q57 0 102 -14q44 -15 81 -55q38 -40 72 -113q35 -65 69 -167l131 -398z" />
    <glyph glyph-name="yhook" unicode="&#x1b4;" horiz-adv-x="1309" 
d="M1691 1181l-157 -33q6 33 6 62q0 20 -7.5 39t-21.5 35t-33.5 25t-42.5 9q-38 0 -78 -26q-39 -25 -84 -81q-44 -54 -97 -141q-52 -87 -116 -211l-69 -135l-80 -160l-84 -168l-82 -160l-72 -138q-33 -62 -56 -99q-93 -151 -170 -248q-77 -95 -147 -149t-136 -74
q-68 -21 -140 -21q-74 0 -131 24q-54 22 -105 61l93 149q11 -10 26 -20q21 -15 46 -26.5t53 -19.5t55 -8q31 0 67 12t79 44q43 33 93 90q51 58 113 149l2 3l-1 4q-11 220 -41.5 399t-71 316.5t-86.5 235.5q-40 84 -79 139h200q41 -58 76 -150q36 -97 63.5 -210t46 -234.5
t26.5 -232.5l2 -35l16 31l81 155l90 173l90 175l85 164l74 138l55 99q56 92 109 157t108 107q54 41 108.5 60.5t113.5 19.5q52 0 93.5 -16.5t70 -44t44.5 -63.5t16 -76q0 -24 -4 -49q-4 -22 -9 -46z" />
    <glyph glyph-name="Ezh" unicode="&#x1b7;" horiz-adv-x="1390" 
d="M1466 1507l-39 -162l-715 -631h26q101 -1 187 -31q86 -31 150 -88q63 -58 100 -141q36 -84 36 -190q0 -110 -31 -209t-85 -184q-54 -83 -128.5 -151t-161 -115t-183 -72.5t-194.5 -25.5q-72 0 -144 16t-137 43q-66 26 -119 58q-49 30 -81 57l50 201q31 -31 75 -64
q53 -39 117 -71q63 -32 135 -53q72 -20 148 -20q67 0 134 21t128 57.5t114 88t92 112.5q40 62 62 130q23 70 23 141q0 74 -25.5 136.5t-73.5 108.5t-119 71q-70 25 -160 25q-45 0 -101 -4q-48 -3 -97 -9l34 144l743 659h-412q-77 0 -139.5 -0.5t-113 -3t-91.5 -6.5
q-32 -3 -59 -8l42 170h1013z" />
    <glyph glyph-name="Acaron" unicode="&#x1cd;" horiz-adv-x="1438" 
d="M975 1344l-472 -793h557zM1118 10l-44 400h-655l-237 -400h-203l35 50l51 78l63 98l80 128l695 1143h209l134 -1139q9 -72 17 -127l14 -99q6 -44 13 -78q5 -29 11 -54h-183zM695 2118h134l218 -295l363 295h132l-427 -426h-167z" />
    <glyph glyph-name="acaron" unicode="&#x1ce;" 
d="M865 515l-13 -1q-22 -1 -56 -4q-35 -3 -75 -7.5t-78.5 -8t-63.5 -5.5q-51 -5 -99 -20q-48 -16 -86 -40t-65.5 -55.5t-36.5 -66.5q-5 -18 -5 -37q0 -31 14 -58q13 -26 37 -46t55.5 -30.5t69.5 -10.5q80 0 171 47q91 46 182 149l1 2zM989 0h-171q-4 23 -7 59q-4 44 -4 95
v24l-17 -17q-39 -41 -87.5 -76t-100.5 -59.5t-104 -38.5q-51 -13 -97 -13q-62 0 -116 22.5t-93.5 60t-61.5 86.5t-22 100q0 71 34 135t98.5 115.5t158.5 86.5q92 36 211 48q27 3 68.5 6.5l84.5 7.5t78.5 7t52.5 4l7 1l15 67q3 12 4 24q1 11 1 23q0 80 -66 124
q-64 42 -169 42q-42 0 -82 -9q-40 -8 -82 -24.5t-88 -41.5q-36 -19 -77 -44l5 21l17 57l17 57l12 39l82 33q41 17 84.5 29.5t92.5 20.5t107 8q77 0 139 -20t105 -54t67 -78.5t24 -96.5q0 -13 -2 -27t-5 -27l-96 -392q-16 -66 -22 -123t-6 -111q0 -41 4 -82q3 -35 7 -69z
M441 1662h133l215 -294l362 294h131l-425 -426h-165z" />
    <glyph glyph-name="Icaron" unicode="&#x1cf;" horiz-adv-x="972" 
d="M454 1497h679l-33 -131h-253l-300 -1215h252l-31 -131h-683l32 131h253l300 1215h-247zM483 2118h133l217 -295l361 295h131l-424 -426h-166z" />
    <glyph glyph-name="icaron" unicode="&#x1d0;" horiz-adv-x="547" 
d="M347 1050h175q-1 -32 -9 -78q-8 -55 -21 -121t-30 -138l-33 -143l-47 -189q-16 -57 -22 -119q-6 -61 -6 -118q0 -40 4 -78q3 -30 7 -56h-192q-6 33 -6 82q0 67 11.5 151t32.5 165l42 158l33 128q17 67 30 133t22 126q8 53 9 97zM165 1662h136l217 -294l354 294h131
l-419 -426h-161z" />
    <glyph glyph-name="Ocaron" unicode="&#x1d1;" horiz-adv-x="1493" 
d="M1502.5 1224q39.5 -103 39.5 -234q0 -143 -34 -273.5t-95 -243.5q-60 -112 -141 -206q-81 -92 -175.5 -157t-197.5 -101q-104 -36 -209 -36q-101 0 -191 37q-90 38 -157 108q-67 71 -106.5 173.5t-39.5 235.5q0 143 34 274t95 243q60 112 142 205q81 92 175.5 157
t199.5 101q104 35 210 35q101 0 189 -37q87 -36 154.5 -107t107 -174zM598 166.5q66 -30.5 147 -30.5q94 0 177 36q82 36 148.5 95.5t118.5 140.5t87 171t53 185q19 96 19 185q0 98 -24 178t-69 137q-46 56 -111.5 86.5t-144.5 30.5q-95 0 -177 -35q-82 -36 -149.5 -95.5
t-120.5 -140.5q-52 -80 -88 -170q-37 -91 -56 -185q-19 -96 -19 -185q0 -98 25 -178q25 -81 71.5 -138t112.5 -87.5zM738 2118h133l218 -295l363 295h131l-426 -426h-167z" />
    <glyph glyph-name="ocaron" unicode="&#x1d2;" horiz-adv-x="1160" 
d="M843.5 914q-44.5 20 -99.5 20q-93 0 -170 -50q-75 -50 -128.5 -127.5t-83.5 -171.5q-29 -94 -29 -185q0 -65 18 -117q17 -51 50 -88q31 -36 76 -56q44 -19 101 -19q62 0 116 22q55 22 100 62q46 39 81.5 91t60 110.5t37.5 121t13 124.5q0 64 -17 117t-49 89.5t-76.5 56.5
zM180.5 198.5q-29.5 71.5 -29.5 163.5q0 88 20.5 176t59.5 168t97 148q56 68 126 119t153 79.5t178 28.5q85 0 155 -27q69 -27 119 -77q51 -51 79 -123t28 -164q0 -90 -20 -177t-59 -167q-39 -81 -92 -149q-55 -68 -123.5 -117.5t-150.5 -77.5t-173 -28q-85 0 -157 27
q-74 27 -127.5 76.5t-83 121zM473 1662h132l217 -294l360 294h131l-424 -426h-165z" />
    <glyph glyph-name="Ucaron" unicode="&#x1d3;" horiz-adv-x="1465" 
d="M1405 1497h194q-23 -63 -51 -165q-32 -113 -72 -275l-138 -556q-30 -119 -84 -217q-54 -96 -136.5 -165t-193.5 -107q-112 -38 -256 -38q-112 0 -192 33q-81 32 -132.5 89t-76.5 133q-25 77 -25 163q0 87 24 181l121 480q39 155 65 271q25 109 30 173h192l-219 -888
q-14 -53 -21.5 -104.5t-7.5 -100.5q0 -59 14 -111q15 -53 48 -91t87 -60t133 -22q185 0 299 110t171 340zM728 2118h133l219 -295l361 295h131l-424 -426h-168z" />
    <glyph glyph-name="ucaron" unicode="&#x1d4;" horiz-adv-x="1205" 
d="M1061 0h-169q0 73 3 147q3 78 18 164l7 42l-25 -34q-52 -74 -112 -137t-122.5 -109t-123.5 -73q-60 -27 -112 -27q-118 0 -181.5 63.5t-63.5 191.5q0 40 7 83q7 44 20 96l74 307l21 89q10 41 18 80t13 79q5 36 10 78h184q-4 -55 -19 -122q-16 -75 -42 -181l-70 -278
q-29 -117 -29 -172q0 -84 34 -123q34 -41 89 -41q27 0 66 21q38 20 81 55q43 34 88.5 79.5t87.5 96.5t79 105q52 74 66 105v1l1 1l35 145q16 65 28 119q12 55 19 103q6 43 10 86h185q-4 -38 -14 -90q-13 -61 -31 -136l-41 -160q-23 -86 -45 -180q-21 -91 -34 -192
q-14 -100 -14 -186q0 -31 1 -57q1 -20 3 -39zM494 1662h132l216 -294l361 294h131l-425 -426h-165z" />
    <glyph glyph-name="Udieresismacron" unicode="&#x1d5;" horiz-adv-x="1465" 
d="M1405 1497h194q-23 -63 -51 -165q-32 -113 -72 -275l-138 -556q-30 -119 -84 -217q-54 -96 -136.5 -165t-193.5 -107q-112 -38 -256 -38q-112 0 -192 33q-81 32 -132.5 89t-76.5 133q-25 77 -25 163q0 87 24 181l121 480q39 155 65 271q25 109 30 173h192l-219 -888
q-14 -53 -21.5 -104.5t-7.5 -100.5q0 -59 14 -111q15 -53 48 -91t87 -60t133 -22q185 0 299 110t171 340zM1018 1926q8 -20 8 -42q0 -30 -13 -57q-12 -27 -33 -48.5t-49 -33.5t-59 -12q-22 0 -41.5 8.5t-33 24t-21.5 35t-8 42.5q0 26 10.5 53t30.5 48.5t48 34.5q28 14 63 14
q23 0 42 -9q20 -8 34 -23t22 -35zM1455 1926q8 -20 8 -42q0 -30 -12 -57t-34 -48.5t-50 -33.5t-59 -12q-23 0 -42.5 8.5t-33 24t-22 35t-8.5 42.5q0 26 11 53t31 48.5t48 34.5q28 14 63 14q24 0 43 -9q20 -8 34.5 -23t22.5 -35zM774 2193l33 136h761l-34 -136h-760z" />
    <glyph glyph-name="udieresismacron" unicode="&#x1d6;" horiz-adv-x="1205" 
d="M1061 0h-169q0 73 3 147q3 78 18 164l7 42l-25 -34q-52 -74 -112 -137t-122.5 -109t-123.5 -73q-60 -27 -112 -27q-118 0 -181.5 63.5t-63.5 191.5q0 40 7 83q7 44 20 96l74 307l21 89q10 41 18 80t13 79q5 36 10 78h184q-4 -55 -19 -122q-16 -75 -42 -181l-70 -278
q-29 -117 -29 -172q0 -84 34 -123q34 -41 89 -41q27 0 66 21q38 20 81 55q43 34 88.5 79.5t87.5 96.5t79 105q51 73 66 105v1l1 1l35 145q16 65 28 119q12 55 19 103q6 43 10 86h185q-4 -38 -14 -90q-13 -61 -31 -136l-41 -160q-23 -86 -45 -180q-21 -91 -34 -192
q-14 -100 -14 -186q0 -31 1 -57q1 -20 3 -39zM780.5 1470.5q7.5 -19.5 7.5 -42.5q0 -30 -12 -57t-33 -48t-48 -33q-27 -13 -58 -13q-23 0 -42.5 8.5t-33 24t-21.5 35.5t-8 42q0 27 11 53.5t30.5 48t47.5 34.5q28 14 63 14q22 0 41.5 -8.5t33.5 -23.5t21.5 -34.5z
M1217 1470.5q8 -19.5 8 -42.5q0 -30 -13 -57q-12 -27 -34 -48t-50 -33q-28 -13 -60 -13q-22 0 -41.5 8.5t-32.5 23.5t-22 36q-8 20 -8 42q0 27 10.5 53.5t30.5 48t48 34.5q28 14 64 14q23 0 43 -8.5t34.5 -23.5t22.5 -34.5zM539 1737l33 136h758l-35 -136h-756z" />
    <glyph glyph-name="Udieresisacute" unicode="&#x1d7;" horiz-adv-x="1465" 
d="M1405 1497h194q-23 -63 -51 -165q-32 -113 -72 -275l-137 -556q-30 -119 -84 -217q-54 -96 -136.5 -165t-193.5 -107q-113 -38 -257 -38q-112 0 -192 33q-81 32 -132.5 89t-76.5 133q-25 77 -25 163q0 87 24 181l121 480q39 155 65 271q25 109 30 173h192l-219 -888
q-14 -53 -21.5 -104.5t-7.5 -100.5q0 -59 14 -111q15 -53 48 -91t87 -60t133 -22q185 0 300 110q114 110 171 340zM1019 1926q8 -20 8 -42q0 -30 -13 -57q-12 -27 -33 -48.5t-49 -33.5t-59 -12q-23 0 -42 8.5t-33 24t-22 35t-8 42.5q0 26 10.5 53t31 48.5t48.5 34.5
q28 14 63 14q23 0 42 -9q20 -8 34 -23t22 -35zM1455 1926q8 -20 8 -42q0 -30 -12 -57t-34 -48q-21 -22 -49 -34q-27 -12 -59 -12q-23 0 -42 8.5t-33 24t-22 35t-8 42.5q0 26 10.5 53t30.5 48.5t49 34.5q27 14 62 14q24 0 43 -8.5t34 -23.5q14 -15 22 -35zM1439 2547h232
l-504 -426h-150z" />
    <glyph glyph-name="udieresisacute" unicode="&#x1d8;" horiz-adv-x="1205" 
d="M1061 0h-169q0 73 3 147q3 78 18 164l7 42l-25 -34q-52 -74 -112 -137t-122.5 -109t-123.5 -73q-60 -27 -112 -27q-118 0 -181.5 63.5t-63.5 191.5q0 40 7 83q7 44 20 96l74 307l21 89q10 41 18 80t13 79q5 36 10 78h185q-5 -55 -19 -122q-16 -75 -43 -181l-70 -278
q-29 -117 -29 -172q0 -84 34 -123q34 -41 89 -41q27 0 66 21q38 20 81 55q43 34 88.5 79.5t87.5 96.5t79 105q4 6 18 25.5t20 28.5t15 24t15 27v1l1 1l35 145l29 119q12 55 19 103q6 43 10 86h182q-4 -38 -14 -90q-13 -61 -31 -136l-40 -160l-46 -180q-21 -91 -34 -192
q-14 -100 -14 -186q0 -31 1 -57q1 -20 3 -39zM781.5 1470.5q7.5 -19.5 7.5 -42.5q0 -30 -11.5 -57t-32.5 -48t-49 -33q-28 -13 -59 -13q-22 0 -41.5 8.5t-33.5 24t-22 35.5t-8 42q0 27 11 53.5t31 48t48 34.5q28 14 63 14q23 0 42.5 -8.5t33 -23.5t21 -34.5zM1217 1470.5
q8 -19.5 8 -42.5q0 -30 -12.5 -57t-34.5 -48q-21 -21 -49 -33q-27 -13 -58 -13q-22 0 -41.5 8.5t-33.5 23.5q-13 15 -22 36q-8 20 -8 42q0 27 11 53.5t30.5 48t48.5 34.5q28 14 63 14q22 0 41.5 -8.5t34 -23.5t22.5 -34.5zM1200 2091h232l-503 -426h-148z" />
    <glyph glyph-name="Udieresiscaron" unicode="&#x1d9;" horiz-adv-x="1465" 
d="M1405 1497h194q-23 -63 -51 -165q-32 -113 -72 -275l-137 -556q-30 -119 -84 -217q-54 -96 -136.5 -165t-193.5 -107q-113 -38 -257 -38q-112 0 -192 33q-81 32 -132.5 89t-76.5 133q-25 77 -25 163q0 87 24 181l121 480q39 155 65 271q25 109 30 173h192l-219 -888
q-14 -53 -21.5 -104.5t-7.5 -100.5q0 -59 14 -111q15 -53 48 -91t87 -60t133 -22q185 0 300 110q114 110 171 340zM1019 1926q8 -20 8 -42q0 -30 -13 -57q-12 -27 -33 -48.5t-49 -33.5t-59 -12q-23 0 -42 8.5t-33 24t-22 35t-8 42.5q0 26 10.5 53t31 48.5t48.5 34.5
q28 14 63 14q23 0 42 -9q20 -8 34 -23t22 -35zM1455 1926q8 -20 8 -42q0 -30 -12 -57t-34 -48q-21 -22 -49 -34q-27 -12 -58 -12q-24 0 -43 8.5t-33 24t-22 35t-8 42.5q0 26 10.5 53t30.5 48.5t49 34.5q28 14 63 14q23 0 42 -8.5t34 -23.5q14 -15 22 -35zM829 2547h134
l217 -294l363 294h132l-426 -426h-167z" />
    <glyph glyph-name="udieresiscaron" unicode="&#x1da;" horiz-adv-x="1205" 
d="M1061 0h-169q0 73 3 147q3 78 18 164l7 42l-25 -34q-52 -74 -112 -137t-122.5 -109t-123.5 -73q-60 -27 -112 -27q-118 0 -181.5 63.5t-63.5 191.5q0 40 7 83q7 44 20 96l74 307l21 89q10 41 18 80t13 79q5 36 10 78h185q-5 -55 -19 -122q-16 -75 -43 -181l-70 -278
q-29 -117 -29 -172q0 -84 34 -123q34 -41 89 -41q27 0 66 21q38 20 81 55q43 34 88.5 79.5t87.5 96.5t79 105q4 6 18 25.5t20 28.5t15 24t15 27v1l1 1l35 145l29 119q12 55 19 103q6 43 10 86h182q-4 -38 -14 -90q-13 -61 -31 -136l-40 -160l-46 -180q-21 -91 -34 -192
q-14 -100 -14 -186q0 -31 1 -57q1 -20 3 -39zM781.5 1470.5q7.5 -19.5 7.5 -42.5q0 -30 -11.5 -57t-32.5 -48t-49 -33q-27 -13 -59 -13q-22 0 -41.5 8.5t-33.5 24t-22 35.5t-8 42q0 27 11 53.5t31 48t48 34.5q28 14 63 14q23 0 42.5 -8.5t33 -23.5t21 -34.5zM1217 1470.5
q8 -19.5 8 -42.5q0 -30 -12.5 -57t-34.5 -48q-21 -21 -49 -33q-27 -13 -58 -13q-22 0 -41.5 8.5t-33.5 23.5q-13 15 -22 36q-8 20 -8 42q0 27 11 53.5t30.5 48t48.5 34.5q28 14 63 14q22 0 41.5 -8.5t34 -23.5t22.5 -34.5zM593 2091h133l218 -294l361 294h131l-424 -426
h-166z" />
    <glyph glyph-name="Udieresisgrave" unicode="&#x1db;" horiz-adv-x="1465" 
d="M1405 1497h194q-23 -63 -51 -165q-32 -113 -72 -275l-138 -556q-30 -119 -84 -217q-54 -96 -136.5 -165t-193.5 -107q-112 -38 -256 -38q-112 0 -192 33q-81 32 -132.5 89t-76.5 133q-25 77 -25 163q0 87 24 181l121 480q39 155 65 271q25 109 30 173h192l-219 -888
q-14 -53 -21.5 -104.5t-7.5 -100.5q0 -59 14 -111q15 -53 48 -91t87 -60t133 -22q185 0 299 110t171 340zM1018 1926q8 -20 8 -42q0 -30 -13 -57q-12 -27 -33 -48.5t-49 -33.5t-59 -12q-22 0 -41.5 8.5t-33 24t-21.5 35t-8 42.5q0 26 10.5 53t30.5 48.5t48 34.5q28 14 63 14
q23 0 42 -9q20 -8 34 -23t22 -35zM1455 1926q8 -20 8 -42q0 -30 -12 -57t-34 -48.5t-50 -33.5t-59 -12q-23 0 -42.5 8.5t-33 24t-22 35t-8.5 42.5q0 26 11 53t31 48.5t48 34.5q28 14 63 14q24 0 43 -9q20 -8 34.5 -23t22.5 -35zM894 2547h192l272 -426h-132z" />
    <glyph glyph-name="udieresisgrave" unicode="&#x1dc;" horiz-adv-x="1205" 
d="M1061 0h-169q0 73 3 147q3 78 18 164l7 42l-25 -34q-52 -74 -112 -137t-122.5 -109t-123.5 -73q-60 -27 -112 -27q-118 0 -181.5 63.5t-63.5 191.5q0 40 7 83q7 44 20 96l74 307l21 89q10 41 18 80t13 79q5 36 10 78h184q-5 -55 -19 -122q-16 -75 -42 -181l-70 -278
q-29 -117 -29 -172q0 -84 34 -123q34 -41 89 -41q27 0 66 21q38 20 81 55q43 34 88.5 79.5t87.5 96.5t79 105q44 63 63 105l1 1v1l35 145q17 65 29 119q13 55 20 103q6 43 10 86h186q-4 -38 -14 -90q-13 -61 -31 -136l-41 -160q-23 -86 -45 -180q-21 -91 -34 -192
q-14 -100 -14 -186q0 -31 1 -57q1 -20 3 -39zM778.5 1470.5q7.5 -19.5 7.5 -42.5q0 -30 -11.5 -57t-32.5 -48t-49 -33q-27 -13 -57 -13q-23 0 -42 8.5t-33 24t-22 35.5t-8 42q0 27 11 53.5t30.5 48t47.5 34.5q28 14 63 14q22 0 41.5 -8.5t33 -23.5t21 -34.5zM1217 1470.5
q8 -19.5 8 -42.5q0 -30 -13 -57q-12 -27 -34 -48t-50 -33q-28 -13 -60 -13q-23 0 -43 8.5t-34 23.5q-13 15 -22 36q-8 20 -8 42q0 27 11 54t31 48t49 34q29 14 65 14q23 0 43 -8.5t34.5 -23.5t22.5 -34.5zM657 2091h190l273 -426h-136z" />
    <glyph glyph-name="eturned" unicode="&#x1dd;" horiz-adv-x="1083" 
d="M436 120q33 -10 70 -10q61 0 119 23q59 23 109.5 65t89.5 102q41 62 66 134l5 12l-13 2q-118 13 -202 13q-92 0 -159 -17q-67 -18 -111 -46q-46 -30 -68 -67q-24 -39 -24 -80q0 -32 17 -59q16 -26 42 -44q26 -19 59 -28zM250 799l12 172q40 20 86 39q52 21 103 36
q54 16 113 25.5t122 9.5q98 0 173 -34q77 -34 128 -92t76 -138q26 -81 26 -174q0 -88 -21.5 -171.5t-61.5 -157.5t-98 -138q-57 -62 -127 -107q-69 -45 -152 -70t-176 -25q-79 0 -141 21q-62 22 -101.5 56t-59 75.5t-19.5 83.5q0 71 33.5 138.5t100.5 119.5q66 52 163 85
q94 33 220 33q55 0 118 -5q62 -5 139 -15l11 -1v11v16q1 9 1 19q0 65 -16 123q-17 59 -52 103t-86 69.5t-123 25.5q-51 0 -104 -10.5t-105 -30.5q-52 -19 -103 -46q-41 -21 -79 -46z" />
    <glyph glyph-name="Adieresismacron" unicode="&#x1de;" horiz-adv-x="1438" 
d="M975 1344l-472 -793h556zM1118 10l-44 400h-655l-237 -400h-203l35 50l51 78l63 98l80 128l695 1143h209l134 -1139q9 -72 17 -127l14 -99q6 -44 13 -78q5 -27 11 -54h-183zM986 1926q8 -20 8 -42q0 -30 -13 -57q-12 -27 -33 -48.5t-49 -33.5t-60 -12q-22 0 -41.5 8.5
t-33.5 23.5q-13 15 -21 35q-9 20 -9 43q0 26 11 53.5t30.5 48.5t48.5 34q28 14 64 14q22 0 42 -8.5t34 -23.5t22 -35zM1425 1926q8 -20 8 -42q0 -30 -13 -57q-12 -27 -33.5 -48.5t-50 -33.5t-60.5 -12q-22 0 -41.5 8.5t-33.5 24t-22 35t-8 42.5q0 26 10.5 53t31 48.5
t48.5 34.5q28 14 64 14q24 0 43 -9q20 -8 34.5 -23t22.5 -35zM741 2193l33 136h764l-34 -136h-763z" />
    <glyph glyph-name="adieresismacron" unicode="&#x1df;" 
d="M865 515l-13 -1q-22 -1 -56 -4q-35 -3 -75 -7.5t-78.5 -8t-63.5 -5.5q-51 -5 -99 -20q-48 -16 -86 -40t-65.5 -55.5t-36.5 -66.5q-5 -18 -5 -37q0 -31 14 -58q13 -26 37 -46t55.5 -30.5t69.5 -10.5q80 0 171 47q91 46 182 149l1 2zM989 0h-171q-4 23 -7 59q-4 44 -4 95
v24l-17 -17q-39 -41 -87.5 -76t-100.5 -59.5t-104 -38.5q-51 -13 -97 -13q-62 0 -116 22.5t-93.5 60t-61.5 86.5t-22 100q0 71 34 135t98.5 115.5t158.5 86.5q92 36 211 48q27 3 68.5 6.5l84.5 7.5t78.5 7t52.5 4l7 1l15 67q3 12 4 24q1 11 1 23q0 80 -66 124
q-64 42 -169 42q-42 0 -82 -9q-40 -8 -82 -24.5t-88 -41.5q-36 -19 -77 -44l5 21l17 57l17 57l12 39l82 33q41 17 84.5 29.5t92.5 20.5t107 8q77 0 139 -20t105 -54t67 -78.5t24 -96.5q0 -13 -2 -27t-5 -27l-96 -392q-16 -66 -22 -123t-6 -111q0 -41 4 -82q3 -35 7 -69z
M728.5 1470.5q7.5 -19.5 7.5 -42.5q0 -30 -12 -57t-33 -48t-49 -33q-27 -13 -58 -13q-22 0 -41.5 8.5t-33.5 23.5t-22 35.5t-8 42.5q0 27 11 53.5t30.5 48t48.5 34.5q28 14 63 14q22 0 41.5 -8.5t33.5 -23.5t21.5 -34.5zM1165 1470.5q8 -19.5 8 -42.5q0 -30 -13 -57
q-12 -27 -33.5 -48t-50.5 -33q-28 -13 -60 -13q-22 0 -41.5 8.5t-32.5 23.5t-21 35.5t-8 42.5q0 27 10 53.5t30 48t48 34.5q28 14 64 14q23 0 43 -8.5t34.5 -23.5t22.5 -34.5zM487 1737l33 136h758l-34 -136h-757z" />
    <glyph glyph-name="Adotmacron" unicode="&#x1e0;" horiz-adv-x="1438" 
d="M975 1344l-472 -793h557zM1118 10l-44 400h-655l-237 -400h-203l35 50l51 78l63 98l80 128l695 1143h209l134 -1139q9 -72 17 -127l14 -99q6 -44 13 -78q5 -29 11 -54h-183zM950 1802q-8 20 -8 43q0 30 12 56q13 27 35 47t50 33q28 12 60 12q23 0 43 -8.5t35 -24
t23.5 -36t8.5 -42.5q0 -30 -14 -56q-13 -27 -34 -48q-22 -21 -51 -33t-59 -12q-23 0 -43 9t-34.5 24.5t-23.5 35.5zM747 2193l33 136h764l-34 -136h-763z" />
    <glyph glyph-name="adotmacron" unicode="&#x1e1;" 
d="M865 515l-13 -1q-22 -1 -56 -4q-35 -3 -75 -7.5t-78.5 -8t-63.5 -5.5q-51 -5 -99 -20q-48 -16 -86 -40t-65.5 -55.5t-36.5 -66.5q-5 -18 -5 -37q0 -31 14 -58q13 -26 37 -46t55.5 -30.5t69.5 -10.5q80 0 171 47q91 46 182 149l1 2zM989 0h-171q-4 23 -7 59q-4 44 -4 95
v24l-17 -17q-39 -41 -87.5 -76t-100.5 -59.5t-104 -38.5q-51 -13 -97 -13q-62 0 -116 22.5t-93.5 60t-61.5 86.5t-22 100q0 71 34 135t98.5 115.5t158.5 86.5q92 36 211 48q27 3 68.5 6.5l84.5 7.5t78.5 7t52.5 4l7 1l15 67q3 12 4 24q1 11 1 23q0 80 -66 124
q-64 42 -169 42q-42 0 -82 -9q-40 -8 -82 -24.5t-88 -41.5q-36 -19 -77 -44l5 21l17 57l17 57l12 39l82 33q41 17 84.5 29.5t92.5 20.5t107 8q77 0 139 -20t105 -54t67 -78.5t24 -96.5q0 -13 -2 -27t-5 -27l-96 -392q-16 -66 -22 -123t-6 -111q0 -41 4 -82q3 -35 7 -69z
M692.5 1346.5q-8.5 20.5 -8.5 42.5q0 30 13 56q14 27 35.5 47.5t49.5 32.5t59 12q22 0 42 -8.5t35 -24t23.5 -35.5t8.5 -43q0 -30 -13 -56q-14 -27 -35 -47.5t-50 -33t-59 -12.5q-22 0 -42 9t-35 24.5t-23.5 36zM493 1737l33 136h758l-34 -136h-757z" />
    <glyph glyph-name="AEmacron" unicode="&#x1e2;" horiz-adv-x="1852" 
d="M1026 551l208 839l-626 -839h418zM1739 721h-492l-138 -559h184q156 0 262 2q95 2 158 11l-40 -165h-793l11 31q10 27 23 72t30 114l43 171l3 12h-486l-298 -400h-206l78 92l82 101l77 100l79 105l806 1099h891l-37 -152h-573l-120 -487h492zM983 1764l34 136h763
l-34 -136h-763z" />
    <glyph glyph-name="aemacron" unicode="&#x1e3;" horiz-adv-x="1750" 
d="M1496 924q-31 10 -64 10q-58 0 -115 -21q-57 -20 -108.5 -58.5t-92.5 -92.5t-68 -121l-5 -12l13 -2q53 -6 98 -9t89 -3q90 0 156 14q67 13 111 37q45 23 68 57q24 35 24 75q0 31 -14 56t-38 42q-23 18 -54 28zM844 369v34q0 27 1 53q2 26 7 56l3 13l-13 -1
q-20 -1 -56.5 -4t-76.5 -8l-80 -8l-64 -5q-54 -5 -100 -21q-46 -15 -81 -39q-35 -25 -59 -56t-33 -66q-5 -18 -5 -37q0 -31 14 -58q13 -26 37 -46t56.5 -30.5t71.5 -10.5q45 0 94 15q50 16 100 45.5t97 72.5t85 98zM1670 256l-12 -172q-40 -20 -88 -40q-52 -21 -107 -36
q-57 -15 -117 -25q-60 -9 -120 -9q-137 0 -224.5 61t-125.5 164l-6 15l-11 -12q-42 -50 -97 -91.5t-115.5 -72.5t-123.5 -47q-62 -17 -121 -17q-63 0 -117 22.5t-93.5 60t-61.5 86.5t-22 100q0 71 35 136q36 66 101 117.5t154 86.5q88 35 194 45q27 2 69.5 5.5t85.5 7.5
q44 5 80 8t53 4l7 1l15 67q4 12 5 24q1 11 1 23q0 80 -67 124q-65 42 -171 42q-44 0 -84 -9q-40 -8 -82.5 -24.5t-88.5 -41.5l-79 -44l6 21l16 58l18 56l12 39l83 33q42 17 86 29.5t93 20.5t108 8q122 0 193 -46q69 -45 90 -122l4 -16l12 12q83 79 192 126q108 47 237 47
q77 0 135 -21t94.5 -55.5t54 -76.5t17.5 -84q0 -71 -28 -135q-27 -64 -88 -113t-159 -77q-97 -29 -237 -29q-57 0 -117 5t-132 14l-10 1l-1 -10q-3 -28 -3 -56q0 -65 15 -124q14 -59 45 -102q32 -44 81.5 -69.5t118.5 -25.5q49 0 102.5 10t107.5 30q54 19 107 46
q42 21 81 47zM741 1308l34 136h760l-33 -136h-761z" />
    <glyph glyph-name="Gcaron" unicode="&#x1e6;" horiz-adv-x="1450" 
d="M1444 743l-148 -605q-41 -32 -103 -61q-65 -30 -140.5 -53t-156.5 -37q-82 -14 -155 -13q-119 0 -218 36q-100 37 -172.5 105t-113.5 168t-41 229q0 58 8 121.5t26 134.5q46 187 134 331q88 145 202 243q115 99 252 149.5t285 50.5q66 0 131 -10q66 -11 129 -34t120 -58
q53 -33 100 -76l-104 -168q-71 83 -170 125q-103 45 -218 45q-120 0 -227.5 -44t-195 -124.5t-150.5 -192.5q-63 -111 -98 -250q-33 -132 -33 -242q0 -90 27 -160q26 -71 76 -119t120 -73q69 -25 156 -25q47 0 99 5t102 17q49 11 93 25q45 14 75 33l4 2l89 370h-363l38 155
h541zM767 2118h133l219 -295l362 295h131l-425 -426h-167z" />
    <glyph glyph-name="gcaron" unicode="&#x1e7;" horiz-adv-x="1099" 
d="M1275 1079l-46 -147q-43 -3 -87 -9q-49 -7 -105 -23l-11 -3l5 -11q21 -49 21 -107q0 -92 -42 -171q-41 -79 -109.5 -136.5t-155 -90.5t-177.5 -33q-22 0 -42 1q-20 2 -40 7h-3l-3 -1q-25 -11 -51 -26q-25 -14 -45 -30t-33 -34q-14 -19 -14 -36q0 -20 17 -34
q15 -13 50 -25q34 -12 90 -24q55 -12 140 -26q178 -30 269 -99q88 -67 88 -164q0 -60 -26 -110q-27 -52 -72 -94q-46 -43 -106 -76q-61 -34 -129.5 -56t-140.5 -34t-139 -12q-82 0 -165 19t-151 54.5t-110 85.5q-41 49 -41 111q0 22 6 46q21 82 99 148q79 67 226 117l20 6
l-18 12q-37 24 -51.5 50.5t-14.5 56.5t15 61q16 31 41 59q24 27 55.5 51t61.5 40l15 8l-14 10q-60 41 -94 104q-35 63 -35 139q0 92 40 170t107 135q68 57 155.5 89.5t181.5 32.5q76 0 138 -22.5t108 -62.5l5 -4l6 3q38 19 79 34q43 14 85.5 24.5t84.5 17.5q32 6 62 9z
M643 -37q-60 17 -147 32q-28 4 -52 8.5t-46 10.5h-3l-3 -1q-86 -29 -141 -55q-55 -27 -88 -53q-35 -26 -50 -51q-14 -24 -21 -48q-2 -7 -2 -13v-11q0 -32 21 -64t63 -58q41 -24 102 -39q62 -15 144 -15q66 0 135.5 18.5t126.5 48.5t93 70q38 42 38 87q0 25 -18 50
q-16 24 -55 45q-37 20 -97 38zM864 637q27 52 27 115q0 42 -15 78t-43 62.5t-67 42t-85 15.5q-53 0 -101 -16.5t-86 -45.5t-65.5 -71.5t-39.5 -91.5q-6 -28 -6 -55q0 -43 15.5 -78.5t43.5 -62t66 -41.5t85 -15q54 0 107 20.5t95 56.5t69 87zM411 1662h133l218 -294l362 294
h131l-425 -426h-167z" />
    <glyph glyph-name="Kcaron" unicode="&#x1e8;" horiz-adv-x="1296" 
d="M666 1507l-175 -719l772 719h224l-810 -725l511 -772h-231l-470 760l-187 -760h-194q26 62 54 167l69 273l152 613l64 271q25 109 30 173h191zM662 2118h133l218 -295l362 295h132l-426 -426h-167z" />
    <glyph glyph-name="kcaron" unicode="&#x1e9;" horiz-adv-x="1102" 
d="M292 20h-175l124 498l50 202l48 192l40 160l25 109q15 61 28 128t23 133.5t15 126.5q5 53 5 95h176q-1 -32 -6 -79q-5 -55 -15.5 -121t-24.5 -138.5t-31 -142.5l-142 -587l20 12l181 120t150 117t106 113q39 52 50 102h220q-4 -35 -35 -79q-37 -52 -105 -111
q-67 -59 -162 -126q-93 -67 -208 -134l-13 -8l12 -9q47 -35 105 -107q49 -70 97 -151q47 -81 92 -168q41 -78 83 -147h-220l-78 174q-42 92 -87 170t-95 134q-53 58 -107 76l-10 3zM607 2229h132l215 -294l389 294h131l-450 -426h-167z" />
    <glyph glyph-name="Ezhcaron" unicode="&#x1ee;" horiz-adv-x="1390" 
d="M1466 1507l-39 -162l-714 -631h26q100 -1 186 -31q86 -31 150 -88q64 -58 100 -141q37 -84 37 -190q0 -110 -31 -209t-85 -184q-55 -83 -129 -151t-161 -115t-183.5 -72.5t-194.5 -25.5q-72 0 -144 16t-137 43q-66 26 -119 58q-49 30 -81 57l50 201q31 -31 75 -64
q53 -39 117 -71q63 -32 135 -53q72 -20 149 -20q66 0 133 21t128.5 57.5t114 88t92.5 112.5q39 62 62 130q22 70 22 141q0 74 -25 136.5t-73.5 108.5t-118.5 71q-71 25 -161 25q-45 0 -100 -4q-48 -3 -98 -9l34 144l743 659h-412q-76 0 -138.5 -0.5t-113.5 -3t-92 -6.5
q-32 -3 -59 -8l42 170h1013zM664 2118h134l218 -295l363 295h132l-427 -426h-167z" />
    <glyph glyph-name="ezhcaron" unicode="&#x1ef;" horiz-adv-x="1056" 
d="M306 1050h815l-26 -104l-599 -525h26q96 0 172 -26q75 -27 126.5 -75t79.5 -116q27 -68 27 -151q0 -79 -23 -151q-23 -70 -63.5 -130.5t-96.5 -110t-123 -83.5t-142.5 -52.5t-154.5 -18.5q-49 0 -106 12q-58 12 -113 31q-55 20 -101 45q-42 23 -68 45l45 181
q31 -27 69 -52q46 -31 98 -53q53 -23 107 -36t111 -13q77 0 147.5 26.5t124.5 75t86 114.5q33 67 33 147q0 49 -17 95q-17 47 -58 83q-40 35 -105 57q-65 21 -160 21q-35 0 -80 -3q-37 -2 -75 -6l26 108l592 529h-460q-47 0 -90 -2q-33 -2 -61 -9zM386 1662h133l217 -294
l362 294h132l-426 -426h-166z" />
    <glyph glyph-name="Gacute" unicode="&#x1f4;" horiz-adv-x="1450" 
d="M1444 743l-148 -605q-41 -32 -103 -61q-65 -30 -140.5 -53t-156.5 -37q-82 -14 -155 -13q-119 0 -218 36q-100 37 -172.5 105t-113.5 168t-41 229q0 58 8 121.5t26 134.5q46 187 134 331q88 145 202 243q115 99 252 149.5t285 50.5q65 0 131 -10q66 -11 128 -34
q64 -23 121 -58q53 -33 100 -76l-104 -168q-71 83 -170 125q-104 45 -218 45q-120 0 -227.5 -44t-195 -124.5t-150.5 -192.5q-63 -111 -98 -250q-33 -132 -33 -242q0 -90 27 -160q26 -71 76 -119t120 -73q69 -25 156 -25q47 0 99 5t102 17q49 11 93 25q45 14 75 33l4 2
l89 370h-363l38 155h541zM1376 2118h232l-504 -426h-149z" />
    </font>
</defs>
</svg>
