<?xml version="1.0" standalone="no"?>
<!DOCTYPE svg PUBLIC "-//W3C//DTD SVG 1.1//EN" "http://www.w3.org/Graphics/SVG/1.1/DTD/svg11.dtd" >
<svg>
<metadata>
Created by FontForge 20090622 at Tue Nov 26 09:57:54 2019
 By deploy user
Copyright (c) SIL International, 2004-2015.
</metadata>
<defs>
<font id="Quebec-Bold" horiz-adv-x="1253" >
  <font-face 
    font-family="Quebec"
    font-weight="700"
    font-stretch="normal"
    units-per-em="2048"
    panose-1="2 0 0 0 0 0 0 0 0 0"
    ascent="1638"
    descent="-410"
    x-height="1061"
    cap-height="1518"
    bbox="-1196 -603 2495 2735"
    underline-thickness="80"
    underline-position="-230"
    unicode-range="U+0020-U+FB02"
  />
<missing-glyph horiz-adv-x="1456" 
d="M156 52h1144v1768h-1144v-1768zM104 1872h1248v-1872h-1248v1872z" />
    <glyph glyph-name=".notdef" horiz-adv-x="1456" 
d="M156 52h1144v1768h-1144v-1768zM104 1872h1248v-1872h-1248v1872z" />
    <glyph glyph-name=".null" horiz-adv-x="0" 
 />
    <glyph glyph-name="nonmarkingreturn" horiz-adv-x="1064" 
 />
    <glyph glyph-name="space" unicode=" " horiz-adv-x="572" 
 />
    <glyph glyph-name="exclam" unicode="!" horiz-adv-x="811" 
d="M239 156q0 40 13.5 73t38 57.5t58 38t73 13.5t72.5 -13.5t57.5 -38t38 -57.5t13.5 -73q0 -41 -13.5 -74t-38 -57.5t-57.5 -37.5t-72.5 -13t-73 13t-58 37.5t-38 57.5t-13.5 74zM286 520q-3 113 -4 227.5t-4.5 241t-11 269.5t-22.5 312h349q-16 -169 -23 -312t-11 -269.5
t-5 -241t-3 -227.5h-265z" />
    <glyph glyph-name="quotedbl" unicode="&#x22;" horiz-adv-x="1128" 
d="M660 1087q-2 55 -3 113.5t-4.5 126.5t-10 147t-18.5 174h255q-12 -95 -18 -174t-9.5 -147t-5.5 -127l-4 -113h-182zM286 1087q-2 55 -3 113.5t-4.5 126.5t-10 147t-18.5 174h254q-11 -95 -17.5 -174t-10 -147t-5 -126.5t-3.5 -113.5h-182z" />
    <glyph glyph-name="numbersign" unicode="#" horiz-adv-x="1248" 
d="M442 660h265l64 224h-266zM72 1102h267l89 312h229l-89 -312h265l89 312h229l-89 -312h144v-218h-207l-63 -224h209v-218h-271l-97 -338h-229l97 338h-265l-97 -338h-229l97 338h-141v218h203l64 224h-205v218z" />
    <glyph glyph-name="dollar" unicode="$" horiz-adv-x="1248" 
d="M400 1082q0 -22 7 -41t25.5 -38t51.5 -39.5t86 -45.5v313q-83 -11 -126.5 -50t-43.5 -99zM885 401q0 26 -7.5 48t-26 43t-51 42.5t-84.5 46.5v-352q78 15 123.5 58t45.5 114zM747 1664v-223q80 -5 153 -21.5t146 -50.5l-59 -249q-42 44 -105.5 70t-134.5 37v-386
q87 -37 158 -75.5t120.5 -86.5t76.5 -107.5t27 -140.5q0 -91 -32.5 -163t-88.5 -126t-131.5 -87.5t-160.5 -46.5v-237h-177v231q-133 8 -240 41t-171 86l75 269q67 -67 153.5 -113.5t182.5 -59.5v432q-98 41 -170 81.5t-119 88t-70.5 104t-23.5 127.5q0 66 27 130
t79.5 116.5t129.5 88.5t178 47v224h177z" />
    <glyph glyph-name="percent" unicode="%" horiz-adv-x="1627" 
d="M1556 394q0 -115 -26.5 -195t-73.5 -130t-110 -72.5t-134.5 -22.5t-133 22.5t-106 72t-69.5 126.5t-25 187.5t26.5 189.5t73 130t109 75t134.5 24t133 -23.5t106 -73.5t70.5 -127t25.5 -183zM1337 381q0 78 -7 132t-21.5 88t-38 49.5t-54.5 15.5q-61 0 -90.5 -63
t-29.5 -207q0 -78 7.5 -132.5t22 -89t37 -50t53.5 -15.5q59 0 90 64t31 208zM750 1133q0 -116 -26.5 -196t-73.5 -130t-110 -72.5t-134.5 -22.5t-133 22.5t-106 72t-69.5 127t-25 187.5t26.5 189t73 130t109 75t134.5 24t133 -23.5t106 -73t70.5 -126.5t25.5 -183zM531 1119
q0 78 -7 132t-21.5 88.5t-38 49.5t-54.5 15q-61 0 -90.5 -63t-29.5 -206q0 -78 7.5 -133t22 -89t37 -49.5t53.5 -15.5q59 0 90 64t31 207zM1330 1539l-811 -1565h-216l813 1565h214z" />
    <glyph glyph-name="ampersand" unicode="&#x26;" horiz-adv-x="1409" 
d="M437 1217q0 -37 42.5 -95.5t107.5 -134.5q72 79 104 136.5t32 98.5q0 31 -10.5 56.5t-28.5 44.5t-44 29t-58 10q-30 0 -56.5 -12.5t-46 -32.5t-31 -46t-11.5 -54zM562 198q56 0 121.5 27.5t130.5 74.5l-95 121l-105 141l-40 51l-39 51q-49 -44 -84 -79.5t-58 -67.5
t-34 -64t-11 -68q0 -44 17 -79t45.5 -59t67.5 -36.5t84 -12.5zM1243 442q-17 -33 -45 -72t-65 -81q68 -84 118.5 -131.5t90.5 -63.5q-15 -13 -44 -33t-61.5 -39.5t-61 -33.5t-41.5 -14q-21 0 -66.5 39.5t-112.5 117.5q-47 -33 -97 -62t-102 -50t-105 -33t-105 -12
q-110 0 -195 27.5t-142 77.5t-86 120.5t-29 158.5q0 64 23.5 120.5t66.5 111t101 109.5l126 117l-84 109q-39 53 -67.5 102t-45 94t-16.5 85q0 83 32 146t86.5 106t127.5 64.5t154 21.5q79 0 145.5 -21t115 -61t76 -97t27.5 -127q0 -44 -18.5 -93.5t-51.5 -101.5t-77 -105.5
t-96 -105.5l49 -62l48 -63l96 -131l85 -113q37 41 64 82.5t41 78.5z" />
    <glyph glyph-name="quotesingle" unicode="'" horiz-adv-x="650" 
d="M234 1087q-2 55 -3 113.5t-4.5 126.5t-10 147t-18.5 174h254q-11 -95 -17.5 -174t-10 -147t-5 -126.5t-3.5 -113.5h-182z" />
    <glyph glyph-name="parenleft" unicode="(" horiz-adv-x="894" 
d="M703 1513q-82 -76 -141 -174t-97 -209.5t-56 -231t-18 -238.5q0 -117 17.5 -236.5t56 -236.5t100 -228t148.5 -209l-157 -176q-214 222 -325 490.5t-111 585.5q0 171 32.5 328.5t92.5 293.5t144.5 246.5t187.5 187.5z" />
    <glyph glyph-name="parenright" unicode=")" horiz-adv-x="894" 
d="M318 1706q103 -77 188 -187.5t144.5 -246.5t92.5 -293.5t33 -328.5q0 -317 -111.5 -585.5t-325.5 -490.5l-157 176q87 98 148.5 209t100 228t56 236.5t17.5 236.5q0 119 -18 238.5t-56 231t-96.5 209.5t-141.5 174z" />
    <glyph glyph-name="asterisk" unicode="*" horiz-adv-x="1081" 
d="M961 1374l-149 -65q-67 -30 -135 -65q35 -16 71 -30l71 -27l74 -26l80 -28l-110 -182l-61 48l-60 44l-60 42l-65 42q3 -37 6.5 -73t8 -72t11 -75t14.5 -82h-209q14 80 22.5 152t14.5 153q-66 -47 -121 -94l-118 -103l-105 187l154 62q68 29 133 62q-63 30 -139 58.5
t-158 55.5l106 177q66 -53 124.5 -93.5t125.5 -81.5q-7 81 -18.5 152.5t-26.5 151.5h207l-11 -84q-5 -38 -9 -74t-6.5 -72t-4.5 -74q66 47 123 94l119 99z" />
    <glyph glyph-name="plus" unicode="+" horiz-adv-x="1248" 
d="M161 874h354v353h218v-353h354v-219h-354v-359h-218v359h-354v219z" />
    <glyph glyph-name="comma" unicode="," horiz-adv-x="691" 
d="M192 187q0 29 15 59t41 53.5t62 39t80 15.5q45 0 80 -16.5t60 -45t38.5 -69t13.5 -88.5q0 -69 -19 -138t-52 -132t-76.5 -117.5t-91.5 -95.5l-151 72q83 88 125 175t42 153h-167v135z" />
    <glyph glyph-name="hyphen" unicode="-" horiz-adv-x="930" 
d="M83 764h765v-218h-765v218z" />
    <glyph glyph-name="period" unicode="." horiz-adv-x="738" 
d="M208 156q0 40 13.5 73t38 57.5t57.5 38t73 13.5t73 -13.5t57.5 -38t38 -57.5t13.5 -73q0 -41 -13.5 -74t-38 -57.5t-57.5 -37.5t-73 -13t-73 13t-57.5 37.5t-38 57.5t-13.5 74z" />
    <glyph glyph-name="slash" unicode="/" horiz-adv-x="1123" 
d="M1113 1664l-863 -1919h-240l864 1919h239z" />
    <glyph glyph-name="zero" unicode="0" horiz-adv-x="1248" 
d="M1180 770q0 -226 -41.5 -378.5t-116.5 -245.5t-179.5 -132.5t-229 -39.5t-225.5 40t-172 131t-109.5 239t-38.5 365q0 219 42 371t117 246t179 136t228 42q132 0 234 -41t172 -133t105 -239.5t35 -360.5zM884 744q0 289 -63 425t-197 136q-127 0 -193.5 -129.5
t-66.5 -400.5q0 -289 64.5 -425.5t195.5 -136.5q126 0 193 130t67 401z" />
    <glyph glyph-name="one" unicode="1" horiz-adv-x="1248" 
d="M192 0v244h320v973l-292 -158l-36 270l328 189h286v-1274h320v-244h-926z" />
    <glyph glyph-name="two" unicode="2" horiz-adv-x="1248" 
d="M1134 0h-1020v229q71 51 148 113.5t152 132t143 144t119.5 149t81.5 148t30 140.5q0 45 -14 87t-42.5 73t-72 49.5t-103.5 18.5q-47 0 -99.5 -14t-103 -40t-96.5 -61t-80 -77l-68 250q36 43 89.5 80t117 64.5t132.5 42.5t134 15q114 0 207 -30.5t159.5 -87t103 -137.5
t36.5 -181q0 -86 -27.5 -169t-74.5 -162.5t-107.5 -153.5t-126 -140.5t-131.5 -124.5l-122 -103h276q77 0 131 0.5t94 2t71 4.5t63 8v-270z" />
    <glyph glyph-name="three" unicode="3" horiz-adv-x="1248" 
d="M499 920q71 0 130 19.5t102.5 51.5t67.5 72t24 83q0 35 -18.5 64t-48 48.5t-67 30.5t-75.5 11q-121 0 -222 -35.5t-189 -125.5l-37 239q32 35 79.5 66t105.5 53t122.5 34.5t129.5 12.5q113 0 206.5 -25t161 -71t105 -112.5t37.5 -149.5q0 -72 -31.5 -135t-79.5 -112.5
t-107.5 -82.5t-114.5 -45q36 -6 79.5 -18t86 -32.5t82 -50t70 -70.5t49 -95t18.5 -124q0 -91 -45.5 -173t-125.5 -142.5t-189.5 -96t-237.5 -35.5q-139 0 -260 42t-203 119l36 286q43 -48 94.5 -86t109 -64t119.5 -39.5t125 -13.5q56 0 106.5 15.5t89.5 44.5t61.5 70.5
t22.5 93.5q0 48 -24 89.5t-71.5 72.5t-116 49t-157.5 18h-93v249h93z" />
    <glyph glyph-name="four" unicode="4" horiz-adv-x="1248" 
d="M317 593h442v598zM1035 359v-359h-276v359h-697v234l661 925h312v-925h166v-234h-166z" />
    <glyph glyph-name="five" unicode="5" horiz-adv-x="1248" 
d="M182 1518h889v-275q-29 6 -63.5 10t-70.5 6.5t-72.5 3.5t-68.5 1h-344v-333q13 6 33 12.5t44 12t50 8.5t50 3q108 0 200 -33t160 -95t106.5 -149.5t38.5 -195.5q0 -122 -47 -218.5t-127.5 -163.5t-189 -102.5t-230 -35.5t-230 24t-206.5 85l42 291q52 -42 101 -70.5
t98.5 -46.5t100 -25.5t105.5 -7.5q63 0 116 19t92 54t61 84t22 108q0 63 -25.5 110t-68 78t-99 46t-119.5 15q-83 0 -166.5 -15t-181.5 -52v847z" />
    <glyph glyph-name="six" unicode="6" horiz-adv-x="1248" 
d="M681 738q-92 0 -170.5 -29t-140.5 -79q4 -92 28 -168t64.5 -130t96.5 -84t123 -30q57 0 104 21.5t80.5 57t51.5 81.5t18 95q0 57 -16.5 105.5t-49 84t-79.5 55.5t-110 20zM1049 1186q-33 33 -69.5 55.5t-74 35.5t-76 18t-75.5 5q-68 0 -130 -21t-112.5 -73t-86 -142
t-49.5 -227q69 57 149.5 91t176.5 34q112 0 204 -36t157.5 -99.5t101.5 -150t36 -187.5q0 -114 -37.5 -208.5t-106 -162.5t-164.5 -106t-215 -38q-138 0 -247 48t-183.5 140.5t-114 229.5t-39.5 315q0 101 15.5 202.5t48.5 194.5t85.5 173.5t127 140t172.5 93t221 33.5
q54 0 100.5 -4t88.5 -15t82 -29t81 -45z" />
    <glyph glyph-name="seven" unicode="7" horiz-adv-x="1248" 
d="M244 0q45 147 87.5 271t86 232.5t88 204t95 187t107.5 182t124 187.5h-333q-146 0 -241 -4.5t-154 -16.5v275h1071v-208q-115 -158 -210 -315.5t-172 -318.5t-139.5 -329t-112.5 -347h-297z" />
    <glyph glyph-name="eight" unicode="8" horiz-adv-x="1248" 
d="M900 452q0 58 -21.5 104.5t-59 80.5t-88 52t-107.5 18q-58 0 -108.5 -18t-87.5 -52t-58.5 -80.5t-21.5 -104.5q0 -53 20 -99.5t56 -82.5t87 -57t113 -21q66 0 117 21t86 57t54 82.5t19 99.5zM842 1144q0 42 -13 78t-40 62.5t-68 42t-97 15.5q-48 0 -88 -13.5t-69 -39.5
t-45 -62.5t-16 -82.5q0 -99 57 -156t161 -57t161 57t57 156zM624 -26q-108 0 -207.5 30t-176 88t-122 140.5t-45.5 188.5q0 89 23.5 153t61.5 111t86.5 81t98.5 61q-30 16 -65 42t-64.5 64.5t-48.5 91.5t-19 124q0 96 40 170t107 123.5t156 75.5t185 26q98 0 183.5 -26
t149 -75.5t99.5 -123.5t36 -170q0 -71 -18.5 -123.5t-47 -91t-62.5 -64.5t-64 -43q43 -22 89.5 -53t85.5 -78t64.5 -111.5t25.5 -152.5q0 -106 -45.5 -191t-122 -144.5t-176 -91t-207.5 -31.5z" />
    <glyph glyph-name="nine" unicode="9" horiz-adv-x="1248" 
d="M597 822q88 0 166 32.5t138 86.5q-16 179 -91 269t-214 90q-58 0 -105.5 -17.5t-81 -48t-52 -71t-18.5 -86.5q0 -57 18.5 -103.5t52.5 -80.5t81.5 -52.5t105.5 -18.5zM216 333q34 -33 72 -55.5t77.5 -35.5t79.5 -18.5t77 -5.5q70 0 134.5 22.5t115.5 80t85 156t44 251.5
q-71 -59 -154 -94t-175 -35q-108 0 -199.5 34.5t-158 94t-104 140t-37.5 174.5q0 117 43.5 210t117.5 158t171.5 99.5t207.5 34.5q100 0 181.5 -27.5t145 -77t108.5 -117.5t74.5 -149.5t43.5 -173.5t14 -187.5t-15 -195t-48 -192.5t-85.5 -175.5t-127 -143t-172 -96
t-220.5 -35.5q-101 0 -189.5 23.5t-162.5 70.5z" />
    <glyph glyph-name="colon" unicode=":" horiz-adv-x="738" 
d="M208 780q0 40 13.5 73t38 57.5t57.5 38t73 13.5t73 -13.5t57.5 -38t38 -57.5t13.5 -73q0 -41 -13.5 -74t-38 -57.5t-57.5 -37.5t-73 -13t-73 13t-57.5 37.5t-38 57.5t-13.5 74zM208 156q0 40 13.5 73t38 57.5t57.5 38t73 13.5t73 -13.5t57.5 -38t38 -57.5t13.5 -73
q0 -41 -13.5 -74t-38 -57.5t-57.5 -37.5t-73 -13t-73 13t-57.5 37.5t-38 57.5t-13.5 74z" />
    <glyph glyph-name="semicolon" unicode=";" horiz-adv-x="738" 
d="M192 187q0 29 15 59t41 53.5t62 39t80 15.5q45 0 80 -16.5t60 -45t38.5 -69t13.5 -88.5q0 -69 -19 -138t-52 -132t-76.5 -117.5t-91.5 -95.5l-151 72q83 88 125 175t42 153h-167v135zM208 780q0 40 13.5 73t38 57.5t57.5 38t73 13.5t73 -13.5t57.5 -38t38 -57.5t13.5 -73
q0 -41 -13.5 -74t-38 -57.5t-57.5 -37.5t-73 -13t-73 13t-57.5 37.5t-38 57.5t-13.5 74z" />
    <glyph glyph-name="less" unicode="&#x3c;" horiz-adv-x="1248" 
d="M1113 255l-999 405v198l999 406v-240l-707 -265l707 -265v-239z" />
    <glyph glyph-name="equal" unicode="=" horiz-adv-x="1248" 
d="M125 1061h998v-219h-998v219zM125 676h998v-218h-998v218z" />
    <glyph glyph-name="greater" unicode="&#x3e;" horiz-adv-x="1248" 
d="M135 494l707 265l-707 265v240l999 -406v-198l-999 -405v239z" />
    <glyph glyph-name="question" unicode="?" horiz-adv-x="1133" 
d="M348 156q0 40 13.5 73t38 57.5t58 38t73 13.5t72.5 -13.5t57.5 -38t38 -57.5t13.5 -73q0 -41 -13.5 -74t-38 -57.5t-57.5 -37.5t-72.5 -13t-73 13t-58 37.5t-38 57.5t-13.5 74zM390 520q0 82 10.5 155.5t28 137t40 115.5t46.5 91q27 45 50 77l40 58q16 24 25.5 44t9.5 40
q0 46 -36.5 77.5t-112.5 31.5q-40 0 -80 -9t-79 -26t-74.5 -41.5t-65.5 -55.5l-46 248q26 25 66.5 49.5t90 44.5t105.5 32.5t112 12.5q100 0 177.5 -25.5t130.5 -70.5t80.5 -105.5t27.5 -131.5q0 -41 -11.5 -73t-30.5 -63t-44 -64t-52 -75q-39 -59 -64.5 -115t-40.5 -114
t-21 -118t-6 -127h-276z" />
    <glyph glyph-name="at" unicode="@" horiz-adv-x="1811" 
d="M1061 853l-27 12q-15 7 -32.5 12.5t-40 8.5t-51.5 3q-104 0 -161 -72q-30 -38 -46.5 -98.5t-16.5 -120.5q0 -115 31 -174.5t87 -59.5q23 0 49 17.5t52 47.5t50.5 68.5t45 80t36 83t24.5 77.5v115zM1326 -133q-40 -27 -88.5 -49.5t-102.5 -38.5t-110.5 -25t-109.5 -9
q-104 0 -205.5 24.5t-193 73t-169 120t-134 166.5t-88 212.5t-31.5 256.5q0 146 32 268t89 220.5t136.5 172.5t173.5 123.5t200 74.5t216 25q171 0 313.5 -54t245 -153t159.5 -237.5t57 -309.5q0 -133 -35.5 -237.5t-91.5 -176.5t-125 -110t-138 -38q-48 0 -86.5 23.5
t-66.5 64.5t-44.5 97.5t-20.5 121.5q-21 -49 -57.5 -102t-83 -98t-97 -74t-100.5 -29q-52 0 -104 26.5t-94 75.5t-68 120t-26 159q0 97 21 171t57 136q66 107 161 165.5t224 58.5q31 0 74 -5t88 -13t88 -19.5t78 -25.5v-343q0 -172 25 -250t63 -78q23 0 51 22.5t52.5 67
t41 109.5t16.5 150q0 126 -35.5 234t-108.5 187.5t-183 125.5t-260 46q-132 0 -247 -49.5t-200 -137.5t-133.5 -209t-48.5 -265q0 -156 48.5 -284t134 -218.5t200.5 -139.5t246 -49q73 0 139 19t116 53z" />
    <glyph glyph-name="A" unicode="A" horiz-adv-x="1544" 
d="M547 593h426l-214 684zM1044 369h-566l-114 -369h-310q14 31 28 65.5t29 77.5l34 97l44 129l385 1149h370l385 -1149l44 -128l35 -98l30 -77l26 -66h-304z" />
    <glyph glyph-name="B" unicode="B" horiz-adv-x="1440" 
d="M1295 447q0 -97 -38 -180.5t-116 -145.5t-198.5 -96.5t-286.5 -34.5q-90 0 -179 1.5t-161 3.5q-84 2 -160 5q6 31 9 80t5 110.5t2 132.5v866q0 73 -2 135.5t-5 112.5t-9 81l91 5q51 2 113.5 3.5t133.5 2t146 0.5q125 0 231 -19.5t182.5 -63.5t120 -116t43.5 -176
q0 -63 -19.5 -114t-52.5 -91t-77.5 -68.5t-95.5 -48.5q59 -16 116.5 -42.5t103.5 -71t74.5 -110.5t28.5 -161zM468 229q26 -2 79 -3.5t131 -1.5q68 0 128.5 12t106 40t72 74.5t26.5 117.5q0 107 -89 161.5t-253 54.5h-201v-455zM468 910h161q149 0 226.5 55.5t77.5 154.5
q0 93 -65.5 138t-211.5 45q-54 0 -106.5 -1.5t-81.5 -3.5v-388z" />
    <glyph glyph-name="C" unicode="C" horiz-adv-x="1440" 
d="M1316 146q-48 -39 -112 -70.5t-135 -54t-144 -35t-140 -12.5q-161 0 -289.5 53.5t-218 153t-136.5 241t-47 316.5q0 135 26.5 246.5t74.5 201t114.5 156.5t147.5 112.5t172 67.5t187 22q72 0 135.5 -7.5t122.5 -25t114.5 -45t111.5 -67.5l-73 -250q-100 78 -196 112
t-199 34q-95 0 -176 -33.5t-140 -100t-92.5 -166t-33.5 -231.5q0 -125 29.5 -224.5t85.5 -168.5t136 -105.5t181 -36.5q58 0 118 13.5t118 39t110.5 61t95.5 78.5z" />
    <glyph glyph-name="D" unicode="D" horiz-adv-x="1544" 
d="M172 473v716q0 73 -2 135.5t-5 112.5t-9 81q23 1 59 3t79 3t91 2t96 1l92 1q45 1 82 1q72 0 156.5 -10.5t170.5 -40t165.5 -82t141.5 -137t99 -205t37 -284.5q0 -155 -36.5 -273t-97.5 -204.5t-141 -145t-168 -93.5t-178.5 -49.5t-170.5 -14.5h-61q-34 1 -73 1l-78 2
l-79 2q-89 2 -186 5q6 31 8.5 80t4.5 110.5t2.5 133.5t0.5 149zM468 240q30 -3 79 -6.5t111 -3.5q88 0 171 28t148 90t104.5 160.5t39.5 240.5q0 155 -33.5 260t-94 169t-145.5 91t-186 27q-21 0 -47.5 -0.5t-54 -1.5t-51.5 -1.5t-41 -1.5v-1051z" />
    <glyph glyph-name="E" unicode="E" horiz-adv-x="1260" 
d="M1037 910v-234h-569v-437h268q150 0 249.5 2t160.5 14v-255h-990q11 62 13.5 180t2.5 272v614q0 154 -2.5 272t-13.5 180h959v-239h-647v-369h569z" />
    <glyph glyph-name="F" unicode="F" horiz-adv-x="1248" 
d="M1045 894v-234h-577v-236q0 -145 2 -256t14 -168h-328q11 62 13.5 180t2.5 272v754q0 70 -2 129t-5 105.5t-9 77.5h978v-239h-666v-385h577z" />
    <glyph glyph-name="G" unicode="G" horiz-adv-x="1530" 
d="M1390 161q-84 -56 -159 -92.5t-145 -57t-138 -29t-140 -8.5q-156 0 -287 51t-226 150t-148 243t-53 331t57.5 334.5t159 250t239.5 156.5t301 54q66 0 129.5 -5.5t127 -21t129.5 -44t138 -74.5l-90 -248q-109 77 -219.5 110.5t-223.5 33.5q-103 0 -186.5 -37t-143 -105
t-91 -164t-31.5 -214q0 -127 29 -228t83 -171.5t129.5 -108.5t168.5 -38q44 0 84 3.5t78 12.5t78 23.5t85 37.5v276h-327v234h592v-655z" />
    <glyph glyph-name="H" unicode="H" horiz-adv-x="1575" 
d="M1394 1518q-12 -62 -14 -177t-2 -270v-624q0 -155 2 -270t14 -177h-312v660h-614v-660h-312q11 62 13.5 177t2.5 270v624q0 155 -2.5 270t-13.5 177h312v-624h614v624h312z" />
    <glyph glyph-name="I" unicode="I" horiz-adv-x="1086" 
d="M931 1518v-213h-250v-1092h250v-213h-796v213h250v1092h-250v213h796z" />
    <glyph glyph-name="J" unicode="J" horiz-adv-x="1071" 
d="M889 1518v-962q0 -158 -37 -268.5t-104 -180.5t-161 -101.5t-209 -31.5q-41 0 -89 7t-94.5 21.5t-89.5 37t-74 54.5l51 267q29 -30 64.5 -53.5t74 -39t79 -24t80.5 -8.5q68 0 109.5 28t64.5 76t31 110t8 130v439q0 76 -0.5 148.5t-2 136.5t-5 118.5t-8.5 95.5h312z" />
    <glyph glyph-name="K" unicode="K" horiz-adv-x="1487" 
d="M468 865l514 653h349l-639 -715l722 -803h-384l-562 682v-682h-312q11 62 13.5 180t2.5 272v614q0 154 -2.5 272t-13.5 180h312v-653z" />
    <glyph glyph-name="L" unicode="L" horiz-adv-x="1175" 
d="M693 239q147 0 261 2t174 14v-255h-972q11 62 13.5 180t2.5 272v614q0 154 -2.5 272t-13.5 180h312v-1279h225z" />
    <glyph glyph-name="M" unicode="M" horiz-adv-x="1929" 
d="M598 1518l356 -1232l356 1232h364l25 -682q3 -88 8 -177l8 -174q4 -85 8 -161.5t8 -139.5t8 -110.5t8 -73.5h-281l-25 1178l-333 -1178h-307l-336 1175l-28 -1175h-281q3 26 7 73.5t8 110.5q4 64 8 140l8 162l8 173l8 177l26 682h369z" />
    <glyph glyph-name="N" unicode="N" horiz-adv-x="1606" 
d="M442 1046v-1046h-286q11 62 13.5 180t2.5 272v614q0 154 -2.5 272t-13.5 180h286l697 -1047v1047h286q-5 -31 -8.5 -76.5t-5 -103.5t-2 -126.5t-0.5 -145.5v-1066h-270z" />
    <glyph glyph-name="O" unicode="O" horiz-adv-x="1560" 
d="M1440 770q0 -125 -26 -232.5t-71.5 -196t-109 -157t-139.5 -115t-161 -71t-174 -24.5q-134 0 -255 51t-212 150t-144.5 243t-53.5 331t56.5 334.5t151.5 250t219 156.5t259 54q133 0 252.5 -51t210 -149.5t144 -242.5t53.5 -331zM1144 744q0 126 -27.5 227.5t-77.5 172.5
t-118.5 108.5t-151 37.5t-152 -36t-120 -103t-79 -162.5t-28.5 -213.5q0 -126 27.5 -227t78 -172t120 -109t154.5 -38q78 0 146 34.5t119 101.5t80 162t29 217z" />
    <glyph glyph-name="P" unicode="P" horiz-adv-x="1326" 
d="M468 452q0 -155 2 -273t14 -179h-328q11 62 13.5 180t2.5 272v737q0 73 -2 135.5t-5 112.5t-9 81q89 2 181 6q38 1 82 1.5t89 1.5t90 1.5t86 0.5q126 0 230 -30.5t178 -90t115 -149t41 -209.5t-41.5 -216t-117 -162.5t-181.5 -102t-234 -35.5q-57 0 -106 2.5t-100 7.5
v-92zM468 770q33 -6 79.5 -8.5t95.5 -2.5q152 0 230.5 70t78.5 211q0 56 -17 103.5t-54 80.5t-94.5 52t-139.5 19q-30 0 -54 -0.5t-44.5 -1t-39.5 -1.5t-41 -2v-520z" />
    <glyph glyph-name="Q" unicode="Q" horiz-adv-x="1606" 
d="M1144 744q0 126 -27.5 227.5t-77.5 172.5t-118.5 108.5t-151 37.5t-152 -36t-120 -103t-79 -162.5t-28.5 -213.5q0 -126 27.5 -227t78 -172t120 -109t154.5 -38q79 0 147.5 34.5t119 101.5t79 162t28.5 217zM1440 770q0 -105 -17 -194.5t-49 -166.5t-78.5 -141.5
t-103.5 -119.5l100 -55q49 -27 98 -49t100 -37.5t106 -22.5l-33 -57q-21 -37 -47 -73.5t-54.5 -63.5t-57.5 -27q-22 0 -61 16.5t-86 41.5l-98 53l-98 53q-46 24 -82.5 40.5t-53.5 16.5q-19 -3 -36 -5t-36 -3t-41.5 -1.5t-52.5 -0.5q-134 0 -255 51t-212 150t-144.5 243
t-53.5 331t56.5 334.5t151.5 250t219 156.5t259 54q133 0 252.5 -51t210 -149.5t144 -242.5t53.5 -331z" />
    <glyph glyph-name="R" unicode="R" horiz-adv-x="1435" 
d="M468 452q0 -76 1 -145q0 -69 1.5 -127t4.5 -104t9 -76h-328q11 62 13.5 180t2.5 272v737q0 73 -2 135.5t-5 112.5t-9 81q81 2 168 6q75 2 167.5 3.5t184.5 1.5q122 0 222 -27.5t172 -83.5t112 -140t40 -196q0 -87 -24 -156t-66 -123t-100 -92t-126 -62l72 -101l91 -126
l98 -135l93 -127l76 -102q33 -42 47 -58h-369l-401 608h-145v-156zM468 832h161q69 0 123.5 12.5t93 41t59.5 75.5t21 115q0 118 -74 168.5t-212 50.5q-31 0 -53.5 -0.5t-42.5 -1t-37.5 -1.5t-38.5 -2v-458z" />
    <glyph glyph-name="S" unicode="S" horiz-adv-x="1292" 
d="M1071 1175q-61 31 -113 53.5t-101 37t-98 22t-104 7.5q-49 0 -89.5 -15t-70 -39t-46 -55t-16.5 -63q0 -33 12 -59.5t47 -51t98 -50t166 -57.5q104 -32 184 -73t134 -93.5t82 -118t28 -147.5q0 -111 -44.5 -203t-121 -157.5t-178 -102t-216.5 -36.5q-81 0 -158 10.5
t-145 29t-126 44t-101 56.5l52 286q112 -90 232 -130.5t246 -40.5q51 0 98 14t83 40.5t58 65t22 88.5q0 32 -13 61t-51.5 57.5t-107.5 59t-183 66.5q-122 39 -199 83.5t-121 96.5t-59.5 112t-15.5 129q0 47 13.5 98t41 100t70.5 93t101.5 78t134.5 53.5t170 19.5
q66 0 124 -5t112.5 -16.5t107 -29t108.5 -42.5z" />
    <glyph glyph-name="T" unicode="T" horiz-adv-x="1326" 
d="M1269 1518v-260q-56 14 -116.5 17.5t-123.5 3.5h-225v-849q0 -146 3.5 -258.5t17.5 -171.5h-338q13 59 17 171.5t4 258.5v849h-221q-62 0 -123 -3.5t-117 -17.5v260h1222z" />
    <glyph glyph-name="U" unicode="U" horiz-adv-x="1549" 
d="M1368 1518q-11 -62 -13.5 -176t-2.5 -276v-530q0 -127 -37 -230.5t-111 -177.5t-183.5 -114t-256.5 -40t-258.5 40t-185.5 114t-111 177.5t-37 230.5v530q0 154 -3 272t-13 180h312v-936q0 -84 14 -152.5t48 -117t91 -74.5t143 -26q85 0 141 26t90 74.5t47.5 117
t13.5 152.5v936h312z" />
    <glyph glyph-name="V" unicode="V" horiz-adv-x="1523" 
d="M1477 1518l-30 -67l-31 -79l-38 -100l-47 -133l-405 -1139h-349l-405 1139l-49 131l-38 102q-17 44 -32 79t-27 67h317l408 -1248l409 1248h317z" />
    <glyph glyph-name="W" unicode="W" horiz-adv-x="2220" 
d="M636 264l321 1254h270l330 -1255l284 1255h322l-24 -67l-26 -79l-31 -100l-38 -133l-323 -1139h-327l-302 1139l-296 -1139h-328l-317 1139l-38 131l-30 102q-14 46 -26.5 80.5t-25.5 65.5h323z" />
    <glyph glyph-name="X" unicode="X" horiz-adv-x="1419" 
d="M687 563l-323 -563h-333l47 62q22 28 48 66l58 90q33 52 81 136l267 463l-204 337q-49 82 -85 137l-64 93q-28 40 -52 70l-49 64h338l293 -483l279 483h338l-50 -62q-25 -31 -53.5 -72.5t-62.5 -97.5l-78 -132l-218 -374l262 -431l84 -135l60 -90l47 -65l45 -59h-332z
" />
    <glyph glyph-name="Y" unicode="Y" horiz-adv-x="1418" 
d="M371 1518l334 -618l332 618h335l-81 -118l-65 -102l-57 -94l-57 -96l-264 -447v-209q0 -153 2 -271.5t13 -180.5h-327q11 62 13 180.5t2 271.5v210l-260 446l-59 100l-60 98l-66 102q-36 52 -80 110h345z" />
    <glyph glyph-name="Z" unicode="Z" horiz-adv-x="1300" 
d="M1180 1336l-748 -1097h327q153 0 271.5 5t181.5 16v-260h-1144v166l757 1113h-243q-84 0 -152.5 -0.5t-123.5 -3t-98.5 -6.5t-77.5 -11v260h1050v-182z" />
    <glyph glyph-name="bracketleft" unicode="[" horiz-adv-x="884" 
d="M198 -426v2090h540v-218h-249v-1654h249v-218h-540z" />
    <glyph glyph-name="backslash" unicode="\" horiz-adv-x="1123" 
d="M250 1664l863 -1919h-239l-864 1919h240z" />
    <glyph glyph-name="bracketright" unicode="]" horiz-adv-x="884" 
d="M146 -426v218h249v1654h-249v218h540v-2090h-540z" />
    <glyph glyph-name="asciicircum" unicode="^" horiz-adv-x="915" 
d="M674 1248l-208 239l-208 -239h-250l302 416h312l302 -416h-250z" />
    <glyph glyph-name="underscore" unicode="_" horiz-adv-x="1324" 
d="M0 -146h1325v-218h-1325v218z" />
    <glyph glyph-name="grave" unicode="`" horiz-adv-x="665" 
d="M364 1664l302 -416h-250l-416 416h364z" />
    <glyph glyph-name="a" unicode="a" 
d="M801 494q-16 0 -44.5 -2t-60.5 -5t-63 -7l-51 -5q-54 -6 -89.5 -19t-57.5 -31.5t-31 -42t-9 -49.5q0 -25 10.5 -47t29 -38t45 -25.5t59 -9.5t63 5.5t62.5 22t65.5 47t71.5 81.5v125zM884 0l-25 59q-16 38 -27 81q-88 -88 -183 -127t-186 -39q-78 0 -144 26.5t-113.5 70.5
t-74.5 102.5t-27 122.5q0 60 20 121t67.5 112.5t127.5 89t201 49.5q27 3 68 6l83 6q42 2 78 4t52 2v52q0 59 -66.5 85t-183.5 26q-83 0 -164.5 -33t-173.5 -97q0 16 1 48.5t2 71t4 78.5l4 71l90 34q46 17 96.5 30t107 21.5t122.5 8.5q102 0 185.5 -22.5t143 -61.5t91.5 -92
t32 -116v-405q0 -113 20 -205.5t53 -179.5h-281z" />
    <glyph glyph-name="b" unicode="b" horiz-adv-x="1263" 
d="M432 1664v-785q35 43 76 80t89.5 64t104 43t119.5 16q77 0 140.5 -38.5t110 -108t72.5 -165t26 -208.5q0 -135 -35 -243t-99.5 -185t-156 -118.5t-203.5 -41.5q-75 0 -146 9t-138.5 23t-129.5 30l-122 32v1230q0 66 -1.5 133.5t-4.5 128t-9 104.5h307zM432 250
q30 -15 55 -25t47.5 -16t45.5 -8.5t49 -2.5q56 0 104 23.5t83 66.5t54 103t19 134q0 70 -12 126t-34.5 95t-56 60t-76.5 21q-40 0 -80 -16t-77 -45t-68.5 -69.5t-52.5 -88.5v-358z" />
    <glyph glyph-name="c" unicode="c" horiz-adv-x="1062" 
d="M913 746q-35 24 -67 42t-63.5 30t-66 18t-74.5 6q-54 0 -101 -21.5t-82 -63t-54.5 -101.5t-19.5 -136q0 -69 18 -125.5t51.5 -96.5t81 -62.5t106.5 -22.5q46 0 86 8t75 22.5t68 35.5t67 48l31 -254q-39 -24 -79.5 -43t-85.5 -31.5t-95 -18.5t-108 -6q-105 0 -197.5 35.5
t-161 104t-108.5 168.5t-40 228q0 121 38.5 225.5t109 181.5t171 121t223.5 44q104 0 185 -22t138 -52z" />
    <glyph glyph-name="d" unicode="d" horiz-adv-x="1315" 
d="M868 768q-36 17 -66.5 29t-60.5 20t-60.5 11.5t-66.5 3.5q-41 0 -80.5 -22t-70 -63.5t-49.5 -101t-19 -135.5q0 -149 49 -225.5t149 -76.5q41 0 82.5 17.5t77.5 47.5t66.5 66.5t48.5 76.5v352zM1160 551q0 -196 22 -330t56 -221h-286q-7 12 -14 32l-14 44q-8 24 -16 52
l-14 54q-70 -101 -159.5 -154.5t-198.5 -53.5q-97 0 -176 36t-136.5 102t-88.5 159t-31 207q0 139 40 250t109 189.5t162 121.5t199 43q31 0 63.5 -7.5t66 -20t65 -28.5t59.5 -33v291q0 126 -5.5 220t-20.5 160h318v-1113z" />
    <glyph glyph-name="e" unicode="e" horiz-adv-x="1154" 
d="M379 468q10 -135 76 -195t184 -60q103 0 200 23.5t195 81.5l22 -240q-57 -28 -110.5 -48t-107 -32.5t-109.5 -18t-116 -5.5q-103 0 -197.5 35t-166 103t-113.5 169t-42 234q0 129 35.5 233.5t103.5 179t163.5 114.5t216.5 40q87 0 153 -21.5t114.5 -58.5t81 -87.5
t52 -109t27.5 -123t8 -129.5v-18q0 -12 0.5 -24.5t0.5 -23.5v-19h-671zM598 863q-90 0 -143 -48.5t-70 -159.5h400q0 110 -47 159t-140 49z" />
    <glyph glyph-name="f" unicode="f" horiz-adv-x="832" 
d="M31 1045h208v172q0 116 28 204t81 147t129 88t173 29q29 0 63 -6t67.5 -15.5t65 -23t54.5 -28.5l-60 -237q-16 15 -37 27.5t-43.5 21.5t-44.5 13.5t-41 4.5q-75 0 -109.5 -55t-34.5 -182v-160h266v-208h-266v-323q0 -76 2 -150.5t5.5 -141.5t9.5 -124t15 -98h-323v837
h-208v208z" />
    <glyph glyph-name="g" unicode="g" horiz-adv-x="1216" 
d="M392 707q0 -39 14.5 -73.5t41 -59.5t63 -39t79.5 -14t79 14t62.5 39t41 59.5t14.5 73.5q0 36 -14.5 67t-41 55t-62.5 38t-79 14t-79.5 -14t-63 -38t-41 -55t-14.5 -67zM569 -24q-18 2 -34.5 5t-32.5 7q-52 -25 -83 -48t-48 -44.5t-22.5 -42t-5.5 -40.5q0 -22 17.5 -44.5
t52.5 -40.5t88 -30t125 -12q57 0 107.5 13t88.5 32.5t60.5 44t22.5 47.5q0 28 -16 51.5t-54.5 42.5t-103 34t-162.5 25zM1136 858q-27 -1 -55.5 -4t-58.5 -10q30 -63 30 -137q0 -84 -35 -155.5t-97 -123.5t-147 -81.5t-183 -29.5q-47 0 -91 6q-27 -14 -38 -29t-11 -29
q0 -15 14.5 -27.5t52 -24t101.5 -21.5t164 -20q116 -16 195.5 -45.5t127.5 -72.5t69.5 -98t21.5 -122q0 -57 -25 -105t-67.5 -87.5t-100.5 -71t-123 -52.5t-134 -32t-136 -11q-64 0 -130 8t-128 25.5t-116.5 43.5t-95.5 61t-64.5 80t-23.5 99q0 81 61 148.5t187 122.5
q-50 35 -70 76t-20 85q0 38 27 83t79 78q-87 50 -138 130t-51 182q0 79 35.5 149t97.5 122.5t147 83t183 30.5q81 0 151 -19.5t128 -53.5q66 30 140 48.5t137 24.5z" />
    <glyph glyph-name="h" unicode="h" horiz-adv-x="1284" 
d="M432 0h-292v1175q0 169 -2 295t-13 194h307v-780q38 49 85.5 86t100 62t108 37.5t111.5 12.5q317 0 317 -432v-650h-291v572q0 76 -9.5 125t-29 78t-50 40.5t-72.5 11.5q-45 0 -87.5 -20t-79 -52t-63.5 -71.5t-40 -80.5v-603z" />
    <glyph glyph-name="i" unicode="i" horiz-adv-x="665" 
d="M151 1440q0 40 13.5 73t38 57.5t57.5 38t72.5 13.5t73 -13.5t58 -38t38 -57.5t13.5 -73t-13.5 -73.5t-38 -58t-58 -37.5t-73 -13t-72.5 13t-57.5 37.5t-38 58t-13.5 73.5zM478 1061v-567q0 -50 2 -118t4.5 -138t6 -133t8.5 -105h-312v551q0 76 -0.5 150t-2 140
t-4.5 122.5t-8 97.5h306z" />
    <glyph glyph-name="j" unicode="j" horiz-adv-x="696" 
d="M520 26q0 -146 -35.5 -244.5t-98 -158.5t-146.5 -86t-182 -26q-36 0 -74.5 8.5t-73.5 21.5t-63 27.5t-45 26.5l47 247q17 -17 41 -32t50.5 -26.5t54.5 -18t55 -6.5q91 0 135 64.5t44 197.5v530q0 76 -0.5 150t-2 140t-5 122.5t-8.5 97.5h307v-1035zM192 1440
q0 40 13.5 73t38 57.5t58 38t73 13.5t72.5 -13.5t57.5 -38t38 -57.5t13.5 -73t-13.5 -73.5t-38 -58t-57.5 -37.5t-72.5 -13t-73 13t-58 37.5t-38 58t-13.5 73.5z" />
    <glyph glyph-name="k" unicode="k" horiz-adv-x="1183" 
d="M140 0v1175q0 169 -2 295t-13 194h307v-993l320 390h390l-497 -465l528 -596h-382l-359 499v-499h-292z" />
    <glyph glyph-name="l" unicode="l" horiz-adv-x="665" 
d="M478 494q0 -50 2 -117.5t4.5 -137t6 -133t8.5 -106.5h-312v1175q0 152 -5 275.5t-16 213.5h312v-1170z" />
    <glyph glyph-name="m" unicode="m" horiz-adv-x="1830" 
d="M390 1061q8 -16 15.5 -34.5t13.5 -39t11 -40t9 -37.5q48 52 91.5 85.5t86 52.5t85.5 26.5t88 7.5q51 0 93 -15t73.5 -38.5t54.5 -55.5t35 -66q49 53 95 87t89.5 53t85.5 27t83 8q79 0 133 -25.5t87 -75.5t47 -124t14 -171v-686h-292v572q0 78 -5.5 128t-19 78t-36.5 38.5
t-58 10.5q-57 0 -111 -38t-87 -103v-686h-291v593q0 74 -5.5 119.5t-20 71t-37 34.5t-57.5 9q-29 0 -58 -12t-54.5 -33.5t-47.5 -51t-37 -64.5v-666h-291v640q0 154 -18 260.5t-34 160.5h270z" />
    <glyph glyph-name="n" unicode="n" horiz-adv-x="1294" 
d="M874 0v572q0 72 -9.5 121t-29.5 78.5t-50.5 42.5t-72.5 13q-44 0 -87 -20t-79 -52t-63 -71.5t-41 -80.5v-603h-291v640q0 154 -17.5 260.5t-34.5 160.5h286q6 -16 12.5 -41.5t11.5 -53t9 -54.5l8 -44q50 57 98 97.5t97 66.5t100 38t106 12q79 0 142 -27t106.5 -81.5
t66.5 -135.5t23 -188v-650h-291z" />
    <glyph glyph-name="o" unicode="o" horiz-adv-x="1206" 
d="M385 527q0 -75 14 -133.5t41.5 -100t68.5 -63.5t94 -22q50 0 90.5 22t69 63.5t44 100t15.5 133.5q0 150 -56 235.5t-163 85.5q-50 0 -90.5 -22t-69 -63.5t-43.5 -101t-15 -134.5zM94 527q0 134 41.5 237.5t112.5 174t166 107t200 36.5q110 0 202 -36.5t158 -107
t102.5 -174t36.5 -237.5t-41.5 -237.5t-113 -173.5t-166 -106t-199.5 -36q-110 0 -201.5 36t-158 106t-103 173.5t-36.5 237.5z" />
    <glyph glyph-name="p" unicode="p" horiz-adv-x="1284" 
d="M658 214q48 0 92 21.5t77 62t53 98t20 129.5q0 71 -13.5 128t-39.5 97t-63.5 62t-84.5 22q-34 0 -70.5 -14.5t-70.5 -43t-64 -70.5t-52 -98v-296l68 -48q29 -20 53 -30.5t46 -15t49 -4.5zM151 -510v1014q0 97 -1.5 179.5t-7 152t-16 125.5t-27.5 100h286
q11 -24 22.5 -68.5t18.5 -108.5q36 44 78.5 80t90 62t100.5 41t109 15q87 0 158.5 -39t122 -109.5t78.5 -166.5t28 -211q0 -133 -36.5 -240.5t-99.5 -183.5t-147.5 -117t-180.5 -41q-41 0 -77 7t-70 18.5t-68 29t-70 39.5v-224q0 -62 1.5 -112.5t4.5 -93.5t8.5 -78.5
t11.5 -69.5h-317z" />
    <glyph glyph-name="q" unicode="q" horiz-adv-x="1258" 
d="M822 801q-33 14 -71 23.5t-70 9.5q-78 0 -132 -28.5t-88.5 -75.5t-50 -106t-15.5 -120q0 -77 17.5 -132.5t46 -91.5t66.5 -52.5t78 -16.5q55 0 112 42.5t107 129.5v418zM822 125q-82 -83 -155.5 -117t-146.5 -34q-72 0 -145.5 28t-134 87t-98.5 149.5t-38 213.5
q0 120 31 233.5t96.5 201t168 141.5t245.5 54q59 0 120 -7t120.5 -18.5t116.5 -25.5l111 -27v-1160q0 -62 1.5 -112.5t4.5 -93.5t8.5 -78.5t11.5 -69.5h-317v635z" />
    <glyph glyph-name="r" unicode="r" horiz-adv-x="1034" 
d="M151 0v640q0 154 -17.5 260.5t-34.5 160.5h286q6 -17 12.5 -43.5t11.5 -55.5t9 -57l8 -47q38 54 80.5 95.5t85.5 70t85 43.5t77 15q73 0 124.5 -31.5t84 -85t47 -124t14.5 -149.5l-232 -37q-5 71 -34 114t-96 43q-26 0 -58.5 -23t-63.5 -59t-57.5 -83.5t-40.5 -95.5v-551
h-291z" />
    <glyph glyph-name="s" unicode="s" horiz-adv-x="1076" 
d="M901 750l-67 32q-37 18 -81 32.5t-93.5 24.5t-103.5 10q-45 0 -76 -8.5t-49.5 -21t-27 -28.5t-8.5 -32q0 -19 7 -33.5t28.5 -27t63 -23.5t109.5 -25q81 -17 153 -41.5t126 -62t85 -91.5t31 -127q0 -75 -35 -139.5t-96 -112.5t-143.5 -75t-177.5 -27q-70 0 -135 9.5
t-122 26t-104 38.5t-81 46l57 253q39 -31 87.5 -57t100.5 -44.5t104 -28.5t98 -10q37 0 67.5 8t52.5 21.5t34.5 30t12.5 35.5q0 22 -10.5 42t-37.5 37.5t-74.5 34.5t-122.5 33q-111 23 -180.5 54.5t-109 70t-54.5 82.5t-15 93q0 25 9 59.5t29.5 71.5t54 73t84 64.5
t118.5 46.5t158 18q63 0 118 -7.5t102 -19.5t85.5 -27t68.5 -30z" />
    <glyph glyph-name="t" unicode="t" horiz-adv-x="920" 
d="M520 837v-357q0 -88 7.5 -140.5t23.5 -80.5t41 -36.5t60 -8.5q40 0 89 20t112 58v-233q-75 -47 -143 -66t-124 -19q-74 0 -139 14t-113.5 49.5t-76.5 94t-28 149.5v556h-198v208h198v328h291v-328h317v-208h-317z" />
    <glyph glyph-name="u" unicode="u" horiz-adv-x="1294" 
d="M931 0l-16 39q-8 22 -16 47t-14.5 52t-10.5 54q-93 -107 -192 -162.5t-206 -55.5q-325 0 -325 447v307q0 50 -0.5 90.5t-2.5 78.5t-6.5 77.5t-11.5 86.5h312v-577q0 -71 7 -122t23.5 -84t43.5 -48.5t66 -15.5q36 0 76 21t77 53.5t67 71t46 75.5v293q0 51 -0.5 92t-3 78.5
t-6.5 76t-11 86.5h312v-593q0 -152 17 -266t50 -202h-275z" />
    <glyph glyph-name="v" unicode="v" horiz-adv-x="1148" 
d="M1138 1061l-46 -97l-44 -102l-40 -94q-19 -45 -31 -76q-11 -25 -28 -68l-39 -97l-45 -114l-47 -118l-117 -295h-254l-113 285l-47 117l-45 114l-40 100l-30 76l-32 76l-40 95l-45 101l-45 97h325l243 -759l239 759h321z" />
    <glyph glyph-name="w" unicode="w" horiz-adv-x="1632" 
d="M941 1061l193 -765l163 765h299l-32 -106l-26 -91l-25 -84l-26 -88l-192 -692h-302l-177 723l-176 -723h-302l-192 692l-24 82l-25 84l-27 94l-34 109h300l163 -765l193 765h249z" />
    <glyph glyph-name="x" unicode="x" horiz-adv-x="1232" 
d="M590 347l-231 -347h-317l74 97l56 72l43 59l40 53l191 261l-176 238l-48 65l-45 60l-54 67l-71 89h343l245 -334l218 334h317l-71 -91l-54 -72l-46 -61l-42 -57l-180 -248l185 -251l45 -61l48 -61l57 -71l74 -88h-343z" />
    <glyph glyph-name="y" unicode="y" horiz-adv-x="1144" 
d="M733 0q-55 -151 -109.5 -246t-113 -149t-121.5 -74t-134 -20q-72 0 -140 23t-125 66l72 226q17 -13 39.5 -27t48 -25t52.5 -18.5t53 -7.5q23 0 47 8.5t49 33.5t53 70.5t59 120.5l-276 711q-28 71 -67 159t-99 210h325l250 -756q13 50 30 108l34 122l36 125l34 122l78 279
h326l-49 -112l-41 -97q-19 -45 -34 -84.5t-27 -75.5z" />
    <glyph glyph-name="z" unicode="z" horiz-adv-x="1102" 
d="M998 1061v-150l-551 -687h338q56 0 114 2t115 13v-239h-915v165l541 672h-349q-47 0 -89.5 -2t-71.5 -13v239h868z" />
    <glyph glyph-name="braceleft" unicode="{" horiz-adv-x="1081" 
d="M879 -426q-53 10 -116 24.5t-121 31.5t-103.5 36t-65.5 38q-14 13 -25 50.5t-18.5 89t-12.5 113t-8 124.5l-7 122q-3 57 -5 107q-2 48 -5 79t-7 37q-9 12 -27 28l-41 35l-48 40q-25 20 -45.5 40t-33.5 38t-13 32.5t13 33t33.5 38t45.5 40.5l48 40l42 34q19 16 26 28
q4 6 7 37t6 79l5 108l6 121q3 62 8 124t13 113.5t18.5 88.5t24.5 52q19 18 61.5 36.5t96.5 35.5t113 32t109 26l52 -241q-25 -7 -56 -18t-59 -22.5t-49.5 -22t-28.5 -19.5q-9 -10 -14 -54t-9 -103.5t-5.5 -127.5t-3.5 -127.5t-4 -102t-7 -52.5q-10 -17 -37 -41l-55 -50
q-29 -26 -52 -49t-23 -36.5t23 -36.5t52 -48l57 -50q27 -25 37 -42q4 -10 6.5 -52t4 -101.5t3 -128t5 -128t8.5 -103.5t14 -54q8 -8 33.5 -19.5t57.5 -23t67 -22t61 -17.5z" />
    <glyph glyph-name="bar" unicode="|" horiz-adv-x="717" 
d="M468 1664v-2070h-218v2070h218z" />
    <glyph glyph-name="braceright" unicode="}" horiz-adv-x="1081" 
d="M135 -186q26 7 61 17.5t67 22t57.5 23t33.5 19.5q9 10 14 54t8.5 103.5t4.5 127.5q2 69 3 128q2 60 4 102t7 52q10 17 37 42l57 50q29 25 52 48t23 36.5t-23 36.5t-52 49l-55 50q-27 24 -37 41q-5 10 -7 52.5t-4 102t-3.5 127.5t-5.5 127.5t-9 103.5t-14 54
q-7 9 -28.5 19.5t-49.5 22t-59 22.5t-56 18l52 241q50 -11 109 -26t113 -32t96.5 -35.5t61.5 -36.5q14 -15 24.5 -52t18.5 -88.5t13 -113.5t8 -124l6 -121l5 -108q3 -48 6 -79t7 -37q7 -12 26 -28l42 -34l48 -40q25 -21 45.5 -40.5t33.5 -38t13 -33t-13 -32.5t-33.5 -38
t-45.5 -40l-48 -40l-41 -35q-18 -16 -27 -28q-4 -6 -7 -37t-5 -79q-2 -45 -5 -107l-7 -122q-3 -63 -8 -124.5t-12.5 -113t-18.5 -89t-25 -50.5q-20 -19 -65.5 -38t-103.5 -36t-121 -31.5t-116 -24.5z" />
    <glyph glyph-name="asciitilde" unicode="~" horiz-adv-x="1159" 
d="M21 359q0 48 16 102.5t47.5 101t78 77.5t107.5 31q78 0 147 -17.5t136.5 -37.5t138.5 -37t156 -17q32 0 54.5 9t37.5 24t22 34t10 37h151q0 -50 -18 -107t-52.5 -104.5t-83.5 -79.5t-111 -32q-82 0 -158 17.5t-146 37.5l-136 37q-66 17 -127 17q-30 0 -52 -7t-36.5 -20
t-21.5 -30t-9 -36h-151z" />
    <glyph glyph-name="nonbreakingspace" unicode="&#xa0;" horiz-adv-x="572" 
 />
    <glyph glyph-name="exclamdown" unicode="&#xa1;" horiz-adv-x="811" 
d="M208 972q0 41 13.5 74.5t38 57.5t57.5 37t73 13t73 -13t57.5 -37t38 -57.5t13.5 -74.5q0 -39 -13.5 -73t-38 -58t-57.5 -37.5t-73 -13.5t-73 13.5t-57.5 37.5t-38 58t-13.5 73zM520 608q2 -113 3 -228t4.5 -241.5t11 -268.5t23.5 -312h-349q15 170 22 312t11 268.5
t5 241.5t4 228h265z" />
    <glyph glyph-name="cent" unicode="&#xa2;" horiz-adv-x="1133" 
d="M433 571q0 -102 40.5 -173.5t112.5 -101.5v562q-69 -30 -111 -103.5t-42 -183.5zM783 1373v-277q59 -8 108 -24.5t88 -36.5l-44 -250q-42 28 -77.5 47.5t-74.5 30.5v-571q49 13 90.5 37t85.5 58l29 -241q-48 -31 -98 -50.5t-107 -31.5v-282h-197v272q-91 8 -169.5 46
t-136 102.5t-91 154.5t-33.5 204q0 104 30 195.5t86 162.5t135.5 118t178.5 61v275h197z" />
    <glyph glyph-name="sterling" unicode="&#xa3;" horiz-adv-x="1248" 
d="M1096 0h-961v198q31 26 59.5 60.5t49.5 76t33.5 88.5t12.5 99q0 45 -3 88t-7 87h-136v208h111q-4 40 -7 80t-3 81q0 120 33 210t94.5 149.5t148.5 89t198 29.5q32 0 70 -5t75.5 -14.5t72 -23t60.5 -29.5l-47 -229q-22 14 -51.5 25.5t-61 20t-62.5 12.5t-56 4
q-40 0 -72.5 -11.5t-56 -36.5t-36.5 -64.5t-13 -95.5q0 -47 3.5 -94.5t8.5 -97.5h313v-208h-289q2 -26 3 -50.5t1 -48.5q0 -56 -5 -105.5t-17 -93.5t-31.5 -83.5t-50.5 -76.5h204q141 0 249.5 2t165.5 14v-255z" />
    <glyph glyph-name="currency" unicode="&#xa4;" horiz-adv-x="1248" 
d="M920 912q0 62 -21.5 116.5t-60.5 94.5t-92.5 62.5t-117.5 22.5q-65 0 -120.5 -21.5t-95.5 -61.5t-62 -95.5t-22 -120.5t22.5 -119.5t62.5 -94t95.5 -61t119.5 -21.5t117.5 22.5t92.5 63t60.5 95.5t21.5 118zM1104 322l-220 221q-58 -47 -120 -68t-136 -21
q-80 0 -142.5 20t-121.5 68l-219 -220l-115 114l220 219q-44 58 -62 118.5t-18 135.5t18.5 141.5t65.5 122.5l-224 224l115 113l223 -224q57 43 121 62t139 19q74 0 135 -20t116 -63l225 226l114 -114l-221 -222q40 -57 60.5 -122t20.5 -140t-17.5 -136.5t-61.5 -119.5
l219 -219z" />
    <glyph glyph-name="yen" unicode="&#xa5;" horiz-adv-x="1248" 
d="M125 915h237l-112 193l-60 100l-59 98q-31 50 -67 102t-80 110h346l300 -571l299 571h335l-82 -118l-65 -102l-57 -94l-56 -96l-114 -193h233v-218h-350v-110h350v-219h-350q0 -124 2.5 -219.5t12.5 -148.5h-327q10 53 12 148.5t3 219.5h-351v219h351v110h-351v218z" />
    <glyph glyph-name="brokenbar" unicode="&#xa6;" horiz-adv-x="1106" 
d="M447 806v858h219v-858h-219zM666 463v-869h-219v869h219z" />
    <glyph glyph-name="section" unicode="&#xa7;" horiz-adv-x="1138" 
d="M383 624q0 -21 13 -43.5t35.5 -46.5t54.5 -50l67 -52q86 7 130.5 40.5t44.5 94.5q0 19 -9 38t-29 41t-54.5 47t-84.5 56q-87 -6 -127.5 -38t-40.5 -87zM901 1213q-29 15 -67 32q-37 18 -81 32.5t-93.5 24t-103.5 9.5q-45 0 -77 -9.5t-51.5 -24t-28.5 -32.5t-9 -33
q0 -27 18.5 -53t56 -56.5t95.5 -67.5l136 -84q79 -49 136.5 -93.5t94 -88t54 -89.5t17.5 -98q0 -48 -10.5 -95t-34.5 -89t-61.5 -78t-89.5 -62q48 -38 85 -76t61.5 -80.5t37 -90.5t12.5 -108q0 -83 -35 -154t-96 -124t-143.5 -83.5t-177.5 -30.5q-70 0 -135 9.5t-122 26
t-104 38.5t-81 46l57 254q39 -32 87.5 -58t100.5 -44.5t104 -28.5t98 -10q31 0 62 9t55.5 27.5t39 48t14.5 69.5q0 34 -16 68t-49.5 70.5t-85 76.5t-122.5 86q-173 112 -254 212.5t-81 202.5q0 37 9.5 77.5t31 80.5t54.5 76.5t81 65.5q-88 69 -132 139t-44 148q0 25 9 60.5
t29.5 74t54 76t84 67t118.5 47.5t158 18q63 0 118 -7t102 -19t85.5 -27t68.5 -30z" />
    <glyph glyph-name="dieresis" unicode="&#xa8;" horiz-adv-x="873" 
d="M0 1440q0 40 13.5 73t38 57.5t57.5 38t73 13.5t73 -13.5t57.5 -38t38 -57.5t13.5 -73t-13.5 -73.5t-38 -58t-57.5 -37.5t-73 -13t-73 13t-57.5 37.5t-38 58t-13.5 73.5zM510 1440q0 40 13.5 73t38 57.5t57.5 38t72.5 13.5t73 -13.5t58 -38t38 -57.5t13.5 -73t-13.5 -73.5
t-38 -58t-58 -37.5t-73 -13t-72.5 13t-57.5 37.5t-38 58t-13.5 73.5z" />
    <glyph glyph-name="copyright" unicode="&#xa9;" horiz-adv-x="1596" 
d="M1090 389q-28 -23 -65 -41.5t-78 -32t-83.5 -21t-81.5 -7.5q-94 0 -168 32.5t-126.5 91.5t-80 144t-27.5 190q0 120 34 210.5t92 151.5t134.5 91t160.5 30q83 0 149 -18.5t131 -67.5l-41 -160q-59 47 -115 66.5t-115 19.5q-53 0 -98.5 -19t-78.5 -57.5t-51.5 -96.5
t-18.5 -135q0 -146 63.5 -228t177.5 -82q33 0 68 8.5t68.5 23t64 36t55.5 47.5zM796 1544q92 0 183.5 -21.5t175.5 -66t156 -110t125 -152.5t83.5 -196t30.5 -239q0 -133 -30.5 -242.5t-83.5 -196.5t-125 -152t-156 -108t-175.5 -64.5t-183.5 -21.5q-96 0 -188 21.5
t-175.5 64.5t-154 108t-122 152t-80.5 197t-29 242q0 130 29 239t80.5 196t122 152.5t154 110t176 66t187.5 21.5zM795.5 1377q-111.5 0 -215 -40t-183.5 -118t-128.5 -193.5t-48.5 -266.5q0 -152 48.5 -267.5t128.5 -193.5t183.5 -117.5t215 -39.5t216 39.5t185.5 117.5
t130 193.5t49 267.5q0 151 -49 266.5t-130 193.5t-185.5 118t-216 40z" />
    <glyph glyph-name="ordfeminine" unicode="&#xaa;" horiz-adv-x="842" 
d="M83 625h718v-156h-718v156zM561 1255q-15 4 -41.5 8.5t-69.5 4.5q-53 0 -88.5 -23.5t-57.5 -61.5t-31 -87.5t-9 -102.5q0 -59 22 -95.5t51 -36.5q25 0 51.5 22t51.5 56t47 76.5t38.5 84t26 77t9.5 54.5v24zM581 985q-20 -50 -52 -100.5t-71.5 -91.5t-85 -67t-94.5 -26
q-44 0 -81 19t-64.5 56t-43 91.5t-15.5 126.5q0 81 24 158t73 136.5t125.5 96t181.5 36.5q73 0 146 -8.5t131 -21.5v-314q0 -129 11.5 -216t31.5 -143h-180q-8 12 -14.5 37.5t-11 54.5t-8 57.5t-3.5 47.5v71z" />
    <glyph glyph-name="guillemotleft" unicode="&#xab;" horiz-adv-x="1358" 
d="M1051 0l-452 530l452 531h255l-385 -531l385 -530h-255zM525 0l-452 530l452 531h255l-385 -531l385 -530h-255z" />
    <glyph glyph-name="logicalnot" unicode="&#xac;" horiz-adv-x="1248" 
d="M905 354v291h-806v218h1024v-509h-218z" />
    <glyph glyph-name="sfthyphen" unicode="&#xad;" horiz-adv-x="930" 
d="M83 764h765v-218h-765v218z" />
    <glyph glyph-name="registered" unicode="&#xae;" horiz-adv-x="1606" 
d="M806 1544q93 0 184.5 -21.5t175 -66t156 -110t125.5 -152.5t83 -196t30 -239q0 -133 -30 -242.5t-83 -196.5t-125.5 -152t-156 -108t-175 -64.5t-184.5 -21.5q-97 0 -190.5 21.5t-177.5 64.5t-156 108t-124 152t-81.5 197t-29.5 242q0 130 29.5 239t81.5 196t124 152.5
t156 110t177.5 66t190.5 21.5zM806 1377q-113 0 -218.5 -40t-187.5 -118t-131 -193.5t-49 -266.5q0 -152 49 -267.5t131 -193.5t187.5 -117.5t218.5 -39.5q111 0 215.5 39.5t186 117.5t130 193.5t48.5 267.5q0 151 -48.5 266.5t-130 193.5t-186 118t-215.5 40zM647 582
q0 -91 1 -162t7 -107h-194q7 37 8 107.5t1 161.5v436q0 44 -1 81.5t-3 67.5t-5 49q49 1 101 3q45 1 99 2q55 1 109 1q71 0 130.5 -15t102.5 -47.5t66.5 -83.5t23.5 -121q0 -55 -14 -96.5t-39 -72t-59.5 -52t-74.5 -35.5l41 -60l52 -75l56 -80l53 -76l43 -60q18 -26 26 -35
h-217l-227 362h-86v-93zM649 812h94q38 0 69 7t53 23.5t34 43t12 66.5q0 68 -41.5 96.5t-122.5 28.5q-35 0 -54 -0.5t-44 -2.5v-262z" />
    <glyph glyph-name="macron" unicode="&#xaf;" horiz-adv-x="863" 
d="M0 1508h863v-218h-863v218z" />
    <glyph glyph-name="degree" unicode="&#xb0;" horiz-adv-x="743" 
d="M62 1237.5q0 65.5 24 121.5t66 97.5t99.5 64.5t123 23t121.5 -23t97 -64.5t64.5 -97.5t23.5 -121.5t-23.5 -122.5t-64.5 -99.5t-97 -66t-121.5 -23.5t-123 23.5t-99.5 66t-66 99.5t-24 122.5zM525 1238q0 32 -12 59.5t-32 48t-47.5 31.5t-59 11t-60 -11t-50 -31.5
t-34 -48t-12.5 -59.5t12.5 -60.5t34 -49.5t50 -33.5t60 -12.5t59 12.5t47.5 33.5t32 49.5t12 60.5z" />
    <glyph glyph-name="plusminus" unicode="&#xb1;" horiz-adv-x="1248" 
d="M161 385h926v-219h-926v219zM161 1056h354v364h218v-364h354v-219h-354v-348h-218v348h-354v219z" />
    <glyph glyph-name="twosuperior" unicode="&#xb2;" horiz-adv-x="873" 
d="M799 707h-714v149q50 33 103.5 73.5t106 86t100.5 94t84 96.5t57 96t21 92q0 29 -9.5 56t-30 47t-51 32.5t-71.5 12.5q-34 0 -70.5 -9t-72 -26t-67.5 -40t-56 -51l-48 163q25 29 62.5 53t82 41.5t93 27.5t94.5 10q79 0 144.5 -20t112 -57t71.5 -89.5t25 -117.5
q0 -55 -19 -109t-52 -106t-75 -100t-87.5 -91t-91.5 -81l-86 -67h192q54 0 92 0.5t66 1.5t50 3t44 5v-176z" />
    <glyph glyph-name="threesuperior" unicode="&#xb3;" horiz-adv-x="873" 
d="M355 1305q50 0 91 12.5t71 34t47 47.5t17 53q0 23 -13 41.5t-33.5 31.5t-46.5 20t-53 7q-85 0 -155.5 -23t-132.5 -81l-25 155q22 23 55 43t73.5 34.5t86 22.5t90.5 8q79 0 145 -16t113 -46.5t73 -73.5t26 -97q0 -47 -22 -88t-55.5 -73t-75 -53.5t-80.5 -29.5
q25 -4 56 -11.5t60.5 -20.5t57 -32.5t49.5 -46.5t34.5 -62t12.5 -80q0 -60 -32 -113t-88 -92.5t-132.5 -62t-166.5 -22.5q-97 0 -182 27t-142 77l26 186q29 -31 65.5 -55.5t76.5 -42t83.5 -26t87.5 -8.5q39 0 74 9.5t62.5 29t43.5 46.5t16 60q0 31 -17 58.5t-50 47.5
t-81 31.5t-110 11.5h-66v162h66z" />
    <glyph glyph-name="acute" unicode="&#xb4;" horiz-adv-x="665" 
d="M666 1664l-416 -416h-250l302 416h364z" />
    <glyph glyph-name="mu" unicode="&#xb5;" horiz-adv-x="1294" 
d="M931 0l-16 39q-8 22 -16 47t-14.5 52t-10.5 54q-33 -53 -68 -94t-70.5 -68.5t-70 -41.5t-64.5 -14q-45 0 -84 9t-75 43v-182q0 -62 1.5 -112.5t4.5 -93.5t8.5 -78.5t11.5 -69.5h-317v1238q0 50 -0.5 90.5t-2.5 78.5t-6.5 77.5t-11.5 86.5h312v-577q0 -71 9 -122t29.5 -84
t56 -48.5t87.5 -15.5q29 0 63 21t65 53.5t57 71t39 75.5v293q0 51 -0.5 92t-3 78.5t-6.5 76t-11 86.5h312v-593q0 -152 17 -266t50 -202h-275z" />
    <glyph glyph-name="paragraph" unicode="&#xb6;" horiz-adv-x="1149" 
d="M967 1368v-1368h-171v1368h-167v-1368h-171v775q-41 0 -87.5 7t-91 25t-86 46t-73 69t-50 96.5t-18.5 128.5t18.5 128.5t50.5 96.5t74.5 69.5t90 45.5t97.5 24t95 7h609v-150h-120z" />
    <glyph glyph-name="periodcentered" unicode="&#xb7;" horiz-adv-x="780" 
d="M208 738q0 40 13.5 73t38 57.5t57.5 38t73 13.5t73 -13.5t57.5 -38t38 -57.5t13.5 -73t-13.5 -73.5t-38 -58t-57.5 -37.5t-73 -13t-73 13t-57.5 37.5t-38 58t-13.5 73.5z" />
    <glyph glyph-name="cedilla" unicode="&#xb8;" horiz-adv-x="436" 
d="M213 0v-109q11 2 21.5 3.5t28.5 1.5q40 0 72 -13t54.5 -36.5t35 -56t12.5 -71.5q0 -53 -24.5 -95.5t-63.5 -72t-88.5 -45.5t-99.5 -16q-40 0 -84.5 12t-76.5 30l10 135q23 -17 56 -26.5t69 -9.5q23 0 46 5.5t40 17t28 27.5t11 38q0 33 -27.5 55.5t-66.5 22.5
q-29 0 -58 -6t-46 -15v224h151z" />
    <glyph glyph-name="onesuperior" unicode="&#xb9;" horiz-adv-x="873" 
d="M115 707v159h224v632l-204 -102l-25 175l229 123h201v-828h224v-159h-649z" />
    <glyph glyph-name="ordmasculine" unicode="&#xba;" horiz-adv-x="832" 
d="M71 625h702v-156h-702v156zM270 1049q0 -96 39 -151.5t114 -55.5q70 0 111 55.5t41 151.5q0 99 -39 153.5t-113 54.5q-71 0 -112 -54.5t-41 -153.5zM69 1049.5q0 87.5 29 154.5t78.5 112.5t115 69.5t138.5 24q75 0 139 -24t110 -69.5t71.5 -112.5t25.5 -154.5t-29 -154
t-78.5 -112.5t-115 -69t-138.5 -23q-76 0 -139.5 23t-109.5 69t-71.5 112.5t-25.5 154z" />
    <glyph glyph-name="guillemotright" unicode="&#xbb;" horiz-adv-x="1358" 
d="M52 0l385 530l-385 531h255l452 -531l-452 -530h-255zM578 0l385 530l-385 531h255l452 -531l-452 -530h-255z" />
    <glyph glyph-name="onequarter" unicode="&#xbc;" horiz-adv-x="1795" 
d="M1180 378h281v382zM265 1461l-185 -101l-28 173l213 121h172v-801h183v-156h-558v156h203v608zM1590 1664l-1115 -1716h-177l1114 1716h178zM1633 229v-229h-172v229h-443v149l420 591h195v-591h110v-149h-110z" />
    <glyph glyph-name="onehalf" unicode="&#xbd;" horiz-adv-x="1795" 
d="M1743 0h-649v146q45 32 94 71.5t96.5 83.5t91 92t76 95.5t52 94t19.5 89.5q0 29 -9 55.5t-27.5 46.5t-46 31.5t-65.5 11.5q-27 0 -56 -8.5t-58.5 -24t-57 -36t-49.5 -43.5l-42 159q23 24 55 45.5t69.5 38t77.5 26t78 9.5q71 0 131 -19.5t102 -55.5t65.5 -87.5
t23.5 -115.5q0 -54 -17.5 -107t-47.5 -104t-68.5 -98.5t-80 -89.5t-83.5 -79t-79 -66h176q49 0 83.5 0.5t60 1.5t45.5 3t40 6v-172zM265 1461l-185 -101l-28 173l213 121h172v-801h183v-156h-558v156h203v608zM1528 1664l-1115 -1716h-177l1114 1716h178z" />
    <glyph glyph-name="threequarters" unicode="&#xbe;" horiz-adv-x="1795" 
d="M1180 378h281v382zM1585 1664l-1115 -1716h-177l1114 1716h178zM303 1272q44 0 82 12.5t65.5 32.5t43 45.5t15.5 52.5q0 23 -11.5 41.5t-30.5 31t-43 19t-49 6.5q-77 0 -140.5 -21.5t-120.5 -80.5l-22 152q19 23 50 42t67 33.5t77.5 22.5t82.5 8q72 0 131.5 -15.5
t102.5 -45t67 -72.5t24 -96q0 -45 -20 -85t-51 -71.5t-68.5 -52.5t-72.5 -29q35 -6 77.5 -20.5t80 -42.5t62.5 -73t25 -111q0 -59 -29 -111t-80 -91t-121 -61t-151 -22q-88 0 -165 26.5t-129 76.5l23 182q54 -63 129.5 -96t155.5 -33q35 0 67.5 10t57 28t39 44t14.5 59
q0 31 -16 57.5t-46 46t-73.5 31t-99.5 11.5h-60v159h60zM1633 229v-229h-172v229h-443v149l420 591h195v-591h110v-149h-110z" />
    <glyph glyph-name="questiondown" unicode="&#xbf;" horiz-adv-x="1133" 
d="M733 972q0 -39 -13.5 -73t-38 -58t-57.5 -37.5t-72.5 -13.5t-73.5 13.5t-58 37.5t-37.5 58t-13.5 73q0 41 13.5 74.5t37.5 57.5t58 37t73.5 13t72.5 -13t57.5 -37t38 -57.5t13.5 -74.5zM692 608q0 -82 -11 -155t-29 -136t-40 -115.5t-45 -92.5q-21 -35 -43 -67l-40 -58
q-18 -27 -30 -50t-12 -43q0 -47 36.5 -78t112.5 -31q38 0 78.5 8.5t79.5 26t74.5 41.5t65.5 56l47 -249q-26 -25 -66.5 -49.5t-90 -44t-105.5 -32t-112 -12.5q-100 0 -177.5 25.5t-130.5 70t-80.5 105.5t-27.5 132q0 40 11 72.5t30.5 63t44.5 64t52 74.5q38 59 63.5 115.5
t41 114t21.5 118t6 126.5h276z" />
    <glyph glyph-name="Agrave" unicode="&#xc0;" horiz-adv-x="1544" 
d="M547 593h426l-214 684zM1044 369h-566l-114 -369h-310q14 31 28 65.5t29 77.5l34 97l44 129l385 1149h370l385 -1149l44 -128l35 -98l30 -77l26 -66h-304zM688 2111l302 -416h-250l-416 416h364z" />
    <glyph glyph-name="Aacute" unicode="&#xc1;" horiz-adv-x="1544" 
d="M547 593h426l-214 684zM1044 369h-566l-114 -369h-310q14 31 28 65.5t29 77.5l34 97l44 129l385 1149h370l385 -1149l44 -128l35 -98l30 -77l26 -66h-304zM1198 2111l-416 -416h-250l302 416h364z" />
    <glyph glyph-name="Acircumflex" unicode="&#xc2;" horiz-adv-x="1544" 
d="M547 593h426l-214 684zM1044 369h-566l-114 -369h-310q14 31 28 65.5t29 77.5l34 97l44 129l385 1149h370l385 -1149l44 -128l35 -98l30 -77l26 -66h-304zM969 1695l-208 239l-208 -239h-249l301 416h312l302 -416h-250z" />
    <glyph glyph-name="Atilde" unicode="&#xc3;" horiz-adv-x="1544" 
d="M547 593h426l-214 684zM1044 369h-566l-114 -369h-310q14 31 28 65.5t29 77.5l34 97l44 129l385 1149h370l385 -1149l44 -128l35 -98l30 -77l26 -66h-304zM340 1685q0 62 17 118.5t48.5 99.5t74 68.5t94.5 25.5q51 0 103.5 -16t114.5 -39l54 -20q23 -9 42.5 -15.5t37 -10
t36.5 -3.5t32.5 8t22.5 21.5t15.5 30.5t9.5 33h161q0 -67 -17.5 -124.5t-49.5 -99t-76 -65t-97 -23.5q-49 0 -92.5 13.5t-98.5 37.5q-66 27 -111.5 40t-79.5 13q-19 0 -33 -8t-23.5 -21.5t-15.5 -30.5t-8 -33h-161z" />
    <glyph glyph-name="Adieresis" unicode="&#xc4;" horiz-adv-x="1544" 
d="M547 593h426l-214 684zM1044 369h-566l-114 -369h-310q14 31 28 65.5t29 77.5l34 97l44 129l385 1149h370l385 -1149l44 -128l35 -98l30 -77l26 -66h-304zM324 1888q0 39 14 72.5t38 58t57.5 38t73 13.5t73 -13.5t57.5 -38t37.5 -58t13.5 -72.5q0 -41 -13.5 -74.5
t-37.5 -57.5t-57.5 -37t-73 -13t-73 13t-57.5 37t-38 57.5t-14 74.5zM834 1888q0 39 13.5 72.5t38 58t58 38t73 13.5t72.5 -13.5t57.5 -38t38 -58t13.5 -72.5q0 -41 -13.5 -74.5t-38 -57.5t-57.5 -37t-72.5 -13t-73 13t-58 37t-38 57.5t-13.5 74.5z" />
    <glyph glyph-name="Aring" unicode="&#xc5;" horiz-adv-x="1544" 
d="M547 593h426l-214 684zM1044 369h-566l-114 -369h-310q14 31 28 65.5t29 77.5l34 97l44 129l385 1149h370l385 -1149l44 -128l35 -98l30 -77l26 -66h-304zM509 1903q0 54 19 100.5t53.5 79t80.5 51.5t101 19q54 0 101 -19t81.5 -51.5t53.5 -79t19 -100.5
q0 -55 -19 -100.5t-53.5 -78.5t-81.5 -51.5t-101 -18.5q-55 0 -101 18.5t-80.5 51.5t-53.5 78.5t-19 100.5zM862 1903.5q0 43.5 -27.5 71t-71 27.5t-71 -27.5t-27.5 -71t27.5 -71.5t71 -28t71 28t27.5 71.5z" />
    <glyph glyph-name="AE" unicode="&#xc6;" horiz-adv-x="1904" 
d="M596 593h319v686zM1212 676v-437h163q150 0 248.5 2t160.5 14v-255h-884q3 18 5.5 43t4.5 66.5t3 104.5t2 155h-423l-172 -369h-310l38 66l42 76l50 98l64 129l561 1149h987v-239h-540v-369h462v-234h-462z" />
    <glyph glyph-name="Ccedilla" unicode="&#xc7;" horiz-adv-x="1440" 
d="M1316 146q-48 -39 -112 -70.5t-135 -54t-144 -35.5q-45 -7 -88 -10v-85q11 2 21.5 3.5t28.5 1.5q40 0 72 -13t54.5 -36.5t35 -56t12.5 -71.5q0 -53 -24.5 -95.5t-63.5 -72t-88.5 -45.5t-99.5 -16q-40 0 -84.5 12t-76.5 30l10 135q23 -17 56 -26.5t69 -9.5q23 0 46 5.5
t40 17t28 27.5t11 38q0 33 -27.5 55.5t-66.5 22.5q-29 0 -58 -6t-46 -15v203q-103 12 -191 48q-128 54 -217.5 153.5t-136.5 241t-47 316.5q0 135 26.5 246.5t74.5 201t114.5 156.5t147.5 112.5t172 67.5t187 22q72 0 135.5 -7.5t122.5 -25t114.5 -45t111.5 -67.5l-73 -250
q-100 78 -196 112t-199 34q-95 0 -176 -33.5t-140 -100t-92.5 -166t-33.5 -231.5q0 -125 29.5 -224.5t85.5 -168.5t136 -105.5t181 -36.5q58 0 118 13.5t118 39t110.5 61t95.5 78.5z" />
    <glyph glyph-name="Egrave" unicode="&#xc8;" horiz-adv-x="1260" 
d="M1037 910v-234h-569v-437h268q150 0 249.5 2t160.5 14v-255h-990q11 62 13.5 180t2.5 272v614q0 154 -2.5 272t-13.5 180h959v-239h-647v-369h569zM562 2111l301 -416h-249l-416 416h364z" />
    <glyph glyph-name="Eacute" unicode="&#xc9;" horiz-adv-x="1260" 
d="M1037 910v-234h-569v-437h268q150 0 249.5 2t160.5 14v-255h-990q11 62 13.5 180t2.5 272v614q0 154 -2.5 272t-13.5 180h959v-239h-647v-369h569zM1071 2111l-416 -416h-249l301 416h364z" />
    <glyph glyph-name="Ecircumflex" unicode="&#xca;" horiz-adv-x="1260" 
d="M1037 910v-234h-569v-437h268q150 0 249.5 2t160.5 14v-255h-990q11 62 13.5 180t2.5 272v614q0 154 -2.5 272t-13.5 180h959v-239h-647v-369h569zM842 1695l-208 239l-208 -239h-249l301 416h312l302 -416h-250z" />
    <glyph glyph-name="Edieresis" unicode="&#xcb;" horiz-adv-x="1260" 
d="M1037 910v-234h-569v-437h268q150 0 249.5 2t160.5 14v-255h-990q11 62 13.5 180t2.5 272v614q0 154 -2.5 272t-13.5 180h959v-239h-647v-369h569zM198 1888q0 39 13.5 72.5t38 58t57.5 38t72.5 13.5t73 -13.5t58 -38t38 -58t13.5 -72.5q0 -41 -13.5 -74.5t-38 -57.5
t-58 -37t-73 -13t-72.5 13t-57.5 37t-38 57.5t-13.5 74.5zM707 1888q0 39 13.5 72.5t38 58t58 38t73 13.5t72.5 -13.5t57.5 -38t38 -58t13.5 -72.5q0 -41 -13.5 -74.5t-38 -57.5t-57.5 -37t-72.5 -13t-73 13t-58 37t-38 57.5t-13.5 74.5z" />
    <glyph glyph-name="Igrave" unicode="&#xcc;" horiz-adv-x="1086" 
d="M931 1518v-213h-250v-1092h250v-213h-796v213h250v1092h-250v213h796zM468 2111l302 -416h-250l-416 416h364z" />
    <glyph glyph-name="Iacute" unicode="&#xcd;" horiz-adv-x="1086" 
d="M931 1518v-213h-250v-1092h250v-213h-796v213h250v1092h-250v213h796zM978 2111l-416 -416h-250l302 416h364z" />
    <glyph glyph-name="Icircumflex" unicode="&#xce;" horiz-adv-x="1086" 
d="M931 1518v-213h-250v-1092h250v-213h-796v213h250v1092h-250v213h796zM749 1695l-208 239l-208 -239h-250l302 416h312l301 -416h-249z" />
    <glyph glyph-name="Idieresis" unicode="&#xcf;" horiz-adv-x="1086" 
d="M931 1518v-213h-250v-1092h250v-213h-796v213h250v1092h-250v213h796zM104 1888q0 39 13.5 72.5t38 58t57.5 38t73 13.5t73 -13.5t57.5 -38t38 -58t13.5 -72.5q0 -41 -13.5 -74.5t-38 -57.5t-57.5 -37t-73 -13t-73 13t-57.5 37t-38 57.5t-13.5 74.5zM614 1888
q0 39 13.5 72.5t38 58t57.5 38t72.5 13.5t73 -13.5t58 -38t38 -58t13.5 -72.5q0 -41 -13.5 -74.5t-38 -57.5t-58 -37t-73 -13t-72.5 13t-57.5 37t-38 57.5t-13.5 74.5z" />
    <glyph glyph-name="Eth" unicode="&#xd0;" horiz-adv-x="1560" 
d="M187 888v301q0 73 -1.5 135.5t-4.5 112.5t-9 81q22 1 58 3t79 3t91 2t96 1l93 1q44 1 82 1q72 0 156.5 -10.5t170.5 -40t165.5 -82t141.5 -137t98.5 -205t36.5 -284.5q0 -155 -36 -273t-97 -204.5t-141 -145t-168 -93.5q-44 -18 -88.5 -30.5t-89.5 -19.5
q-91 -14 -171 -14h-61q-34 1 -73 1l-79 2l-78 2q-90 2 -186 5q6 31 8.5 80t4 110.5t2 133.5t0.5 149v197h-176v218h176zM484 888h354v-218h-354v-430q30 -3 79 -6.5t111 -3.5q87 0 170.5 28t148.5 90t104.5 160.5t39.5 240.5q0 155 -34 260t-94.5 169t-145 91t-185.5 27
q-22 0 -48.5 -0.5t-53.5 -1.5t-51.5 -1.5t-40.5 -1.5v-403z" />
    <glyph glyph-name="Ntilde" unicode="&#xd1;" horiz-adv-x="1606" 
d="M442 1046v-1046h-286q11 62 13.5 180t2.5 272v614q0 154 -2.5 272t-13.5 180h286l697 -1047v1047h286q-5 -31 -8.5 -76.5t-5 -103.5t-2 -126.5t-0.5 -145.5v-1066h-270zM374 1685q0 62 17.5 118.5t48.5 99.5t73.5 68.5t94.5 25.5q51 0 103.5 -16t115.5 -39l53 -21l43 -15
q19 -6 37 -9.5t36.5 -3.5t32 8t23 21.5t15.5 30.5t9 33h162q0 -67 -18 -124.5t-49.5 -99t-76 -65t-97.5 -23.5q-49 0 -92.5 13.5t-98.5 37.5q-66 27 -111.5 40t-78.5 13q-20 0 -34 -8t-23.5 -21.5t-15 -30.5t-7.5 -33h-162z" />
    <glyph glyph-name="Ograve" unicode="&#xd2;" horiz-adv-x="1560" 
d="M1440 770q0 -125 -26 -232.5t-71.5 -196t-109 -157t-139.5 -115t-161 -71t-174 -24.5q-134 0 -255 51t-212 150t-144.5 243t-53.5 331t56.5 334.5t151.5 250t219 156.5t259 54q133 0 252.5 -51t210 -149.5t144 -242.5t53.5 -331zM1144 744q0 126 -27.5 227.5t-77.5 172.5
t-118.5 108.5t-151 37.5t-152 -36t-120 -103t-79 -162.5t-28.5 -213.5q0 -126 27.5 -227t78 -172t120 -109t154.5 -38q78 0 146 34.5t119 101.5t80 162t29 217zM697 2111l301 -416h-249l-416 416h364z" />
    <glyph glyph-name="Oacute" unicode="&#xd3;" horiz-adv-x="1560" 
d="M1440 770q0 -125 -26 -232.5t-71.5 -196t-109 -157t-139.5 -115t-161 -71t-174 -24.5q-134 0 -255 51t-212 150t-144.5 243t-53.5 331t56.5 334.5t151.5 250t219 156.5t259 54q133 0 252.5 -51t210 -149.5t144 -242.5t53.5 -331zM1144 744q0 126 -27.5 227.5t-77.5 172.5
t-118.5 108.5t-151 37.5t-152 -36t-120 -103t-79 -162.5t-28.5 -213.5q0 -126 27.5 -227t78 -172t120 -109t154.5 -38q78 0 146 34.5t119 101.5t80 162t29 217zM1206 2111l-416 -416h-249l301 416h364z" />
    <glyph glyph-name="Ocircumflex" unicode="&#xd4;" horiz-adv-x="1560" 
d="M1440 770q0 -125 -26 -232.5t-71.5 -196t-109 -157t-139.5 -115t-161 -71t-174 -24.5q-134 0 -255 51t-212 150t-144.5 243t-53.5 331t56.5 334.5t151.5 250t219 156.5t259 54q133 0 252.5 -51t210 -149.5t144 -242.5t53.5 -331zM1144 744q0 126 -27.5 227.5t-77.5 172.5
t-118.5 108.5t-151 37.5t-152 -36t-120 -103t-79 -162.5t-28.5 -213.5q0 -126 27.5 -227t78 -172t120 -109t154.5 -38q78 0 146 34.5t119 101.5t80 162t29 217zM978 1695l-208 239l-208 -239h-250l302 416h312l301 -416h-249z" />
    <glyph glyph-name="Otilde" unicode="&#xd5;" horiz-adv-x="1560" 
d="M1440 770q0 -125 -26 -232.5t-71.5 -196t-109 -157t-139.5 -115t-161 -71t-174 -24.5q-134 0 -255 51t-212 150t-144.5 243t-53.5 331t56.5 334.5t151.5 250t219 156.5t259 54q133 0 252.5 -51t210 -149.5t144 -242.5t53.5 -331zM1144 744q0 126 -27.5 227.5t-77.5 172.5
t-118.5 108.5t-151 37.5t-152 -36t-120 -103t-79 -162.5t-28.5 -213.5q0 -126 27.5 -227t78 -172t120 -109t154.5 -38q78 0 146 34.5t119 101.5t80 162t29 217zM348 1685q0 62 17.5 118.5t48.5 99.5t73.5 68.5t94.5 25.5q51 0 103.5 -16t115.5 -39q30 -12 53 -20l43 -15
q19 -7 37 -10.5t36.5 -3.5t32 8t23 21.5t15.5 30.5t9 33h162q0 -67 -18 -124.5t-49.5 -99t-76 -65t-97.5 -23.5q-49 0 -92.5 13.5t-98.5 37.5q-66 27 -111.5 40t-78.5 13q-20 0 -34 -8t-23.5 -21.5t-15 -30.5t-7.5 -33h-162z" />
    <glyph glyph-name="Odieresis" unicode="&#xd6;" horiz-adv-x="1560" 
d="M1440 770q0 -125 -26 -232.5t-71.5 -196t-109 -157t-139.5 -115t-161 -71t-174 -24.5q-134 0 -255 51t-212 150t-144.5 243t-53.5 331t56.5 334.5t151.5 250t219 156.5t259 54q133 0 252.5 -51t210 -149.5t144 -242.5t53.5 -331zM1144 744q0 126 -27.5 227.5t-77.5 172.5
t-118.5 108.5t-151 37.5t-152 -36t-120 -103t-79 -162.5t-28.5 -213.5q0 -126 27.5 -227t78 -172t120 -109t154.5 -38q78 0 146 34.5t119 101.5t80 162t29 217zM333 1888q0 39 13.5 72.5t38 58t57.5 38t72.5 13.5t73 -13.5t58 -38t38 -58t13.5 -72.5q0 -41 -13.5 -74.5
t-38 -57.5t-58 -37t-73 -13t-72.5 13t-57.5 37t-38 57.5t-13.5 74.5zM842 1888q0 39 13.5 72.5t38 58t58 38t73 13.5t72.5 -13.5t57.5 -38t38 -58t13.5 -72.5q0 -41 -13.5 -74.5t-38 -57.5t-57.5 -37t-72.5 -13t-73 13t-58 37t-38 57.5t-13.5 74.5z" />
    <glyph glyph-name="multiply" unicode="&#xd7;" horiz-adv-x="1248" 
d="M358 1184l267 -269l265 265l154 -154l-265 -265l266 -265l-155 -155l-265 266l-264 -264l-154 154l264 264l-268 269z" />
    <glyph glyph-name="Oslash" unicode="&#xd8;" horiz-adv-x="1560" 
d="M1144 744q0 105 -19 191.5t-54 154.5l-458 -822q70 -39 157 -39q78 0 146 34.5t119 101.5t80 162t29 217zM390 775q0 -104 19 -191t55 -156l458 823q-70 39 -152.5 39t-152 -36t-120 -103t-79 -162.5t-28.5 -213.5zM1440 770q0 -125 -26 -232.5t-71.5 -196t-109 -157
t-139.5 -115t-161 -71t-174 -24.5q-147 0 -276 60l-66 -117h-239l133 238q-101 99 -159 247.5t-58 346.5q0 187 56.5 334.5t151.5 250t219 156.5t259 54q144 0 272 -60l62 110h239l-129 -231q99 -99 157.5 -247.5t58.5 -345.5z" />
    <glyph glyph-name="Ugrave" unicode="&#xd9;" horiz-adv-x="1549" 
d="M1368 1518q-11 -62 -13.5 -176t-2.5 -276v-530q0 -127 -37 -230.5t-111 -177.5t-183.5 -114t-256.5 -40t-258.5 40t-185.5 114t-111 177.5t-37 230.5v530q0 154 -3 272t-13 180h312v-936q0 -84 14 -152.5t48 -117t91 -74.5t143 -26q85 0 141 26t90 74.5t47.5 117
t13.5 152.5v936h312zM688 2111l302 -416h-250l-416 416h364z" />
    <glyph glyph-name="Uacute" unicode="&#xda;" horiz-adv-x="1549" 
d="M1368 1518q-11 -62 -13.5 -176t-2.5 -276v-530q0 -127 -37 -230.5t-111 -177.5t-183.5 -114t-256.5 -40t-258.5 40t-185.5 114t-111 177.5t-37 230.5v530q0 154 -3 272t-13 180h312v-936q0 -84 14 -152.5t48 -117t91 -74.5t143 -26q85 0 141 26t90 74.5t47.5 117
t13.5 152.5v936h312zM1198 2111l-416 -416h-250l302 416h364z" />
    <glyph glyph-name="Ucircumflex" unicode="&#xdb;" horiz-adv-x="1549" 
d="M1368 1518q-11 -62 -13.5 -176t-2.5 -276v-530q0 -127 -37 -230.5t-111 -177.5t-183.5 -114t-256.5 -40t-258.5 40t-185.5 114t-111 177.5t-37 230.5v530q0 154 -3 272t-13 180h312v-936q0 -84 14 -152.5t48 -117t91 -74.5t143 -26q85 0 141 26t90 74.5t47.5 117
t13.5 152.5v936h312zM969 1695l-208 239l-208 -239h-249l301 416h312l302 -416h-250z" />
    <glyph glyph-name="Udieresis" unicode="&#xdc;" horiz-adv-x="1549" 
d="M1368 1518q-11 -62 -13.5 -176t-2.5 -276v-530q0 -127 -37 -230.5t-111 -177.5t-183.5 -114t-256.5 -40t-258.5 40t-185.5 114t-111 177.5t-37 230.5v530q0 154 -3 272t-13 180h312v-936q0 -84 14 -152.5t48 -117t91 -74.5t143 -26q85 0 141 26t90 74.5t47.5 117
t13.5 152.5v936h312zM324 1888q0 39 14 72.5t38 58t57.5 38t73 13.5t73 -13.5t57.5 -38t37.5 -58t13.5 -72.5q0 -41 -13.5 -74.5t-37.5 -57.5t-57.5 -37t-73 -13t-73 13t-57.5 37t-38 57.5t-14 74.5zM834 1888q0 39 13.5 72.5t38 58t58 38t73 13.5t72.5 -13.5t57.5 -38
t38 -58t13.5 -72.5q0 -41 -13.5 -74.5t-38 -57.5t-57.5 -37t-72.5 -13t-73 13t-58 37t-38 57.5t-13.5 74.5z" />
    <glyph glyph-name="Yacute" unicode="&#xdd;" horiz-adv-x="1418" 
d="M371 1518l334 -618l332 618h335l-81 -118l-65 -102l-57 -94l-57 -96l-264 -447v-209q0 -153 2 -271.5t13 -180.5h-327q11 62 13 180.5t2 271.5v210l-260 446l-59 100l-60 98l-66 102q-36 52 -80 110h345zM1136 2111l-416 -416h-250l302 416h364z" />
    <glyph glyph-name="Thorn" unicode="&#xde;" horiz-adv-x="1326" 
d="M468 1314q55 0 109.5 1t106.5 1q126 0 230 -30.5t178 -90t115 -149t41 -209.5t-41.5 -216t-117 -162.5t-181.5 -102.5t-234 -36q-57 0 -106 3t-100 8q0 -77 0.5 -127t2 -85.5t4.5 -62t9 -56.5h-328q11 62 13.5 180t2.5 272v736q0 72 -2 133.5t-5 111t-9 80.5h312v-199z
M468 556q33 -5 79.5 -7.5t95.5 -2.5q152 0 230.5 69.5t78.5 211.5q0 56 -17 103.5t-54 80.5t-94.5 52t-139.5 19q-30 0 -54 -0.5t-44.5 -1t-39.5 -2t-41 -2.5v-520z" />
    <glyph glyph-name="germandbls" unicode="&#xdf;" horiz-adv-x="1477" 
d="M696 305q22 -19 51.5 -36.5t64.5 -30.5t71.5 -21.5t73.5 -8.5q38 0 70.5 8.5t56.5 24t37.5 38.5t13.5 53q0 44 -23 77.5t-60 61t-83.5 53t-91.5 54.5q-38 24 -72 52t-60.5 64t-42.5 81.5t-16 103.5q0 63 24.5 108t60.5 77.5t78.5 58.5t78.5 52t60.5 57t24.5 72
q0 32 -21 60t-53.5 47.5t-72 30.5t-78.5 11q-75 0 -132.5 -20t-97 -55.5t-60 -84.5t-20.5 -107v-1186h-322q8 41 14.5 98t10 124t5 141.5t1.5 150.5v651q0 140 49 239t129 161.5t183 91t211 28.5q133 0 233 -31.5t167 -83.5t101 -118.5t34 -136.5q0 -75 -24 -125t-60.5 -84
t-78.5 -57t-78.5 -45t-60.5 -48.5t-24 -66.5q0 -36 17.5 -64t46.5 -51.5t66 -45.5l76 -45q44 -26 87 -56t77.5 -70t55.5 -92.5t21 -123.5q0 -86 -34 -154t-95.5 -115.5t-146 -72.5t-185.5 -25q-43 0 -88 8.5t-87.5 21.5t-77 30.5t-57.5 36.5z" />
    <glyph glyph-name="agrave" unicode="&#xe0;" 
d="M801 494q-16 0 -44.5 -2t-60.5 -5t-63 -7l-51 -5q-54 -6 -89.5 -19t-57.5 -31.5t-31 -42t-9 -49.5q0 -25 10.5 -47t29 -38t45 -25.5t59 -9.5t63 5.5t62.5 22t65.5 47t71.5 81.5v125zM884 0l-25 59q-16 38 -27 81q-88 -88 -183 -127t-186 -39q-78 0 -144 26.5t-113.5 70.5
t-74.5 102.5t-27 122.5q0 60 20 121t67.5 112.5t127.5 89t201 49.5q27 3 68 6l83 6q42 2 78 4t52 2v52q0 59 -66.5 85t-183.5 26q-83 0 -164.5 -33t-173.5 -97q0 16 1 48.5t2 71t4 78.5l4 71l90 34q46 17 96.5 30t107 21.5t122.5 8.5q102 0 185.5 -22.5t143 -61.5t91.5 -92
t32 -116v-405q0 -113 20 -205.5t53 -179.5h-281zM562 1664l301 -416h-249l-416 416h364z" />
    <glyph glyph-name="aacute" unicode="&#xe1;" 
d="M801 494q-16 0 -44.5 -2t-60.5 -5t-63 -7l-51 -5q-54 -6 -89.5 -19t-57.5 -31.5t-31 -42t-9 -49.5q0 -25 10.5 -47t29 -38t45 -25.5t59 -9.5t63 5.5t62.5 22t65.5 47t71.5 81.5v125zM884 0l-25 59q-16 38 -27 81q-88 -88 -183 -127t-186 -39q-78 0 -144 26.5t-113.5 70.5
t-74.5 102.5t-27 122.5q0 60 20 121t67.5 112.5t127.5 89t201 49.5q27 3 68 6l83 6q42 2 78 4t52 2v52q0 59 -66.5 85t-183.5 26q-83 0 -164.5 -33t-173.5 -97q0 16 1 48.5t2 71t4 78.5l4 71l90 34q46 17 96.5 30t107 21.5t122.5 8.5q102 0 185.5 -22.5t143 -61.5t91.5 -92
t32 -116v-405q0 -113 20 -205.5t53 -179.5h-281zM1071 1664l-416 -416h-249l301 416h364z" />
    <glyph glyph-name="acircumflex" unicode="&#xe2;" 
d="M801 494q-16 0 -44.5 -2t-60.5 -5t-63 -7l-51 -5q-54 -6 -89.5 -19t-57.5 -31.5t-31 -42t-9 -49.5q0 -25 10.5 -47t29 -38t45 -25.5t59 -9.5t63 5.5t62.5 22t65.5 47t71.5 81.5v125zM884 0l-25 59q-16 38 -27 81q-88 -88 -183 -127t-186 -39q-78 0 -144 26.5t-113.5 70.5
t-74.5 102.5t-27 122.5q0 60 20 121t67.5 112.5t127.5 89t201 49.5q27 3 68 6l83 6q42 2 78 4t52 2v52q0 59 -66.5 85t-183.5 26q-83 0 -164.5 -33t-173.5 -97q0 16 1 48.5t2 71t4 78.5l4 71l90 34q46 17 96.5 30t107 21.5t122.5 8.5q102 0 185.5 -22.5t143 -61.5t91.5 -92
t32 -116v-405q0 -113 20 -205.5t53 -179.5h-281zM842 1248l-208 239l-208 -239h-249l301 416h312l302 -416h-250z" />
    <glyph glyph-name="atilde" unicode="&#xe3;" 
d="M801 494q-16 0 -44.5 -2t-60.5 -5t-63 -7l-51 -5q-54 -6 -89.5 -19t-57.5 -31.5t-31 -42t-9 -49.5q0 -25 10.5 -47t29 -38t45 -25.5t59 -9.5t63 5.5t62.5 22t65.5 47t71.5 81.5v125zM884 0l-25 59q-16 38 -27 81q-88 -88 -183 -127t-186 -39q-78 0 -144 26.5t-113.5 70.5
t-74.5 102.5t-27 122.5q0 60 20 121t67.5 112.5t127.5 89t201 49.5q27 3 68 6l83 6q42 2 78 4t52 2v52q0 59 -66.5 85t-183.5 26q-83 0 -164.5 -33t-173.5 -97q0 16 1 48.5t2 71t4 78.5l4 71l90 34q46 17 96.5 30t107 21.5t122.5 8.5q102 0 185.5 -22.5t143 -61.5t91.5 -92
t32 -116v-405q0 -113 20 -205.5t53 -179.5h-281zM213 1238q0 62 17.5 118t48.5 99.5t73.5 69t94.5 25.5q51 0 103.5 -16.5t115.5 -39.5l53 -20q24 -9 43 -15t36.5 -9.5t36.5 -3.5t32.5 8t23 21.5t15.5 30.5t9 33h161q0 -67 -17.5 -124.5t-49 -99t-76 -65t-97.5 -23.5
q-49 0 -92.5 13.5t-98.5 37.5q-66 27 -111.5 40t-79.5 13q-19 0 -33 -8t-23.5 -21.5t-15.5 -30.5t-8 -33h-161z" />
    <glyph glyph-name="adieresis" unicode="&#xe4;" 
d="M801 494q-16 0 -44.5 -2t-60.5 -5t-63 -7l-51 -5q-54 -6 -89.5 -19t-57.5 -31.5t-31 -42t-9 -49.5q0 -25 10.5 -47t29 -38t45 -25.5t59 -9.5t63 5.5t62.5 22t65.5 47t71.5 81.5v125zM884 0l-25 59q-16 38 -27 81q-88 -88 -183 -127t-186 -39q-78 0 -144 26.5t-113.5 70.5
t-74.5 102.5t-27 122.5q0 60 20 121t67.5 112.5t127.5 89t201 49.5q27 3 68 6l83 6q42 2 78 4t52 2v52q0 59 -66.5 85t-183.5 26q-83 0 -164.5 -33t-173.5 -97q0 16 1 48.5t2 71t4 78.5l4 71l90 34q46 17 96.5 30t107 21.5t122.5 8.5q102 0 185.5 -22.5t143 -61.5t91.5 -92
t32 -116v-405q0 -113 20 -205.5t53 -179.5h-281zM198 1440q0 40 13.5 73t38 57.5t57.5 38t72.5 13.5t73 -13.5t58 -38t38 -57.5t13.5 -73t-13.5 -73.5t-38 -58t-58 -37.5t-73 -13t-72.5 13t-57.5 37.5t-38 58t-13.5 73.5zM707 1440q0 40 13.5 73t38 57.5t58 38t73 13.5
t72.5 -13.5t57.5 -38t38 -57.5t13.5 -73t-13.5 -73.5t-38 -58t-57.5 -37.5t-72.5 -13t-73 13t-58 37.5t-38 58t-13.5 73.5z" />
    <glyph glyph-name="aring" unicode="&#xe5;" 
d="M801 494q-16 0 -44.5 -2t-60.5 -5t-63 -7l-51 -5q-54 -6 -89.5 -19t-57.5 -31.5t-31 -42t-9 -49.5q0 -25 10.5 -47t29 -38t45 -25.5t59 -9.5t63 5.5t62.5 22t65.5 47t71.5 81.5v125zM884 0l-25 59q-16 38 -27 81q-88 -88 -183 -127t-186 -39q-78 0 -144 26.5t-113.5 70.5
t-74.5 102.5t-27 122.5q0 60 20 121t67.5 112.5t127.5 89t201 49.5q27 3 68 6l83 6q42 2 78 4t52 2v52q0 59 -66.5 85t-183.5 26q-83 0 -164.5 -33t-173.5 -97q0 16 1 48.5t2 71t4 78.5l4 71l90 34q46 17 96.5 30t107 21.5t122.5 8.5q102 0 185.5 -22.5t143 -61.5t91.5 -92
t32 -116v-405q0 -113 20 -205.5t53 -179.5h-281zM382 1456q0 54 19 100.5t53.5 79t80.5 51.5t101 19t101.5 -19t81 -51.5t53.5 -79t19 -100.5q0 -55 -19 -101t-53.5 -78.5t-81 -51.5t-101.5 -19t-101 19t-80.5 51.5t-53.5 78.5t-19 101zM735 1456q0 44 -27.5 71.5t-71 27.5
t-71 -27.5t-27.5 -71.5t27.5 -71.5t71 -27.5t71 27.5t27.5 71.5z" />
    <glyph glyph-name="ae" unicode="&#xe6;" horiz-adv-x="1849" 
d="M1480 655q0 110 -47.5 159t-139.5 49q-91 0 -143.5 -48.5t-69.5 -159.5h400zM789 478q-16 -1 -45 -2l-58 -4l-58 -4q-28 -2 -46 -4q-54 -6 -89.5 -17.5t-57.5 -28.5t-31 -38t-9 -47q0 -25 10.5 -47t29 -38t45 -25.5t59.5 -9.5q29 0 58 5t58.5 19t61 39t64.5 66
q5 7 11 13.5t11 14.5q-6 30 -9.5 57t-4.5 51zM1750 78q-56 -28 -109.5 -48t-107 -32.5t-109.5 -18t-117 -5.5q-131 0 -243.5 53t-184.5 160q-10 -11 -24.5 -24.5t-22.5 -22.5q-184 -166 -369 -166q-78 0 -144 26.5t-113.5 70.5t-74.5 102.5t-27 122.5q0 60 20 119.5
t67.5 109.5t127.5 85.5t201 45.5l68 5q41 3 83 5t78 3.5t52 2.5v66q0 59 -66.5 85t-183.5 26q-83 0 -164.5 -33t-173.5 -97q0 16 1 48.5t2 71t3 78.5l5 71l90 34q46 17 96.5 30t107 21.5t122.5 8.5q109 0 194 -35t145 -95q65 62 147 96t181 34q88 0 154 -21.5t114.5 -58.5
t81 -87.5t52 -109t28 -123t8.5 -129.5v-85h-672q11 -135 77 -195t183 -60q103 0 200.5 23.5t194.5 81.5z" />
    <glyph glyph-name="ccedilla" unicode="&#xe7;" horiz-adv-x="1062" 
d="M913 746q-35 24 -67 42t-63.5 30t-66 18t-74.5 6q-54 0 -101 -21.5t-82 -63t-54.5 -101.5t-19.5 -136q0 -69 18 -125.5t51.5 -96.5t81 -62.5t106.5 -22.5q46 0 86 8t75 22.5t68 35.5t67 48l31 -254q-39 -24 -79.5 -43t-85.5 -31.5t-95 -18.5q-33 -4 -69 -5v-84
q10 2 21 3.5t29 1.5q39 0 71.5 -13t54.5 -36.5t34.5 -56t12.5 -71.5q0 -53 -24.5 -95.5t-63.5 -72t-88 -45.5t-99 -16q-41 0 -85 12t-77 30l11 135q23 -17 55.5 -26.5t69.5 -9.5q22 0 45 5.5t40.5 17t28 27.5t10.5 38q0 33 -27.5 55.5t-65.5 22.5q-29 0 -58.5 -6t-45.5 -15
v209q-44 9 -85 24q-93 36 -161.5 104.5t-108.5 168.5t-40 228q0 121 38.5 225.5t109 181.5t171 121t223.5 44q104 0 185 -22t138 -52z" />
    <glyph glyph-name="egrave" unicode="&#xe8;" horiz-adv-x="1154" 
d="M379 468q10 -135 76 -195t184 -60q103 0 200 23.5t195 81.5l22 -240q-57 -28 -110.5 -48t-107 -32.5t-109.5 -18t-116 -5.5q-103 0 -197.5 35t-166 103t-113.5 169t-42 234q0 129 35.5 233.5t103.5 179t163.5 114.5t216.5 40q87 0 153 -21.5t114.5 -58.5t81 -87.5
t52 -109t27.5 -123t8 -129.5v-18q0 -12 0.5 -24.5t0.5 -23.5v-19h-671zM598 863q-90 0 -143 -48.5t-70 -159.5h400q0 110 -47 159t-140 49zM486 1664l301 -416h-249l-416 416h364z" />
    <glyph glyph-name="eacute" unicode="&#xe9;" horiz-adv-x="1154" 
d="M379 468q10 -135 76 -195t184 -60q103 0 200 23.5t195 81.5l22 -240q-57 -28 -110.5 -48t-107 -32.5t-109.5 -18t-116 -5.5q-103 0 -197.5 35t-166 103t-113.5 169t-42 234q0 129 35.5 233.5t103.5 179t163.5 114.5t216.5 40q87 0 153 -21.5t114.5 -58.5t81 -87.5
t52 -109t27.5 -123t8 -129.5v-18q0 -12 0.5 -24.5t0.5 -23.5v-19h-671zM598 863q-90 0 -143 -48.5t-70 -159.5h400q0 110 -47 159t-140 49zM995 1664l-416 -416h-249l301 416h364z" />
    <glyph glyph-name="ecircumflex" unicode="&#xea;" horiz-adv-x="1154" 
d="M379 468q10 -135 76 -195t184 -60q103 0 200 23.5t195 81.5l22 -240q-57 -28 -110.5 -48t-107 -32.5t-109.5 -18t-116 -5.5q-103 0 -197.5 35t-166 103t-113.5 169t-42 234q0 129 35.5 233.5t103.5 179t163.5 114.5t216.5 40q87 0 153 -21.5t114.5 -58.5t81 -87.5
t52 -109t27.5 -123t8 -129.5v-18q0 -12 0.5 -24.5t0.5 -23.5v-19h-671zM598 863q-90 0 -143 -48.5t-70 -159.5h400q0 110 -47 159t-140 49zM766 1248l-208 239l-208 -239h-249l301 416h312l302 -416h-250z" />
    <glyph glyph-name="edieresis" unicode="&#xeb;" horiz-adv-x="1154" 
d="M379 468q10 -135 76 -195t184 -60q103 0 200 23.5t195 81.5l22 -240q-57 -28 -110.5 -48t-107 -32.5t-109.5 -18t-116 -5.5q-103 0 -197.5 35t-166 103t-113.5 169t-42 234q0 129 35.5 233.5t103.5 179t163.5 114.5t216.5 40q87 0 153 -21.5t114.5 -58.5t81 -87.5
t52 -109t27.5 -123t8 -129.5v-18q0 -12 0.5 -24.5t0.5 -23.5v-19h-671zM598 863q-90 0 -143 -48.5t-70 -159.5h400q0 110 -47 159t-140 49zM122 1440q0 40 13.5 73t38 57.5t57.5 38t72.5 13.5t73 -13.5t58 -38t38 -57.5t13.5 -73t-13.5 -73.5t-38 -58t-58 -37.5t-73 -13
t-72.5 13t-57.5 37.5t-38 58t-13.5 73.5zM631 1440q0 40 13.5 73t38 57.5t58 38t73 13.5t72.5 -13.5t57.5 -38t38 -57.5t13.5 -73t-13.5 -73.5t-38 -58t-57.5 -37.5t-72.5 -13t-73 13t-58 37.5t-38 58t-13.5 73.5z" />
    <glyph glyph-name="igrave" unicode="&#xec;" horiz-adv-x="670" 
d="M478 1061v-567q0 -50 2 -118t4.5 -138t6 -133t8.5 -105h-312v551q0 76 -0.5 150t-2 140t-4.5 122.5t-8 97.5h306zM260 1664l302 -416h-250l-416 416h364z" />
    <glyph glyph-name="iacute" unicode="&#xed;" horiz-adv-x="670" 
d="M478 1061v-567q0 -50 2 -118t4.5 -138t6 -133t8.5 -105h-312v551q0 76 -0.5 150t-2 140t-4.5 122.5t-8 97.5h306zM770 1664l-416 -416h-250l302 416h364z" />
    <glyph glyph-name="icircumflex" unicode="&#xee;" horiz-adv-x="670" 
d="M478 1061v-567q0 -50 2 -118t4.5 -138t6 -133t8.5 -105h-312v551q0 76 -0.5 150t-2 140t-4.5 122.5t-8 97.5h306zM541 1248l-208 239l-208 -239h-250l302 416h312l301 -416h-249z" />
    <glyph glyph-name="idieresis" unicode="&#xef;" horiz-adv-x="670" 
d="M478 1061v-567q0 -50 2 -118t4.5 -138t6 -133t8.5 -105h-312v551q0 76 -0.5 150t-2 140t-4.5 122.5t-8 97.5h306zM-104 1440q0 40 13.5 73t38 57.5t57.5 38t73 13.5t73 -13.5t57.5 -38t38 -57.5t13.5 -73t-13.5 -73.5t-38 -58t-57.5 -37.5t-73 -13t-73 13t-57.5 37.5
t-38 58t-13.5 73.5zM406 1440q0 40 13.5 73t38 57.5t57.5 38t72.5 13.5t73 -13.5t58 -38t38 -57.5t13.5 -73t-13.5 -73.5t-38 -58t-58 -37.5t-73 -13t-72.5 13t-57.5 37.5t-38 58t-13.5 73.5z" />
    <glyph glyph-name="eth" unicode="&#xf0;" horiz-adv-x="1209" 
d="M386 506q0 -73 15.5 -130.5t44 -96.5t68.5 -59.5t88 -20.5q51 0 92 21.5t69 62t43.5 97.5t15.5 126q0 73 -16.5 130.5t-45 96.5t-69 59.5t-89.5 20.5q-51 0 -91 -21.5t-68 -61.5t-42.5 -97t-14.5 -127zM844 1380q59 -78 107.5 -167t84.5 -184.5t56 -196.5t20 -202
q0 -164 -35.5 -287.5t-102.5 -205t-164 -122.5t-218 -41q-110 0 -202 34.5t-158 101.5t-102 166.5t-36 229.5q0 126 42.5 225.5t108.5 168t146 104.5t155 36q95 0 159 -35t118 -102q-27 89 -73.5 178.5t-105.5 172.5l-219 -135l-114 154l209 129q-60 62 -124 111.5
t-128 79.5l254 92q50 -30 100 -70t98 -89l205 127l121 -148z" />
    <glyph glyph-name="ntilde" unicode="&#xf1;" horiz-adv-x="1294" 
d="M874 0v572q0 72 -9.5 121t-29.5 78.5t-50.5 42.5t-72.5 13q-44 0 -87 -20t-79 -52t-63 -71.5t-41 -80.5v-603h-291v640q0 154 -17.5 260.5t-34.5 160.5h286q6 -16 12.5 -41.5t11.5 -53t9 -54.5l8 -44q50 57 98 97.5t97 66.5t100 38t106 12q79 0 142 -27t106.5 -81.5
t66.5 -135.5t23 -188v-650h-291zM224 1238q0 62 17 118t48 99.5t74 69t95 25.5q51 0 103.5 -16.5t114.5 -39.5l53 -20q24 -9 43 -15t37 -9.5t36.5 -3.5t32 8t23 21.5t15.5 30.5t10 33h161q0 -67 -18 -124.5t-49.5 -99t-75.5 -65t-97 -23.5q-49 0 -93 13.5t-99 37.5
q-65 27 -111 40t-79 13q-20 0 -34 -8t-23.5 -21.5t-15 -30.5t-7.5 -33h-161z" />
    <glyph glyph-name="ograve" unicode="&#xf2;" horiz-adv-x="1206" 
d="M385 527q0 -75 14 -133.5t41.5 -100t68.5 -63.5t94 -22q50 0 90.5 22t69 63.5t44 100t15.5 133.5q0 150 -56 235.5t-163 85.5q-50 0 -90.5 -22t-69 -63.5t-43.5 -101t-15 -134.5zM94 527q0 134 41.5 237.5t112.5 174t166 107t200 36.5q110 0 202 -36.5t158 -107
t102.5 -174t36.5 -237.5t-41.5 -237.5t-113 -173.5t-166 -106t-199.5 -36q-110 0 -201.5 36t-158 106t-103 173.5t-36.5 237.5zM530 1664l302 -416h-250l-416 416h364z" />
    <glyph glyph-name="oacute" unicode="&#xf3;" horiz-adv-x="1206" 
d="M385 527q0 -75 14 -133.5t41.5 -100t68.5 -63.5t94 -22q50 0 90.5 22t69 63.5t44 100t15.5 133.5q0 150 -56 235.5t-163 85.5q-50 0 -90.5 -22t-69 -63.5t-43.5 -101t-15 -134.5zM94 527q0 134 41.5 237.5t112.5 174t166 107t200 36.5q110 0 202 -36.5t158 -107
t102.5 -174t36.5 -237.5t-41.5 -237.5t-113 -173.5t-166 -106t-199.5 -36q-110 0 -201.5 36t-158 106t-103 173.5t-36.5 237.5zM1040 1664l-416 -416h-250l302 416h364z" />
    <glyph glyph-name="ocircumflex" unicode="&#xf4;" horiz-adv-x="1206" 
d="M385 527q0 -75 14 -133.5t41.5 -100t68.5 -63.5t94 -22q50 0 90.5 22t69 63.5t44 100t15.5 133.5q0 150 -56 235.5t-163 85.5q-50 0 -90.5 -22t-69 -63.5t-43.5 -101t-15 -134.5zM94 527q0 134 41.5 237.5t112.5 174t166 107t200 36.5q110 0 202 -36.5t158 -107
t102.5 -174t36.5 -237.5t-41.5 -237.5t-113 -173.5t-166 -106t-199.5 -36q-110 0 -201.5 36t-158 106t-103 173.5t-36.5 237.5zM811 1248l-208 239l-208 -239h-249l301 416h312l302 -416h-250z" />
    <glyph glyph-name="otilde" unicode="&#xf5;" horiz-adv-x="1206" 
d="M385 527q0 -75 14 -133.5t41.5 -100t68.5 -63.5t94 -22q50 0 90.5 22t69 63.5t44 100t15.5 133.5q0 150 -56 235.5t-163 85.5q-50 0 -90.5 -22t-69 -63.5t-43.5 -101t-15 -134.5zM94 527q0 134 41.5 237.5t112.5 174t166 107t200 36.5q110 0 202 -36.5t158 -107
t102.5 -174t36.5 -237.5t-41.5 -237.5t-113 -173.5t-166 -106t-199.5 -36q-110 0 -201.5 36t-158 106t-103 173.5t-36.5 237.5zM182 1238q0 62 17 118t48.5 99.5t74 69t94.5 25.5q51 0 103.5 -16.5t114.5 -39.5q31 -11 54 -20t42.5 -15t37 -9.5t36.5 -3.5t32.5 8t22.5 21.5
t15.5 30.5t9.5 33h161q0 -67 -17.5 -124.5t-49.5 -99t-76 -65t-97 -23.5q-49 0 -92.5 13.5t-98.5 37.5q-66 27 -111.5 40t-79.5 13q-19 0 -33.5 -8t-23.5 -21.5t-15 -30.5t-8 -33h-161z" />
    <glyph glyph-name="odieresis" unicode="&#xf6;" horiz-adv-x="1206" 
d="M385 527q0 -75 14 -133.5t41.5 -100t68.5 -63.5t94 -22q50 0 90.5 22t69 63.5t44 100t15.5 133.5q0 150 -56 235.5t-163 85.5q-50 0 -90.5 -22t-69 -63.5t-43.5 -101t-15 -134.5zM94 527q0 134 41.5 237.5t112.5 174t166 107t200 36.5q110 0 202 -36.5t158 -107
t102.5 -174t36.5 -237.5t-41.5 -237.5t-113 -173.5t-166 -106t-199.5 -36q-110 0 -201.5 36t-158 106t-103 173.5t-36.5 237.5zM166 1440q0 40 13.5 73t38 57.5t58 38t73 13.5t72.5 -13.5t57.5 -38t38 -57.5t13.5 -73t-13.5 -73.5t-38 -58t-57.5 -37.5t-72.5 -13t-73 13
t-58 37.5t-38 58t-13.5 73.5zM676 1440q0 40 13.5 73t38 57.5t57.5 38t73 13.5t73 -13.5t57.5 -38t38 -57.5t13.5 -73t-13.5 -73.5t-38 -58t-57.5 -37.5t-73 -13t-73 13t-57.5 37.5t-38 58t-13.5 73.5z" />
    <glyph glyph-name="divide" unicode="&#xf7;" horiz-adv-x="1248" 
d="M442 1186q0 39 13.5 72.5t38 58t57.5 38t73 13.5t73 -13.5t57.5 -38t38 -58t13.5 -72.5q0 -41 -13.5 -74.5t-38 -57.5t-57.5 -37t-73 -13t-73 13t-57.5 37t-38 57.5t-13.5 74.5zM442 343q0 40 13.5 73t38 57.5t57.5 38t73 13.5t73 -13.5t57.5 -38t38 -57.5t13.5 -73
t-13.5 -73.5t-38 -58t-57.5 -37.5t-73 -13t-73 13t-57.5 37.5t-38 58t-13.5 73.5zM161 874h926v-219h-926v219z" />
    <glyph glyph-name="oslash" unicode="&#xf8;" horiz-adv-x="1206" 
d="M380 527q0 -94 24 -164l256 477q-13 3 -27 5.5t-30 2.5q-50 0 -91.5 -22t-70.5 -63.5t-45 -101t-16 -134.5zM827 527q0 98 -25 169l-259 -481q26 -7 60 -7q50 0 91.5 22t71 63.5t45.5 100t16 133.5zM1047 1151l-101 -187q78 -71 122.5 -180t44.5 -257
q0 -134 -41.5 -237.5t-113 -173.5t-166 -106t-199.5 -36q-92 0 -168 25l-41 -78h-219l93 172q-78 69 -121 178t-43 256q0 134 41.5 237.5t112.5 174t166 107t200 36.5q86 0 164 -24l51 93h218z" />
    <glyph glyph-name="ugrave" unicode="&#xf9;" horiz-adv-x="1294" 
d="M931 0l-16 39q-8 22 -16 47t-14.5 52t-10.5 54q-93 -107 -192 -162.5t-206 -55.5q-325 0 -325 447v307q0 50 -0.5 90.5t-2.5 78.5t-6.5 77.5t-11.5 86.5h312v-577q0 -71 7 -122t23.5 -84t43.5 -48.5t66 -15.5q36 0 76 21t77 53.5t67 71t46 75.5v293q0 51 -0.5 92t-3 78.5
t-6.5 76t-11 86.5h312v-593q0 -152 17 -266t50 -202h-275zM567 1664l301 -416h-249l-416 416h364z" />
    <glyph glyph-name="uacute" unicode="&#xfa;" horiz-adv-x="1294" 
d="M931 0l-16 39q-8 22 -16 47t-14.5 52t-10.5 54q-93 -107 -192 -162.5t-206 -55.5q-325 0 -325 447v307q0 50 -0.5 90.5t-2.5 78.5t-6.5 77.5t-11.5 86.5h312v-577q0 -71 7 -122t23.5 -84t43.5 -48.5t66 -15.5q36 0 76 21t77 53.5t67 71t46 75.5v293q0 51 -0.5 92t-3 78.5
t-6.5 76t-11 86.5h312v-593q0 -152 17 -266t50 -202h-275zM1076 1664l-416 -416h-249l301 416h364z" />
    <glyph glyph-name="ucircumflex" unicode="&#xfb;" horiz-adv-x="1294" 
d="M931 0l-16 39q-8 22 -16 47t-14.5 52t-10.5 54q-93 -107 -192 -162.5t-206 -55.5q-325 0 -325 447v307q0 50 -0.5 90.5t-2.5 78.5t-6.5 77.5t-11.5 86.5h312v-577q0 -71 7 -122t23.5 -84t43.5 -48.5t66 -15.5q36 0 76 21t77 53.5t67 71t46 75.5v293q0 51 -0.5 92t-3 78.5
t-6.5 76t-11 86.5h312v-593q0 -152 17 -266t50 -202h-275zM848 1248l-208 239l-208 -239h-250l302 416h312l301 -416h-249z" />
    <glyph glyph-name="udieresis" unicode="&#xfc;" horiz-adv-x="1294" 
d="M931 0l-16 39q-8 22 -16 47t-14.5 52t-10.5 54q-93 -107 -192 -162.5t-206 -55.5q-325 0 -325 447v307q0 50 -0.5 90.5t-2.5 78.5t-6.5 77.5t-11.5 86.5h312v-577q0 -71 7 -122t23.5 -84t43.5 -48.5t66 -15.5q36 0 76 21t77 53.5t67 71t46 75.5v293q0 51 -0.5 92t-3 78.5
t-6.5 76t-11 86.5h312v-593q0 -152 17 -266t50 -202h-275zM203 1440q0 40 13.5 73t38 57.5t57.5 38t72.5 13.5t73 -13.5t58 -38t38 -57.5t13.5 -73t-13.5 -73.5t-38 -58t-58 -37.5t-73 -13t-72.5 13t-57.5 37.5t-38 58t-13.5 73.5zM712 1440q0 40 13.5 73t38 57.5t58 38
t73 13.5t72.5 -13.5t57.5 -38t38 -57.5t13.5 -73t-13.5 -73.5t-38 -58t-57.5 -37.5t-72.5 -13t-73 13t-58 37.5t-38 58t-13.5 73.5z" />
    <glyph glyph-name="yacute" unicode="&#xfd;" horiz-adv-x="1144" 
d="M733 0q-55 -151 -109.5 -246t-113 -149t-121.5 -74t-134 -20q-72 0 -140 23t-125 66l72 226q17 -13 39.5 -27t48 -25t52.5 -18.5t53 -7.5q23 0 47 8.5t49 33.5t53 70.5t59 120.5l-276 711q-28 71 -67 159t-99 210h325l250 -756q13 50 30 108l34 122l36 125l34 122l78 279
h326l-49 -112l-41 -97q-19 -45 -34 -84.5t-27 -75.5zM1024 1664l-416 -416h-249l301 416h364z" />
    <glyph glyph-name="thorn" unicode="&#xfe;" horiz-adv-x="1275" 
d="M432 1664v-763q35 40 75.5 73.5t87 57.5t96 37t104.5 13q87 0 158 -39t121.5 -109.5t78.5 -166.5t28 -211q0 -133 -36 -240.5t-99 -183.5t-148 -117t-180 -41q-41 0 -77.5 7t-70 18.5t-67.5 29t-70 39.5v-224q0 -62 1.5 -112.5t4.5 -93.5t8 -78.5t12 -69.5h-319v1808
q0 66 -1.5 133.5t-4.5 128t-9 104.5h307zM433 312l67 -48q29 -20 53 -30.5t46.5 -15t49.5 -4.5q48 0 91.5 21.5t77 62t53 98t19.5 129.5q0 71 -13.5 128t-39.5 97t-63.5 62t-83.5 22q-35 0 -71.5 -14.5t-70 -43t-64 -70.5t-51.5 -98v-296z" />
    <glyph glyph-name="ydieresis" unicode="&#xff;" horiz-adv-x="1144" 
d="M733 0q-55 -151 -109.5 -246t-113 -149t-121.5 -74t-134 -20q-72 0 -140 23t-125 66l72 226q17 -13 39.5 -27t48 -25t52.5 -18.5t53 -7.5q23 0 47 8.5t49 33.5t53 70.5t59 120.5l-276 711q-28 71 -67 159t-99 210h325l250 -756q13 50 30 108l34 122l36 125l34 122l78 279
h326l-49 -112l-41 -97q-19 -45 -34 -84.5t-27 -75.5zM151 1440q0 40 13.5 73t38 57.5t57.5 38t72.5 13.5t73 -13.5t58 -38t38 -57.5t13.5 -73t-13.5 -73.5t-38 -58t-58 -37.5t-73 -13t-72.5 13t-57.5 37.5t-38 58t-13.5 73.5zM660 1440q0 40 13.5 73t38 57.5t58 38t73 13.5
t72.5 -13.5t57.5 -38t38 -57.5t13.5 -73t-13.5 -73.5t-38 -58t-57.5 -37.5t-72.5 -13t-73 13t-58 37.5t-38 58t-13.5 73.5z" />
    <glyph glyph-name="Amacron" unicode="&#x100;" horiz-adv-x="1544" 
d="M547 593h426l-214 684zM1044 369h-566l-114 -369h-310q14 31 28 65.5t29 77.5l34 97l44 129l385 1149h370l385 -1149l44 -128l35 -98l30 -77l26 -66h-304zM330 1955h863v-218h-863v218z" />
    <glyph glyph-name="amacron" unicode="&#x101;" 
d="M801 494q-16 0 -44.5 -2t-60.5 -5t-63 -7l-51 -5q-54 -6 -89.5 -19t-57.5 -31.5t-31 -42t-9 -49.5q0 -25 10.5 -47t29 -38t45 -25.5t59 -9.5t63 5.5t62.5 22t65.5 47t71.5 81.5v125zM884 0l-25 59q-16 38 -27 81q-88 -88 -183 -127t-186 -39q-78 0 -144 26.5t-113.5 70.5
t-74.5 102.5t-27 122.5q0 60 20 121t67.5 112.5t127.5 89t201 49.5q27 3 68 6l83 6q42 2 78 4t52 2v52q0 59 -66.5 85t-183.5 26q-83 0 -164.5 -33t-173.5 -97q0 16 1 48.5t2 71t4 78.5l4 71l90 34q46 17 96.5 30t107 21.5t122.5 8.5q102 0 185.5 -22.5t143 -61.5t91.5 -92
t32 -116v-405q0 -113 20 -205.5t53 -179.5h-281zM203 1508h863v-218h-863v218z" />
    <glyph glyph-name="Abreve" unicode="&#x102;" horiz-adv-x="1544" 
d="M547 593h426l-214 684zM1044 369h-566l-114 -369h-310q14 31 28 65.5t29 77.5l34 97l44 129l385 1149h370l385 -1149l44 -128l35 -98l30 -77l26 -66h-304zM1182 2059q0 -76 -30 -152t-85.5 -136.5t-133 -99t-172.5 -38.5t-172.5 38.5t-133 99t-85.5 136.5t-30 152h187
q8 -47 29.5 -87t53 -69t70.5 -45.5t81 -16.5q44 0 82.5 16.5t69 45.5t52 69t30.5 87h187z" />
    <glyph glyph-name="abreve" unicode="&#x103;" 
d="M801 494q-16 0 -44.5 -2t-60.5 -5t-63 -7l-51 -5q-54 -6 -89.5 -19t-57.5 -31.5t-31 -42t-9 -49.5q0 -25 10.5 -47t29 -38t45 -25.5t59 -9.5t63 5.5t62.5 22t65.5 47t71.5 81.5v125zM884 0l-25 59q-16 38 -27 81q-88 -88 -183 -127t-186 -39q-78 0 -144 26.5t-113.5 70.5
t-74.5 102.5t-27 122.5q0 60 20 121t67.5 112.5t127.5 89t201 49.5q27 3 68 6l83 6q42 2 78 4t52 2v52q0 59 -66.5 85t-183.5 26q-83 0 -164.5 -33t-173.5 -97q0 16 1 48.5t2 71t4 78.5l4 71l90 34q46 17 96.5 30t107 21.5t122.5 8.5q102 0 185.5 -22.5t143 -61.5t91.5 -92
t32 -116v-405q0 -113 20 -205.5t53 -179.5h-281zM1056 1612q0 -76 -30.5 -152t-86 -136.5t-133 -99t-172.5 -38.5t-172.5 38.5t-132.5 99t-85.5 136.5t-30.5 152h187q8 -47 29.5 -87t53 -69t70.5 -45.5t81 -16.5q44 0 82.5 16.5t69 45.5t52 69t30.5 87h188z" />
    <glyph glyph-name="Cacute" unicode="&#x106;" horiz-adv-x="1440" 
d="M1316 146q-48 -39 -112 -70.5t-135 -54t-144 -35t-140 -12.5q-161 0 -289.5 53.5t-218 153t-136.5 241t-47 316.5q0 135 26.5 246.5t74.5 201t114.5 156.5t147.5 112.5t172 67.5t187 22q72 0 135.5 -7.5t122.5 -25t114.5 -45t111.5 -67.5l-73 -250q-100 78 -196 112
t-199 34q-95 0 -176 -33.5t-140 -100t-92.5 -166t-33.5 -231.5q0 -125 29.5 -224.5t85.5 -168.5t136 -105.5t181 -36.5q58 0 118 13.5t118 39t110.5 61t95.5 78.5zM1212 2111l-416 -416h-250l302 416h364z" />
    <glyph glyph-name="cacute" unicode="&#x107;" horiz-adv-x="1062" 
d="M913 746q-35 24 -67 42t-63.5 30t-66 18t-74.5 6q-54 0 -101 -21.5t-82 -63t-54.5 -101.5t-19.5 -136q0 -69 18 -125.5t51.5 -96.5t81 -62.5t106.5 -22.5q46 0 86 8t75 22.5t68 35.5t67 48l31 -254q-39 -24 -79.5 -43t-85.5 -31.5t-95 -18.5t-108 -6q-105 0 -197.5 35.5
t-161 104t-108.5 168.5t-40 228q0 121 38.5 225.5t109 181.5t171 121t223.5 44q104 0 185 -22t138 -52zM1035 1664l-416 -416h-250l302 416h364z" />
    <glyph glyph-name="Ccircumflex" unicode="&#x108;" horiz-adv-x="1440" 
d="M1316 146q-48 -39 -112 -70.5t-135 -54t-144 -35t-140 -12.5q-161 0 -289.5 53.5t-218 153t-136.5 241t-47 316.5q0 135 26.5 246.5t74.5 201t114.5 156.5t147.5 112.5t172 67.5t187 22q72 0 135.5 -7.5t122.5 -25t114.5 -45t111.5 -67.5l-73 -250q-100 78 -196 112
t-199 34q-95 0 -176 -33.5t-140 -100t-92.5 -166t-33.5 -231.5q0 -125 29.5 -224.5t85.5 -168.5t136 -105.5t181 -36.5q58 0 118 13.5t118 39t110.5 61t95.5 78.5zM983 1695l-208 239l-208 -239h-250l302 416h312l301 -416h-249z" />
    <glyph glyph-name="ccircumflex" unicode="&#x109;" horiz-adv-x="1062" 
d="M913 746q-35 24 -67 42t-63.5 30t-66 18t-74.5 6q-54 0 -101 -21.5t-82 -63t-54.5 -101.5t-19.5 -136q0 -69 18 -125.5t51.5 -96.5t81 -62.5t106.5 -22.5q46 0 86 8t75 22.5t68 35.5t67 48l31 -254q-39 -24 -79.5 -43t-85.5 -31.5t-95 -18.5t-108 -6q-105 0 -197.5 35.5
t-161 104t-108.5 168.5t-40 228q0 121 38.5 225.5t109 181.5t171 121t223.5 44q104 0 185 -22t138 -52zM806 1248l-208 239l-208 -239h-250l302 416h312l302 -416h-250z" />
    <glyph glyph-name="Cdot" unicode="&#x10a;" horiz-adv-x="1440" 
d="M1316 146q-48 -39 -112 -70.5t-135 -54t-144 -35t-140 -12.5q-161 0 -289.5 53.5t-218 153t-136.5 241t-47 316.5q0 135 26.5 246.5t74.5 201t114.5 156.5t147.5 112.5t172 67.5t187 22q72 0 135.5 -7.5t122.5 -25t114.5 -45t111.5 -67.5l-73 -250q-100 78 -196 112
t-199 34q-95 0 -176 -33.5t-140 -100t-92.5 -166t-33.5 -231.5q0 -125 29.5 -224.5t85.5 -168.5t136 -105.5t181 -36.5q58 0 118 13.5t118 39t110.5 61t95.5 78.5zM608 1888q0 39 13.5 72.5t38 58t58 38t73 13.5t72.5 -13.5t57.5 -38t38 -58t13.5 -72.5q0 -41 -13.5 -74.5
t-38 -57.5t-57.5 -37t-72.5 -13t-73 13t-58 37t-38 57.5t-13.5 74.5z" />
    <glyph glyph-name="cdot" unicode="&#x10b;" horiz-adv-x="1062" 
d="M913 746q-35 24 -67 42t-63.5 30t-66 18t-74.5 6q-54 0 -101 -21.5t-82 -63t-54.5 -101.5t-19.5 -136q0 -69 18 -125.5t51.5 -96.5t81 -62.5t106.5 -22.5q46 0 86 8t75 22.5t68 35.5t67 48l31 -254q-39 -24 -79.5 -43t-85.5 -31.5t-95 -18.5t-108 -6q-105 0 -197.5 35.5
t-161 104t-108.5 168.5t-40 228q0 121 38.5 225.5t109 181.5t171 121t223.5 44q104 0 185 -22t138 -52zM432 1440q0 40 13.5 73t38 57.5t57.5 38t72.5 13.5t73 -13.5t58 -38t38 -57.5t13.5 -73t-13.5 -73.5t-38 -58t-58 -37.5t-73 -13t-72.5 13t-57.5 37.5t-38 58
t-13.5 73.5z" />
    <glyph glyph-name="Ccaron" unicode="&#x10c;" horiz-adv-x="1440" 
d="M1316 146q-48 -39 -112 -70.5t-135 -54t-144 -35t-140 -12.5q-161 0 -289.5 53.5t-218 153t-136.5 241t-47 316.5q0 135 26.5 246.5t74.5 201t114.5 156.5t147.5 112.5t172 67.5t187 22q72 0 135.5 -7.5t122.5 -25t114.5 -45t111.5 -67.5l-73 -250q-100 78 -196 112
t-199 34q-95 0 -176 -33.5t-140 -100t-92.5 -166t-33.5 -231.5q0 -125 29.5 -224.5t85.5 -168.5t136 -105.5t181 -36.5q58 0 118 13.5t118 39t110.5 61t95.5 78.5zM1241 2111l-302 -416h-312l-301 416h249l208 -239l208 239h250z" />
    <glyph glyph-name="ccaron" unicode="&#x10d;" horiz-adv-x="1062" 
d="M913 746q-35 24 -67 42t-63.5 30t-66 18t-74.5 6q-54 0 -101 -21.5t-82 -63t-54.5 -101.5t-19.5 -136q0 -69 18 -125.5t51.5 -96.5t81 -62.5t106.5 -22.5q46 0 86 8t75 22.5t68 35.5t67 48l31 -254q-39 -24 -79.5 -43t-85.5 -31.5t-95 -18.5t-108 -6q-105 0 -197.5 35.5
t-161 104t-108.5 168.5t-40 228q0 121 38.5 225.5t109 181.5t171 121t223.5 44q104 0 185 -22t138 -52zM1064 1664l-302 -416h-312l-301 416h249l208 -239l208 239h250z" />
    <glyph glyph-name="Dcaron" unicode="&#x10e;" horiz-adv-x="1544" 
d="M172 473v716q0 73 -2 135.5t-5 112.5t-9 81q23 1 59 3t79 3t91 2t96 1l92 1q45 1 82 1q72 0 156.5 -10.5t170.5 -40t165.5 -82t141.5 -137t99 -205t37 -284.5q0 -155 -36.5 -273t-97.5 -204.5t-141 -145t-168 -93.5t-178.5 -49.5t-170.5 -14.5h-61q-34 1 -73 1l-78 2
l-79 2q-89 2 -186 5q6 31 8.5 80t4.5 110.5t2.5 133.5t0.5 149zM468 240q30 -3 79 -6.5t111 -3.5q88 0 171 28t148 90t104.5 160.5t39.5 240.5q0 155 -33.5 260t-94 169t-145.5 91t-186 27q-21 0 -47.5 -0.5t-54 -1.5t-51.5 -1.5t-41 -1.5v-1051zM1298 2111l-302 -416h-312
l-301 416h249l208 -239l208 239h250z" />
    <glyph glyph-name="Dcroat" unicode="&#x110;" horiz-adv-x="1560" 
d="M187 888v301q0 73 -1.5 135.5t-4.5 112.5t-9 81q22 1 58 3t79 3t91 2t96 1l93 1q44 1 82 1q72 0 156.5 -10.5t170.5 -40t165.5 -82t141.5 -137t98.5 -205t36.5 -284.5q0 -155 -36 -273t-97 -204.5t-141 -145t-168 -93.5q-44 -18 -88.5 -30.5t-89.5 -19.5
q-91 -14 -171 -14h-61q-34 1 -73 1l-79 2l-78 2q-90 2 -186 5q6 31 8.5 80t4 110.5t2 133.5t0.5 149v197h-176v218h176zM484 888h354v-218h-354v-430q30 -3 79 -6.5t111 -3.5q87 0 170.5 28t148.5 90t104.5 160.5t39.5 240.5q0 155 -34 260t-94.5 169t-145 91t-185.5 27
q-22 0 -48.5 -0.5t-53.5 -1.5t-51.5 -1.5t-40.5 -1.5v-403z" />
    <glyph glyph-name="dcroat" unicode="&#x111;" horiz-adv-x="1318" 
d="M868 768q-36 17 -66.5 29t-60.5 20t-60.5 11.5t-66.5 3.5q-41 0 -80.5 -22t-70 -63.5t-49.5 -101t-19 -135.5q0 -149 49 -225.5t149 -76.5q41 0 82.5 17.5t77.5 47.5t66.5 66.5t48.5 76.5v352zM542 1436h324q-2 71 -8 127.5t-16 100.5h318v-228h177v-213h-177v-672
q0 -196 22 -330t56 -221h-286q-7 12 -14 32l-14 44q-8 24 -16 52l-14 54q-70 -101 -159.5 -154.5t-198.5 -53.5q-97 0 -176 36t-136.5 102t-88.5 159t-31 207q0 139 40 250t109 189.5t162 121.5t199 43q31 0 63.5 -7.5t66 -20t65 -28.5t59.5 -33v230h-326v213z" />
    <glyph glyph-name="Emacron" unicode="&#x112;" horiz-adv-x="1260" 
d="M1037 910v-234h-569v-437h268q150 0 249.5 2t160.5 14v-255h-990q11 62 13.5 180t2.5 272v614q0 154 -2.5 272t-13.5 180h959v-239h-647v-369h569zM203 1955h863v-218h-863v218z" />
    <glyph glyph-name="emacron" unicode="&#x113;" horiz-adv-x="1154" 
d="M379 468q10 -135 76 -195t184 -60q103 0 200 23.5t195 81.5l22 -240q-57 -28 -110.5 -48t-107 -32.5t-109.5 -18t-116 -5.5q-103 0 -197.5 35t-166 103t-113.5 169t-42 234q0 129 35.5 233.5t103.5 179t163.5 114.5t216.5 40q87 0 153 -21.5t114.5 -58.5t81 -87.5
t52 -109t27.5 -123t8 -129.5v-18q0 -12 0.5 -24.5t0.5 -23.5v-19h-671zM598 863q-90 0 -143 -48.5t-70 -159.5h400q0 110 -47 159t-140 49zM127 1508h863v-218h-863v218z" />
    <glyph glyph-name="Ebreve" unicode="&#x114;" horiz-adv-x="1260" 
d="M1037 910v-234h-569v-437h268q150 0 249.5 2t160.5 14v-255h-990q11 62 13.5 180t2.5 272v614q0 154 -2.5 272t-13.5 180h959v-239h-647v-369h569zM1056 2059q0 -76 -30.5 -152t-86 -136.5t-133 -99t-172.5 -38.5t-172.5 38.5t-132.5 99t-85.5 136.5t-30.5 152h187
q8 -47 29.5 -87t53 -69t70.5 -45.5t81 -16.5q44 0 82.5 16.5t69 45.5t52 69t30.5 87h188z" />
    <glyph glyph-name="ebreve" unicode="&#x115;" horiz-adv-x="1154" 
d="M379 468q10 -135 76 -195t184 -60q103 0 200 23.5t195 81.5l22 -240q-57 -28 -110.5 -48t-107 -32.5t-109.5 -18t-116 -5.5q-103 0 -197.5 35t-166 103t-113.5 169t-42 234q0 129 35.5 233.5t103.5 179t163.5 114.5t216.5 40q87 0 153 -21.5t114.5 -58.5t81 -87.5
t52 -109t27.5 -123t8 -129.5v-18q0 -12 0.5 -24.5t0.5 -23.5v-19h-671zM598 863q-90 0 -143 -48.5t-70 -159.5h400q0 110 -47 159t-140 49zM980 1612q0 -76 -30.5 -152t-86 -136.5t-133 -99t-172.5 -38.5t-172.5 38.5t-132.5 99t-85.5 136.5t-30.5 152h187q8 -47 29.5 -87
t53 -69t70.5 -45.5t81 -16.5q44 0 82.5 16.5t69 45.5t52 69t30.5 87h188z" />
    <glyph glyph-name="Edot" unicode="&#x116;" horiz-adv-x="1260" 
d="M1037 910v-234h-569v-437h268q150 0 249.5 2t160.5 14v-255h-990q11 62 13.5 180t2.5 272v614q0 154 -2.5 272t-13.5 180h959v-239h-647v-369h569zM468 1888q0 39 13.5 72.5t38 58t57.5 38t73 13.5t73 -13.5t57.5 -38t38 -58t13.5 -72.5q0 -41 -13.5 -74.5t-38 -57.5
t-57.5 -37t-73 -13t-73 13t-57.5 37t-38 57.5t-13.5 74.5z" />
    <glyph glyph-name="edot" unicode="&#x117;" horiz-adv-x="1154" 
d="M379 468q10 -135 76 -195t184 -60q103 0 200 23.5t195 81.5l22 -240q-57 -28 -110.5 -48t-107 -32.5t-109.5 -18t-116 -5.5q-103 0 -197.5 35t-166 103t-113.5 169t-42 234q0 129 35.5 233.5t103.5 179t163.5 114.5t216.5 40q87 0 153 -21.5t114.5 -58.5t81 -87.5
t52 -109t27.5 -123t8 -129.5v-18q0 -12 0.5 -24.5t0.5 -23.5v-19h-671zM598 863q-90 0 -143 -48.5t-70 -159.5h400q0 110 -47 159t-140 49zM392 1440q0 40 13.5 73t38 57.5t58 38t73 13.5t72.5 -13.5t57.5 -38t38 -57.5t13.5 -73t-13.5 -73.5t-38 -58t-57.5 -37.5t-72.5 -13
t-73 13t-58 37.5t-38 58t-13.5 73.5z" />
    <glyph glyph-name="Ecaron" unicode="&#x11a;" horiz-adv-x="1260" 
d="M1037 910v-234h-569v-437h268q150 0 249.5 2t160.5 14v-255h-990q11 62 13.5 180t2.5 272v614q0 154 -2.5 272t-13.5 180h959v-239h-647v-369h569zM1100 2111l-301 -416h-312l-302 416h250l208 -239l208 239h249z" />
    <glyph glyph-name="ecaron" unicode="&#x11b;" horiz-adv-x="1154" 
d="M379 468q10 -135 76 -195t184 -60q103 0 200 23.5t195 81.5l22 -240q-57 -28 -110.5 -48t-107 -32.5t-109.5 -18t-116 -5.5q-103 0 -197.5 35t-166 103t-113.5 169t-42 234q0 129 35.5 233.5t103.5 179t163.5 114.5t216.5 40q87 0 153 -21.5t114.5 -58.5t81 -87.5
t52 -109t27.5 -123t8 -129.5v-18q0 -12 0.5 -24.5t0.5 -23.5v-19h-671zM598 863q-90 0 -143 -48.5t-70 -159.5h400q0 110 -47 159t-140 49zM1024 1664l-301 -416h-312l-302 416h250l208 -239l208 239h249z" />
    <glyph glyph-name="Gcircumflex" unicode="&#x11c;" horiz-adv-x="1530" 
d="M1390 161q-84 -56 -159 -92.5t-145 -57t-138 -29t-140 -8.5q-156 0 -287 51t-226 150t-148 243t-53 331t57.5 334.5t159 250t239.5 156.5t301 54q66 0 129.5 -5.5t127 -21t129.5 -44t138 -74.5l-90 -248q-109 77 -219.5 110.5t-223.5 33.5q-103 0 -186.5 -37t-143 -105
t-91 -164t-31.5 -214q0 -127 29 -228t83 -171.5t129.5 -108.5t168.5 -38q44 0 84 3.5t78 12.5t78 23.5t85 37.5v276h-327v234h592v-655zM1047 1695l-208 239l-208 -239h-249l301 416h312l302 -416h-250z" />
    <glyph glyph-name="gcircumflex" unicode="&#x11d;" horiz-adv-x="1216" 
d="M392 707q0 -39 14.5 -73.5t41 -59.5t63 -39t79.5 -14t79 14t62.5 39t41 59.5t14.5 73.5q0 36 -14.5 67t-41 55t-62.5 38t-79 14t-79.5 -14t-63 -38t-41 -55t-14.5 -67zM569 -24q-18 2 -34.5 5t-32.5 7q-52 -25 -83 -48t-48 -44.5t-22.5 -42t-5.5 -40.5q0 -22 17.5 -44.5
t52.5 -40.5t88 -30t125 -12q57 0 107.5 13t88.5 32.5t60.5 44t22.5 47.5q0 28 -16 51.5t-54.5 42.5t-103 34t-162.5 25zM1136 858q-27 -1 -55.5 -4t-58.5 -10q30 -63 30 -137q0 -84 -35 -155.5t-97 -123.5t-147 -81.5t-183 -29.5q-47 0 -91 6q-27 -14 -38 -29t-11 -29
q0 -15 14.5 -27.5t52 -24t101.5 -21.5t164 -20q116 -16 195.5 -45.5t127.5 -72.5t69.5 -98t21.5 -122q0 -57 -25 -105t-67.5 -87.5t-100.5 -71t-123 -52.5t-134 -32t-136 -11q-64 0 -130 8t-128 25.5t-116.5 43.5t-95.5 61t-64.5 80t-23.5 99q0 81 61 148.5t187 122.5
q-50 35 -70 76t-20 85q0 38 27 83t79 78q-87 50 -138 130t-51 182q0 79 35.5 149t97.5 122.5t147 83t183 30.5q81 0 151 -19.5t128 -53.5q66 30 140 48.5t137 24.5zM798 1248l-208 239l-208 -239h-250l302 416h312l301 -416h-249z" />
    <glyph glyph-name="Gbreve" unicode="&#x11e;" horiz-adv-x="1530" 
d="M1390 161q-84 -56 -159 -92.5t-145 -57t-138 -29t-140 -8.5q-156 0 -287 51t-226 150t-148 243t-53 331t57.5 334.5t159 250t239.5 156.5t301 54q66 0 129.5 -5.5t127 -21t129.5 -44t138 -74.5l-90 -248q-109 77 -219.5 110.5t-223.5 33.5q-103 0 -186.5 -37t-143 -105
t-91 -164t-31.5 -214q0 -127 29 -228t83 -171.5t129.5 -108.5t168.5 -38q44 0 84 3.5t78 12.5t78 23.5t85 37.5v276h-327v234h592v-655zM1260 2059q0 -76 -30 -152t-85.5 -136.5t-133 -99t-172.5 -38.5t-172.5 38.5t-133 99t-85.5 136.5t-30 152h187q8 -47 29.5 -87t53 -69
t70.5 -45.5t81 -16.5q44 0 82.5 16.5t69 45.5t52 69t30.5 87h187z" />
    <glyph glyph-name="gbreve" unicode="&#x11f;" horiz-adv-x="1216" 
d="M392 707q0 -39 14.5 -73.5t41 -59.5t63 -39t79.5 -14t79 14t62.5 39t41 59.5t14.5 73.5q0 36 -14.5 67t-41 55t-62.5 38t-79 14t-79.5 -14t-63 -38t-41 -55t-14.5 -67zM569 -24q-18 2 -34.5 5t-32.5 7q-52 -25 -83 -48t-48 -44.5t-22.5 -42t-5.5 -40.5q0 -22 17.5 -44.5
t52.5 -40.5t88 -30t125 -12q57 0 107.5 13t88.5 32.5t60.5 44t22.5 47.5q0 28 -16 51.5t-54.5 42.5t-103 34t-162.5 25zM1136 858q-27 -1 -55.5 -4t-58.5 -10q30 -63 30 -137q0 -84 -35 -155.5t-97 -123.5t-147 -81.5t-183 -29.5q-47 0 -91 6q-27 -14 -38 -29t-11 -29
q0 -15 14.5 -27.5t52 -24t101.5 -21.5t164 -20q116 -16 195.5 -45.5t127.5 -72.5t69.5 -98t21.5 -122q0 -57 -25 -105t-67.5 -87.5t-100.5 -71t-123 -52.5t-134 -32t-136 -11q-64 0 -130 8t-128 25.5t-116.5 43.5t-95.5 61t-64.5 80t-23.5 99q0 81 61 148.5t187 122.5
q-50 35 -70 76t-20 85q0 38 27 83t79 78q-87 50 -138 130t-51 182q0 79 35.5 149t97.5 122.5t147 83t183 30.5q81 0 151 -19.5t128 -53.5q66 30 140 48.5t137 24.5zM1011 1612q0 -76 -30 -152t-86 -136.5t-133.5 -99t-171.5 -38.5q-96 0 -173.5 38.5t-132.5 99t-85.5 136.5
t-30.5 152h188q7 -47 29 -87t53 -69t70 -45.5t82 -16.5t81.5 16.5t69.5 45.5t52 69t31 87h187z" />
    <glyph glyph-name="Gdot" unicode="&#x120;" horiz-adv-x="1530" 
d="M1390 161q-84 -56 -159 -92.5t-145 -57t-138 -29t-140 -8.5q-156 0 -287 51t-226 150t-148 243t-53 331t57.5 334.5t159 250t239.5 156.5t301 54q66 0 129.5 -5.5t127 -21t129.5 -44t138 -74.5l-90 -248q-109 77 -219.5 110.5t-223.5 33.5q-103 0 -186.5 -37t-143 -105
t-91 -164t-31.5 -214q0 -127 29 -228t83 -171.5t129.5 -108.5t168.5 -38q44 0 84 3.5t78 12.5t78 23.5t85 37.5v276h-327v234h592v-655zM673 1888q0 39 13.5 72.5t38 58t57.5 38t72.5 13.5t73 -13.5t58 -38t38 -58t13.5 -72.5q0 -41 -13.5 -74.5t-38 -57.5t-58 -37t-73 -13
t-72.5 13t-57.5 37t-38 57.5t-13.5 74.5z" />
    <glyph glyph-name="gdot" unicode="&#x121;" horiz-adv-x="1216" 
d="M392 707q0 -39 14.5 -73.5t41 -59.5t63 -39t79.5 -14t79 14t62.5 39t41 59.5t14.5 73.5q0 36 -14.5 67t-41 55t-62.5 38t-79 14t-79.5 -14t-63 -38t-41 -55t-14.5 -67zM569 -24q-18 2 -34.5 5t-32.5 7q-52 -25 -83 -48t-48 -44.5t-22.5 -42t-5.5 -40.5q0 -22 17.5 -44.5
t52.5 -40.5t88 -30t125 -12q57 0 107.5 13t88.5 32.5t60.5 44t22.5 47.5q0 28 -16 51.5t-54.5 42.5t-103 34t-162.5 25zM1136 858q-27 -1 -55.5 -4t-58.5 -10q30 -63 30 -137q0 -84 -35 -155.5t-97 -123.5t-147 -81.5t-183 -29.5q-47 0 -91 6q-27 -14 -38 -29t-11 -29
q0 -15 14.5 -27.5t52 -24t101.5 -21.5t164 -20q116 -16 195.5 -45.5t127.5 -72.5t69.5 -98t21.5 -122q0 -57 -25 -105t-67.5 -87.5t-100.5 -71t-123 -52.5t-134 -32t-136 -11q-64 0 -130 8t-128 25.5t-116.5 43.5t-95.5 61t-64.5 80t-23.5 99q0 81 61 148.5t187 122.5
q-50 35 -70 76t-20 85q0 38 27 83t79 78q-87 50 -138 130t-51 182q0 79 35.5 149t97.5 122.5t147 83t183 30.5q81 0 151 -19.5t128 -53.5q66 30 140 48.5t137 24.5zM423 1440q0 40 13.5 73t38 57.5t58 38t73 13.5t72.5 -13.5t57.5 -38t38 -57.5t13.5 -73t-13.5 -73.5
t-38 -58t-57.5 -37.5t-72.5 -13t-73 13t-58 37.5t-38 58t-13.5 73.5z" />
    <glyph glyph-name="Hcircumflex" unicode="&#x124;" horiz-adv-x="1575" 
d="M1394 1518q-12 -62 -14 -177t-2 -270v-624q0 -155 2 -270t14 -177h-312v660h-614v-660h-312q11 62 13.5 177t2.5 270v624q0 155 -2.5 270t-13.5 177h312v-624h614v624h312zM983 1695l-208 239l-208 -239h-250l302 416h312l301 -416h-249z" />
    <glyph glyph-name="hcircumflex" unicode="&#x125;" horiz-adv-x="1284" 
d="M432 0h-292v1175q0 169 -2 295t-13 194h307v-780q38 49 85.5 86t100 62t108 37.5t111.5 12.5q317 0 317 -432v-650h-291v572q0 76 -9.5 125t-29 78t-50 40.5t-72.5 11.5q-45 0 -87.5 -20t-79 -52t-63.5 -71.5t-40 -80.5v-603zM853 1804l-208 240l-208 -240h-250l302 416
h312l301 -416h-249z" />
    <glyph glyph-name="Itilde" unicode="&#x128;" horiz-adv-x="1086" 
d="M931 1518v-213h-250v-1092h250v-213h-796v213h250v1092h-250v213h796zM120 1685q0 62 17 118.5t48 99.5t74 68.5t95 25.5q51 0 103.5 -16t114.5 -39q30 -12 53 -20l43 -16q19 -6 37 -9.5t36.5 -3.5t32 8t23 21.5t15.5 30.5t10 33h161q0 -67 -18 -124.5t-49.5 -99
t-75.5 -65t-97 -23.5q-49 0 -93 13.5t-99 37.5q-65 27 -111 40t-79 13q-20 0 -34 -8t-23.5 -21.5t-15 -30.5t-7.5 -33h-161z" />
    <glyph glyph-name="itilde" unicode="&#x129;" horiz-adv-x="670" 
d="M478 1061v-567q0 -50 2 -118t4.5 -138t6 -133t8.5 -105h-312v551q0 76 -0.5 150t-2 140t-4.5 122.5t-8 97.5h306zM-88 1238q0 62 17 118t48 99.5t74 69t95 25.5q51 0 103.5 -16.5t114.5 -39.5l53 -20q24 -9 43 -15t37 -9.5t36.5 -3.5t32 8t23 21.5t15.5 30.5t10 33h161
q0 -67 -18 -124.5t-49.5 -99t-75.5 -65t-97 -23.5q-49 0 -93 13.5t-99 37.5q-65 27 -111 40t-79 13q-20 0 -34 -8t-23.5 -21.5t-15 -30.5t-7.5 -33h-161z" />
    <glyph glyph-name="Imacron" unicode="&#x12a;" horiz-adv-x="1086" 
d="M931 1518v-213h-250v-1092h250v-213h-796v213h250v1092h-250v213h796zM224 1955h634v-218h-634v218z" />
    <glyph glyph-name="imacron" unicode="&#x12b;" horiz-adv-x="670" 
d="M478 1061v-567q0 -50 2 -118t4.5 -138t6 -133t8.5 -105h-312v551q0 76 -0.5 150t-2 140t-4.5 122.5t-8 97.5h306zM16 1508h634v-218h-634v218z" />
    <glyph glyph-name="Ibreve" unicode="&#x12c;" horiz-adv-x="1086" 
d="M931 1518v-213h-250v-1092h250v-213h-796v213h250v1092h-250v213h796zM962 2059q0 -76 -30 -152t-86 -136.5t-133.5 -99t-171.5 -38.5q-96 0 -173.5 38.5t-132.5 99t-85 136.5t-30 152h187q7 -47 29 -87t53 -69t70 -45.5t82 -16.5t81.5 16.5t69.5 45.5t52 69t31 87h187z
" />
    <glyph glyph-name="ibreve" unicode="&#x12d;" horiz-adv-x="670" 
d="M478 1061v-567q0 -50 2 -118t4.5 -138t6 -133t8.5 -105h-312v551q0 76 -0.5 150t-2 140t-4.5 122.5t-8 97.5h306zM754 1612q0 -76 -30 -152t-86 -136.5t-133.5 -99t-171.5 -38.5q-96 0 -173.5 38.5t-132.5 99t-85 136.5t-30 152h187q7 -47 29 -87t53 -69t70 -45.5
t82 -16.5t81.5 16.5t69.5 45.5t52 69t31 87h187z" />
    <glyph glyph-name="Idotaccent" unicode="&#x130;" horiz-adv-x="1086" 
d="M931 1518v-213h-250v-1092h250v-213h-796v213h250v1092h-250v213h796zM374 1888q0 39 13.5 72.5t38 58t58 38t73 13.5t72.5 -13.5t57.5 -38t38 -58t13.5 -72.5q0 -41 -13.5 -74.5t-38 -57.5t-57.5 -37t-72.5 -13t-73 13t-58 37t-38 57.5t-13.5 74.5z" />
    <glyph glyph-name="dotlessi" unicode="&#x131;" horiz-adv-x="670" 
d="M478 1061v-567q0 -50 2 -118t4.5 -138t6 -133t8.5 -105h-312v551q0 76 -0.5 150t-2 140t-4.5 122.5t-8 97.5h306z" />
    <glyph glyph-name="IJ" unicode="&#x132;" horiz-adv-x="2158" 
d="M931 1518v-213h-250v-1092h250v-213h-796v213h250v1092h-250v213h796zM1976 1518v-962q0 -158 -37 -268.5t-104 -180.5t-161 -101.5t-210 -31.5q-40 0 -88 7t-95 21.5t-89.5 37t-73.5 54.5l51 267q29 -30 64.5 -53.5t74 -39t79 -24t79.5 -8.5q69 0 110.5 28t64.5 76
t31 110t8 130v439q0 76 -0.5 148.5t-2.5 136.5t-5 118.5t-8 95.5h312z" />
    <glyph glyph-name="ij" unicode="&#x133;" horiz-adv-x="1297" 
d="M151 1440q0 40 13.5 73t38 57.5t57.5 38t72.5 13.5t73 -13.5t58 -38t38 -57.5t13.5 -73t-13.5 -73.5t-38 -58t-58 -37.5t-73 -13t-72.5 13t-57.5 37.5t-38 58t-13.5 73.5zM478 1061v-567q0 -50 2 -118t4.5 -138t6 -133t8.5 -105h-312v551q0 76 -0.5 150t-2 140
t-4.5 122.5t-8 97.5h306zM1121 26q0 -146 -35.5 -244.5t-97.5 -158.5t-146.5 -86t-182.5 -26q-36 0 -74.5 8.5t-73.5 21.5t-63 27.5t-44 26.5l46 247q17 -17 41 -32t50.5 -26.5t54.5 -18t55 -6.5q92 0 135.5 64.5t43.5 197.5v530q0 76 -0.5 150t-2 140t-4.5 122.5t-9 97.5
h307v-1035zM794 1440q0 40 13.5 73t37.5 57.5t57.5 38t73 13.5t73 -13.5t57.5 -38t38 -57.5t14 -73t-14 -73.5t-38 -58t-57.5 -37.5t-73 -13t-73 13t-57.5 37.5t-37.5 58t-13.5 73.5z" />
    <glyph glyph-name="Lacute" unicode="&#x139;" horiz-adv-x="1175" 
d="M693 239q147 0 261 2t174 14v-255h-972q11 62 13.5 180t2.5 272v614q0 154 -2.5 272t-13.5 180h312v-1279h225zM1082 2111l-416 -416h-250l302 416h364z" />
    <glyph glyph-name="lacute" unicode="&#x13a;" horiz-adv-x="665" 
d="M478 494q0 -50 2 -117.5t4.5 -137t6 -133t8.5 -106.5h-312v1175q0 152 -5 275.5t-16 213.5h312v-1170zM770 2220l-416 -416h-250l302 416h364z" />
    <glyph glyph-name="Lslash" unicode="&#x141;" horiz-adv-x="1196" 
d="M713 239q148 0 262 2t174 14v-255h-972q11 62 13 180.5t2 271.5v86l-134 -85l-82 205l216 136v272q0 154 -2 272t-13 180h312v-538l306 191l82 -205l-388 -243v-484h224z" />
    <glyph glyph-name="lslash" unicode="&#x142;" horiz-adv-x="894" 
d="M591 844v-350q0 -50 1.5 -117.5t4 -137t6 -133t9.5 -106.5h-312v635l-197 -140l-82 205l279 200v275q0 152 -5.5 275.5t-15.5 213.5h312v-555l217 156l82 -205z" />
    <glyph glyph-name="Nacute" unicode="&#x143;" horiz-adv-x="1606" 
d="M442 1046v-1046h-286q11 62 13.5 180t2.5 272v614q0 154 -2.5 272t-13.5 180h286l697 -1047v1047h286q-5 -31 -8.5 -76.5t-5 -103.5t-2 -126.5t-0.5 -145.5v-1066h-270zM1232 2111l-416 -416h-249l301 416h364z" />
    <glyph glyph-name="nacute" unicode="&#x144;" horiz-adv-x="1294" 
d="M874 0v572q0 72 -9.5 121t-29.5 78.5t-50.5 42.5t-72.5 13q-44 0 -87 -20t-79 -52t-63 -71.5t-41 -80.5v-603h-291v640q0 154 -17.5 260.5t-34.5 160.5h286q6 -16 12.5 -41.5t11.5 -53t9 -54.5l8 -44q50 57 98 97.5t97 66.5t100 38t106 12q79 0 142 -27t106.5 -81.5
t66.5 -135.5t23 -188v-650h-291zM1082 1664l-416 -416h-250l302 416h364z" />
    <glyph glyph-name="Ncaron" unicode="&#x147;" horiz-adv-x="1606" 
d="M442 1046v-1046h-286q11 62 13.5 180t2.5 272v614q0 154 -2.5 272t-13.5 180h286l697 -1047v1047h286q-5 -31 -8.5 -76.5t-5 -103.5t-2 -126.5t-0.5 -145.5v-1066h-270zM1262 2111l-302 -416h-312l-302 416h250l208 -239l208 239h250z" />
    <glyph glyph-name="ncaron" unicode="&#x148;" horiz-adv-x="1294" 
d="M874 0v572q0 72 -9.5 121t-29.5 78.5t-50.5 42.5t-72.5 13q-44 0 -87 -20t-79 -52t-63 -71.5t-41 -80.5v-603h-291v640q0 154 -17.5 260.5t-34.5 160.5h286q6 -16 12.5 -41.5t11.5 -53t9 -54.5l8 -44q50 57 98 97.5t97 66.5t100 38t106 12q79 0 142 -27t106.5 -81.5
t66.5 -135.5t23 -188v-650h-291zM1111 1664l-302 -416h-312l-301 416h249l208 -239l208 239h250z" />
    <glyph glyph-name="Eng" unicode="&#x14a;" horiz-adv-x="1571" 
d="M407 1524q6 -21 12 -54.5t11.5 -70t9.5 -71.5l8 -59q64 73 125 125t123.5 85.5t127 49t135.5 15.5q112 0 193 -45.5t134.5 -122t78 -177.5t24.5 -211v-816q0 -158 -26.5 -281t-82.5 -207t-143.5 -128.5t-207.5 -44.5q-47 0 -86.5 8.5t-71.5 21.5t-56 27.5t-42 26.5
l103 223q23 -22 58 -35.5t97 -13.5q51 0 83 20.5t51 61t26 101t7 142.5v837q0 65 -11 121t-38.5 97.5t-73 65t-114.5 23.5q-41 0 -83 -15.5t-82 -42t-76.5 -61.5t-66.5 -76t-53.5 -86t-36.5 -89v-868h-310q13 75 16 214t3 323v399q0 107 -6 198t-15 164.5t-19.5 129.5
t-21.5 96h297z" />
    <glyph glyph-name="eng" unicode="&#x14b;" horiz-adv-x="1294" 
d="M385 1061q6 -16 12.5 -41.5t11.5 -53t9 -54.5l8 -44q50 57 98 97.5t97 66.5t100 38t106 12q79 0 142 -27t106.5 -81.5t66.5 -135.5t23 -188v-530q0 -312 -107.5 -460.5t-333.5 -148.5q-37 0 -75.5 8.5t-73 21.5t-62.5 27.5t-45 26.5l103 223q26 -30 62.5 -44.5
t82.5 -14.5t77 20.5t48.5 58t25 89.5t7.5 115v530q0 72 -9.5 121t-29.5 78.5t-50.5 42.5t-72.5 13q-44 0 -87 -20t-79 -52t-63 -71.5t-41 -80.5v-603h-291v640q0 154 -17.5 260.5t-34.5 160.5h286z" />
    <glyph glyph-name="Omacron" unicode="&#x14c;" horiz-adv-x="1560" 
d="M1440 770q0 -125 -26 -232.5t-71.5 -196t-109 -157t-139.5 -115t-161 -71t-174 -24.5q-134 0 -255 51t-212 150t-144.5 243t-53.5 331t56.5 334.5t151.5 250t219 156.5t259 54q133 0 252.5 -51t210 -149.5t144 -242.5t53.5 -331zM1144 744q0 126 -27.5 227.5t-77.5 172.5
t-118.5 108.5t-151 37.5t-152 -36t-120 -103t-79 -162.5t-28.5 -213.5q0 -126 27.5 -227t78 -172t120 -109t154.5 -38q78 0 146 34.5t119 101.5t80 162t29 217zM338 1955h863v-218h-863v218z" />
    <glyph glyph-name="omacron" unicode="&#x14d;" horiz-adv-x="1206" 
d="M385 527q0 -75 14 -133.5t41.5 -100t68.5 -63.5t94 -22q50 0 90.5 22t69 63.5t44 100t15.5 133.5q0 150 -56 235.5t-163 85.5q-50 0 -90.5 -22t-69 -63.5t-43.5 -101t-15 -134.5zM94 527q0 134 41.5 237.5t112.5 174t166 107t200 36.5q110 0 202 -36.5t158 -107
t102.5 -174t36.5 -237.5t-41.5 -237.5t-113 -173.5t-166 -106t-199.5 -36q-110 0 -201.5 36t-158 106t-103 173.5t-36.5 237.5zM172 1508h863v-218h-863v218z" />
    <glyph glyph-name="Obreve" unicode="&#x14e;" horiz-adv-x="1560" 
d="M1440 770q0 -125 -26 -232.5t-71.5 -196t-109 -157t-139.5 -115t-161 -71t-174 -24.5q-134 0 -255 51t-212 150t-144.5 243t-53.5 331t56.5 334.5t151.5 250t219 156.5t259 54q133 0 252.5 -51t210 -149.5t144 -242.5t53.5 -331zM1144 744q0 126 -27.5 227.5t-77.5 172.5
t-118.5 108.5t-151 37.5t-152 -36t-120 -103t-79 -162.5t-28.5 -213.5q0 -126 27.5 -227t78 -172t120 -109t154.5 -38q78 0 146 34.5t119 101.5t80 162t29 217zM1191 2059q0 -76 -30.5 -152t-86 -136.5t-133 -99t-171.5 -38.5q-96 0 -173.5 38.5t-132.5 99t-85.5 136.5
t-30.5 152h188q7 -47 29 -87t53 -69t70 -45.5t82 -16.5t81.5 16.5t69.5 45.5t52 69t31 87h187z" />
    <glyph glyph-name="obreve" unicode="&#x14f;" horiz-adv-x="1206" 
d="M385 527q0 -75 14 -133.5t41.5 -100t68.5 -63.5t94 -22q50 0 90.5 22t69 63.5t44 100t15.5 133.5q0 150 -56 235.5t-163 85.5q-50 0 -90.5 -22t-69 -63.5t-43.5 -101t-15 -134.5zM94 527q0 134 41.5 237.5t112.5 174t166 107t200 36.5q110 0 202 -36.5t158 -107
t102.5 -174t36.5 -237.5t-41.5 -237.5t-113 -173.5t-166 -106t-199.5 -36q-110 0 -201.5 36t-158 106t-103 173.5t-36.5 237.5zM1024 1612q0 -76 -30 -152t-85.5 -136.5t-133 -99t-172.5 -38.5t-172.5 38.5t-133 99t-85.5 136.5t-30 152h187q7 -47 29 -87t53.5 -69
t70.5 -45.5t81 -16.5q44 0 82.5 16.5t69 45.5t52 69t30.5 87h187z" />
    <glyph glyph-name="Odblacute" unicode="&#x150;" horiz-adv-x="1560" 
d="M1440 770q0 -125 -26 -232.5t-71.5 -196t-109 -157t-139.5 -115t-161 -71t-174 -24.5q-134 0 -255 51t-212 150t-144.5 243t-53.5 331t56.5 334.5t151.5 250t219 156.5t259 54q133 0 252.5 -51t210 -149.5t144 -242.5t53.5 -331zM1144 744q0 126 -27.5 227.5t-77.5 172.5
t-118.5 108.5t-151 37.5t-152 -36t-120 -103t-79 -162.5t-28.5 -213.5q0 -126 27.5 -227t78 -172t120 -109t154.5 -38q78 0 146 34.5t119 101.5t80 162t29 217zM1344 2111l-312 -416h-219l219 416h312zM917 2111l-312 -416h-218l218 416h312z" />
    <glyph glyph-name="odblacute" unicode="&#x151;" horiz-adv-x="1206" 
d="M385 527q0 -75 14 -133.5t41.5 -100t68.5 -63.5t94 -22q50 0 90.5 22t69 63.5t44 100t15.5 133.5q0 150 -56 235.5t-163 85.5q-50 0 -90.5 -22t-69 -63.5t-43.5 -101t-15 -134.5zM94 527q0 134 41.5 237.5t112.5 174t166 107t200 36.5q110 0 202 -36.5t158 -107
t102.5 -174t36.5 -237.5t-41.5 -237.5t-113 -173.5t-166 -106t-199.5 -36q-110 0 -201.5 36t-158 106t-103 173.5t-36.5 237.5zM1177 1664l-312 -416h-218l218 416h312zM751 1664l-312 -416h-219l219 416h312z" />
    <glyph glyph-name="OE" unicode="&#x152;" horiz-adv-x="2069" 
d="M1076 744q0 126 -25 227.5t-69.5 172.5t-107 108.5t-136.5 37.5t-137 -36t-109 -103t-71.5 -162.5t-25.5 -213.5q0 -126 25 -227t70.5 -172t108.5 -109t139 -38q70 0 132 34.5t107.5 101.5t72 162t26.5 217zM1054 0v106q-65 -60 -151.5 -96t-174.5 -36q-127 0 -241.5 51
t-200.5 150t-136.5 243t-50.5 331t53.5 334.5t143.5 250t207 156.5t245 54q41 0 83 -8t81.5 -23.5t75 -37t66.5 -47.5v90h865v-239h-553v-369h475v-234h-475v-437h164q150 0 254.5 2t165.5 14v-255h-896z" />
    <glyph glyph-name="oe" unicode="&#x153;" horiz-adv-x="1882" 
d="M1784 78q-57 -28 -110.5 -48t-107 -32.5t-109.5 -18t-116 -5.5q-110 0 -207 37.5t-169 112.5q-72 -74 -168 -112t-204 -38q-110 0 -201.5 36t-158 106t-103 173.5t-36.5 237.5t41.5 237.5t112.5 174t166 107t200 36.5q110 0 201 -36.5t157 -106.5q67 69 159.5 106
t209.5 37q87 0 153 -21.5t115 -58.5t81 -87.5t52 -109t28 -123t8 -129.5v-45q0 -25 -1 -40h-670q10 -135 76 -195t184 -60q103 0 200 23.5t195 81.5zM385 527q0 -75 14 -133.5t41.5 -100t68.5 -63.5t94 -22q50 0 90.5 22t69 63.5t44 100t15.5 133.5q0 150 -56 235.5
t-163 85.5q-50 0 -90.5 -22t-69 -63.5t-43.5 -101t-15 -134.5zM1513 655q0 110 -47 159t-140 49q-90 0 -143 -48.5t-70 -159.5h400z" />
    <glyph glyph-name="Racute" unicode="&#x154;" horiz-adv-x="1435" 
d="M468 452q0 -76 1 -145q0 -69 1.5 -127t4.5 -104t9 -76h-328q11 62 13.5 180t2.5 272v737q0 73 -2 135.5t-5 112.5t-9 81q81 2 168 6q75 2 167.5 3.5t184.5 1.5q122 0 222 -27.5t172 -83.5t112 -140t40 -196q0 -87 -24 -156t-66 -123t-100 -92t-126 -62l72 -101l91 -126
l98 -135l93 -127l76 -102q33 -42 47 -58h-369l-401 608h-145v-156zM468 832h161q69 0 123.5 12.5t93 41t59.5 75.5t21 115q0 118 -74 168.5t-212 50.5q-31 0 -53.5 -0.5t-42.5 -1t-37.5 -1.5t-38.5 -2v-458zM1123 2111l-416 -416h-249l301 416h364z" />
    <glyph glyph-name="racute" unicode="&#x155;" horiz-adv-x="1034" 
d="M151 0v640q0 154 -17.5 260.5t-34.5 160.5h286q6 -17 12.5 -43.5t11.5 -55.5t9 -57l8 -47q38 54 80.5 95.5t85.5 70t85 43.5t77 15q73 0 124.5 -31.5t84 -85t47 -124t14.5 -149.5l-232 -37q-5 71 -34 114t-96 43q-26 0 -58.5 -23t-63.5 -59t-57.5 -83.5t-40.5 -95.5v-551
h-291zM1009 1664l-416 -416h-250l302 416h364z" />
    <glyph glyph-name="Rcaron" unicode="&#x158;" horiz-adv-x="1435" 
d="M468 452q0 -76 1 -145q0 -69 1.5 -127t4.5 -104t9 -76h-328q11 62 13.5 180t2.5 272v737q0 73 -2 135.5t-5 112.5t-9 81q81 2 168 6q75 2 167.5 3.5t184.5 1.5q122 0 222 -27.5t172 -83.5t112 -140t40 -196q0 -87 -24 -156t-66 -123t-100 -92t-126 -62l72 -101l91 -126
l98 -135l93 -127l76 -102q33 -42 47 -58h-369l-401 608h-145v-156zM468 832h161q69 0 123.5 12.5t93 41t59.5 75.5t21 115q0 118 -74 168.5t-212 50.5q-31 0 -53.5 -0.5t-42.5 -1t-37.5 -1.5t-38.5 -2v-458zM1152 2111l-301 -416h-312l-302 416h250l208 -239l208 239h249z
" />
    <glyph glyph-name="rcaron" unicode="&#x159;" horiz-adv-x="1034" 
d="M151 0v640q0 154 -17.5 260.5t-34.5 160.5h286q6 -17 12.5 -43.5t11.5 -55.5t9 -57l8 -47q38 54 80.5 95.5t85.5 70t85 43.5t77 15q73 0 124.5 -31.5t84 -85t47 -124t14.5 -149.5l-232 -37q-5 71 -34 114t-96 43q-26 0 -58.5 -23t-63.5 -59t-57.5 -83.5t-40.5 -95.5v-551
h-291zM1038 1664l-302 -416h-312l-301 416h249l208 -239l208 239h250z" />
    <glyph glyph-name="Sacute" unicode="&#x15a;" horiz-adv-x="1292" 
d="M1071 1175q-61 31 -113 53.5t-101 37t-98 22t-104 7.5q-49 0 -89.5 -15t-70 -39t-46 -55t-16.5 -63q0 -33 12 -59.5t47 -51t98 -50t166 -57.5q104 -32 184 -73t134 -93.5t82 -118t28 -147.5q0 -111 -44.5 -203t-121 -157.5t-178 -102t-216.5 -36.5q-81 0 -158 10.5
t-145 29t-126 44t-101 56.5l52 286q112 -90 232 -130.5t246 -40.5q51 0 98 14t83 40.5t58 65t22 88.5q0 32 -13 61t-51.5 57.5t-107.5 59t-183 66.5q-122 39 -199 83.5t-121 96.5t-59.5 112t-15.5 129q0 47 13.5 98t41 100t70.5 93t101.5 78t134.5 53.5t170 19.5
q66 0 124 -5t112.5 -16.5t107 -29t108.5 -42.5zM1077 2111l-416 -416h-249l301 416h364z" />
    <glyph glyph-name="sacute" unicode="&#x15b;" horiz-adv-x="1076" 
d="M901 750l-67 32q-37 18 -81 32.5t-93.5 24.5t-103.5 10q-45 0 -76 -8.5t-49.5 -21t-27 -28.5t-8.5 -32q0 -19 7 -33.5t28.5 -27t63 -23.5t109.5 -25q81 -17 153 -41.5t126 -62t85 -91.5t31 -127q0 -75 -35 -139.5t-96 -112.5t-143.5 -75t-177.5 -27q-70 0 -135 9.5
t-122 26t-104 38.5t-81 46l57 253q39 -31 87.5 -57t100.5 -44.5t104 -28.5t98 -10q37 0 67.5 8t52.5 21.5t34.5 30t12.5 35.5q0 22 -10.5 42t-37.5 37.5t-74.5 34.5t-122.5 33q-111 23 -180.5 54.5t-109 70t-54.5 82.5t-15 93q0 25 9 59.5t29.5 71.5t54 73t84 64.5
t118.5 46.5t158 18q63 0 118 -7.5t102 -19.5t85.5 -27t68.5 -30zM988 1664l-416 -416h-250l302 416h364z" />
    <glyph glyph-name="Scircumflex" unicode="&#x15c;" horiz-adv-x="1292" 
d="M1071 1175q-61 31 -113 53.5t-101 37t-98 22t-104 7.5q-49 0 -89.5 -15t-70 -39t-46 -55t-16.5 -63q0 -33 12 -59.5t47 -51t98 -50t166 -57.5q104 -32 184 -73t134 -93.5t82 -118t28 -147.5q0 -111 -44.5 -203t-121 -157.5t-178 -102t-216.5 -36.5q-81 0 -158 10.5
t-145 29t-126 44t-101 56.5l52 286q112 -90 232 -130.5t246 -40.5q51 0 98 14t83 40.5t58 65t22 88.5q0 32 -13 61t-51.5 57.5t-107.5 59t-183 66.5q-122 39 -199 83.5t-121 96.5t-59.5 112t-15.5 129q0 47 13.5 98t41 100t70.5 93t101.5 78t134.5 53.5t170 19.5
q66 0 124 -5t112.5 -16.5t107 -29t108.5 -42.5zM849 1695l-208 239l-208 -239h-250l302 416h312l301 -416h-249z" />
    <glyph glyph-name="scircumflex" unicode="&#x15d;" horiz-adv-x="1076" 
d="M901 750l-67 32q-37 18 -81 32.5t-93.5 24.5t-103.5 10q-45 0 -76 -8.5t-49.5 -21t-27 -28.5t-8.5 -32q0 -19 7 -33.5t28.5 -27t63 -23.5t109.5 -25q81 -17 153 -41.5t126 -62t85 -91.5t31 -127q0 -75 -35 -139.5t-96 -112.5t-143.5 -75t-177.5 -27q-70 0 -135 9.5
t-122 26t-104 38.5t-81 46l57 253q39 -31 87.5 -57t100.5 -44.5t104 -28.5t98 -10q37 0 67.5 8t52.5 21.5t34.5 30t12.5 35.5q0 22 -10.5 42t-37.5 37.5t-74.5 34.5t-122.5 33q-111 23 -180.5 54.5t-109 70t-54.5 82.5t-15 93q0 25 9 59.5t29.5 71.5t54 73t84 64.5
t118.5 46.5t158 18q63 0 118 -7.5t102 -19.5t85.5 -27t68.5 -30zM759 1248l-208 239l-208 -239h-249l301 416h312l302 -416h-250z" />
    <glyph glyph-name="Scedilla" unicode="&#x15e;" horiz-adv-x="1292" 
d="M1071 1175q-61 31 -113 53.5t-101 37t-98 22t-104 7.5q-49 0 -89.5 -15t-70 -39t-46 -55t-16.5 -63q0 -33 12 -59.5t47 -51t98 -50t166 -57.5q104 -32 184 -73t134 -93.5t82 -118t28 -147.5q0 -111 -44.5 -203t-121 -157.5t-178.5 -102.5q-65 -24 -137 -31v-88
q10 2 21 3.5t29 1.5q39 0 71.5 -13t55 -36.5t35 -56t12.5 -71.5q0 -53 -24.5 -95.5t-63.5 -72t-88.5 -45.5t-99.5 -16q-41 0 -85 12t-76 30l10 135q23 -17 56 -26.5t69 -9.5q23 0 46 5.5t40 17t28 27.5t11 38q0 33 -27.5 55.5t-66.5 22.5q-29 0 -58 -6t-46 -15v200
q-43 3 -86 8q-77 11 -145 29.5t-126 44t-101 56.5l52 286q112 -90 232 -130.5t246 -40.5q51 0 98 14t83 40.5t58 65t22 88.5q0 32 -13 61t-51.5 57.5t-107.5 59t-183 66.5q-122 39 -199 83.5t-121 96.5t-59.5 112t-15.5 129q0 47 13.5 98t41 100t70.5 93t101.5 78
t134.5 53.5t170 19.5q66 0 124 -5t112.5 -16.5t107 -29t108.5 -42.5z" />
    <glyph glyph-name="scedilla" unicode="&#x15f;" horiz-adv-x="1076" 
d="M901 750l-67 32q-37 18 -81 32.5t-93.5 24.5t-103.5 10q-45 0 -76 -8.5t-49.5 -21t-27 -28.5t-8.5 -32q0 -19 7 -33.5t28.5 -27t63 -23.5t109.5 -25q81 -17 153 -41.5t126 -62t85 -91.5t31 -127q0 -75 -35 -139.5t-96 -112.5t-144 -75q-59 -19 -125 -25v-85q10 2 21 3.5
t29 1.5q39 0 71.5 -13t55 -36.5t35 -56t12.5 -71.5q0 -53 -24.5 -95.5t-63.5 -72t-88.5 -45.5t-99.5 -16q-41 0 -85 12t-76 30l10 135q23 -17 56 -26.5t69 -9.5q23 0 46 5.5t40 17t28 27.5t11 38q0 33 -27.5 55.5t-66.5 22.5q-29 0 -58 -6t-46 -15v203q-19 2 -36 4
q-65 10 -122 26.5t-104 38.5t-81 46l57 253q39 -31 87.5 -57t100.5 -44.5t104 -28.5t98 -10q37 0 67.5 8t52.5 21.5t34.5 30t12.5 35.5q0 22 -10.5 42t-37.5 37.5t-74.5 34.5t-122.5 33q-111 23 -180.5 54.5t-109 70t-54.5 82.5t-15 93q0 25 9 59.5t29.5 71.5t54 73t84 64.5
t118.5 46.5t158 18q63 0 118 -7.5t102 -19.5t85.5 -27t68.5 -30z" />
    <glyph glyph-name="Scaron" unicode="&#x160;" horiz-adv-x="1292" 
d="M1071 1175q-61 31 -113 53.5t-101 37t-98 22t-104 7.5q-49 0 -89.5 -15t-70 -39t-46 -55t-16.5 -63q0 -33 12 -59.5t47 -51t98 -50t166 -57.5q104 -32 184 -73t134 -93.5t82 -118t28 -147.5q0 -111 -44.5 -203t-121 -157.5t-178 -102t-216.5 -36.5q-81 0 -158 10.5
t-145 29t-126 44t-101 56.5l52 286q112 -90 232 -130.5t246 -40.5q51 0 98 14t83 40.5t58 65t22 88.5q0 32 -13 61t-51.5 57.5t-107.5 59t-183 66.5q-122 39 -199 83.5t-121 96.5t-59.5 112t-15.5 129q0 47 13.5 98t41 100t70.5 93t101.5 78t134.5 53.5t170 19.5
q66 0 124 -5t112.5 -16.5t107 -29t108.5 -42.5zM1107 2111l-302 -416h-312l-302 416h250l208 -239l208 239h250z" />
    <glyph glyph-name="scaron" unicode="&#x161;" horiz-adv-x="1076" 
d="M901 750l-67 32q-37 18 -81 32.5t-93.5 24.5t-103.5 10q-45 0 -76 -8.5t-49.5 -21t-27 -28.5t-8.5 -32q0 -19 7 -33.5t28.5 -27t63 -23.5t109.5 -25q81 -17 153 -41.5t126 -62t85 -91.5t31 -127q0 -75 -35 -139.5t-96 -112.5t-143.5 -75t-177.5 -27q-70 0 -135 9.5
t-122 26t-104 38.5t-81 46l57 253q39 -31 87.5 -57t100.5 -44.5t104 -28.5t98 -10q37 0 67.5 8t52.5 21.5t34.5 30t12.5 35.5q0 22 -10.5 42t-37.5 37.5t-74.5 34.5t-122.5 33q-111 23 -180.5 54.5t-109 70t-54.5 82.5t-15 93q0 25 9 59.5t29.5 71.5t54 73t84 64.5
t118.5 46.5t158 18q63 0 118 -7.5t102 -19.5t85.5 -27t68.5 -30zM1017 1664l-301 -416h-312l-302 416h250l208 -239l208 239h249z" />
    <glyph glyph-name="Tcedilla" unicode="&#x162;" horiz-adv-x="1326" 
d="M1269 1518v-260q-56 14 -116.5 17.5t-123.5 3.5h-225v-849q0 -146 3.5 -258.5t17.5 -171.5h-105v-109q10 2 21 3.5t29 1.5q39 0 71.5 -13t54.5 -36.5t34.5 -56t12.5 -71.5q0 -53 -24.5 -95.5t-63.5 -72t-88 -45.5t-99 -16q-41 0 -85 12t-77 30l11 135q23 -17 55.5 -26.5
t69.5 -9.5q23 0 45.5 5.5t40 17t28 27.5t10.5 38q0 33 -27.5 55.5t-65.5 22.5q-29 0 -58 -6t-46 -15v224h-82q13 59 17 171.5t4 258.5v849h-221q-62 0 -123 -3.5t-117 -17.5v260h1222z" />
    <glyph glyph-name="tcedilla" unicode="&#x163;" horiz-adv-x="920" 
d="M520 837v-357q0 -88 7.5 -140.5t23.5 -80.5t41 -36.5t60 -8.5q40 0 89 20t112 58v-233q-75 -47 -144 -65q-51 -15 -95 -19v-84q10 2 21 3.5t29 1.5q39 0 71.5 -13t54.5 -36.5t34.5 -56t12.5 -71.5q0 -53 -24.5 -95.5t-63.5 -72t-88 -45.5t-99 -16q-41 0 -85 12t-77 30
l11 135q23 -17 55.5 -26.5t69.5 -9.5q22 0 45 5.5t40.5 17t28 27.5t10.5 38q0 33 -27.5 55.5t-65.5 22.5q-29 0 -58.5 -6t-45.5 -15v208l-17 5q-64 13 -112.5 48.5t-76.5 94t-28 149.5v556h-198v208h198v328h291v-328h317v-208h-317z" />
    <glyph glyph-name="Tcaron" unicode="&#x164;" horiz-adv-x="1326" 
d="M1269 1518v-260q-56 14 -116.5 17.5t-123.5 3.5h-225v-849q0 -146 3.5 -258.5t17.5 -171.5h-338q13 59 17 171.5t4 258.5v849h-221q-62 0 -123 -3.5t-117 -17.5v260h1222zM1123 2111l-301 -416h-312l-302 416h250l208 -239l208 239h249z" />
    <glyph glyph-name="Utilde" unicode="&#x168;" horiz-adv-x="1549" 
d="M1368 1518q-11 -62 -13.5 -176t-2.5 -276v-530q0 -127 -37 -230.5t-111 -177.5t-183.5 -114t-256.5 -40t-258.5 40t-185.5 114t-111 177.5t-37 230.5v530q0 154 -3 272t-13 180h312v-936q0 -84 14 -152.5t48 -117t91 -74.5t143 -26q85 0 141 26t90 74.5t47.5 117
t13.5 152.5v936h312zM340 1685q0 62 17 118.5t48.5 99.5t74 68.5t94.5 25.5q51 0 103.5 -16t114.5 -39l54 -21l42.5 -14.5t37 -10t36.5 -3.5t32.5 8t22.5 21.5t15.5 30.5t9.5 33h161q0 -67 -17.5 -124.5t-49.5 -99t-76 -65t-97 -23.5q-49 0 -92.5 13.5t-98.5 37.5
q-66 27 -111.5 40t-79.5 13q-19 0 -33 -8t-23.5 -21.5t-15.5 -30.5t-8 -33h-161z" />
    <glyph glyph-name="utilde" unicode="&#x169;" horiz-adv-x="1294" 
d="M931 0l-16 39q-8 22 -16 47t-14.5 52t-10.5 54q-93 -107 -192 -162.5t-206 -55.5q-325 0 -325 447v307q0 50 -0.5 90.5t-2.5 78.5t-6.5 77.5t-11.5 86.5h312v-577q0 -71 7 -122t23.5 -84t43.5 -48.5t66 -15.5q36 0 76 21t77 53.5t67 71t46 75.5v293q0 51 -0.5 92t-3 78.5
t-6.5 76t-11 86.5h312v-593q0 -152 17 -266t50 -202h-275zM218 1238q0 62 17.5 118t48.5 99.5t73.5 69t94.5 25.5q51 0 103.5 -16.5t115.5 -39.5l53 -20q24 -9 43 -15t37 -9.5t36.5 -3.5t32 8t23 21.5t15.5 30.5t9 33h162q0 -67 -18 -124.5t-49.5 -99t-76 -65t-97.5 -23.5
q-49 0 -92.5 13.5t-98.5 37.5q-66 27 -111.5 40t-78.5 13q-20 0 -34 -8t-23.5 -21.5t-15 -30.5t-7.5 -33h-162z" />
    <glyph glyph-name="Umacron" unicode="&#x16a;" horiz-adv-x="1549" 
d="M1368 1518q-11 -62 -13.5 -176t-2.5 -276v-530q0 -127 -37 -230.5t-111 -177.5t-183.5 -114t-256.5 -40t-258.5 40t-185.5 114t-111 177.5t-37 230.5v530q0 154 -3 272t-13 180h312v-936q0 -84 14 -152.5t48 -117t91 -74.5t143 -26q85 0 141 26t90 74.5t47.5 117
t13.5 152.5v936h312zM330 1955h863v-218h-863v218z" />
    <glyph glyph-name="umacron" unicode="&#x16b;" horiz-adv-x="1294" 
d="M931 0l-16 39q-8 22 -16 47t-14.5 52t-10.5 54q-93 -107 -192 -162.5t-206 -55.5q-325 0 -325 447v307q0 50 -0.5 90.5t-2.5 78.5t-6.5 77.5t-11.5 86.5h312v-577q0 -71 7 -122t23.5 -84t43.5 -48.5t66 -15.5q36 0 76 21t77 53.5t67 71t46 75.5v293q0 51 -0.5 92t-3 78.5
t-6.5 76t-11 86.5h312v-593q0 -152 17 -266t50 -202h-275zM208 1508h863v-218h-863v218z" />
    <glyph glyph-name="Ubreve" unicode="&#x16c;" horiz-adv-x="1549" 
d="M1368 1518q-11 -62 -13.5 -176t-2.5 -276v-530q0 -127 -37 -230.5t-111 -177.5t-183.5 -114t-256.5 -40t-258.5 40t-185.5 114t-111 177.5t-37 230.5v530q0 154 -3 272t-13 180h312v-936q0 -84 14 -152.5t48 -117t91 -74.5t143 -26q85 0 141 26t90 74.5t47.5 117
t13.5 152.5v936h312zM1182 2059q0 -76 -30 -152t-85.5 -136.5t-133 -99t-172.5 -38.5t-172.5 38.5t-133 99t-85.5 136.5t-30 152h187q8 -47 29.5 -87t53 -69t70.5 -45.5t81 -16.5q44 0 82.5 16.5t69 45.5t52 69t30.5 87h187z" />
    <glyph glyph-name="ubreve" unicode="&#x16d;" horiz-adv-x="1294" 
d="M931 0l-16 39q-8 22 -16 47t-14.5 52t-10.5 54q-93 -107 -192 -162.5t-206 -55.5q-325 0 -325 447v307q0 50 -0.5 90.5t-2.5 78.5t-6.5 77.5t-11.5 86.5h312v-577q0 -71 7 -122t23.5 -84t43.5 -48.5t66 -15.5q36 0 76 21t77 53.5t67 71t46 75.5v293q0 51 -0.5 92t-3 78.5
t-6.5 76t-11 86.5h312v-593q0 -152 17 -266t50 -202h-275zM1061 1612q0 -76 -30.5 -152t-86 -136.5t-133 -99t-171.5 -38.5q-96 0 -173.5 38.5t-132.5 99t-85.5 136.5t-30.5 152h188q7 -47 29 -87t53 -69t70 -45.5t82 -16.5t81.5 16.5t69.5 45.5t52 69t31 87h187z" />
    <glyph glyph-name="Uring" unicode="&#x16e;" horiz-adv-x="1549" 
d="M1368 1518q-11 -62 -13.5 -176t-2.5 -276v-530q0 -127 -37 -230.5t-111 -177.5t-183.5 -114t-256.5 -40t-258.5 40t-185.5 114t-111 177.5t-37 230.5v530q0 154 -3 272t-13 180h312v-936q0 -84 14 -152.5t48 -117t91 -74.5t143 -26q85 0 141 26t90 74.5t47.5 117
t13.5 152.5v936h312zM509 1903q0 54 19 100.5t53.5 79t80.5 51.5t101 19q54 0 101 -19t81.5 -51.5t53.5 -79t19 -100.5q0 -55 -19 -100.5t-53.5 -78.5t-81.5 -51.5t-101 -18.5q-55 0 -101 18.5t-80.5 51.5t-53.5 78.5t-19 100.5zM862 1903.5q0 43.5 -27.5 71t-71 27.5
t-71 -27.5t-27.5 -71t27.5 -71.5t71 -28t71 28t27.5 71.5z" />
    <glyph glyph-name="uring" unicode="&#x16f;" horiz-adv-x="1294" 
d="M931 0l-16 39q-8 22 -16 47t-14.5 52t-10.5 54q-93 -107 -192 -162.5t-206 -55.5q-325 0 -325 447v307q0 50 -0.5 90.5t-2.5 78.5t-6.5 77.5t-11.5 86.5h312v-577q0 -71 7 -122t23.5 -84t43.5 -48.5t66 -15.5q36 0 76 21t77 53.5t67 71t46 75.5v293q0 51 -0.5 92t-3 78.5
t-6.5 76t-11 86.5h312v-593q0 -152 17 -266t50 -202h-275zM387 1456q0 54 19 100.5t53.5 79t81 51.5t101.5 19q54 0 100.5 -19t81 -51.5t53.5 -79t19 -100.5q0 -55 -19 -101t-53.5 -78.5t-81 -51.5t-100.5 -19q-55 0 -101.5 19t-81 51.5t-53.5 78.5t-19 101zM740 1456
q0 44 -27.5 71.5t-71 27.5t-71 -27.5t-27.5 -71.5t27.5 -71.5t71 -27.5t71 27.5t27.5 71.5z" />
    <glyph glyph-name="Udblacute" unicode="&#x170;" horiz-adv-x="1549" 
d="M1368 1518q-11 -62 -13.5 -176t-2.5 -276v-530q0 -127 -37 -230.5t-111 -177.5t-183.5 -114t-256.5 -40t-258.5 40t-185.5 114t-111 177.5t-37 230.5v530q0 154 -3 272t-13 180h312v-936q0 -84 14 -152.5t48 -117t91 -74.5t143 -26q85 0 141 26t90 74.5t47.5 117
t13.5 152.5v936h312zM1335 2111l-312 -416h-218l218 416h312zM909 2111l-312 -416h-218l218 416h312z" />
    <glyph glyph-name="udblacute" unicode="&#x171;" horiz-adv-x="1294" 
d="M931 0l-16 39q-8 22 -16 47t-14.5 52t-10.5 54q-93 -107 -192 -162.5t-206 -55.5q-325 0 -325 447v307q0 50 -0.5 90.5t-2.5 78.5t-6.5 77.5t-11.5 86.5h312v-577q0 -71 7 -122t23.5 -84t43.5 -48.5t66 -15.5q36 0 76 21t77 53.5t67 71t46 75.5v293q0 51 -0.5 92t-3 78.5
t-6.5 76t-11 86.5h312v-593q0 -152 17 -266t50 -202h-275zM1214 1664l-312 -416h-219l219 416h312zM787 1664l-312 -416h-218l218 416h312z" />
    <glyph glyph-name="Wcircumflex" unicode="&#x174;" horiz-adv-x="2220" 
d="M636 264l321 1254h270l330 -1255l284 1255h322l-24 -67l-26 -79l-31 -100l-38 -133l-323 -1139h-327l-302 1139l-296 -1139h-328l-317 1139l-38 131l-30 102q-14 46 -26.5 80.5t-25.5 65.5h323zM1302 1695l-208 239l-208 -239h-250l302 416h312l302 -416h-250z" />
    <glyph glyph-name="wcircumflex" unicode="&#x175;" horiz-adv-x="1632" 
d="M941 1061l193 -765l163 765h299l-32 -106l-26 -91l-25 -84l-26 -88l-192 -692h-302l-177 723l-176 -723h-302l-192 692l-24 82l-25 84l-27 94l-34 109h300l163 -765l193 765h249zM1024 1248l-208 239l-208 -239h-249l301 416h312l302 -416h-250z" />
    <glyph glyph-name="Ycircumflex" unicode="&#x176;" horiz-adv-x="1418" 
d="M371 1518l334 -618l332 618h335l-81 -118l-65 -102l-57 -94l-57 -96l-264 -447v-209q0 -153 2 -271.5t13 -180.5h-327q11 62 13 180.5t2 271.5v210l-260 446l-59 100l-60 98l-66 102q-36 52 -80 110h345zM907 1695l-208 239l-208 -239h-250l302 416h312l301 -416h-249z
" />
    <glyph glyph-name="ycircumflex" unicode="&#x177;" horiz-adv-x="1144" 
d="M733 0q-55 -151 -109.5 -246t-113 -149t-121.5 -74t-134 -20q-72 0 -140 23t-125 66l72 226q17 -13 39.5 -27t48 -25t52.5 -18.5t53 -7.5q23 0 47 8.5t49 33.5t53 70.5t59 120.5l-276 711q-28 71 -67 159t-99 210h325l250 -756q13 50 30 108l34 122l36 125l34 122l78 279
h326l-49 -112l-41 -97q-19 -45 -34 -84.5t-27 -75.5zM796 1248l-208 239l-208 -239h-250l302 416h312l301 -416h-249z" />
    <glyph glyph-name="Ydieresis" unicode="&#x178;" horiz-adv-x="1418" 
d="M371 1518l334 -618l332 618h335l-81 -118l-65 -102l-57 -94l-57 -96l-264 -447v-209q0 -153 2 -271.5t13 -180.5h-327q11 62 13 180.5t2 271.5v210l-260 446l-59 100l-60 98l-66 102q-36 52 -80 110h345zM262 1888q0 39 13.5 72.5t38 58t58 38t73 13.5t72.5 -13.5
t57.5 -38t38 -58t13.5 -72.5q0 -41 -13.5 -74.5t-38 -57.5t-57.5 -37t-72.5 -13t-73 13t-58 37t-38 57.5t-13.5 74.5zM772 1888q0 39 13.5 72.5t38 58t57.5 38t72.5 13.5t73 -13.5t58 -38t38 -58t13.5 -72.5q0 -41 -13.5 -74.5t-38 -57.5t-58 -37t-73 -13t-72.5 13t-57.5 37
t-38 57.5t-13.5 74.5z" />
    <glyph glyph-name="Zacute" unicode="&#x179;" horiz-adv-x="1300" 
d="M1180 1336l-748 -1097h327q153 0 271.5 5t181.5 16v-260h-1144v166l757 1113h-243q-84 0 -152.5 -0.5t-123.5 -3t-98.5 -6.5t-77.5 -11v260h1050v-182zM1097 2111l-416 -416h-249l301 416h364z" />
    <glyph glyph-name="zacute" unicode="&#x17a;" horiz-adv-x="1102" 
d="M998 1061v-150l-551 -687h338q56 0 114 2t115 13v-239h-915v165l541 672h-349q-47 0 -89.5 -2t-71.5 -13v239h868zM998 1664l-416 -416h-249l301 416h364z" />
    <glyph glyph-name="Zdot" unicode="&#x17b;" horiz-adv-x="1300" 
d="M1180 1336l-748 -1097h327q153 0 271.5 5t181.5 16v-260h-1144v166l757 1113h-243q-84 0 -152.5 -0.5t-123.5 -3t-98.5 -6.5t-77.5 -11v260h1050v-182zM494 1888q0 39 13.5 72.5t38 58t57.5 38t73 13.5t73 -13.5t57.5 -38t38 -58t13.5 -72.5q0 -41 -13.5 -74.5t-38 -57.5
t-57.5 -37t-73 -13t-73 13t-57.5 37t-38 57.5t-13.5 74.5z" />
    <glyph glyph-name="zdot" unicode="&#x17c;" horiz-adv-x="1102" 
d="M998 1061v-150l-551 -687h338q56 0 114 2t115 13v-239h-915v165l541 672h-349q-47 0 -89.5 -2t-71.5 -13v239h868zM395 1440q0 40 13.5 73t38 57.5t58 38t73 13.5t72.5 -13.5t57.5 -38t38 -57.5t13.5 -73t-13.5 -73.5t-38 -58t-57.5 -37.5t-72.5 -13t-73 13t-58 37.5
t-38 58t-13.5 73.5z" />
    <glyph glyph-name="Zcaron" unicode="&#x17d;" horiz-adv-x="1300" 
d="M1180 1336l-748 -1097h327q153 0 271.5 5t181.5 16v-260h-1144v166l757 1113h-243q-84 0 -152.5 -0.5t-123.5 -3t-98.5 -6.5t-77.5 -11v260h1050v-182zM1126 2111l-301 -416h-312l-302 416h250l208 -239l208 239h249z" />
    <glyph glyph-name="zcaron" unicode="&#x17e;" horiz-adv-x="1102" 
d="M998 1061v-150l-551 -687h338q56 0 114 2t115 13v-239h-915v165l541 672h-349q-47 0 -89.5 -2t-71.5 -13v239h868zM1028 1664l-302 -416h-312l-302 416h250l208 -239l208 239h250z" />
    <glyph glyph-name="Bhook" unicode="&#x181;" horiz-adv-x="1826" 
d="M64 833q-11 22 -22.5 51t-21 60.5t-15 63t-5.5 58.5q0 119 42.5 206t121.5 144t190.5 85t247.5 28h423q126 0 231.5 -19.5t182.5 -63.5t120.5 -116t43.5 -176q0 -63 -19.5 -114t-52.5 -91t-77.5 -68.5t-95.5 -48.5q58 -16 116 -42.5t103.5 -71t74.5 -110.5t29 -161
q0 -97 -38 -180.5t-116 -145.5t-199 -96.5t-286 -34.5q-90 0 -179 1.5t-161 3.5q-84 2 -160 5q6 31 9 80t4.5 110.5t1.5 132.5v981q-65 -2 -120 -16.5t-94.5 -42t-62 -68.5t-22.5 -95q0 -34 3.5 -61t11 -51t16.5 -45t21 -43zM854 229q26 -2 79 -3.5t131 -1.5q68 0 128.5 12
t106 40t72 74.5t26.5 117.5q0 107 -89 161.5t-253 54.5h-201v-455zM854 1304v-394h161q149 0 226.5 56.5t77.5 163.5q0 48 -21.5 81t-63 53.5t-101.5 30t-138 9.5h-141z" />
    <glyph glyph-name="Oopen" unicode="&#x186;" horiz-adv-x="1440" 
d="M203 1385q88 77 216 118t278 41q132 0 246 -53.5t198 -152.5t132 -240.5t48 -317.5q0 -201 -56.5 -352t-152 -252t-222 -151.5t-266.5 -50.5q-68 0 -138.5 14.5t-134 40.5t-115.5 61t-83 75l150 232q31 -37 71 -68.5t85 -53.5t95 -34t101 -12q78 0 145 32t117 97.5
t78.5 164.5t28.5 231q0 126 -24 225t-70.5 168.5t-114 106t-155.5 36.5q-51 0 -104.5 -12t-105 -35.5t-99 -57.5t-86.5 -77z" />
    <glyph glyph-name="Dafrican" unicode="&#x189;" horiz-adv-x="1560" 
d="M187 888v301q0 73 -1.5 135.5t-4.5 112.5t-9 81q22 1 58 3t79 3t91 2t96 1l93 1q44 1 82 1q72 0 156.5 -10.5t170.5 -40t165.5 -82t141.5 -137t98.5 -205t36.5 -284.5q0 -155 -36 -273t-97 -204.5t-141 -145t-168 -93.5q-44 -18 -88.5 -30.5t-89.5 -19.5
q-91 -14 -171 -14h-61q-34 1 -73 1l-79 2l-78 2q-90 2 -186 5q6 31 8.5 80t4 110.5t2 133.5t0.5 149v197h-176v218h176zM484 888h354v-218h-354v-430q30 -3 79 -6.5t111 -3.5q87 0 170.5 28t148.5 90t104.5 160.5t39.5 240.5q0 155 -34 260t-94.5 169t-145 91t-185.5 27
q-22 0 -48.5 -0.5t-53.5 -1.5t-51.5 -1.5t-40.5 -1.5v-403z" />
    <glyph glyph-name="Dhook" unicode="&#x18a;" horiz-adv-x="1930" 
d="M64 833q-11 22 -22.5 51t-21 60.5t-15 63t-5.5 58.5q0 119 42.5 206t121.5 144t190.5 85t247.5 28h439q72 0 156.5 -10.5t170.5 -40t165.5 -82t141.5 -137t99 -205t37 -284.5q0 -155 -36.5 -273t-97.5 -204.5t-141 -145t-168 -93.5t-178.5 -49.5t-170.5 -14.5
q-27 0 -61 0.5t-72.5 1t-79.5 1.5l-78 2q-89 2 -186 5q6 31 9 80t4.5 110.5t1.5 132.5v972q-65 -1 -120 -14t-94.5 -39.5t-62 -66t-22.5 -93.5q0 -34 3.5 -61t11 -51t16.5 -45t21 -43zM854 1295v-1055q30 -3 79 -6.5t111 -3.5q88 0 171 28t148 90t104.5 160.5t39.5 240.5
q0 155 -34 260t-94 168.5t-145 90.5t-186 27h-194z" />
    <glyph glyph-name="Ereversed" unicode="&#x18e;" horiz-adv-x="1260" 
d="M792 910v369h-646v239h958q-11 -62 -13 -180t-2 -272v-614q0 -154 2 -272t13 -180h-990v255q62 -12 161 -14t249 -2h268v437h-568v234h568z" />
    <glyph glyph-name="Schwa" unicode="&#x18f;" horiz-adv-x="1492" 
d="M387 640q12 -96 41 -172.5t72 -129.5t98 -81t120 -28q66 0 125 27.5t105.5 80t78.5 129t43 174.5h-683zM177 1373q48 38 112 69.5t134.5 54t144 35t139.5 12.5q155 0 279 -54t209.5 -155t131.5 -244t46 -321q0 -188 -55 -335.5t-147.5 -250t-213 -156.5t-250.5 -54
q-127 0 -239.5 51t-198.5 150t-136 243t-50 331q0 17 0.5 36.5t2.5 34.5l4 33h980q-11 104 -43 185t-83.5 137t-120 85.5t-152.5 29.5q-58 0 -118.5 -13.5t-118.5 -39t-110.5 -61t-94.5 -79.5z" />
    <glyph glyph-name="Eopen" unicode="&#x190;" horiz-adv-x="1227" 
d="M1004 1180q-52 37 -99 59.5t-92 34.5t-89.5 16.5t-89.5 4.5q-37 0 -71.5 -11t-60 -32t-41 -51.5t-15.5 -70.5q0 -60 29 -103t77.5 -71t110.5 -41.5t127 -13.5v-217q-39 0 -84.5 -4t-89.5 -14.5t-85 -28t-72.5 -44t-50 -63.5t-18.5 -86q0 -53 20.5 -93t54 -67t78 -40.5
t91.5 -13.5q54 0 112.5 13.5t114.5 39t107 61t93 78.5l41 -274q-46 -43 -110.5 -74.5t-135.5 -53.5t-142 -33t-132 -11q-130 0 -222.5 37.5t-151.5 98.5t-86.5 136.5t-27.5 153.5q0 76 22 141t61 115t92.5 84.5t115.5 49.5q-52 20 -94 55.5t-72 82.5t-46.5 102.5
t-16.5 113.5q0 65 29 135.5t89.5 129.5t152.5 97t218 38q66 0 121 -5.5t101.5 -17t89.5 -29t88 -41.5z" />
    <glyph glyph-name="florin" unicode="&#x192;" horiz-adv-x="832" 
d="M840 1375q-16 15 -37 27.5t-43.5 21.5t-44.5 13.5t-41 4.5q-75 0 -109.5 -55t-34.5 -182v-160h266v-208h-266v-821q0 -244 -107.5 -374.5t-333.5 -130.5q-36 0 -74.5 8.5t-73.5 21.5t-63 27.5t-44 26.5l64 243l37 -25q20 -13 43 -24t49 -17.5t54 -6.5q47 0 77.5 14
t48.5 39.5t25 61t7 78.5v879h-208v208h208v172q0 117 28 205t81 146.5t129 87.5t173 29q29 0 63 -6t67.5 -15.5t65 -23t54.5 -28.5z" />
    <glyph glyph-name="Iotaafrican" unicode="&#x196;" horiz-adv-x="910" 
d="M473 463q0 -62 11 -104t29.5 -69t43.5 -39t53 -12q38 0 71 10t63 26.5t54.5 37t43.5 41.5l26 -275q-18 -16 -50 -34t-71 -34t-82 -26.5t-84 -10.5q-202 0 -303 109.5t-101 322.5v608q0 76 -0.5 150t-2 140t-5 122.5t-8.5 97.5h312v-1061z" />
    <glyph glyph-name="Istroke" unicode="&#x197;" horiz-adv-x="1076" 
d="M385 886v419h-250v213h796v-213h-250v-419h254v-213h-254v-460h250v-213h-796v213h250v460h-256v213h256z" />
    <glyph glyph-name="Khook" unicode="&#x198;" horiz-adv-x="1462" 
d="M468 876l328 398q62 75 115 127t104.5 83.5t104.5 45.5t113 14q75 0 149 -26.5t143 -87.5l-115 -208q-28 29 -51 45.5t-43.5 25t-40.5 10.5t-42 2q-33 0 -65 -15t-65 -42t-69 -66l-76 -85l-262 -299l718 -798h-384l-562 683v-683h-312q11 62 13.5 180t2.5 272v614
q0 154 -2.5 272t-13.5 180h312v-642z" />
    <glyph glyph-name="khook" unicode="&#x199;" horiz-adv-x="1183" 
d="M917 1378q-32 16 -61 28t-58 19.5t-59 11t-63 3.5q-68 0 -114 -25.5t-75 -69.5t-42 -104t-13 -128v-442l320 390h390l-497 -465l528 -596h-382l-359 499v-499h-292v1092q0 139 35 249t103.5 186.5t172 117t241.5 40.5q74 0 154 -18.5t168 -61.5z" />
    <glyph glyph-name="lbar" unicode="&#x19a;" horiz-adv-x="858" 
d="M279 978v197q0 152 -5.5 275.5t-15.5 213.5h312v-686h243v-214h-243v-270q0 -50 1.5 -117.5t4 -137t6.5 -133t9 -106.5h-312v764h-241v214h241z" />
    <glyph glyph-name="Nhookleft" unicode="&#x19d;" horiz-adv-x="1606" 
d="M442 1046v-952q0 -151 -28.5 -261t-84 -181.5t-137.5 -106t-187 -34.5q-37 0 -75 7t-73 18.5t-65 27.5t-52 34l99 230q11 -8 26.5 -17.5t35 -17.5t43 -14t50.5 -6q44 0 77.5 14t56 47t33.5 87t11 134v1011q0 154 -2.5 272t-13.5 180h286l697 -1047v1047h286
q-5 -31 -8.5 -76.5t-5 -103.5t-2 -126.5t-0.5 -145.5v-1066h-270z" />
    <glyph glyph-name="Ocenteredtilde" unicode="&#x19f;" horiz-adv-x="1560" 
d="M1150 876q-13 97 -47 174t-83.5 130t-113 81.5t-136.5 28.5q-77 0 -142.5 -29t-116.5 -82.5t-85 -130.5t-45 -172h769zM381 662q12 -100 45 -181t84 -137t116.5 -85.5t143.5 -29.5q73 0 139.5 29t117 84.5t84.5 136.5t44 183h-774zM1440 770q0 -125 -26 -232.5
t-71.5 -196t-109 -157t-139.5 -115t-161 -71t-174 -24.5q-134 0 -255 51t-212 150t-144.5 243t-53.5 331t56.5 334.5t151.5 250t219 156.5t259 54q133 0 252.5 -51t210 -149.5t144 -242.5t53.5 -331z" />
    <glyph glyph-name="Ohorn" unicode="&#x1a0;" horiz-adv-x="1746" 
d="M1144 744q0 126 -27.5 227.5t-77.5 172.5t-118.5 108.5t-151 37.5t-152 -36t-120 -103t-79 -162.5t-28.5 -213.5q0 -126 27.5 -227t78 -172t120 -109t154.5 -38q78 0 146 34.5t119 101.5t80 162t29 217zM1440 770q0 -125 -26 -232.5t-71.5 -196t-109 -157t-139.5 -115
t-161 -71t-174 -24.5q-134 0 -255 51t-212 150t-144.5 243t-53.5 331t56.5 334.5t151.5 250t219 156.5t259 54q139 0 263.5 -55.5t215.5 -163.5q52 23 92.5 56t67.5 71t41 78.5t14 78.5h-177v125q0 29 13 58.5t38 53.5t62 39t84 15q45 0 80.5 -16t60.5 -44.5t38.5 -69
t13.5 -88.5q0 -86 -26 -158.5t-72 -133.5t-108 -110t-135 -84q44 -87 69 -194t25 -232z" />
    <glyph glyph-name="ohorn" unicode="&#x1a1;" horiz-adv-x="1428" 
d="M385 527q0 -75 14 -133.5t41.5 -100t68.5 -63.5t94 -22q50 0 90.5 22t69 63.5t44 100t15.5 133.5q0 150 -56 235.5t-163 85.5q-50 0 -90.5 -22t-69 -63.5t-43.5 -101t-15 -134.5zM1009 1238q0 29 13 58.5t38 53.5t62 39t84 15q45 0 80.5 -16t60.5 -44.5t38.5 -69.5
t13.5 -88q0 -80 -23 -150t-64.5 -128.5t-98.5 -106.5t-123 -84q11 -44 17 -91t6 -99q0 -134 -41.5 -237.5t-113 -173.5t-166 -106t-199.5 -36q-110 0 -201.5 36t-158 106t-103 173.5t-36.5 237.5t41.5 237.5t112.5 174t166 107t200 36.5q138 0 245 -56t172 -165
q37 25 66 55.5t49 63.5t30 67t10 66h-177v125z" />
    <glyph glyph-name="Esh" unicode="&#x1a9;" horiz-adv-x="1300" 
d="M411 239h348q153 0 271.5 5t181.5 16v-260h-1144v166l414 609l-383 561v182h1050v-260q-34 7 -77 11t-98.5 6.5t-124 3t-152.5 0.5h-243l344 -503z" />
    <glyph glyph-name="eshreversedloop" unicode="&#x1aa;" horiz-adv-x="1041" 
d="M381 1090q34 0 62 15.5t48 40.5t30.5 57.5t10.5 65.5q0 41 -11.5 74.5t-32 56.5t-48.5 35.5t-59 12.5q-35 0 -62.5 -14.5t-47 -39t-30 -57t-10.5 -68.5q0 -40 11 -72.5t30.5 -56t47 -37t61.5 -13.5zM497 891q-29 -16 -65 -26.5t-72 -10.5q-79 0 -148.5 26.5t-120.5 78
t-81.5 126.5t-30.5 170q0 92 29 170.5t82.5 136t128 90.5t167.5 33q90 0 165 -29.5t129.5 -83.5t85 -128.5t30.5 -166.5q0 -39 -3 -110l-7 -162l-11 -196q-5 -105 -12 -212l-12 -208q-5 -101 -10 -188t-7.5 -150t-2.5 -93q0 -43 8.5 -78.5t27 -61t48 -39.5t72.5 -14
q29 0 56.5 8t52 20.5t46.5 27.5l39 27l64 -242q-18 -15 -47 -31t-65.5 -30.5t-76.5 -24t-77 -9.5q-121 0 -203.5 39t-133.5 101.5t-73.5 139.5t-22.5 152q0 38 2 100t7 139l9 165q5 89 11 181q6 93 11 185q6 93 11 178z" />
    <glyph glyph-name="Uhorn" unicode="&#x1af;" horiz-adv-x="1747" 
d="M1351 1746q0 29 14.5 59t40.5 53.5t62.5 39t80.5 15.5t79.5 -16.5t60.5 -45t38.5 -69t13.5 -88.5q0 -72 -23.5 -152.5t-72 -159.5t-121 -150.5t-172.5 -124.5v-571q0 -127 -35.5 -230.5t-108 -177.5t-183.5 -114t-261 -40q-151 0 -262.5 40t-185 114t-109 177.5
t-35.5 230.5v530q0 154 -3 272t-13 180h312v-936q0 -84 14 -152.5t48 -117t91 -74.5t143 -26q85 0 141 26t90 74.5t47.5 117t13.5 152.5v936h296v-234q41 44 71.5 88t52 86.5t31.5 81t10 71.5h-166v135z" />
    <glyph glyph-name="uhorn" unicode="&#x1b0;" horiz-adv-x="1640" 
d="M1203 1238q0 29 13 58.5t38 53.5t62 39t85 15q45 0 80 -16t60 -44.5t38.5 -69.5t13.5 -88q0 -101 -35.5 -185t-97.5 -151t-145 -116.5t-176 -80.5v-185q0 -152 17 -266t50 -202h-275l-15 39q-9 22 -17 47t-14.5 52t-10.5 54q-93 -107 -192 -162.5t-206 -55.5
q-325 0 -325 447v307q0 50 -0.5 90.5t-2.5 78.5t-6.5 77.5t-11.5 86.5h312v-577q0 -71 7 -122t23.5 -84t43.5 -48.5t66 -15.5q36 0 76 21t77 53.5t67 71t46 75.5v293q0 51 -0.5 92t-3 78.5t-6.5 76t-11 86.5h312v-244q59 22 104 55.5t75.5 73.5t46 83t15.5 84h-177v125z" />
    <glyph glyph-name="Upsilonafrican" unicode="&#x1b1;" horiz-adv-x="1633" 
d="M570 1276q-78 -101 -121 -239t-43 -293q0 -127 31 -223.5t85 -161.5t127 -97.5t156 -32.5q88 0 161 34t125.5 97.5t81 153t28.5 198.5q0 166 -40.5 312t-123.5 253v241h461v-254q-34 6 -90 8.5t-128 4.5q46 -50 86 -108.5t69 -126.5t46 -143.5t17 -160.5
q0 -121 -26.5 -225t-74 -189t-112.5 -150.5t-142 -109.5t-163.5 -67t-174.5 -23q-134 0 -259.5 48.5t-222.5 142.5t-155.5 233t-58.5 320q0 87 17.5 166t48 149.5t71.5 131.5t89 113q-74 -2 -132.5 -5t-93.5 -9v254h461v-242z" />
    <glyph glyph-name="Vhook" unicode="&#x1b2;" horiz-adv-x="1622" 
d="M823 1481q49 27 109 45t146 18q116 0 197 -46t133 -123.5t76 -178t24 -208.5q0 -111 -21.5 -229.5t-63 -231t-104 -213.5t-145 -176.5t-185.5 -119.5t-225 -44q-151 0 -262.5 40t-185 114t-109 177.5t-35.5 230.5v530q0 154 -3 272t-13 180h312v-936q0 -84 14 -152.5
t48 -117t91 -74.5t143 -26q56 0 110.5 25t105 72.5t93.5 116.5t75 156.5t50.5 193t18.5 226.5q0 64 -7 116.5t-23 90t-44.5 57.5t-72.5 20q-84 0 -169 -48z" />
    <glyph glyph-name="Yhook" unicode="&#x1b3;" horiz-adv-x="1603" 
d="M721 0q11 62 13 180t2 272v231l-215 362l-72 120q-31 49 -57 80.5t-50 46t-51 14.5q-25 0 -49 -12t-42 -33t-29 -50.5t-11 -63.5l-212 70q0 53 24 111.5t69 108t111 81.5t150 32q59 0 108.5 -13t93.5 -44.5t85 -83t84 -127.5l215 -387l334 623h335l-81 -118l-66 -102
l-56 -94l-57 -96l-264 -447v-209q0 -153 2 -271.5t13 -180.5h-327z" />
    <glyph glyph-name="yhook" unicode="&#x1b4;" horiz-adv-x="1411" 
d="M1331 1107q0 21 -6.5 43.5t-20 41t-34.5 30t-48 11.5q-37 0 -65.5 -18t-53.5 -62.5t-51 -119.5t-60 -189l-42 -137l-47 -153l-50 -158l-49 -153l-45 -135l-36 -108q-53 -152 -107.5 -247t-113.5 -149t-123 -73.5t-135 -19.5t-139.5 23t-125.5 66l73 226q17 -13 39 -27
t47.5 -25t52.5 -18.5t53 -7.5q23 0 47 8.5t49.5 33.5t53 70.5t58.5 120.5l-275 711q-28 71 -67 159t-100 210h316l249 -767l37 121l42 142l46 150l44 145l38 126l30 93q30 90 69.5 164.5t92 128.5t118.5 83.5t149 29.5q74 0 132.5 -26t99 -68t62.5 -97t22 -111z" />
    <glyph glyph-name="Ezh" unicode="&#x1b7;" horiz-adv-x="1357" 
d="M846 1279h-243q-84 0 -151 -0.5t-120 -3t-94.5 -6.5t-76.5 -11v260h1040v-182l-534 -611q71 0 135.5 -12t120.5 -33.5t101 -50t79 -62.5q32 -31 61.5 -72.5t53 -95t37.5 -120.5t14 -149q0 -135 -53 -248.5t-142.5 -195.5t-206 -128.5t-243.5 -46.5q-74 0 -145 11.5
t-136 32.5t-122 49.5t-101 62.5v295q55 -38 114.5 -73.5t124 -62.5t134 -43.5t141.5 -16.5q76 0 140 29t110 78.5t71.5 115.5t25.5 141q0 76 -25.5 141t-72.5 112.5t-114 74.5t-150 27q-62 0 -136.5 -4t-149.5 -12v232z" />
    <glyph glyph-name="Acaron" unicode="&#x1cd;" horiz-adv-x="1544" 
d="M547 593h426l-214 684zM1044 369h-566l-114 -369h-310q14 31 28 65.5t29 77.5l34 97l44 129l385 1149h370l385 -1149l44 -128l35 -98l30 -77l26 -66h-304zM1227 2111l-301 -416h-312l-302 416h250l208 -239l208 239h249z" />
    <glyph glyph-name="acaron" unicode="&#x1ce;" 
d="M801 494q-16 0 -44.5 -2t-60.5 -5t-63 -7l-51 -5q-54 -6 -89.5 -19t-57.5 -31.5t-31 -42t-9 -49.5q0 -25 10.5 -47t29 -38t45 -25.5t59 -9.5t63 5.5t62.5 22t65.5 47t71.5 81.5v125zM884 0l-25 59q-16 38 -27 81q-88 -88 -183 -127t-186 -39q-78 0 -144 26.5t-113.5 70.5
t-74.5 102.5t-27 122.5q0 60 20 121t67.5 112.5t127.5 89t201 49.5q27 3 68 6l83 6q42 2 78 4t52 2v52q0 59 -66.5 85t-183.5 26q-83 0 -164.5 -33t-173.5 -97q0 16 1 48.5t2 71t4 78.5l4 71l90 34q46 17 96.5 30t107 21.5t122.5 8.5q102 0 185.5 -22.5t143 -61.5t91.5 -92
t32 -116v-405q0 -113 20 -205.5t53 -179.5h-281zM1100 1664l-301 -416h-312l-302 416h250l208 -239l208 239h249z" />
    <glyph glyph-name="Icaron" unicode="&#x1cf;" horiz-adv-x="1086" 
d="M931 1518v-213h-250v-1092h250v-213h-796v213h250v1092h-250v213h796zM1007 2111l-302 -416h-312l-301 416h249l208 -239l208 239h250z" />
    <glyph glyph-name="icaron" unicode="&#x1d0;" horiz-adv-x="670" 
d="M478 1061v-567q0 -50 2 -118t4.5 -138t6 -133t8.5 -105h-312v551q0 76 -0.5 150t-2 140t-4.5 122.5t-8 97.5h306zM799 1664l-302 -416h-312l-301 416h249l208 -239l208 239h250z" />
    <glyph glyph-name="Ocaron" unicode="&#x1d1;" horiz-adv-x="1560" 
d="M1440 770q0 -125 -26 -232.5t-71.5 -196t-109 -157t-139.5 -115t-161 -71t-174 -24.5q-134 0 -255 51t-212 150t-144.5 243t-53.5 331t56.5 334.5t151.5 250t219 156.5t259 54q133 0 252.5 -51t210 -149.5t144 -242.5t53.5 -331zM1144 744q0 126 -27.5 227.5t-77.5 172.5
t-118.5 108.5t-151 37.5t-152 -36t-120 -103t-79 -162.5t-28.5 -213.5q0 -126 27.5 -227t78 -172t120 -109t154.5 -38q78 0 146 34.5t119 101.5t80 162t29 217zM1236 2111l-302 -416h-312l-302 416h250l208 -239l208 239h250z" />
    <glyph glyph-name="ocaron" unicode="&#x1d2;" horiz-adv-x="1206" 
d="M385 527q0 -75 14 -133.5t41.5 -100t68.5 -63.5t94 -22q50 0 90.5 22t69 63.5t44 100t15.5 133.5q0 150 -56 235.5t-163 85.5q-50 0 -90.5 -22t-69 -63.5t-43.5 -101t-15 -134.5zM94 527q0 134 41.5 237.5t112.5 174t166 107t200 36.5q110 0 202 -36.5t158 -107
t102.5 -174t36.5 -237.5t-41.5 -237.5t-113 -173.5t-166 -106t-199.5 -36q-110 0 -201.5 36t-158 106t-103 173.5t-36.5 237.5zM1069 1664l-301 -416h-312l-302 416h250l208 -239l208 239h249z" />
    <glyph glyph-name="Ucaron" unicode="&#x1d3;" horiz-adv-x="1549" 
d="M1368 1518q-11 -62 -13.5 -176t-2.5 -276v-530q0 -127 -37 -230.5t-111 -177.5t-183.5 -114t-256.5 -40t-258.5 40t-185.5 114t-111 177.5t-37 230.5v530q0 154 -3 272t-13 180h312v-936q0 -84 14 -152.5t48 -117t91 -74.5t143 -26q85 0 141 26t90 74.5t47.5 117
t13.5 152.5v936h312zM1227 2111l-301 -416h-312l-302 416h250l208 -239l208 239h249z" />
    <glyph glyph-name="ucaron" unicode="&#x1d4;" horiz-adv-x="1294" 
d="M931 0l-16 39q-8 22 -16 47t-14.5 52t-10.5 54q-93 -107 -192 -162.5t-206 -55.5q-325 0 -325 447v307q0 50 -0.5 90.5t-2.5 78.5t-6.5 77.5t-11.5 86.5h312v-577q0 -71 7 -122t23.5 -84t43.5 -48.5t66 -15.5q36 0 76 21t77 53.5t67 71t46 75.5v293q0 51 -0.5 92t-3 78.5
t-6.5 76t-11 86.5h312v-593q0 -152 17 -266t50 -202h-275zM1106 1664l-302 -416h-312l-302 416h250l208 -239l208 239h250z" />
    <glyph glyph-name="Udieresismacron" unicode="&#x1d5;" horiz-adv-x="1549" 
d="M1368 1518q-11 -62 -13.5 -176t-2.5 -276v-530q0 -127 -37 -230.5t-111 -177.5t-183.5 -114t-256.5 -40t-258.5 40t-185.5 114t-111 177.5t-37 230.5v530q0 154 -3 272t-13 180h312v-936q0 -84 14 -152.5t48 -117t91 -74.5t143 -26q85 0 141 26t90 74.5t47.5 117
t13.5 152.5v936h312zM324 1888q0 39 14 72.5t38 58t57.5 38t73 13.5t73 -13.5t57.5 -38t37.5 -58t13.5 -72.5q0 -41 -13.5 -74.5t-37.5 -57.5t-57.5 -37t-73 -13t-73 13t-57.5 37t-38 57.5t-14 74.5zM834 1888q0 39 13.5 72.5t38 58t58 38t73 13.5t72.5 -13.5t57.5 -38
t38 -58t13.5 -72.5q0 -41 -13.5 -74.5t-38 -57.5t-57.5 -37t-72.5 -13t-73 13t-58 37t-38 57.5t-13.5 74.5zM330 2460h863v-219h-863v219z" />
    <glyph glyph-name="udieresismacron" unicode="&#x1d6;" horiz-adv-x="1294" 
d="M931 0l-16 39q-8 22 -16 47t-14.5 52t-10.5 54q-93 -107 -192 -162.5t-206 -55.5q-325 0 -325 447v307q0 50 -0.5 90.5t-2.5 78.5t-6.5 77.5t-11.5 86.5h312v-577q0 -71 7 -122t23.5 -84t43.5 -48.5t66 -15.5q36 0 76 21t77 53.5t67 71t46 75.5v293q0 51 -0.5 92t-3 78.5
t-6.5 76t-11 86.5h312v-593q0 -152 17 -266t50 -202h-275zM203 1440q0 40 13.5 73t38 57.5t57.5 38t72.5 13.5t73 -13.5t58 -38t38 -57.5t13.5 -73t-13.5 -73.5t-38 -58t-58 -37.5t-73 -13t-72.5 13t-57.5 37.5t-38 58t-13.5 73.5zM712 1440q0 40 13.5 73t38 57.5t58 38
t73 13.5t72.5 -13.5t57.5 -38t38 -57.5t13.5 -73t-13.5 -73.5t-38 -58t-57.5 -37.5t-72.5 -13t-73 13t-58 37.5t-38 58t-13.5 73.5zM208 2012h863v-218h-863v218z" />
    <glyph glyph-name="Udieresisacute" unicode="&#x1d7;" horiz-adv-x="1549" 
d="M1368 1518q-11 -62 -13.5 -176t-2.5 -276v-530q0 -127 -37 -230.5t-111 -177.5t-183.5 -114t-256.5 -40t-258.5 40t-185.5 114t-111 177.5t-37 230.5v530q0 154 -3 272t-13 180h312v-936q0 -84 14 -152.5t48 -117t91 -74.5t143 -26q85 0 141 26t90 74.5t47.5 117
t13.5 152.5v936h312zM324 1888q0 39 14 72.5t38 58t57.5 38t73 13.5t73 -13.5t57.5 -38t37.5 -58t13.5 -72.5q0 -41 -13.5 -74.5t-37.5 -57.5t-57.5 -37t-73 -13t-73 13t-57.5 37t-38 57.5t-14 74.5zM834 1888q0 39 13.5 72.5t38 58t58 38t73 13.5t72.5 -13.5t57.5 -38
t38 -58t13.5 -72.5q0 -41 -13.5 -74.5t-38 -57.5t-57.5 -37t-72.5 -13t-73 13t-58 37t-38 57.5t-13.5 74.5zM1198 2616l-416 -416h-250l302 416h364z" />
    <glyph glyph-name="udieresisacute" unicode="&#x1d8;" horiz-adv-x="1294" 
d="M931 0l-16 39q-8 22 -16 47t-14.5 52t-10.5 54q-93 -107 -192 -162.5t-206 -55.5q-325 0 -325 447v307q0 50 -0.5 90.5t-2.5 78.5t-6.5 77.5t-11.5 86.5h312v-577q0 -71 7 -122t23.5 -84t43.5 -48.5t66 -15.5q36 0 76 21t77 53.5t67 71t46 75.5v293q0 51 -0.5 92t-3 78.5
t-6.5 76t-11 86.5h312v-593q0 -152 17 -266t50 -202h-275zM203 1440q0 40 13.5 73t38 57.5t57.5 38t72.5 13.5t73 -13.5t58 -38t38 -57.5t13.5 -73t-13.5 -73.5t-38 -58t-58 -37.5t-73 -13t-72.5 13t-57.5 37.5t-38 58t-13.5 73.5zM712 1440q0 40 13.5 73t38 57.5t58 38
t73 13.5t72.5 -13.5t57.5 -38t38 -57.5t13.5 -73t-13.5 -73.5t-38 -58t-57.5 -37.5t-72.5 -13t-73 13t-58 37.5t-38 58t-13.5 73.5zM1076 2168l-416 -416h-249l301 416h364z" />
    <glyph glyph-name="Udieresiscaron" unicode="&#x1d9;" horiz-adv-x="1549" 
d="M1368 1518q-11 -62 -13.5 -176t-2.5 -276v-530q0 -127 -37 -230.5t-111 -177.5t-183.5 -114t-256.5 -40t-258.5 40t-185.5 114t-111 177.5t-37 230.5v530q0 154 -3 272t-13 180h312v-936q0 -84 14 -152.5t48 -117t91 -74.5t143 -26q85 0 141 26t90 74.5t47.5 117
t13.5 152.5v936h312zM324 1888q0 39 14 72.5t38 58t57.5 38t73 13.5t73 -13.5t57.5 -38t37.5 -58t13.5 -72.5q0 -41 -13.5 -74.5t-37.5 -57.5t-57.5 -37t-73 -13t-73 13t-57.5 37t-38 57.5t-14 74.5zM834 1888q0 39 13.5 72.5t38 58t58 38t73 13.5t72.5 -13.5t57.5 -38
t38 -58t13.5 -72.5q0 -41 -13.5 -74.5t-38 -57.5t-57.5 -37t-72.5 -13t-73 13t-58 37t-38 57.5t-13.5 74.5zM1227 2616l-301 -416h-312l-302 416h250l208 -240l208 240h249z" />
    <glyph glyph-name="udieresiscaron" unicode="&#x1da;" horiz-adv-x="1294" 
d="M931 0l-16 39q-8 22 -16 47t-14.5 52t-10.5 54q-93 -107 -192 -162.5t-206 -55.5q-325 0 -325 447v307q0 50 -0.5 90.5t-2.5 78.5t-6.5 77.5t-11.5 86.5h312v-577q0 -71 7 -122t23.5 -84t43.5 -48.5t66 -15.5q36 0 76 21t77 53.5t67 71t46 75.5v293q0 51 -0.5 92t-3 78.5
t-6.5 76t-11 86.5h312v-593q0 -152 17 -266t50 -202h-275zM203 1440q0 40 13.5 73t38 57.5t57.5 38t72.5 13.5t73 -13.5t58 -38t38 -57.5t13.5 -73t-13.5 -73.5t-38 -58t-58 -37.5t-73 -13t-72.5 13t-57.5 37.5t-38 58t-13.5 73.5zM712 1440q0 40 13.5 73t38 57.5t58 38
t73 13.5t72.5 -13.5t57.5 -38t38 -57.5t13.5 -73t-13.5 -73.5t-38 -58t-57.5 -37.5t-72.5 -13t-73 13t-58 37.5t-38 58t-13.5 73.5zM1106 2168l-302 -416h-312l-302 416h250l208 -239l208 239h250z" />
    <glyph glyph-name="Udieresisgrave" unicode="&#x1db;" horiz-adv-x="1549" 
d="M1368 1518q-11 -62 -13.5 -176t-2.5 -276v-530q0 -127 -37 -230.5t-111 -177.5t-183.5 -114t-256.5 -40t-258.5 40t-185.5 114t-111 177.5t-37 230.5v530q0 154 -3 272t-13 180h312v-936q0 -84 14 -152.5t48 -117t91 -74.5t143 -26q85 0 141 26t90 74.5t47.5 117
t13.5 152.5v936h312zM324 1888q0 39 14 72.5t38 58t57.5 38t73 13.5t73 -13.5t57.5 -38t37.5 -58t13.5 -72.5q0 -41 -13.5 -74.5t-37.5 -57.5t-57.5 -37t-73 -13t-73 13t-57.5 37t-38 57.5t-14 74.5zM834 1888q0 39 13.5 72.5t38 58t58 38t73 13.5t72.5 -13.5t57.5 -38
t38 -58t13.5 -72.5q0 -41 -13.5 -74.5t-38 -57.5t-57.5 -37t-72.5 -13t-73 13t-58 37t-38 57.5t-13.5 74.5zM688 2616l302 -416h-250l-416 416h364z" />
    <glyph glyph-name="udieresisgrave" unicode="&#x1dc;" horiz-adv-x="1294" 
d="M931 0l-16 39q-8 22 -16 47t-14.5 52t-10.5 54q-93 -107 -192 -162.5t-206 -55.5q-325 0 -325 447v307q0 50 -0.5 90.5t-2.5 78.5t-6.5 77.5t-11.5 86.5h312v-577q0 -71 7 -122t23.5 -84t43.5 -48.5t66 -15.5q36 0 76 21t77 53.5t67 71t46 75.5v293q0 51 -0.5 92t-3 78.5
t-6.5 76t-11 86.5h312v-593q0 -152 17 -266t50 -202h-275zM203 1440q0 40 13.5 73t38 57.5t57.5 38t72.5 13.5t73 -13.5t58 -38t38 -57.5t13.5 -73t-13.5 -73.5t-38 -58t-58 -37.5t-73 -13t-72.5 13t-57.5 37.5t-38 58t-13.5 73.5zM712 1440q0 40 13.5 73t38 57.5t58 38
t73 13.5t72.5 -13.5t57.5 -38t38 -57.5t13.5 -73t-13.5 -73.5t-38 -58t-57.5 -37.5t-72.5 -13t-73 13t-58 37.5t-38 58t-13.5 73.5zM567 2168l301 -416h-249l-416 416h364z" />
    <glyph glyph-name="eturned" unicode="&#x1dd;" horiz-adv-x="1128" 
d="M114 957q49 34 95.5 57.5t92.5 38.5t93.5 22t99.5 7q107 0 205 -35.5t172 -105t118.5 -172.5t44.5 -239q0 -126 -34.5 -229t-99.5 -175.5t-157 -112t-207 -39.5q-88 0 -154 21.5t-115 58t-81 87t-52 109.5t-28 123.5t-8 128.5v19q0 11 0.5 23.5t0.5 24.5v19h648
q-14 134 -83.5 194t-195.5 60q-88 0 -169 -28.5t-164 -96.5zM551 192q82 0 130 48.5t64 159.5h-381q0 -110 47.5 -159t139.5 -49z" />
    <glyph glyph-name="Adieresismacron" unicode="&#x1de;" horiz-adv-x="1544" 
d="M547 593h426l-214 684zM1044 369h-566l-114 -369h-310q14 31 28 65.5t29 77.5l34 97l44 129l385 1149h370l385 -1149l44 -128l35 -98l30 -77l26 -66h-304zM324 1888q0 39 14 72.5t38 58t57.5 38t73 13.5t73 -13.5t57.5 -38t37.5 -58t13.5 -72.5q0 -41 -13.5 -74.5
t-37.5 -57.5t-57.5 -37t-73 -13t-73 13t-57.5 37t-38 57.5t-14 74.5zM834 1888q0 39 13.5 72.5t38 58t58 38t73 13.5t72.5 -13.5t57.5 -38t38 -58t13.5 -72.5q0 -41 -13.5 -74.5t-38 -57.5t-57.5 -37t-72.5 -13t-73 13t-58 37t-38 57.5t-13.5 74.5zM330 2460h863v-219h-863
v219z" />
    <glyph glyph-name="adieresismacron" unicode="&#x1df;" 
d="M801 494q-16 0 -44.5 -2t-60.5 -5t-63 -7l-51 -5q-54 -6 -89.5 -19t-57.5 -31.5t-31 -42t-9 -49.5q0 -25 10.5 -47t29 -38t45 -25.5t59 -9.5t63 5.5t62.5 22t65.5 47t71.5 81.5v125zM884 0l-25 59q-16 38 -27 81q-88 -88 -183 -127t-186 -39q-78 0 -144 26.5t-113.5 70.5
t-74.5 102.5t-27 122.5q0 60 20 121t67.5 112.5t127.5 89t201 49.5q27 3 68 6l83 6q42 2 78 4t52 2v52q0 59 -66.5 85t-183.5 26q-83 0 -164.5 -33t-173.5 -97q0 16 1 48.5t2 71t4 78.5l4 71l90 34q46 17 96.5 30t107 21.5t122.5 8.5q102 0 185.5 -22.5t143 -61.5t91.5 -92
t32 -116v-405q0 -113 20 -205.5t53 -179.5h-281zM198 1440q0 40 13.5 73t38 57.5t57.5 38t72.5 13.5t73 -13.5t58 -38t38 -57.5t13.5 -73t-13.5 -73.5t-38 -58t-58 -37.5t-73 -13t-72.5 13t-57.5 37.5t-38 58t-13.5 73.5zM707 1440q0 40 13.5 73t38 57.5t58 38t73 13.5
t72.5 -13.5t57.5 -38t38 -57.5t13.5 -73t-13.5 -73.5t-38 -58t-57.5 -37.5t-72.5 -13t-73 13t-58 37.5t-38 58t-13.5 73.5zM203 2012h863v-218h-863v218z" />
    <glyph glyph-name="Adotmacron" unicode="&#x1e0;" horiz-adv-x="1544" 
d="M547 593h426l-214 684zM1044 369h-566l-114 -369h-310q14 31 28 65.5t29 77.5l34 97l44 129l385 1149h370l385 -1149l44 -128l35 -98l30 -77l26 -66h-304zM595 1888q0 39 13.5 72.5t38 58t57.5 38t72.5 13.5t73 -13.5t58 -38t38 -58t13.5 -72.5q0 -41 -13.5 -74.5
t-38 -57.5t-58 -37t-73 -13t-72.5 13t-57.5 37t-38 57.5t-13.5 74.5zM330 2428h863v-218h-863v218z" />
    <glyph glyph-name="adotmacron" unicode="&#x1e1;" 
d="M801 494q-16 0 -44.5 -2t-60.5 -5t-63 -7l-51 -5q-54 -6 -89.5 -19t-57.5 -31.5t-31 -42t-9 -49.5q0 -25 10.5 -47t29 -38t45 -25.5t59 -9.5t63 5.5t62.5 22t65.5 47t71.5 81.5v125zM884 0l-25 59q-16 38 -27 81q-88 -88 -183 -127t-186 -39q-78 0 -144 26.5t-113.5 70.5
t-74.5 102.5t-27 122.5q0 60 20 121t67.5 112.5t127.5 89t201 49.5q27 3 68 6l83 6q42 2 78 4t52 2v52q0 59 -66.5 85t-183.5 26q-83 0 -164.5 -33t-173.5 -97q0 16 1 48.5t2 71t4 78.5l4 71l90 34q46 17 96.5 30t107 21.5t122.5 8.5q102 0 185.5 -22.5t143 -61.5t91.5 -92
t32 -116v-405q0 -113 20 -205.5t53 -179.5h-281zM468 1440q0 40 13.5 73t38 57.5t57.5 38t73 13.5t73 -13.5t57.5 -38t38 -57.5t13.5 -73t-13.5 -73.5t-38 -58t-57.5 -37.5t-73 -13t-73 13t-57.5 37.5t-38 58t-13.5 73.5zM203 1981h863v-218h-863v218z" />
    <glyph glyph-name="AEmacron" unicode="&#x1e2;" horiz-adv-x="1904" 
d="M596 593h319v686zM1212 676v-437h163q150 0 248.5 2t160.5 14v-255h-884q3 18 5.5 43t4.5 66.5t3 104.5t2 155h-423l-172 -369h-310l38 66l42 76l50 98l64 129l561 1149h987v-239h-540v-369h462v-234h-462zM619 1955h863v-218h-863v218z" />
    <glyph glyph-name="aemacron" unicode="&#x1e3;" horiz-adv-x="1849" 
d="M1480 655q0 110 -47.5 159t-139.5 49q-91 0 -143.5 -48.5t-69.5 -159.5h400zM789 478q-16 -1 -45 -2l-58 -4l-58 -4q-28 -2 -46 -4q-54 -6 -89.5 -17.5t-57.5 -28.5t-31 -38t-9 -47q0 -25 10.5 -47t29 -38t45 -25.5t59.5 -9.5q29 0 58 5t58.5 19t61 39t64.5 66
q5 7 11 13.5t11 14.5q-6 30 -9.5 57t-4.5 51zM1750 78q-56 -28 -109.5 -48t-107 -32.5t-109.5 -18t-117 -5.5q-131 0 -243.5 53t-184.5 160q-10 -11 -24.5 -24.5t-22.5 -22.5q-184 -166 -369 -166q-78 0 -144 26.5t-113.5 70.5t-74.5 102.5t-27 122.5q0 60 20 119.5
t67.5 109.5t127.5 85.5t201 45.5l68 5q41 3 83 5t78 3.5t52 2.5v66q0 59 -66.5 85t-183.5 26q-83 0 -164.5 -33t-173.5 -97q0 16 1 48.5t2 71t3 78.5l5 71l90 34q46 17 96.5 30t107 21.5t122.5 8.5q109 0 194 -35t145 -95q65 62 147 96t181 34q88 0 154 -21.5t114.5 -58.5
t81 -87.5t52 -109t28 -123t8.5 -129.5v-85h-672q11 -135 77 -195t183 -60q103 0 200.5 23.5t194.5 81.5zM547 1508h863v-218h-863v218z" />
    <glyph glyph-name="Gcaron" unicode="&#x1e6;" horiz-adv-x="1530" 
d="M1390 161q-84 -56 -159 -92.5t-145 -57t-138 -29t-140 -8.5q-156 0 -287 51t-226 150t-148 243t-53 331t57.5 334.5t159 250t239.5 156.5t301 54q66 0 129.5 -5.5t127 -21t129.5 -44t138 -74.5l-90 -248q-109 77 -219.5 110.5t-223.5 33.5q-103 0 -186.5 -37t-143 -105
t-91 -164t-31.5 -214q0 -127 29 -228t83 -171.5t129.5 -108.5t168.5 -38q44 0 84 3.5t78 12.5t78 23.5t85 37.5v276h-327v234h592v-655zM1305 2111l-301 -416h-312l-302 416h250l208 -239l208 239h249z" />
    <glyph glyph-name="gcaron" unicode="&#x1e7;" horiz-adv-x="1216" 
d="M392 707q0 -39 14.5 -73.5t41 -59.5t63 -39t79.5 -14t79 14t62.5 39t41 59.5t14.5 73.5q0 36 -14.5 67t-41 55t-62.5 38t-79 14t-79.5 -14t-63 -38t-41 -55t-14.5 -67zM569 -24q-18 2 -34.5 5t-32.5 7q-52 -25 -83 -48t-48 -44.5t-22.5 -42t-5.5 -40.5q0 -22 17.5 -44.5
t52.5 -40.5t88 -30t125 -12q57 0 107.5 13t88.5 32.5t60.5 44t22.5 47.5q0 28 -16 51.5t-54.5 42.5t-103 34t-162.5 25zM1136 858q-27 -1 -55.5 -4t-58.5 -10q30 -63 30 -137q0 -84 -35 -155.5t-97 -123.5t-147 -81.5t-183 -29.5q-47 0 -91 6q-27 -14 -38 -29t-11 -29
q0 -15 14.5 -27.5t52 -24t101.5 -21.5t164 -20q116 -16 195.5 -45.5t127.5 -72.5t69.5 -98t21.5 -122q0 -57 -25 -105t-67.5 -87.5t-100.5 -71t-123 -52.5t-134 -32t-136 -11q-64 0 -130 8t-128 25.5t-116.5 43.5t-95.5 61t-64.5 80t-23.5 99q0 81 61 148.5t187 122.5
q-50 35 -70 76t-20 85q0 38 27 83t79 78q-87 50 -138 130t-51 182q0 79 35.5 149t97.5 122.5t147 83t183 30.5q81 0 151 -19.5t128 -53.5q66 30 140 48.5t137 24.5zM1056 1664l-302 -416h-312l-302 416h250l208 -239l208 239h250z" />
    <glyph glyph-name="Kcaron" unicode="&#x1e8;" horiz-adv-x="1487" 
d="M468 865l514 653h349l-639 -715l722 -803h-384l-562 682v-682h-312q11 62 13.5 180t2.5 272v614q0 154 -2.5 272t-13.5 180h312v-653zM1220 2111l-302 -416h-312l-301 416h249l208 -239l208 239h250z" />
    <glyph glyph-name="kcaron" unicode="&#x1e9;" horiz-adv-x="1183" 
d="M140 0v1175q0 169 -2 295t-13 194h307v-993l320 390h390l-497 -465l528 -596h-382l-359 499v-499h-292zM1085 2220l-302 -416h-312l-301 416h249l208 -239l208 239h250z" />
    <glyph glyph-name="Ezhcaron" unicode="&#x1ee;" horiz-adv-x="1357" 
d="M846 1279h-243q-84 0 -151 -0.5t-120 -3t-94.5 -6.5t-76.5 -11v260h1040v-182l-534 -611q71 0 135.5 -12t120.5 -33.5t101 -50t79 -62.5q32 -31 61.5 -72.5t53 -95t37.5 -120.5t14 -149q0 -135 -53 -248.5t-142.5 -195.5t-206 -128.5t-243.5 -46.5q-74 0 -145 11.5
t-136 32.5t-122 49.5t-101 62.5v295q55 -38 114.5 -73.5t124 -62.5t134 -43.5t141.5 -16.5q76 0 140 29t110 78.5t71.5 115.5t25.5 141q0 76 -25.5 141t-72.5 112.5t-114 74.5t-150 27q-62 0 -136.5 -4t-149.5 -12v232zM1138 2111l-302 -416h-312l-301 416h249l208 -239
l208 239h250z" />
    <glyph glyph-name="ezhcaron" unicode="&#x1ef;" horiz-adv-x="1049" 
d="M951 1063v-142l-424 -472q115 -1 204 -35t144 -87q24 -24 46.5 -56t41 -73.5t29.5 -93t11 -114.5q0 -105 -41.5 -192.5t-110.5 -151.5t-159 -99.5t-188 -35.5q-62 0 -122.5 10t-115.5 27t-103 38.5t-85 45.5v250q47 -26 97.5 -50t105 -43.5t112.5 -31t120 -11.5
q51 0 93 20t72.5 53.5t48 77.5t17.5 93q0 52 -20 96t-56.5 77t-88 51t-115.5 18q-47 0 -105 -3t-117 -9v211l371 416h-186q-120 0 -194 -3.5t-123 -13.5v233h841zM1010 1664l-302 -416h-312l-301 416h249l208 -239l208 239h250z" />
    <glyph glyph-name="Gacute" unicode="&#x1f4;" horiz-adv-x="1530" 
d="M1390 161q-84 -56 -159 -92.5t-145 -57t-138 -29t-140 -8.5q-156 0 -287 51t-226 150t-148 243t-53 331t57.5 334.5t159 250t239.5 156.5t301 54q66 0 129.5 -5.5t127 -21t129.5 -44t138 -74.5l-90 -248q-109 77 -219.5 110.5t-223.5 33.5q-103 0 -186.5 -37t-143 -105
t-91 -164t-31.5 -214q0 -127 29 -228t83 -171.5t129.5 -108.5t168.5 -38q44 0 84 3.5t78 12.5t78 23.5t85 37.5v276h-327v234h592v-655zM1276 2111l-416 -416h-250l302 416h364z" />
    <glyph glyph-name="gacute" unicode="&#x1f5;" horiz-adv-x="1216" 
d="M392 707q0 -39 14.5 -73.5t41 -59.5t63 -39t79.5 -14t79 14t62.5 39t41 59.5t14.5 73.5q0 36 -14.5 67t-41 55t-62.5 38t-79 14t-79.5 -14t-63 -38t-41 -55t-14.5 -67zM569 -24q-18 2 -34.5 5t-32.5 7q-52 -25 -83 -48t-48 -44.5t-22.5 -42t-5.5 -40.5q0 -22 17.5 -44.5
t52.5 -40.5t88 -30t125 -12q57 0 107.5 13t88.5 32.5t60.5 44t22.5 47.5q0 28 -16 51.5t-54.5 42.5t-103 34t-162.5 25zM1136 858q-27 -1 -55.5 -4t-58.5 -10q30 -63 30 -137q0 -84 -35 -155.5t-97 -123.5t-147 -81.5t-183 -29.5q-47 0 -91 6q-27 -14 -38 -29t-11 -29
q0 -15 14.5 -27.5t52 -24t101.5 -21.5t164 -20q116 -16 195.5 -45.5t127.5 -72.5t69.5 -98t21.5 -122q0 -57 -25 -105t-67.5 -87.5t-100.5 -71t-123 -52.5t-134 -32t-136 -11q-64 0 -130 8t-128 25.5t-116.5 43.5t-95.5 61t-64.5 80t-23.5 99q0 81 61 148.5t187 122.5
q-50 35 -70 76t-20 85q0 38 27 83t79 78q-87 50 -138 130t-51 182q0 79 35.5 149t97.5 122.5t147 83t183 30.5q81 0 151 -19.5t128 -53.5q66 30 140 48.5t137 24.5zM1026 1664l-416 -416h-249l301 416h364z" />
    <glyph glyph-name="uni01F8" unicode="&#x1f8;" horiz-adv-x="1606" 
d="M442 1046v-1046h-286q11 62 13.5 180t2.5 272v614q0 154 -2.5 272t-13.5 180h286l697 -1047v1047h286q-5 -31 -8.5 -76.5t-5 -103.5t-2 -126.5t-0.5 -145.5v-1066h-270zM723 2111l301 -416h-249l-416 416h364z" />
    <glyph glyph-name="uni01F9" unicode="&#x1f9;" horiz-adv-x="1294" 
d="M874 0v572q0 72 -9.5 121t-29.5 78.5t-50.5 42.5t-72.5 13q-44 0 -87 -20t-79 -52t-63 -71.5t-41 -80.5v-603h-291v640q0 154 -17.5 260.5t-34.5 160.5h286q6 -16 12.5 -41.5t11.5 -53t9 -54.5l8 -44q50 57 98 97.5t97 66.5t100 38t106 12q79 0 142 -27t106.5 -81.5
t66.5 -135.5t23 -188v-650h-291zM572 1664l302 -416h-250l-416 416h364z" />
    <glyph glyph-name="Aringacute" unicode="&#x1fa;" horiz-adv-x="1544" 
d="M547 593h426l-214 684zM1044 369h-566l-114 -369h-310q14 31 28 65.5t29 77.5l34 97l44 129l385 1149h370l385 -1149l44 -128l35 -98l30 -77l26 -66h-304zM509 1903q0 54 19 100.5t53.5 79t80.5 51.5t101 19q54 0 101 -19t81.5 -51.5t53.5 -79t19 -100.5
q0 -55 -19 -100.5t-53.5 -78.5t-81.5 -51.5t-101 -18.5q-55 0 -101 18.5t-80.5 51.5t-53.5 78.5t-19 100.5zM862 1903.5q0 43.5 -27.5 71t-71 27.5t-71 -27.5t-27.5 -71t27.5 -71.5t71 -28t71 28t27.5 71.5zM1200 2668l-416 -416h-249l301 416h364z" />
    <glyph glyph-name="aringacute" unicode="&#x1fb;" 
d="M801 494q-16 0 -44.5 -2t-60.5 -5t-63 -7l-51 -5q-54 -6 -89.5 -19t-57.5 -31.5t-31 -42t-9 -49.5q0 -25 10.5 -47t29 -38t45 -25.5t59 -9.5t63 5.5t62.5 22t65.5 47t71.5 81.5v125zM884 0l-25 59q-16 38 -27 81q-88 -88 -183 -127t-186 -39q-78 0 -144 26.5t-113.5 70.5
t-74.5 102.5t-27 122.5q0 60 20 121t67.5 112.5t127.5 89t201 49.5q27 3 68 6l83 6q42 2 78 4t52 2v52q0 59 -66.5 85t-183.5 26q-83 0 -164.5 -33t-173.5 -97q0 16 1 48.5t2 71t4 78.5l4 71l90 34q46 17 96.5 30t107 21.5t122.5 8.5q102 0 185.5 -22.5t143 -61.5t91.5 -92
t32 -116v-405q0 -113 20 -205.5t53 -179.5h-281zM382 1456q0 54 19 100.5t53.5 79t80.5 51.5t101 19t101.5 -19t81 -51.5t53.5 -79t19 -100.5q0 -55 -19 -101t-53.5 -78.5t-81 -51.5t-101.5 -19t-101 19t-80.5 51.5t-53.5 78.5t-19 101zM735 1456q0 44 -27.5 71.5t-71 27.5
t-71 -27.5t-27.5 -71.5t27.5 -71.5t71 -27.5t71 27.5t27.5 71.5zM1073 2220l-416 -416h-249l301 416h364z" />
    <glyph glyph-name="AEacute" unicode="&#x1fc;" horiz-adv-x="1904" 
d="M596 593h319v686zM1212 676v-437h163q150 0 248.5 2t160.5 14v-255h-884q3 18 5.5 43t4.5 66.5t3 104.5t2 155h-423l-172 -369h-310l38 66l42 76l50 98l64 129l561 1149h987v-239h-540v-369h462v-234h-462zM1487 2111l-416 -416h-249l301 416h364z" />
    <glyph glyph-name="aeacute" unicode="&#x1fd;" horiz-adv-x="1849" 
d="M1480 655q0 110 -47.5 159t-139.5 49q-91 0 -143.5 -48.5t-69.5 -159.5h400zM789 478q-16 -1 -45 -2l-58 -4l-58 -4q-28 -2 -46 -4q-54 -6 -89.5 -17.5t-57.5 -28.5t-31 -38t-9 -47q0 -25 10.5 -47t29 -38t45 -25.5t59.5 -9.5q29 0 58 5t58.5 19t61 39t64.5 66
q5 7 11 13.5t11 14.5q-6 30 -9.5 57t-4.5 51zM1750 78q-56 -28 -109.5 -48t-107 -32.5t-109.5 -18t-117 -5.5q-131 0 -243.5 53t-184.5 160q-10 -11 -24.5 -24.5t-22.5 -22.5q-184 -166 -369 -166q-78 0 -144 26.5t-113.5 70.5t-74.5 102.5t-27 122.5q0 60 20 119.5
t67.5 109.5t127.5 85.5t201 45.5l68 5q41 3 83 5t78 3.5t52 2.5v66q0 59 -66.5 85t-183.5 26q-83 0 -164.5 -33t-173.5 -97q0 16 1 48.5t2 71t3 78.5l5 71l90 34q46 17 96.5 30t107 21.5t122.5 8.5q109 0 194 -35t145 -95q65 62 147 96t181 34q88 0 154 -21.5t114.5 -58.5
t81 -87.5t52 -109t28 -123t8.5 -129.5v-85h-672q11 -135 77 -195t183 -60q103 0 200.5 23.5t194.5 81.5zM1415 1664l-416 -416h-249l301 416h364z" />
    <glyph glyph-name="Oslashacute" unicode="&#x1fe;" horiz-adv-x="1560" 
d="M1144 744q0 105 -19 191.5t-54 154.5l-458 -822q70 -39 157 -39q78 0 146 34.5t119 101.5t80 162t29 217zM390 775q0 -104 19 -191t55 -156l458 823q-70 39 -152.5 39t-152 -36t-120 -103t-79 -162.5t-28.5 -213.5zM1440 770q0 -125 -26 -232.5t-71.5 -196t-109 -157
t-139.5 -115t-161 -71t-174 -24.5q-147 0 -276 60l-66 -117h-239l133 238q-101 99 -159 247.5t-58 346.5q0 187 56.5 334.5t151.5 250t219 156.5t259 54q144 0 272 -60l62 110h239l-129 -231q99 -99 157.5 -247.5t58.5 -345.5zM1203 2111l-416 -416h-249l301 416h364z" />
    <glyph glyph-name="oslashacute" unicode="&#x1ff;" horiz-adv-x="1206" 
d="M380 527q0 -94 24 -164l256 477q-13 3 -27 5.5t-30 2.5q-50 0 -91.5 -22t-70.5 -63.5t-45 -101t-16 -134.5zM827 527q0 98 -25 169l-259 -481q26 -7 60 -7q50 0 91.5 22t71 63.5t45.5 100t16 133.5zM1047 1151l-101 -187q78 -71 122.5 -180t44.5 -257
q0 -134 -41.5 -237.5t-113 -173.5t-166 -106t-199.5 -36q-92 0 -168 25l-41 -78h-219l93 172q-78 69 -121 178t-43 256q0 134 41.5 237.5t112.5 174t166 107t200 36.5q86 0 164 -24l51 93h218zM1040 1664l-416 -416h-250l302 416h364z" />
    <glyph glyph-name="Hcaron" unicode="&#x21e;" horiz-adv-x="1575" 
d="M1394 1518q-12 -62 -14 -177t-2 -270v-624q0 -155 2 -270t14 -177h-312v660h-614v-660h-312q11 62 13.5 177t2.5 270v624q0 155 -2.5 270t-13.5 177h312v-624h614v624h312zM1241 2111l-302 -416h-312l-301 416h249l208 -239l208 239h250z" />
    <glyph glyph-name="hcaron" unicode="&#x21f;" horiz-adv-x="1284" 
d="M432 0h-292v1175q0 169 -2 295t-13 194h307v-780q38 49 85.5 86t100 62t108 37.5t111.5 12.5q317 0 317 -432v-650h-291v572q0 76 -9.5 125t-29 78t-50 40.5t-72.5 11.5q-45 0 -87.5 -20t-79 -52t-63.5 -71.5t-40 -80.5v-603zM1111 2220l-302 -416h-312l-301 416h249
l208 -239l208 239h250z" />
    <glyph glyph-name="Adotabove" unicode="&#x226;" horiz-adv-x="1544" 
d="M547 593h426l-214 684zM1044 369h-566l-114 -369h-310q14 31 28 65.5t29 77.5l34 97l44 129l385 1149h370l385 -1149l44 -128l35 -98l30 -77l26 -66h-304zM595 1888q0 39 13.5 72.5t38 58t57.5 38t72.5 13.5t73 -13.5t58 -38t38 -58t13.5 -72.5q0 -41 -13.5 -74.5
t-38 -57.5t-58 -37t-73 -13t-72.5 13t-57.5 37t-38 57.5t-13.5 74.5z" />
    <glyph glyph-name="adotabove" unicode="&#x227;" 
d="M801 494q-16 0 -44.5 -2t-60.5 -5t-63 -7l-51 -5q-54 -6 -89.5 -19t-57.5 -31.5t-31 -42t-9 -49.5q0 -25 10.5 -47t29 -38t45 -25.5t59 -9.5t63 5.5t62.5 22t65.5 47t71.5 81.5v125zM884 0l-25 59q-16 38 -27 81q-88 -88 -183 -127t-186 -39q-78 0 -144 26.5t-113.5 70.5
t-74.5 102.5t-27 122.5q0 60 20 121t67.5 112.5t127.5 89t201 49.5q27 3 68 6l83 6q42 2 78 4t52 2v52q0 59 -66.5 85t-183.5 26q-83 0 -164.5 -33t-173.5 -97q0 16 1 48.5t2 71t4 78.5l4 71l90 34q46 17 96.5 30t107 21.5t122.5 8.5q102 0 185.5 -22.5t143 -61.5t91.5 -92
t32 -116v-405q0 -113 20 -205.5t53 -179.5h-281zM468 1440q0 40 13.5 73t38 57.5t57.5 38t73 13.5t73 -13.5t57.5 -38t38 -57.5t13.5 -73t-13.5 -73.5t-38 -58t-57.5 -37.5t-73 -13t-73 13t-57.5 37.5t-38 58t-13.5 73.5z" />
    <glyph glyph-name="Ecedilla" unicode="&#x228;" horiz-adv-x="1260" 
d="M1037 910v-234h-569v-437h268q150 0 249.5 2t160.5 14v-255h-449v-109q10 2 21 3.5t29 1.5q39 0 71.5 -13t54.5 -36.5t34.5 -56t12.5 -71.5q0 -53 -24 -95.5t-63 -72t-88.5 -45.5t-99.5 -16q-41 0 -85 12t-76 30l10 135q23 -17 55.5 -26.5t69.5 -9.5q23 0 45.5 5.5t40 17
t28.5 27.5t11 38q0 33 -28 55.5t-66 22.5q-29 0 -58 -6t-46 -15v224h-390q11 62 13.5 180t2.5 272v614q0 154 -2.5 272t-13.5 180h959v-239h-647v-369h569z" />
    <glyph glyph-name="ecedilla" unicode="&#x229;" horiz-adv-x="1154" 
d="M379 468q10 -135 76 -195t184 -60q103 0 200 23.5t195 81.5l22 -240q-57 -28 -110.5 -48t-107 -32.5t-109.5 -17.5q-36 -4 -75 -5v-84q11 2 21.5 3.5t28.5 1.5q40 0 72 -13t54.5 -36.5t35 -56t12.5 -71.5q0 -53 -24.5 -95.5t-63.5 -72t-88.5 -45.5t-99.5 -16
q-40 0 -84.5 12t-76.5 30l10 135q23 -17 56 -26.5t69 -9.5q23 0 46 5.5t40 17t28 27.5t11 38q0 33 -27.5 55.5t-66.5 22.5q-29 0 -58 -6t-46 -15v208q-44 9 -88 24q-94 36 -165.5 104t-113.5 169t-42 234q0 129 35.5 233.5t103.5 179t163.5 114.5t216.5 40q87 0 153 -21.5
t114.5 -58.5t81 -87.5t52 -109t27.5 -123t8 -129.5v-18q0 -12 0.5 -24.5t0.5 -23.5v-19h-671zM598 863q-90 0 -143 -48.5t-70 -159.5h400q0 110 -47 159t-140 49z" />
    <glyph glyph-name="Odieresismacron" unicode="&#x22a;" horiz-adv-x="1560" 
d="M1440 770q0 -125 -26 -232.5t-71.5 -196t-109 -157t-139.5 -115t-161 -71t-174 -24.5q-134 0 -255 51t-212 150t-144.5 243t-53.5 331t56.5 334.5t151.5 250t219 156.5t259 54q133 0 252.5 -51t210 -149.5t144 -242.5t53.5 -331zM1144 744q0 126 -27.5 227.5t-77.5 172.5
t-118.5 108.5t-151 37.5t-152 -36t-120 -103t-79 -162.5t-28.5 -213.5q0 -126 27.5 -227t78 -172t120 -109t154.5 -38q78 0 146 34.5t119 101.5t80 162t29 217zM333 1888q0 39 13.5 72.5t38 58t57.5 38t72.5 13.5t73 -13.5t58 -38t38 -58t13.5 -72.5q0 -41 -13.5 -74.5
t-38 -57.5t-58 -37t-73 -13t-72.5 13t-57.5 37t-38 57.5t-13.5 74.5zM842 1888q0 39 13.5 72.5t38 58t58 38t73 13.5t72.5 -13.5t57.5 -38t38 -58t13.5 -72.5q0 -41 -13.5 -74.5t-38 -57.5t-57.5 -37t-72.5 -13t-73 13t-58 37t-38 57.5t-13.5 74.5zM338 2460h863v-219h-863
v219z" />
    <glyph glyph-name="odieresismacron" unicode="&#x22b;" horiz-adv-x="1206" 
d="M385 527q0 -75 14 -133.5t41.5 -100t68.5 -63.5t94 -22q50 0 90.5 22t69 63.5t44 100t15.5 133.5q0 150 -56 235.5t-163 85.5q-50 0 -90.5 -22t-69 -63.5t-43.5 -101t-15 -134.5zM94 527q0 134 41.5 237.5t112.5 174t166 107t200 36.5q110 0 202 -36.5t158 -107
t102.5 -174t36.5 -237.5t-41.5 -237.5t-113 -173.5t-166 -106t-199.5 -36q-110 0 -201.5 36t-158 106t-103 173.5t-36.5 237.5zM166 1440q0 40 13.5 73t38 57.5t58 38t73 13.5t72.5 -13.5t57.5 -38t38 -57.5t13.5 -73t-13.5 -73.5t-38 -58t-57.5 -37.5t-72.5 -13t-73 13
t-58 37.5t-38 58t-13.5 73.5zM676 1440q0 40 13.5 73t38 57.5t57.5 38t73 13.5t73 -13.5t57.5 -38t38 -57.5t13.5 -73t-13.5 -73.5t-38 -58t-57.5 -37.5t-73 -13t-73 13t-57.5 37.5t-38 58t-13.5 73.5zM172 2012h863v-218h-863v218z" />
    <glyph glyph-name="Otildemacron" unicode="&#x22c;" horiz-adv-x="1560" 
d="M1440 770q0 -125 -26 -232.5t-71.5 -196t-109 -157t-139.5 -115t-161 -71t-174 -24.5q-134 0 -255 51t-212 150t-144.5 243t-53.5 331t56.5 334.5t151.5 250t219 156.5t259 54q133 0 252.5 -51t210 -149.5t144 -242.5t53.5 -331zM1144 744q0 126 -27.5 227.5t-77.5 172.5
t-118.5 108.5t-151 37.5t-152 -36t-120 -103t-79 -162.5t-28.5 -213.5q0 -126 27.5 -227t78 -172t120 -109t154.5 -38q78 0 146 34.5t119 101.5t80 162t29 217zM348 1685q0 62 17.5 118.5t48.5 99.5t73.5 68.5t94.5 25.5q51 0 103.5 -16t115.5 -39q30 -12 53 -20l43 -15
q19 -7 37 -10.5t36.5 -3.5t32 8t23 21.5t15.5 30.5t9 33h162q0 -67 -18 -124.5t-49.5 -99t-76 -65t-97.5 -23.5q-49 0 -92.5 13.5t-98.5 37.5q-66 27 -111.5 40t-78.5 13q-20 0 -34 -8t-23.5 -21.5t-15 -30.5t-7.5 -33h-162zM338 2361h863v-219h-863v219z" />
    <glyph glyph-name="otildemacron" unicode="&#x22d;" horiz-adv-x="1206" 
d="M385 527q0 -75 14 -133.5t41.5 -100t68.5 -63.5t94 -22q50 0 90.5 22t69 63.5t44 100t15.5 133.5q0 150 -56 235.5t-163 85.5q-50 0 -90.5 -22t-69 -63.5t-43.5 -101t-15 -134.5zM94 527q0 134 41.5 237.5t112.5 174t166 107t200 36.5q110 0 202 -36.5t158 -107
t102.5 -174t36.5 -237.5t-41.5 -237.5t-113 -173.5t-166 -106t-199.5 -36q-110 0 -201.5 36t-158 106t-103 173.5t-36.5 237.5zM182 1238q0 62 17 118t48.5 99.5t74 69t94.5 25.5q51 0 103.5 -16.5t114.5 -39.5q31 -11 54 -20t42.5 -15t37 -9.5t36.5 -3.5t32.5 8t22.5 21.5
t15.5 30.5t9.5 33h161q0 -67 -17.5 -124.5t-49.5 -99t-76 -65t-97 -23.5q-49 0 -92.5 13.5t-98.5 37.5q-66 27 -111.5 40t-79.5 13q-19 0 -33.5 -8t-23.5 -21.5t-15 -30.5t-8 -33h-161zM172 1914h863v-219h-863v219z" />
    <glyph glyph-name="Odotabove" unicode="&#x22e;" horiz-adv-x="1560" 
d="M1440 770q0 -125 -26 -232.5t-71.5 -196t-109 -157t-139.5 -115t-161 -71t-174 -24.5q-134 0 -255 51t-212 150t-144.5 243t-53.5 331t56.5 334.5t151.5 250t219 156.5t259 54q133 0 252.5 -51t210 -149.5t144 -242.5t53.5 -331zM1144 744q0 126 -27.5 227.5t-77.5 172.5
t-118.5 108.5t-151 37.5t-152 -36t-120 -103t-79 -162.5t-28.5 -213.5q0 -126 27.5 -227t78 -172t120 -109t154.5 -38q78 0 146 34.5t119 101.5t80 162t29 217zM603 1888q0 39 13.5 72.5t38 58t58 38t73 13.5t72.5 -13.5t57.5 -38t38 -58t13.5 -72.5q0 -41 -13.5 -74.5
t-38 -57.5t-57.5 -37t-72.5 -13t-73 13t-58 37t-38 57.5t-13.5 74.5z" />
    <glyph glyph-name="odotabove" unicode="&#x22f;" horiz-adv-x="1206" 
d="M385 527q0 -75 14 -133.5t41.5 -100t68.5 -63.5t94 -22q50 0 90.5 22t69 63.5t44 100t15.5 133.5q0 150 -56 235.5t-163 85.5q-50 0 -90.5 -22t-69 -63.5t-43.5 -101t-15 -134.5zM94 527q0 134 41.5 237.5t112.5 174t166 107t200 36.5q110 0 202 -36.5t158 -107
t102.5 -174t36.5 -237.5t-41.5 -237.5t-113 -173.5t-166 -106t-199.5 -36q-110 0 -201.5 36t-158 106t-103 173.5t-36.5 237.5zM437 1440q0 40 13.5 73t38 57.5t57.5 38t72.5 13.5t73 -13.5t58 -38t38 -57.5t13.5 -73t-13.5 -73.5t-38 -58t-58 -37.5t-73 -13t-72.5 13
t-57.5 37.5t-38 58t-13.5 73.5z" />
    <glyph glyph-name="Odotabovemacron" unicode="&#x230;" horiz-adv-x="1560" 
d="M1440 770q0 -125 -26 -232.5t-71.5 -196t-109 -157t-139.5 -115t-161 -71t-174 -24.5q-134 0 -255 51t-212 150t-144.5 243t-53.5 331t56.5 334.5t151.5 250t219 156.5t259 54q133 0 252.5 -51t210 -149.5t144 -242.5t53.5 -331zM1144 744q0 126 -27.5 227.5t-77.5 172.5
t-118.5 108.5t-151 37.5t-152 -36t-120 -103t-79 -162.5t-28.5 -213.5q0 -126 27.5 -227t78 -172t120 -109t154.5 -38q78 0 146 34.5t119 101.5t80 162t29 217zM603 1888q0 39 13.5 72.5t38 58t58 38t73 13.5t72.5 -13.5t57.5 -38t38 -58t13.5 -72.5q0 -41 -13.5 -74.5
t-38 -57.5t-57.5 -37t-72.5 -13t-73 13t-58 37t-38 57.5t-13.5 74.5zM338 2428h863v-218h-863v218z" />
    <glyph glyph-name="odotabovemacron" unicode="&#x231;" horiz-adv-x="1206" 
d="M385 527q0 -75 14 -133.5t41.5 -100t68.5 -63.5t94 -22q50 0 90.5 22t69 63.5t44 100t15.5 133.5q0 150 -56 235.5t-163 85.5q-50 0 -90.5 -22t-69 -63.5t-43.5 -101t-15 -134.5zM94 527q0 134 41.5 237.5t112.5 174t166 107t200 36.5q110 0 202 -36.5t158 -107
t102.5 -174t36.5 -237.5t-41.5 -237.5t-113 -173.5t-166 -106t-199.5 -36q-110 0 -201.5 36t-158 106t-103 173.5t-36.5 237.5zM437 1440q0 40 13.5 73t38 57.5t57.5 38t72.5 13.5t73 -13.5t58 -38t38 -57.5t13.5 -73t-13.5 -73.5t-38 -58t-58 -37.5t-73 -13t-72.5 13
t-57.5 37.5t-38 58t-13.5 73.5zM172 1981h863v-218h-863v218z" />
    <glyph glyph-name="Ymacron" unicode="&#x232;" horiz-adv-x="1418" 
d="M371 1518l334 -618l332 618h335l-81 -118l-65 -102l-57 -94l-57 -96l-264 -447v-209q0 -153 2 -271.5t13 -180.5h-327q11 62 13 180.5t2 271.5v210l-260 446l-59 100l-60 98l-66 102q-36 52 -80 110h345zM267 1955h863v-218h-863v218z" />
    <glyph glyph-name="ymacron" unicode="&#x233;" horiz-adv-x="1144" 
d="M733 0q-55 -151 -109.5 -246t-113 -149t-121.5 -74t-134 -20q-72 0 -140 23t-125 66l72 226q17 -13 39.5 -27t48 -25t52.5 -18.5t53 -7.5q23 0 47 8.5t49 33.5t53 70.5t59 120.5l-276 711q-28 71 -67 159t-99 210h325l250 -756q13 50 30 108l34 122l36 125l34 122l78 279
h326l-49 -112l-41 -97q-19 -45 -34 -84.5t-27 -75.5zM156 1508h863v-218h-863v218z" />
    <glyph glyph-name="dotlessj" unicode="&#x237;" horiz-adv-x="696" 
d="M520 26q0 -146 -35.5 -244.5t-98 -158.5t-146.5 -86t-182 -26q-36 0 -74.5 8.5t-73.5 21.5t-63 27.5t-45 26.5l47 247q17 -17 41 -32t50.5 -26.5t54.5 -18t55 -6.5q37 0 70 16t57.5 48.5t38 81.5t13.5 116v530q0 76 -0.5 150t-2 140t-5 122.5t-8.5 97.5h307v-1035z" />
    <glyph glyph-name="Lbar" unicode="&#x23d;" horiz-adv-x="1211" 
d="M208 888v178q0 154 -2 272t-14 180h312v-630h312v-213h-312v-436h225q148 0 261.5 2t174.5 14v-255h-973q12 62 14 180t2 272v223h-177v213h177z" />
    <glyph glyph-name="Glottalstop" unicode="&#x241;" horiz-adv-x="1076" 
d="M146 1404q35 31 75 56.5t87.5 44.5t103.5 29t124 10q92 0 171.5 -24t138.5 -69t92.5 -108.5t33.5 -141.5q0 -67 -20.5 -119.5t-52.5 -98t-69.5 -88t-70.5 -89.5q-37 -52 -63.5 -93t-44 -87t-25 -103.5t-7.5 -142.5v-130q0 -58 1.5 -103.5t4.5 -81.5t9 -65h-305
q6 31 9 68.5t4.5 86t1.5 108.5v137q0 82 11 147t31 119.5t46.5 101.5t57.5 93q35 51 68.5 90t59.5 74t41.5 69t15.5 76q0 25 -12.5 47t-35.5 38t-54 25.5t-69 9.5q-85 0 -163.5 -33.5t-148.5 -95.5z" />
    <glyph glyph-name="uni0242" unicode="&#x242;" horiz-adv-x="863" 
d="M88 988q25 20 64.5 37t86.5 29.5t98 20t100 7.5q69 0 129.5 -24t104 -62.5t68.5 -87t25 -97.5q0 -68 -22.5 -117.5t-55 -88.5t-66 -71.5t-56.5 -66.5q-19 -21 -31 -39t-18 -41t-8.5 -54t-2.5 -78q0 -59 0.5 -97.5t3 -66t5 -47.5t7.5 -44h-281l8 46q3 22 5 50t2.5 68
t0.5 101q0 53 3 92.5t10 70t17.5 54.5t25.5 46q21 32 53 58l64 53q32 27 54 55t22 60q0 24 -11 42t-31 30.5t-45 19.5t-53 7q-26 0 -57 -5.5t-63 -16.5t-62.5 -29t-55.5 -43z" />
    <glyph glyph-name="uni0244" unicode="&#x244;" horiz-adv-x="1658" 
d="M822 212q84 0 140 26t90 74.5t47.5 117t13.5 152.5v114h-588v-114q0 -84 14 -152.5t48 -117t91 -74.5t144 -26zM229 909v157q0 154 -2.5 272t-13.5 180h312v-609h588v609h312q-11 -62 -13.5 -176t-2.5 -276v-157h147v-213h-147v-160q0 -127 -35.5 -230.5t-108 -177.5
t-183.5 -114t-260 -40q-152 0 -263.5 40t-184.5 114t-109 177.5t-36 230.5v160h-145v213h145z" />
    <glyph glyph-name="uni0245" unicode="&#x245;" horiz-adv-x="1523" 
d="M751 1248l-408 -1248h-317q12 32 27 67t32 79l39 102l48 132l405 1138h349l405 -1138l48 -133l38 -101l31 -79q14 -35 29 -67h-317z" />
    <glyph glyph-name="uni024A" unicode="&#x24a;" horiz-adv-x="1565" 
d="M1082 1237q-34 9 -72 17.5t-77 14t-77 9t-71 3.5q-68 0 -124 -23.5t-99 -63t-74.5 -93t-52 -113.5t-30.5 -124t-10 -126q0 -130 23 -224.5t63 -156t93 -91t112 -29.5q39 0 88.5 19.5t102.5 56t106 91t99 123.5v710zM1388 -4q0 -63 10 -103.5t27 -63.5t40 -32.5t48 -9.5
q53 0 99.5 16t93.5 46l99 -234q-67 -48 -155.5 -76t-183.5 -28q-89 0 -160.5 27.5t-121 81.5t-76 134.5t-26.5 184.5v238q-60 -58 -120 -97t-118.5 -62.5t-115 -33.5t-109.5 -10q-106 0 -201.5 49t-167 139.5t-114 218t-42.5 285.5q0 113 18 222.5t57.5 207.5t101 180
t147.5 142t199 93t255 33q75 0 139.5 -9t125.5 -25t122 -36l129 -39v-1439z" />
    <glyph glyph-name="uni024B" unicode="&#x24b;" horiz-adv-x="1284" 
d="M1113 -10q0 -70 8 -113t25.5 -67t45 -32.5t64.5 -8.5q19 0 39 6t39 14.5t35.5 19.5t29.5 23l88 -216q-21 -15 -55 -33.5t-74.5 -34.5t-85 -26.5t-84.5 -10.5q-84 0 -150 28t-111.5 79t-70 123.5t-24.5 159.5v224q-41 -42 -81 -71t-79 -46q-79 -34 -152 -34
q-72 0 -145.5 28t-134 87t-98.5 149.5t-38 213.5q0 120 31 233.5t96.5 201t168 141.5t245.5 54q59 0 120 -7t120.5 -18.5t117.5 -25.5l110 -27v-1014zM822 801q-33 14 -71 23.5t-70 9.5q-78 0 -132 -28.5t-88.5 -75.5t-50 -106t-15.5 -120q0 -77 19 -131t48.5 -87.5
t66.5 -48.5t74 -15q55 0 112 42.5t107 128.5v408z" />
    <glyph glyph-name="ascript" unicode="&#x251;" horiz-adv-x="1306" 
d="M853 828q-22 5 -63.5 13t-108.5 8q-82 0 -137 -35.5t-88 -95t-47 -135t-14 -157.5q0 -45 9 -82.5t24.5 -64.5t36.5 -42t45 -15q38 0 78.5 31.5t78.5 81.5t72 111.5t59.5 121t40 110.5t14.5 81v69zM941 0q-11 19 -21.5 58t-18.5 84t-12.5 89.5t-4.5 73.5v59
q-33 -68 -79.5 -137t-105.5 -125t-130.5 -92t-152.5 -36q-66 0 -123 29t-99 86.5t-66 142t-24 194.5q0 124 36.5 242t112.5 210t193.5 148t278.5 56q113 0 224.5 -13t200.5 -34v-484q0 -196 19 -330t49 -221h-277z" />
    <glyph glyph-name="bhook" unicode="&#x253;" horiz-adv-x="1248" 
d="M416 250q30 -15 55 -25t48 -16t46 -8.5t49 -2.5q56 0 103.5 23.5t82.5 66.5t54.5 103t19.5 134q0 70 -12 126t-35 95t-56.5 60t-75.5 21q-41 0 -81 -16t-77 -45t-68 -69.5t-53 -88.5v-358zM902 1368l-62 27q-29 12 -58 20t-58.5 11.5t-63.5 3.5q-63 0 -109 -21t-76 -56.5
t-44.5 -84t-14.5 -103.5v-286q35 43 76.5 80t89.5 64t104 43t119 16q77 0 141 -38.5t110 -108t72 -165t26 -208.5q0 -135 -34.5 -243t-99 -185t-156 -118.5t-204.5 -41.5q-74 0 -145.5 12t-138.5 30.5t-129 40.5l-122 42v1045q0 119 33 218t101.5 171t172 112t244.5 40
q75 0 154.5 -18.5t167.5 -61.5z" />
    <glyph glyph-name="oopen" unicode="&#x254;" horiz-adv-x="1035" 
d="M120 972q39 27 79.5 47.5t85.5 34.5t95 21t108 7q98 0 183 -35.5t147.5 -104t98.5 -168.5t36 -228q0 -122 -36.5 -226.5t-102 -181.5t-157.5 -120.5t-205 -43.5q-105 0 -198 46t-155 142l133 188q42 -65 92.5 -101t122.5 -36q43 0 81.5 22t68 63.5t47 101.5t17.5 136
q0 68 -16 125t-45.5 97t-71 62t-91.5 22q-44 0 -81 -7.5t-69.5 -22t-63.5 -35.5t-62 -48z" />
    <glyph glyph-name="dtail" unicode="&#x256;" horiz-adv-x="1331" 
d="M868 768q-36 17 -66.5 29t-60.5 20t-60.5 11.5t-66.5 3.5q-41 0 -80.5 -22t-70 -63.5t-49.5 -101t-19 -135.5q0 -149 49 -225.5t149 -76.5q41 0 82.5 17.5t77.5 47.5t66.5 66.5t48.5 76.5v352zM1534 -384q-21 -15 -55 -33.5t-75 -34.5t-85 -26.5t-85 -10.5q-83 0 -149 28
t-111.5 79t-70 123.5t-24.5 159.5v270q-69 -95 -154.5 -146t-188.5 -51q-97 0 -176 36t-136.5 102t-88.5 159t-31 207q0 139 40 250t109 189.5t162 121.5t199 43q31 0 63.5 -7.5t66 -20t65 -28.5t59.5 -33v291q0 126 -5.5 220t-20.5 160h318v-1674q0 -70 8 -113t25.5 -67
t45 -32.5t64.5 -8.5q19 0 38.5 6t39 14.5t36 19.5t29.5 23z" />
    <glyph glyph-name="dhook" unicode="&#x257;" horiz-adv-x="1331" 
d="M868 768q-36 17 -66.5 29t-60.5 20t-60.5 11.5t-66.5 3.5q-41 0 -80.5 -22t-70 -63.5t-49.5 -101t-19 -135.5q0 -149 49 -225.5t149 -76.5q41 0 82.5 17.5t77.5 47.5t66.5 66.5t48.5 76.5v352zM1470 1375q-17 15 -38 27.5t-43 21.5t-44.5 13.5t-41.5 4.5q-75 0 -109 -45
t-34 -150v-696q0 -196 22 -330t56 -221h-286q-7 12 -14 32l-14 44q-8 24 -16 52l-14 54q-70 -101 -159.5 -154.5t-198.5 -53.5q-97 0 -176 36t-136.5 102t-88.5 159t-31 207q0 139 40 250t109 189.5t162 121.5t199 43q31 0 63.5 -7.5t66 -20t65 -28.5t59.5 -33v265
q0 106 28.5 186.5t81.5 133.5t128.5 80t172.5 27q29 0 63 -6t68 -15.5t65 -23t54 -28.5z" />
    <glyph glyph-name="schwa" unicode="&#x259;" horiz-adv-x="1128" 
d="M114 957q49 34 95.5 57.5t92.5 38.5t93.5 22t99.5 7q107 0 205 -35.5t172 -105t118.5 -172.5t44.5 -239q0 -126 -34.5 -229t-99.5 -175.5t-157 -112t-207 -39.5q-88 0 -154 21.5t-115 58t-81 87t-52 109.5t-28 123.5t-8 128.5v19q0 11 0.5 23.5t0.5 24.5v19h648
q-14 134 -83.5 194t-195.5 60q-88 0 -169 -28.5t-164 -96.5zM551 192q82 0 130 48.5t64 159.5h-381q0 -110 47.5 -159t139.5 -49z" />
    <glyph glyph-name="eopen" unicode="&#x25b;" horiz-adv-x="1014" 
d="M851 760q-142 104 -284 104q-36 0 -60 -9t-39.5 -24t-22 -33.5t-6.5 -38.5q0 -30 19.5 -49.5t53.5 -32t78.5 -18t95.5 -5.5v-202q-48 0 -102.5 -4t-100.5 -17t-76.5 -39t-30.5 -70q0 -34 17 -58t45 -38.5t64 -21t75 -6.5q41 0 79.5 7t77.5 21t79.5 35.5t85.5 50.5
l21 -234q-56 -28 -106.5 -48t-98 -32.5t-96 -18t-99.5 -5.5q-113 0 -194 28.5t-132.5 73.5t-75.5 100.5t-24 109.5q0 53 18.5 98.5t52 80t79 58t99.5 33.5q-45 14 -79.5 38t-58.5 54.5t-36.5 65.5t-12.5 71q0 51 19 103.5t65.5 95t122.5 70.5t188 28q114 0 196 -22t142 -62z
" />
    <glyph glyph-name="gammalatinsmall" unicode="&#x263;" horiz-adv-x="1314" 
d="M762 -172q0 41 -29.5 95.5t-75.5 122.5q-47 -68 -76 -122.5t-29 -95.5q0 -27 9 -49t24 -38.5t34 -25t38.5 -8.5t38 8.5t33.5 25t24 38.5t9 49zM331 1061l106 -187l50 -88l55 -95l58 -99l57 -99l58 99l58 99l55 95l50 88l106 187h320l-54 -94l-59 -98l-55 -91
q-26 -44 -45 -73l-52 -84l-68 -106l-78 -122l-85 -129l-7 -10l80 -126q39 -61 69.5 -116t48.5 -103.5t18 -90.5q0 -75 -31 -135.5t-82 -103.5t-115.5 -66t-131.5 -23t-132 23t-115.5 66t-81.5 103.5t-31 135.5q0 42 18.5 90.5t48.5 103.5t69 116l81 126q-2 2 -3.5 4.5
t-4.5 5.5l-83 129l-79 122l-68 106l-52 84q-19 29 -45 73l-55 91l-59 98l-55 94h321z" />
    <glyph glyph-name="istroke" unicode="&#x268;" horiz-adv-x="920" 
d="M284 1440q0 40 13.5 73t38 57.5t57.5 38t72.5 13.5t73 -13.5t58 -38t38 -57.5t13.5 -73t-13.5 -73.5t-38 -58t-58 -37.5t-73 -13t-72.5 13t-57.5 37.5t-38 58t-13.5 73.5zM319 701q-1 110 -4 203.5t-10 156.5h307v-360h246v-213h-246q0 -51 1.5 -118t4 -136t6 -131
t8.5 -103h-312v488h-258v213h257z" />
    <glyph glyph-name="iotalatin" unicode="&#x269;" horiz-adv-x="905" 
d="M458 476q0 -67 7 -112.5t26 -73t51 -39.5t82 -12t98 31.5t100 90.5l32 -278q-43 -32 -83 -53t-79.5 -33.5t-78 -17.5t-76.5 -5q-79 0 -147 24t-117.5 69t-78 109.5t-28.5 145.5v229q0 76 -0.5 150t-2 140t-4.5 122.5t-8 97.5h307v-585z" />
    <glyph glyph-name="lmiddletilde" unicode="&#x26b;" horiz-adv-x="1024" 
d="M8 671q0 67 20.5 126t56.5 102.5t85.5 68.5t109.5 25q21 0 41 -2.5t41 -7.5v192q0 152 -5 275.5t-16 213.5h312v-763q27 -8 52.5 -12.5t49.5 -4.5q22 0 40.5 8.5t32.5 22.5t23.5 31.5t12.5 36.5h142q0 -73 -20.5 -133t-57.5 -102t-88 -65t-112 -23q-37 0 -75 7v-173
q0 -50 1.5 -117.5t4 -137.5t6.5 -133t9 -106h-312v748q-30 8 -54.5 11.5t-47.5 3.5q-24 0 -42.5 -7.5t-32.5 -20t-22.5 -29t-11.5 -35.5h-143z" />
    <glyph glyph-name="nhookleft" unicode="&#x272;" horiz-adv-x="1366" 
d="M457 1061q6 -16 12 -41.5t11.5 -53t9.5 -54.5l8 -44q50 57 98 97.5t97 66.5t99.5 38t106.5 12q79 0 141.5 -27t106.5 -81.5t67 -135.5t23 -188v-650h-292v572q0 72 -9 121t-29 78.5t-50.5 42.5t-72.5 13q-45 0 -87.5 -20t-78.5 -52t-63 -71.5t-40 -80.5v-587
q0 -244 -107.5 -374.5t-333.5 -130.5q-37 0 -75.5 8.5t-73 21.5t-62.5 27.5t-45 26.5l103 223q17 -15 31.5 -26t31 -18.5t35.5 -11t47 -3.5q78 0 117.5 52.5t39.5 146.5v682q0 154 -17.5 260.5t-34.5 160.5h286z" />
    <glyph glyph-name="obarred" unicode="&#x275;" horiz-adv-x="1206" 
d="M849 624q-20 106 -83.5 165t-162.5 59q-47 0 -87 -15.5t-71.5 -44.5t-54 -70t-32.5 -94h491zM356 437q19 -109 82.5 -169t164.5 -60q47 0 87.5 15.5t72.5 44.5t54 72t33 97h-494zM94 527q0 134 41.5 237.5t112.5 174t166 107t200 36.5q110 0 202 -36.5t158 -107
t102.5 -174t36.5 -237.5t-41.5 -237.5t-113 -173.5t-166 -106t-199.5 -36q-110 0 -201.5 36t-158 106t-103 173.5t-36.5 237.5z" />
    <glyph glyph-name="esh" unicode="&#x283;" horiz-adv-x="821" 
d="M768 1375q-18 16 -40.5 28t-46 21t-47.5 13.5t-43 4.5q-30 0 -56 -12t-46 -34t-31 -51t-11 -62q0 -29 10.5 -92.5t26.5 -149t37 -187.5l44 -210l44 -214q21 -106 37 -199.5t26.5 -168t10.5 -119.5q0 -75 -22 -152t-73 -139.5t-134 -101.5t-203 -39q-38 0 -78 9.5
t-76.5 24t-66 30.5t-46.5 31l65 242q35 -34 84.5 -61.5t108.5 -27.5q43 0 72.5 15t48.5 41.5t27 63t8 79.5q0 30 -10 93t-28 149l-38 189l-44 209l-45 211l-38 196t-27.5 162t-10.5 110q0 92 30 166.5t85 128.5t129.5 83.5t165.5 29.5q31 0 68 -6t74 -15.5t70 -23t58 -28.5z
" />
    <glyph glyph-name="ubar" unicode="&#x289;" horiz-adv-x="1466" 
d="M679 214q35 0 75.5 21t77 53.5t67 71t45.5 75.5v53h-405v-4q0 -71 6.5 -122t23.5 -84t44 -48.5t66 -15.5zM83 701h165v27q0 50 -1 90.5t-3 78.5t-6 77.5t-11 86.5h312v-360h405v27q0 51 -0.5 92t-2.5 78.5t-6 76t-11 86.5h312v-360h163v-213h-163v-20q0 -152 17 -266
t50 -202h-275q-8 17 -16 39t-16 47t-15 52t-11 54q-92 -107 -191 -162.5t-206 -55.5q-325 0 -325 447v67h-165v213z" />
    <glyph glyph-name="upsilonlatin" unicode="&#x28a;" horiz-adv-x="1287" 
d="M104 1061h432v-172q-53 -67 -88.5 -158.5t-35.5 -203.5q0 -75 17.5 -134t49 -100t74 -63t91.5 -22q46 0 88 22t73.5 63t51 100t19.5 134q0 112 -35.5 203.5t-88.5 158.5v173h432v-204h-145q25 -37 47 -79.5t38 -88.5t26 -95.5t10 -102.5q0 -120 -44 -215.5t-116.5 -162.5
t-168 -103.5t-198.5 -36.5q-108 0 -200.5 36.5t-160 103.5t-106 162.5t-38.5 215.5q0 51 10.5 101t27.5 96t40.5 89t48.5 79h-151v204z" />
    <glyph glyph-name="vhook" unicode="&#x28b;" horiz-adv-x="1232" 
d="M447 1061v-577q0 -71 8 -122t26.5 -84t50 -48.5t76.5 -15.5q127 0 186.5 122.5t59.5 360.5q0 76 -22.5 121t-56.5 45q-16 0 -37.5 -4t-45.5 -22l-47 208q23 10 43.5 16.5t41.5 11t44.5 7t52.5 2.5q68 0 125.5 -24t99 -74.5t64.5 -130.5t23 -193q0 -89 -14.5 -175
t-44.5 -162.5t-76 -140t-109.5 -110t-145 -72.5t-182.5 -26q-113 0 -191 26.5t-126.5 81.5t-71 139.5t-22.5 199.5v307q0 50 -0.5 90.5t-2.5 78.5t-6.5 77.5t-11.5 86.5h312z" />
    <glyph glyph-name="vturned" unicode="&#x28c;" horiz-adv-x="1148" 
d="M817 0l-239 759l-243 -759h-325l45 97l45 101l41 95l31 76l30 76l40 101l45 114l47 116l113 285h254l117 -296l47 -117l46 -114l38 -97q17 -43 28 -68q12 -31 31 -76l40 -95l44 -101l46 -97h-321z" />
    <glyph glyph-name="ezh" unicode="&#x292;" horiz-adv-x="1049" 
d="M951 1063v-142l-424 -472q115 -1 204 -35t144 -87q24 -24 46.5 -56t41 -73.5t29.5 -93t11 -114.5q0 -105 -41.5 -192.5t-110.5 -151.5t-159 -99.5t-188 -35.5q-62 0 -122.5 10t-115.5 27t-103 38.5t-85 45.5v250q47 -26 97.5 -50t105 -43.5t112.5 -31t120 -11.5
q51 0 93 20t72.5 53.5t48 77.5t17.5 93q0 52 -20 96t-56.5 77t-88 51t-115.5 18q-47 0 -105 -3t-117 -9v211l371 416h-186q-120 0 -194 -3.5t-123 -13.5v233h841z" />
    <glyph glyph-name="glottalstop" unicode="&#x294;" horiz-adv-x="1027" 
d="M140 1337q35 30 73 54.5t83 42.5t98 28t118 10q88 0 164 -23.5t132 -66t88.5 -103t32.5 -134.5q0 -64 -20 -114t-50 -94t-66 -84.5t-68 -84.5q-35 -49 -60 -88t-41.5 -83t-24 -99t-7.5 -136v-125q0 -54 1.5 -97.5t4.5 -77.5t8 -62h-291q5 29 8.5 65t5 82t1.5 104v131
q0 77 10 138.5t29 113.5t44 97.5t55 89.5q34 48 66 85.5t56.5 70.5t39.5 65.5t15 72.5q0 24 -12 44.5t-34 36.5t-51.5 24.5t-64.5 8.5q-82 0 -156.5 -31.5t-141.5 -91.5z" />
    <glyph glyph-name="qhook" unicode="&#x2a0;" horiz-adv-x="1284" 
d="M822 801q-33 14 -71 23.5t-70 9.5q-78 0 -132 -28.5t-88.5 -75.5t-50 -106t-15.5 -120q0 -77 19 -131t48.5 -87.5t66.5 -48.5t74 -15q55 0 112 42.5t107 128.5v408zM822 1258q0 106 28 186.5t81 133.5t129 80t172 27q30 0 63.5 -6t67.5 -15.5t65 -23t54 -28.5l-59 -237
q-17 15 -38 27.5t-43 21.5t-44.5 13.5t-41.5 4.5q-41 0 -68.5 -9t-44.5 -31.5t-23.5 -60.5t-6.5 -94v-1403q0 -62 1.5 -112.5t4.5 -93.5t8.5 -78.5t11.5 -69.5h-317v635q-82 -83 -155.5 -117t-146.5 -34q-72 0 -145.5 28t-134 87t-98.5 149.5t-38 213.5q0 120 31 233.5
t96.5 201t168 141.5t245.5 54q43 0 87.5 -4t89.5 -11v191z" />
    <glyph glyph-name="afii57929" unicode="&#x2bc;" horiz-adv-x="530" 
d="M62 1555q0 29 14 58.5t38 53.5t56.5 39t68.5 15q45 0 80.5 -16t60.5 -44.5t38.5 -69t13.5 -88.5q0 -70 -19.5 -135.5t-52 -124t-76.5 -110t-92 -93.5l-119 73q40 43 68.5 87.5t45.5 87t24 81t7 71.5h-156v115z" />
    <glyph glyph-name="glottalstopmod" unicode="&#x2c0;" horiz-adv-x="642" 
d="M42 1578q48 39 110.5 63t155.5 24q62 0 116.5 -15t95.5 -43t63.5 -67t22.5 -87q0 -42 -14 -74.5t-35.5 -61t-47 -55t-48.5 -56.5q-25 -31 -43.5 -56.5t-30 -53.5t-17 -64t-5.5 -89q0 -90 1.5 -144.5t9.5 -91.5h-209q4 19 6 42.5t3 53t1 66.5v87q0 50 7.5 90t20.5 74
t32 63.5t41 57.5q24 32 46.5 56.5t40 45.5t27.5 42.5t10 46.5q0 32 -31.5 54t-83.5 22q-58 0 -111.5 -21t-101.5 -60z" />
    <glyph glyph-name="circumflex" unicode="&#x2c6;" horiz-adv-x="915" 
d="M666 1248l-208 239l-208 -239h-250l302 416h312l301 -416h-249z" />
    <glyph glyph-name="caron" unicode="&#x2c7;" horiz-adv-x="915" 
d="M915 1664l-301 -416h-312l-302 416h250l208 -239l208 239h249z" />
    <glyph glyph-name="firsttonechinese" unicode="&#x2c9;" horiz-adv-x="946" 
d="M42 1508h863v-218h-863v218z" />
    <glyph glyph-name="secondtonechinese" unicode="&#x2ca;" horiz-adv-x="665" 
d="M666 1664l-416 -416h-250l302 416h364z" />
    <glyph glyph-name="fourthtonechinese" unicode="&#x2cb;" horiz-adv-x="655" 
d="M291 1664l302 -416h-250l-416 416h364z" />
    <glyph glyph-name="macronlowmod" unicode="&#x2cd;" horiz-adv-x="863" 
d="M0 -177h863v-218h-863v218z" />
    <glyph glyph-name="minusmod" unicode="&#x2d7;" horiz-adv-x="930" 
d="M83 764h765v-218h-765v218z" />
    <glyph glyph-name="breve" unicode="&#x2d8;" horiz-adv-x="842" 
d="M832 1612q0 -76 -30 -152t-86 -136.5t-133.5 -99t-171.5 -38.5q-96 0 -173.5 38.5t-132.5 99t-85 136.5t-30 152h187q7 -47 29 -87t53 -69t70 -45.5t82 -16.5t81.5 16.5t69.5 45.5t52 69t31 87h187z" />
    <glyph glyph-name="dotaccent" unicode="&#x2d9;" horiz-adv-x="364" 
d="M0 1440q0 40 13.5 73t38 57.5t57.5 38t73 13.5t73 -13.5t57.5 -38t38 -57.5t13.5 -73t-13.5 -73.5t-38 -58t-57.5 -37.5t-73 -13t-73 13t-57.5 37.5t-38 58t-13.5 73.5z" />
    <glyph glyph-name="ring" unicode="&#x2da;" horiz-adv-x="509" 
d="M0 1456q0 54 19 100.5t53.5 79t81 51.5t101.5 19q54 0 100.5 -19t81 -51.5t54 -79t19.5 -100.5q0 -55 -19.5 -101t-54 -78.5t-81 -51.5t-100.5 -19q-55 0 -101.5 19t-81 51.5t-53.5 78.5t-19 101zM354 1456q0 44 -28 71.5t-71.5 27.5t-71 -27.5t-27.5 -71.5t27.5 -71.5
t71 -27.5t71.5 27.5t28 71.5z" />
    <glyph glyph-name="ogonek" unicode="&#x2db;" horiz-adv-x="504" 
d="M343 0q-40 -25 -70.5 -48.5t-50.5 -46.5t-30 -46.5t-10 -50.5q0 -51 29.5 -77.5t79.5 -26.5q17 0 42 5.5t51.5 16t50.5 24.5t38 32l31 -146q-22 -23 -51 -40t-59.5 -29t-62 -18.5t-61.5 -6.5q-55 0 -104.5 17.5t-86 48t-58 71t-21.5 87.5q0 81 42.5 137.5t123.5 96.5h177
z" />
    <glyph glyph-name="tilde" unicode="&#x2dc;" horiz-adv-x="863" 
d="M0 1238q0 62 17 118t48.5 99.5t74 69t94.5 25.5q51 0 103.5 -16.5t114.5 -39.5q31 -11 54 -20t42.5 -15t37 -9.5t36.5 -3.5t32.5 8t22.5 21.5t15.5 30.5t9.5 33h161q0 -67 -17.5 -124.5t-49.5 -99t-76 -65t-97 -23.5q-49 0 -92.5 13.5t-98.5 37.5q-66 27 -111.5 40
t-79.5 13q-19 0 -33.5 -8t-23.5 -21.5t-15 -30.5t-8 -33h-161z" />
    <glyph glyph-name="hungarumlaut" unicode="&#x2dd;" horiz-adv-x="956" 
d="M957 1664l-312 -416h-219l219 416h312zM530 1664l-312 -416h-218l218 416h312z" />
    <glyph glyph-name="gravecmb" unicode="&#x300;" horiz-adv-x="0" 
d="M-728 1664l302 -416h-250l-416 416h364z" />
    <glyph glyph-name="acutecmb" unicode="&#x301;" horiz-adv-x="0" 
d="M-125 1664l-416 -416h-249l301 416h364z" />
    <glyph glyph-name="circumflexcmb" unicode="&#x302;" horiz-adv-x="0" 
d="M-395 1248l-208 239l-208 -239h-250l302 416h312l301 -416h-249z" />
    <glyph glyph-name="tildecmb" unicode="&#x303;" horiz-adv-x="0" 
d="M-1024 1238q0 62 17 118t48 99.5t74 69t95 25.5q51 0 103.5 -16.5t114.5 -39.5l53 -20q24 -9 43 -15t37 -9.5t36.5 -3.5t32 8t23 21.5t15.5 30.5t10 33h161q0 -67 -18 -124.5t-49.5 -99t-75.5 -65t-97 -23.5q-49 0 -93 13.5t-99 37.5q-65 27 -111 40t-79 13q-20 0 -34 -8
t-23.5 -21.5t-15 -30.5t-7.5 -33h-161z" />
    <glyph glyph-name="macroncmb" unicode="&#x304;" horiz-adv-x="0" 
d="M-1024 1508h863v-218h-863v218z" />
    <glyph glyph-name="brevecmb" unicode="&#x306;" horiz-adv-x="0" 
d="M-182 1612q0 -76 -30 -152t-86 -136.5t-133.5 -99t-171.5 -38.5q-96 0 -173.5 38.5t-132.5 99t-85 136.5t-30 152h187q7 -47 29 -87t53 -69t70 -45.5t82 -16.5t81.5 16.5t69.5 45.5t52 69t31 87h187z" />
    <glyph glyph-name="dotaccentcmb" unicode="&#x307;" horiz-adv-x="0" 
d="M-759 1440q0 40 13.5 73t38 57.5t57.5 38t72.5 13.5t73 -13.5t58 -38t38 -57.5t13.5 -73t-13.5 -73.5t-38 -58t-58 -37.5t-73 -13t-72.5 13t-57.5 37.5t-38 58t-13.5 73.5z" />
    <glyph glyph-name="dieresiscmb" unicode="&#x308;" horiz-adv-x="0" 
d="M-1040 1440q0 40 13.5 73t38 57.5t57.5 38t73 13.5t73 -13.5t57.5 -38t38 -57.5t13.5 -73t-13.5 -73.5t-38 -58t-57.5 -37.5t-73 -13t-73 13t-57.5 37.5t-38 58t-13.5 73.5zM-530 1440q0 40 13.5 73t38 57.5t57.5 38t72.5 13.5t73 -13.5t58 -38t38 -57.5t13.5 -73
t-13.5 -73.5t-38 -58t-58 -37.5t-73 -13t-72.5 13t-57.5 37.5t-38 58t-13.5 73.5z" />
    <glyph glyph-name="hookabovecomb" unicode="&#x309;" horiz-adv-x="0" 
d="M-650 1170q0 67 8 114.5t28 83.5q16 25 34 47l34 42q16 20 26 37.5t10 34.5q0 62 -88 62q-46 0 -85.5 -15t-70.5 -47l-26 130q33 30 84 51.5t114 21.5q52 0 96.5 -12.5t77.5 -36.5t51.5 -59t18.5 -80q0 -36 -15.5 -65t-36.5 -53.5t-41.5 -45t-31.5 -38.5
q-9 -17 -14.5 -34t-8 -37t-3 -44.5t-0.5 -56.5h-161z" />
    <glyph glyph-name="ringcmb" unicode="&#x30a;" horiz-adv-x="0" 
d="M-848 1456q0 54 19.5 100.5t54 79t80.5 51.5t101 19q54 0 101 -19t81.5 -51.5t53.5 -79t19 -100.5q0 -55 -19 -101t-53.5 -78.5t-81.5 -51.5t-101 -19q-55 0 -101 19t-80.5 51.5t-54 78.5t-19.5 101zM-494 1456q0 44 -27.5 71.5t-71 27.5t-71.5 -27.5t-28 -71.5t28 -71.5
t71.5 -27.5t71 27.5t27.5 71.5z" />
    <glyph glyph-name="hungarumlautcmb" unicode="&#x30b;" horiz-adv-x="0" 
d="M-60 1664l-312 -416h-219l219 416h312zM-487 1664l-312 -416h-218l218 416h312z" />
    <glyph glyph-name="caroncmb" unicode="&#x30c;" horiz-adv-x="0" 
d="M-146 1664l-301 -416h-312l-302 416h250l208 -239l208 239h249z" />
    <glyph glyph-name="dblgravecmb" unicode="&#x30f;" horiz-adv-x="0" 
d="M-830 1664l218 -416h-228l-312 416h322zM-393 1664l218 -416h-229l-312 416h323z" />
    <glyph glyph-name="horncmb" unicode="&#x31b;" horiz-adv-x="343" 
d="M-47 1258q0 30 13 59.5t38 53.5t62 39t85 15q45 0 80 -16t60 -45t38.5 -69.5t13.5 -88.5q0 -100 -36.5 -184.5t-98.5 -151.5t-145.5 -116.5t-176.5 -80.5v164q59 22 104.5 56t77 74t47 83t15.5 84h-177v124z" />
    <glyph glyph-name="dotbelowcmb" unicode="&#x323;" horiz-adv-x="0" 
d="M-785 -322q0 39 13.5 72.5t38 58t57.5 38t72.5 13.5t73 -13.5t58 -38t38 -58t13.5 -72.5q0 -41 -13.5 -74.5t-38 -57.5t-58 -37t-73 -13t-72.5 13t-57.5 37t-38 57.5t-13.5 74.5z" />
    <glyph glyph-name="dieresisbelowcmb" unicode="&#x324;" horiz-adv-x="0" 
d="M-1040 -322q0 39 13.5 72.5t38 58t57.5 38t73 13.5t73 -13.5t57.5 -38t38 -58t13.5 -72.5q0 -41 -13.5 -74.5t-38 -57.5t-57.5 -37t-73 -13t-73 13t-57.5 37t-38 57.5t-13.5 74.5zM-530 -322q0 39 13.5 72.5t38 58t57.5 38t72.5 13.5t73 -13.5t58 -38t38 -58t13.5 -72.5
q0 -41 -13.5 -74.5t-38 -57.5t-58 -37t-73 -13t-72.5 13t-57.5 37t-38 57.5t-13.5 74.5z" />
    <glyph glyph-name="uni0326" unicode="&#x326;" horiz-adv-x="0" 
d="M-749 -234q18 45 53 72t93 27q31 0 57.5 -13t46 -35t30.5 -51.5t11 -61.5q0 -44 -13.5 -88t-35 -85t-49.5 -75.5t-58 -58.5l-120 41q16 17 34.5 44t34 58.5t27.5 64.5t17 62h-128v99z" />
    <glyph glyph-name="cedillacmb" unicode="&#x327;" horiz-adv-x="0" 
d="M-385 52v-161q11 2 21.5 3.5t28.5 1.5q40 0 72 -13t54.5 -36.5t35 -56t12.5 -71.5q0 -53 -24.5 -95.5t-63.5 -72t-88.5 -45.5t-99.5 -16q-40 0 -84.5 12t-76.5 30l10 135q23 -17 56 -26.5t69 -9.5q23 0 46 5.5t40 17t28 27.5t11 38q0 33 -27.5 55.5t-66.5 22.5
q-29 0 -58 -6t-46 -15v276h151z" />
    <glyph glyph-name="ogonekcmb" unicode="&#x328;" horiz-adv-x="0" 
d="M-478 0q-41 -25 -71 -48.5t-50.5 -46.5t-30.5 -46.5t-10 -50.5q0 -51 30 -77.5t80 -26.5q16 0 41 5.5t51.5 16t50.5 24.5t39 32l31 -146q-23 -23 -51.5 -40t-59.5 -29t-62.5 -18.5t-60.5 -6.5q-55 0 -104.5 17.5t-86.5 48t-58.5 71t-21.5 87.5q0 81 43 137.5t124 96.5
h177z" />
    <glyph glyph-name="macronbelowcmb" unicode="&#x331;" horiz-adv-x="0" 
d="M-1035 -177h863v-218h-863v218z" />
    <glyph glyph-name="dbloverlinecmb" unicode="&#x33f;" horiz-adv-x="0" 
d="M-811 1747h1622v-197h-1622v197zM-811 1446h1622v-198h-1622v198z" />
    <glyph glyph-name="uni035E" unicode="&#x35e;" horiz-adv-x="0" 
d="M-822 1248v198h1644v-198h-1644z" />
    <glyph glyph-name="uni035F" unicode="&#x35f;" horiz-adv-x="0" 
d="M-822 -395v218h1644v-218h-1644z" />
    <glyph glyph-name="Pi" unicode="&#x3a0;" horiz-adv-x="1544" 
d="M468 1284v-1284h-312q11 62 13.5 177t2.5 270v619q0 154 -2.5 272t-13.5 180h1206q-11 -62 -13 -180t-2 -272v-619q0 -155 2 -270t13 -177h-312v1284h-582z" />
    <glyph glyph-name="Omega" unicode="&#x3a9;" horiz-adv-x="1687" 
d="M1012 234q49 47 95.5 109t83.5 134.5t60 156t23 172.5q0 107 -28.5 196t-84 153t-137.5 99.5t-187 35.5q-104 0 -186 -39t-139.5 -106t-87.5 -155.5t-30 -188.5q0 -88 19.5 -168t53.5 -151.5t81 -134t102 -113.5v-234h-588v250q20 -4 55 -6.5t80 -4.5t98 -3t110 -1
q-56 46 -110.5 107.5t-98 134.5t-70.5 156.5t-27 172.5q0 178 58.5 315t160 231.5t238 143t292.5 48.5q148 0 279.5 -45.5t230 -134.5t155.5 -220t57 -302q0 -105 -29 -194.5t-75 -165t-103.5 -137.5t-114.5 -111l111 2q54 1 101 3t83 4.5t57 6.5v-250h-588v234z" />
    <glyph glyph-name="pi" unicode="&#x3c0;" horiz-adv-x="1458" 
d="M1172 853v-463q0 -71 2.5 -125.5t9.5 -99.5t18 -84.5t27 -80.5h-301q-20 45 -29 101.5t-13 129.5q-3 69 -4 168.5t-1 209.5v244h-318v-853h-293v853h-213v208h1328v-208h-213z" />
    <glyph glyph-name="Bdotaccent" unicode="&#x1e02;" horiz-adv-x="1440" 
d="M1295 447q0 -97 -38 -180.5t-116 -145.5t-198.5 -96.5t-286.5 -34.5q-90 0 -179 1.5t-161 3.5q-84 2 -160 5q6 31 9 80t5 110.5t2 132.5v866q0 73 -2 135.5t-5 112.5t-9 81l91 5q51 2 113.5 3.5t133.5 2t146 0.5q125 0 231 -19.5t182.5 -63.5t120 -116t43.5 -176
q0 -63 -19.5 -114t-52.5 -91t-77.5 -68.5t-95.5 -48.5q59 -16 116.5 -42.5t103.5 -71t74.5 -110.5t28.5 -161zM468 229q26 -2 79 -3.5t131 -1.5q68 0 128.5 12t106 40t72 74.5t26.5 117.5q0 107 -89 161.5t-253 54.5h-201v-455zM468 910h161q149 0 226.5 55.5t77.5 154.5
q0 93 -65.5 138t-211.5 45q-54 0 -106.5 -1.5t-81.5 -3.5v-388zM530 1888q0 39 13.5 72.5t38 58t58 38t73 13.5t72.5 -13.5t57.5 -38t38 -58t13.5 -72.5q0 -41 -13.5 -74.5t-38 -57.5t-57.5 -37t-72.5 -13t-73 13t-58 37t-38 57.5t-13.5 74.5z" />
    <glyph glyph-name="bdotaccent" unicode="&#x1e03;" horiz-adv-x="1263" 
d="M432 1664v-785q35 43 76 80t89.5 64t104 43t119.5 16q77 0 140.5 -38.5t110 -108t72.5 -165t26 -208.5q0 -135 -35 -243t-99.5 -185t-156 -118.5t-203.5 -41.5q-75 0 -146 9t-138.5 23t-129.5 30l-122 32v1230q0 66 -1.5 133.5t-4.5 128t-9 104.5h307zM432 250
q30 -15 55 -25t47.5 -16t45.5 -8.5t49 -2.5q56 0 104 23.5t83 66.5t54 103t19 134q0 70 -12 126t-34.5 95t-56 60t-76.5 21q-40 0 -80 -16t-77 -45t-68.5 -69.5t-52.5 -88.5v-358zM594 1409q0 40 13.5 73t38 57.5t57.5 38t72.5 13.5t73 -13.5t58 -38t38 -57.5t13.5 -73
t-13.5 -73.5t-38 -58t-58 -37.5t-73 -13t-72.5 13t-57.5 37.5t-38 58t-13.5 73.5z" />
    <glyph glyph-name="Bdotbelow" unicode="&#x1e04;" horiz-adv-x="1440" 
d="M1295 447q0 -97 -38 -180.5t-116 -145.5t-198.5 -96.5t-286.5 -34.5q-90 0 -179 1.5t-161 3.5q-84 2 -160 5q6 31 9 80t5 110.5t2 132.5v866q0 73 -2 135.5t-5 112.5t-9 81l91 5q51 2 113.5 3.5t133.5 2t146 0.5q125 0 231 -19.5t182.5 -63.5t120 -116t43.5 -176
q0 -63 -19.5 -114t-52.5 -91t-77.5 -68.5t-95.5 -48.5q59 -16 116.5 -42.5t103.5 -71t74.5 -110.5t28.5 -161zM468 229q26 -2 79 -3.5t131 -1.5q68 0 128.5 12t106 40t72 74.5t26.5 117.5q0 107 -89 161.5t-253 54.5h-201v-455zM468 910h161q149 0 226.5 55.5t77.5 154.5
q0 93 -65.5 138t-211.5 45q-54 0 -106.5 -1.5t-81.5 -3.5v-388zM515 -322q0 39 13.5 72.5t38 58t57.5 38t72.5 13.5t73 -13.5t58 -38t38 -58t13.5 -72.5q0 -41 -13.5 -74.5t-38 -57.5t-58 -37t-73 -13t-72.5 13t-57.5 37t-38 57.5t-13.5 74.5z" />
    <glyph glyph-name="bdotbelow" unicode="&#x1e05;" horiz-adv-x="1263" 
d="M432 1664v-785q35 43 76 80t89.5 64t104 43t119.5 16q77 0 140.5 -38.5t110 -108t72.5 -165t26 -208.5q0 -135 -35 -243t-99.5 -185t-156 -118.5t-203.5 -41.5q-75 0 -146 9t-138.5 23t-129.5 30l-122 32v1230q0 66 -1.5 133.5t-4.5 128t-9 104.5h307zM432 250
q30 -15 55 -25t47.5 -16t45.5 -8.5t49 -2.5q56 0 104 23.5t83 66.5t54 103t19 134q0 70 -12 126t-34.5 95t-56 60t-76.5 21q-40 0 -80 -16t-77 -45t-68.5 -69.5t-52.5 -88.5v-358zM452 -322q0 39 13.5 72.5t38 58t58 38t73 13.5t72.5 -13.5t57.5 -38t38 -58t13.5 -72.5
q0 -41 -13.5 -74.5t-38 -57.5t-57.5 -37t-72.5 -13t-73 13t-58 37t-38 57.5t-13.5 74.5z" />
    <glyph glyph-name="Blinebelow" unicode="&#x1e06;" horiz-adv-x="1440" 
d="M1295 447q0 -97 -38 -180.5t-116 -145.5t-198.5 -96.5t-286.5 -34.5q-90 0 -179 1.5t-161 3.5q-84 2 -160 5q6 31 9 80t5 110.5t2 132.5v866q0 73 -2 135.5t-5 112.5t-9 81l91 5q51 2 113.5 3.5t133.5 2t146 0.5q125 0 231 -19.5t182.5 -63.5t120 -116t43.5 -176
q0 -63 -19.5 -114t-52.5 -91t-77.5 -68.5t-95.5 -48.5q59 -16 116.5 -42.5t103.5 -71t74.5 -110.5t28.5 -161zM468 229q26 -2 79 -3.5t131 -1.5q68 0 128.5 12t106 40t72 74.5t26.5 117.5q0 107 -89 161.5t-253 54.5h-201v-455zM468 910h161q149 0 226.5 55.5t77.5 154.5
q0 93 -65.5 138t-211.5 45q-54 0 -106.5 -1.5t-81.5 -3.5v-388zM265 -177h863v-218h-863v218z" />
    <glyph glyph-name="blinebelow" unicode="&#x1e07;" horiz-adv-x="1263" 
d="M432 1664v-785q35 43 76 80t89.5 64t104 43t119.5 16q77 0 140.5 -38.5t110 -108t72.5 -165t26 -208.5q0 -135 -35 -243t-99.5 -185t-156 -118.5t-203.5 -41.5q-75 0 -146 9t-138.5 23t-129.5 30l-122 32v1230q0 66 -1.5 133.5t-4.5 128t-9 104.5h307zM432 250
q30 -15 55 -25t47.5 -16t45.5 -8.5t49 -2.5q56 0 104 23.5t83 66.5t54 103t19 134q0 70 -12 126t-34.5 95t-56 60t-76.5 21q-40 0 -80 -16t-77 -45t-68.5 -69.5t-52.5 -88.5v-358zM203 -177h863v-218h-863v218z" />
    </font>
</defs>
</svg>
