<?xml version="1.0" encoding="utf-8"?>
<!-- Generator: Adobe Illustrator 23.0.6, SVG Export Plug-In . SVG Version: 6.00 Build 0)  -->
<svg version="1.1" id="Calque_1" xmlns="http://www.w3.org/2000/svg" xmlns:xlink="http://www.w3.org/1999/xlink" x="0px" y="0px"
	 viewBox="0 0 1024 1024" style="enable-background:new 0 0 1024 1024;" xml:space="preserve">
<style type="text/css">
	.st0{fill:none;stroke:#FFFFFF;stroke-width:0.5;stroke-linecap:round;stroke-linejoin:round;stroke-miterlimit:10;}
</style>
<path class="st0" d="M455.1,433.8c-5.6,6.6-5,14.3-3.5,22c2.6,13.3-2.6,18.4-16,19.9c-10.5,1.2-19.8-3.8-29.5-6.5
	c-14.6-4-29.5-5-44.5-3.3c-6.6,0.8-11.6,4.5-13.7,11.8c-1.4,4.8-3.8,9.6-7,13.4c-5.2,6.3-13.6,6.4-19.3,0.6
	c-5.1-5.2-9.8-10.9-14.5-16.5c-9-10.5-21.2-15.4-34-18.4c-16.4-3.8-32.2-9.1-47.5-16c-10.6-4.8-21.8-8.7-33-12
	c-18.6-5.5-29.3,2.5-34.4,19.9c-6.1,20.8-1.4,39.8,11.4,57c4.9,6.5,9.4,13.4,11.6,21.4c2.1,7.3,0,13.7-3.1,20
	c-4.4,9.1-11.9,15-20,20.5c-4,2.8-7.8,5.9-11.5,9c-7.6,6.2-10.2,14.7-9.9,24c0.3,9.5,1.5,19,2.4,28.5c1.4,14.8,2.9,29.7,4.5,44.5
	c0.6,5.4,1.2,10.8,2.5,16c3.9,15.3,10.6,18.1,23.9,18.4c8.8,0.2,17.7-1,26.5-1.3c8.7-0.3,17.4-1.1,26-0.4c13.3,1.2,26-0.6,38.6-5.1
	c2.4-0.9,5.3-3.3,8.4,0.3c-3.4,5.3-7,10.6-10.4,16.1c-9.4,15-7.2,29.7,1.6,43.9c4.4,7.1,9,14.2,14.5,20.4
	c10.4,11.7,23.5,18.6,39.4,20.8c15.8,2.2,31.4,1.3,47-0.3c23.5-2.4,46.1-8.5,67.5-18.8"/>
<path class="st0" d="M453.1,497.8c-9.4-5.5-18.8-10.8-30-11.5c-15.7-1-31.3-3-47,0.4c-7.2,1.5-10.9,6.2-14,12.1
	c-2,3.8-3.8,7.8-6.6,10.9c-9.2,10.2-19,11.3-31.4,4.6c-10.8-5.9-21.6-11.7-32.5-17.5c-10.3-5.5-21.5-7.7-33-7.9
	c-8.8-0.1-17.7,0.3-26.5,1c-16.3,1.1-23.7,11.6-24.4,27.5c-0.3,5.6,0.2,11.4,1,17c1.9,13.1-3.6,23.4-10.9,33.6
	c-9.2,12.9-18.1,26.2-26,40c-7.4,12.8-10.3,27.1-8.6,41.9c1.5,13.6,9,23.7,21,29.9c23.6,12.4,47.7,13.1,71.9,2
	c10.1-4.7,17.1-13,22.1-22.9c2.6-5.3,5.3-10.5,8.5-15.5c4.7-7.2,12.1-10.2,20.4-11c5.2-0.5,6.8,1.3,6,6.5c-0.5,3.5-1.1,7-2,10.5
	c-1.4,5.4,0.7,9.1,5,12c1,0.7,1.7,1.7,2.5,2.5c7.6,7,7.6,9.3,0.3,18.4c-4.1,5.1-9.7,9-14.9,13.1c-9.6,7.7-18.4,16.2-21.4,28.6
	c-4,16.5,2.8,39.2,17,49.8c5.9,4.4,13.4,6.3,20.9,6.6c17.6,0.7,35.1,0.4,52.5-3.4c14-3,25.6-10.5,37-18.5c5-3.5,10-7,15-10.5"/>
<path class="st0" d="M190.1,395.8c-3.2-3.3-6.1-7-9.6-9.9c-7-5.9-15.1-6.5-23.4-3c-23.4,9.9-37.7,27.5-41.8,52.5
	c-2.1,12.8,2.3,25.1,8.4,36.4c6.4,11.7,13.8,22.9,20.3,34.6c3.9,6.9,7.7,14.1,10.4,21.5c3.7,10.2,2.3,19.8-6.4,27.4
	c-5,4.4-10,8.6-15,13c-8.3,7.4-12.1,17.5-12.8,28c-1,16.6-0.4,33.3-0.2,50c0.1,11.2,0.6,22.3,1,33.5c0.4,13.9,4.2,26.5,12.4,38.1
	c6.6,9.3,15.7,12.8,26.1,13.8c13.2,1.3,26.1-0.4,39-3.8c6.8-1.8,13.9-2.1,21-2.6c8.7-0.6,15.4,3.1,18.4,11.5
	c2.8,8,4.9,16.3,7.1,24.5c4.2,16,9.3,31.5,21,44c11.6,12.4,26.5,18.3,42.6,21.4c20.7,4,41.3,3.1,62-0.7c11.8-2.1,22.6-6.2,33.5-10.7
	c14.4-6,29.3-10.9,44.5-14.6c5.6-1.4,11-3.9,16.5-5.9"/>
<path class="st0" d="M953.1,580.8c10.5,15,20.4,30.5,24.9,48.5c2.4,9.5,1.8,18.5-5.3,26.6c-3.9,4.4-8.6,6.2-13.7,7.8
	c-1.8,0.6-3.7,0.7-5.5,1c-10.5,1.8-18.3-1-24.2-10.9c-7.7-12.9-15-25.7-18.5-40.6c-2.6-10.9-2.6-21.6-1.4-32.5
	c1.4-12.3,3.5-24.7,3.8-37c0.3-15-2.9-29.6-12.9-41.4c-8.7-10.3-26.8-19.2-42.4-10.6c-9.6,5.2-14.8,13.3-16.9,23.6
	c-3.1,15.2-1.2,30.3,0.4,45.5c1.1,10.5,1.9,21.1,3.6,31.5c2,12.6,4.9,25,7.4,37.5c3,14.8-4.6,31.8-19,35.2
	c-7.2,1.7-13.2,0.7-18.5-3.8c-9.9-8.4-14.9-19.7-14.8-32.4c0-11.2,2-22.3,3.3-33.5c1.1-10,2.1-19.9-2.5-29.5
	c-3.8-8-10.4-12.3-18-16.1c-10.7-5.3-18.5-10.3-15.1-26.9c1.4-7,5-12.4,9.6-17.5"/>
<path class="st0" d="M783.6,537.3c3,1.5,5.9,3.3,9,4.5c12.7,4.9,18.8,14.5,21.6,27.5c3.6,16.4,0.9,31.9-3.5,47.6
	c-2.8,10-2.9,20.2,3.3,29.5c3.1,4.7,6.7,8.6,12.5,9.5c7.4,1.1,14.2-5,16.6-14c2.3-8.6-0.5-16.5-2.2-24.5
	c-4.2-20.5-9.4-40.9-12.6-61.6c-1.6-10,0.4-20.6,0.7-31c0.2-8.8,2.5-17.1,6.1-25c9.2-20.4,24.1-26.5,47-21.5c4,0.9,8,2.1,13,3.5
	c0-2.2,0.6-4.2-0.1-5.5c-3.9-7.6-1.1-15.5-0.7-23c0.9-15.9-2.9-29.5-15.2-40c-7.9-6.7-23-5.1-29.5,3.9c-5.5,7.5-6.8,16.1-7.5,25
	c-0.7,8.8-1.2,17.7-4.9,26c-4,9-10.3,15.8-18.1,21.5c-1.3,1-2.7,2-4,3"/>
<path class="st0" d="M243.1,870.8c14.5,10.2,29.5,19.6,46,25.9c21,8,42.4,9.4,64,2.5c17.8-5.7,35.4-11.8,53-18
	c14-4.9,28.2-9.2,43-10.4c18.3-1.4,34.3,5.3,49,15.5c14.7,10.2,28.9,21.2,43.6,31.4c21.9,15.1,45.9,25.4,72,31.1
	c20.7,4.6,41.5,6,62.5,2.5c20.3-3.4,38.2-11.5,53-26c3.1-3.1,6-6.3,9-9.5"/>
<path class="st0" d="M507.1,398.8c-4.2,8.2-8.1,16.5-12.6,24.4c-2.1,3.7-5.4,6.9-8.4,10c-9.3,9.6-11.3,21.1-10.1,34
	c0.9,9.4,2.1,18.6,5.2,27.5c8.3,23.8,27.9,38.6,54,39c10.5,0.2,20.9-0.7,31-3.6c13.1-3.8,21.5-12.5,24.9-25.5c3.4-12.9,6-26,9.1-39
	c1.9-7.9,4.7-15.5,9.9-22c6.5-8.1,17.8-11.9,27.5-9c4.9,1.5,6.7,4.6,3.9,8.9c-3.2,4.9-7.4,9.2-11.4,13.6c-4.2,4.5-8.8,8.5-12.9,13.1
	c-13.9,15.3-14.5,42.2,4,56.9c7.1,5.7,14.9,3.8,22.4,0.5c6.7-2.9,13.2-6.3,20-8.9c8.2-3.1,15.7-1,21.9,5c4.1,3.9,4.1,8.4,0.5,15"/>
<path class="st0" d="M642.1,548.8c4,0.2,8.1,1,12,0.4c9.5-1.7,16.9-7,22-15.4c2.3-3.8,1.2-6.8-3-7.9c-4.4-1.2-8.4-0.3-12.5,1.9
	c-7,3.8-14.2,7.8-22.5,7.5c-6.5-0.2-13.4-0.5-19.4-2.6c-10-3.5-13.5-13.1-15.4-22.3c-4.4-21.5,2.1-39.5,19.3-53.5
	c4.2-3.4,8.2-7.2,12-11c2.9-2.9,2.2-5.1-2-5.9c-12-2.4-20.3,2-25.5,15.5c-5.7,14.7-8.4,30.1-10.8,45.5
	c-2.7,17.2-11.4,27.8-28.2,32.6c-10.5,3-21,6.1-32,6.3c-11.8,0.2-22.7-3.3-33-9"/>
<path class="st0" d="M705.1,188.8c9.1-2.5,18.3-2.2,27.5-1.5c10.2,0.8,20.4,1.3,30.5,2.6c17.3,2.2,23.2,9.1,25,25.9
	c0.9,8.5,2,17.1,3.5,25.5c2.2,11.7,10.1,18,21.4,20.5c4.3,1,8.7,1.9,13,3c12,3.2,20.2,10.4,24.1,22.5c1.1,3.5,2.7,6.9,4.5,10
	c2.7,4.5,5.4,5.3,10.4,3.5c2.7-1,5.6-1.9,8-3.5c10.5-7.5,22.8-10.1,35-10.1c11.7,0,23.7-0.6,35,3.7c20.9,8,35.1,22,40.1,44.5
	c1.8,7.9,3.7,15.9,6.6,23.5c3.5,8.9,5.2,7.2,11.3,2.5c4-3.1,8.2-5,13.1-5.4"/>
<path class="st0" d="M984.1,187.8c-10.3,12.5-22.6,22.7-37.5,28.9c-26.5,11-56.2,9.3-80.5-10.3c-13.8-11.1-23.2-25.6-31.9-40.6
	c-9.2-15.8-17.6-32-26.6-47.9c-10.4-18.3-27.4-23.3-47-21.9c-11.1,0.8-22,3.2-31,10.4c-5.9,4.7-11.5,10-17.6,14.4
	c-8.3,6-18.1,8.8-28,11.1c-13,3-26,6-39,9"/>
<path class="st0" d="M702.1,664.8c-8.3,0.3-16.7,1.1-25,0.8c-5.9-0.2-11.8-1.4-17.5-2.9c-12.1-3.3-17.3-1.9-22.9,10.2
	c-1.7,3.7-2.1,8.2-2.6,12.4c-0.4,3.3-0.3,6.7,0,10c0.9,12-8.3,21.8-19,25c-14.3,4.3-28.1-1-37.1-12.9c-6.8-9-9.5-19.9-14.8-29.6
	c-5-9.1-11.3-16.9-21.6-18.7c-13.8-2.5-27,0.3-37.9,9.8c-7.1,6.2-11.8,14.3-16.6,22.4c-11.1,18.6-26.6,33-44.9,44.6
	c-4.1,2.6-8,5.3-12,8"/>
<path class="st0" d="M835.1,795.8c-12-7.6-24.8-10.1-39-8.2c-16.7,2.2-31.7,7.6-45.5,17.2c-10.3,7.2-16.6,16.9-19.5,29
	c-3.9,16.1-7.7,32.3-15.9,47c-9.6,17.3-24.2,25.8-43.6,27c-28,1.8-54.1-6.1-79.5-16.6c-17.7-7.3-34.5-16.3-47-31.5"/>
<path class="st0" d="M821.6,424.8c-0.5,4.3-0.7,8.7-1.5,13c-2.2,11.5-4.7,23-12,32.5c-6.2,7.9-14.7,13.1-22.9,18.6
	c-9.1,6.1-17.6,12.9-22.4,23c-3.7,7.9-5.9,16-3.7,25c1.4,5.7,5.1,9,9.6,12c4.8,3.2,9.8,6.2,14.5,9.5c12.1,8.5,15.1,20.6,13.5,34.5
	c-1.4,11.7-4.5,23.1-3.5,35c1.4,17.3,7,32.4,21.5,43c8.5,6.2,18.3,4.8,26,0c9.2-5.8,16.2-13.3,18.9-24c0.8-3.2,0.7-6.7,1.1-10"/>
<path class="st0" d="M493.1,368.8c-12.2,6.4-22.6,14.3-25.6,29c-1.5,7.6-6.3,13.2-13.9,15.5c-13.5,4-19.1,13.9-20.5,27
	c-0.5,4.4-1.1,8.7-2,13c-2,9.1-7.9,11.9-17,8c-4.2-1.9-8.5-3.7-12.5-6c-14.1-8-28.5-8.6-43.5-3c-4.4,1.7-9,3.1-13.5,4.5
	c-12.3,3.9-22.6,0-32-8c-7.9-6.8-16-13.4-25.5-18c-10.3-5.1-21.4-7.6-32.5-10c-13.2-2.9-26.4-5.6-39.5-9.1
	c-5.6-1.6-10.7-5.1-16.1-7.8"/>
<path class="st0" d="M382.1,514.8c-6.2,6.4-12.2,13-21.5,15.1c-1.7,0.4-3.2,2.4-4.5,3.9c-5.2,6.4-12.5,8-20,8.9
	c-12.2,1.5-22.7-2.8-32-10.4c-3-2.4-5.9-4.8-9-7c-4-2.8-8.7-3.5-12.9-1c-11.1,6.8-22,14-33.1,20.9c-7.9,4.9-13.2,12.1-15.8,20.6
	c-4.4,14.3-13,24.5-25,33.2c-11.8,8.5-20.4,20.3-22.6,35.3c-1.9,12.6,5.9,27.9,21.4,32.6c11.3,3.5,20.5,1.5,29.1-6.5
	c5.7-5.3,12.6-9.4,18.3-14.7c6.4-5.9,12-12.6,18.1-18.9c3-3.1,6.3-6,9.5-9"/>
<path class="st0" d="M357.1,531.8c-2.3,0.3-4.8,0.4-7,1c-15.3,4.7-28.8,1.3-41.1-8.5c-4.4-3.5-9.2-6.5-14-9.5
	c-5.4-3.5-11.1-2.3-16.4,0.1c-5,2.3-9.7,5.3-14.5,7.9c-5.3,2.8-10.5,5.8-16,7.9c-10.7,4.2-17.5,12-20.9,22.6
	c-2.6,8.2-7.2,15-13.1,20.9c-9.9,10-19.7,20-26.9,32.1c-8.1,13.6-12.8,28.1-8,44c5,16.4,18.7,26.7,35.9,25.4c12-0.9,22.6-6,32-13.4
	c0.3-0.2,0.7-0.3,1-0.5"/>
<path class="st0" d="M262.1,369.8c-10.9-17-11.8-35.7-9.5-55c1.3-10.9,2.6-21.6-1.4-32.5c-6.3-17.5-26.7-27.9-44.1-26.3
	c-12.5,1.2-24.4,4.7-35.5,10.8c-10.9,6.1-17,14.6-16.6,27.6c0.2,5.4,0.9,10.8-3.3,15.6c-3.4,3.9-7.6,5.6-12.1,6.9
	c-13.1,3.5-26.3,6.6-39.5,10.1c-11.5,3-21.9,8.2-31,16"/>
<path class="st0" d="M777.6,255.3c-2.2-4.5-4.2-9.1-6.5-13.5c-5.2-9.5-12.3-16.5-23.5-18.5c-8.7-1.5-18.5,3.7-21.4,9.5
	c-3.8,7.8-2.2,14.8,3.5,20.9c3.7,3.9,8.1,7.2,11.9,11.1c2,2.1,3.6,4.8,4.5,7.5c3.5,11-2.8,17.7-13.9,14.9c-4.9-1.2-9.9-2.5-14.5-4.5
	c-15.3-6.8-30.7-4.5-46-0.8c-6.1,1.5-12.2,3.6-18,6c-13.1,5.4-21,15.1-24.7,28.9c-1.8,6.6-4.7,13.2-8.5,18.9
	c-6.3,9.6-16.7,12-27.3,13.1c-4.7,0.5-9.3,0.7-14,1"/>
<path class="st0" d="M765.1,365.3c-6.6-1-13.8-0.5-18.9-5.6c-3.8-3.7-6.9-8.1-10-12.4c-6.7-9.3-14.4-17.4-25.1-21.9
	c-12.4-5.3-24.3-4.1-30.9,5c-4.6,6.3-6.5,13.9-0.9,20.9c8.3,10.4,11,21.4,8.1,34.6c-2.7,12.3-3.3,24.9-4.7,37.5
	c-1.5,12.5,4.4,22.2,16.5,26.5c8.8,3.1,16.1,4.4,24.1-6.3c4.1-5.5,9.7-10,14.9-14.6c6.9-6.1,15.7-8.3,24.5-10
	c7.9-1.5,15.1-4.1,21.5-9.1"/>
<path class="st0" d="M867.1,314.8c-1,2.5-1.9,5-3,7.5c-0.7,1.6-1.4,3.2-2.5,4.5c-2.3,2.8-5.4,5.5-8.8,4.2c-1.6-0.6-2.4-5-2.5-7.7
	c-0.3-9.1,0.6-18.3-3.1-27c-5.7-13.5-16.6-24.6-33.5-25.4c-16.7-0.8-25.6-10.3-28-25.1c-1.6-10-3.3-20-8.5-29
	c-7.3-12.6-18-19.7-32.5-19.8c-4.3-0.1-8.8,1.4-13,2.9c-8.3,3-16.3,6.7-24.5,9.9c-5.6,2.2-7,6.9-7.4,12c-0.6,7.6-0.7,15.3-1.1,23
	c-0.3,6.4,3,11.1,7.3,15.3c-0.2,0.3-0.3,0.6-0.5,0.9c-1.1-0.3-2.2-0.4-3.3-0.8c-6.8-2.1-13.5-4.9-20.5-6.3c-8.6-1.8-16,2.4-23,6.9
	c-1.5,1-3,2-4.5,3"/>
<path class="st0" d="M1014.1,232.8c-2.7,5.5-5.2,11.1-8,16.5c-8.5,16.6-11.3,34.1-8.5,52.5c1.4,9.5,3.2,19,4.4,28.5
	c0.3,2.7-0.4,5.7-0.9,8.5c-1,5.2-1.9,5.5-6.5,3c-5.5-3-7.5-7.1-6-13c6.5-25.1-9.2-48.3-27.5-58c-15.9-8.5-31.8-6-47.5,0.2
	c-8.3,3.3-16,7.9-24.1,11.9c-2.3,1.1-4.6,2.1-7,3c-7.3,2.8-10.9,2.1-15.4-3.5c-1.7-2.2-2.7-5-4.1-7.5"/>
<path class="st0" d="M578.1,755.8c11.3-12.9,25.4-21.5,41.5-27c12.1-4.2,20.9-11.9,26.5-23.5c4.7-9.7,11.6-17.1,22.4-20.7
	c6.1-2,7.9-6.4,7-13.5c-2.3,0.2-4.6,0.6-6.9,0.6c-5.7,0.1-11.4,0.4-17-0.1c-6.4-0.5-9.4,1.4-10.5,8.1c-1.1,7-2.1,14-3,21
	c-2.2,16.3-8.3,22.1-24.1,25.7c-16.6,3.7-33,0.9-47.4-9.2c-6.8-4.8-9.1-12.5-11.5-20c-1.8-5.5-4-11-6-16.5"/>
<path class="st0" d="M724.6,647.3c-6.7-6.4-15.1-7.8-23.5-6.3c-13,2.2-25-0.5-37-4.7c-14.2-5-37.6,2.8-44.5,14.5
	c-4.4,7.4-5.8,15.6-6.5,24c-0.4,5.3-0.4,10.7-1.1,16c-1,7.7-6.3,9.7-12.4,5c-6.3-4.8-8.3-11.4-8.6-19c-0.6-14.5-4.3-27.8-18.5-34.9
	c-8-4-16.6-6.8-24.9-10.1c-6.9-2.8-14.1-3.8-21.5-4c-9.7-0.3-18.7,1.9-27,7"/>
<path class="st0" d="M962.1,331.8c7.6,9.6,10.5,21.4,15.1,32.5c8.1,19.5,5.3,38.9,0.9,58.5c-4.2,18.5-7.8,37-12.2,55.5
	c-1.3,5.5-1.6,10.2,3.7,13.4c1.6,1,4.4,1.6,5.8,0.9c1.4-0.7,2.6-3.5,2.5-5.3c-0.3-6.2-1.2-12.3-1.9-18.5c-0.8-6.7,0.1-13.1,2-19.5
	c4.5-15.3,8.7-30.8,13.6-46c3.5-11.1,9.9-20.4,20.9-25.5c0.4-0.2,1,0,1.5,0"/>
<path class="st0" d="M535.1,845.8c-7.1-13-16-24.1-30-30.6c-10.6-4.9-21.7-6.3-33-5.8c-12.9,0.6-25.8,2.4-38,6.9
	c-12.8,4.7-25.5,9.7-38,15c-15.3,6.4-30.3,13.5-47,16c-24.8,3.7-48.1,0.5-69-14.1c-6.1-4.3-11.4-9.6-17.1-14.4"/>
<path class="st0" d="M412.1,743.8c-12.6,11.9-27.5,19.4-44.5,22.4c-16.3,2.9-32.6,4.8-49,0.6c-9.6-2.5-18.4-6.5-24.4-14.6
	c-6.2-8.4-6.4-18.3-3-27.9c4-11.6,13.3-18.8,22.9-25.5c7-4.8,13.3-10.3,15.5-19c1.8-7,1-14.4-3.7-19.3c-6.6-6.8-7.4-13.8-5.9-22.3
	c1.7-9-1-11.9-9.9-12c-9-0.1-17,2.9-24,8.5"/>
<path class="st0" d="M1008.6,393.3c-13,14.2-18.2,31.7-21.5,50c-1.8,9.8-3.2,19.6-4.5,29.5c-0.6,5.1-0.5,10.3-0.6,15.5
	c-0.1,3.8,0.3,7.7-0.1,11.5c-0.7,6.9-4.4,8.9-10.9,6.5c-8-3-11.2-7.7-11.5-20.5c-0.2-12.4,3.1-24.2,6.5-36
	c4.2-14.3,7.6-28.6,9.1-43.5c1.7-16.2,0.3-31.7-5.2-47c-3-8.5-9-14.8-15.6-20.4c-7.6-6.4-15.9-12.1-23.9-18.1
	c-14.6-10.9-29.2-9-43.5,0.6c-10.6,7.1-18.2,17.1-24,28.4"/>
<path class="st0" d="M357.1,576.8c1.3,4.2,2.3,8.5,4.1,12.5c4.5,10,7.3,20,5,31c-2.3,11.2,1.5,21.5,6,31.5c2.2,4.8,4.6,9.6,7.5,14
	c6.4,9.5,10.1,12.1,24.9,9.7c17.5-2.8,28.1-13.5,35.5-28.6c3-6.2,6.8-12.1,5-19.5c-1.5-6.3-5.5-11-9-16c-4.5-6.4-10.3-12-12-20
	c-1.1-5-2.8-10-2.9-15c-0.3-16.2-10.3-23.7-24.2-27.9c-3.2-1-6.6-1.1-10-1.6"/>
<path class="st0" d="M605.1,594.8c-6.2-3.3-12.3-6.8-18.5-10c-5.6-2.8-7.8-2.2-10.4,3.5c-1.6,3.6-2.7,7.6-3,11.5
	c-0.3,4.3-2.1,5.9-6.2,6c-4.3,0.1-7.7,1.6-9.5,6c-1.8,4.4-1,6.1,3.5,5.9c4.8-0.2,9.7-1.1,14.5-1.4c5-0.3,10-0.4,15-0.5
	c6-0.1,7.6,2.5,9.5,10c0.2,0.6,0,1.3,0,2c0.6,6.1,3.8,7.8,9,4.5c4.1-2.6,8.2-5.1,12-8c9.8-7.7,21.2-8.7,33-8
	c9.5,0.5,18.5,2.2,27.1,6.9c5.9,3.3,12.8,2.3,19.4,1.6c3.5-0.3,7-0.7,10.9-1.1c-1.2-5.2-5.4-6.2-8.9-7.9c-1.7-0.9-3.6-1.8-5.5-2
	c-5.6-0.6-8.6-4.2-11-8.6c-5.4-9.9-6.2-10.7-16.5-6.9c-14.5,5.3-29.2,5.2-44,2.4c-5.2-1-10.3-2-15.5-3"/>
<path class="st0" d="M84.1,511.8c5.7,4.5,12.3,7.6,16.6,14c2.9,4.4,3.7,8.8,3,14c-3.5,26.8-11.6,52.5-18.4,78.5
	c-2.3,8.9-3.2,18.3-4.1,27.5c-1.8,19.2,0,38.4,2.1,57.5c2.5,22.8,6.8,45.3,19.9,65c2.2,3.3,4.6,6.3,7,9.5"/>
<path class="st0" d="M181.6,566.3c-2.5,2-5,4.1-7.5,6c-10.6,8.1-13.8,19.3-14.6,32c-0.8,12.5-3.1,25-3.8,37.5
	c-0.9,15.6,1.3,30.6,13.9,42c6.9,6.2,15.5,8.8,24.1,10.8c14.1,3.3,28.5,5.5,42.9,2.6c12.3-2.4,24.4-5.5,36.1-10.3
	c9.1-3.7,11.5-10.6,12.5-19.2c0.9-7.8,2.9-15.2,9.3-21c7,5.6,5.2,14.8,9.6,21"/>
<path class="st0" d="M496.6,332.8c-0.8,2-2.1,3.9-2.4,6c-2.9,15.9-12.4,27.6-24.1,38c-9.9,8.8-21.6,12.9-34.5,15.1
	c-11.3,2-18.5,9.3-22,20.3c-3.3,10.2-10,17.8-20,21.4c-11.7,4.2-22.5,0.6-31.3-7.5c-6.2-5.7-12.2-12-16.9-19
	c-6.4-9.4-15-12.5-25.7-13c-8.7-0.4-17.4-1.1-26-2.5c-11.3-1.9-20.3-8.1-27.5-16.9"/>
<path class="st0" d="M473.1,382.8c-9.9,1.5-14.6,8.1-17,17c-1.6,6.1-5,9.7-11.5,10c-4.2,0.2-8.3,0.9-12.5,0.9
	c-7.9,0.1-11.4,2.8-13,10.5c-1.1,5.1-1.7,10.4-3.1,15.5c-1.7,6.3-5.7,8.7-11.9,9.1c-10.7,0.6-20.5-3.1-30.5-6
	c-11.6-3.4-23.4-6.6-35-10.1c-10.1-3-18.9-8.7-27.5-14.6c-11-7.5-23.1-10.3-36.1-11.5c-11.5-1-23.2-1-34-6c-0.7-0.3-1.3-0.7-2-1"/>
<path class="st0" d="M606.1,752.8c13.7-9.3,27.5-18.4,40.9-28.1c5.6-4,10.6-9.1,15-14.5c10.4-12.6,22-23.2,38.6-27
	c2.8-0.6,5.3-2.4,8-3.4c4.9-1.8,6.6-8,5.9-13c-0.6-4.3-5-7.7-10.4-7.9c-5.2-0.2-10.4-0.1-15.5,0.5c-8.7,1.1-16.8-0.4-25-3.5
	c-16-5.9-26.5,1.1-32.3,12.4c-2.8,5.6-2.1,11.8-1.2,18c0.8,5.9,0.5,12.1-2.5,17.4c-4.5,8-11.7,11.9-24.4,9.6c-6-1.1-11.3-3.7-16-7.5
	"/>
<path class="st0" d="M553.1,578.8c-2.8,6-5.6,12-8.5,18c-3.9,7.9-10.5,12.8-18.5,16c-12.8,5-25.9,8.2-40,7.2
	c-15.7-1.2-27.8-15.6-29.8-29.2c-1.4-9.7-1.5-19.6-1.6-29.5c-0.2-16.1-6.1-28.3-21.5-35.1c-7-3-14-5.1-21.5-6.6
	c-9.1-1.9-17.3-0.5-25,4.2c-4.1,2.5-7.9,5.5-12.1,7.9c-4.3,2.5-9,4.4-13.5,6.6"/>
<path class="st0" d="M841.6,327.8c1-4.7,2.9-9.4,2.8-14c-0.3-15.2-6.4-27.4-20.3-35.1c-6.5-3.7-13.6-4.2-20.5-4.3
	c-12.5-0.2-13.7-4.7-17.5-15.1c-4.8-13-9.4-26.1-14.5-39c-4.1-10.4-13-14.3-23.4-15c-14.4-1-27.6,2.2-36.9,14
	c-8.7,11.1-7.8,22,0.5,36.3c3.8,6.5,9.4,12,16.8,15.2c1.9,0.8,3.4,2.5,5.2,3.9c-6.2,2.9-17.8,1.8-24.5-3.6
	c-5.4-4.3-10.6-8.8-15.1-14.5c-4.5-5.7-12.8-8.8-21-8.9c-12.6-0.2-23.7,4.3-33,12.5c-10.4,9.3-20.3,19.1-30.6,28.4
	c-5.7,5.1-7.3,11.5-7.4,18.6c-0.1,6.9-0.9,13.3-4.4,19.6c-3.1,5.6-8.4,6.4-12.5,4.7c-11.8-4.9-22.3-1.2-33.1,2.7
	c-8.4,3.1-16.9,6-22.4,13.6c-1.7,2.3-2.4,5.3-3.6,7.9"/>
<path class="st0" d="M530.1,782.8c-3,10-5.2,20.1-2,30.5c2.8,9.1,7.8,17,14.1,23.9c20.2,22.4,45,37.9,74,45.8
	c20.1,5.5,40.2,4.2,59-6.7c9.3-5.4,15.7-13.3,18.8-23.1c4.5-14.3,13.8-25.1,22.7-36.4c2.1-2.7,4.3-5.3,6.5-8"/>
<path class="st0" d="M1014.1,881.8c-16.7,6.7-34.1,10.1-52,11.5c-17.6,1.4-35.1,0.3-52.5-2.6c-18.7-3.1-36.6-9.3-54.5-15.4
	c-15.5-5.3-30.8-11.1-47.5-12.1c-12-0.8-22.3,2.9-31.5,10.1c-3.2,2.5-6,5.6-9,8.5"/>
<path class="st0" d="M435.1,682.3c5-3.3,10.1-6.5,15-10c8.6-6.2,14.9-14.5,21-23c6.2-8.7,13.1-16.5,23-21c1-0.5,1.6-1.7,3.3-3.5
	c-4,0-7.1,0-10.3,0c-9.2-0.1-17.8-2.3-23.9-9.5c-11.6-13.8-18.1-29.2-15.7-48c1.6-12.2,0.2-24.5-10.9-32.4
	c-14.4-10.2-30.4-12.6-46.9-5.9c-10,4.1-19.6,9.5-29,14.9c-17,9.8-34.6,12.9-53.5,6.9"/>
<path class="st0" d="M797.6,461.3c-1.2,6.2-6.1,9-11,11.4c-11.2,5.7-19.3,15-27.4,24.1c-4,4.5-7.9,9.3-11,14.5
	c-5.3,9-5.1,18.8-3.3,29c1.3,7.5,3.8,13.8,9.8,18.4c2.5,1.9,5.3,3.4,8,5c7.8,4.8,11.9,12.5,12.3,21c0.8,17.3,0.2,34.7,0.3,52
	c0,1.7,0.4,3.3,0.5,5c0.3,6.7,4.1,11.7,7.5,17c2.1,3.3,3,6.1-0.2,10.2c-4.4,5.6-2,12.5-0.3,18.8c0.6,2.1,1,4.3,1.5,6.5"/>
<path class="st0" d="M760.1,507.8c-4.1,9.4-7.6,18.8-6.1,29.5c0.9,6.6,4.1,11.1,9.6,14.5c4.9,3,9.8,6.1,14.5,9.5
	c9.7,7,13.3,16.8,11.5,28.5c-1.8,12.3-3.2,24.6-0.5,37c1.7,7.8,2.7,15.9,5.2,23.4c1.7,5.2,5.4,9.8,8.3,14.5c0.6,1,1.7,1.6,2.5,2.5
	c3.3,4.1,2.8,5.5-2.5,7.5c-2.6,1-5.1,2.2-7.5,3.5c-2.7,1.5-5.6,3.6-4.9,6.9c0.7,3.4,2.7,6.5,7,7.2c2.1-2.5,4.7-4.8,6.2-7.7
	c3.2-6,8.3-6.4,13.6-4.8c5.5,1.6,10.5,1.8,15.6-1c1.1-0.6,2.9,0.2,4.4,0.4"/>
<path class="st0" d="M813.6,709.5c-5.7,1.7-11.9,2-16.7,6.6c-1.5,1.5-4.9,1-7.3,1.7c-4.9,1.5-9.9,2.8-14.4,5.1
	c-3.4,1.7-7.3,4.3-8.8,7.5c-4.7,9.6-13.2,11.3-22.2,12.4c-11.7,1.4-23.4,2.3-35,4.1c-12.1,1.9-23.1,6.4-32,15.3
	c-9.3,9.3-18.7,18.7-28.5,27.5c-11.6,10.3-25.5,14.1-40.9,12c-2.9-0.4-5.8-1.3-8.5-2.5c-6.2-2.9-7.6-8.2-4.5-15.4
	c4.5-10.5,11.8-18.8,20.5-26c0.5-0.5,1-1,1.5-1.5"/>
<path class="st0" d="M793.1,372.8c-5.9-8.3-14.6-10.4-24-11c-11.4-0.8-22.3-2.6-29-13.5c-1.4-2.4-2.7-4.9-3.5-7.5
	c-2-6.9-6.4-11.4-12.6-14.5c-8.8-4.4-17.5-8.3-27.5-9.7c-9-1.2-15.6,2-20.4,8.8c-4.9,6.8-6.3,14.8-3,22.9c1.8,4.4,4.3,8.5,7,12.5
	c6,9.1,4.4,18.8,3,28.5c-0.8,5.5-1.5,11-2,16.5c-0.8,8.8-1.4,17.7-2,26.5c-0.2,3.1,0,6.3,0,9.5"/>
<path class="st0" d="M960.1,505.8c-6.5-8.4-7.1-18.3-5.3-28c3-16.8,7.3-33.3,10.8-50c4.2-19.7,6.9-39.6,1.5-59.5
	c-3.9-14.3-11.8-26-25-33.5c-10.2-5.9-21-9.5-33-10.1c-12.8-0.6-22.3,4.3-29,15.1c-1.3,2-2.7,4-4,6"/>
<path class="st0" d="M737.1,493.8c-10,3.1-17.1,9.5-21.5,19c-5.9,12.7-6.1,25.8-4.7,39.5c1.5,14.4,7.5,26.3,16.1,37.6
	c4.6,6,9.2,12.5,11.9,19.5c5.1,13.2,9,26.9,13.2,40.4c4.2,13.5,7.2,27.3,12.3,40.4c6.1,15.7,12.5,20.2,30.3,20.6
	c1.5,0,3,0.3,4.5,0.5"/>
<path class="st0" d="M128.1,522.8c0.5,3.8,1.6,7.7,1.3,11.5c-0.2,3.2-1.1,6.9-3,9.4c-5.2,7-7.9,15-10.3,23.1
	c-3.1,10.7-5.5,21.6-8.1,32.5c-2.5,10.5-3.2,21.2-2,32c1.6,14.3,2.8,28.7,5.1,43c2.8,17.8,7.8,35.1,15.3,51.5
	c6.2,13.4,13.2,26.2,24.5,36"/>
<path class="st0" d="M401.1,724.8c-4.8,3.8-9.3,8.2-14.6,11.4c-9.1,5.5-19.6,7.4-29.9,9.5c-8.1,1.7-16.4,2.8-24.5,0
	c-10.3-3.5-18-14.2-8-25.4c3.6-4,8-7.4,11.9-11.1c11.4-10.6,14.3-24.3,13.3-39c-0.4-5.8-2.4-12-5.5-16.9c-5.7-9.3-6.9-19.3-7.8-29.6
	c-1-11.2-5.7-18.2-16-21.3c-3.9-1.2-8.7-0.5-12.9,0.4c-10.3,2.2-20.4,5.4-29,11.9"/>
<path class="st0" d="M696.1,714.8c7-3.8,13.8-8,21-11.4c10-4.8,14.6-13.5,18.5-23.1c6-14.5,0.3-26-8.5-37c-6.3-7.9-14.5-10.2-24-8.9
	c-10.2,1.4-20,0.4-29.5-3.5c-11.5-4.6-23.3-6.2-34.9-0.9c-13.9,6.3-25.6,15.1-28.5,31.4c-1.1,5.9-1,12.1-2.2,18
	c-0.6,3-2.5,5.9-4.4,8.5c-1.6,2.1-4,2-4.8-0.9c-1.7-6.3-3.3-12.6-4.5-19c-0.8-3.9-0.5-8-1.1-12c-1-6.2-5.1-10.3-9.9-14
	c-11-8.5-23.3-14.4-37-16.3c-18.2-2.5-36.2-2.2-52.5,8.4c-2.7,1.7-5,4-7.5,6"/>
<path class="st0" d="M827.1,357.3c-2.6-13.1-1.6-26.8-6.9-39.6c-5.4-13.2-14.4-21.1-28.6-23c-2.2-0.3-4.3-0.9-6.5-1.5
	c-11.6-3.1-14.1-12.3-15-22.5c-0.9-11-4.7-20.9-11-30c-3.3-4.8-8.1-7-13.5-8c-4.2-0.8-7.6,1.2-9.3,4.6c-1.7,3.3-1.3,7.5,1.4,10.3
	c3,3.2,6.3,6.1,10,8.5c13.2,8.9,11.4,24.1,4.9,34.5c-2.5,4.1-7,4.7-11.4,4.5c-6.4-0.3-12.5,0.9-18.5,3"/>
<path class="st0" d="M560.6,400.3c-5,4.8-9.9,9.7-15,14.5c-3.7,3.4-5.4,7.4-5.6,12.5c-0.3,6-2,11.4-9.4,12.6c-2.9,0.5-5.6,2-8.5,2.4
	c-11.6,1.6-17.9,8.7-20.5,19.6c-2.1,8.8-3.1,18-0.3,26.4c4,11.9,13.1,18.9,25.8,21.1c12.4,2.1,23.8,0.6,34.6-6.5
	c8.7-5.7,12.3-13.6,12.4-23.6c0.1-8.3,0.2-16.7-3.5-24.5c-1-2-1.5-4.5-3.1-5.9c-4-3.5-4-7.3-1.9-11.6"/>
<path class="st0" d="M480.1,425.8c-2.2,1.3-4.2,3-6.5,4c-10.6,4.4-14.7,13-15.4,23.6c-0.5,7.8,0.2,15.7,0.4,23.5
	c0.1,6,3.3,10.7,6.4,15.5c1.2,1.8,1.7,4,2.6,6.5c-5.1,1.1-8.5,0-11.6-2.5c-0.2-0.1-0.4-0.3-0.5-0.5c-8.9-12.8-22.5-14.8-36.5-16
	c-14.4-1.3-28.6-3.5-43-4.3c-12.9-0.7-15.5,0.4-20.5,12.3c-1.1,2.6-1.6,5.5-3.1,8c-6.5,11.1-16.8,12.7-28.9,10c-1.6-0.4-3-1.3-4.5-2
	"/>
<path class="st0" d="M1014.1,419.8c-3.5,5.2-7.5,10.1-10.4,15.6c-3.1,5.8-3.7,12.3-3.7,18.9c0,13.5-0.4,27-1,40.5
	c-0.4,8.7-3.2,16.7-9.5,22.9c-2.9,2.9-4.9,7-9.9,7.1c-8.8,0.1-17.3,0.1-24.6-6.4c-11.1-10-14.5-22.1-13-36.6
	c1.3-13.7,5.5-26.7,8.6-40c4.1-17.5,8.7-34.9,8.4-53c-0.3-22.7-11.4-38.3-31.4-47c-6.5-2.9-13.1-5.6-20.5-5c-2.3,0.2-4.7,0.6-7,1"/>
<path class="st0" d="M956.6,513.3c-10.7-14.7-12.3-30.5-7.7-48.1c4.3-16.4,7.1-33.2,10.1-50c1.5-7.9,2-16,3.1-24
	c3.3-24.9-13.8-49.7-38.5-55.5c-5.4-1.3-11-2.8-16.5-2.8c-7,0-12.9,3.6-18,8.3c-2.8,2.6-5.4,5.6-8,8.5"/>
<path class="st0" d="M530.1,605.8c-7.6,5.6-16.4,7.9-25.5,8.3c-9.6,0.5-19.3,0.8-28.5-3.3c-9.9-4.3-13-12.7-13.8-22.1
	c-0.7-7.9-0.6-16-0.1-24c1.3-20.1-7.3-34.4-24.6-44c-8.5-4.8-17.5-8.3-27-10.5c-6.9-1.6-13.4-0.1-18.9,3.7
	c-10,6.9-19.3,14.7-29.1,21.8c-5.8,4.3-11.7,8.7-18,11.9c-6.3,3.2-13.5,3.5-20.4,1.6c-7.7-2.1-15.3-4.9-23-6.9
	c-9.3-2.4-18.7-2.7-28,0.4"/>
<path class="st0" d="M883.1,342.8c9.2-13,22.3-14.8,36.5-11.9c11.5,2.4,22.4,6.3,30.5,15.4c8.5,9.6,13,20.8,15.2,33.5
	c2.4,13.9-1,27.2-3.3,40.5c-3,17.6-7,35-10.3,52.5c-1.6,8.6-2.5,17.3,0.4,26c2.4,7.3,6.4,12.8,13.5,16c6.7,3.1,9.3,1.8,15.2-2.3
	c9.8-7,10.1-17,10.9-27.2c1.4-19.1,3.3-38.1,9.4-56.5c2.6-7.9,7.5-14.1,13.1-20"/>
<path class="st0" d="M767.1,747.8c-10.2,6.8-21.5,8.4-33.5,7c-19.2-2.2-35.7,4.1-49.5,17.5c-8.1,7.9-15.8,16.2-24.1,23.9
	c-8,7.5-16.3,15-27.5,17.5c-5,1.1-10.5,2.3-15.4,1.3c-7.4-1.4-14.4-4.6-21.5-7.3c-13-4.9-15.4-22.9-10-32.9c2.1-3.9,4.9-7.4,7.4-11"
	/>
<path class="st0" d="M807.1,398.8c0.3-6.2,1.3-12.4,0.8-18.5c-0.5-6.2-1.7-12.7-4-18.4c-3.2-8-10.8-10.1-18.8-11.1
	c-6.7-0.9-13.5-1.6-20-3.6c-8-2.5-12.8-9.3-17.5-15.8c-4.8-6.8-8.9-14.1-16.5-18.6c-7.8-4.7-16.4-6.2-25.1-7.3
	c-10.6-1.3-21.3-0.9-31.5,2.9c-10.1,3.8-16.8,8.8-16.1,22.5c0.5,8.4-0.4,16.7-5.4,24"/>
<path class="st0" d="M597.6,701.3c-6-5.3-7.3-12.6-8.6-20c-2.5-14.3-5.9-28.4-19.5-36.3c-8.3-4.8-17.3-8.5-26.5-11.5
	c-10.1-3.3-20.5-3.9-31-0.3c-10.5,3.6-17.7,11.1-24.4,19.2c-5.4,6.5-9.4,14.2-15.3,20.3c-6.2,6.4-13.7,11.7-20.9,17.1
	c-11.1,8.5-22.3,16.7-33.5,25"/>
<path class="st0" d="M346.1,596.8c1,7.7,2.9,15.3,2.8,23c-0.2,12.3,2.8,23.4,8.6,34c4,7.3,7.3,14.8,7.7,23.5
	c0.3,6.2-0.6,11.9-2.7,17.5c-2.4,6.5-4.6,12.9-3.5,20c1,6.6,4.8,8.3,9.5,6.4c5.6-2.3,11.9-4.3,16.4-8.1
	c11.3-9.7,24.6-15.8,37.2-23.3c2.8-1.6,5.9-2.7,8.4-4.6c2.3-1.7,4-4.3,6.1-6.4c6-6,12-12,18-18c7.4-7.6,14.7-15.3,22-23
	c0.8-0.9,1.4-1.9,2-3c3-5.3,2.1-7.1-4-9c-19.8-6.3-29.5-20.9-32.4-40.5c-1.1-7.2-1.3-14.7-1-22c0.6-15.8-6.4-24.6-22.1-28.9
	c-16.1-4.4-31.3-0.6-46,6.4c-0.1,0.1,0,0.6,0,1"/>
<path class="st0" d="M599.1,575.8c9.2,4.3,18,9.6,27.6,12.8c16.5,5.4,33.1,2.4,49.4-2.3c3.5-1,7.1-1.8,10.5-3
	c5.4-1.9,9.4,1.6,8.5,7.5c-1.3,8.8-1.1,8.3,6.4,12.6c8.5,4.8,16.7,10.2,24.5,16c6,4.5,7.4,13.6,4.4,21.9c-1.4-1.3-3-2.2-3.8-3.5
	c-3.8-6.8-9.6-7.5-16.6-6.6c-8.1,1.1-16.4,2.1-24.5-0.5c-1.8-0.6-4.5-0.3-4.6-3.4c0-0.5-1.2-1.1-1.9-1.5
	c-20.3-10.5-40.4-9.6-59.3,2.7c-5.5,3.6-9.2,10.1-13.7,15.3c-1.8,2-3.5,4.1-5.7,6.8c-1.1-2.7-2.1-4.2-2.2-5.8
	c-1.5-13-9.9-19.4-21.6-21.9c-7.9-1.7-16-2.7-24-3c-7.3-0.3-14.7,0.9-22,1.3c-1.7,0.1-3.4-0.4-6.2-0.7c7.9-5.3,14.9-9.8,21.7-14.8
	c7.4-5.4,12.6-12,13.2-21.9c0.8-11.6,10.1-17.2,23.3-15c2.5,0.4,5,1.3,7.5,2"/>
<path class="st0" d="M278.1,704.8c-3.3,10.7-6.8,21.3-10,32c-3,9.9-0.9,19.3,5.6,26.9c14.5,16.9,32.1,27.6,55.4,27.2
	c30.4-0.6,59.7-6.2,87-20.1c3.1-1.6,6-3.3,9-5"/>
<path class="st0" d="M937.1,522.8c-8.5-14.5-11.7-30.4-11.4-47c0.2-13.7,1.5-27.3,1.8-41c0.3-10.2-1.3-20-6.8-29.1
	c-3.7-6-6.6-12.5-9.5-19c-3.8-8.4-13.1-12.7-21.4-7.7c-9.3,5.5-19,5.8-29.1,5.8c-6.7,0-13.3,0.6-20,0.9"/>
<path class="st0" d="M285.1,615.8c6.7-2.3,13.4-4.5,20-7c15.1-5.7,27.8,9.7,28,20c0.1,4-0.1,8-0.5,12c-0.5,4.7,0.2,9.1,3.6,12.5
	c6.8,6.7,7.9,15,6.8,23.5c-2,16.6-8.7,30.6-22.8,40.7c-3.9,2.8-7.5,6.3-9.2,11.3c-2.3,6.8-0.1,13.5,6.5,17.2
	c10.3,5.8,21.3,7.1,32.5,5.3c9.8-1.6,19.5-4.4,28-9.9"/>
<path class="st0" d="M754.6,440.3c-0.5,1-0.7,2.4-1.5,2.9c-6.1,3.8-10.5,9.5-13.3,15.7c-5.7,12.7-16,17.7-28.7,19.4
	c-7.5,1-14.9,1.2-22.5-0.3c-8.1-1.5-12.2-6.7-15.4-13.2c-4.8-9.7-6.2-20.1-6.2-31c0.1-14.1,0.2-28.1,3.5-42c2.2-9.1,0.8-18.4-1-27.5
	c-1.3-6.6-3.7-7.1-9-2.5c-0.7,0.5-1.6,0.7-2.5,1"/>
<path class="st0" d="M466.1,518.8c9.5,11.7,11.3,25.8,13,40c1.1,9,2.7,18,7.5,26c4.4,7.6,9.9,9.2,17,7.8c8.2-1.6,15-5.6,18.7-14.2
	c2.8-6.6,7-12.8,11.4-18.5c9.8-13,23.8-18.8,39.4-21c13.6-2,27-0.4,40,3.9"/>
<path class="st0" d="M337.1,659.8c5,8.2,3.5,16.7,0.4,25c-2.7,7-7,13.2-12.4,18.6c-6.3,6.3-12.5,12.8-18.5,19.5
	c-9.6,10.9-5.7,18.2,5,24.9c20.4,12.7,41.6,12.3,62.9,2.1c18.7-9,35.3-21,51-34.5"/>
<path class="st0" d="M403.1,557.8c5.7,4.8,8.2,11.6,8.8,18.5c1.1,11.1,5.8,20.1,13.1,28c3,3.2,5.9,6.5,8.5,10
	c6,8.4,4.4,17.4,1.6,26.5c-3.7,12-10.9,20.7-23.1,24.4c-7.2,2.2-14.6,2.3-22,0.5c-6.5-1.5-12.3-9-13-16.5c-0.8-9.8-1-19.7-2.2-29.5
	c-0.7-5.7-2.5-11.3-3.9-17"/>
<path class="st0" d="M297.1,486.8c-8.2-5.6-17.4-8.2-27-10.1c-14.1-2.8-28-6.7-42-9.8c-7.6-1.7-15.3-3.3-23-3.9
	c-9.8-0.7-15,5.5-16.6,13.8c-2.3,12.5-0.2,24.3,4,36c2,5.6,4.2,11.2,5.4,17c2.8,12.6-3.1,22.5-10.9,31.5c-1.3,1.5-3,2.7-4.5,4"/>
<path class="st0" d="M254.1,558.8c-3.3,6.8-7.1,13.5-9.9,20.5c-6.2,15.6-16.6,27.1-31.6,34.4c-13.5,6.6-16.6,23.4-10,35
	c3,5.3,7.6,7.8,13,5.9c19.3-6.8,36.3-16.9,49.5-32.9c9.5-11.4,20.8-20.4,35-25.5c1.2-0.4,2.6-0.4,4-0.5"/>
<path class="st0" d="M372.1,499.8c-3.7,3.5-4.4,8.5-6,13c-3,8.4-11.1,14-20,15.1c-11,1.3-19.8-2.9-27.5-9.7
	c-14.6-12.9-31.8-15.2-50-12.3c-14.8,2.3-27.9,8.2-38.6,19.3c-6.8,7-9.6,15.2-9.9,24.6c-0.3,8.8-2.6,16.5-10,22"/>
<path class="st0" d="M466.1,528.8c7.6,13,9.7,27.1,8.6,42c-0.3,4.9,0.6,10,1.4,15c1.5,9.2,8,13.4,16.5,15
	c20.4,3.7,35.1-6.4,40.7-24.4c2.1-6.8,5.4-13.6,9.5-19.4c6-8.4,15.7-11,25.3-13.2c9.3-2.1,18.6-2,28-1"/>
<path class="st0" d="M768.1,767.8c-14.7,4.8-29.3,9.7-44,14.5c-13.3,4.4-22.8,13.6-31,24.5c-5.8,7.7-11.8,15.2-18,22.5
	c-9,10.6-21.2,16.1-34.5,18.4c-18,3.1-35.6,0.8-52-7.9c-4-2.1-7.7-4.6-11.5-7"/>
<path class="st0" d="M668.1,593.8c3.2-1,6.4-1.8,9.5-3c6-2.4,9.2-0.9,11,5.5c0.7,2.5,0.9,5.3,2.1,7.4c2,3.4,5.7,4.3,9.4,5.1
	c11.2,2.3,19.4,8.7,25.9,19.3c-3,0.3-5.2,0.7-7.4,0.6c-7-0.1-14-0.3-21-0.5c-3.8-0.1-7.7-0.7-11.5-0.4c-10.5,0.8-19.6-4.5-29.5-6
	c-5.6-0.8-11.3,0.2-16.5,2.9c-7,3.6-14.3,6.5-20.9,10.6c-10.6,6.6-14.7,16.3-12.2,28.9c1.3,6.5-0.7,13-4.9,18.4
	c-0.5,0.7-1.5,0.9-2.5,1.5c-0.5-7.1-0.6-13.9-1.6-20.5c-1.6-10.7-2.4-22.3-12.1-29.3c-6-4.3-13.4-6.8-20.4-9.6
	c-4.3-1.7-9-2.4-13.5-3.6"/>
<path class="st0" d="M284.1,598.8c9.8-5.2,19.7-9.6,31-10.6c16.3-1.5,27.9,8.4,27.7,23.6c-0.1,8.3,0.7,16.9,2.6,24.9
	c1.6,6.6,5.5,12.7,8.2,19.1c1.9,4.5,4,8.9,5.5,13.5c2.9,9.4-0.4,18.4-2.4,27.5c-0.9,4-1.4,8.3-3.1,11.9c-2.4,5-5.6,9.6-8.9,14
	c-1.8,2.4-4.8,5-3.1,7.4c1.5,2.1,5.3,3.1,8.2,3.6c7.9,1.3,15.2-1.3,22-5c15.3-8.4,29.9-18,43.5-28.9"/>
<path class="st0" d="M327.1,598.8c8.1,4.2,10.9,11.7,12.5,20c1.8,9.3,3.3,18.8,5.6,28c1.1,4.5,3.5,8.9,5.9,13
	c9.8,17,3.4,39.8-7,50.6c-4,4.2-7.6,8.8-11,13.5c-6.6,9.1-2.3,13.8,7,16c12.1,2.8,23.2-0.6,34-5.5c2.6-1.2,5.3-2.3,8-3.5"/>
<path class="st0" d="M900.6,616.8c0.2-2,0.7-4,0.5-6c-1.7-15.9,2.4-31.3,3.5-47c0.8-11,2-22,1.3-33c-0.7-11.8-7.6-20.8-16.8-28
	c-3.3-2.6-6.7-5.2-10.5-6.9c-6.5-2.9-15,0.4-20.5,6.9c-6.3,7.4-9.1,16.2-8.8,25.5c0.5,18.2,1.6,36.4,3,54.5c0.8,10,2.5,20,4,30
	c0.2,1.1,1.6,2,2.4,3"/>
<path class="st0" d="M192.1,587.8c-10.1,10.4-16.4,22.9-19.4,37c-2.3,10.9-3.4,22-0.1,33c2.6,8.6,8.6,14.5,16.5,17.9
	c21.4,9.1,42.6,7.7,62.9-3.5c7.5-4.1,13.5-10.4,18.2-17.8c3.2-5.1,7.3-9.7,10.9-14.5"/>
<path class="st0" d="M634.1,188.3c0,0.7,0,1.3,0,2c1.5,16.7-5.6,20.9-19.5,25.5c-9.6,3.1-19.6,5.4-28.9,9.2
	c-14.4,5.9-22.1,18-26.6,32.4c-1.9,6.2-4.3,12.3-5.9,18.5c-3.5,13.4-12.6,20.2-25.5,23c-4.7,1-9.5,2.2-14,4
	c-7.5,3-11.2,9.5-13.6,16.9c-0.3,0.9-1,1.7-1.5,2.5"/>
<path class="st0" d="M817.1,237.8c-6.3-8.6-8.3-18.6-8.5-29c-0.2-8.2,0.5-16.6-1.2-24.4c-3.6-16.9-14.9-28.2-30.9-33.3
	c-15.6-4.9-31.8-8.3-48.4-8.3c-11.9,0-23.3,3.1-34.5,6.9c-2.4,0.8-5,1.4-7.5,2"/>
<path class="st0" d="M759.1,552.8c6,5.5,12.2,10.8,18,16.5c6,5.9,6,13.7,6,21.5c0,13.7-0.2,27.3,0.1,41c0.2,9.9,6.4,17.4,10.9,25.5
	c2.4,4.3,4.2,9,6.3,13.7c-2.5,0.8-3.9,1.5-5.3,1.7c-9.8,1.8-12.9,7.9-8.5,17c3.7,7.6,11.8,9.2,16.3,2.4c4.5-6.7,9.5-7.6,16.2-4.9"/>
<path class="st0" d="M581.1,698.8c-3.8-7.1-5.8-14.8-8.2-22.5c-4.8-15.6-16.8-23.9-31.9-27.9c-5.5-1.5-11.3-2.1-17-2.5
	c-10.6-0.9-18.5,4.2-24.4,12.5c-5.8,8.1-10.8,16.8-16.6,24.9c-7.9,10.8-18.3,19.1-29.4,26.6c-7.4,5-14.4,10.6-21.5,15.9"/>
<path class="st0" d="M539.1,439.8c-4.3,1.8-8.5,4.3-13,5.4c-11.5,2.6-18.2,9.6-21.5,20.6c-3.7,12.3,0.2,27.4,9.6,34.5
	c7.8,5.9,17.2,6.6,26.5,6c15.8-1.1,27.8-12.3,28.5-28.4c0.2-4.8,0.4-9.7,0-14.5c-0.6-6.2-3.8-10.9-8.9-14.6c-1.7-1.2-2.7-3.3-4-4.9"
	/>
<path class="st0" d="M1014.1,366.8c-6,2-11.2,5.1-15.6,9.9c-6.4,7.2-9.5,4.1-12.2-3c-3.6-9.1-5.5-18.9-8.2-28.4
	c-2.6-9.2-5.6-18.2-13.5-24.5c-0.8-0.7-1.6-1.5-2.5-2c-13.3-6.2-26.3-13.4-40.1-18.3c-16.5-5.8-33-4-47.9,6.2"/>
<path class="st0" d="M753.1,333.8c-2.8-5.9-3.8-12.6-9.5-17c-11-8.8-22.9-15-37.5-14.5c-10.7,0.3-21.4,0.1-32,2.5
	c-14.5,3.3-19.1,7.7-20,23.5c-0.3,6.3-0.5,12.7-1,19c-0.4,5.2-4.1,7.5-8.4,9.6c-7.8,3.6-15.4,7.6-23,11.4"/>
<path class="st0" d="M931.1,566.8c-2.7-5.7-5.4-11.3-8.1-17c-0.5,0.1-1.1,0.3-1.6,0.4c-0.1,1.5-0.2,3-0.3,4.5
	c-0.7,11-0.4,22.2-2.2,33c-2.2,13,0,24.9,5.3,36.5c3.7,8.1,7.8,16.1,12,24c4.1,7.7,14.2,8.2,20,5.5c2.2-1,4.4-2,6.5-3
	c10.2-5.1,9.9-12.7,5.9-20.9c-2.3-4.7-5.9-8.7-8.9-13.1c-2.2-3.3-4.3-6.7-6.5-10"/>
<path class="st0" d="M456.1,528.8c7.2,11.8,9.9,24.8,10.1,38.5c0.1,8.3,0.6,16.8,2,25c2.9,16.3,8.8,17.1,20.4,18.4
	c5.7,0.7,11.7,0,17.5-0.4c10.2-0.6,18.4-5,24.5-13.4c8-11,12.1-23.6,17-36"/>
<path class="st0" d="M622.6,673.8c0.3,6.3,1.2,12.7,0.8,19c-0.4,6.6-3.2,12.2-9.8,15c-7.1,3-13.6,1.1-19.4-2.6
	c-7.6-4.9-10.5-12.8-12.1-21.4c-0.5-2.7-1.1-5.3-1.5-8c-2-14.7-12.1-22.6-24-29c-4.1-2.2-8.3-4.5-12.5-6.5
	c-13.3-6.3-25.8-4.5-37.5,4"/>
<path class="st0" d="M789.6,430.3c-4,4.2-8,8.3-12,12.5c-3.7,3.8-8.4,5.1-13.5,6.1c-5.9,1.1-10.9,4.2-13,10.4
	c-6.1,17.8-20.6,25.3-37,30.5c-13.3,4.2-26.8,2.6-40-0.2c-8.7-1.9-13.5-8.7-14.9-17.3c-0.7-4.2-0.5-8.7,0-13c0.5-3.9,0-6.9-2.5-10.1
	c-3-4-2.2-9.3-1.5-13.9c1.2-8.3-2-14.3-8.2-18.9c-6-4.5-12.8-3.8-19.4-1.5c-2.5,0.9-4.7,2.9-7,4.4"/>
<path class="st0" d="M849.1,809.8c4.5,7.5,8.9,15,13.5,22.5c8.6,13.9,21.9,20.4,37.5,21.3c17.1,1,34.3,0.2,51.5,0.2
	c8.2,0,16.3,0,24.5,0.5c10.3,0.6,20.2-0.4,30-3.6"/>
<path class="st0" d="M729.1,168.8c10.3,0.3,20.8-0.1,31,1.2c11.8,1.6,22.8,6,31,15.3c3.5,4,3.8,9.1,4,14c0.3,12.7-0.2,25.4,1.9,38
	c2.2,13.7,8.1,19.6,21.2,22.3c5.9,1.2,12.5,1.2,18.4,0c7-1.5,12.4,0.1,17.5,4.3"/>
<path class="st0" d="M856.1,727.8c-21.4-12.8-41.4-9.1-60.5,5c-7.2,5.4-14.1,11.2-21,17c-8.7,7.3-19.1,9.5-30,9.9
	c-8.7,0.4-17.4-0.3-26,0.7c-9.7,1.1-18,6.2-25.5,12.3"/>
<path class="st0" d="M1014.1,200.8c-6.4,3.4-12.8,6.6-17.5,12.5c-5.6,6.9-7,15.4-9.5,23.5c-0.8,2.7-1.4,5.4-2.5,8
	c-3,6.9-8.6,10.3-16.9,9.4c-10-1.1-20.2-2.1-30-4.6c-14.7-3.8-27.8-1.7-40.1,7.2c-2.4,1.8-4.9,3.5-7.5,5c-5.8,3.4-11.3,2.5-16.5-1.5
	"/>
<path class="st0" d="M754.6,707.3c-2.3-8.8-6.4-16.7-12.6-24.6c-1.6,1.9-2.9,3.1-3.8,4.6c-1.8,2.9-3.7,5.8-5,9
	c-3.4,8.3-9.8,13.1-18.1,15.4c-10.1,2.9-18.3,8.7-26,15.5c-14.3,12.5-29.5,23.8-46.4,32.6c-4.2,2.2-8.5,4.1-12.5,6.5
	c-7.3,4.5-9.7,10.1-7.2,17.4c5.2-3.2,10.5-5.9,15.1-9.5c10.2-8.1,20-16.7,30.1-24.9c9.3-7.6,18.9-14.9,30.5-19
	c5.8-2.1,11.6-1.8,17.5-1c10.8,1.6,20.5-0.8,28.5-8.5c1.2-1.2,2.7-1.9,4-3c3-2.7,5.6-5.7,6-10"/>
<path class="st0" d="M454.1,520.8c9.8,11.2,14.8,24,15.1,39c0.2,8.8,0.6,18,3.1,26.4c6.5,22,24.3,24.5,41.7,18
	c13.7-5.2,20.4-16.8,25-29.9c4.4-12.3,12.2-21.4,25.5-23.8c6.7-1.2,13.7-1,20.5-0.6c8.6,0.5,17.1,2.2,25,5.9"/>
<path class="st0" d="M857.1,784.8c9.8,8,19.3,16.5,29.6,23.8c11,7.8,24,10.8,37.4,12.3c14.5,1.5,29,4.1,43.5,5.8
	c12.6,1.5,25.1,5,38,3c2.9-0.5,5.7-1.9,8.5-2.9"/>
<path class="st0" d="M610.1,388.8c12.6-11.8,27-19.9,44-23.6c1.4-0.3,2.5-2.1,3.5-3.4c1-1.5,1.4-3.6,2.6-4.9
	c1.3-1.5,3.2-3.3,4.9-3.4c2.5,0,5,0.6,6.2,4.2c3.1,9.7,6.7,19.2,4.8,29.5c-1.2,6.4-3.5,12.6-4.3,19c-1.3,11-2.1,22.1,0.4,33
	c3.6,15.7,22.5,31.3,36.4,30.5c11.1-0.6,18.8-6.9,25.5-15c5.4-6.5,12.1-11.3,19.9-14.6c6-2.6,11.7-5.9,17.5-8.9"/>
<path class="st0" d="M706.1,562.8c1,4.8,3,9.7,2.8,14.5c-0.5,8.9,3.6,14.7,10.2,19.5c5.5,4.1,11.1,8.2,14.6,14.4
	c3.7,6.6,4.9,13.8,6.4,21c2.7,12.8,3.5,26,7.9,38.5c3,8.6,8.6,15.6,13.6,22.9c5.2,7.5,6.3,15,1.5,23"/>
<path class="st0" d="M730.1,572.8c5,8.5,11.7,15.8,15.2,25.4c3.6,9.8,5.1,19.9,6.8,30.1c3.8,23.7,9.6,46.6,22,67.5
	c5.7,9.6,14.8,11.8,25,11.4c2-0.1,4-1.3,6-1.9"/>
<path class="st0" d="M976.1,601.8c6.1,12.5,11.3,25.2,10.5,39.5c-1,18.8-9.2,26-25.1,30.3c-5.4,1.4-11.3,1.2-17,1.1
	c-10.1-0.2-16.8-6.2-21.4-14.5c-6.6-11.7-12.7-23.6-19.1-35.5c-0.3-0.6-1-1-1.5-1.5"/>
<path class="st0" d="M796.6,428.8c-1.5,3.5-3.1,7-4.5,10.5c-1,2.5-1.4,5.1-2.6,7.5c-4.5,9.4-6.8,8-14.5,6.5c-3.5-0.7-6.3-1-9.7,2.3
	c-5.1,4.9-9.3,10.1-12.8,16.2c-6.9,12.1-18.7,18.5-30,25.6c-6.8,4.3-13.8,7.7-22,6.4c-5.5-0.9-11-2.9-16.5-3.3
	c-12.3-1-24.6-3-37-0.7c-3.3,0.6-7.2,1-9.5-2.9c-2.3-4-2.8-8.3-1.3-12.5c0.8-2.5,3.2-4.4,4.8-6.5"/>
<path class="st0" d="M766.1,453.8c-6.2,0.4-8.8,5.3-12,9.5c-5.3,6.7-9.6,14.7-16.2,19.7c-8.3,6.2-18.2,10.6-27.9,14.6
	c-4.2,1.7-9.6,0.5-14.4,0.2c-8-0.4-16-1.1-24-1.4c-7.8-0.3-15.2-1.4-20.5-8c-4-4.9-4.7-10.8-0.9-16c4.1-5.6,7-11.5,7.5-18.5"/>
<path class="st0" d="M620.1,400.8c-5.2,7.3-12.6,11.5-21,14c-6.5,1.9-12.1,4.5-16.1,10.5c-4.5,6.8-12.6,8.8-19.4,12.5
	c-1.4,0.8-3.1,1.1-4.5,2c-7.4,5.1-7.4,7.2,0,11.9c6.5,4.2,7.9,10.5,7.5,17.5c-0.7,11.4-2.5,22.7-13.5,28.9
	c-16.9,9.5-37.9,4.2-44.3-10.5c-1.7-3.8-2-8.7-1.5-12.9c0.6-5.3,2.8-10.4,4.3-15.5c1.7-5.9,13-11.2,18.5-9"/>
<path class="st0" d="M907.1,401.8c7.3,12.3,9.8,25.9,10.5,40c0.7,13.7,1.3,27.4,2.6,41c1.8,18.4,9.2,35,19,50.4
	c4.7,7.3,12.4,9.8,20.9,9.6"/>
<path class="st0" d="M488.1,435.8c-13.8,24.7-8.5,55.1,7.4,75.1c13.8,17.3,32,21.4,52.6,18.9c7.7-1,15.1-3.2,22-6.9"/>
<path class="st0" d="M797.1,369.8c-4.5-9.7-13-11.5-22.5-12.1c-5.8-0.3-11.7-1-17.5-2c-6.3-1.1-10.7-4.6-13.1-10.9
	c-4.2-11.3-11.3-20.1-22.5-24.9c-10-4.3-20.3-7.3-31.5-7.2c-10.7,0.1-18.1,5-22.5,14.6c-0.9,1.9-2,3.7-3,5.5"/>
<path class="st0" d="M894.1,613.8c0.3-1.8,1-3.7,1-5.5c-0.1-10.3-0.4-20.7-0.4-31c0-9.3,0.7-18.7,0.3-28c-0.3-8.9-4.7-13.7-9.4-14.4
	c-8.3-1.3-17.6,2.7-20.7,8.3c-4.5,8.3-6.1,17-6.8,26.1c-0.4,5.8-0.4,11.7-0.5,17.5"/>
<path class="st0" d="M59.1,352.8c-5.9,7.4-11,14.9-13.2,24.5c-1.7,7.4-2.7,14.8-1.7,22c2.5,17.6,5.6,35.1,8.9,52.5
	c3.2,16.7,8.2,32.8,17.9,47"/>
<path class="st0" d="M892.1,408.8c8.3,11.7,12.5,24.9,12.4,39c-0.3,34,9.4,65.1,25.6,94.5c2.3,4.2,4.7,8.3,7,12.5"/>
<path class="st0" d="M940.6,456.8c1.3-4,2.8-8,4-12c5.2-17.1,9.3-34.6,9.8-52.5c0.4-12.3-3.2-23.8-12.8-32.5c-0.7-0.6-1.4-1.3-2-2
	c-10.8-12.6-24.7-14.6-40-12c-0.5,0.1-1,0-1.5,0"/>
<path class="st0" d="M662.1,595.8c-6.8,0.3-13.7,0.9-20.5,1c-17.5,0.1-33.5-4.1-47-15.9c-4.3-3.8-9.3-6.1-15.5-5.6
	c-6.8,0.6-11.7,5.2-12,12.1c-0.1,2-0.3,4-0.5,6c-0.3,5.1-2.9,8.3-7.5,10.6c-3.9,2-7.7,4.6-11,7.5c-4.8,4.3-4.2,5.9,1.9,7.9"/>
<path class="st0" d="M663.1,728.8c9.5-8,18.7-16.3,28.6-23.9c5.8-4.4,12.3-8.1,19-11c9.5-4.2,17.1-9.7,18.9-20.7
	c2-12.5-2.5-20.3-15-23.3c-6.5-1.6-13.6-1.2-20.5-1.1c-8.3,0.1-16.2-0.6-24-3.6c-7.7-2.9-15.3-5.4-24-4.7
	c-12.3,1-23.5,10.2-25.9,25.2c-1.4,8.6-1.7,17.4-3.2,26c-1.4,7.9-2.5,11.6-12.4,11c-1.7-0.1-3.3,0-5,0"/>
<path class="st0" d="M621.6,673.8c-0.7,7-0.9,14.1-2.1,21c-1.5,9-10.1,13.6-18.3,9.9c-3.8-1.7-8.2-3.8-10.3-7.1
	c-2.7-4.3-3.8-9.7-4.7-14.8c-1.6-9.1-3.8-17.7-9-25.5c-4.3-6.5-10.6-10.5-17.2-13.8c-11.6-5.8-23.5-10.5-36.9-9.7
	c-7.2,0.5-13.8,2.7-18.9,7.6c-5.4,5.1-10.1,10.9-15.1,16.4"/>
<path class="st0" d="M894.1,399.8c8.7,6.7,13,16.2,14.8,26.5c2.7,15.4,4.3,31,6.1,46.5c1.8,15.8,6.1,30.9,12.1,45.5
	c2.6,6.3,5.9,12.4,8.9,18.5"/>
<path class="st0" d="M746.1,559.8c3.7,3.8,7.1,8,11,11.4c6.9,6.1,9.3,13.8,9.4,22.6c0,5.8,0,11.7-0.5,17.5
	c-1.1,13.2,1.3,25.9,6.2,38c3.5,8.8,3.9,17.9,4.9,27c0.3,3.2,0.8,6.4,1.5,9.5c0.8,3.6,2,6.8,5.4,9.1c2.5,1.7,4.4,4.2,6.6,6.4"/>
<path class="st0" d="M1014.1,729.8c-2.8,9.7-6.3,19.1-12,27.5c-5,7.4-12.7,9.3-21,9c-9-0.3-18-1.1-27-1.4c-15-0.5-23.6-9.1-29-22
	c-1.3-3.1-2.7-6.1-4.1-9.2c-0.4-0.1-0.8-0.2-1.3-0.2c-2.2,4.8-4.4,9.6-6.7,14.4"/>
<path class="st0" d="M667.6,691.3c-5.7,7.2-11,14.6-17.1,21.5c-11.5,13.1-26.8,21.1-41.4,30c-9.4,5.8-19,11.3-24.9,21
	c-8.6,14.1-10.3,27.7-0.1,43"/>
<path class="st0" d="M795.6,717.3c-10.7,8-18.9,19-31.5,24.5c-8,3.5-16.4,5.1-25,6c-10.2,1-20.3,2-30.5,3
	c-11.1,1.1-19.9,7.2-27.9,14.1c-6,5.1-11.1,11.2-16.6,16.9"/>
<path class="st0" d="M577.1,435.8c-5.6,6.4-7.3,12.7-2.2,20.6c4.4,6.9,2.9,15.2,2.6,22.9c-0.7,16.2-9.2,27.2-24.4,32.4
	c-16.4,5.6-31.7,3.7-45-8.4c-1.7-1.5-3.6-2.7-5.5-4"/>
<path class="st0" d="M1014.1,766.8c-1.7,8.1-3.8,16.1-8.5,23c-5.5,8-13.8,11-23,12c-21.7,2.2-41.3-4.5-60.5-13.4
	c-7.8-3.6-16-6.4-24-9.6"/>
<path class="st0" d="M725.1,689.8c-4.8,2.3-9.7,4.6-14.5,7c-8.2,4.1-15.9,9-22.5,15.5c-16.6,16.5-35.2,30.4-55.5,42
	c-10.4,6-20.1,12.8-25,24.5c-0.7,1.7-1.5,3.3-2,5c-2.5,9.2,1,11.3,9,10.7c11.1-0.8,21.1-5.8,30.5-11.8"/>
<path class="st0" d="M341.1,581.8c10.2,7.7,13.3,18.3,12,30.5c-1.4,12.7,1.1,24.1,7.9,35.1c6.1,10,9.5,21.5,12,32.9
	c1.1,4.9-0.4,9.7-2.2,14.5c-1.2,3.2-1.5,7-1,10.4c0.6,4,2.7,4.6,6.8,2.5c1.7-0.9,3.3-2,5-3c1.3-0.7,2.6-1.7,4-2
	c13.5-2.6,22.9-12.5,34.5-18.4c13.9-7,22.7-18.9,32-30.5c3.1-3.8,7.2-6.7,10.9-10.1c0.1-0.1,0.4,0.1,0.5,0c9.1-8.9,10.7-9.3,0-17
	c-0.9-0.6-1.7-1.3-2.5-2"/>
<path class="st0" d="M566.1,776.8c-1.6,7.5-2.1,15-0.5,22.5c2.6,11.9,9.8,20.3,20,26.5c12.6,7.7,26.2,12.1,41,12.5
	c13.5,0.3,24-5.2,32-16c1.1-1.5,2.3-3,3.5-4.5"/>
<path class="st0" d="M919.1,376.8c11.2,16.6,18.2,34.7,15.3,55c-2.6,18.1-6.1,36.1-4.8,54.5c0.4,6.3,0.2,12.9,4,18.5"/>
<path class="st0" d="M666.1,739.8c-12,7.7-24.1,15.2-36,23c-7.7,5.1-14.3,11.5-18.9,19.5c-2.9,5.1-0.1,6.9,3.9,7.5
	c11.9,1.8,20.2-4.4,26.9-12.7c8.3-10.4,19-17.8,29.7-25.4c9.6-0.2,16.7-7.1,25.5-9.7c8.1-2.4,16.2-4.1,24.5-4.8
	c8.4-0.7,16.7-1.8,23.5-7.5"/>
<path class="st0" d="M960.1,329.8c-15.6-14.3-33.4-24.1-55-24.9c-11.4-0.4-20.7,5.3-29,12.4c-8,6.9-12.7,16-16.1,26
	c-1,2.8-2.8,5.3-3.9,8c-1.7,4.3-4.6,4.3-8,2.5"/>
<path class="st0" d="M927.6,368.3c5.4,6,7.5,13.2,8.6,21c1.3,9.2,4.3,18.3,4.6,27.5c0.3,9.3-1.7,18.7-3.3,28
	c-2.8,16.6-5.9,33.1-3.9,50"/>
<path class="st0" d="M359.1,600.8c1.7,5.3,2.3,10.7,0.5,16c-3,8.5,0.1,15.9,3.4,23.6c6,13.7,11.4,27.6,17.1,41.5
	c0.7,1.7,1.5,3.4,2.5,5c2.3,3.9,5.2,5.2,9.5,3.5c9.8-4,19.4-8.3,29-12.4"/>
<path class="st0" d="M771.1,351.8c-13.1,0.9-21.5-5.6-27-17c-9-18.6-25.3-24.8-44.5-26c-6-0.4-12.2-1-18,0.1
	c-13,2.4-18.6,15.6-17.6,27.8c0.5,6.3,1.8,12.3,5.6,17.5"/>
<path class="st0" d="M587.1,255.8c-12.2,10.9-21,24.1-26.4,39.5c-2.2,6.2-8,11.6-17.1,11.6c-7.3,0-15,0.2-21.9,2.1
	c-9.7,2.7-14.8,10.6-16.5,20.3c-1.1,6.4-1.1,13-1.6,19.5"/>
<path class="st0" d="M644.1,743.8c-4.5,2.7-8.8,5.7-13.5,7.9c-7.7,3.5-13.6,8.8-18.5,15.6c-3.7,5-8.1,9.4-11.3,14.7
	c-1.7,2.8-1.9,6.9-1.5,10.4c0.3,3,2.7,5.1,6.3,5.6c9.7,1.4,18.8-1.1,27.5-4.7c11.2-4.6,20.8-11.5,28-21.4"/>
<path class="st0" d="M750.1,585.8c6,7.3,8,15.7,8.1,25c0,11.9,1.6,23.4,6.7,34.6c4.8,10.6,5.1,22.4,6.2,33.9c1,9.8,5,17.9,14.2,21.7
	c4.7,2,10.6,1.9,15.9,1.4c1.9-0.2,3.4-4.3,5-6.7"/>
<path class="st0" d="M647.1,433.3c-11.4-7.9-27.8-6.1-38.6,3.4c-10.9,9.7-14.7,22.5-17.5,36.1c-2.2,11-4.4,22.1-7.1,33
	c-1.4,5.8-5,10.5-9.9,14"/>
<path class="st0" d="M528.1,452.8c-7.1,0.2-14,6.1-15.9,14.5c-3,13.2-0.5,21,8.9,27c9.1,5.9,23.2,5.1,32-2c7.3-5.9,9.6-14,10.9-22.5
	c0.9-6.2-3-12.5-8.4-15c-6.4-2.9-7.7-7.8-3.5-13.5c4.8-6.5,9.2-13.5,14.6-19.4c5.2-5.6,11.2-10.4,18.8-12.7c1.6-0.5,3.2-1.4,4.5-2.5
	c6.1-5.3,12-10.6,18-16"/>
<path class="st0" d="M699.6,581.3c0.3,2.7,0.7,5.3,1,8c0.8,6.5,4.7,10.1,10.5,12.6c5.8,2.5,11.6,5.2,16,9.9
	c6.2,6.6,8.6,14.8,10,23.5c2.1,13,2.3,26.3,8,38.5c3,6.2,6.6,12,9.9,18"/>
<path class="st0" d="M448.1,610.8c-10-11.1-15-23.8-13.1-39c0.5-4.3,0.3-8.7,0-13c-0.3-4.9-2.3-8.7-6.9-11.6
	c-15.6-10.1-32.2-11.1-49.6-6.4c-3.2,0.9-6.6,1.5-9.5,3.1c-11.6,6.2-18.5,16-20.3,29c-0.6,4.1,1,8.8,2.4,12.9c1.4,4.2,3.9,8,5.9,12"
	/>
<path class="st0" d="M889.6,607.3c-0.3-0.2-0.9-0.3-1-0.5c-1.5-4-3.9-6.9-8.5-6.4c-5.5,0.5-9.4,4.2-11,9.5c-2.1,7.1-1,14.1,0.6,21
	c2.6,11.5,5.7,23,8.4,34.5c0.5,2.1,0.6,4.3,0.5,6.5c-0.2,6.9-4.7,10.8-13,10.9c-4.2,0-8.3-0.9-12.5-1.4"/>
<path class="st0" d="M691.1,197.8c-7.7,7.4-8.2,16.4-5.5,26c0.6,2.3,0.8,4.6,1,7c0.3,4.8-1.5,7.6-6.5,8.9c-3.7,1-7.6,1.7-11.5,2
	c-10.2,0.8-20.3,1.3-30.5,2.1c-7.2,0.6-13.2,4.4-18.4,9c-4.2,3.6-7.7,7.9-11.6,11.9"/>
<path class="st0" d="M702.1,171.8c-9.3,0.1-18.2,1.9-26,7.5c-6.2,4.4-7.5,11.5-7.8,18c-0.6,13.6-8.8,19.3-20.3,22.5
	c-11.8,3.2-23.3,7.1-33.5,14c-2.1,1.4-4.3,2.7-6.5,4"/>
<path class="st0" d="M980.1,525.3c-5.8,3.6-12.1,2.4-18,0.9c-13.2-3.6-19.7-13.8-21.8-26.4c-1.5-9.1-1-18.6-1.2-28
	c-0.1-5.7,0-11.4,0.5-17c0.4-4.2,1.8-8.3,2.4-12.5c1.9-14.3,4.2-28.6,5.3-43c0.5-6.6-1-13.4-2.4-20c-1.8-8.1-6.8-14.9-13.1-19.8
	c-4.2-3.3-10.5-3.9-15.8-5.8"/>
<path class="st0" d="M1014.1,449.8c-1,5.5-2.2,11-2.9,16.5c-0.5,4.3-0.6,8.7-0.5,13c0.2,13,0.8,26,0.9,39c0,4.1-0.8,8.1-5.4,10
	c-16.3,6.9-33,10.1-50.5,5.3c-3.1-0.8-5.7-3.2-8.5-4.9"/>
<path class="st0" d="M895.6,615.8c-4.1-2.8-4.8-6.7-4.7-11.5c0.2-10.5-0.4-21-0.9-31.5c-0.2-5.2,0.6-11.2-5.5-13.9
	c-6.2-2.8-11,1.3-15.4,4.6c-6.1,4.6-8,11.7-7.9,18.9c0,7.7,1.4,15.3,1.8,23c0.2,4.2-0.3,8.3-0.4,12.5"/>
<path class="st0" d="M895.6,622.3c2.2,5.7,4.5,11.3,6.5,17c4.9,13.8,11,26.7,22.5,36.6c13.2,11.4,27.4,11.6,42.5,5.4
	c5.7-2.3,11.1-5.3,15.1-10.4c1.6-2,3.9-3.4,5.9-5"/>
<path class="st0" d="M994.1,659.8c3.5-5.5,4-11.7,4-18"/>
<path class="st0" d="M86.1,394.8c-5,18.6-6.5,37.2-1,56c3.9,13.4,11.5,24.7,20,35.5c4.9,6.3,9.4,13,14.1,19.5"/>
<path class="st0" d="M692.6,556.3c7.2-8.3,10.1-18.4,11.3-29c0.3-2.7-0.4-6.2-2-8.4c-5.4-7.4-12.6-13-21.4-16
	c-8-2.7-16-1.1-23.5,2.4c-4.6,2.1-9.3,4.2-13.4,7.1c-4.5,3.2-9.1,4.9-14.6,4.4"/>
<path class="st0" d="M617.1,478.8c-8.7,11.4-5.7,27.8,3.5,39c1.6,1.9,3.5,3.6,5.5,5c5.5,3.9,11.1,3.6,17-0.5
	c2.5-1.8,5.1-3.5,7.5-5.5c6-4.9,12.9-6.2,20.5-5.5c7.5,0.7,14.8,1.6,21,6.6"/>
<path class="st0" d="M441.1,612.8c-5.6-8.1-12.5-15.6-13.4-26c-0.4-4.3-0.6-8.7,0-13c2.1-14-5.4-23.3-17.6-26.4
	c-7.2-1.8-14.6-2.6-22-3.5c-2.5-0.3-5,0.4-7.6,1.6c-5.5,2.4-12,2.4-17.4,5.8c-0.6,0.4-2-0.3-3-0.4"/>
<path class="st0" d="M329.1,692.8c3.3-5.1,6-10.4,7.1-16.5c1.2-6.7-0.5-12.2-5.1-17c-4.3-4.5-5.9-9.8-4.6-16c0.6-2.9,0.5-6,0.6-9
	c0.4-9.7-5.8-16.2-13-17.8c-3.9-0.8-8.6,0-12.4,1.5c-4.7,1.8-8.7,5.2-13.1,7.8c-1.2,0.7-2.6,1-4,1.5"/>
<path class="st0" d="M1014.1,402.8c-12.9,9.8-17,24.4-21,39c-5,18-5.1,36.6-7.1,55c-0.5,4.6-2.2,9-3.4,13.5"/>
<path class="st0" d="M685.1,556.8c7.4-7.1,12.3-15.6,15.1-25.5c1.5-5.3,0.2-9.6-3.2-12.9c-6.4-6.2-13.7-11-22.9-12.1
	c-9.4-1.1-17.2,2.5-25,7c-3.9,2.3-8.2,3.9-12.5,5.5c-3,1.1-6.2,1.2-8-2.4"/>
<path class="st0" d="M475.1,518.8c8.4,14.2,12.1,29.7,13,46c0.3,5.7,0.8,11.9,6,15.4c7.1,4.6,16.3,4.4,20.9-4.9
	c2.4-4.9,4.7-9.8,7.6-14.5c2-3.3,4.9-6.1,7.4-9.1"/>
<path class="st0" d="M410.1,734.8c-14.2,11.8-29.9,21.1-48,25.4c-13.9,3.3-28,4.4-42-0.4c-6.1-2.1-11.7-5.1-16.5-9.5"/>
<path class="st0" d="M606.1,761.8c-7.8,5.8-13,13.6-15.9,22.5c-4,12.5,1.7,19.5,14.8,21.6c20.9,3.2,37.6-4.7,52.5-18.1
	c0.6-0.5,1.3-1,2-1.5"/>
<path class="st0" d="M354.1,535.3c-2.8,0.8-5.8,1.5-8.5,2.5c-13.2,5.3-24.5,1.1-35-7c-3.7-2.8-7.7-5.3-11.5-8
	c-8.2-6.1-16.4-4.3-24.5,0.1c-8.9,4.8-17.7,10-26.5,15"/>
<path class="st0" d="M194.1,622.8c-4.4,5.8-5.5,11.9-2,18.5c3.3,6.3,6.4,12.8,10.1,18.9c2.7,4.5,7.7,4.7,11.8,2.9
	c8.7-3.7,16.9-8.4,25.6-12.3c12.4-5.6,20.8-15.4,28.5-26"/>
<path class="st0" d="M668.1,715.8c4.7-3.8,9-8.2,14.1-11.4c7-4.4,14.5-7.9,21.9-11.6c3.6-1.8,7.6-2.9,10.9-5.1
	c9.4-6.1,12.4-26.6,0.4-33.7c-3.1-1.8-8.1-1.9-11.8-1c-13.2,3.2-25.7,2.4-38.1-3.6c-12.2-6-23.4-3.3-33.5,5.4"/>
<path class="st0" d="M720.1,299.3c-4,0-8,0-12,0c-10.2,0.1-20.3,0.1-30.5,0.6c-4.2,0.2-8.4,1.1-12.5,1.9c-13,2.6-18.7,18.7-16.5,31
	c0.5,3,0.9,6,1,9c0.2,6.6-1.9,10.2-8.5,11.8c-7.8,1.9-14.9,4.5-20.9,9.7c-4.1,3.5-9,4.9-14,5.4c-14.6,1.5-26.4,8.1-35.5,19.6"/>
<path class="st0" d="M795.1,375.8c8,16,0.3,42.1-21.5,46c-7.2,1.3-14.3,2.8-21.5,3.9c-6.8,1-11.4,5-15,10.5c-2.8,4.3-6,8.4-9,12.5"
	/>
<path class="st0" d="M1011.1,754.8c-4.3,9.5-10.3,17.9-19.6,22.8c-4.7,2.5-10.2,3.9-15.4,4.5c-10.8,1.3-21.6,1.9-31.5-4.3
	c-7.2-4.5-11.8-11.3-16.9-17.6c-4.1-5.1-5.7-5.7-9.5-2.5"/>
<path class="st0" d="M855.1,686.3c-9.7-2.3-14.5,4.8-21.1,10.9c2.1,0.7,3.3,1.5,4.6,1.5c12.6,0.1,24.5,2.2,34.5,10.5
	c1.3,1.1,2.9,1.8,4.5,2.5c9.2,3.9,11.3,4.9,20-3c6.3-5.7,12.8-10.5,22-9c7.2,1.2,13.4,4.4,19,9c1.8,1.4,3.7,2.7,5.5,4"/>
<path class="st0" d="M622.1,398.8c6.3-6,12.3-12.4,19.1-17.9c5.2-4.1,11.9-4.9,18.4-4c2.9,0.4,2.6,3.2,2.1,5.9
	c-1.4,6.8-3.1,13.6-3.3,20.5c-0.2,4.8,1.5,9.7,2.8,14.5c2.6,9.9,2,20,1.9,30c-0.2,10.1,2.8,19.1,9.1,27"/>
<path class="st0" d="M543.1,407.8c-4.3,4.5-5.7,10-6,16c-0.5,10.8-2.7,13.3-13.5,15c-19.7,3.1-28.9,16.9-27,36.5
	c0.5,5.3,1,10.7,1.5,16"/>
<path class="st0" d="M910.6,682.3c-1.8-1-4.3-1.6-5.4-3.1c-9.6-12.5-14.6-26.8-16.1-42.4c-0.2-2.2-0.1-4.7-1.1-6.4
	c-1.6-2.6-1.7-7-6.4-6.6c-4,0.3-7.1,4.3-7.5,9c-0.8,8.8,2.2,16.8,4.5,25c1.2,4.6,1.8,9.3,2.6,14c1.4,8.4-6.5,14.8-15,15
	c-4.4,0.1-8.9-0.9-13,1.5c-2.3,1.4-4.7,2.8-7,4.2c0.1,0.5,0.1,1.1,0.2,1.6c2.1,0.7,4.2,2,6.3,2c6.3,0.1,11.3,2.7,16.1,6.5
	c2.8,2.3,6.1,4.3,9.5,5.5c8.5,2.9,16-0.5,22.4-5.5c10.5-8.2,28.1-7.8,37.6,1.6c3.6,3.5,6.2,7.9,9.3,11.8
	c8.9,11.5,24.6,13.3,37.7,2.2c12-10.2,16-24.2,17.9-39c0.8-5.8-0.4-12,2.6-17.5"/>
<path class="st0" d="M1006.6,469.8c-1.9-9.1,0.8-17.8,2.6-26.5c1.1-5.1,3-10.1,4.7-15.9c-1.1,0.8-2.3,1.2-2.8,2
	c-4.3,6.5-6.5,13.7-7.1,21.5c-1.2,18-2.5,36-4,54c-0.6,7.2-5.1,12.5-10.5,16.9c-0.8,0.6-2.3,0.4-3.4,0.6"/>
<path class="st0" d="M764.1,218.8c-9.2-9-20.1-9.3-30.9-4.8c-10.2,4.2-17.1,12.4-18.5,23.8c-1.2,9.9,3.7,17.8,10.5,24.4
	c3.5,3.4,7.7,6,11.4,9.1c4.1,3.3,3.7,5.9-1.5,7.4c-10.9,3.2-21,0.9-30-5.9"/>
<path class="st0" d="M760.1,699.8c2.8,9.5,2.2,11.2-6,17.5c-3.7,2.9-7.4,5.9-11,9c-5.7,4.8-12.3,6.8-19.5,7.5
	c-12.1,1.3-24.6,1.2-35.5,8c-4.5,2.8-8.7,6-13,9"/>
<path class="st0" d="M583.6,490.3c2.3,6.4-0.8,12.1-3.7,16.9c-8.1,13-20.3,19.8-35.8,20.1c-10.3,0.2-20.7,0.4-30-5
	c-4-2.3-7.7-5.3-11.5-8"/>
<path class="st0" d="M998.6,450.8c-0.8,8.7-2.1,17.3-2.4,26c-0.4,9.9-1.6,19.5-4.2,29c-4.6,16.9-23.3,18.8-32.5,10
	c-0.6-0.6-1.3-1-2-1.5"/>
<path class="st0" d="M994.1,593.8c8.9,16.3,9.9,34.1,8.9,52c-0.5,8.9-1.7,17.9-4,26.5c-4,14.4-15.3,21.9-28.8,26.6
	c-10.9,3.8-21.6,3.5-32-1.5c-7.2-3.5-14.6-6.5-21.4-10.6c-7.2-4.3-11.3-11.6-15-18.9c-4.5-8.8-7.4-17.9-7.7-28
	c-0.2-7.4-2.2-14.7-3.2-22c-0.2-1.3,0.6-2.7,0.9-4"/>
<path class="st0" d="M668.6,438.8c2.1,9.3,4.6,18.3,10.9,26.1c6.5,8,14.8,10.1,24.1,9.8c7.2-0.2,14.4-1.6,21-4.9
	c7.7-3.8,12.2-10,13.5-18.5"/>
<path class="st0" d="M683.1,782.8c-8,9.2-15.7,18.6-24.1,27.4c-9.2,9.6-20.6,15.6-33.9,16.4c-11.3,0.7-21.7-3.2-31-9.8"/>
<path class="st0" d="M594.1,174.8c-8.3,9.8-16.9,19.5-24.9,29.6c-7.9,9.9-14.2,20.7-18.2,32.9c-3.1,9.7-7.2,19-10.9,28.5"/>
<path class="st0" d="M642.1,302.8c-3.3,6.5-7,12.9-9.9,19.5c-3.3,7.5-6.1,15-12,21c-5.3,5.5-11.9,7.4-19.1,8.5
	c-10.3,1.5-20.7,3.3-31,5"/>
<path class="st0" d="M627.1,296.8c-7.4,9.3-11.9,20.1-15,31.5c-2.2,7.8-5.4,14.9-15,15.5c-3.6,0.2-7.3-0.4-11-0.4
	c-8.8,0-17.8-0.8-26,3.5"/>
<path class="st0" d="M624.1,288.8c-5.3,9-10.9,17.9-15.9,27.1c-2,3.7-2.4,8.3-3.7,12.4c-2.9,9.6-3.6,14.1-18,9.5
	c-3.6-1.1-7.3-2-11-2.5c-5.5-0.6-10.7,0.5-15.5,3.4"/>
<path class="st0" d="M898.1,526.8c4.5,12.5,3.8,25.2,1.6,38c-2.7,15.2-4.8,30.5-1.2,46c0.4,1.9,0,3.5-2.2,5.2
	c-3.5,2.7-1.9,7.7-1,11.2c3.7,14.9,8.5,29.4,16.8,42.5"/>
<path class="st0" d="M122.1,789.8c11.2,9.2,23.9,16.2,36.6,22.9c18.6,9.8,35.7,21.5,52.4,34.1"/>
<path class="st0" d="M554.1,430.8c-3.2,4.2-6,8.7-9.6,12.4c-2.4,2.4-5.8,3.8-8.9,5.6c-6.9,4-13.8,8-17.4,15.5
	c-3,6.2-4.3,12.5-1.7,19.5c2.5,6.7,7.8,9.8,13.7,10.8c18.1,2.8,32.5-11.3,29.8-28.3c-0.7-4.1-4.1-7.7-6.3-11.5"/>
<path class="st0" d="M671.1,355.3c5.5,2.8,6.7,8.3,7.9,13.5c2.6,11.6,1.1,23-1.4,34.5c-1.3,6.1-2.8,12.3-3.4,18.5
	c-0.8,8.1,1,15.5,5.7,22.6c5.8,8.6,11.9,15.8,22.6,18.6c8.4,2.2,15.4,1.1,21.5-4.7c6.1-5.9,11.7-12.3,17.6-18.4
	c5.5-5.7,12.4-9.2,20-11.5c3.7-1.1,7.2-0.9,10.5,1"/>
<path class="st0" d="M1001.6,653.3c-1.5,4-2.9,8-4.5,12c-3.9,9.3-8.6,18.3-17,24.5c-10.6,7.8-22.6,8.3-35,5.6
	c-4.8-1-9.7-1.7-14.5-2.5"/>
<path class="st0" d="M275.1,605.8c-8.5,8.7-16.8,17.5-25.6,26c-7.8,7.6-17.1,13-28,15c-6.8,1.3-10.5-0.7-13.5-6.5
	c-3.2-6.1-2.7-10.7,1.5-15.5c0.6-0.6,1-1.3,1.5-2"/>
<path class="st0" d="M346.6,545.8c-3.5,0.3-7,0.7-10.5,1c-11.3,0.9-21.2-3.6-30.4-9.1c-10.9-6.5-21.5-7.2-32.6-0.9
	c-4.3,2.4-8.7,4.7-13,7"/>
<path class="st0" d="M770.1,226.8c3.9,9.3,7.6,18.6,8.1,29c0.5,8.6,11.8,22.2,18.9,23.5c1.8,0.3,3.7,0.8,5.5,0.5
	c11.1-2,18.6,3.4,25,11.6C836,302,840,314.4,841,327.8c0.3,3.6-0.6,7.3-0.9,11"/>
<path class="st0" d="M623.1,541.8c-5.2-2-10.4-3.9-15.5-6c-9.7-3.9-19.6-2.8-29.5-1c-14.1,2.5-28.1,5.4-41,12"/>
<path class="st0" d="M638.6,316.3c-2.2,5.3-4.6,10.6-6.5,16c-4.3,12.4-12.2,20.6-25.5,22.5c-8.3,1.2-16.7,1.9-25,3.1
	c-4.2,0.6-8.3,1.9-12.5,2.9"/>
<path class="st0" d="M767.1,760.8c-7.7,2.2-15.2,4.8-23,6.4c-6.5,1.3-13.3,1.4-20,2.2c-9.7,1.1-18.2,5.1-25.5,11.5
	c-5.6,4.9-11,10-16.5,15"/>
<path class="st0" d="M818.1,341.8c-3.3-4.8-6.7-9.7-10-14.5c-2.9-4.1-7.2-4.1-11.5-4c-2.7,0.1-5.4,1-8,0.9c-3.7-0.2-7.8-0.3-9.6-4.9
	c-0.6-1.5-2.4-2.5-2.8-4c-1.8-5.9-6.5-7.7-11.6-9.5c-2.3-0.8-5-1.8-6.4-3.5c-4.6-6.2-10-5.9-16.1-2.9"/>
<path class="st0" d="M663.6,335.8c-1,3.2-2.2,6.3-3,9.5c-2.6,11.3-9.6,18.9-20.6,21.3c-14.6,3.2-25.8,11.7-37,20.7
	c-3.2,2.6-6.7,5-10,7.5"/>
<path class="st0" d="M599.1,558.8c-9.6-3.1-19.2-5.2-29.5-4.1c-8.7,1-14.9,4.7-18.5,12.6c-2.7,6-5.2,12-8,18
	c-2.5,5.3-5.3,10.3-8,15.5"/>
<path class="st0" d="M505.6,645.3c-3.7,4.5-8.1,8.6-10.9,13.6c-8.4,15.6-21.5,26.1-35.6,36c-9.9,7-19.4,14.6-29,21.9"/>
<path class="st0" d="M498.1,430.8c-5.8,7-10.8,14.4-13,23.5c-3.1,12.7-1.3,25,3.1,37c3,8.1,7.4,15.6,13.4,22"/>
<path class="st0" d="M456.1,508.8c-17.8-12.1-37.5-18.4-59-17.9c-8.1,0.2-16.1,2-23,6.9"/>
<path class="st0" d="M628.1,516.3c-7.6-1-9.3-7.3-10.9-13c-3-10.8,1.2-19.6,8.4-27.5c6.5-7.2,12.9-14.5,19-22
	c4.1-5.1,4.8-11.6,4-17.9c-1-7.8-10.4-13.8-19.4-12.5c-18.7,2.7-30.1,14.3-36.9,31c-2.1,5.3-3.1,11-4.6,16.5"/>
<path class="st0" d="M478.6,432.3c-8.1,7.8-13.8,16.7-12.4,28.5c0.9,7.4,2.1,14.8,4,22c2.8,10.8,7.6,20.8,13.9,30"/>
<path class="st0" d="M817.6,429.3c-4.3,5.2-5.6,11.7-7.7,17.9c-4.3,13.1-12.6,23.3-23.7,31.7c-9.8,7.4-18.5,16.2-27.6,24.3"/>
<path class="st0" d="M758.1,726.8c-4.5,8.7-11.9,11.6-21.5,12.2c-19.7,1.2-38.9,5.2-56.5,14.8"/>
<path class="st0" d="M1002.6,672.8c-1.7,5.3-3.5,10.6-5,16c-2.3,8.3-4.6,16.6-11,23c-7.4,7.5-24.3,11-35.5,4.5c-1.4-0.8-3-1.3-4.5-2
	"/>
<path class="st0" d="M215.1,337.8c-11.8-5.6-24.4-5.8-37-4.4c-14.3,1.6-28.3,4.8-42,9.4"/>
<path class="st0" d="M1007.6,699.8c-3.3-0.2-2.6,2.9-3.5,4.5c-3.4,6.3-6.1,13.1-10.2,18.9c-5,7-12.1,11.3-21.3,11.8
	c-9.4,0.5-18.6,1.3-26.5-5.1"/>
<path class="st0" d="M894.6,641.8c2.7,6.7,5.3,13.3,8,20c5.8,14.7,16,24.8,31.5,28.3c6.7,1.5,14,0.9,21,1.2"/>
<path class="st0" d="M333.1,654.8c-4.6-5.5-3.9-12.2-3.4-18.5c0.6-7.8-0.9-14.8-7.2-19.4c-6.9-5.1-14.9-5.5-22.9-2.1
	c-8.5,3.7-14.2,10.7-20.5,17c-4.2,4.1-8.6,8.1-13,12c-1.1,1-2.6,1.4-4,2"/>
<path class="st0" d="M929.1,729.8c2.4,19.2,13.4,28.4,31.5,29c12.3,0.4,23.6-2.4,33.5-10"/>
<path class="st0" d="M1006.6,682.8c-1.8,11.2-4.1,22.2-11.4,31.6c-7.9,10.1-17.2,17.4-30.6,17.3c-4.2,0-8.3-1.8-12.5-2.8"/>
<path class="st0" d="M653.6,444.8c-1.5,7.4-2.9,15.2-8.1,20.9c-4.3,4.6-9.8,8.1-14.9,12.1c-12.6,10-14,24.9-3.5,36.5
	c0.6,0.6,1,1.3,1.5,2"/>
<path class="st0" d="M577.6,495.3c-3.7,4.5-6.5,10.1-11.1,13.3c-16.1,11-33.5,12.4-51.3,4.1c-2.8-1.3-5-3.6-7.5-5.4"/>
<path class="st0" d="M874.6,635.8c1.5,4.2,3.3,8.3,4.4,12.5c1.8,6.4,3.3,12.9,4.5,19.5c2.8,14.9-7.8,25.8-22.5,21.5
	c-1.6-0.5-3.3-0.7-5-1"/>
<path class="st0" d="M836.1,355.8c-1-6.8-1.8-13.7-3-20.5c-1.9-10.7-3.8-21.4-6-32c-1.2-5.7-4.5-10.4-10-12.9c-1.7-0.8-4-0.4-6-0.6"
	/>
<path class="st0" d="M535.1,732.8c-13.3-8.8-23.9-6-31.8,6.1c-5.7,8.7-9.5,18.5-14.2,27.9c-2,4-4,8-6,12"/>
<path class="st0" d="M665.6,425.8c-1.3-16.2-2.8-32.3,0.4-48.5c0.8-4.2,0.1-8.6,0.1-13.3c-5.4,0.9-8.6,3.3-11,6.9"/>
<path class="st0" d="M445.1,512.8c-11.8-7.3-24.5-12.2-38.5-13c-9.5-0.6-17.2,2.9-24,9.1c-3,2.8-5.7,6-8.5,9"/>
<path class="st0" d="M781.1,265.3c-0.9,10.1,7.7,20.3,19,21.3c6.3,0.6,11.3,3.3,15.8,6.9c2.8,2.2,4.9,5.9,6,9.4
	c2.5,8,4.5,16.2,6,24.5c0.9,4.9,1.1,10,1,15c0,5.9,1,11.4,4.1,16.5"/>
<path class="st0" d="M934.6,718.8c3.5,4.7,6.2,10.5,10.7,13.8c13.7,10.2,35.7,8.5,48.4-3.8c1.9-1.8,4.3-3,6.5-4.5"/>
<path class="st0" d="M446.1,508.8c-11.8-6.8-24.3-11.3-38-12c-12.2-0.7-23.3,1.3-31,12"/>
<path class="st0" d="M837.1,409.8c-5.1,11.3-5.8,23.5-8,35.5c-2.2,12.4-6,24.1-15,33.5"/>
<path class="st0" d="M750.1,484.8c-6.6,6.2-15,10.4-20.5,18c-13.3,18.3-16,37.7-6.5,58.5c0.2,0.4,0,1,0,1.5"/>
<path class="st0" d="M755.1,305.8c5.5,3.5,7.3,9.2,9.1,15c3.2,10.4,5.5,12.5,15.9,10.8c13.8-2.2,23.5,3.7,32,13.2"/>
<path class="st0" d="M1002.1,574.8c-5.1,4.9-6.3,9.3-2.4,13.9c8.6,10,7.9,21.8,7.3,33.6c-0.3,5.3-1.2,10.7-2,16
	c-0.1,0.9-1,1.7-1.5,2.5"/>
<path class="st0" d="M700.1,650.3c-12,3.4-23.4,0.8-34.5-3.6c-11-4.5-21.4-4.5-31.5,2.1"/>
<path class="st0" d="M539.1,702.8c-6.8-13.8-22.3-13.8-29.9-6.9c-3.5,3.3-6.7,7.5-8.5,11.9c-5.8,14.6-13,28.3-23.7,39.9"/>
<path class="st0" d="M700.1,268.8c-8.5-8.1-17.9-8.4-28-3.5c-13.2,6.4-25.6,14.1-37,23.5"/>
<path class="st0" d="M261.1,611.8c-8.5,8.3-16.9,16.7-25.5,25c-5.4,5.2-11.1,7-18,3c-5.2-3-6-6-1.9-9.9c3.1-3,6.9-5.4,10.4-8.1"/>
<path class="st0" d="M1004.1,717.8c-4.7,13.1-14.9,20.1-27.5,23.9c-13.3,4-25.8,2.5-36.5-7.4c-2-1.8-3.9-4.3-7.5-3.7
	c-1.2,0.2-2.9-0.9-3.9-1.9c-3.8-3.7-7.4-7.6-11.2-11.5c-2.3,1.4-4.1,2.5-5.9,3.6"/>
<path class="st0" d="M860.1,747.8c-5.2-4.3-9.9-9.4-15.6-12.8c-10.5-6.4-21.9-5.3-32.8-1c-5.5,2.2-10.4,5.9-15.6,8.9"/>
<path class="st0" d="M261.1,816.8c-7.3-6.2-14.3-12.8-22.1-18.4c-10.7-7.7-23.3-11.3-35.9-14.6c-1.6-0.4-3.3-0.7-5-1"/>
<path class="st0" d="M770.1,249.8c1.7,7.5,3.7,14.9,4.9,22.5c1.2,8,5.3,13.3,13.1,14.9c7,1.4,14.3,1.8,21.5,2.6"/>
<path class="st0" d="M201.1,596.8c-4.8,6.3-10.6,12.2-14.3,19.1c-6.3,12-9.5,24.7-2.7,37.9c1.1,2.1,2.6,4,4,6"/>
<path class="st0" d="M851.1,756.8c-6.3-3.3-12.5-7.1-19-9.9c-9.9-4.3-19.6-1.8-28.9,2.4c-5.1,2.3-10,5-15,7.5"/>
<path class="st0" d="M555.1,758.8c-6.3,11.3-9.7,23.1-6,36c2.8,9.9,8.3,18.3,15,26"/>
<path class="st0" d="M446.1,517.8c-6.9-5.9-15.9-7-24-9.9c-4.7-1.7-9.6-3.2-14.5-4c-9.3-1.4-17,2.3-23.5,8.9"/>
<path class="st0" d="M542.1,673.8c-15.1-7.4-26.7-3.2-35.9,10.1c-5.5,8-10.1,16.6-15.1,24.9"/>
<path class="st0" d="M1014.1,272.8c-1,5.7-1.8,11.4-3,17c-3.3,14.8-3.1,29.4,3,43.5c0.2,0.4,0,1,0,1.5"/>
<path class="st0" d="M612.6,358.3c-2.3,3.9-6.3,3.9-10,4.5c-1.6,0.3-3.3,0.2-5,0c-15.8-2.2-26.3,5.6-34.5,18c-2.2,3.4-4.7,6.7-7,10"
	/>
<path class="st0" d="M525.1,378.8c-3.8,2-7.5,4.3-11.5,5.9c-7.9,3.1-12.6,9-15.4,16.6c-3.9,10.3-8.4,20.2-16.5,28"/>
<path class="st0" d="M736.1,474.8c-11.2,5.9-22.6,10.9-35.5,11.6c-8.7,0.5-16.4-1.7-23.5-6.6"/>
<path class="st0" d="M749.1,263.8c3.9,5.7,5.6,11.5,3.1,18.5c-3.8,10.6-11.5,12-20.1,9.8c-7.6-1.9-15.4-3.1-22.6-6.7
	c-6.3-3.1-13.5-2.8-20.4-1.6c-4.6,0.8-9,2.3-13.5,3.4"/>
<path class="st0" d="M759.1,234.8c-3.9-3.2-7.9-6.1-13-7c-6.2-1.1-13.1,2.5-15.5,8c-2.7,6-0.3,13.9,5.5,18c3,2.1,6,4,9,6"/>
<path class="st0" d="M583.1,298.8c-5.7,13.2-14.7,21.5-30,21.6c-7.5,0.1-15.3-0.3-22,4.4"/>
<path class="st0" d="M938.1,733.8c1.1,4.7,3.3,6.4,10.5,10c9.5,4.8,19,2.9,28.5,0.4c5.1-1.3,10-3.3,15-4.9"/>
<path class="st0" d="M808.6,390.3c0.7-1.8,1.6-3.6,2-5.5c2-11-0.6-20.9-7.5-29.4c-5.3-6.6-13.3-7-20.9-7.5"/>
<path class="st0" d="M944.1,727.8c-2-2.8-4.5-5.5-5.8-8.6c-1.2-2.8-3.2-3.8-5-2.7c-2,1.1-3.3,3.4-1.2,6.4c2,2.8,3.8,6.2,1.7,10
	c-0.2,0.3,0.4,1,0.4,1.5c1.7,10.8,10.5,19.7,21.5,20.4c12.6,0.8,24.9-1.2,35.5-8.9"/>
<path class="st0" d="M986.1,585.8c6.1,13.4,11.6,27,12.5,42c0.3,4.3,0,8.7,0,13"/>
<path class="st0" d="M1000.1,734.3c-3,2.3-5.8,5-9,6.9c-3.8,2.3-7.8,4.6-12,6c-9.4,3.1-19.3,4.9-28.9,1.4c-4.3-1.5-8.1-4.8-12.1-7.3
	"/>
<path class="st0" d="M534.1,274.8c-5.8,8.4-15.3,12.1-23,18c-9.8,7.4-12.8,17.7-13.1,29.5c-0.2,10-1.3,20-1.9,30c-0.1,1.5,0,3,0,4.5
	"/>
<path class="st0" d="M611.1,420.8c-6.7,2.3-12.9,5.2-18.1,10.4c-3.7,3.8-8.2,6.8-12.4,10.1c-3.2,2.5-4.7,5.7-3.9,9.5
	c0.9,3.9,2.6,7.7,3.9,11.5"/>
<path class="st0" d="M495.1,380.8c-8.6,6-12.4,14.8-15.1,24.5c-2.1,7.5-5.3,14.6-12.9,18.6c-2.5,1.3-4.7,3.3-7,4.9"/>
<path class="st0" d="M747.1,502.8c-8,9.4-10,20.7-8.8,32.5c0.7,6.6,3.2,13,4.8,19.5"/>
<path class="st0" d="M677.1,580.8c-13.4,5.1-27.3,2.9-41,2.4c-3.7-0.1-7.3-0.9-11-1.4"/>
<path class="st0" d="M484.1,641.8c-5.2,6.3-10.2,12.8-15.5,19c-7.5,8.9-17.1,15.4-26.5,22c-2.1,1.5-4,3.3-6,5"/>
<path class="st0" d="M935.6,500.8c1.8,3.8,3.5,7.7,5.5,11.5c6.3,12,16.1,18.5,30,18c4.3-0.2,8.8,0.2,13-0.6
	c10.3-1.8,18-10.7,19-20.9c0.7-6.4,1.6-12.7,2.5-19"/>
<path class="st0" d="M742.1,499.8c-6.3,9.1-8.7,19.7-12,30c-2.3,6.9-2,14-2,21"/>
<path class="st0" d="M217.1,339.8c8,5.4,8.8,14.1,10,22.5c1.2,9.3,1.1,18.7,5,27.5"/>
<path class="st0" d="M968.6,576.8c2.3,4,4.7,8,7,12c4.1,7.3,8.2,14.3,9.9,22.9c1.2,6,1.5,12.8,5.6,18.1c0.3,0.4,0.1,1.3,0,2
	c-0.2,7.3-0.2,14.7-0.6,22c-0.2,2.8-1.3,5.5,0.6,8"/>
<path class="st0" d="M323.1,699.8c-7.2,7.3-15.1,14.1-21.3,22.2c-7.4,9.6-8.9,17.6,0.8,27.3"/>
<path class="st0" d="M616.1,396.8c-7.1,6.4-15.2,11.3-24,15c-6.2,2.6-11.7,6.2-15.1,12.4c-1.4,2.6-3.6,4.7-5.4,7"/>
<path class="st0" d="M1006.6,489.8c0.2,8.2,0.9,16.4,0.4,24.5c-0.5,8.8-9.4,15.6-17.9,14.5"/>
<path class="st0" d="M658.1,449.8c0.5-6.5,1.5-13,1.4-19.5c-0.2-12.4-5.1-23.8-8.5-35.5c-2.5-8.5-5.8-8.4-12.9-5"/>
<path class="st0" d="M239.6,544.3c-4.6,3.5-7.2,8.4-9.5,13.5c-5.4,12.3-12.7,23.3-22.5,32.5"/>
<path class="st0" d="M254.1,571.8c-6.1,18-15.6,33.6-33,43"/>
<path class="st0" d="M809.6,424.3c0,1.8,0.6,3.9-0.1,5.5c-3.8,8.3-7,16.6-9.1,25.5c-1.5,6.5-7.6,10-13.3,13c-2.6,1.4-5.5,2-7.9,3.6
	c-3.2,2.2-6.2,4.7-9,7.5c-5.8,5.7-11.4,11.6-17,17.5"/>
<path class="st0" d="M770.1,336.8c-6.4-2.5-8.8-8.5-11.5-14c-4.6-9.5-11.2-16.5-21.6-19.4c-3.1-0.9-6.4-1.1-9.5-2.1
	c-2.5-0.8-4.7-2.3-7-3.4c-0.8-0.4-1.6-0.9-2.5-1c-7.5-0.6-15-1.6-22.5-1.4c-7.7,0.2-15.3,1.5-23,2.4c-0.4,0-0.7,0.9-1,1.4"/>
<path class="st0" d="M333.1,585.8c-11.7-3-23.4-4.4-35,0c-3.8,1.4-7.4,3.3-11,5"/>
<path class="st0" d="M192.1,663.8c11.9,10,26.2,11.1,39.5,4c2.1-1.1,4.3-2,6.5-3"/>
<path class="st0" d="M625.1,408.3c-17.2,4.7-31.1,15.3-45.5,25"/>
<path class="st0" d="M254.1,548.8c-7.2,4.8-10.1,12.5-12.9,20c-3.3,9.2-7.8,17.5-14.1,25"/>
<path class="st0" d="M972.1,575.8c4.3,7.5,9.2,14.7,12.8,22.6c2.9,6.3,4.2,13.3,6.2,19.9c0.3,0.9,1,1.7,1.5,2.5"/>
<path class="st0" d="M898.1,616.3c0.9,1.3,2.4,2.6,2.7,4c2,13.2,8.9,24.4,14.8,36c2.7,5.3,5.1,10.5,9.4,15.1
	c7.5,8,16.1,11.2,26.7,9.8c2.2-0.3,4.3-1.3,6.5-2"/>
<path class="st0" d="M866.1,735.8c6.7,5.3,12.9,11.3,21,14.5c8,3.2,16.1,4.5,24-0.5"/>
<path class="st0" d="M520.6,415.3c-6.8,6.7-14.1,13-20.4,20.1c-10.5,11.7-16,25.3-13,41.4c0.6,3,1.5,6,2.6,9
	c0.1,0.4,1.6,0.4,2.4,0.5"/>
<path class="st0" d="M883.1,377.8c-5,2.9-10.3,4-16,4c-5,0-10,0.4-15-0.1c-6.8-0.6-12.1,2.2-15.8,7.2c-2.2,3-4.6,4.1-7.7,4.9"/>
<path class="st0" d="M870.6,724.3c2.3,8.7,8.3,13.7,16,17.6c6.6,3.4,12.6,3.5,19.1,0c3.9-2.2,6-5,5.5-9.6c-0.1-1.5,0.8-3,0.9-4.5
	c0.1-2,0.3-4.3-0.6-5.9c-1.6-3.2-2.3-5.7,0.5-8.6c2.5-2.7,4.8-4,8.6-2.6c1.9,0.7,4.3,0.1,6.5,0.1"/>
<path class="st0" d="M779.1,429.3c0.6,3.5-1.8,4.3-4.5,5.6c-5.5,2.7-11,5.5-16,9c-6.8,4.8-9.6,12.5-12.6,19.9"/>
<path class="st0" d="M890.1,516.8c-11.4-8.1-24.3-4-32,7c-4.8,6.8-6.7,14.3-6,22.5c1,11.5,2.3,23,3.5,34.5c0.2,2,0.7,4,1,6"/>
<path class="st0" d="M604.6,428.8c-3.2,4.2-6.3,8.4-9.5,12.5c-6.2,8-8.5,17.3-9.4,27c-0.3,3.5,1.8,7.2-1.1,10.5"/>
<path class="st0" d="M754.1,508.8c-5.6,10-7,20.6-3.8,31.4c1.1,3.8,4.5,7.1,6.8,10.6"/>
<path class="st0" d="M538.6,403.8c-3.8,4.7-6.3,10-7,16c-0.8,6.5-5.1,10-11,12c-3.9,1.4-7.7,3.3-11.5,5"/>
<path class="st0" d="M870.1,374.8c-4.8,1.5-9.6,3.3-14.5,4.4c-2.9,0.6-6,0.2-9,0.1c-4.9-0.1-8.5,2.4-12,5.5
	c-1.5,1.3-3.6,2.1-5.5,3.1"/>
<path class="st0" d="M621.1,353.3c-9,5.6-19.1,6.9-29.5,7.1c-5.2,0.1-10.4,0.7-15.5,1.5c-2.1,0.3-4,1.9-6,2.9"/>
<path class="st0" d="M491.6,487.3c4.7,14.7,12.6,26.6,28,31.9c2.3,0.8,5,0.6,7.5,0.6c11.3,0,22.7,0.8,33.5-3.4
	c0.4-0.2,1,0.3,1.5,0.5"/>
<path class="st0" d="M889.6,599.3c-1.2-1.8-2.3-3.7-3.5-5.5c-2.2-3.4-5.4-5.4-9.5-5c-5.6,0.6-8.4,4.6-9.4,9.5
	c-0.9,4.5-0.8,9.3-1.1,14c-0.2,4.2-0.3,8.3-0.5,12.5"/>
<path class="st0" d="M922.1,680.8c10.6,7.8,23,9.8,35.5,9.2c7.6-0.4,14.2-5.5,20.4-9.8c3.4-2.4,6.3-5.7,9-9c1-1.1,0.8-3.3,1.1-4.9"
	/>
<path class="st0" d="M658.6,426.3c-2.8-5.7-5.5-11.4-8.5-17c-4.3-8-10.3-9.6-18-5c-1.3,0.8-2.7,1.4-4,2"/>
<path class="st0" d="M927.1,709.8c-3.9-6.4-13.5-7.2-18-1.5c-1.3,1.6-2.7,3.2-3.5,5c-2.9,7.2-8.2,9.4-15.6,9.1c-5-0.2-10,0.6-15,0.9
	"/>
<path class="st0" d="M340.1,563.8c-7.3,3.9-15.1,3.5-23,2.5c-6.5-0.8-13-1.9-19.5-2.4c-3.8-0.3-7.7,0.6-11.5,0.9"/>
<path class="st0" d="M979.6,672.3c-2.5,0.5-5.4,0.4-7.4,1.6c-15.4,9-39,6.9-50.1-10.1c-1-1.5-2.6-2.7-4-4"/>
<path class="st0" d="M835.1,712.3c-7,0.8-14,1.5-21,2.5c-7,1-13.2,4.2-19,8"/>
<path class="st0" d="M732.1,303.3c11.4,5.3,17.8,15.5,25.1,25c2.6,3.5,5.9,6.4,8.9,9.5"/>
<path class="st0" d="M867.1,647.8c0.7,0.7,1.8,1.2,1.9,2c1.6,6.6,3.5,13.3,4.4,20c0.8,6.1-3.2,9-11.4,9"/>
<path class="st0" d="M725.6,648.3c10.4,10.4,9.7,29.1,1.5,39.5"/>
<path class="st0" d="M823.1,408.3c2,3.4,0.2,6.3-0.9,9.5c-4.2,12.3-7.8,24.8-12.2,36.9c-1.8,5-5.2,9.4-7.9,14"/>
<path class="st0" d="M434.1,689.8c-5.3,5.2-10.4,10.7-16.1,15.4c-7.4,6.2-15.3,11.8-22.9,17.6"/>
<path class="st0" d="M820.1,374.8c-0.5,5,2.7,9.8,0.1,15.1c-2.3,4.7-3.5,9.9-5.1,14.9c-0.6,1.9-1.3,3.7-2,5.5"/>
<path class="st0" d="M798.1,714.3c-2.3-0.2-4.7-0.4-7-0.5c-5-0.2-10.1-0.9-15-0.3c-2.6,0.3-5.2,2.6-7.5,4.3c-3,2.2-5.7,4.6-8.5,7"/>
<path class="st0" d="M304.1,576.8c-9.6,0.5-17.8,4.9-25.4,10.1c-4.7,3.3-8.4,7.9-12.6,11.9"/>
<path class="st0" d="M890.6,624.3c-1.2-2.3-2.3-4.7-3.5-7c-1.5-2.7-3.5-4.8-7-4.5s-6.5,1.5-7.4,5c-1.3,4.7-2.1,9.5,0.9,14"/>
<path class="st0" d="M259.1,577.8c-3.3,8.3-6,17-10.3,24.9c-2.6,4.8-7.7,8.1-11.7,12.1"/>
<path class="st0" d="M712.1,288.3c-3,0.3-6,0.9-9,1c-9.2,0.3-18.3,0.4-27.5,0.5"/>
<path class="st0" d="M663.6,293.5c-9.8,3.9-19.3,8.7-22.8,19.3c-2,5.9-1.6,12.6-2.2,18.9"/>
<path class="st0" d="M528.1,409.8c-1.8,10-7,17.7-16,22.5c-4.4,2.3-9,4-13.5,6"/>
<path class="st0" d="M1014.1,550.3c-8-1.5-16-3.3-24-4.4c-4.6-0.6-9.3,0.2-14,0.4"/>
<path class="st0" d="M874.1,730.3c2.8,1.8,5.5,4,8.5,5.4c3.8,1.8,7.8,3.6,12,4.5c7.3,1.5,12.4-2.3,16-8.4"/>
<path class="st0" d="M653.6,434.8c-1.9-9.6-7.2-14.3-18-15c-3.3-0.2-6.7,0.3-10-0.1c-5.5-0.6-9.4,2.5-14.1,4.4
	c-13.3,5.4-21.3,15.9-27.8,27.7c-2.7,4.9-3.5,10.3-1.7,16c0.6,1.8-0.1,4,0.2,6c0.2,1.7,0.9,3.3,1.4,5"/>
<path class="st0" d="M774.1,782.8c-12.8,4.3-26.1,7.3-38,14"/>
<path class="st0" d="M650.1,357.8c-8.7,3.8-17.3,7.7-26,11.5c-8.2-2.4-14.3,3.3-20.9,6.2c-7.1,3.1-13.4,8.1-20.1,12.3"/>
<path class="st0" d="M580.3,491.3c-0.8,11.5-7,19-16.5,25.3c-5.9,3.9-12,5.4-18.2,6c-6.7,0.6-13.7-0.8-20.5-1.3"/>
<path class="st0" d="M992.6,662.8c1.7,2.9,0,4.9-1.3,7.6c-4.7,10.3-13.5,14.8-23.2,18.3c-1.2,0.4-2.7,0.1-4,0.1"/>
<path class="st0" d="M870.1,369.8c-8.6,4.4-18,5.8-27.5,6c-6.2,0.1-9.6,4.4-13.4,8.1c-0.4,0.4-0.1,1.6-0.1,2.4"/>
<path class="st0" d="M310.1,674.8c1.5,2.5,1.7,4.8-1,6.5c-4.3,2.6-8.6,5.1-13,7.5c-6.2,3.3-12.8,6-16,13"/>
<path class="st0" d="M599.1,567.8c-7.8-4.3-15.8-8.1-25-5.9c-4.2,1-8,3.2-12,4.9"/>
<path class="st0" d="M772.6,463.3c-6.8,3.8-10.5,10.3-13.4,17c-2.6,6.2-7.9,8.3-13.2,10.9c-0.6,0.3-1.6-0.3-2.5-0.4"/>
<path class="st0" d="M654.6,365.8c-3.1,6.6-9.8,7.7-15.6,9.8c-7.4,2.7-14.1,6-19.9,11.2"/>
<path class="st0" d="M542.1,706.8c3.1,6.7,8.9,10.1,15.5,12.5c4.2,1.5,8.4,2.8,12.5,4.6c4.4,1.9,5.6,5.4,3,9.4c-2.7,4.2-6,8-8.9,12
	c-1.8,2.4-3.3,5-5,7.5"/>
<path class="st0" d="M452.1,624.8c4.3,3.2,4,7.3,2,11.5c-5.5,11.2-12.1,21.7-20.5,31"/>
<path class="st0" d="M694.1,519.8c3.6,7.3,1.1,14.2-2.2,20.4c-2.9,5.4-7.8,9.8-11.8,14.6"/>
<path class="st0" d="M719.1,681.8c-5.4,4.5-12.2,5.9-18.5,8.6c-4.2,1.8-8.2,4.1-12,6.5c-1.4,0.9-2.1,2.9-3.1,4.4"/>
<path class="st0" d="M937.6,465.8c-1,9.8-2.2,19.6-2.9,29.5c-0.7,9.5-0.2,18.8,7.4,26c9.4,9,20.5,12.9,33.5,11.4
	c0.5-0.1,1-0.9,1.5-1.4"/>
<path class="st0" d="M801.1,504.8c-5.5,4.3-11.2,8.4-16.5,13.1c-6.7,5.9-7,10.9-2,18.4"/>
<path class="st0" d="M494.1,445.3c-1.2,6.2-2.6,12.3-3.4,18.5c-0.7,5.3-2.1,10.8,0.9,16"/>
<path class="st0" d="M248.1,611.8c-6.2,4-12.1,8.3-18.6,11.9c-3.4,1.8-4.5,4.7-5.3,7.7c-0.4,1.6,0.4,4.1,1.5,5.3
	c0.6,0.7,3.6,0,4.7-0.9c5-4,9.9-8.1,14.5-12.5c3.3-3.2,6.1-6.9,9.1-10.4"/>
<path class="st0" d="M978.1,559.8c-5.1,3.8-3,8.7-1.4,13c2.7,7.2,6.2,14,9.4,21"/>
<path class="st0" d="M1014.1,537.3c-7.6,0.2-15.1-0.3-22.6,2.3c-3.1,1.1-6.9,0.3-10.4,0.2c-8.3-0.3-16.7-0.6-25-1
	c-1.7-0.1-3.3-0.6-5-1"/>
<path class="st0" d="M499.1,445.8c-4,11.2-6.3,22.7-7,34.5c-0.1,1.8,0.3,3.7,0.5,5.5"/>
<path class="st0" d="M528.1,396.8c-10.5,9-21,18-31.5,27c-0.4,0.3-1.3,0-2,0"/>
<path class="st0" d="M819.1,423.8c-5.7,2.3-6.6,8-8.9,12.6c-2.8,5.4-4.7,11.3-7.2,16.9c-0.3,0.7-1.3,1-2,1.5"/>
<path class="st0" d="M791.6,423.8c1.2,7.4-2.3,14-4.7,20.4c-1.9,5-7.5,6.5-12.8,7.1"/>
<path class="st0" d="M654.6,298.8c-0.2,0.8,0,2-0.5,2.5c-8.3,8.5-11.7,19.4-14.5,30.5"/>
<path class="st0" d="M567.1,409.8c-7.8,8.2-17.1,15.4-20.5,27c-0.5,1.6-0.7,3.3-1,5"/>
<path class="st0" d="M700.6,676.3c-4.6,5.3-11.3,6.2-17.5,7.4c-5.5,1.1-10.3,3.1-14.5,6.6"/>
<path class="st0" d="M1014.1,461.8c0,15.3,0,30.7,0,46"/>
<path class="st0" d="M1014.1,437.8c-1.5,6-3.2,12-4.4,18c-1,4.6-1.4,9.3-2.1,14"/>
<path class="st0" d="M802.1,367.8c2.6,7,3.5,14.1,3,21.5c-0.2,3.3-0.3,6.7-0.5,10"/>
<path class="st0" d="M857.1,587.8c0.7,7,1.4,14,2,21c0.3,3,0.3,6,0.5,9"/>
<path class="st0" d="M866.3,648.3c-0.6,3.5-1.8,7-1.6,10.5c0.2,6.5-3,10.5-8.1,13.5"/>
<path class="st0" d="M726.1,450.8c-9,9.9-19.7,9.5-31,5"/>
<path class="st0" d="M266.1,578.8c-3.5,7.3-6.9,14.7-10.5,22c-1.6,3.1-3.6,6-5.5,9"/>
<path class="st0" d="M1014.1,648.8c0,2.2,0,4.3,0,6.5"/>
<path class="st0" d="M1009.1,719.8c-0.9,4-1.8,7.8-5.4,10.6c-1.8,1.4-2.4,4.2-3.6,6.4"/>
<path class="st0" d="M911.6,705.3c-1.7,0.2-3.7-0.2-4.9,0.6c-2.5,1.8-4.4,4.2-6.6,6.4c-7.8,7.8-18.7,8.7-28,2.5c-3-2-6.3-3.4-9.5-5"
	/>
<path class="st0" d="M800.6,433.3c2.3,6.8-2.4,23.5-9.5,28c-0.6,0.4-1.6,0-2.5,0"/>
<path class="st0" d="M598.1,547.8c-9,0-18,0-27,0.1c-1,0-2,0.9-3,1.4"/>
<path class="st0" d="M943.1,548.8c6.3,10,12.7,20,19,30"/>
<path class="st0" d="M989.6,641.8c-0.6,6.5-1.5,12.9-5.1,18.4c-2.7,4.1-6.3,7.7-9.4,11.6"/>
<path class="st0" d="M815.1,367.8c0.7,10.5-1.3,20.4-5.5,30"/>
<path class="st0" d="M586.1,409.8c-7.3,7.8-14.7,15.6-22,23.5c-1.4,1.5-2.4,3.3-3.5,5"/>
<path class="st0" d="M676.1,548.8c-8.6,6.5-18.1,9.9-29,9"/>
<path class="st0" d="M524.1,361.8c-0.1,6.9-3.7,11.6-9.5,15c-4.3,2.5-8.4,5.3-12.5,8"/>
<path class="st0" d="M641.1,561.8c-7.7-3.5-15.3-7-23-10.5c-2-0.9-4-1.7-6-2.5"/>
<path class="st0" d="M621.6,369.3c-3.7,2.2-7.4,4.3-11,6.5c-5.9,3.6-11.7,7.3-17.5,11"/>
<path class="st0" d="M647.6,322.8c-0.7,3.8-1.4,7.6-2,11.5c-0.2,1.3,0.3,2.7,0.4,4c1.2,10.4-3.3,12.6-12.5,14.5
	c-3.6,0.7-7.3,1-11,1.5"/>
<path class="st0" d="M894.1,389.8c-9.2-2.4-18.5-3.9-28-2.5"/>
<path class="st0" d="M768.1,429.3c-8.3,2.2-15.8,6.1-22.4,11.6c-1.5,1.2-2.1,3.6-3.1,5.4"/>
<path class="st0" d="M808.1,483.8c-9.3,6.3-18.7,12.7-28,19"/>
<path class="st0" d="M764.1,884.8c-7.7,9.3-15.3,18.7-23,28"/>
<path class="st0" d="M819.1,239.8c4,3.4,8.6,3.6,13.5,2.5c2.3-0.5,4.7-0.8,7-1.5c7.3-2.4,13.8-1.3,19.5,4"/>
<path class="st0" d="M784.6,463.8c-1,1-2.1,3-3,2.9c-10.7-1.1-14.8,5.6-17.5,14.1"/>
<path class="st0" d="M829.6,690.3c-3.3,0.5-6.7,1.1-10,1.5c-3.9,0.4-7.3,1.7-9.5,5c-1.7,2.6-3.6,4.7-7,4.5"/>
<path class="st0" d="M800.1,375.8c0,8,0,16,0,24c0,1.2,0.3,2.3,0.5,3.5"/>
<path class="st0" d="M790.1,377.8c5.5,9.2,5.7,18.2-1,27"/>
<path class="st0" d="M866.6,652.8c0.5,3.7,1.3,7.3,1.4,11c0.2,6.4-4.3,10.6-10.4,9.4c-7.1-1.5-12.7,1.9-18.4,4.8
	c-1.5,0.8-1.8,4.1-2.6,6.3"/>
<path class="st0" d="M614.1,553.8c7.2,3.3,14.3,6.7,21.5,10c1.8,0.8,3.7,1.3,5.5,2"/>
<path class="st0" d="M865.1,387.8c-4.7,0-9.5-0.7-14,0.2c-5.3,1.1-10.8,2.9-14.5,7.4c-2.4,2.8-5.1,3.9-8.6,3.5"/>
<path class="st0" d="M675.1,751.8c-7.7,8.3-15.3,16.7-23,25"/>
<path class="st0" d="M416.1,716.8c-6.7,5-13.3,10.1-20,14.9c-1.7,1.2-4,1.7-6,2.6"/>
<path class="st0" d="M1014.1,636.8c0.2,3.4-0.8,6.1-2.7,9.2c-2.8,4.4-3.9,10-5.8,15.1"/>
<path class="st0" d="M655.6,450.8c-1.6,9.6-5.3,18.2-12.5,25"/>
<path class="st0" d="M524.1,331.8c-4.8,7.7-8.4,15.8-9,25"/>
<path class="st0" d="M820.1,353.8c4.2,8.1,3.8,16.5,1.5,25"/>
<path class="st0" d="M461.1,674.8c-8,6.3-16,12.7-24,19"/>
<path class="st0" d="M602.1,560.8c5.7,3.2,11.3,6.4,17,9.5c2.2,1.1,4.6,1.7,7,2.5"/>
<path class="st0" d="M827.1,358.8c0.3,7.5-0.5,14.9-3,22c-0.2,0.6-1,1-1.5,1.5"/>
<path class="st0" d="M993.6,635.8c-0.2,5.8-0.4,11.7-0.5,17.5c0,2.2,0.3,4.3,0.5,6.5"/>
<path class="st0" d="M399.1,554.8c-8.2-3.6-16.1-2.3-24,1"/>
<path class="st0" d="M909.6,719.3c-1.2,0.5-2.7,0.7-3.4,1.5c-6.6,7.8-16.3,10.1-25.6,6c-1.8-0.8-3.7-1.7-5.5-2.5"/>
<path class="st0" d="M819.6,382.3c-2.2,4.8-4.5,9.6-6.5,14.5c-1.2,2.9-2.5,5-6,4.5"/>
<path class="st0" d="M988.1,597.8c1.3,3.8,2.9,7.6,3.9,11.5c1.7,6.5,2.1,13-0.4,19.5"/>
<path class="st0" d="M641.1,142.8c-7.3,3.3-14.7,6.7-22,10"/>
<path class="st0" d="M1010.1,554.8c-7.3,0-14.7,0-22,0"/>
<path class="st0" d="M836.1,362.8c0.3,0.2,0.7,0.3,1,0.5c8.3,8.1,15.1,9.3,26,4.5"/>
<path class="st0" d="M721.6,653.8c4.1,5.6,3.7,12.1,3.4,18.5c0,0.8-0.9,1.7-1.4,2.5"/>
<path class="st0" d="M556.1,349.8c-7.6,5-9.9,13.6-14,21"/>
<path class="st0" d="M1014.1,546.8c-7-1.8-14-3.7-21-5.5"/>
<path class="st0" d="M1006.1,562.8c-8.3-0.4-15.6,1.1-19,10"/>
<path class="st0" d="M682.1,564.8c-6.7,3-13.4,6.2-21,6"/>
<path class="st0" d="M640.1,380.8c-5.5-0.3-10.1,1.7-14,5.5c-2.3,2.3-4.3,4.6-6.5,7"/>
<path class="st0" d="M876.6,726.3c4.7,7.8,12,9.7,20.5,9.5c4.5-0.1,7.7-2,9.5-6.1c0.2-0.5-0.3-1.3-0.5-2"/>
<path class="st0" d="M296.1,555.8c-6.7,0-13.3,0-20,0"/>
<path class="st0" d="M940.1,581.8c3.3,6.7,6.7,13.3,10,20"/>
<path class="st0" d="M220.1,600.8c-6.7,5.3-13.3,10.7-20,16"/>
<path class="st0" d="M716.1,295.3c-6.7-1.3-13.3-2.7-20-4"/>
<path class="st0" d="M639.1,332.8c0.2,2,0.3,4,0.5,6c0.6,7.2-1.9,10-11,10"/>
<path class="st0" d="M839.1,360.8c3.2,5.9,8.5,4.7,13.5,3.9c1.9-0.3,3.7-1.3,5.5-1.9"/>
<path class="st0" d="M216.1,850.8c6.3,4.7,12.7,9.3,19,14"/>
<path class="st0" d="M535.1,378.8c-6.3,3.7-12.7,7.3-19,11"/>
<path class="st0" d="M909.6,722.8c-4.8,6.9-11.6,8.8-19.5,8c-1-0.1-2-1-3-1.5"/>
<path class="st0" d="M97.1,371.8c-3,6.3-6,12.7-9,19"/>
<path class="st0" d="M559.1,377.8c-3.1,7.2-7.7,13.3-13,19"/>
<path class="st0" d="M880.1,398.8c-9.7-2.7-19.3-1.4-29,0"/>
<path class="st0" d="M540.1,737.8c3.5,6.2,1.7,12.6,1,19"/>
<path class="st0" d="M666.1,717.8c-6.3,5-12.7,10-19,15"/>
<path class="st0" d="M674.1,711.8c-0.3,1.2-0.3,2.7-1.1,3.5c-3.4,3.6-7,7-10.4,10.6c-1.4,1.5-2.4,3.3-3.5,5"/>
<path class="st0" d="M993.6,622.8c1.2,5.3,2.3,10.7,3.5,16c0.2,0.7,0.3,1.3,0.5,2"/>
<path class="st0" d="M481.1,667.8c-5.7,6-11.3,12-17,18"/>
<path class="st0" d="M681.1,560.8c-5.7,3-11.1,6.9-18,7"/>
<path class="st0" d="M664.1,563.8c-6,0-12,0-18,0"/>
<path class="st0" d="M822.1,706.3c-3.9-4.9-8.8-2.6-13.5-2.1c-1.8,0.2-3.7-0.6-5.5-0.9"/>
<path class="st0" d="M852.1,680.8c-4.6-1-8.5,1.4-12.5,3"/>
<path class="st0" d="M831.1,689.8c-0.8,1-1.6,2.1-2.5,3c-1.5,1.3-3.2,2.4-5.6,4.3c2.8,1.7,5,3,7.1,4.3"/>
<path class="st0" d="M805.1,349.8c-5.4-3.7-11.1-6.6-18-6"/>
<path class="st0" d="M1007.1,470.8c-0.3,6-0.7,12-1,18"/>
<path class="st0" d="M551.1,452.8c-6-0.5-12-1-18-1.5"/>
<path class="st0" d="M542.1,352.8c-5.8,4.3-9.7,9.8-11,17"/>
<path class="st0" d="M553.1,416.8c-3,5.7-6,11.3-9,17"/>
<path class="st0" d="M662.1,159.8c-5.7,1.7-11.3,3.3-17,5"/>
<path class="st0" d="M664.6,290.3c-5.6-2.3-9,2.5-13.5,4.1c-1.2,0.4-2,1.6-3,2.4"/>
<path class="st0" d="M272.1,558.8c-5.4,4.2-8.8,9.6-11,16"/>
<path class="st0" d="M963.1,508.8c4.8,4.3,10.6,4.1,16.5,4"/>
<path class="st0" d="M555.1,375.8c-3.7,5.3-7.3,10.7-11,16"/>
<path class="st0" d="M870.1,767.8c5.3,2,10.7,4,16,6"/>
<path class="st0" d="M1005.1,730.3c1.7,5.1-3,7.7-4.6,11.5c-0.8,1.8-2.6,3-3.9,4.5"/>
<path class="st0" d="M684.1,568.8c-5.3,2-10.7,4-16,6"/>
<path class="st0" d="M539.1,760.8c-2,5.3-4,10.7-6,16"/>
<path class="st0" d="M980.1,540.8c-1.4,1-2.8,1.9-4.2,2.9c0.2,0.1,0.3,0.2,0.5,0.2c-1.4,2-2.5,4.3-4.4,5.8c-4.4,3.4-7.9,7-6.9,13.1"
	/>
<path class="st0" d="M895.1,351.8c-5,5-10,10-15,15"/>
<path class="st0" d="M484.1,717.8c-5,5-10,10-15,15"/>
<path class="st0" d="M911.1,358.8c5.2,2.8,10.3,5.7,15.5,8.5"/>
<path class="st0" d="M845.6,676.3c5.2,0.7,10.3,1.3,15.5,2"/>
<path class="st0" d="M636.1,391.8c-3.3,5.3-6.9,10.5-9.9,16c-2.8,5.2-7,8.5-12.1,11"/>
<path class="st0" d="M260.1,647.8c-5,4-10,8-15,12"/>
<path class="st0" d="M873.1,377.8c-5,0.5-10,1-15,1.5"/>
<path class="st0" d="M554.1,370.8c-3.3,5-6.7,10-10,15"/>
<path class="st0" d="M793.1,724.8c-5,4.7-10,9.3-15,14"/>
<path class="st0" d="M435.1,695.8c-5,4.3-10,8.7-15,13"/>
<path class="st0" d="M790.1,479.8c-5,3.7-10,7.3-15,11"/>
<path class="st0" d="M881.1,391.8c-5-1.2-10-2.3-15-3.5"/>
<path class="st0" d="M913.6,712.8c5.3,0.1,10.3,1.2,14,5.5"/>
<path class="st0" d="M270.1,544.8c-5.8,2.7-10.1,7.1-14,12"/>
<path class="st0" d="M638.6,335.8c-3.4,7.6-9.2,12.8-16.5,16.5c-0.2,0.1,0,1,0,1.5"/>
<path class="st0" d="M637.1,170.8c-3.9,4-3.6,9-3.5,14"/>
<path class="st0" d="M632.1,743.8c-4.5,3.2-9,6.3-13.5,9.5"/>
<path class="st0" d="M882.1,353.8c-4.3,4-8.7,8-13,12"/>
<path class="st0" d="M839.6,339.8c-1.8,4.3-2,8.6-0.5,13"/>
<path class="st0" d="M604.1,268.8c-3.7,4.3-7.3,8.7-11,13"/>
<path class="st0" d="M741.1,299.8c-3.5-1-7-2-10.5-3"/>
<path class="st0" d="M930.1,719.8c-2.3-0.7-4.6-1.5-7-1.9c-1.4-0.2-3,0.3-4.5,0.4"/>
<path class="st0" d="M832.1,370.8c-1.8,3.6-4.3,7.1-2.5,11.5"/>
<path class="st0" d="M824.1,351.8c1,6.1,5.9,9.2,10,13c1.1,1,2.3,2,3.5,3"/>
<path class="st0" d="M717.6,290.3c3.7,1.8,7.3,3.7,11,5.5"/>
<path class="st0" d="M633.1,466.3c-3.7,2.5-7.3,5-11,7.5"/>
<path class="st0" d="M1009.1,420.8c-1.7,3.4-5.2,6-4,10.5"/>
<path class="st0" d="M840.6,339.8c1.2,3.3,2.3,6.7,3.5,10"/>
<path class="st0" d="M936.1,711.8c-3-2-4.7-6.5-9.5-5"/>
<path class="st0" d="M627.1,660.8c-3.8,3.1-4.4,7.6-5,12"/>
<path class="st0" d="M429.6,686.8c-2.8,2.7-5.7,5.3-8.5,8"/>
<path class="st0" d="M980.1,602.8c1.5,3,3,6,4.5,9"/>
<path class="st0" d="M264.6,645.8c-2.8,3-5.7,6-8.5,9"/>
<path class="st0" d="M831.6,687.3c-3.8,0.2-7.7,0.3-11.5,0.5"/>
<path class="st0" d="M819.1,688.3c-3,0.5-6,1-9,1.5"/>
<path class="st0" d="M836.1,372.8c-2.8,1.7-4.6,4-4,7.5"/>
<path class="st0" d="M750.1,302.8c-2.7-0.8-5.3-1.7-8-2.5"/>
<path class="st0" d="M861.1,679.3c-2.7,0.3-5.3,0.7-8,1"/>
<path class="st0" d="M685.1,450.3c2.3,1.2,4.7,2.3,7,3.5"/>
<path class="st0" d="M959.1,563.8c2.2,3.7,4.3,7.3,6.5,11"/>
<path class="st0" d="M969.1,541.3c-2.3,0.2-4.7,0.3-7,0.5"/>
<path class="st0" d="M545.1,400.8c-3.2,0.8-6.6,1.1-9.4,2.6c-3.6,2-6.8,4.8-10.1,7.4c-1.4,1.1-2.7,2.3-4,3.5"/>
<path class="st0" d="M974.6,544.8c-2.2,0.3-4.3,0.7-6.5,1"/>
<path class="st0" d="M627.1,655.8c-0.7,2.2-1.3,4.3-2,6.5"/>
<path class="st0" d="M1006.6,661.8c0.7,2,1.3,4,2,6"/>
<path class="st0" d="M856.1,377.3c-1.8-0.3-3.7-0.7-5.5-1"/>
<path class="st0" d="M881.1,719.3c1.3,0.7,2.7,1.3,4,2"/>
<path class="st0" d="M537.1,399.8c-0.8,1.2-1.7,2.3-2.5,3.5"/>
<path class="st0" d="M491.1,365.8c-0.5,1.3-1,2.7-1.5,4"/>
<path class="st0" d="M652.1,373.8c-0.8,1-1.7,2-2.5,3"/>
<path class="st0" d="M962.1,563.8c0,1.2,0,2.3,0,3.5"/>
<path class="st0" d="M840.6,367.8c-2.2,0.3-4.3,0.7-6.5,1"/>
</svg>
