<svg width="17" height="32" viewBox="0 0 17 32" fill="none" xmlns="http://www.w3.org/2000/svg">
<path d="M11.3386 8.11099L11.7123 7.77873L11.7123 7.77873L11.3386 8.11099ZM9.77629 24.0553L9.71597 23.5589L9.33888 23.6048L9.28194 23.9803L9.77629 24.0553ZM11.2575 2.42196L10.7826 2.26574L10.7826 2.26574L11.2575 2.42196ZM11.3386 1.00952L11.4068 1.50485L11.4275 1.502L11.4479 1.49744L11.3386 1.00952ZM6.97566 24.1608L7.41307 24.403L7.78994 23.7225L7.01437 23.6623L6.97566 24.1608ZM5.06174 30.7726L4.56197 30.7877L4.57668 31.2726H5.06174V30.7726ZM8.95487 30.7726V31.2726H9.40737L9.45239 30.8223L8.95487 30.7726ZM10.965 8.44324C11.3215 8.84412 11.6804 9.28494 12.032 9.75664L12.8338 9.15901C12.4659 8.66547 12.0888 8.20222 11.7123 7.77873L10.965 8.44324ZM13.8414 12.6272C14.3758 13.6474 14.8181 14.7056 15.1113 15.7439L16.0736 15.4722C15.7581 14.3547 15.287 13.2318 14.7272 12.1632L13.8414 12.6272ZM15.4636 18.9887C15.3467 20.0653 14.9442 21.0137 14.1718 21.7705L14.8717 22.4848C15.8343 21.5415 16.32 20.3659 16.4578 19.0967L15.4636 18.9887ZM11.3546 23.2502C10.8629 23.3814 10.3181 23.4858 9.71597 23.5589L9.83661 24.5516C10.4797 24.4735 11.0708 24.361 11.6126 24.2163L11.3546 23.2502ZM9.28194 23.9803C9.2172 24.4073 9.13559 24.9762 9.04383 25.6644L10.0351 25.7965C10.1261 25.1135 10.2069 24.5506 10.2706 24.1302L9.28194 23.9803ZM8.63486 29.0348C8.57566 29.5713 8.51611 30.1352 8.45736 30.7228L9.45239 30.8223C9.5108 30.2383 9.56999 29.6777 9.62883 29.1445L8.63486 29.0348ZM8.95487 30.2726H7.98159V31.2726H8.95487V30.2726ZM6.03502 30.2726H5.06174V31.2726H6.03502V30.2726ZM5.56151 30.7574C5.54553 30.2308 5.59156 29.6811 5.68562 29.124L4.69958 28.9575C4.59672 29.5667 4.54363 30.1833 4.56197 30.7877L5.56151 30.7574ZM6.6695 25.92C6.90908 25.3646 7.16498 24.851 7.41307 24.403L6.53826 23.9185C6.27483 24.3942 6.00434 24.9373 5.7513 25.5239L6.6695 25.92ZM7.01437 23.6623C6.51018 23.6231 6.04632 23.5261 5.6207 23.3793L5.29476 24.3247C5.80445 24.5005 6.35213 24.6138 6.93695 24.6593L7.01437 23.6623ZM3.34247 21.7771C2.76576 21.0783 2.32141 20.2095 2.01338 19.2165L1.05828 19.5128C1.39722 20.6054 1.89668 21.5963 2.5712 22.4136L3.34247 21.7771ZM1.51856 16.292C1.4697 15.3252 1.51747 14.3149 1.65998 13.2948L0.669602 13.1565C0.51892 14.235 0.467582 15.3087 0.519838 16.3425L1.51856 16.292ZM2.33059 10.3603C2.63718 9.40297 3.0266 8.4698 3.49557 7.58978L2.61306 7.11949C2.1144 8.05522 1.70211 9.04401 1.37824 10.0553L2.33059 10.3603ZM5.16164 5.10979C5.80914 4.34244 6.53621 3.66515 7.33888 3.10727L6.76816 2.28613C5.88645 2.89894 5.09554 3.63749 4.39737 4.46489L5.16164 5.10979ZM9.97035 1.82049C10.4312 1.67966 10.91 1.57324 11.4068 1.50485L11.2704 0.514195C10.7206 0.589884 10.1896 0.707824 9.67808 0.864155L9.97035 1.82049ZM11.4479 1.49744C11.4671 1.49315 11.3052 1.53388 11.1641 1.38593C11.1058 1.32478 11.0859 1.26345 11.0796 1.23706C11.0736 1.2119 11.076 1.20314 11.0753 1.22133L12.0746 1.2581C12.0791 1.13742 12.0725 0.889462 11.8878 0.69576C11.6712 0.468677 11.3878 0.486126 11.2293 0.521614L11.4479 1.49744ZM10.9077 1.8814C10.8699 2.00023 10.8279 2.12789 10.7826 2.26574L11.7325 2.57818C11.7775 2.44141 11.8211 2.30892 11.8606 2.18459L10.9077 1.8814ZM10.7826 2.26574C10.645 2.68411 10.4795 3.18673 10.3412 3.72481L11.3097 3.97375C11.4386 3.47229 11.5939 2.99962 11.7325 2.57818L10.7826 2.26574ZM10.1744 6.91853C10.308 7.46143 10.5562 7.98354 10.965 8.44324L11.7123 7.77873C11.4243 7.4549 11.245 7.08427 11.1454 6.67958L10.1744 6.91853Z" fill="#142585"/>
</svg>
