<?xml version="1.0" encoding="utf-8"?>
<!-- Generator: Adobe Illustrator 23.1.0, SVG Export Plug-In . SVG Version: 6.00 Build 0)  -->
<svg version="1.1" id="Calque_1" xmlns="http://www.w3.org/2000/svg" xmlns:xlink="http://www.w3.org/1999/xlink" x="0px" y="0px"
	 viewBox="0 0 63 36" style="enable-background:new 0 0 63 36;" xml:space="preserve">
<style type="text/css">
	.st0{fill:#142585;}
</style>
<path class="st0" d="M52.5,19L52.5,19c-0.1-2.1-0.2-4.2-0.4-6.3c-0.1-1.7-0.6-3.4-1.2-5c-0.3-0.6-0.8-1.4-1.3-2.1
	c-0.3-0.4-0.6-0.7-0.8-1c-0.1-0.1-0.2-0.2-0.2-0.2l-0.1-0.1l-0.2-0.2c-0.4-0.3-0.8-0.5-1.3-0.5c-0.2,0-0.3,0-0.5,0.1l-2.1,2.8
	L44.1,7l-0.5,0.3c-3.8,2.5-6.2,5.3-7.6,8.2l-2.7,5.6L29.9,16c-1.4-2.1-2.7-3.5-3.7-4.3c-0.9-0.7-2.1-1.5-3.4-2.3l1.8,1.5
	c1.7,1.4,3.3,2.9,4.7,4.5l0.5,0.5l0.2,0.7c1.2,3.6,1.8,7,1.8,10.3c0,1.2-0.1,2.5-0.2,3.7h1.3C32.3,29.3,32,28.1,32,27
	c0-3.9,2-7.5,4.9-10.9l0,0c0.2-0.2,0.4-0.5,0.6-0.7l4-4.4l1.9,5.7c0,0.1,0.1,0.3,0.2,0.4l0,0l0,0c0.5,1.4,1,2.7,1.5,3.7v0
	c0.5,1,1,1.8,1.5,2.3c0.7,0.8,1.3,1.5,1.8,2h0c0.2,0.2,0.5,0.4,1.1,0.7c0.9,0.4,1.6,0.6,2.2,0.8c0.1,0.1,0.6,0.2,1.7,0.2
	c0.1,0,0.2,0,0.3,0c-0.1-0.3-0.2-0.6-0.2-0.9C52.9,23.7,52.6,21.3,52.5,19z"/>
<path class="st0" d="M22,9.2l-0.9-0.5l-0.5-1l-1.5-3.2c-0.3-0.2-0.6-0.4-1-0.5c-0.7-0.2-1.3-0.2-2,0.1l-0.2,0.1l-0.2,0
	c0,0-0.1,0-0.3,0.2c-0.3,0.2-0.7,0.4-1.1,0.7c-0.8,0.6-1.5,1.2-2,1.6c-1.1,1.3-1.9,2.8-2.5,4.4c-0.7,2-1.4,4-2.1,5.9
	c-0.7,2.3-1.7,4.5-2.8,6.6c-0.1,0.3-0.3,0.5-0.5,0.8c0.3,0.1,0.5,0.1,0.8,0.2c1.2,0.3,1.8,0.3,2.1,0.3c0.7,0,1.5-0.1,2.6-0.2h0
	c0.8-0.1,1.2-0.2,1.5-0.4c0.7-0.4,1.5-0.8,2.5-1.4c0.7-0.4,1.4-1,2.2-1.8c0.8-0.9,1.7-1.9,2.6-3.1l0,0l0,0c1-1.3,1.7-2.6,2.1-3.9
	l1.4-4.6C22.2,9.3,22.1,9.3,22,9.2z"/>
</svg>
