<?xml version="1.0" encoding="utf-8"?>
<!-- Generator: Adobe Illustrator 23.1.0, SVG Export Plug-In . SVG Version: 6.00 Build 0)  -->
<svg version="1.1" id="Calque_1" xmlns="http://www.w3.org/2000/svg" xmlns:xlink="http://www.w3.org/1999/xlink" x="0px" y="0px"
	 viewBox="0 0 88 42" style="enable-background:new 0 0 88 42;" xml:space="preserve">
<style type="text/css">
	.st0{fill:#142585;}
</style>
<path class="st0" d="M75.4,7.5c-1.7-0.9-3.4-1.6-5.1-2.4c-1.3-0.5-2.7-0.8-4.2-0.6c-0.6,0.2-1.5,0.4-2.4,0.8c-1.1,0.4-1.8,0.8-1.9,1
	l-0.1,0.1l-0.1,0.1c-0.9,0.7-1.6,1.6-2.3,3c-0.3,0.6-0.5,1.3-0.6,1.9l-0.2,1.1l-0.9,0.6c-4,2.9-6.6,6.1-8.1,9.7L47.2,28l-2.8-4.8
	c-1.4-2.4-2.7-4-3.8-4.9c-1.8-1.5-4.2-3.2-7.4-5.2l-1.1-0.7L31.9,11l-0.1-0.5c-0.4-1-0.9-1.9-1.7-2.6c-1-1.1-2.1-1.7-3.1-2l-0.2-0.1
	l-0.2-0.1c0,0,0,0,0,0c0,0-0.1,0-0.1,0c-0.1,0-0.3-0.1-0.5-0.1c-0.4-0.1-0.9-0.1-1.5-0.1c-1,0-2,0.1-2.7,0.2c-1.6,0.5-3,1.3-4.2,2.4
	c-1.5,1.4-3,2.9-4.3,4.4c-1.6,1.7-3.4,3.3-5.5,4.6c-0.5,0.4-1.1,0.7-1.7,0.9c0.7,0.7,1.6,1.5,2.6,2.6c1.2,1.2,2,1.8,2.6,2.2
	c0.7,0.5,1.7,1.1,2.9,1.8c1,0.6,1.8,0.9,2.3,0.9c0.9,0.1,2,0.3,3.2,0.4c1,0.1,2,0,3.1-0.2c1.2-0.3,2.5-0.7,3.9-1.2l0,0l0,0
	c2.8-1,4.4-2.8,5.2-5.6l1.1-3.9l3.3,2.5c2.5,1.9,4.7,4.1,6.7,6.7l0.3,0.4l0.1,0.5c1.1,3.8,1.7,7.4,1.7,10.8c0,1.6-0.1,3.3-0.4,5h2.8
	c-0.6-1.9-1-3.6-1-5c0-3.7,1.7-7.4,4.5-11c1.6-2,3.2-3.9,5-5.6l2.5-2.4l1.8,2.9c1.4,2.2,3.3,3.2,6,3.1l0,0l0,0
	c1.4,0,2.6-0.1,3.8-0.3c1-0.2,1.9-0.5,2.8-0.9c1.1-0.5,2-1,2.7-1.5c0.5-0.3,1.1-0.8,1.8-1.7c0.9-1,1.6-1.9,2.1-2.6
	c0.4-0.5,1-1.4,1.7-2.9c0.6-1.2,1.1-2.2,1.5-3c-0.4,0-0.9-0.1-1.3-0.2C79.5,9.3,77.4,8.6,75.4,7.5z"/>
</svg>
