<?xml version="1.0" encoding="utf-8"?>
<!-- Generator: Adobe Illustrator 23.1.0, SVG Export Plug-In . SVG Version: 6.00 Build 0)  -->
<svg version="1.1" id="Calque_1" xmlns="http://www.w3.org/2000/svg" xmlns:xlink="http://www.w3.org/1999/xlink" x="0px" y="0px"
	 viewBox="0 0 81 46" style="enable-background:new 0 0 81 46;" xml:space="preserve">
<style type="text/css">
	.st0{fill:#142585;}
</style>
<path class="st0" d="M30.8,19.6l0.4-1.2l0.4-1.2c0-1.1-0.2-2.2-0.6-3.3c-0.6-1.3-1.4-2.5-2.5-3.4l0,0l-0.1-0.1
	C28,10.1,27.1,9.6,26,9c-1.1-0.5-2.1-0.9-2.8-1.1c-1.8-0.3-3.5-0.3-5.2,0.2c-1.8,0.5-3.7,1.1-5.6,1.7c-2,0.7-4,1.1-6.2,1.2
	C5.1,11.2,4,11.1,3,11c0.2,0.4,0.3,0.8,0.5,1.1c0.4,0.9,0.9,2,1.5,3.5s1.2,2.4,1.6,3c0.5,0.7,1.2,1.5,1.9,2.6c0.8,1,1.4,1.6,2,2
	c0.8,0.5,1.7,1.1,2.8,1.6c1,0.6,2,1,3.3,1.2c1.2,0.3,2.6,0.6,4.1,0.7l0,0l0,0c3.5,0.4,6-0.6,8-2.9l0.8-1l1.1,0.7
	c2.5,1.6,4.8,3.5,6.8,5.9l0.2,0.2l0.1,0.3c1,3.1,1.5,6,1.5,8.8c0,1.6-0.2,3.4-0.5,5.1h5.7c-0.9-2-1.3-3.7-1.3-5.1
	c0-2.9,1.4-5.9,4-8.7c2-2.3,4.2-4.3,6.6-6.1l1.1-0.9l0.9,1.1l0.4,0.5c1.6,1.3,3.3,2,4.9,2.1c1.6,0.2,3.4-0.2,5.3-1.2l0,0l0,0
	c1.3-0.7,2.5-1.4,3.5-2.2c1-0.7,1.8-1.5,2.5-2.4c0.8-1,1.4-1.8,1.9-2.6c0.4-0.6,0.9-1.4,1.2-2.7c0.4-1.2,0.7-2.3,0.9-3.2
	c0.2-0.7,0.3-1.8,0.4-3.4c0.1-1.5,0.1-2.9,0.2-3.7c0-0.3,0-0.7,0-1.2c-0.9,0.6-1.9,1-3,1.3c-2.1,0.7-4.1,1.1-6.2,1.2
	c-1.9,0.1-3.8,0.3-5.8,0.5c-1.7,0.2-3.4,0.8-5,1.8c-0.6,0.5-1.4,1.2-2.2,2c-0.9,0.9-1.4,1.7-1.6,2.2v0.1v0.1c-0.7,1.2-1,2.5-1,4
	c0,0.2,0,0.3,0,0.5v0.9l-0.7,0.5c-3.9,2.5-6.6,5.4-8.2,8.5l-1.2,2.3l-1.2-2.1c-1.3-2-2.6-3.5-3.8-4.3c-1.3-1-3.1-2.1-5.2-3.4
	L30.8,19.6z"/>
</svg>
