<svg width="66" height="40" viewBox="0 0 66 40" fill="none" xmlns="http://www.w3.org/2000/svg">
<path d="M42.0603 23.8281C43.3862 24.5573 44.7121 24.9479 46.038 25C48.1496 25.1042 49.9911 24.7526 51.5625 23.9453C53.1339 23.138 54.4353 22.0703 55.4665 20.7422C56.4978 19.4141 57.4676 18.0729 58.3761 16.7188C59.2846 15.3646 60.3772 14.1016 61.654 12.9297C62.9308 11.7578 64.3795 11.0156 66 10.7031C64.0848 9.60938 62.6607 8.8151 61.7277 8.32031C60.7947 7.82552 59.567 7.22656 58.0446 6.52344C56.5223 5.82031 55.2455 5.40365 54.2143 5.27344C53.183 5.14323 51.9676 5.07812 50.5681 5.07812C49.1685 5.07812 47.7935 5.32552 46.4431 5.82031C45.0926 6.3151 43.6563 7.00521 42.1339 7.89062C38.2545 10.2344 36.9286 13.776 38.1562 18.5156V18.5938C34.817 20.7292 32.5089 23.2292 31.2321 26.0938C30.25 24.4792 29.2679 23.2812 28.2857 22.5C26.9598 21.4583 25.1429 20.2344 22.8348 18.8281C23.3259 17.6823 23.5714 16.4583 23.5714 15.1562C23.5714 13.5417 23.2522 12.0833 22.6138 10.7812C21.6808 8.80208 20.4531 7.29167 18.9308 6.25C17.4085 5.20833 15.8125 4.57031 14.1429 4.33594C12.4732 4.10156 10.8036 3.93229 9.13393 3.82812C7.46429 3.72396 5.79464 3.38542 4.125 2.8125C2.45536 2.23958 1.08036 1.30208 0 0C0 1.77083 0.0122768 3.08594 0.0368304 3.94531C0.0613839 4.80469 0.0982143 5.96354 0.147321 7.42188C0.196429 8.88021 0.30692 10 0.478795 10.7812C0.65067 11.5625 0.883929 12.5391 1.17857 13.7109C1.47321 14.8828 1.85379 15.8333 2.32031 16.5625C2.78683 17.2917 3.35156 18.112 4.01451 19.0234C4.67746 19.9349 5.47545 20.7552 6.40848 21.4844C7.34152 22.2135 8.39732 22.9167 9.57589 23.5938C13.1607 25.7292 16.5491 25.4167 19.7411 22.6563C22.6875 24.0625 25.192 26.0417 27.2545 28.5938C27.942 30.8854 28.2857 33.0208 28.2857 35C28.2857 36.5625 28.0893 38.2292 27.6964 40H34.5469C33.5156 37.7604 33 36.0938 33 35C33 33.1771 33.8717 31.1979 35.615 29.0625C37.3583 26.9271 39.3348 25.0521 41.5446 23.4375C41.5938 23.4375 41.6674 23.4896 41.7656 23.5938C41.8638 23.6979 41.9621 23.776 42.0603 23.8281Z" fill="#142585"/>
</svg>
