<svg width="48" height="39" viewBox="0 0 48 39" fill="none" xmlns="http://www.w3.org/2000/svg">
<rect y="6" width="48" height="33" fill="#142585"/>
<path d="M29 23.0062V24.9417H32.6245V29H34.3755V24.9417H38V23.0062H34.3755V19H32.6245V23.0062H29Z" fill="white"/>
<path d="M14.5 13C19.0962 18.359 21 22.9019 21 25.35C21 26.2233 20.8319 27.088 20.5052 27.8948C20.1786 28.7017 19.6998 29.4348 19.0962 30.0523C18.4926 30.6698 17.7761 31.1596 16.9874 31.4938C16.1988 31.828 15.3536 32 14.5 32C13.6464 32 12.8012 31.828 12.0126 31.4938C11.2239 31.1596 10.5074 30.6698 9.90381 30.0523C9.30023 29.4348 8.82144 28.7017 8.49478 27.8948C8.16813 27.088 8 26.2233 8 25.35C8 22.9019 10.1664 18.7855 14.5 13Z" fill="white"/>
<path d="M34 7H18.8889H17L25.5 0L34 7Z" fill="#142585"/>
</svg>
