<svg width="56" height="49" viewBox="0 0 56 49" fill="none" xmlns="http://www.w3.org/2000/svg">
<path d="M31.5792 20.3813C32.3225 20.7602 33.0658 20.9631 33.8092 20.9902C34.9929 21.0443 36.0253 20.8616 36.9062 20.4422C37.7872 20.0227 38.5167 19.4679 39.0949 18.7778C39.673 18.0877 40.2167 17.3908 40.726 16.6872C41.2353 15.9836 41.8478 15.3273 42.5636 14.7184C43.2794 14.1095 44.0915 13.7238 45 13.5614C43.9263 12.9931 43.128 12.5804 42.6049 12.3233C42.0818 12.0662 41.3936 11.755 40.5402 11.3896C39.6868 11.0243 38.971 10.8078 38.3929 10.7401C37.8147 10.6725 37.1334 10.6386 36.3488 10.6386C35.5642 10.6386 34.7933 10.7672 34.0363 11.0243C33.2792 11.2814 32.474 11.64 31.6205 12.1C29.4457 13.3179 28.7024 15.1581 29.3906 17.6209V17.6615C27.5186 18.771 26.2247 20.0701 25.5089 21.5585C24.9583 20.7196 24.4077 20.0971 23.8571 19.6912C23.1138 19.1499 22.0952 18.5139 20.8013 17.7832C21.0766 17.1879 21.2143 16.5519 21.2143 15.8753C21.2143 15.0364 21.0353 14.2786 20.6775 13.602C20.1544 12.5736 19.4661 11.7888 18.6127 11.2475C17.7593 10.7063 16.8646 10.3748 15.9286 10.253C14.9926 10.1312 14.0565 10.0432 13.1205 9.98912C12.1845 9.935 11.2485 9.75909 10.3125 9.4614C9.37649 9.16371 8.60565 8.67657 8 8C8 8.92014 8.00688 9.60348 8.02065 10.05C8.03441 10.4966 8.05506 11.0987 8.08259 11.8565C8.11012 12.6142 8.17206 13.1961 8.26842 13.602C8.36477 14.008 8.49554 14.5154 8.66071 15.1243C8.82589 15.7332 9.03925 16.2271 9.30078 16.606C9.56231 16.9849 9.87891 17.4111 10.2506 17.8847C10.6222 18.3583 11.0696 18.7846 11.5926 19.1635C12.1157 19.5423 12.7076 19.9077 13.3683 20.2595C15.378 21.3691 17.2775 21.2067 19.067 19.7724C20.7188 20.5031 22.1228 21.5315 23.279 22.8575C23.6644 24.0483 23.8571 25.1579 23.8571 26.1863C23.8571 26.9982 23.747 27.8642 23.5268 28.7843H14.6071C14.2493 28.7843 13.9395 28.9129 13.678 29.17C13.4165 29.4271 13.2857 30.0833 13.2857 30.0833C13.2857 30.0833 13.3683 38 25.5089 38C36.9062 38 38.163 30.0833 38.163 30.0833C38.163 29.7315 38.0323 29.4271 37.7707 29.17C37.5092 28.9129 37.1995 28.7843 36.8416 28.7843H27.3672C26.7891 27.6206 26.5 26.7546 26.5 26.1863C26.5 25.2391 26.9887 24.2107 27.966 23.1011C28.9433 21.9915 30.0513 21.0173 31.2902 20.1783C31.3177 20.1783 31.359 20.2054 31.4141 20.2595C31.4691 20.3136 31.5242 20.3542 31.5792 20.3813Z" fill="#142585"/>
<path d="M37 36.8075V39.1301H41.4299V44H43.5701V39.1301H48V36.8075H43.5701V32H41.4299V36.8075H37Z" fill="#142585"/>
<rect x="0.5" y="0.5" width="55" height="48" stroke="#142585"/>
</svg>
