<svg width="56" height="49" viewBox="0 0 56 49" fill="none" xmlns="http://www.w3.org/2000/svg">
<rect x="0.5" y="0.5" width="55" height="48" stroke="#142585"/>
<rect x="1" y="24" width="54" height="24" fill="#142585"/>
<path d="M20.2899 20.4635C21.9202 17.3348 24.3326 13.586 27.538 9.21228C30.8953 13.2643 33.2895 16.9959 34.8614 20.1874C36.5347 23.5846 37.25 26.3164 37.25 28.15C37.25 29.4797 36.9965 30.7958 36.5046 32.0231C36.0127 33.2502 35.2923 34.3637 34.3857 35.3005C33.4791 36.2373 32.4042 36.979 31.2231 37.4846C30.0419 37.9901 28.7769 38.25 27.5 38.25C26.2231 38.25 24.9581 37.9901 23.7769 37.4846C22.5958 36.979 21.5209 36.2373 20.6143 35.3005C19.7077 34.3637 18.9873 33.2502 18.4954 32.0231C18.0035 30.7958 17.75 29.4797 17.75 28.15C17.75 26.3393 18.5543 23.7944 20.2899 20.4635Z" fill="#142585" stroke="white" stroke-width="1.5" stroke-linecap="round" stroke-linejoin="round"/>
</svg>
