<svg width="56" height="49" viewBox="0 0 56 49" fill="none" xmlns="http://www.w3.org/2000/svg">
<path d="M25.1954 33.3908C19.5487 33.3908 15 28.8421 15 23.1954C15 17.5487 19.5487 13 25.1954 13C30.8421 13 35.3908 17.5487 35.3908 23.1954C35.3908 28.8421 30.8421 33.3908 25.1954 33.3908ZM25.1954 14.5685C20.4114 14.5685 16.5685 18.4114 16.5685 23.1954C16.5685 27.9794 20.4114 31.8223 25.1954 31.8223C29.9794 31.8223 33.8223 27.9794 33.8223 23.1954C33.8223 18.4114 29.9794 14.5685 25.1954 14.5685Z" fill="#142585"/>
<path d="M32.7886 29.6787L39.8313 36.7214L38.7224 37.8303L31.6797 30.7877L32.7886 29.6787Z" fill="#142585"/>
<rect x="0.5" y="0.5" width="55" height="48" stroke="#142585"/>
</svg>
