<svg width="56" height="49" viewBox="0 0 56 49" fill="none" xmlns="http://www.w3.org/2000/svg">
<path d="M28.1855 10C20.122 10 15.0454 12.6533 15.3872 14.9167C15.4857 15.565 15.7568 18.1583 16.1002 20.3717C12.149 21.9283 10.8396 24.4533 11.0154 26.5117C11.224 28.9467 13.3828 31.5533 18.1259 32.0033C20.8334 32.26 24.0913 30.7533 26.2025 28.1783C25.9469 27.7366 25.8417 27.2219 25.9031 26.7135C25.9645 26.2051 26.1891 25.7314 26.5422 25.3653C26.8953 24.9992 27.3573 24.7612 27.857 24.6879C28.3567 24.6146 28.8663 24.7102 29.3071 24.9598C29.748 25.2094 30.0956 25.5992 30.2964 26.0692C30.4972 26.5391 30.5401 27.063 30.4183 27.56C30.2965 28.0571 30.0169 28.4997 29.6226 28.8196C29.2283 29.1394 28.7412 29.3188 28.2364 29.33C25.7244 32.6183 21.898 34.6033 18.2738 34.3717C18.3576 34.9117 18.3888 35.95 18.4315 36.2267C18.5793 37.1917 22.2874 39.9933 28.1855 40C34.0835 39.9933 37.7916 37.1917 37.9411 36.2283C38.0857 35.2667 40.6371 17.2133 40.9838 14.9167C41.3255 12.6533 36.2472 10 28.1855 10ZM13.3056 26.3083C13.2152 25.2367 14.0531 23.8117 16.4666 22.7433L17.523 29.5333C14.8877 29.0117 13.419 27.6183 13.3056 26.3083ZM28.1855 18.3733C22.2874 18.37 18.1029 16.15 18.1029 15.32C18.0996 14.4967 22.2874 12.3367 28.1855 12.34C34.0835 12.3367 38.2713 14.4967 38.268 15.32C38.268 16.15 34.0835 18.37 28.1855 18.3733Z" fill="#142585"/>
<rect x="0.5" y="0.5" width="55" height="48" stroke="#142585"/>
</svg>
