<svg width="58" height="38" viewBox="0 0 58 38" fill="none" xmlns="http://www.w3.org/2000/svg">
<rect x="0.5" y="0.5" width="57" height="37" stroke="#142585"/>
<path opacity="0.7" d="M33.2564 14.9318C33.7407 15.1795 34.225 15.3121 34.7093 15.3298C35.4805 15.3652 36.1532 15.2458 36.7271 14.9716C37.3011 14.6975 37.7764 14.3349 38.1531 13.8839C38.5298 13.4328 38.884 12.9774 39.2159 12.5175C39.5477 12.0576 39.9468 11.6287 40.4131 11.2307C40.8795 10.8328 41.4086 10.5807 42.0005 10.4746C41.301 10.1032 40.7808 9.83344 40.44 9.66541C40.0992 9.49738 39.6508 9.29397 39.0948 9.05519C38.5387 8.81641 38.0724 8.67491 37.6957 8.6307C37.3191 8.58648 36.8751 8.56437 36.3639 8.56437C35.8527 8.56437 35.3505 8.64838 34.8572 8.81641C34.364 8.98444 33.8393 9.2188 33.2833 9.51949C31.8663 10.3154 31.382 11.5182 31.8304 13.1277V13.1543C30.6107 13.8794 29.7677 14.7284 29.3013 15.7012C28.9426 15.1529 28.5839 14.7461 28.2251 14.4808C27.7408 14.1271 27.0772 13.7114 26.2341 13.2338C26.4135 12.8447 26.5032 12.4291 26.5032 11.9869C26.5032 11.4386 26.3866 10.9433 26.1534 10.5011C25.8126 9.82902 25.3642 9.31608 24.8082 8.96234C24.2521 8.60859 23.6692 8.39192 23.0593 8.31232C22.4495 8.23273 21.8396 8.17524 21.2298 8.13987C20.6199 8.10449 20.0101 7.98953 19.4002 7.79496C18.7904 7.6004 18.2882 7.28203 17.8936 6.83984C17.8936 7.44122 17.898 7.88782 17.907 8.17967C17.916 8.47151 17.9294 8.86505 17.9474 9.3603C17.9653 9.85555 18.0057 10.2358 18.0684 10.5011C18.1312 10.7665 18.2164 11.0981 18.324 11.4961C18.4317 11.894 18.5707 12.2168 18.7411 12.4644C18.9115 12.7121 19.1177 12.9906 19.3599 13.3002C19.602 13.6097 19.8935 13.8883 20.2343 14.1359C20.5751 14.3835 20.9607 14.6223 21.3912 14.8522C22.7006 15.5774 23.9382 15.4713 25.1041 14.5339C26.1803 15.0114 27.0951 15.6836 27.8484 16.5502C28.0996 17.3285 28.2251 18.0537 28.2251 18.7258C28.2251 19.2564 28.1534 19.8224 28.0099 20.4238H22.1984C21.9652 20.4238 21.7634 20.5078 21.593 20.6758C21.4226 20.8439 21.3374 21.2728 21.3374 21.2728C21.3374 21.2728 21.3912 26.4469 29.3013 26.4469C36.7271 26.4469 37.546 21.2728 37.546 21.2728C37.546 21.0428 37.4608 20.8439 37.2904 20.6758C37.12 20.5078 36.9182 20.4238 36.685 20.4238H30.5121C30.1354 19.6632 29.947 19.0972 29.947 18.7258C29.947 18.1067 30.2654 17.4346 30.9022 16.7094C31.5389 15.9842 32.2609 15.3475 33.068 14.7992C33.086 14.7992 33.1129 14.8169 33.1488 14.8522C33.1846 14.8876 33.2205 14.9142 33.2564 14.9318Z" fill="#142585"/>
<path d="M39.2887 24.5431C38.7817 24.0863 37.9912 24.1162 37.4584 24.5431L33.4883 27.6978C33.0028 28.0863 32.397 28.2955 31.7697 28.2955H26.6868C26.3087 28.2955 25.9993 27.9881 25.9993 27.6124C25.9993 27.2368 26.3087 26.9294 26.6868 26.9294H30.051C30.7342 26.9294 31.3701 26.4641 31.4818 25.7939C31.6236 24.9401 30.9619 24.1973 30.1241 24.1973H23.2495C22.0894 24.1973 20.968 24.5943 20.0657 25.32L18.0678 26.9294H15.6875C15.3094 26.9294 15 27.2368 15 27.6124V31.7106C15 32.0863 15.3094 32.3936 15.6875 32.3936H31.0178C31.6408 32.3936 32.2466 32.1845 32.7364 31.796L39.2329 26.6306C39.886 26.114 39.9375 25.1236 39.2887 24.5431Z" fill="#142585"/>
</svg>
