<svg width="138" height="110" viewBox="0 0 138 110" fill="none" xmlns="http://www.w3.org/2000/svg">
<path opacity="0.5" d="M67.8279 66.8235C67.8279 63.3617 69.6195 59.6032 73.2027 55.5479L64.1943 49.91C62.1756 46.8439 60.1569 44.5689 58.1382 43.0853C55.413 41.1071 51.6784 38.7827 46.9345 36.1122C47.9439 33.9362 48.4485 31.6118 48.4485 29.1391C48.4485 26.0729 47.7925 23.3034 46.4803 20.8307C44.5626 17.0721 42.0392 14.2038 38.9102 12.2256C35.7813 10.2474 32.5009 9.03574 29.0691 8.59065C25.6374 8.14556 22.2056 7.8241 18.7738 7.62628C15.342 7.42847 11.9103 6.78555 8.47849 5.69755C5.04672 4.60955 2.22056 2.82918 0 0.356445C0 3.71936 0.0252336 6.21683 0.0757008 7.84883C0.126168 9.48084 0.201869 11.6816 0.302803 14.451C0.403738 17.2205 0.63084 19.347 0.984111 20.8307C1.33738 22.3143 1.81682 24.1689 2.42243 26.3943C3.02803 28.6198 3.81028 30.4249 4.76915 31.8096C5.72803 33.1944 6.88878 34.7522 8.25139 36.4831C9.61401 38.214 11.2542 39.7718 13.1719 41.1566C15.0897 42.5413 17.2598 43.8766 19.6822 45.1624C27.0504 49.2177 34.0149 48.6242 40.5756 43.382C46.6317 46.0526 51.7794 49.8111 56.0186 54.6577C57.4317 59.0097 58.1382 63.065 58.1382 66.8235C58.1382 69.7908 57.7345 72.9559 56.927 76.3188H24.2243C22.9121 76.3188 21.7766 76.7887 20.8177 77.7283C19.8589 78.6679 19.3794 81.0665 19.3794 81.0665C19.3794 81.0665 19.6822 110 64.1943 110C105.981 110 110.589 81.0665 110.589 81.0665C110.589 79.7807 110.11 78.6679 109.151 77.7283C108.192 76.7887 107.056 76.3188 105.744 76.3188H71.0074C68.8878 72.0657 67.8279 68.9006 67.8279 66.8235Z" fill="#142585"/>
<path d="M88.7773 45.3965C91.5035 46.7805 94.2297 47.5219 96.9558 47.6207C101.298 47.8184 105.084 47.1512 108.315 45.6189C111.546 44.0866 114.222 42.0601 116.342 39.5393C118.462 37.0185 120.457 34.473 122.324 31.9027C124.192 29.3325 126.439 26.9353 129.064 24.711C131.689 22.4868 134.668 21.0781 138 20.485C134.062 18.409 131.134 16.9015 129.216 15.9623C127.297 15.0232 124.773 13.8864 121.643 12.5518C118.513 11.2173 115.888 10.4264 113.767 10.1793C111.647 9.93216 109.148 9.80859 106.27 9.80859C103.393 9.80859 100.565 10.2782 97.7888 11.2173C95.0122 12.1564 92.0588 13.4662 88.9287 15.1468C80.9521 19.5953 78.226 26.3174 80.7502 35.3132V35.4615C79.6473 36.1126 69.9935 44.7097 69 45.3965L77.9366 51.3976C79.2424 50.3624 86.3206 45.5969 87.7171 44.6551C87.8181 44.6551 87.9695 44.7539 88.1715 44.9516C88.3734 45.1493 88.5753 45.2976 88.7773 45.3965Z" fill="#142585"/>
<path d="M110.589 53.8694V58.26H118.963V67.4662H123.009V58.26H131.383V53.8694H123.009V44.7812H118.963V53.8694H110.589Z" fill="#142585"/>
<path d="M60.4932 42.8906L81.2877 57.0687" stroke="#142585" stroke-width="2" stroke-dasharray="5 5"/>
</svg>
