<svg width="107" height="104" viewBox="0 0 107 104" fill="none" xmlns="http://www.w3.org/2000/svg">
<path opacity="0.5" d="M94.6882 67H56.6036H41.1663H5.31178C3.87317 67 2.62822 67.5161 1.57693 68.5483C0.525645 69.5806 0 72.2154 0 72.2154C0 72.2154 0.331985 104 49.134 104C94.948 104 100 72.2154 100 72.2154C100 70.8029 99.4743 69.5806 98.4231 68.5483C97.3718 67.5161 96.1268 67 94.6882 67Z" fill="#142585"/>
<path d="M55.4598 15.6442C65.3343 26.7487 75.7017 51 47.0751 51C24.2635 51 29.7873 3.55476 55.4598 0.0209541C57.9373 -0.533954 50.502 10.0687 55.4598 15.6442Z" fill="#142585"/>
<path d="M84.7148 12.615V17.2601H93.5747V27H97.855V17.2601H106.715V12.615H97.855V3H93.5747V12.615H84.7148Z" fill="#142585"/>
<path d="M44.7145 73C38.3145 67 43.3812 54.8333 46.7145 49.5H52.2148C51.8815 51.5 51.0148 57.5 50.2148 65.5C49.4148 73.5 55.2148 75.8333 58.2148 76C56.3814 77.5 51.1145 79 44.7145 73Z" fill="#142585"/>
</svg>
