<svg width="29" height="29" viewBox="0 0 29 29" fill="none" xmlns="http://www.w3.org/2000/svg">
<path d="M11.7484 23.4969C5.24161 23.4969 0 18.2553 0 11.7484C0 5.24161 5.24161 0 11.7484 0C18.2553 0 23.4969 5.24161 23.4969 11.7484C23.4969 18.2553 18.2553 23.4969 11.7484 23.4969ZM11.7484 1.80745C6.23571 1.80745 1.80745 6.23571 1.80745 11.7484C1.80745 17.2612 6.23571 21.6894 11.7484 21.6894C17.2612 21.6894 21.6894 17.2612 21.6894 11.7484C21.6894 6.23571 17.2612 1.80745 11.7484 1.80745Z" fill="#142585"/>
<path d="M20.4976 19.2188L28.613 27.3342L27.3352 28.6121L19.2197 20.4966L20.4976 19.2188Z" fill="#142585"/>
</svg>
