<svg width="22" height="22" viewBox="0 0 22 22" fill="none" xmlns="http://www.w3.org/2000/svg">
<path d="M12.6027 0C6.6895 0 2.96666 1.94578 3.21726 3.60556C3.28954 4.081 3.48834 5.98278 3.74014 7.60589C0.842588 8.74744 -0.11764 10.5991 0.011274 12.1086C0.164284 13.8942 1.7474 15.8058 5.22566 16.1358C7.21118 16.324 9.6003 15.2191 11.1485 13.3308C10.9611 13.0069 10.8839 12.6294 10.9289 12.2566C10.974 11.8838 11.1386 11.5363 11.3976 11.2679C11.6565 10.9994 11.9954 10.8249 12.3618 10.7711C12.7282 10.7174 13.1019 10.7874 13.4252 10.9705C13.7485 11.1536 14.0035 11.4394 14.1507 11.7841C14.298 12.1287 14.3294 12.5129 14.2401 12.8774C14.1508 13.2419 13.9457 13.5664 13.6566 13.801C13.3674 14.0356 13.0102 14.1671 12.64 14.1753C10.7979 16.5868 7.99189 18.0424 5.3341 17.8726C5.39554 18.2686 5.41843 19.03 5.44976 19.2329C5.55819 19.9406 8.27743 21.9951 12.6027 22C16.9279 21.9951 19.6472 19.9406 19.7568 19.2341C19.8628 18.5289 21.7339 5.28978 21.9881 3.60556C22.2387 1.94578 18.5146 0 12.6027 0ZM1.69077 11.9594C1.62451 11.1736 2.23896 10.1286 4.00881 9.34511L4.7835 14.3244C2.851 13.9419 1.7739 12.9201 1.69077 11.9594ZM12.6027 6.14044C8.27743 6.138 5.2088 4.51 5.2088 3.90133C5.20639 3.29756 8.27743 1.71356 12.6027 1.716C16.9279 1.71356 19.999 3.29756 19.9966 3.90133C19.9966 4.51 16.9279 6.138 12.6027 6.14044Z" fill="#142585"/>
</svg>
