<svg width="19" height="12" viewBox="0 0 19 12" fill="none" xmlns="http://www.w3.org/2000/svg">
<path d="M12.3475 5.99874C12.3475 7.58989 11.0703 8.87977 9.49484 8.87977C7.91936 8.87977 6.64218 7.58989 6.64218 5.99874C6.64218 4.40757 7.91936 3.11771 9.49484 3.11771C11.0703 3.11769 12.3475 4.40759 12.3475 5.99874ZM9.5 0C7.86877 0.0076277 6.17794 0.42625 4.57735 1.22773C3.38894 1.84732 2.23076 2.72149 1.2254 3.80046C0.731627 4.35124 0.101824 5.14876 0 5.99968C0.0120333 6.73676 0.762058 7.64654 1.2254 8.19891C2.16817 9.2355 3.29618 10.0853 4.57735 10.7723C6.06998 11.5359 7.72211 11.9755 9.5 12C11.1328 11.9923 12.8232 11.5688 14.422 10.7723C15.6105 10.1527 16.7692 9.27788 17.7746 8.19891C18.2684 7.64813 18.8982 6.85059 19 5.99968C18.988 5.26259 18.2379 4.35278 17.7746 3.80043C16.8318 2.76383 15.7032 1.91472 14.422 1.22769C12.9302 0.464655 11.274 0.0280239 9.5 0ZM9.4988 1.48962C11.9707 1.48962 13.9745 3.50911 13.9745 6.00033C13.9745 8.49153 11.9707 10.511 9.4988 10.511C7.02691 10.511 5.02311 8.49151 5.02311 6.00033C5.02311 3.50911 7.02691 1.48962 9.4988 1.48962Z" fill="#F8F1F1"/>
</svg>
