<svg width="33" height="19" viewBox="0 0 33 19" fill="none" xmlns="http://www.w3.org/2000/svg">
<path d="M24 8.60562V10.3476H27.6245V14H29.3755V10.3476H33V8.60562H29.3755V5H27.6245V8.60562H24Z" fill="#142585"/>
<path d="M11.457 0C6.08136 0 2.69696 1.68044 2.92478 3.11389C2.99049 3.5245 3.17122 5.16694 3.40013 6.56872C0.765989 7.55461 -0.106945 9.15378 0.0102491 10.4574C0.149349 11.9996 1.58854 13.6504 4.7506 13.9354C6.55562 14.098 8.72755 13.1438 10.135 11.5129C9.9646 11.2332 9.89447 10.9072 9.9354 10.5852C9.97633 10.2632 10.126 9.96319 10.3615 9.73135C10.5969 9.4995 10.9049 9.34875 11.238 9.30234C11.5711 9.25592 11.9108 9.31643 12.2047 9.47453C12.4986 9.63262 12.7304 9.87952 12.8643 10.1771C12.9982 10.4748 13.0267 10.8066 12.9455 11.1214C12.8643 11.4362 12.6779 11.7165 12.415 11.9191C12.1522 12.1216 11.8274 12.2352 11.4909 12.2423C9.81625 14.3249 7.26536 15.5821 4.84918 15.4354C4.90504 15.7774 4.92585 16.435 4.95432 16.6102C5.0529 17.2214 7.52494 18.9958 11.457 19C15.389 18.9958 17.8611 17.2214 17.9607 16.6113C18.0571 16.0022 19.7581 4.56844 19.9892 3.11389C20.217 1.68044 16.8315 0 11.457 0ZM1.53706 10.3286C1.47682 9.64989 2.03541 8.74739 3.64437 8.07078L4.34864 12.3711C2.59181 12.0407 1.61264 11.1583 1.53706 10.3286ZM11.457 5.30311C7.52494 5.301 4.73527 3.895 4.73527 3.36933C4.73308 2.84789 7.52494 1.47989 11.457 1.482C15.389 1.47989 18.1809 2.84789 18.1787 3.36933C18.1787 3.895 15.389 5.301 11.457 5.30311Z" fill="#142585"/>
</svg>
